<svg xmlns="http://www.w3.org/2000/svg" viewBox="0 0 1038.94 895.67" width="1038.94" height="895.67">
  <path fill="none" stroke="#000" stroke-miterlimit="10" d="M1038.44 386.89c0-15.35-2.88-30.34-8.37-44.31s-13.6-26.91-24.05-38.16c-3.43-27.62-16.36-52.47-35.35-71.17s-44.04-31.25-71.69-34.26c.05-.96.08-1.87.11-2.76s.03-1.75.03-2.59c0-33.42-13.6-63.73-35.55-85.69S811.31 72.4 777.88 72.4c-4.19 0-8.41.22-12.61.67s-8.41 1.11-12.57 1.99c-9.44-22.66-25.12-41.3-44.58-54.28S665.4.5 640.81.5c-16.48 0-32.69 3.41-47.63 9.8s-28.61 15.76-40.01 27.67C541.75 26.61 528.46 17.8 514 11.84s-30.1-9.09-46.23-9.09c-17.07 0-33.77 3.62-49.07 10.41S389.49 29.9 378 42.55c-8.94-4.93-18.46-8.71-28.3-11.24s-20.01-3.84-30.24-3.84c-23.45 0-45.93 6.85-65.04 19.02s-34.84 29.64-44.78 50.88a123.745 123.745 0 0 0-7.03-.23c-32.34 0-62.06 13.1-83.97 34.28s-36.03 50.42-37.16 82.7c-24.24 8.52-44.49 24.24-58.68 44.27S.5 302.74.5 328.47c0 7.55.69 15.03 2.07 22.37s3.44 14.55 6.17 21.57c-.5 3.17-.88 6.35-1.13 9.52s-.38 6.33-.38 9.46c0 21.2 5.39 41.45 15.29 59.17s24.32 32.94 42.37 44.07c9.74 21.85 25.47 39.83 44.75 52.35s42.09 19.57 66.01 19.57a121.346 121.346 0 0 0 30.4-3.87c3.99 29.97 18.86 56.22 40.31 74.98s49.49 30.02 79.85 30.02c6.55 0 13.05-.53 19.47-1.57s12.75-2.6 18.95-4.68c9.44 5.72 19.58 10.09 30.13 13.03s21.5 4.45 32.57 4.45c14.73 0 29.17-2.66 42.69-7.75s26.12-12.6 37.17-22.3c5.39 22.63 17.1 42.77 33.17 58.47s36.49 26.96 59.29 31.82c9.23 12.29 19.19 28.94 26.55 50.11s12.13 46.87 10.98 77.27c-.24 6.36.47 11.69 2.13 15.97s4.25 7.51 7.78 9.66c1.66 1.01 3.51 1.76 5.53 2.26s4.23.75 6.59.75c4.71 0 10.07-.99 15.95-2.95s12.3-4.88 19.14-8.75c18.65-10.57 37.92-26.82 52.57-44.45s24.69-36.63 24.88-52.68c9.52-3.43 18.57-8.05 26.93-13.72s16.02-12.39 22.77-20c1.73.15 3.46.26 5.19.34s3.46.11 5.18.11c33.42 0 63.73-13.6 85.68-35.55s35.55-52.26 35.55-85.69c0-5.24-.34-10.47-1.02-15.66s-1.69-10.35-3.04-15.43c24.76-8.27 45.43-23.92 59.92-44.05s22.79-44.74 22.79-70.92c0-7.19-.63-14.3-1.88-21.3s-3.11-13.88-5.59-20.6c4.65-8.72 8.2-18 10.59-27.58s3.62-19.47 3.62-29.39Z"/>
</svg>
