<svg xmlns="http://www.w3.org/2000/svg" viewBox="0 0 1038.94 895.67" width="1038.94" height="895.67">
  <path d="M1037.94 386.39c0-30.69-11.51-59.97-32.42-82.47-6.85-55.24-51.74-99.4-107.05-105.43.1-1.91.14-3.67.14-5.35 0-66.85-54.39-121.24-121.24-121.24-8.39 0-16.86.89-25.19 2.66C733.32 29.24 689.49 0 640.31 0c-32.96 0-64.84 13.64-87.63 37.47-22.85-22.72-53.13-35.22-85.39-35.22-34.13 0-66.8 14.5-89.77 39.8-17.87-9.87-38.09-15.08-58.54-15.08-46.9 0-89.93 27.41-109.82 69.89-2.53-.15-4.83-.23-7.03-.23-64.68 0-118.87 52.41-121.13 116.98C32.52 230.64 0 276.5 0 327.97c0 15.11 2.77 29.89 8.25 43.94-1 6.33-1.51 12.72-1.51 18.98 0 42.4 21.55 80.98 57.66 103.25 19.48 43.7 62.92 71.92 110.76 71.92 10.24 0 20.46-1.3 30.4-3.88 7.99 59.94 59.44 105 120.16 105 13.09 0 26.02-2.1 38.42-6.24 18.88 11.44 40.55 17.48 62.7 17.48 29.46 0 57.75-10.66 79.85-30.05 10.77 45.26 46.86 80.57 92.46 90.3 18.45 24.59 39.84 66.57 37.53 127.38-.48 12.71 2.85 21.34 9.91 25.64 3.31 2.01 7.39 3.01 12.13 3.01 9.42 0 21.42-3.96 35.09-11.7 37.3-21.13 77.07-65.03 77.44-97.13 19.04-6.86 36.21-18.5 49.7-33.73 3.45.3 6.94.45 10.37.45 66.85 0 121.23-54.39 121.23-121.24 0-10.47-1.36-20.92-4.06-31.09 49.51-16.53 82.71-62.62 82.71-114.97 0-14.37-2.51-28.46-7.47-41.9 9.3-17.44 14.21-37.13 14.21-56.97Zm-8.95 94.98-9.07 9.46-9.28-35.54 18.27 24.22c.03.62.06 1.24.08 1.87Zm-49.35 100.67-26.61-6 30.47-26.49-3.09 31.98c-.25.18-.52.34-.77.52ZM875.47 741.96l-28.01-9.47 44.88-21.99-14.71 30.67c-.7.3-1.45.51-2.16.79Zm-147.04 112.6-22.74-2.25 32.17-32.93-7.92 33.74c-.5.48-1 .97-1.51 1.44Zm-23.33-2.61-20.24-60.4 53.05 26.83-32.8 33.57Zm-22.17 34.24-10.13-6.52 30.83-25.55-19.08 31.36c-.55.26-1.08.47-1.62.72Zm-38.68.86 15.14-17.64 12.14 10.13-27.16 7.63s-.08-.08-.11-.12Zm15.76-18 43.26-15.52-31.04 25.72-12.22-10.21Zm-.38-.58-5.36-46.63 49.92 30.65-44.56 15.98Zm-21.09-23.38 15.08-22.94 5.27 45.8-20.31-21.79c-.02-.35-.02-.72-.04-1.07ZM468.86 668.7l-19.92-5.68 16.11-6.13 4.48 11.56c-.22.09-.45.16-.67.25Zm-60.68 6.14-10.36-12.87 48.12 1.38-35.92 11.8c-.62-.09-1.23-.21-1.84-.31Zm-44.13-16.09-11.02-9.03 21.17-14.01-9.02 22.36c-.54.33-.92.56-1.12.69Zm-43.56 6.15-9.34-12.32 39.73-2.46-28.98 14.84-1.4-.06Zm-161.7-102.04-20.55-23.77 29.78 17.45-7.62 6.49c-.54-.07-1.08-.1-1.61-.18Zm-27.8-7.39-23.65-24.16 28.92 6.72-3.91 18.02c-.46-.18-.9-.39-1.36-.57ZM81.2 497.22l24.45 33.19-12.74.57c-.6-.58-1.23-1.12-1.82-1.71l-9.89-32.05ZM9.41 369l-4.73-65.27 31.77 57.93-26.29 9.57c-.29-.73-.48-1.48-.75-2.22Zm-4.3-67.84 22.06-46.28.04-.05 3.14 39.24-25.34 7.56c.04-.16.06-.32.09-.47Zm.86-3.37a119.308 119.308 0 0 1 19.25-40.38L5.97 297.79Zm21.99-43.93 28.85-.92-25.85 40.37-3.14-39.26c.05-.06.1-.13.14-.19Zm78.74-106.75 27.13-15.46-31.36 41.43 3.24-24.7c.32-.43.67-.84.99-1.27Zm35.25-31.7 14.1-1.22-20.25 15.39 4.89-13.41c.42-.25.84-.5 1.25-.75Zm14.2-.45-12.65 23.56-7.89-7.95 20.55-15.61ZM295.5 31.41l24.65 4.57-49.81 10.76 23.7-15.06c.48-.1.97-.17 1.46-.27Zm47.91.17 16.41 10.89-36.42-6.59 17.88-4.76c.71.14 1.42.31 2.12.46ZM465.09 4.39l34.73 19.76-47.37-8.77 10.78-10.9c.62-.02 1.23-.09 1.85-.1Zm48.86 9.4 2.41 16.34-14.01-5.4 11.52-10.98.08.04Zm87.02-4.9 33.27 4.7-46.93 11.22 11.94-15.27c.57-.21 1.14-.44 1.72-.64Zm48.24-6.53 26.7 15.9-39.11-5 11.86-10.92c.18.01.37 0 .55.02Zm43.63 11.81 22.06 27.75-36.69-23.06 13.39-5.33c.42.2.82.43 1.24.63Zm38.22 29.76 5.68 26.11-19.7-26.47 13.43-.3c.19.22.39.44.59.66Zm64.83 31.58 33.79 28.83-56.4-8.86 11.07-6.58s0-.05.02-.07c.02-.02.06 0 .08-.02l10.12-13.5c.44.06.87.13 1.31.2Zm95.58 83.2-20.1 24.13-5.95-41.12 25.85 16.21c.08.25.12.52.2.77Zm5.05 40.99-14.37 24.71-10.48-40.07 24.73 14.65c0 .13 0 .22-.01.35 0 .14.08.24.12.36Zm88.72 54.83.2 18.15-30.14-36.59 28.85 16.82c.36.54.73 1.08 1.09 1.62Zm43.8 92.3-9.12 19.87-11.74-38.95 20.29 17.43c.2.54.37 1.1.56 1.65Zm5.78 55.33-10.2 4.02-4.21-36.53 14.6 31.12c-.06.47-.14.93-.2 1.4Zm-10.85 4.19-52.43 5.14 48.06-43.15 4.37 38.01ZM628.75 791.61 648 769.72c1.22.38 6.56 1.61 30.45 6.26l-49.69 15.68-.02-.06ZM205.46 560.07l-33.52-24.87 6.57-47.05L205.74 560c-.09.02-.18.04-.28.06ZM55.74 443.04l6.37 38.31c-2.96-9.7-6.42-24.12-6.37-38.31Zm-37.76-6.14 31.83-61.47 4.63 56.84c-.27 1.76-.46 3.53-.6 5.32l-35.66-.22c-.07-.16-.14-.31-.2-.47ZM372.77 72.92l-28.82 11.25 3.48-29.39 25.35 18.14Zm-25.05-18.75 13.5-10.54 11.5 28.44-25-17.89Zm402.92 21.94c.03.07.21.52.49 1.28l-4.65 14.43-47.24 16.36 38.24-36.31 12.92 3.74c.07.17.16.33.23.5Zm-4.07 16.39 12.64 28.7c.02.43.02.88.04 1.31l-60.13-13.58 47.45-16.43Zm206.55 128.7-13.06 17.07-24.66-7.57 37.6-9.58s.08.05.12.08Zm50.41 83.17-19.28 2.51c-.58-1.22-3.27-5.8-14.65-23.96l33.9 21.25c0 .07.02.13.03.2Zm-.18-1.08-34.12-21.39 16.44-7.84 17.6 28.75c.02.16.06.32.08.48Zm-19.91 3.42L910.7 285.4l22.28-13.19 35.33 9.94c5.6 8.92 13.64 21.86 15.13 24.56ZM681.81 775.05l60.82-38.43-17.45 48.08c-13.83-1.22-29.14-4.01-43.36-9.66Zm-1.73-.7-2.24-45.97 64.45 7.66-61.25 38.7-.96-.39Zm-554.8-268.68-6.05-32.72 57.97 13.94-51.91 18.78Zm51.12-17.77-35.6 26.98-14.98-8.68 50.58-18.29Zm-57.08-15.62 23.2-40.65 35.11 54.68-58.31-14.03Zm-9.87-74.75s.02-.04.03-.07l89.97 2.3-56.89 30.8-33.11-33.03Zm93.91-267.72c.05 6.76.89 14.16 3.03 21.79l-7.93-4.69 4.9-17.09Zm215.93-29.35-26.41 25.55-28.13-8.59 54.54-16.96Zm-52.49 15.62 32.21-17.42 19.69 1.28-51.9 16.14Zm579.85 369.69 7.07 20.15-20.28-23.89 12.08 2.34c.38.48.75.93 1.13 1.4Zm-1.75-2.2-12.03-2.33-2.25-20.61c4.6 9.22 9.48 16.76 14.28 22.94Zm-13.54-25.98 12.32 3.13 2.15 20.78c-4.88-6.4-9.84-14.26-14.48-23.91Zm.82 23.58-83.81-3.73 65.25-26.6 15.17 5.97c.32.68.63 1.39.95 2.05l2.43 22.31Zm-98.03 110.86-13.61-30.02 41.48 32.08-25.13-.73c-.9-.41-1.83-.89-2.74-1.33Zm-419.47-3.19-16.32-15.89 13.27-6.46c2.42 7.45 3.49 14.9 3.05 22.35ZM232.02 447.63l22.09-23 36.43 8.71-58.48 14.39-.05-.1ZM109.61 396.8c-.02-.1-.05-.19-.09-.27l11.37-12.8 75.98 15.31-87.26-2.23Zm443.9-246.44s0-.08-.04-.11c-.21-.25-.39-.5-.59-.75l-2.45-30.17 68.77 13.61-65.68 17.42Zm205.15 64.28h.15l16.31 78.69-68.88-21.53 52.42-57.16Zm.83-.03 12.89 9.78 2.68 65.33-15.57-75.12Zm81.42 16.54 3.52 11.54-67.85 49.96 33.48-61.62h30.59l.27.12Zm3.43 12.44-18.79 107.52-49.5-57.24 68.29-50.28Zm62.4 101.75c.17 7.34.54 14.28 1.02 20.99l-6.76-5.96 5.28-22.65c.16 2.54.41 5.01.46 7.62Zm7.53 67.5-11.15-12 5.25-27.07c1.33 14.45 3.34 27.46 5.9 39.06Zm-8.14-77.47-5.45 23.39-6.91-42.22 12.13 15.07c.12 1.23.14 2.52.23 3.77Zm-5.91 24.74-73.36-8.46 66.11-35.8 7.25 44.25Zm.42.85 7.19 6.33c.1 1.38.19 2.79.31 4.15l-5.67 29.22-49.03 8.2c-.02-.05 0-.11-.03-.16l47.24-47.74Zm-47.25 48.59 49.25-8.24 11.94 12.84c.29 1.27.6 2.47.89 3.71l-2.13 32.01-60.05-40.18s.08-.1.1-.15Zm62.61 10.5c3.51 13.97 7.77 25.82 12.4 35.88l-14.41-5.67 2.01-30.21Zm.59-6.17 3.55-17.54 4.69 22.52-7.91-3.62c-.11-.46-.22-.89-.32-1.36Zm-.37-1.56c-2.66-12.1-4.74-25.71-6.05-40.95l9.61 23.33-3.56 17.62Zm-6.23-43.16c-.06-.7-.09-1.45-.14-2.16l6.37-18.44 3.41 44.01-9.64-23.41Zm-.26-3.88c-.45-6.41-.8-13.01-.96-19.99-.08-3.61-.38-7.07-.64-10.55l7.93 12.23-6.33 18.31Zm-13.25-79.43h13.04l-2.32 39.75c-1.86-14.56-5.44-27.82-10.72-39.75Zm9.36 44.59-12.25-15.22 2.08-26.32c5.21 12.44 8.64 26.27 10.18 41.54Zm-10.75-42.77-2.17 27.45-66.29 35.89 43.87-78.27 23.32 12.23c.42.9.86 1.78 1.26 2.7Zm4.82 73.08-47 47.5c-.06-.03-.09-.09-.16-.11-.25-.05-.51-.06-.77-.11l-25.65-55.76 73.58 8.48ZM633.7 526.63l118.09 18.79L677 559.34c-13.06-12.9-28.47-23.85-43.3-32.72Zm-68.56-60.23c8.75-4.14 18.33-7.24 28.82-9.16 1.31-.24 2.5-.58 3.79-.85l-21.94 42.75c-.11-.02-.21 0-.32.02l-10.36-32.76ZM149.4 337.1c9-11.07 15.39-24.31 19.07-39.67l13.92 43.73c-.02.52-.07 1.03-.08 1.55l-32.91-5.61Zm63.35-171.14c.11-.02.22-.03.32-.08.17-.08.24-.25.33-.39l5.23 2.18a86.494 86.494 0 0 0-8.12 4.18l2.24-5.89Zm8.96 2.67 27.49 2.02-20.77 6.31-6.79-8.29s.05-.02.08-.03Zm546.38 296.06c.76-1.73 1.61-3.4 2.45-5.07l14.59 20.01-24.49 30.54c-1.73-14.66.64-30.07 7.44-45.49Zm-187.87-54.2 13.71 11.7c.1.58.18.91.19.95.01.05.06.07.07.11l-20.01 27.67 6.03-40.44Zm-6.89 41.63-7.93 11.67 13.43-48.54-5.5 36.87Zm-225.66-19.37-32.6-24.35c.02-.55.02-1.12.06-1.66 1.53-24.09 12.5-40.72 15.35-44.66l17.2 70.66ZM172.64 242.86l13.3-15.09 42.9 55.96-56.3-39.92c.02-.33.07-.63.09-.95Zm12.1-42.41 22.4-9.38-20.94 35.11-2.24-24.45c.24-.44.52-.84.77-1.28Zm98.19-30.34 22.54-6.83-18.85 30.5-3.69-23.67Zm3.04 23.9-33.88-23.25 30.17-.54 3.71 23.8Zm141.64-22.38-15.19 13.49-26.74 24.08-24.55-9.98 66.7-28.03c-.07.13-.14.29-.22.44Zm85.64 102.41 23.66 14.99-21.49-1.71c-.53-.3-1.06-.61-1.59-.92l-.57-12.36Zm151.4 13.6 39.34-14.72-39.47 34.11-.02-.02-.76-18.55c.3-.28.6-.55.9-.83Zm-65.87 166.43-3.29-30.3c.19-.08.36-.18.46-.35l39.92 16.63c-10.33 6.26-22.75 10.91-37.09 14.02Zm8.66-91.97 66.78 5.15-56.96 28.31-9.92-33.23c.03-.08.07-.15.1-.23Zm29.76 77.22-6.89-14.19 30.42-8.6c-5.97 8.99-13.76 16.65-23.53 22.79Zm-41.23-17.37c-.46-2.45-1.82-11.77.68-26.27l14.09 20.51-14.78 5.77Zm.88-27.33 19.78 1.71-5.49 19.23-14.31-20.82s.02-.09.02-.13Zm20.49 1.65 55.19-27.42-60.66 46.61 5.48-19.19Zm-6.09 20.44 16.81 7.76-31.49-2.03 14.68-5.73Zm1.5-.05 47.43-.67-30.31 8.57-17.12-7.9Zm16.87 8.58 6.98 14.38-39.57-16.48 32.59 2.1ZM612.27 416l62.19-47.78c-.21 14.15-2.84 29.01-10.06 42.46-.87 1.61-1.92 3.09-2.89 4.62l-49.24.7Zm53.92-4.37c6.92-12.9 9.66-27.04 10.15-40.65l7.85 25.59-18.75 16.25c.23-.41.52-.78.74-1.19Zm5.71-81.74 15.08 26.21-10.54 9.58c-.08-13.28-2.14-25.78-4.54-35.79Zm-.59-2.37c-.15-.61-.31-1.18-.46-1.76l48.3-2.88-31.67 32.73-16.16-28.09Zm-.64-2.42c-2.26-8.42-4.5-14.47-5.39-16.71l52.59 13.89-47.2 2.82Zm-1.94.59-59.6 34.3 54.22-50.96c.84 2.12 3.11 8.2 5.38 16.66Zm.18.67c2.82 10.65 5.55 24.92 5.53 40.23l-66.53-5.13 61-35.1Zm-52.32 69.3-19.62-1.7c1.63-8.64 4.64-18.99 9.94-30.7l9.68 32.4Zm-21.86-.64-14.03 13.66 9.31-29.99 5.14 14.09c-.15.76-.29 1.51-.42 2.25Zm-.2 1.13c-2.08 12.59-1.31 21.31-.76 25.01l-13.28-11.34 14.04-13.66Zm44.39 44.45h15.15l-26.01 22.24 8.96-21.11c.63-.38 1.28-.74 1.9-1.13Zm.93-.67c8.49-5.59 15.6-12.26 21.18-20.07l-6.29 20.07h-14.89Zm22.59-22.34c.62-.93 1.2-1.89 1.78-2.85l20.31-17.6 30.49 35.57-59.56 7.15 6.98-22.27Zm13.98-48.6c.02-.81.02-1.62.02-2.43l11-9.99 55.49 29.85-58.14 9.87-8.38-27.3Zm11.52-12.92 31.9-32.97 23.48 62.76-55.39-29.79Zm-22.98-48.47-.02-.05 40.51-35.01 14.04 49.47-54.53-14.4Zm-1.14-.78c-.1 0-.2-.04-.3 0-.52.22-.76.82-.54 1.33 0 0 .06.15.08.19l-54.43 51.16c9.79-20.26 26.47-44.31 54.46-70.45l.72 17.76Zm-68.43 84.65-5.02-13.76 13.64-12.91c-4.31 9.97-7.01 18.94-8.62 26.67Zm9.34-28.28-14.9 14.11-54.71 7.72 69.86-22.39c-.08.18-.17.37-.25.55Zm-216.18 56.27-28.1 1.11 40.81-21.92-9.91 19.52c-.94.44-1.87.88-2.8 1.29ZM230.88 283.97s-.08 0-.12-.02l-1.41-45.89 32.04-3.46-30.5 49.37Zm-4.95 1.32-15.54 1.18-36.57-40.94 54.78 38.84c-.69.22-1.62.54-2.67.92Zm-2.18.84c-5.14 2.06-12.59 5.72-19.81 11.59l6.5-10.58 13.31-1.01Zm-21.46 12.98c-.61.53-1.21 1.06-1.81 1.62l-22.05-22.87 31.3 9.16-7.44 12.1Zm-8.73 9.31-23.35-12.67 29.18 6.04a60.66 60.66 0 0 0-5.84 6.62Zm7.55-5.48 3.53 9.26-9.19-2.96c1.77-2.31 3.68-4.39 5.65-6.3Zm28.12-16.66-8.77 11.09-17.28 3.63c10.39-9.19 22-13.44 26.05-14.71Zm1.09-.3 7.47 23.95-16.67-12.32 9.2-11.63Zm.76.19 95.6 72.07-87.99-47.66-7.61-24.41Zm229.53-44.59-27.57 27.99c-4.17-15.7-6.68-29.23-8.01-40.8l35.43 12.55c.05.08.1.17.15.25Zm77.1 59.32.79 7.67-4.85-2.29 3.99-5.41s.05.02.07.03Zm-107.48 90-27.24 6.37 33.65-37.52-4.83 29.39c-.52.6-1.05 1.18-1.58 1.76Zm.69-121.12-15.67-8.09 8.05-28.98c1.45 10.72 3.87 23.04 7.62 37.07Zm108.29 49.48-51.52-8.8 25.9-5.22 25.62 14.02Zm-24.03-13.92 17.86 1.4 5.55 2.62 2.06 9.92-25.47-13.94Zm-28.37 4.61 15.9-17 10.3 11.72-26.19 5.28Zm-1.08.17-41.75-7.84 57.81-9.35-16.07 17.19Zm-113.06-10.58-26.22 33.42-4.08-31.41 9.39-10.19 20.91 8.18Zm-18.37-7.91 39.84 4.98-20.88 2.43-18.96-7.42Zm18.78 8.48 10.34 34.19-36.52-.82 26.18-33.37Zm.57-.43 22.81-2.66-12.57 36.53-10.24-33.87Zm23.31-2.04 11.34 31.62-23.92 4.93 12.58-36.55Zm34.59-25.49-4.31 15.33-11.66-24.86 15.57 8.04c.14.5.26.98.39 1.49Zm8.9 29.08-27.17-11.41 13.92-1.03 13.25 12.44Zm1.09 2.49-2.13 19-20.71-13.57 22.53-6.3c.1.29.21.59.31.88Zm.52 1.46c.35.98.67 1.93 1.04 2.93 4.39 12.04 6.46 23.43 6.42 34.17l-9.48-19.04 2.02-18.06Zm-32.73 23.88 8.72-19.54 20.77 13.62-29.49 5.93Zm29.49-5.24-23.93 28.68-5.72-22.72 29.65-5.96Zm-20.87-15.16-19.42-11.49 41.81 5.23-22.39 6.26Zm21.72-7.02-41.51-5.19 13.72-6.48 27.79 11.67Zm-22.2 7.52-8.68 19.46-11.2-31.22 19.88 11.76Zm-8.96 20.76 5.69 22.6-29.41-17.71 23.72-4.89Zm6.25 23.66 20.95 5.1-69.2 15.93 48.25-21.03Zm.57-.55 23.95-28.7-2.42 33.95-21.53-5.24Zm24.6-28.47 9.61 19.28c0 .33.03.68.02 1.01l-11.99 12.91 2.37-33.2Zm11.61 17.78 8.99-22.13 24.69-9.11-23.4 52.99-10.32-18.02c.06-1.22.02-2.48.03-3.72Zm33.05-31.73-24.24 8.95-16.78-16.25c-.05-.14-.09-.28-.14-.42l41.16 7.73Zm-24.72 9.42-8.36 20.59c-.19-10.49-2.27-21.54-6.52-33.2-.34-.94-.6-1.78-.93-2.71l15.81 15.32Zm-32.18-31.68 4.19-14.93c2.31 8.31 5.08 17.22 8.38 26.73l-12.57-11.8Zm-.89-.19-14.57 1.08 2.82-26.13 11.75 25.05Zm-15.22.81-46.69-36.48 49.59 9.66-2.9 26.81Zm-14.63 7.3-26.52-14 40.33 7.48-13.81 6.52Zm-1.8-.19-42.45-5.31 15.62-8.85 26.84 14.16Zm-43.4-5.55-7.14-10.05 22.55 1.32-15.41 8.73Zm-.81.02-24.26-3.03 17.13-7 7.12 10.03Zm.02.68-9 9.76-15.5-12.82 24.49 3.06Zm-9.28 10.4 3.89 29.99-19.31-42.74 15.41 12.75Zm4.14 32.17-15.11 25.81-4.89-70.06 19.99 44.26Zm.32.78 16.24 40.52-31.13-14.39a.86.86 0 0 0-.07-.57l14.96-25.55Zm.56-.41 36.61.82-20.27 39.96-16.34-40.78Zm37.29.97 29.98 18.05-50.24 21.9 20.26-39.94Zm52.19 24.12-34.24 38.18-38.01-21.54 72.25-16.64Zm1.27-.41 12.01-12.93c-.57 11.26-3.59 21.76-9.16 31.39-2.24 3.87-4.83 7.49-7.67 10.88l4.83-29.33Zm4.6 19.48c5.54-9.58 8.59-19.99 9.32-31.11l10.04 17.54-24.45 21.23c1.84-2.44 3.54-4.99 5.09-7.66Zm-7.38 10.54 27.2-23.62 27.71 17.88-56.14 7.2c.42-.48.82-.98 1.23-1.47Zm27.6-24.17 23.31-52.8 4.58 70.81-27.89-18Zm23.92-53.79 54.3 9.27-49.67 62.28-4.62-71.55Zm54.86 9.65 19.72 37.39-69.24 24.69 49.51-62.08Zm.95.35 63.43 40.37-43.97-3.47-19.47-36.9Zm.51-.47 35.67 3.9 27.19 36.1-62.86-40Zm24.78-8.02c11.58 3.92 20.52 6.33 24.38 7.31l-13.22 3.92-11.17-11.23Zm10.16 11.17-36.06-3.95-2.1-10.12 25.1 1.9c.49.17.97.33 1.45.5l11.6 11.66Zm-38.27-14.75-.78-7.61c8.31 3.66 16.32 6.77 23.55 9.34l-22.77-1.73Zm-6.11-2.92-15.28-14.73c6.41 3.46 12.88 6.62 19.19 9.43l-3.91 5.3Zm-17.45-15.9 16.59 16-18.42-1.45-10.54-12 9.37-4.3c1.01.58 1.97 1.17 3 1.74Zm-12.81 2.02-14.47-20.01c6.94 5.51 14.81 10.79 23.56 15.84l-9.1 4.17Zm-16.47-21.64 14.21 19.66-25.8-23.32 9.38 1.87c.71.6 1.48 1.19 2.21 1.79Zm-.83-3.54-1.62-11.88 27.38 17.8-23.72-4.22c-.69-.56-1.36-1.13-2.04-1.7Zm-11.65-.98-8.36-16.94c4.81 6.48 10.66 12.76 17.6 18.78l-9.24-1.84Zm28.1 26.36-58.92 9.53s-.02-.07-.04-.11l30.66-35 28.3 25.58Zm-59.21 8.69c-3.73-10.67-6.87-20.68-9.35-29.86l39.41-4.46-30.05 34.32Zm-15.25-71.97 20.5 2.93 11.33 8.35-31.82-11.27Zm-2.57-1.05c-1.07-9.67-1.39-18.01-1.16-25.01l23.54 28.2-22.38-3.2Zm-2.33-.8-9.54-4.01 8.39-17.94c-.09 6.32.24 13.63 1.15 21.95Zm.09.77c.12 1.05.23 2.08.37 3.17l-8 28.79-2.09-36.04 9.72 4.08Zm-8.21 33.59-49.97-9.73 47.79-27.89 2.18 37.62Zm-2.21-38.74-25.97-13.22 25.97-23.39v36.61Zm-.37.57-47.49 27.72 21.44-40.97 26.05 13.26Zm-1.35 65.73-41.95-7.77-4.57-28.57 46.52 36.34Zm-42.64-7.85-23.36-1.37 18.82-27.04 4.54 28.41Zm-23.9-1.77-7.47-18.74 26.19-8.15-18.72 26.9Zm-.52.52-17.53 7.16 10.13-25.72 7.4 18.56Zm-17.9 6.26-3.28-47.09 13.41 21.39-10.12 25.7Zm4.42 73-27.32-50.4 22.38-20.38 4.94 70.78Zm-27.83-50.85-69.49-22.65 46.36 1.06 45.46 1.26-22.33 20.33Zm-22-22.23 33.1-20.73 11.51 21.97-44.6-1.23Zm32.94-21.43-32.28 20.22 40.24-45.72-7.95 25.5Zm-34.21 21.4L231.73 285l88.7-46.09-41.51 47.17Zm-46.69.17L302.03 309l27.39 50.52-97.2-73.27Zm98.76 75.09 31.62 14.62-14.41 56.24-17.24-70.82s.02-.02.03-.04Zm31.32 18.52-3.66 40.98-9.77 11.42 13.43-52.4Zm.99-3.54 38.01 21.55-41.95 22.53 3.93-44.08Zm38.94 21.84 27.19-6.36c-10.64 11.31-24.16 19.76-37.12 25.93l9.94-19.57Zm27.45-3.74-11.42 22.62-24.2 2.07c12.39-5.99 25.23-14.06 35.62-24.69Zm1.58-1.64c.34-.37.67-.75 1.01-1.13l25.71 20.05-38.92 5.24 12.2-24.17Zm1.46-1.63.04-.04 56.75-7.28-30.7 27.66-26.08-20.34Zm57.79-7.32 29.85 33.13-60.74-5.29 30.89-27.83Zm.83-.09 39.42 2.5-9.72 30.47-29.7-32.96Zm40.08 2.66 47.37 23.25-57.11 7.31 9.75-30.56Zm-.32-.82-38.91-2.47L559.82 359l-28.72 26.58Zm30.28-27.1 43.65 3.44-72.46 23.22 28.81-26.66Zm17.54-34.27 14.03-4.16c.48.12.82.2.85.21h.04l12.04 39.75-26.96-35.79Zm15.86-5.56c-.14-.17-.3-.32-.53-.38-.4-.09-10.62-2.52-25.42-7.53l91.2-21.85-65.26 29.76Zm-27.12-8.32c-.51-.17-1.03-.36-1.55-.54l1.07-7.86 89-12.81-88.52 21.21Zm-2.2-.76c-7.06-2.47-14.97-5.48-23.29-9.07l24.34 1.46-1.04 7.61Zm-25.08-9.85c-.7-.31-1.39-.6-2.1-.92l.21-8.84 26.45 11.22-24.57-1.47Zm-2.76-1.21c-6.86-3.08-13.9-6.55-20.87-10.41l21.08 1.68-.21 8.74Zm-49.03-29.08 23.93 4.26.57 12.31c-8.53-4.92-16.85-10.42-24.5-16.57Zm-4.75-15.28 5.85-21.5 22.19 39.73-28.04-18.23Zm.9 12.07c-8.01-6.88-15.08-14.51-20.64-22.9l19.03 11.19 1.6 11.72Zm-11.63-.33-39.88 4.52s0-.04-.02-.06l27.73-28.15c.65 1.05 1.32 2.1 2.02 3.14l10.15 20.55Zm-24.64-34.49 1.75-18.49c1.25 9.11 4.28 17.95 9.07 26.46l-10.82-7.97Zm1.35-21.43-1.96 20.75-24.09-28.86c0-.15 0-.31.02-.46l26.37-7.34c-.68 5.38-.83 10.69-.34 15.91Zm-28.33-6.5-8.55 18.29V186.5l8.69 13.49c-.06 1.13-.1 2.29-.13 3.49Zm-36.25 6.28-21.41 40.91-3.25-50.94 24.66 10.03Zm-22.02 41.89-26.55 8.26 23.3-59.17 3.25 50.9Zm-27.19 8.05-13.72-21.88 36.99-37.2-23.27 59.08Zm-11.11 26.42-11.14-21.26 7.89-25.29 3.25 46.54Zm-18.9-122.53 15.26 72.92-34.48-41.81 19.22-31.11Zm15.12 73.8-58.56-3.49 23.85-38.6 34.71 42.09Zm-.48.64-89.3 46.4 30.82-49.89 58.47 3.48Zm-91.35-.64-.67-58.81 32.82 55.34-32.14 3.47Zm-.66.64 1.41 45.9s-.1.03-.2.05l-43.08-56.2 41.87 10.25Zm-42.11-11 41.42-48.81.68 59.11-42.1-10.3Zm1.76-3.11 19.88-33.33 18.4-11.78-38.28 45.11Zm-15.9 21.06 36.79 41.19-31.61-9.25-5.23-30.76c.02-.39.03-.79.06-1.18Zm27.57 56.23-.03.03-30.99-6.42c.1-.46.17-.95.26-1.41l8.14-15.66 22.61 23.46Zm-31.19-5.45 24.36 13.22c-2.81 3.82-5.3 8.12-7.15 13.05-2.02 5.39-3.17 11.13-3.53 17.18l-13.73-43.16c.02-.09.03-.2.05-.29Zm19.11 27c1.72-4.58 4.01-8.58 6.59-12.16l5.32 15.05-15.43 16.05c.16-6.72 1.31-13.05 3.52-18.94Zm7.07-12.84.07-.1 9.72 3.13-4.54 11.8-5.25-14.83Zm10.47 3.14 30.89-1.79-35.54 13.86 4.65-12.08Zm0-.67-3.8-9.96c.18-.17.36-.36.54-.53l18.4-3.86 16.91 12.5-32.05 1.85Zm32.83-.82 10.56 43.78-48.75 4.92 38.2-48.7Zm.67-.1 90.06 48.78-79.48-4.93-10.58-43.85Zm89.63 49.43-52.19 15.33-26.07-20.18 78.25 4.85Zm-.31.79c-.06.09-.12.17-.18.27l-26.63 18.54-23.64-3.99 50.46-14.82Zm-1.17 1.77c-4.14 6.53-12.12 21.58-13.64 42.14l-11.51-24.62 25.15-17.51Zm32.08 57.82 27.68-1.1c-16.84 7.33-31.83 10.84-36.94 11.91l9.26-10.82Zm31.66-.66 12.36 51.12-53.44-37.54c4.8-.98 22.06-4.87 41.07-13.58Zm.62-.29c.3-.14.61-.28.91-.42l25.71-2.2-14.33 53.45-12.29-50.83Zm27.17-2.1 30.8 55.52-45.27-1.54 14.47-53.98Zm.43-.63 39.42-5.31-8.65 60.77-30.76-55.46Zm40.1-5.34 61.21 5.33-69.9 55.71 8.69-61.05Zm61.83 5.7 7.87 55.69-77.87.11 70.01-55.8Zm.63-.34 57.6-7.38-49.75 62.91-7.84-55.53Zm10.78-31.54L589.5 378l-9.72 31.32-47.39-23.26Zm62.28 37.65s.1.03.15.05l3.3 30.42c-.81.17-1.58.37-2.4.54l-21.46-2.78 20.4-28.22ZM599.3 456l27.56 8.25 2.22 59.58-29.87-67.81s.06-.01.09-.02Zm1.34-.3c13.58-3.07 25.42-7.55 35.42-13.47l-9.07 21.36-26.35-7.89Zm54.23-14.93 26.43 49.92-53.52-26.76 27.09-23.16Zm.63-.25 59.55-7.15-32.94 57.39-26.6-50.24Zm29.7-43.64 58.09-9.86-27.66 45.37-30.43-35.5Zm58.82-9.78 44.3 44.47c-.74.74-1.47 1.49-2.2 2.26l-21.01 6.4-48.89-7.54 27.8-45.6Zm47.89 41.05c-1.05.95-2.08 1.95-3.1 2.95l-43.51-43.68 55.28 20.98-8.66 19.75Zm9.3-19.54 14.29 4.13c-7.86 3.41-15.44 8.28-22.4 14.34l8.1-18.47Zm-11.16 24.72 7.3 9.26-25.57 14.54c4.77-8.86 10.66-16.78 17.29-23.51l.98-.3Zm-4.81 1.46a105.63 105.63 0 0 0-15.34 21.54l-4.36-15.54 19.69-6Zm-14.36 24.09c.11-.21.2-.43.31-.63l26.08-14.83-11.82 35.45-14.57-19.98Zm27.16-15.66 47.79 34.12-59.79 1.89 12-36.01Zm-.17-1.06-7.1-9.01 18.18-4.04-11.08 13.05Zm-7.12-9.69.33-.76c7.77-7.45 16.43-13.34 25.48-17.23l-6.94 13.8-18.88 4.19Zm26.75-18.35c.36-.15.72-.27 1.07-.41l18.52 6.92-26.6 7.42 7-13.92Zm.52-2.35c-.49.19-.99.36-1.48.57l-15.05-4.35 24.01-54.72 1.84 42.64-9.32 15.86Zm9.78-15.33 20.13 10.95c-9.54-1.06-19.37.41-28.9 4l8.78-14.94Zm-26.95 11.33-55.99-21.25 80.26-34.08-24.27 55.33Zm-56.7-21.67-23.63-63.15 104.23 28.93-80.6 34.23Zm-23.96-64.14-14.06-49.55 68.55 21.42-54.49 28.12Zm-14.83-50.31-39.41 14.74c6.59-6.02 13.7-12.13 21.55-18.35 10.65-8.44 19.82-17.05 27.7-25.7l-9.84 29.31Zm-98.91 87.74-11.92-39.32c.25-.13.45-.33.52-.63.02-.07-.03-.13-.03-.19l63.93-29.15c-26.89 25.67-42.97 49.29-52.5 69.29Zm-39.21-58.17-1.56-33.82 95.78 20.25-94.22 13.57Zm-.68-.13-28.17-11.93-24.54-15.56 51.15-6.23 1.56 33.72Zm-53.59-28.24-22.8-40.81 76.41-5.55-53.61 46.36Zm-22.55-41.5 22.55-25.27L566 225.86l-75.58 5.49Zm-.6-.33-6.21-31.39 28.63 6.27-22.42 25.12Zm-.64.26-25.02-7.2 18.82-24.09 6.19 31.29Zm.02.71-5.93 21.78-20.04-11.78c-.47-.73-.87-1.5-1.31-2.25l1.96-15.04 25.33 7.29Zm-27.84 6.78c-7.38-12.81-11.12-27.31-9.24-43.61l11.12 29.15-1.88 14.47Zm-10.8-47.31-18.72-20.21 15.75 9.12 3.08 10.37c-.04.24-.07.48-.1.72Zm-.12.86c-.05.33-.1.67-.14 1l-26.43 7.36c1-20.82 6.31-29.6 6.42-29.77.06-.09.03-.19.05-.29l20.1 21.7Zm-28.73 6.51-8.64-13.42 13.84-12.29c-1.77 4.15-4.38 12.37-5.19 25.71Zm6.62-28.61-68.06 28.6-52.87-35.74 121 7.01s-.05.09-.08.13Zm-68.62 29.03-37.6 37.82-15.41-73.65 53.01 35.84Zm-54.59-36.6-22.57 6.84-22.84-9.65c19.01-1.48 35.5.65 42.61 1.82l2.8.99Zm-38.92-5.19 13.98-3.65 12.91 4.58c-7.09-.75-16.46-1.32-26.9-.93Zm-7.86 2.53 22.61 9.55-29.33.53 6-10c.24-.02.48-.06.71-.08Zm27.62 34.81-23.76 38.45-10.72-62.11 34.47 23.66Zm-24.58 37.64-32.57-54.93 21.95-6.66 10.63 61.6Zm-33.91-55.61-16.65-2.77c3.29-1.96 6.68-3.66 10.16-5.16l6.49 7.92Zm-.09.67-19.06 12.2 1.21-14.91c.11-.07.23-.13.35-.19l17.5 2.91Zm-19.76 12.62-22.31 9.34c4.28-7.12 9.48-13.43 15.84-18.7 2.46-2.04 5.03-3.89 7.68-5.57l-1.21 14.94Zm-27.03 13.54-8.85 10.99 17.7-34.09-5.32 16.97c-1.23 1.99-2.45 4-3.52 6.14Zm2.77-.98 2.24 24.43-12.86 14.59c1.23-14.95 4.73-28.02 10.62-39.02Zm-11.05 47.19 4.63 27.25-7.29 14.01c1.91-10.21 2.85-21.18 2.55-33.09-.07-2.81.04-5.47.11-8.17Zm12.03 92.84 15.51-16.13-.85 33.26-14.64-16.08c0-.35-.02-.71-.02-1.05Zm16.2-16.76 36.86-14.38-37.73 48.1.87-33.73Zm48.17 30.08-16.9 41.34-31.83-36.42 48.72-4.92Zm.67.14 26.29 20.36-43.1 20.79 16.82-41.14Zm26.84 21.39 15.27 55.28-37.01-8.85 21.74-46.43Zm.55-.55 24.36 4.11-9.23 50.66L276.77 377Zm24.89 4.94 11.67 24.98c-.04.62-.03 1.28-.06 1.91l-20.76 23.34 9.15-50.22Zm13.38 27.22 32.27 24.1c-.03.12-.1.23-.08.36.02.13.12.21.18.32l-21.02 23.49c-9.35-18.58-11.82-35.11-11.35-48.27Zm11.68 48.92 21.22-23.71c.05.02.1.05.15.06l11.06 47.83-31.84-22.99c-.21-.4-.39-.79-.6-1.18Zm22.06-23.69h.06l54.08 37.98-42.98 10.28-11.16-48.26Zm55.1 38.47 44.58 1.51-71.78 29.84 27.2-31.35Zm45.49 1.86-15.48 35.65-57.03-5.51 72.51-30.14Zm.78-.1 52.87 41.7-68.42-5.89 15.55-35.81Zm.83-.2 77.88-.11-2.61 22.06c-.69.97-1.44 1.86-2.1 2.86-.11.17-.21.35-.32.52l-19.71 16.58-53.12-41.9Zm71.69 27.16c-6.6 10.56-11.32 22.15-14.63 34.06l-3.57-18.76 18.19-15.3Zm6.87-27.34 29.35-6.94c-12.63 6.91-23.26 16.25-31.84 27.97l2.49-21.03Zm31.47-8.13-30.91 7.31 49.12-62.11-14.69 53.09c-1.18.56-2.37 1.11-3.52 1.71Zm12.81-13.55 19.98 2.59c-.07.01-.13.03-.21.05-9.88 1.81-18.93 4.7-27.29 8.44l7.52-11.07Zm24.75 3.65 29.56 67.12c-25.49-14.54-47.99-22.76-51.66-24.06l22.1-43.06Zm28.98 8.34 53.88 26.94-51.08 33.13c-.19-.11-.38-.22-.56-.33l-2.23-59.74Zm4.55 61.1c-.37-.22-.74-.43-1.11-.65l51.1-33.14 70.39 52.95-120.38-19.16Zm83.6-92.05 31.98 50.22-64.96 7.22 32.98-57.44Zm.66-.21 48.51 7.48 4.58 16.33c-.62 1.18-1.18 2.41-1.76 3.63l-19.4 22.7-31.93-50.14Zm50.17 29.83c-.09.2-.2.4-.29.6-6.6 14.97-9.15 29.92-7.9 44.22l-9.7-23.88 17.89-20.93Zm-5.75 47.82 24.41-30.44-2.36 62.16-21.69-29.23c-.14-.83-.25-1.66-.36-2.49Zm25.11-31.12 60.13-1.9-62.52 64.83 2.39-62.93Zm60.17-.97-26.57 81.46-35.79-16.79 62.37-64.67Zm-47.71-36.31 11.69-13.76 27.86-7.77 8.48 55.82-48.03-34.29Zm21.16-29.29c10.41-3.95 21.19-5.29 31.51-3.46l-12.91 10.4-18.6-6.95Zm30.34-5.68L828 395.8l-1.83-42.29 25 54.36c-.44-.08-.88-.13-1.33-.19Zm-25.07-56.48-103.89-28.84 54.59-28.17 49.3 57.01Zm-118.33-80.67 9.91-29.52c.46-.51.88-1.03 1.33-1.54l39.42-24.17-50.66 55.23Zm9.5-32.17-7.88-14.6 37.27-30.44c-6.62 14.78-16.15 29.99-29.39 45.04Zm-.47.54c-.55.62-1.08 1.25-1.64 1.87l-36.43 18.31 30.17-34.82 7.9 14.64Zm-2.82 3.22c-7.6 8.21-16.35 16.36-26.43 24.34a401.25 401.25 0 0 0-20.85 17.7l10.91-23.75 36.36-18.28Zm-48.56 43.23c-.53.48-1.04.96-1.56 1.44l-92.69-59.63 105.73 33.2-11.47 24.98Zm-95.13-59.16 73.52-13.08 32.7 46.43-106.22-33.36Zm92.69 60.84-95.99-20.3 2.2-40.04 93.79 60.33ZM565 266.7l-51.07 6.22 53.26-46.05L565 266.7Zm-51.59-61.16 39.04-53.77s.03.02.05.02l14.63 73.78-53.71-20.03Zm38.72-57.04c-11.59-14.44-16.79-29.11-18.17-42.81l15.77 13.35 2.4 29.46Zm-1.73 1.09-23.91-9.99 5.92-29.95c1.92 12.89 7.26 26.5 17.99 39.94Zm-18.76-47.93-8.72-13.45 14.71-23.02c-3.77 10.27-6.63 22.82-5.99 36.47Zm.07 1.34c.1 1.52.24 3.05.43 4.59l-5.87 29.68-3.32-47.79 8.76 13.52Zm-5.35 37.27 24.9 10.4c.21.25.39.51.6.77l-38.35 52.82 12.84-63.99Zm-13.73 65.03-28.86-6.31 41.72-57.73-12.85 64.04Zm-29.24-6.94-8.77-49.87 50.75-8.22-41.98 58.09Zm-.78-.54-19.72-27.28 11.18-21.29 8.54 48.58Zm.16 1.38-19.06 24.39-11.38-29.82c.06-.42.11-.83.17-1.25l10.05-21.29 20.22 27.97Zm-29.97-8.9c.05-.27.06-.53.11-.8 2.64-13.75 2.87-26.64 1.35-38.64l7.86 19.7-9.32 19.74Zm-1.89-1.18v.04l-2.68-9.04 3.48-32.54c2.02 12.79 2.07 26.65-.79 41.54Zm-3.31-9.52-17-9.84 20.63-24.85c.02.09.03.18.05.27l-3.68 34.42Zm3.47-35.56-20.67 24.9-1.44-60.55 21.92 34.57c.07.36.12.72.19 1.08Zm-130.87 5.65 72.65-22.94 36.37 42.6-109.02-19.66Zm104.34 19.5-117.58-6.81 11.96-12.24 105.63 19.05Zm-117.31-8.05c-.08-.37-.3-.7-.7-.79-.16-.03-4.09-.85-10.47-1.63l-14.32-5.08 36.17-3.44-10.68 10.93Zm-27.01-8.03-21.49-5.69 32.84-10.86 26.02 13-37.37 3.55Zm-1.35.34-15.91 4.16c-2.97.17-6 .43-9.08.78l-12.08-1.94 15.81-8.63 21.27 5.64Zm-28.03 16.61-27.8-2.04c11.06-4.46 22.72-6.81 33.75-7.87l-5.95 9.91Zm-31.38-2.8-5.65-2.36 24.41-7.19-11.6 6.74c-2.41.84-4.8 1.77-7.15 2.8Zm-5.96-2.97 3.91-6.95 20.89-.35-24.81 7.3Zm-.38-.69a73.853 73.853 0 0 1-3.96-9.84l7.58 3.4-3.63 6.44Zm-2.02.48-5.74-1.41 2.07-7.6c.99 2.99 2.22 5.99 3.67 9Zm-4.06-10.14-2.17 7.96-6.11-14.06 7.88 4.66c.14.48.25.96.4 1.44Zm-1.99 9.35 6.4 1.57c.09.18.16.36.25.55.08.17.28.17.42.26l-2.56 6.71c-.99.59-1.97 1.2-2.93 1.84l-14.77 2.29 13.18-13.22Zm.3 11.8a76.416 76.416 0 0 0-5.48 4.09c-5.56 4.61-10.29 9.97-14.3 15.94l5.59-17.83 14.18-2.2Zm-35.18 41.12-1.77-34.45 21.89-4.31-20.12 38.76Zm9.35-10.15c-3.97 8.59-6.74 18.22-8.16 28.96l-1.12-17.44 9.28-11.52Zm-9.34 52.03c.3 11.7-.62 22.48-2.48 32.5l-3.67-23.17 6.28-18.99c-.11 3.17-.21 6.34-.13 9.66Zm-2.85 34.48c-.19.94-.32 1.93-.53 2.86l-8.21 5.78 5.09-31.68 3.65 23.04Zm-.71 3.8c-3.29 14.01-8.94 26.15-16.7 36.53l8.5-30.77 8.2-5.77Zm-17.82 38.08c-.87 1.12-1.75 2.23-2.68 3.3l-20.05 7.76-1.26-13.71 32.7-28.86-8.71 31.51Zm-3.74 4.43c-1.64 1.83-3.25 3.69-5.06 5.39-9.63 9.08-20.68 15.28-31.66 19.61l17.62-17.62 19.1-7.39Zm-19.64 6.88-42.87 17.56 41.63-31.03 1.24 13.47Zm-1.06 1.16-17.55 17.55c-1.89.71-3.76 1.38-5.64 1.99l-19.57-2.02 42.77-17.52Zm17.03-1.16c1.47-1.39 2.76-2.93 4.13-4.4l-24.83 41.42-15.51-15.51c12.46-4.42 25.23-11.16 36.21-21.51Zm-20.09 37.33 26.4-44.05c.3-.34.64-.65.93-1l50.38 59.87c.17.31.32.61.49.93l-78.2-15.76Zm27.94-45.37 33.1 5.64c.02 15.31 5.11 32.6 15.17 51.73l-48.27-57.37Zm35.17 7.08L199 360.82l1.27 35.14c-10.23-18.96-15.53-36.05-15.85-51.16Zm15.29 16.82 31.53 36.08-29.29 1.35c-.33-.58-.64-1.16-.95-1.73l-1.29-35.7Zm2.62 38.08 29.47-1.35 20.99 24.93-50.38-23.44s-.06-.1-.08-.14Zm30.16-1.58 43.14-20.8-21.68 46.29-21.46-25.49Zm.24 50.77 91.69 9.9-45.7 17.68-45.84-27.31c-.05-.09-.1-.18-.14-.27Zm.06-.67 59.13-14.55 32.51 24.3c.03.05.05.1.08.15l-91.72-9.91Zm59.7-14.96 20.78-23.37c-.38 13.66 2.18 29.47 10.45 46.71l-31.23-23.35Zm66.92 50.01 5.71 22.91c-17.66-15.95-29.44-31.33-37.13-45.59l31.42 22.69Zm.7.05 42.69-10.21-27.5 31.7-8.13 3.15c-.38-.34-.81-.68-1.18-1.02l-5.88-23.62Zm15.26 22.18 13.59 22.02c-4.44-4.56-9.39-9.1-14.89-13.62-2.22-1.82-4.25-3.63-6.31-5.44l7.61-2.95Zm24.3 34.4 17.53 15.04-4.09 9.11c-2.86-8.08-7.35-16.14-13.45-24.15Zm13.77 25.06 4.04-9.01 5.57 29.04-8.73-17.27c-.27-.92-.57-1.85-.88-2.77Zm4.03-10.69-19.81-16.99c-1.98-2.45-4.14-4.9-6.42-7.35l-15.1-24.46 57.5 5.55-16.18 43.24Zm16.71-42.74 16.82 29.3-32.8 13.41 15.98-42.71Zm17.28 29.84 38.96 22.56-71.5-9.26 32.54-13.3Zm-16.73-30.24 68.1 5.86-51.2 23.57-16.9-29.43Zm69.14 6.12 3.78 19.86c-.09.33-.19.67-.28 1l-54.18 2.47 50.68-23.33Zm21.98-16.9c.45-.68.97-1.28 1.43-1.94l47.09 2.25-64.63 36.52c3.51-12.95 8.65-25.56 16.11-36.83Zm1.91-2.59c9.57-13.52 21.85-23.95 36.77-31.12l10.38 32.83c-.08.09-.19.15-.23.27-.03.09.02.17.02.27l-46.93-2.24Zm47.7 3.31.08.03 17.21 33.6-69.39 39.43 52.1-73.06Zm1 .36c5.03 1.81 26.98 10.05 51.59 24.18l-34.68 8.83-16.91-33.02Zm52.42 24.67c.18.1.35.21.53.31l10.53 32.46-45.81-23.92 34.75-8.85Zm1.4.82c14.99 8.77 30.73 19.68 44.1 32.62l-33.62-.32-10.47-32.3Zm44.81 33.3c.17.17.35.33.52.5l6.17 35.26-40.4-36.08 33.71.33Zm1.34 1.3c12.39 12.42 22.42 26.65 27.52 42.56l-21.38-7.46-6.14-35.1Zm31.5 102.14-4.41 31.68-11.94-46.39 15.99 12.77c.12.65.21 1.31.35 1.94Zm-.53-2.95-16-12.77 13.52-40.57c2.49 9.14 3.37 18.79 2.05 28.99-1.13 8.71-.86 16.79.42 24.34Zm-3.18-55.82c.13.42.29.83.41 1.25l-13.51 40.54-8.42-49.3 21.52 7.51Zm-1.15 91.38-51.36-35.68 39.07-12.1 12.29 47.78Zm.05.86-25.52 30.22-25.94-65.97 51.46 35.75Zm.52.43 38.71 37.8-64.19-7.63 25.48-30.18Zm.99.03 23.19 4.14c.32.36.62.73.95 1.09l13.54 31.58-37.68-36.8Zm-.64-.8 4.35-31.25c3.24 13.65 10.04 25.36 18.77 35.37l-23.12-4.12Zm5-60.16c.86-6.61.74-12.97-.04-19.14l13.7 43.78-13.02.37c-1.45-7.74-1.82-16.04-.65-25.02Zm-31.39-76.73 75.33-14.02-46.98 57.84c-5.22-16.42-15.58-31.07-28.35-43.82Zm5.38-68.18 64.97-7.22 5.41 60.16-70.38-52.94Zm65.81-5.38 9.84 24.23c.11.91.25 1.81.39 2.72l-5.16 29.52-5.08-56.47Zm10.54 29.1c2.08 11.33 6.67 22.13 13.6 32.1l-18.78-2.45 5.18-29.65Zm2.01-.48 21.49 28.96 14.68 25.84c-20.1-15.06-32.39-34.05-36.17-54.8Zm37.55 55.87-14.96-26.32 35.04 16.43-18.61 10.93c-.49-.35-.98-.67-1.48-1.03Zm20.64-9.45 13.68 30.17c-10.28-4.97-21.05-11.3-32.24-19.27l18.56-10.91Zm.97-.26 93.21-13.57L863.02 594l-42.53-32.88Zm-.33-.63 26.8-82.17 67.06 68.5-93.87 13.67Zm18.36-139.64 13.39-10.8c.13.03.27.03.4.06.11.02.2-.05.3-.06l60.28 40.34-65.81 26.83-8.56-56.37Zm78.57-4.8 7.86 3.6 4.02 32.78c-4.48-10.2-8.56-22.27-11.89-36.38Zm3.47-20.88 48.61 16.64-43.64 7.24-4.97-23.88Zm-.16-1.17-3.61-46.58 41.65 16.24L920.39 394Zm-3.88-47.54-8.49-13.1c-.02-.24-.02-.49-.04-.73l73.2-24.09-64.67 37.92Zm-8.58-14.52c-.09-1.01-.17-2.04-.28-3.04l2.51-42.96 72.77 21.32-75 24.68Zm2.02-46.9-14.98-23.52 37.1 10.44-22.12 13.09Zm-.72.12h-13.1c-.1-.21-.2-.42-.29-.63l-1.22-22.32 14.62 22.95Zm-14.16-2.26c-5.78-12.16-13.38-22.87-22.8-32.07l21.61 10.34 1.19 21.74Zm-1.76 1.04-22.66-11.88-1.75-21.76c10.23 9.49 18.31 20.77 24.41 33.64ZM870 272.2l-43.59 77.76 18.65-106.74 22.04 5.43c.29.26.6.47.88.73.07.06.12.13.18.19l1.82 22.64Zm-24.94-29.68-3.36-11.01c8.4 4.23 16.58 9.59 24.2 16.15l-20.84-5.14Zm-35.03-12.18-6.21-11.8c11.19 2.36 23.37 6.08 35.34 11.8h-29.13Zm-7.06-11.97 6.47 12.3-33.62 61.89-2.8-68.09 29.7-6.15c.08.02.17.03.25.05Zm-30.21 5.47-12.26-9.3c5.15-.2 20.98-.34 40.52 3.45l-28.26 5.85Zm-12.19-11.35 25.81-28.54 15.45 32.08c-19.61-3.86-35.68-3.74-41.26-3.53Zm-.8-.12 18.55-56.4 7.77 27.29-26.32 29.11Zm1.79-86.55 16.38 28.97-27.98 32.99c7.22-17.96 10.33-34.7 11.28-48.7.31-4.6.39-9.01.33-13.26Zm-13.1 60.02 3.42-36.5 7.45-21.98c.05 17.06-2.59 37.18-10.87 58.48Zm.72 3.9 28.31-33.38-18.49 56.2c-.09 0-.2.01-.27.02l-10.38-20.86c.29-.66.55-1.32.82-1.98Zm8.91 23.05c-.35.18-.61.49-.58.91.01.18.13.31.22.45l-38.62 23.68c13.16-15.32 22.47-30.67 28.88-45.31l10.09 20.28Zm-12.16-20.78-38.17 31.17-35.01-74.46 73.69 42.04c-.18.42-.34.84-.52 1.26Zm-38.69 31.64-30.9 35.67-3.95-109.8 34.85 74.13Zm-31.58 35.41-32.63-46.34 28.69-63.39 3.94 109.73Zm-33.25-46.6-73.52 13.08 102.27-76.59-28.75 63.52Zm-74.62 13.07-14.63-73.8c.06-.03.13-.02.18-.07.14-.11.17-.28.23-.43l117.39-2.97-103.17 77.27Zm-12.28-75.02 65.17-17.29 49.18 14.39-114.34 2.9Zm65.04-18.16-44.18-32.97 68.37-21.32-24.18 54.3Zm-1.25-.09-68.45-13.55 24.79-19.03 43.66 32.58Zm-69.23-13.8-16.18-13.7c-.02-.24-.03-.48-.05-.72l17.46-24.01 23.79 19.21-25.02 19.21Zm-16.31-15.45c-1.05-16.09 2.94-30.72 7.62-41.86l9.46 18.37L533.76 103Zm5.07-40.94-15.35 24.02 9.37-32.53 7.18 5.64c-.4.93-.8 1.88-1.19 2.86Zm-16.37 25.14L509.99 57.7l22.2-4.27-9.73 33.78Zm3.26 51.87-54.76-43.42 51.25-7.07 3.51 50.49Zm-.42.53-50.78 8.22-4-51.65 54.78 43.43ZM473.79 147l-20.52-29.97 16.6-20.72L473.8 147Zm.04 1.25-11.31 21.53-8.72-21.86c-.42-2.77-.93-5.5-1.53-8.17l.87-21.71 20.69 30.21Zm-22.12-11.09c-3.39-13.69-8.99-26.01-15.62-36.9l16.42 16.89-.8 20.01Zm-1.19 3.97-21.54-33.97 2.84-9.86c8.21 12.57 15.11 27.23 18.7 43.84Zm-19.19-44.56-2.89 10.02-7.27-6.76 9.93-3.6c.08.12.16.23.23.34Zm-3.05 10.79 1.34 56.52-8.62-63.29 7.28 6.77Zm1.33 61.41-36.17-42.38 26.87-25.99 9.31 68.37Zm-37.77-42.39-71.14 22.47 42.98-31.07 28.17 8.6Zm-72.32 22.49 24.1-63.42 19.53 31.88-43.64 31.55Zm-.7-.04L304.15 108l38.75-22.54-24.08 63.37Zm-.61.29-26.17-13.07 11.67-27.29 14.5 40.36Zm-26.8-13.3-47.85-10.25 59.59-17.21-11.74 27.46Zm-1.08.46-32.63 10.8-14.74-20.95 47.37 10.15Zm-33.25 11.08-15.93 8.71 1.34-29.45 14.6 20.74Zm-5.61 11.34c-7.14.94-14.47 2.44-21.67 4.71l11.06-6.42 10.62 1.71Zm-34.17-2.01-8.43-3.78a73.2 73.2 0 0 1-.35-1.16l3.64-8.77 27.22 13.35-22.09.37Zm-5.29-14.99-6.57-15.46c.02-.46.01-.94.04-1.39l16.77-4.67-10.23 21.52Zm-.38.82-3.38 8.15c-2.21-8.04-2.95-15.8-2.84-22.8l6.23 14.66Zm-7.07 20.35-13.03 13.07 6.64-27.82 6.4 14.75Zm-13.91 13.86L168.96 181l28.47-32.69-6.78 28.43Zm-22.29 3.94-2.12-38.34 31.18 4.97-29.06 33.38Zm1.2 36.38-45.46-11.77 43.66-23.22 1.8 34.99Zm.11 1.78 1.31 20.32c-.23 2.34-.5 4.65-.62 7.08l-6.6 19.93-5.25-23.17 11.16-24.16Zm-11.61 81.6-8.4-28.91 13.63-3.64-5.23 32.56Zm-8.71-29.53-19.81-20.28 33.22 16.69-13.41 3.58Zm8.34 30.66-33.78-3.98 25.17-25.66 8.61 29.64Zm-.32.64-32.58 28.76-1.25-32.74 33.83 3.98Zm-33.23 29.31-43.5 32.42 2.45-28.54 39.8-36.82 1.26 32.94Zm-44.2 32.78-41.86-2.74 44.29-25.71-2.44 28.45Zm.34.7 19.28 2c-19.89 6.13-38.09 6.53-45.57 6.35l26.29-8.35ZM56.67 375.4c9.37 0 27.64-1.04 46.89-7.57l-32.89 36.09c-.87.6-1.67 1.28-2.47 1.95l-17.16-30.62c1.03.06 2.92.14 5.63.14Zm11.01 30.93c-2.08 1.81-4.02 3.77-5.64 6.04-3.66 5.12-5.86 11.08-7.11 17.38l-4.4-54.02 17.15 30.6Zm-3.99 7.22c.93-1.3 1.98-2.49 3.07-3.64L56.3 434.59c.91-7.71 3.09-15.03 7.39-21.05Zm4.3-4.82c.71-.67 1.47-1.3 2.24-1.91l36.47-8.93h.26l-50.9 38.98 11.93-28.15Zm3.45-2.9c7.94-5.67 18.93-8.31 32.71-8.01l-32.71 8.01Zm1.31-3.19 31.63-34.71 3.69 27.97c-14.72-.9-26.49 1.41-35.32 6.74Zm36.01-6.72-3.67-27.82 15.24 15.24-11.29 12.71c-.1-.04-.16-.13-.27-.14Zm91.46 4.18s.04.06.06.1l-5.03 31.54-51.44-1.09 56.42-30.54Zm.59 1.01c3.67 6.45 7.85 13.09 12.62 19.94 6.35 9.13 11.72 17.91 16.22 26.36l-33.75-15.55 4.91-30.76Zm14.28 18.79c-4.55-6.54-8.54-12.87-12.09-19.04l50.45 23.47-21.75 22.65c-4.59-8.69-10.09-17.71-16.62-27.08Zm63.08 57.03-30.94 36.27c2.81-18.15-1.81-39.2-13.78-62.91l44.73 26.65Zm-31.97 41.5c.24-1.01.42-2.04.61-3.07l66.73-21.79-67.35 44.85v-19.99Zm.76-3.82s0-.05.01-.07l31.81-37.28 36.04 15.19-67.86 22.16Zm32.62-37.74 45.51-17.6c.04.08.09.17.13.25l-9.66 32.52-35.98-15.16Zm46.09-16.5c7.8 14.93 19.84 30.83 37.99 47.23l-47.46-15.33 9.47-31.89Zm39.27 48.34c.39.34.81.69 1.2 1.03l5.69 14.58-53.1-30.54 46.21 14.92Zm2.29 1.97c1.83 1.59 3.62 3.19 5.56 4.79 6.93 5.7 12.92 11.44 18.15 17.19l-18.19-7.82-5.52-14.16Zm24.92 23.23c.19.22.36.44.55.66-7.37 11.25-9.82 15.12-10.63 16.48l-9.01-25.34 19.09 8.2Zm.99 1.21c8.4 9.7 14.32 19.46 17.84 29.24-11.29-4.9-26.48-11.56-28.55-12.64.92-1.58 6.57-10.28 10.71-16.59Zm18.11 30.09c.07.2.13.41.19.61l-13.53 6.6-14.82-19.68c2.48 1.22 9.35 4.3 28.16 12.47Zm-13.24 8.3 16.69 16.24c-.02.22.02.44 0 .65-.02.19-.07.37-.08.56l-24.95 24 8.35-41.46Zm16.43 18.54c-1.39 12.01-6.35 22.81-12.74 32.02l-12.05-8.16 24.79-23.85Zm-10.46 32.16 13.31-9.21-14.41 31.15-.18-20.09c.43-.61.86-1.22 1.28-1.84Zm1.09-1.57c5.15-7.95 9.16-16.99 10.89-26.9l1.8 18.11-12.69 8.78Zm10.13-51.65 8.16 16.12-6.6 2.48c.43-6.2-.07-12.41-1.55-18.6Zm2.82-15.74 72.51 9.39-66.45 22.22-6.06-31.61Zm34.62-13.95 54.55-2.49c-.09.35-.17.7-.25 1.06l-15.02 24.18-39.28-22.74Zm53.8.65c-2.91 12.33-4.43 24.84-5.04 36.72l-8.98-14.17 14.01-22.55Zm2.33-1.15 12.98 34.17-18.39 5.29c.57-12.73 2.15-26.22 5.41-39.46Zm-5.44 40.17 18.51-5.32-1.96 40.17-16.59-33.91c.01-.31.03-.63.04-.94Zm5.74-41.3c.13-.53.28-1.05.42-1.58l64.9-36.67-52.11 73.06-13.22-34.82Zm83.68-4.18-13 79.88-56.93-40.15 69.92-39.73Zm.7-.13 46.49 24.26-59.45 55.41 12.96-79.67Zm47.07 24.65 41.03 36.66-100.48 18.74 59.44-55.4Zm41.49 37.26 8.59 50.32-109.15-31.56 100.56-18.76Zm7.84 50.8-38.84 12.03-68.8-43.16 107.65 31.13Zm-12.86 79.52-43.72-5.2s-.01-.04-.02-.05c-.04-.15-.16-.24-.25-.35l18-60.49 25.99 66.09Zm-43.52-4.49 42.93 5.1-23.42 12.5-19.52-17.59Zm13.27 30.18-22.69-11.99 7.81-16.61c3.08 11.47 8.27 20.86 14.88 28.59Zm-12.91-28.95 18.73 16.88-3.48 11.81c-6.81-7.67-12.13-17.12-15.25-28.69Zm19.25 17.5 24.19 31.3c-10.35-4.66-19.91-11-27.66-19.54l3.47-11.76Zm25.5 31.9-25.13-32.52 23.75-12.67 2.21 45.53c-.28-.12-.56-.22-.83-.34Zm51.54-69.49c8.55 9.01 18.61 16.54 28.88 22.75l-15.54 8.35-13.34-31.1Zm-.32-3.3 17.19-14.4 12.21 38.22c-10.56-6.47-20.86-14.35-29.41-23.83Zm-.45-.5c-.24-.26-.45-.55-.68-.82l-5.07-37.08 23.07 23.4-17.32 14.5Zm-1.49-1.78c-8.71-10.25-15.29-22.3-18.07-36.35l13.04-.37 5.03 36.72Zm-19.42-85.12c-.53-2.92-1.22-5.79-2.07-8.61l73.74-28.78-56.87 84.68-14.8-47.29Zm-1.98-9.37 47.46-58.43 19.53 2.55c.23.33.43.67.67 1l6.47 25.95-74.13 28.93Zm68.68-53.56c5.97 7.88 13.42 15.2 22.4 21.74l.39.27-16.69 2.44-6.1-24.45Zm23.59 22.58c.42.31.84.59 1.26.89l16.91 29.13-35.09-27.55 16.91-2.47Zm2.58 1.81c11.14 7.82 21.88 14.06 32.13 18.94l-15.25 10.14L801.31 575Zm32.82 19.28c.47.22.93.42 1.4.64l25.88 22.41-42.55-12.88 15.28-10.16Zm28.83.5 15.39 11.5c-12.05-2.01-25.39-5.8-39.76-12.22l24.38.71Zm19.56 14.17 33.13 16.31-51.81-7.35 16.29-9.29c.81.12 1.59.22 2.39.33Zm-2.76-2.45-15.84-11.84 51.07-7.62-33.13 19.79c-.69-.1-1.4-.22-2.1-.33Zm-15.65-12.55 50.35-46.15 1.8 38.37-52.15 7.78Zm-16.42-115.88 84.46 3.75-17.55 64.59-66.91-68.34Zm85.05 4.14 21.46 25.28-38.79 38.46 17.32-63.74Zm15.16 5.01c10.62 12.55 20.43 18.53 25.42 20.99l-18.41-1.03-7.01-19.96Zm.36-2.69h18.56l8.92 22.58c-4.09-1.79-15.33-7.73-27.48-22.58Zm-.55-.67c-.35-.44-.71-.88-1.06-1.34l-2.26-21.79 64.29-6.56-41.74 29.69h-19.23Zm-3.86-23.81-12.82-3.26c-.36-.77-.72-1.56-1.08-2.35l-4.26-34.73 44.27-7.34-26.1 47.69Zm-23.01-65.51 38.1-30.38 11.17 47.25-49.27-16.86Zm38.74-30.61 59.49 4.01-48.29 43.36-11.2-47.36Zm-.61-.8-41.75-16.27 66.16-38.79-24.41 55.07Zm-26.25-91.7-37.51-10.55 44.52-21.61-7.02 32.17Zm7.78-32.5 12.7-3.54-19.42 34.35 6.72-30.81Zm-1.2-.2-44.9 21.79-7.74-12.68 27.57-16.81 25.06 7.69Zm-45.9 21.44-22.45-10.74c-.19-.18-.36-.38-.55-.56l15.62-.79 7.38 12.09Zm-23.63-11.94c-.13-.12-.24-.25-.37-.37-.01-.01-.03-.02-.04-.04l12.55-21.58 3.9 21.18-16.04.81Zm-.93-.86c-1.04-.93-2.08-1.83-3.14-2.71L832 203.39l49.59 22.05-12.75 21.93Zm-5.62-4.68c-18.13-14.19-39.07-21.82-57.46-25.86l25-13.89 32.46 39.75Zm-75.06-59 81.52.27-38.85 18.18-42.67-18.45Zm41.92 18.86-25.33 14.08c-.68-.15-1.36-.29-2.04-.43l-15.5-32.18 42.87 18.53Zm-43.35-19.69-7.91-27.76 84.3-13.41-76.39 41.17Zm-7.32-28.53 51.42-49.01 33.51 35.49-84.93 13.52Zm-.93-.04-16.9-29.89c0-.41-.02-.82-.03-1.22l68.12-17.68-51.2 48.79Zm-16.94-31.8c-.01-.31-.01-.63-.03-.94l11.04-25.52 56.64 8.9-67.66 17.56Zm-.11-2.43c-1.08-21.43-6.08-37.14-8.05-42.59l18.57 18.26-10.52 24.32Zm-2.12 3.14c.02.71.05 1.41.06 2.12l-8.09 23.87-3.64 38.76c-.19.46-.38.93-.57 1.4l-48.43-79.85 60.67 13.7Zm-12.58 66.89-74.21-42.33 25.39-38.14 48.81 80.47Zm-74.83-42.6-50.02-14.63 75.24-23.26-25.23 37.89Zm-50.57-15.16 24.2-54.34 51.58 30.91-75.78 23.43Zm24.37-55.01-1.35-34 52.13 64.42-50.77-30.42Zm-.7-.58L587.83 26.1l55.81 16.48L645 76.74Zm-.95.06L562.7 54.08l23.82-28.25 57.54 50.97Zm.13.74-68.29 21.3-13.28-44.08 81.57 22.78Zm-69.15 20.78-23.36-18.85 10.38-24.22 12.98 43.07Zm-23.79-19.54-9.48-18.41c.12-.29.25-.56.37-.84l19.4-4.77-10.3 24.03Zm-10.91-20.19-7.08-5.56 16.43-11.56c-2.27 3.38-5.91 9.32-9.35 17.12Zm10.45-18.71-18.01 12.67-15.18-21.36 33.73 7.93c-.16.21-.34.46-.54.76Zm-18.66 12.9-22.1 4.26 6.93-25.61 15.17 21.35Zm-10.04 35.18-50.94 7.02 38.3-36.93 12.64 29.91Zm-50.98 6.13 20.23-48.78 17.7 12.19-37.93 36.58Zm-1.1.9-34.81-17.38 55.3-32.02L470 94.99Zm-.35.58-16.79 20.95-18.46-18.98c-.63-.99-1.27-1.98-1.92-2.95l2.26-16.45 34.9 17.42Zm-37.73-1.79c-8.38-12.31-17.88-22.53-26.55-30.53l28.74 14.58-2.19 15.95Zm-1.17 1.89-10 3.63-17.6-35.33c8.97 8.17 18.92 18.8 27.6 31.71Zm-31.51 2.32-10.82-36.61 31.41 37.95-20.59-1.34Zm-35.1 18.78 9.57-43.09 24.71 24.55-34.28 18.54Zm-.64-.24-19.41-31.67 28.96-11.31-9.54 42.98Zm-20.22-32.05-39.32 22.87-9.37-26.09 52.21-26.51-3.52 29.72Zm-49.35-3.08 9.11 25.35-33.32-29.03 24.21 3.69Zm-24.66-4.44 14.14-16.74 10.18 20.44-24.32-3.71Zm25.06 3.68L284 59.9l61.52-5.26-51.19 25.99ZM283.51 59.2l-14.13-11.58 50.69-10.95-36.56 22.53Zm-14.77 17.35-8.72-22.81 22.87 6.06-14.15 16.75Zm-.6.33-35.67.81 26.86-23.86 8.82 23.06Zm.58.85 34.38 29.96-60.18 17.38 25.8-47.33Zm-26.65 47.48-18.51-5.71 43.78-40.65-25.27 46.36Zm-.18.65-1.33 29.43-17.01-35.09 18.35 5.66Zm-1.79 30.04-27.62-13.54 10.42-21.94 17.2 35.48Zm-34.56-31.77c.65-11.71 3.4-20.72 4.63-24.22l12.21 19.53-16.84 4.69Zm-2.14 3.23-5.42 18.91-9.32-13.6 14.81-7.04c-.02.58-.05 1.14-.06 1.73Zm-6.01 19.23-30.27-4.82 20.91-8.82 9.35 13.64Zm-31.52-5.02-19.76-2.54 39.49-5.79-19.73 8.33Zm-.28.64 2.09 37.89-23.42-40.63 21.32 2.74Zm1.89 38.88-64.63-7.07 40.7-34.45 23.93 41.52Zm-.5.62-43.65 23.22-20.6-30.24 64.25 7.03Zm-11.29 59.04-53.27-37.89 20.63 2.82 32.64 35.07Zm-33.18-35.82-21.05-2.88.88-26.74 20.17 29.62Zm-21.73-2.78-17.66 11.38c0-.07.01-.15.02-.22l18.51-37.5-.87 26.34Zm-17.74 12.23 18.06-11.63 54.8 38.98-72.91-27.21s.04-.08.05-.13Zm41.21-8.4 45.23 11.71-11.39 24.65-33.84-36.36Zm39 60.79-34.32-17.24 29-6.2 5.32 23.44Zm-14.44 4.49-25.16 25.65 4.55-46.75 20.61 21.1Zm-25.87 25.96-64.43-44.38 69.05-3.08-4.62 47.46Zm-.43.52-69.19 27.64 4.47-72.22 64.72 44.58Zm-69.83 27.17-21.51-30.63 25.91-40.47-4.4 71.1Zm-.75.1L5.21 302.26l25.42-7.58 21.3 30.34Zm.59 1.03-15.56 35-31.86-58.1 47.42 23.1Zm.69.1 68.45-27.35-39.07 36.14-44.88 26.05 15.5-34.85Zm25.26 38.71-26.48 8.41c-.94-.04-1.6-.08-1.65-.09-.24-.04-.46.06-.65.19l-11.8-11.16 40.58 2.65Zm-22.5 72.95 51.07-39.11-35.62 50.28-15.46-10.98v-.18Zm52.43-39.88h.25c.1.02.16-.06.25-.08l32.99 32.91-69.59 18.11 36.09-50.95Zm33.46 33.55-23.15 40.55-46.25-22.5 69.39-18.06Zm-17.22 74.16-43.41-10.39 37.37-22.25 6.04 32.63Zm.51.89 14.98 8.68-32.72 14.63 17.74-23.31Zm15.27 9.29-3.97 21.52-29.05-6.75 33.02-14.77Zm.69 0 29.5 19.26-33.48 2.31 3.98-21.57Zm.35-.58 36.51-27.67-6.6 47.21-29.92-19.53Zm36.86-29.21-35.14-54.72 51.93 1.1-16.79 53.62Zm17.45-53.48 34.44 15.86v.02l-51.17 37.5 16.72-53.38Zm47.13 90.17c-8.14 24.44-30.1 34.57-35.5 36.72l23.53-109.68c14.63 28.37 18.67 52.83 11.97 72.95Zm2.66-1.94v18.05l-14.43 6.88c5.46-5.63 10.56-12.95 13.69-22.33.29-.85.5-1.74.74-2.61Zm-17.63 28.04-2.77 12.17h-16.2c3.6-1.52 11.31-5.27 18.97-12.17Zm-20.31 12.84h17.43l-2.49 20.86-14.85-20.32c-.02-.18-.07-.36-.1-.54Zm18.14-.28 3.05-13.38.92-.86 15.41-7.35-21.79 41.84 2.41-20.25Zm20.13-21.6 21.74 42.37-44.28.91 22.54-43.28Zm.81.11 77.08 43.34-55.39-1.09-21.68-42.25Zm21.77 43.72 41.3 67.99-43.22-16.4 1.92-51.6Zm.31-.79 55.91 1.1-14.28 67.44-41.63-68.54Zm-22.25-43.8 68.99-45.95 9.18 89.91-78.17-43.96Zm69.67-45.93 55.79 32.09-46.64 57.56-9.15-89.65Zm56.19 32.67 9.31 26.17s.03.06.05.09l15.48 20.56-71.32 10.54 46.48-57.36Zm25.02 47.47-8.51 42.21-62.7-31.68 71.21-10.53Zm-8.77 42.83-13.7 18.22-48.2-49.5 61.9 31.27Zm.59.34 12.1 8.2c-.11.16-.24.31-.35.47l-25.05 9.03 13.31-17.7Zm12.85 10.6.19 20.39-33.53 10.81c6.96-4.59 21.9-15.51 33.34-31.2Zm-.04 21.17-5.09 13.07-30.22-1.68 35.32-11.39Zm.76-.11 42.91 14.59-48.06-1.38 5.15-13.21Zm15.47-33.49 46 41.38-61.16-8.58 15.17-32.8Zm.77-.21 67.57.38-21.4 41.15-46.17-41.54Zm68.14.73 18.99 31.02c-.5.44-1.04.82-1.54 1.25l-38.7 8.59 21.25-40.86Zm-.33-1.02-68.39-.39-2.06-20.71c.1-.8.28-1.58.35-2.39 0-.09 0-.18.01-.28l7.22-2.71 67.7-22.63-4.84 49.1Zm5.46-48.58 9.08 14.33c-.04.94-.07 1.87-.11 2.8l-13.59 29.81 4.62-46.94Zm10.96 17.83 16.54 33.81-11.83 27.33c-1.29-6.58-5.68-31.46-4.71-61.14Zm5.07 62.89s-.06-.27-.12-.59l11.68-26.98 1.24 42.2-12.22-12.44c-.18-.74-.41-1.45-.57-2.2Zm12.18-29.07 2.02-41.33 57.06 40.24-39.71 72.39-18.05-26.86-1.31-44.44Zm59.78-.63 70.06 43.95-82.37 51.32 12.31-95.27Zm52.14 105.13c-.13-.02-.24-.09-.37-.06-.37.09-.57.39-.67.73l-31.09.72 49.89-61.07-17.76 59.67Zm-.92 1.82c.02.09.06.17.08.27l-8.16 17.34-22.21-3.23 30.28-14.37Zm-29.85 15.11 21.72 3.16 5.69 19.76-26.87-22.17c-.18-.25-.36-.5-.54-.74Zm22.52 3.52 23.78 12.56s.07.08.1.12l-18.15 7.21-5.73-19.9Zm24.34 13.22s.03.03.04.05c-.33 5.03-.79 11.88-.92 13.5l-17.02-6.43 17.9-7.12Zm-.23 13.8c.15-1.61.65-9.19.9-13.02 7.75 8.17 17.18 14.24 27.3 18.79-11.57-2.26-26.27-5.2-28.2-5.77Zm32.15 7.51c12.87 5.19 26.6 8.02 39.41 9.49l-35.29 4.36-4.12-13.85Zm3.5 14.12-28.51 28.4 24.33-42.42 4.17 14.01Zm38.73-4.3c.85.09 1.66.13 2.49.21l12.69 30.88-52.39-26.5 37.21-4.6Zm20.71-49.84 25.7 47.61c-4.16.5-21.78 2.33-43.17.52l17.47-48.12Zm16.32-9.24c.39.23.78.46 1.18.69l21.72 26.83-38.55-19.11 15.65-8.4Zm.41-2.08-12.37-38.71 97.11 45.47-82.66-5.55c-.69-.41-1.39-.8-2.08-1.22Zm-13.08-39.98-23.45-23.78 56.44-84.05-32.99 107.82Zm34.15-109.32 36.42 28.59-69.63 79.96 33.21-108.55Zm37.01 28.93 43.81 13.25-113.22 66.45 69.41-79.71Zm19.45-9.09c14.99 6.7 28.9 10.62 41.42 12.61l-16.19 9.23-25.22-21.84Zm26.18 22.72 53.58 7.6 7.49 50.47-61.07-58.08Zm61.06 59-31.65 31.56-29.67-89.87 61.32 58.31Zm-6.77-51.15 19.79 8.22-12.42 41.38-7.36-49.61Zm-.47-.94-33.01-16.25c5.74.69 11.17.99 16.25.99 22.67 0 38.19-5.79 44.12-8.44l-27.36 23.7Zm-34.73-18.49 33.73-20.15 28.7 12.56c-5.73 2.73-28.54 12.12-62.43 7.59Zm32.23-59.21 36.47 28.29-34.68 9.96-1.79-38.24Zm39.48-39.75 28.66 40.34-67.71-1.62 39.05-38.72Zm.72-.14 19.6 1.1c.81.35 1.35.56 1.62.66l6.78 37.67-28-39.42Zm21.67-.24c-.11-.04-.24-.09-.41-.16l-9.15-23.16 41.33-29.39-31.78 52.71Zm-32.39-47.6 26.03-47.55 38.55 40.96-64.58 6.59Zm27.17-47.33 33.12 11.95 4.5 28.03-37.62-39.98Zm.31-.6 51.31-5.03-18.28 16.94-33.03-11.92Zm47.33-44.82-59.78-4.03 24.59-55.47 23.03 19.15 12.16 40.34Zm-34.51-59.8 18.9-2.46s0 .03.02.04c.27.29.49.6.76.89l2.53 19.99-22.2-18.46Zm1.24-33.95-.2-17.98a117.873 117.873 0 0 1 17.05 45.5l-16.85-27.52Zm-.87-.02-16.75 8-35.06-9.86 20.46-36.2 31.36 38.06Zm-31.74-38.91-12.47 3.47 12.61-16.47s.04.03.06.04l-.2 12.95Zm-34.18-19.64 32.67 5.55c.07.05.14.09.21.13l-37.58 9.57 4.69-15.25Zm-.02-.69-6.05-11.01c13.44 3.28 26.02 8.86 37.3 16.32l-31.25-5.31Zm-5.46 16.19-27.46 16.74-3.99-21.67 36.19-10.47-4.74 15.39Zm-32.34-5.76-49.92-22.19 39.31-18.4 10.61 40.59Zm-10.77-41.4-82.95-.27 76.91-41.45 6.04 41.73Zm-39.25-78.19 23.21-2.52c.27.23.52.48.78.71l8.86 36.59-32.85-34.79Zm-.6-.61-33.76-28.8c21.43 3.6 40.95 12.85 56.9 26.29l-23.14 2.51Zm-58.55-9.26-18.9-18.59 29.97 12.01-11.07 6.58Zm-13.23 24.09-12.02-27.27 4.39-13.64c1.93 5.44 6.55 20.39 7.62 40.92ZM737.72 71.2l-5.71-26.26c7.33 8.84 13.44 18.86 18.08 29.84l-12.36-3.58Zm-.73.23-38.4 36.47 17.98-63.92L737 71.43Zm-39.2 36.84-53.1-65.62 71.29.91-18.2 64.71Zm-52.77-66.28 32.5-22.81 37.71 23.7-70.21-.89Zm32.52-23.59-26.7-15.9c14.06 1.22 27.54 4.87 39.93 10.64l-13.23 5.26Zm-.94.6-32.43 22.76-7.64-27.88L676.6 19Zm-33.11 22.82-55.7-16.45 48.05-11.48 7.65 27.93Zm-57.21-16.76-30.45 12.28c12.04-12.12 26.49-21.38 42.25-27.38l-11.8 15.09Zm-32.77 14.51c.32-.34.69-.64 1.02-.98l30.84-12.44-23.21 27.53-8.78-13.94c.05-.07.11-.15.13-.17Zm8.08 14.46-19.1 4.7c4.32-9.63 8.9-16.27 10.47-18.41l8.64 13.71Zm-44.47-23.68-2.4-16.24A118.772 118.772 0 0 1 550.5 38.2l-33.39-7.86Zm-.7.48-6.83 25.25-7.33-30.7 14.16 5.46Zm-7.38 25.84-17.41-12 10.03-18.9 7.38 30.9Zm-17.96-12.39-37.88-28.1 48.08 8.89-10.2 19.2Zm-1.04.06-74.11-6.64 35.88-21.71 38.22 28.35Zm-38.33-29.11-25.78-3.34c11.59-4.32 23.82-6.82 36.36-7.36L451.7 15.24Zm-27.1-2.84 26.23 3.4-35.32 21.37 8.59-24.58c.17-.07.34-.13.51-.19Zm65.5 32.63-55.48 32.12-19.19-38.81 74.66 6.69Zm-56.37 31.84-30.22-15.33c-.53-.48-1.06-.95-1.59-1.41l12.92-21.47 18.89 38.22Zm-32.32-17.2c-9.51-8.3-17.5-13.7-21.08-15.97l33.88-5.31-12.8 21.28Zm.36 3.01 17.21 34.55-30.59-36.96 11.43.71c.65.56 1.29 1.11 1.95 1.7Zm-3.48 34.45L374.01 73l13.47-12.51 10.82 36.63Zm-24.65-24.71-11.52-28.49 24.97 16.01-13.44 12.49Zm-11.36-29.19 9.31-1.99c.47.23.93.49 1.39.72l13.14 16.55-23.84-15.28Zm-.8-.52-16.17-10.73c8.74 1.98 17.26 4.88 25.34 8.77l-9.17 1.96Zm-.87.55-13.41 10.48-23.89-17.22 37.31 6.75Zm-14.34 10.64-61.41 5.25 37.04-22.82 24.38 17.58Zm-77.66-6.86-6.38-3.58c9.35-5.08 19.4-8.89 29.87-11.34l-23.49 14.93Zm-7.06-3.2 6.88 3.86 13.64 11.17-22.22-5.89 1.52-9.03c.06-.03.12-.07.19-.11Zm-2.39 9.14-21.05 7.84c6.85-6.33 14.39-11.85 22.5-16.42l-1.44 8.58Zm-24.01 10.56c.53-.52 1.1-1 1.64-1.51l21.09-7.86-25.78 22.9 3.04-13.53Zm32.59 13.99-44.3 41.13 8.39-40.31 35.91-.81Zm-45 41.22-12.29-19.66c.16-.44.28-.76.3-.8.27-.58.58-1.13.86-1.7l19.4-17.62-8.27 39.78Zm-19.22 5.21-27.06-11.83 31.89-13.2c-1.2 3.37-4.15 12.75-4.84 25.04Zm-2.53-.37-41.63-9.72 16.18-1.41 25.44 11.13Zm2.49 1.27-15.3 7.27-28.97-17.61 44.27 10.34Zm-16.29 7.46-42.94 6.3 13.12-24.43 29.83 18.13Zm-44.05 6.7-39.01 33.03 31.05-41.03 7.96 8.01Zm-41.43 35.14-18.43 37.33c1.23-22.97 9.04-44.31 21.68-62.11l-3.25 24.77Zm-19.34 41.1c.1-.03.16-.12.24-.18l74.37 27.76-29.11 6.22-69.75 3.11 23.86-36.76c.13-.05.25-.1.38-.15ZM57.31 252.2l-28.71.92 52.31-37.28-23.6 36.36ZM10.29 371.89l26.57-9.67 12.41 11.75c-.02.06-.08.1-.08.16-.02.24.08.46.21.65l-31.76 61.33c-.13-.33-.29-.65-.42-.97l-7.24-60.5c.12-.89.18-1.79.32-2.68v-.06Zm8.18 66.15 35.3.22c-1.37 20.98 5.95 43.43 9.12 51.99L19 439.29c-.18-.42-.36-.84-.54-1.25Zm37.39 1.62c.01-.28.01-.56.03-.85l15.2 10.8-6.54 39.16c-.31-.87-.64-1.85-1.01-2.94l-7.67-46.17Zm10.01 52.68c-.19-.49-.5-1.31-.86-2.27l6.47-38.71 8.4 43.63-14.01-2.65Zm6.04-42.28 46.18 22.46-37.55 22.35-8.63-44.82Zm52.53 56.26-18.13 23.83-25.19-34.2 43.32 10.37Zm-18.27 24.73 23.23 23.73a119.342 119.342 0 0 1-35.8-23.17l12.57-.57Zm30.69 7.45 20.96 24.25A119.18 119.18 0 0 1 133 556.3l3.86-17.79Zm.92-.47 33.41-2.3-2.84 20.22-30.57-17.91Zm34.05-2.06 32.77 24.31c-.43.11-.87.2-1.3.3l-34.32-4.38 2.84-20.23Zm6.93-49.02 51.56-37.78-23.72 110.58c-.1.04-.14.05-.21.08l-27.62-72.88Zm43.65 96.61 3.26 27.14c-9.01-13.87-15.18-29.78-17.75-46.97l14.49 19.83Zm.7.2 43.97-.9-39.89 30.13c-.22-.32-.47-.62-.69-.94l-3.39-28.28Zm4.48 29.77 40.17-30.33-1.93 51.71-37.36-20.17c-.29-.41-.6-.8-.88-1.21Zm38.82 22.39 41.93 15.91-41.65-2.44c-.73-.42-1.49-.77-2.21-1.2l1.93-12.27Zm43.92 16.7 9.28 12.25c-18.55-.95-36.06-6.14-51.54-14.72l42.26 2.47Zm.59-.69 14.23-67.18 26.82 64.64-41.05 2.54Zm15.1-66.82 48.36 49.67-21.77 14.41-26.59-64.08Zm49.14 49.99 25.01-9.02c-12.09 16.47-28.11 27.61-34.04 31.38l9.03-22.36Zm21.76 26.85 10.24 12.73c-14.06-2.36-27.61-7.2-40-14.38l29.76 1.65ZM406 648.5l57.88 8.12-16.03 6.1-41.84-14.22Zm59.68 8.21 37.71-8.37c-10.03 8.44-21.24 15.16-33.26 19.85l-4.45-11.49Zm21.78-42.29 13.68-30c-.82 28.77 3.3 52.82 4.68 59.99l-18.36-29.99Zm33.6 47.41-2.54 12.59c-3.98-7.77-7.13-16.03-9.34-24.68l11.88 12.08Zm.53.75 17.16 25.53L520 677.33c-.35-.64-.66-1.3-1-1.95l2.58-12.81Zm17.89 26.73-1.3 12.85c-6.78-7.13-12.72-15.06-17.58-23.71l18.88 10.86Zm.69-.08 39.23-71.52-12.19 94.34-26.91-7.65c-.52-.52-1-1.07-1.51-1.59l1.37-13.58Zm26.96 23.49-1.42 11c-8.92-5.07-17.13-11.22-24.42-18.34l25.83 7.34Zm-.79 11.37 1.44-11.16 29.99 10.25-30.19 1.64c-.42-.23-.83-.5-1.25-.74Zm1.93-11.7 81.11-50.53-49.98 61.17-31.13-10.64Zm62.58 10.65-30.17 14.32c-.05-.07-.11-.15-.17-.23-.05-.06-.14-.08-.2-.13l-.46-13.25 30.99-.71Zm-1.57 39.59-1.71 25.41c-6.66-19.12-15.4-34.57-23.84-46.51l25.56 21.09Zm.65.32 17.36 6.56-18.8 21.38c-.12-.37-.24-.76-.37-1.13l1.81-26.81Zm-.97 29.37 50.13-15.82-25.31 44.13-24.28-26.67c-.17-.55-.35-1.09-.53-1.64Zm25.42 28.81 29.74-29.63 20.21 60.3-49.95-30.67Zm71.48-34.38c6.8.57 13.27.82 19.01.82 11.65 0 20.43-.85 23.87-1.25l-30.17 31.35-12.71-30.92Zm44.11-2.62s-.16.02-.22.03l-25.68-47.57 39.27 19.47-12.98 27.91c-.13.05-.26.11-.4.16Zm-7.49-55.07c22.97 13.21 46.1 19.98 54.5 22.16l-33.05 4.32-21.45-26.49Zm58.17 20.98c-1.14-.25-29.33-6.72-57.2-22.74l82.14 5.51-24.78 17.24h-.17Zm-72.79-64.1 114.5-67.2-16.06 113.3-98.44-46.1Zm115.06-66.37 29.72 90.02-45.65 22.37 15.93-112.39Zm30.31 90.59 21.27 6.37c-10.34 10.09-22.48 18.33-35.91 24.16l14.64-30.53Zm21.85 5.84-21.39-6.4 31.04-30.95-8.58 36.27c-.36.36-.71.73-1.07 1.09Zm10.55-38.23 20.02-13.02c-5.48 18.68-15.4 35.45-28.56 49.12l8.54-36.11Zm20.27-13.98-19.98 12.99 12.37-41.2 8.23 25.82c-.21.8-.39 1.6-.62 2.39Zm-7.85-29.8-19.76-8.21 28.32-24.54c.04.16.07.32.11.48L938.05 634Zm8.89-35.4s-.05.05-.08.07c-.03.02-.07 0-.11.01-.03.02-.28.15-.65.34l-28.53-12.49 34.3-9.84-4.36 21.71c-.19.06-.38.15-.57.21Zm-31.19-51.17 67.29 1.61-30.74 26.73-36.54-28.34Zm61.47-37.73c.15-.03.3-.06.42-.15l43.02 19.91c-.05.13-.09.26-.14.39l-36.36 18.38-6.94-38.52Zm43.68 19.12L978 508.96c.03-.13-.01-.25-.03-.37l41.46-16.63 1.89 35.71-.42 1.14Zm-1.56-37.54L977.63 508s-.04-.03-.06-.05l32.18-53.39 9.59 36.71Zm-13.81-66.75 18.43-17.09-1.43 33.69c-.28.55-.53 1.12-.83 1.66-.14.26-.16.56-.06.83.05.14.09.29.14.44l-11.68 9.04-4.59-28.57Zm19.13-17.65 10.03-3.95a119.33 119.33 0 0 1-11.42 36.74l1.39-32.78Zm10.47-7.44-14.92-31.79 9.13-19.89c4.23 12.32 6.55 25.31 6.55 38.62 0 4.37-.28 8.73-.76 13.06Zm-7.1-55.51-20.2-17.36-2.49-19.69c9.87 10.99 17.53 23.53 22.69 37.05Zm-44.75-92.3-29.11-16.97.19-12.51c11.25 8.08 21.02 18.08 28.91 29.48Zm-70.9-48.59 6.22 11.32-35.87 10.37 14.25-24.5c.11.06.19.15.32.17 5.14.52 10.15 1.47 15.09 2.64Zm-15.96-4.82-24.77-14.67 20.02-24.04c3.15 10.68 4.91 21.94 4.91 33.62 0 1.58-.07 3.3-.15 5.09Zm-5.51-41.3-25.64-16.08-8.89-36.72c15.82 14.06 27.94 32.18 34.53 52.8Zm-97.1-81.72-9.75 13-29.75-11.92c7.65-1.51 15.38-2.35 23.06-2.35 5.59 0 11.06.52 16.45 1.27ZM729.88 42.6l-13.35.3-22.24-27.97a118.465 118.465 0 0 1 35.59 27.67ZM647.71 2.31l-11.78 10.84-33.64-4.75c12.17-4.12 25-6.37 38.03-6.37 2.48 0 4.94.13 7.39.28ZM513.22 13.45l-11.54 10.99-35.34-20.11c.32 0 .63-.05.95-.05 16.04 0 31.58 3.17 45.93 9.17Zm-90-.52-8.65 24.74-35.15 5.51s-.07-.04-.09-.06c12.26-13.41 27.35-23.58 43.89-30.19Zm-24.27 47.35-11.18-.69-13.37-16.84c.94.49 1.9.95 2.83 1.47.29.17 9.66 5.69 21.72 16.06Zm-59.28-29.41-17.81 4.74-24.49-4.54c7.07-1.31 14.29-2.07 21.62-2.07 6.95 0 13.87.66 20.68 1.86ZM234.21 64.55l-3 13.34-18.78 17.06c5.69-11.37 13.06-21.6 21.77-30.4Zm-27.29 34.27-31.43 13.01-32.2 2.8c17.46-10.08 37.54-15.96 58.85-15.96 1.51 0 3.14.08 4.78.15Zm-67.12 17.89-4.96 13.6-27.03 15.41c8.84-11.48 19.67-21.33 31.99-29.01ZM78.36 216.85l-48.42 34.51c12.69-15.14 29.23-27.11 48.42-34.51ZM2.03 327.97c0-7.51.78-14.87 2.14-22.06l4.39 60.57c-4.25-12.41-6.53-25.31-6.53-38.51Zm7.6 49.48 6.58 54.98a119.328 119.328 0 0 1-7.44-41.55c0-4.44.35-8.93.86-13.43Zm10.26 63.91 41.7 48.42c-18.4-12.34-32.67-29.08-41.7-48.42Zm46.27 51.73 13.87 2.62 10.05 32.56a118.99 118.99 0 0 1-23.92-35.18Zm95.16 70.05 7.39-6.29 32.72 4.18c-8.63 1.95-17.44 3-26.27 3-4.67 0-9.27-.35-13.84-.88Zm68.07 52.85 36.39 19.64-1.91 12.18c-13.48-8.2-25.17-19.07-34.47-31.82Zm93.86 49.03 29.18-14.94 10.91 8.93c-12.15 4.04-24.8 6.11-37.62 6.11-.83 0-1.64-.1-2.46-.11Zm88.27 10.34 36.36-11.95 19.85 5.66c-12.99 4.75-26.79 7.3-40.9 7.3-5.14 0-10.25-.35-15.31-1.01Zm157.26 50.06 30.42-1.66.45 12.9c-10.92-2.32-21.28-6.16-30.87-11.24Zm61.23 70.08 23.42 25.72-14.93 22.7c-1.03-18.03-4.16-34.15-8.49-48.42Zm8.6 51.68 20.28 21.75-15.11 17.61c-3.71-4.44-5.43-11.28-5.08-20.45.25-6.53.17-12.81-.09-18.91Zm9.03 42.73c-1.01-.62-1.91-1.38-2.75-2.2l27.29-7.67 10.02 6.45c-14.84 6.58-27.14 7.93-34.56 3.41Zm45.16-8.72c-2.44 1.38-4.83 2.64-7.17 3.78l19.51-32.06 22.65 2.25c-11 10.23-23.11 19.3-34.99 26.03Zm38.03-28.94 7.94-33.82 30.35-31.53c-.79 20.12-17.07 44.79-38.28 65.35Zm40.45-68.64 12.74-27.4 34.5-4.51c-12.95 14.3-29.21 25.29-47.23 31.92Zm50.65-33.52 24.7-17.19 27.83 9.4c-13.4 5.23-27.92 8.21-43.15 8.21-3.11 0-6.25-.18-9.38-.42Zm128.58-118.78c0 9.97-1.37 19.61-3.68 28.87l-8.21-25.74 8.42-31.33c2.26 9.25 3.47 18.71 3.47 28.19Zm-2.26-33.2 4.32-21.5 26.3 5.93a119.36 119.36 0 0 1-30.62 15.57Zm32.88-17.17 3.1-32.01 35.95-18.18a118.74 118.74 0 0 1-39.05 50.18Zm40.78-54.84-1.83-34.49 8.94-9.32c.02.99.13 1.97.13 2.97 0 14.26-2.59 28.02-7.24 40.85Zm6.94-47.8-18.5-24.53 11.67-9.03c3.92 10.83 6.16 22.08 6.83 33.56Z"/>
  <path d="M658.11 276.66c-5.84 2.91-8.21 10-5.3 15.84 2.91 5.84 10.01 8.21 15.84 5.3 5.84-2.91 8.21-10.01 5.3-15.84-2.91-5.84-10.01-8.21-15.84-5.29Zm94.72-72.76c-5.84 2.91-8.21 10-5.3 15.84 2.91 5.84 10.01 8.21 15.84 5.3 5.84-2.91 8.21-10.01 5.3-15.84-2.91-5.84-10.01-8.21-15.84-5.29Zm-84.56-60.36a6.482 6.482 0 0 0-2.91 8.7c1.6 3.21 5.5 4.51 8.7 2.91 3.21-1.6 4.51-5.5 2.91-8.7a6.484 6.484 0 0 0-8.7-2.91ZM558.65 48.95a6.482 6.482 0 0 0-2.91 8.7c1.6 3.21 5.5 4.51 8.7 2.91 3.21-1.6 4.51-5.5 2.91-8.7a6.484 6.484 0 0 0-8.7-2.91Zm-90.59 40.47a6.482 6.482 0 0 0-2.91 8.7c1.6 3.21 5.5 4.51 8.7 2.91 3.21-1.6 4.51-5.5 2.91-8.7a6.484 6.484 0 0 0-8.7-2.91Zm12.66 105.04a6.482 6.482 0 0 0-2.91 8.7c1.6 3.21 5.5 4.51 8.7 2.91 3.21-1.6 4.51-5.5 2.91-8.7a6.484 6.484 0 0 0-8.7-2.91Zm-120.46-83.11a6.482 6.482 0 0 0-2.91 8.7c1.6 3.21 5.5 4.51 8.7 2.91 3.21-1.6 4.51-5.5 2.91-8.7a6.484 6.484 0 0 0-8.7-2.91Zm-95-40.05a6.482 6.482 0 0 0-2.91 8.7c1.6 3.21 5.5 4.51 8.7 2.91 3.21-1.6 4.51-5.5 2.91-8.7a6.484 6.484 0 0 0-8.7-2.91Zm-28.52 78.35a6.482 6.482 0 0 0-2.91 8.7c1.6 3.21 5.5 4.51 8.7 2.91 3.21-1.6 4.51-5.5 2.91-8.7a6.484 6.484 0 0 0-8.7-2.91ZM99.47 168.81a6.482 6.482 0 0 0-2.91 8.7c1.6 3.21 5.5 4.51 8.7 2.91 3.21-1.6 4.51-5.5 2.91-8.7a6.484 6.484 0 0 0-8.7-2.91Zm25.55 73.76a6.482 6.482 0 0 0-2.91 8.7c1.6 3.21 5.5 4.51 8.7 2.91 3.21-1.6 4.51-5.5 2.91-8.7a6.484 6.484 0 0 0-8.7-2.91Zm77.61 63.99a6.482 6.482 0 0 0-2.91 8.7c1.6 3.21 5.5 4.51 8.7 2.91 3.21-1.6 4.51-5.5 2.91-8.7a6.484 6.484 0 0 0-8.7-2.91ZM50.46 318.88a6.482 6.482 0 0 0-2.91 8.7c1.6 3.21 5.5 4.51 8.7 2.91 3.21-1.6 4.51-5.5 2.91-8.7a6.484 6.484 0 0 0-8.7-2.91Zm18.2 125.96a6.482 6.482 0 0 0-2.91 8.7c1.6 3.21 5.5 4.51 8.7 2.91 3.21-1.6 4.51-5.5 2.91-8.7a6.484 6.484 0 0 0-8.7-2.91Zm105.72 35.53a6.482 6.482 0 0 0-2.91 8.7c1.6 3.21 5.5 4.51 8.7 2.91 3.21-1.6 4.51-5.5 2.91-8.7a6.484 6.484 0 0 0-8.7-2.91Zm114.22-52.48a6.482 6.482 0 0 0-2.91 8.7c1.6 3.21 5.5 4.51 8.7 2.91 3.21-1.6 4.51-5.5 2.91-8.7a6.484 6.484 0 0 0-8.7-2.91Zm-14.09-57.16a6.482 6.482 0 0 0-2.91 8.7c1.6 3.21 5.5 4.51 8.7 2.91 3.21-1.6 4.51-5.5 2.91-8.7a6.484 6.484 0 0 0-8.7-2.91Zm119.77-79.52a6.482 6.482 0 0 0-2.91 8.7c1.6 3.21 5.5 4.51 8.7 2.91 3.21-1.6 4.51-5.5 2.91-8.7a6.484 6.484 0 0 0-8.7-2.91Zm115.32-23.55a6.482 6.482 0 0 0-2.91 8.7c1.6 3.21 5.5 4.51 8.7 2.91 3.21-1.6 4.51-5.5 2.91-8.7a6.484 6.484 0 0 0-8.7-2.91Zm93.42 87.82a6.482 6.482 0 0 0-2.91 8.7c1.6 3.21 5.5 4.51 8.7 2.91 3.21-1.6 4.51-5.5 2.91-8.7a6.484 6.484 0 0 0-8.7-2.91Zm182.15 71.91a6.482 6.482 0 0 0-2.91 8.7c1.6 3.21 5.5 4.51 8.7 2.91 3.21-1.6 4.51-5.5 2.91-8.7a6.484 6.484 0 0 0-8.7-2.91Zm-14-139.52a6.482 6.482 0 0 0-2.91 8.7c1.6 3.21 5.5 4.51 8.7 2.91 3.21-1.6 4.51-5.5 2.91-8.7a6.484 6.484 0 0 0-8.7-2.91Zm-90.93 103.26a6.482 6.482 0 0 0-2.91 8.7c1.6 3.21 5.5 4.51 8.7 2.91 3.21-1.6 4.51-5.5 2.91-8.7a6.484 6.484 0 0 0-8.7-2.91Zm-56.64 68.02a6.482 6.482 0 0 0-2.91 8.7c1.6 3.21 5.5 4.51 8.7 2.91 3.21-1.6 4.51-5.5 2.91-8.7a6.484 6.484 0 0 0-8.7-2.91Zm13.43 95.07a6.482 6.482 0 0 0-2.91 8.7c1.6 3.21 5.5 4.51 8.7 2.91 3.21-1.6 4.51-5.5 2.91-8.7a6.484 6.484 0 0 0-8.7-2.91Zm111.95-15.7a6.482 6.482 0 0 0-2.91 8.7c1.6 3.21 5.5 4.51 8.7 2.91 3.21-1.6 4.51-5.5 2.91-8.7a6.484 6.484 0 0 0-8.7-2.91Zm95.13-65.98a6.482 6.482 0 0 0-2.91 8.7c1.6 3.21 5.5 4.51 8.7 2.91 3.21-1.6 4.51-5.5 2.91-8.7a6.484 6.484 0 0 0-8.7-2.91Zm122.21-66.53a6.482 6.482 0 0 0-2.91 8.7c1.6 3.21 5.5 4.51 8.7 2.91 3.21-1.6 4.51-5.5 2.91-8.7a6.484 6.484 0 0 0-8.7-2.91Zm13.76-104.54a6.482 6.482 0 0 0-2.91 8.7c1.6 3.21 5.5 4.51 8.7 2.91 3.21-1.6 4.51-5.5 2.91-8.7a6.484 6.484 0 0 0-8.7-2.91Zm-87.77-46.38a6.482 6.482 0 0 0-2.91 8.7c1.6 3.21 5.5 4.51 8.7 2.91 3.21-1.6 4.51-5.5 2.91-8.7a6.484 6.484 0 0 0-8.7-2.91Zm-25.53-76.91a6.482 6.482 0 0 0-2.91 8.7c1.6 3.21 5.5 4.51 8.7 2.91 3.21-1.6 4.51-5.5 2.91-8.7a6.484 6.484 0 0 0-8.7-2.91ZM640.08 35.84a6.482 6.482 0 0 0-2.91 8.7c1.6 3.21 5.5 4.51 8.7 2.91 3.21-1.6 4.51-5.5 2.91-8.7a6.484 6.484 0 0 0-8.7-2.91Zm189.9 550.03a6.482 6.482 0 0 0-2.91 8.7c1.6 3.21 5.5 4.51 8.7 2.91 3.21-1.6 4.51-5.5 2.91-8.7a6.484 6.484 0 0 0-8.7-2.91Zm-125.12 70.82a6.482 6.482 0 0 0-2.91 8.7c1.6 3.21 5.5 4.51 8.7 2.91 3.21-1.6 4.51-5.5 2.91-8.7a6.484 6.484 0 0 0-8.7-2.91Zm-126.49-47.63a6.482 6.482 0 0 0-2.91 8.7c1.6 3.21 5.5 4.51 8.7 2.91 3.21-1.6 4.51-5.5 2.91-8.7a6.484 6.484 0 0 0-8.7-2.91Zm46.77 149.92a6.482 6.482 0 0 0-2.91 8.7c1.6 3.21 5.5 4.51 8.7 2.91 3.21-1.6 4.51-5.5 2.91-8.7a6.484 6.484 0 0 0-8.7-2.91Zm218.42-32.35a6.482 6.482 0 0 0-2.91 8.7c1.6 3.21 5.5 4.51 8.7 2.91 3.21-1.6 4.51-5.5 2.91-8.7a6.484 6.484 0 0 0-8.7-2.91Zm-167.37 41.86a6.482 6.482 0 0 0-2.91 8.7c1.6 3.21 5.5 4.51 8.7 2.91 3.21-1.6 4.51-5.5 2.91-8.7a6.484 6.484 0 0 0-8.7-2.91Zm27.27 78.63a6.482 6.482 0 0 0-2.91 8.7c1.6 3.21 5.5 4.51 8.7 2.91 3.21-1.6 4.51-5.5 2.91-8.7a6.484 6.484 0 0 0-8.7-2.91ZM486.94 377.56a6.482 6.482 0 0 0-2.91 8.7c1.6 3.21 5.5 4.51 8.7 2.91 3.21-1.6 4.51-5.5 2.91-8.7a6.484 6.484 0 0 0-8.7-2.91Zm-130.12-183.1a6.482 6.482 0 0 0-2.91 8.7c1.6 3.21 5.5 4.51 8.7 2.91 3.21-1.6 4.51-5.5 2.91-8.7a6.484 6.484 0 0 0-8.7-2.91Zm234.03 217.76c-5.84 2.91-8.21 10-5.3 15.84 2.91 5.84 10.01 8.21 15.84 5.3 5.84-2.91 8.21-10.01 5.3-15.84-2.91-5.84-10.01-8.21-15.84-5.29Zm-21.93 77.24c-5.84 2.91-8.21 10-5.3 15.84 2.91 5.84 10.01 8.21 15.84 5.3 5.84-2.91 8.21-10.01 5.3-15.84-2.91-5.84-10.01-8.21-15.84-5.29ZM343.5 422.17c-5.84 2.91-8.21 10-5.3 15.84 2.91 5.84 10.01 8.21 15.84 5.3 5.84-2.91 8.21-10.01 5.3-15.84-2.91-5.84-10.01-8.21-15.84-5.29Zm-19.27-72.16c-5.84 2.91-8.21 10-5.3 15.84 2.91 5.84 10.01 8.21 15.84 5.3 5.84-2.91 8.21-10.01 5.3-15.84-2.91-5.84-10.01-8.21-15.84-5.29Zm-99.38-75.87c-5.84 2.91-8.21 10-5.3 15.84 2.91 5.84 10.01 8.21 15.84 5.3 5.84-2.91 8.21-10.01 5.3-15.84-2.91-5.84-10.01-8.21-15.84-5.29ZM44.12 364.05c-5.84 2.91-8.21 10-5.3 15.84 2.91 5.84 10.01 8.21 15.84 5.3 5.84-2.91 8.21-10.01 5.3-15.84-2.91-5.84-10.01-8.21-15.84-5.29Zm58.66 22.85c-5.84 2.91-8.21 10-5.3 15.84 2.91 5.84 10.01 8.21 15.84 5.3 5.84-2.91 8.21-10.01 5.3-15.84-2.91-5.84-10.01-8.21-15.84-5.29Zm743.13 12.27c-5.84 2.91-8.21 10-5.3 15.84 2.91 5.84 10.01 8.21 15.84 5.3 5.84-2.91 8.21-10.01 5.3-15.84-2.91-5.84-10.01-8.21-15.84-5.29ZM628.19 712.45c-5.84 2.91-8.21 10-5.3 15.84 2.91 5.84 10.01 8.21 15.84 5.3 5.84-2.91 8.21-10.01 5.3-15.84-2.91-5.84-10.01-8.21-15.84-5.29Zm345.42-212.53c-5.84 2.91-8.21 10-5.3 15.84 2.91 5.84 10.01 8.21 15.84 5.3 5.84-2.91 8.21-10.01 5.3-15.84-2.91-5.84-10.01-8.21-15.84-5.29ZM549.13 138.85c-5.84 2.91-8.21 10-5.3 15.84 2.91 5.84 10.01 8.21 15.84 5.3 5.84-2.91 8.21-10.01 5.3-15.84-2.91-5.84-10.01-8.21-15.84-5.29Zm-248.02 11.63c-5.84 2.91-8.21 10-5.3 15.84 2.91 5.84 10.01 8.21 15.84 5.3 5.84-2.91 8.21-10.01 5.3-15.84-2.91-5.84-10.01-8.21-15.84-5.29Zm123.23 9.04c-5.84 2.91-8.21 10-5.3 15.84 2.91 5.84 10.01 8.21 15.84 5.3 5.84-2.91 8.21-10.01 5.3-15.84-2.91-5.84-10.01-8.21-15.84-5.29Z"/>
</svg>
