<svg xmlns="http://www.w3.org/2000/svg" width="301.095" height="301.094" viewBox="0 0 301.095 301.094">
  <g id="chip_1_" data-name="chip (1)" transform="translate(0 -0.001)">
    <g id="Group_140" data-name="Group 140" transform="translate(56.576 0.001)">
      <g id="Group_139" data-name="Group 139">
        <path id="Path_483" data-name="Path 483" d="M336.313,146.137H265.3V136.1h19.16a4.411,4.411,0,0,0,0-8.821H265.3V117.246h13.3a18.429,18.429,0,0,0,13.119-5.434L320.726,82.8a13.83,13.83,0,1,0-6.238-6.238l-29.007,29.007a9.669,9.669,0,0,1-6.882,2.85H265.3V98.693a23.293,23.293,0,0,0-23.267-23.267H232.3V36.382a13.839,13.839,0,1,0-8.821,0V75.426H213.444V56.266a4.411,4.411,0,0,0-8.821,0v19.16H194.587V4.412a4.411,4.411,0,1,0-8.821,0V75.426H175.731V56.266a4.411,4.411,0,1,0-8.821,0v19.16H156.875v-13.3a18.43,18.43,0,0,0-5.434-13.119L122.423,19.988a13.846,13.846,0,1,0-6.237,6.237L145.2,55.243a9.666,9.666,0,0,1,2.85,6.881v13.3h-9.731a23.365,23.365,0,0,0-5.815.733,4.411,4.411,0,1,0,2.2,8.543,14.525,14.525,0,0,1,3.615-.455H242.031a14.462,14.462,0,0,1,14.445,14.445V202.4a14.528,14.528,0,0,1-.454,3.613,4.41,4.41,0,1,0,8.543,2.2,23.34,23.34,0,0,0,.732-5.809V192.67h39.044a13.839,13.839,0,1,0,0-8.821H265.3V173.814h19.16a4.411,4.411,0,0,0,0-8.821H265.3V154.958h71.015a4.411,4.411,0,1,0,0-8.821ZM323.337,66.861a5.017,5.017,0,1,1-1.47,3.548A4.984,4.984,0,0,1,323.337,66.861ZM113.585,17.389a5.015,5.015,0,1,1,0-7.1A5.024,5.024,0,0,1,113.585,17.389Zm114.3,10.9a5.017,5.017,0,1,1,5.017-5.017A5.024,5.024,0,0,1,227.889,28.285Zm89.568,154.958a5.017,5.017,0,1,1-5.017,5.017A5.023,5.023,0,0,1,317.457,183.243Z" transform="translate(-96.206 -0.001)" fill="#579d42"/>
      </g>
    </g>
    <g id="Group_142" data-name="Group 142" transform="translate(0 89.568)">
      <g id="Group_141" data-name="Group 141">
        <path id="Path_484" data-name="Path 484" d="M240.471,340.209a13.853,13.853,0,0,0-15.934-2.6L195.52,308.591a9.666,9.666,0,0,1-2.85-6.881v-13.3H202.4a23.352,23.352,0,0,0,5.814-.733,4.411,4.411,0,0,0-2.2-8.543,14.516,14.516,0,0,1-3.615.455H98.692a14.462,14.462,0,0,1-14.445-14.445V161.432a14.509,14.509,0,0,1,.455-3.614,4.41,4.41,0,1,0-8.542-2.2,23.318,23.318,0,0,0-.733,5.814v9.731H36.381a13.839,13.839,0,1,0,0,8.821H75.425V190.02H56.265a4.411,4.411,0,0,0,0,8.821h19.16v10.035H4.411a4.411,4.411,0,0,0,0,8.821H75.425v10.035H56.265a4.411,4.411,0,1,0,0,8.821h19.16v10.035h-13.3A18.43,18.43,0,0,0,49,252.022L20,281.029a13.827,13.827,0,1,0,6.239,6.237l29.007-29.007a9.669,9.669,0,0,1,6.882-2.85h13.3v9.731a23.293,23.293,0,0,0,23.267,23.267h9.731v39.045a13.839,13.839,0,1,0,8.821,0V288.407h10.035v19.16a4.411,4.411,0,1,0,8.821,0v-19.16h10.034v71.016a4.411,4.411,0,0,0,8.821,0V288.408h10.035v19.16a4.411,4.411,0,0,0,8.821,0v-19.16h10.035v13.3a18.43,18.43,0,0,0,5.434,13.119L218.3,343.846a13.834,13.834,0,1,0,22.172-3.637ZM23.267,180.591a5.017,5.017,0,1,1,5.017-5.017A5.023,5.023,0,0,1,23.267,180.591Zm-5.88,116.382a5.017,5.017,0,1,1,1.47-3.548A4.984,4.984,0,0,1,17.386,296.973Zm100.465,43.593a5.017,5.017,0,1,1-5.017-5.017A5.023,5.023,0,0,1,117.852,340.567Zm116.383,12.976a5.015,5.015,0,1,1,0-7.1A5.024,5.024,0,0,1,234.234,353.542Z" transform="translate(0 -152.306)" fill="#579d42"/>
      </g>
    </g>
    <g id="Group_144" data-name="Group 144" transform="translate(103.711 98.997)">
      <g id="Group_143" data-name="Group 143">
        <path id="Path_485" data-name="Path 485" d="M270.03,208.107c0-9.433-6.9-17.423-16.344-20.019a15.057,15.057,0,0,0,.435-3.551c0-8.931-7.927-16.2-17.669-16.2a18.347,18.347,0,0,0-13.258,5.507,18.348,18.348,0,0,0-13.258-5.507c-9.743,0-17.669,7.266-17.669,16.2a15.057,15.057,0,0,0,.435,3.551c-9.445,2.6-16.344,10.586-16.344,20.019A19.372,19.372,0,0,0,181,220.658a21.809,21.809,0,0,0-4.645,13.376,22.714,22.714,0,0,0,10.606,18.845v.011c0,10.23,9.116,18.553,20.321,18.553a21.043,21.043,0,0,0,15.91-7.032,21.044,21.044,0,0,0,15.91,7.032c10.784,0,19.628-7.71,20.278-17.408a20.616,20.616,0,0,0,10.649-17.644,19.88,19.88,0,0,0-6.134-14.142A19.883,19.883,0,0,0,270.03,208.107Zm-15.61,18.042c4.25,2.243,6.787,6.072,6.787,10.242a11.282,11.282,0,0,1-3.885,8.292,19.8,19.8,0,0,0-11.6-9.338,4.41,4.41,0,1,0-2.644,8.415c4.5,1.413,7.518,5.082,7.518,9.13,0,5.366-5.159,9.732-11.5,9.732s-11.5-4.366-11.5-9.732V224.606c0-5.366,5.159-9.731,11.5-9.731a4.411,4.411,0,0,0,0-8.821,21.562,21.562,0,0,0-11.5,3.268v-5.634a4.411,4.411,0,1,0-8.821,0v24.486a21.01,21.01,0,0,0-4.873-2.256,4.411,4.411,0,0,0-2.645,8.415c4.5,1.413,7.517,5.082,7.517,9.129v9.428c0,5.366-5.159,9.732-11.5,9.732s-11.5-4.366-11.5-9.732a8.892,8.892,0,0,1,2.745-6.3,4.411,4.411,0,0,0-6.218-6.257,18.76,18.76,0,0,0-2.723,3.419,13.454,13.454,0,0,1-4.411-9.724c0-6.535,5.129-12.275,12.472-13.96a4.41,4.41,0,1,0-1.972-8.6,26.868,26.868,0,0,0-8.091,3.3,10.643,10.643,0,0,1-2.408-6.666c0-6.634,6.291-12.035,14.043-12.086.039,0,.079.006.118.006a4.407,4.407,0,0,0,3.742-6.732c-.034-.054-.064-.109-.1-.162-.018-.026-.04-.052-.059-.078-.068-.1-.138-.19-.214-.28l-.006-.008a6.547,6.547,0,0,1-1.614-4.23c0-4.067,3.969-7.375,8.848-7.375s8.848,3.309,8.848,7.375a4.411,4.411,0,1,0,8.821,0c0-4.067,3.969-7.375,8.848-7.375s8.848,3.309,8.848,7.375a6.2,6.2,0,0,1-.662,2.776,24.492,24.492,0,0,0-7.239,1.815,4.411,4.411,0,1,0,3.427,8.128,15.923,15.923,0,0,1,6.1-1.234c.042,0,.084.005.126.005s.078-.005.118-.006c7.753.051,14.041,5.452,14.041,12.086,0,4.17-2.537,8-6.787,10.242a4.41,4.41,0,0,0,0,7.8Z" transform="translate(-176.357 -168.34)" fill="#579d42"/>
      </g>
    </g>
  </g>
</svg>
