<?xml version="1.0" encoding="utf-8"?>
<!-- Generator: Adobe Illustrator 26.3.1, SVG Export Plug-In . SVG Version: 6.00 Build 0)  -->
<svg version="1.1" id="a" xmlns="http://www.w3.org/2000/svg" xmlns:xlink="http://www.w3.org/1999/xlink" x="0px" y="0px"
	 viewBox="0 0 3156.8 1718.8" style="enable-background:new 0 0 3156.8 1718.8;" xml:space="preserve">
<style type="text/css">
	.st0{fill:#CFDFE5;}
	.st1{fill:#739AAC;}
	.st2{fill:#87A5AF;}
	.st3{fill:#4D8BA7;}
	.st4{fill:#FF772A;}
	.st5{fill:#FF8540;}
	.st6{fill:#004869;}
	.st7{fill:#175976;}
	.st8{fill:#4D7F96;}
	.st9{fill:#9EB5BE;}
	.st10{fill:#90ABB7;}
	.st11{fill:#ACBFC6;}
	.st12{fill:#5993AD;}
	.st13{fill:#2B7596;}
	.st14{fill:#73A4BA;}
	.st15{fill:#216F91;}
	.st16{fill:#8CB4C6;}
	.st17{fill:#D4E3EA;}
	.st18{fill:#FFAE81;}
	.st19{fill:#FFAD7F;}
	.st20{fill:none;stroke:#FFA470;stroke-width:8;stroke-miterlimit:10;}
	.st21{fill:#FFFFFF;}
	.st22{fill:none;stroke:#5E96B0;stroke-width:21.04;stroke-miterlimit:10;}
	.st23{fill:#5E96B0;}
	.st24{fill:#528EA9;}
	.st25{fill:#A6C5D3;}
	.st26{fill:#FFA470;}
	.st27{fill:#C69483;}
	.st28{fill:#FF640D;}
	.st29{fill:#0F6389;}
	.st30{fill:#9B6449;}
	.st31{fill:#005981;}
	.st32{fill:#99BDCD;}
	.st33{opacity:0.16;fill:#0F6389;enable-background:new    ;}
	.st34{fill:#1A6A8E;}
	.st35{fill:#A8C7D4;}
	.st36{fill:#B0CCD8;}
	.st37{fill:#E57536;}
	.st38{fill:#FFCDB1;}
	.st39{fill:#1C6B8F;}
	.st40{fill:#A9262C;}
	.st41{fill:#CFDFE7;}
</style>
<path class="st0" d="M2398.6,428.1c-71.6,0-140.8,9.9-206.5,28.4C2023.3,239.3,1759.5,99.4,1463,99.4
	c-439.8,0-807.6,307.7-900.1,719.5c-12.1-2.5-24.6-3.9-37.5-3.9c-100.4,0-181.7,81.4-181.7,181.7c0,12.5,1.3,24.6,3.6,36.4
	c-169.5,43.6-301.4,180.7-337.5,353c-6.4,30.8-9.9,62.7-9.9,95.4c0,86.7,23.8,167.9,65.3,237.3h2872.9
	c90.1-91.3,157.2-205.3,191.9-332.7c17.4-63.7,26.6-130.7,26.6-199.8C3156.8,767.6,2817.3,428.1,2398.6,428.1L2398.6,428.1z"/>
<path class="st1" d="M1818.4,1331.5c-77.8,0-143.3,52.2-163.7,123.4h327.3C1961.8,1383.7,1896.2,1331.5,1818.4,1331.5L1818.4,1331.5
	z"/>
<path class="st1" d="M1626.9,1369.8c-53.7,0-98.9,36-112.9,85.2h225.9C1725.8,1405.8,1680.6,1369.8,1626.9,1369.8L1626.9,1369.8z"/>
<path class="st1" d="M1870.4,1454.9c22-76.1,109.1-132.9,213.2-132.9s191.3,56.8,213.2,132.9H1870.4L1870.4,1454.9z"/>
<path class="st1" d="M2416.5,1554.8H740.3c-31,0-56.1-25.1-56.1-56.1s25.1-56.1,56.1-56.1h1676.2c31,0,56.1,25.1,56.1,56.1
	S2447.4,1554.8,2416.5,1554.8z"/>
<path class="st2" d="M1348,226.5c30,0,55.3,20.1,63.1,47.6h-126.2C1292.8,246.6,1318,226.5,1348,226.5L1348,226.5z"/>
<path class="st2" d="M1421.8,241.3c20.7,0,38.1,13.9,43.5,32.8h-87.1C1383.7,255.1,1401.2,241.3,1421.8,241.3L1421.8,241.3z"/>
<path class="st2" d="M1328,274.1c-8.5-29.3-42.1-51.2-82.2-51.2s-73.7,21.9-82.2,51.2H1328L1328,274.1z"/>
<path class="st2" d="M892.5,431.2c41.9,0,77.3,28.1,88.2,66.5H804.3C815.2,459.4,850.6,431.2,892.5,431.2L892.5,431.2z"/>
<path class="st2" d="M462.5,399.8c61.8,0,113.8,41.4,130,98H332.5C348.7,441.2,400.8,399.8,462.5,399.8z"/>
<path class="st2" d="M865.8,497.8c-19.9-69-98.9-120.5-193.3-120.5s-173.4,51.5-193.3,120.5H865.8L865.8,497.8z"/>
<path class="st2" d="M2572.9,636.7c48.4,0,89.2,32.5,101.8,76.8h-203.7C2483.7,669.1,2524.5,636.7,2572.9,636.7L2572.9,636.7z"/>
<path class="st2" d="M2692.1,660.5c33.4,0,61.5,22.4,70.3,53h-140.6C2630.5,682.8,2658.7,660.5,2692.1,660.5L2692.1,660.5z"/>
<path class="st2" d="M2540.6,713.4c-13.7-47.3-67.9-82.7-132.7-82.7s-119,35.3-132.7,82.7H2540.6L2540.6,713.4z"/>
<path class="st3" d="M2342.3,691.6c26.2,0,48.4,17.6,55.3,41.7H2287C2293.9,709.2,2316,691.6,2342.3,691.6z"/>
<path class="st3" d="M2406.9,704.5c18.1,0,33.4,12.2,38.1,28.8h-76.3C2373.5,716.7,2388.8,704.5,2406.9,704.5L2406.9,704.5z"/>
<path class="st3" d="M2324.7,733.3c-7.4-25.7-36.8-44.9-72-44.9s-64.6,19.2-72,44.9H2324.7L2324.7,733.3z"/>
<path class="st3" d="M738,472c31.5,0,58,21.1,66.2,49.9H671.8C680.1,493.1,706.6,472,738,472L738,472z"/>
<path class="st3" d="M815.5,487.5c21.7,0,40,14.6,45.7,34.5h-91.4C775.5,502,793.8,487.5,815.5,487.5z"/>
<path class="st3" d="M717,521.9c-8.9-30.8-44.1-53.8-86.3-53.8s-77.4,23-86.3,53.8H717z"/>
<path class="st2" d="M1850.4,1541.9c-20.2,0-37.2,13.5-42.4,32h84.9C1887.6,1555.4,1870.5,1541.9,1850.4,1541.9L1850.4,1541.9z"/>
<path class="st2" d="M2057.3,1526.8c-29.7,0-54.8,19.9-62.5,47.1h125.1C2112,1546.7,2087,1526.8,2057.3,1526.8L2057.3,1526.8z"/>
<path class="st2" d="M1863.2,1573.9c9.6-33.2,47.6-58,93-58s83.4,24.8,93,58H1863.2z"/>
<path class="st4" d="M2454.9,1197.5c-20.1,0-37.2,11.7-43.1,16.2c7.4-18.3,15.4-35.6,24.2-52c6.9-12.8,14.1-25,21.8-36.5
	c5.4,4.3,22.8,16.7,43.6,16.7c25,0,45.3-18,45.3-18s-20.3-18.1-45.3-18.1c-17.2,0-32.1,8.5-39.8,13.8c14.1-20.5,29.5-38.8,46-54.9
	c7.4-1,27.7-5,41.8-19.3c17.5-17.8,18.9-45,18.9-45s-27.1,1.8-44.7,19.7c-12.8,13-17,31-18.3,39.8c-16.5,15.9-31.9,34-46.1,54.1
	c1.9-9.5,3.4-25.2-2.7-40c-9.5-23.2-33.9-35.1-33.9-35.1s-9.1,25.6,0.4,48.8c7.6,18.4,24.6,29.7,31.2,33.6
	c-8.1,12.1-15.7,24.8-22.9,38.3c-7.6,14.2-14.7,29.2-21.3,44.9c0-9.7-1.7-23.9-9.3-36.3c-13.2-21.3-39.3-29-39.3-29
	s-4.7,26.8,8.5,48c10.2,16.5,28.2,24.8,35.8,27.7c-8,20.1-15.1,41.3-21.4,63.5c-20.9,74.2-24.3,133.9-24.3,134.5l5.1,0.3
	c0-0.6,3.4-59.9,24.2-133.6c6.2-22,13.3-43.1,21.3-63.1c4.6,3.7,22.6,17.2,44.2,17.2c25,0,45.3-18,45.3-18
	S2479.9,1197.6,2454.9,1197.5L2454.9,1197.5z"/>
<path class="st4" d="M2617.5,1280.4c-14.8-5.8-30.8-2-36.4-0.3c10.7-11.4,21.6-21.9,32.7-31.4c8.7-7.5,17.6-14.4,26.5-20.7
	c2.7,4.7,12.1,18.8,27.4,24.8c18.5,7.2,38.6-0.3,38.6-0.3s-9.8-19.2-28.2-26.3c-12.6-4.9-26.1-2.9-33.3-1.2
	c16.3-11.1,32.9-20.2,49.7-27.4c5.7,1.4,21.9,4.3,36.4-2.3c18-8.2,26.8-27.8,26.8-27.8s-20.5-6.4-38.6,1.7
	c-13.2,6-21.4,18-24.9,24.1c-16.7,7-33.3,15.9-49.4,26.8c4.1-6.5,9.7-17.7,9.5-30.3c-0.4-19.8-15-35.6-15-35.6s-14,16.3-13.6,36.1
	c0.3,15.8,9.6,28.9,13.4,33.7c-9.4,6.6-18.7,13.8-27.9,21.7c-9.7,8.3-19.2,17.4-28.6,27.1c2.8-7.2,5.6-18.1,3.5-29.4
	c-3.7-19.5-20.7-32.6-20.7-32.6s-11.1,18.4-7.4,37.9c2.8,15.1,13.7,26.4,18.4,30.7c-11.7,12.6-23,26.2-33.9,40.7
	c-36.6,48.8-56.2,91.9-56.4,92.3l3.7,1.7c0.2-0.4,19.7-43.2,56-91.6c10.9-14.5,22.1-28,33.8-40.5c2.3,4,11.8,19.1,27.7,25.3
	c18.5,7.2,38.6-0.3,38.6-0.3S2636,1287.6,2617.5,1280.4L2617.5,1280.4z"/>
<path class="st5" d="M2583.5,1378.8c56,0,103.2,37.6,117.9,88.9h-235.8C2480.3,1416.4,2527.5,1378.8,2583.5,1378.8L2583.5,1378.8z"
	/>
<path class="st5" d="M2721.5,1406.3c38.7,0,71.3,25.9,81.4,61.3h-162.7C2650.2,1432.3,2682.8,1406.3,2721.5,1406.3L2721.5,1406.3z"
	/>
<path class="st5" d="M2546.1,1467.7c-15.8-54.8-78.6-95.7-153.6-95.7s-137.8,40.9-153.6,95.7H2546.1L2546.1,1467.7z"/>
<path class="st6" d="M2519.9,1437.5c33.6,0,61.9,22.5,70.6,53.2h-141.2C2458.1,1460,2486.4,1437.5,2519.9,1437.5L2519.9,1437.5z"/>
<path class="st6" d="M2602.6,1454c23.2,0,42.7,15.5,48.7,36.7h-97.5C2559.9,1469.5,2579.4,1454,2602.6,1454L2602.6,1454z"/>
<path class="st6" d="M2497.5,1490.7c-9.5-32.8-47.1-57.3-92-57.3s-82.5,24.5-92,57.3H2497.5z"/>
<rect x="1802.4" y="398.2" class="st7" width="300.9" height="194.3"/>
<polygon class="st3" points="1952.9,470.3 2103.3,592.4 1802.4,592.4 "/>
<polygon class="st8" points="1952.9,520.3 1802.4,398.2 2103.3,398.2 "/>
<rect x="1699.9" y="520.8" class="st9" width="300.9" height="194.3"/>
<polygon class="st10" points="1850.4,592.9 2000.8,715 1699.9,715 "/>
<polygon class="st11" points="1850.4,642.9 1699.9,520.8 2000.8,520.8 "/>
<path class="st12" d="M567,1286.2c-16.9,11.3-28.6,25.4-33.7,32.2c-0.3-0.5-0.6-1-0.9-1.5c-7.9-13.2-17.1-27.9-27.7-43.4
	c7-3.7,23.5-13.4,37.6-29.3c18.6-20.8,26.3-44.3,26.3-44.3s-22.5,10.2-41.2,31c-13.7,15.3-21.5,32.1-24.6,39.9
	c-8.8-12.8-18.6-26.2-29.2-39.8c6-5.6,19.1-19,28.6-37.7c12.7-24.9,14.1-49.6,14.1-49.6s-19.2,15.7-31.9,40.5
	c-8.9,17.4-12.2,34.7-13.5,43.5c-10.7-13.5-22.3-27.2-34.7-40.7c5-6.4,16-21.7,22.6-41.7c8.8-26.5,6.4-51.2,6.4-51.2
	s-16.5,18.4-25.3,44.9c-6,18.3-6.8,35.7-6.7,44.7c-8.5-9.1-17.3-18.1-26.5-26.8c2.3-7.9,6.6-26.2,5.1-47
	c-1.9-27.9-13.4-49.8-13.4-49.8s-8.4,23.3-6.4,51.2c1.2,16.9,5.9,31.7,9.4,40.6c-6.5-6.1-13.3-12.1-20.2-17.9
	c-5-8.2-14-20.8-26.8-32c-21.1-18.3-44.7-25.7-44.7-25.7s10.6,22.4,31.6,40.7c12.7,11,26.3,18.1,35.1,22c7.1,6,14.1,12.2,20.9,18.5
	c-9-0.8-26.3-1.5-44.9,3c-27.1,6.6-46.8,21.6-46.8,21.6s24.4,4.3,51.5-2.2c20.6-5,36.9-14.8,43.6-19.3c9.3,8.8,18.2,17.8,26.7,26.9
	c-8.2,1.5-26.2,5.8-44,16.2c-24.1,14.1-38.6,34.2-38.6,34.2s24.6-2.9,48.7-17c18.3-10.7,31.1-24.9,36.1-31.1
	c12.8,13.8,24.7,27.9,35.7,41.7c-8.5,0.8-26.6,3.6-45,12.3c-25.2,11.9-41.5,30.6-41.5,30.6s24.7-0.7,50-12.6
	c19-9,32.9-21.8,38.6-27.6c10.8,13.7,20.6,27.2,29.5,40.2c-8.6,0.6-26.6,2.7-45.2,10.6c-25.7,11-42.5,29.1-42.5,29.1
	s24.7,0.2,50.4-10.8c19.1-8.2,33.3-20.3,39.3-26c10.5,15.3,19.6,29.8,27.4,42.8c0.4,0.7,0.8,1.3,1.2,1.9
	c-5.5,0.8-26.6,4.7-47.2,16.8c-24.1,14.1-38.6,34.2-38.6,34.2s24.6-2.9,48.7-17c20.7-12.1,34.3-28.6,37.7-33
	c31.7,53.5,47.7,93.7,47.8,94.1l6.4-2.5c-0.2-0.4-16-40.1-47.2-93.2c8.2-2,25.8-7.3,42.9-18.7c23.2-15.5,36.6-36.3,36.6-36.3
	S590.2,1270.8,567,1286.2L567,1286.2z"/>
<path class="st12" d="M805.8,1261.6c-25.7,6.6-46.2,18.9-55.4,25.1c-0.2-0.8-0.3-1.5-0.5-2.3c-4-19.6-9-41.7-15.3-65.3
	c10.3-1.6,34.7-6.4,58.9-19.7c31.9-17.5,51.5-43.1,51.5-43.1s-32.1,2.8-64,20.4c-23.5,12.9-40.3,30.1-47.5,38.3
	c-5.3-19.6-11.5-40.3-18.7-61.6c9.8-4.3,31.8-15.1,51.5-33.9c26.4-25.1,38.8-54.9,38.8-54.9s-30.3,10.9-56.7,36.1
	c-18.4,17.5-30,37.3-35.4,47.7c-7.3-21.2-15.6-43.1-25.1-65.1c9-5.7,29.1-19.8,45.8-41.4c22.2-28.8,30-60.1,30-60.1
	s-28.3,15.5-50.5,44.3c-15.3,19.9-23.8,40.9-27.5,52.1c-6.5-14.8-13.4-29.7-21-44.5c6.2-8.7,19.4-29.3,26.7-55.6c9.7-35.1,5-67,5-67
	s-20.4,25-30,60.1c-5.9,21.3-6.5,41.5-6,54c-5.4-10.3-11.1-20.6-17-30.8c-2.6-12.2-8.1-31.7-19.1-51c-18-31.7-43.9-50.9-43.9-50.9
	s3.3,32.1,21.3,63.7c10.8,19.1,24.5,33.6,33.7,42.2c6.2,10.5,12,21.2,17.6,31.8c-10.8-4.9-31.7-13.2-56.6-15.7
	c-36.2-3.7-66.9,6.3-66.9,6.3s28.1,15.9,64.3,19.5c27.5,2.8,51.8-2.3,61.9-4.9c7.6,14.8,14.7,29.8,21.2,44.6
	c-10.8-1.7-34.8-4.2-61.1,0.9c-35.7,6.9-62.2,25.3-62.2,25.3s31.5,7.1,67.2,0.2c27.2-5.3,49-17.2,57.9-22.6
	c9.8,22.6,18.3,45,25.8,66.8c-10.8-2.6-34.2-7.1-60.7-4.4c-36.2,3.8-64.2,19.7-64.2,19.7s30.7,9.8,66.9,6.1
	c27.3-2.8,49.9-12.6,59.4-17.2c7.3,21.5,13.6,42.4,18.9,62.2c-10.8-3-33.9-8.2-60.2-6.5c-36.3,2.5-64.9,17.4-64.9,17.4
	s30.3,10.9,66.7,8.5c27-1.8,49.7-10.6,59.6-14.9c6.2,23.3,11.2,45.1,15.1,64.5c0.2,1,0.4,1.9,0.6,2.9c-7.2-1.4-34.7-5.8-65.4,0.2
	c-35.7,6.9-62.2,25.3-62.2,25.3s31.5,7.1,67.2,0.2c30.7-6,54.5-20.4,60.7-24.3c15.8,79.5,18.1,135.8,18.1,136.4l8.9-0.3
	c0-0.6-2.2-56.3-17.7-135.1c10.9,1.1,35,2.2,60.9-4.4c35.3-9,60.7-28.8,60.7-28.8S841.1,1252.6,805.8,1261.6L805.8,1261.6z"/>
<path class="st12" d="M804.3,1379c58,0,107,38.9,122.1,92.1H682.1C697.3,1418,746.2,1379,804.3,1379L804.3,1379z"/>
<path class="st12" d="M947.2,1407.6c40,0,73.8,26.8,84.3,63.5H862.9C873.4,1434.4,907.1,1407.6,947.2,1407.6L947.2,1407.6z"/>
<path class="st12" d="M765.5,1471.1c-16.4-56.8-81.4-99.2-159.1-99.2s-142.7,42.4-159.1,99.2H765.5L765.5,1471.1z"/>
<g>
	<path class="st13" d="M953.7,656.9h369c12,0,21.7,9.7,21.7,21.7v766.5c0,12-9.7,21.7-21.7,21.7h-369c-12,0-21.7-9.7-21.7-21.7
		V678.6C932,666.6,941.7,656.9,953.7,656.9z"/>
	<path class="st14" d="M1327,678.6v766.5c0,2.4-1.9,4.3-4.3,4.3h-369c-2.4,0-4.3-1.9-4.3-4.3V678.6c0-2.4,1.9-4.3,4.3-4.3h369
		C1325.1,674.3,1327,676.2,1327,678.6z"/>
	<rect x="957.4" y="1460.1" class="st13" width="35.2" height="26.8"/>
	<rect x="1282.4" y="1460.1" class="st13" width="35.2" height="26.8"/>
	<rect x="981.8" y="709.9" class="st3" width="312.7" height="106.8"/>
	<rect x="998.1" y="752.7" class="st15" width="227.1" height="21.1"/>
	<circle class="st16" cx="1258.5" cy="763.3" r="16"/>
	<path class="st17" d="M1251.7,763.3c0-3.8,3.1-6.9,6.9-6.9s6.9,3.1,6.9,6.9c0,3.8-3.1,6.9-6.9,6.9S1251.7,767.1,1251.7,763.3z"/>
	<rect x="1179" y="759.6" class="st18" width="37.9" height="7.4"/>
	<rect x="1132.5" y="759.6" class="st18" width="37.9" height="7.4"/>
	<rect x="1086" y="759.6" class="st18" width="37.9" height="7.4"/>
	<rect x="1039.4" y="759.6" class="st18" width="37.9" height="7.4"/>
	<rect x="981.8" y="854.5" class="st3" width="312.7" height="106.8"/>
	<rect x="998.1" y="897.4" class="st15" width="227.1" height="21.1"/>
	<circle class="st16" cx="1258.6" cy="908" r="16"/>
	<path class="st17" d="M1251.7,907.9c0-3.8,3.1-6.9,6.9-6.9s6.9,3.1,6.9,6.9c0,3.8-3.1,6.9-6.9,6.9S1251.7,911.7,1251.7,907.9z"/>
	<rect x="1179" y="904.2" class="st18" width="37.9" height="7.4"/>
	<rect x="1132.5" y="904.2" class="st18" width="37.9" height="7.4"/>
	<rect x="1086" y="904.2" class="st18" width="37.9" height="7.4"/>
	<rect x="1039.4" y="904.2" class="st18" width="37.9" height="7.4"/>
	<rect x="981.8" y="999.2" class="st3" width="312.7" height="106.8"/>
	<rect x="998.1" y="1042.1" class="st15" width="227.1" height="21.1"/>
	<circle class="st16" cx="1258.5" cy="1052.6" r="16"/>
	<circle class="st17" cx="1258.5" cy="1052.6" r="6.9"/>
	<rect x="1179" y="1048.9" class="st18" width="37.9" height="7.4"/>
	<rect x="1132.5" y="1048.9" class="st18" width="37.9" height="7.4"/>
	<rect x="1086" y="1048.9" class="st18" width="37.9" height="7.4"/>
	<rect x="1039.4" y="1048.9" class="st18" width="37.9" height="7.4"/>
	<rect x="981.8" y="1143.8" class="st3" width="312.7" height="106.8"/>
	<rect x="998.1" y="1186.7" class="st15" width="227.1" height="21.1"/>
	<circle class="st16" cx="1258.5" cy="1197.3" r="16"/>
	<path class="st17" d="M1251.7,1197.2c0-3.8,3.1-6.9,6.9-6.9s6.9,3.1,6.9,6.9s-3.1,6.9-6.9,6.9S1251.7,1201,1251.7,1197.2z"/>
	<rect x="1179" y="1193.5" class="st18" width="37.9" height="7.4"/>
	<rect x="1132.5" y="1193.5" class="st18" width="37.9" height="7.4"/>
	<rect x="1086" y="1193.5" class="st18" width="37.9" height="7.4"/>
	<rect x="1039.4" y="1193.5" class="st18" width="37.9" height="7.4"/>
</g>
<path class="st6" d="M710.9,1447c-27.5,0-50.7,18.4-57.8,43.6h115.7C761.6,1465.4,738.4,1447,710.9,1447L710.9,1447z"/>
<path class="st6" d="M725.8,1490.6c7.8-26.9,38.6-47,75.4-47s67.6,20.1,75.4,47H725.8z"/>
<path class="st19" d="M1130.8,1467.9c3.4-0.6,6.6,1.8,7.2,5.1c0.2,1.5-0.1,3-0.8,4.2c4.4,5.9,8.4,12,11.9,18.2
	c0-5.9,0.5-14.6,2.6-23c-1.4-0.9-2.5-2.4-2.8-4.2c-0.6-3.4,1.8-6.6,5.1-7.2c3.4-0.6,6.6,1.8,7.2,5.1c0.6,3.4-1.8,6.6-5.1,7.2
	c-0.4,0.1-0.8,0.1-1.2,0.1c-3.1,12.5-2.4,26.3-2.2,28.4c7.4,13.9,12.7,27.7,16.3,38.4c6.5,19.4,9,33.9,9,34l-3.3,0.6
	c0-0.1-2.5-14.4-8.9-33.5c-1.9-5.8-4.3-12.4-7.3-19.4c-2.2-0.9-10.7-4.1-22.8-4.5c-0.5,2.5-2.5,4.5-5.1,4.9
	c-3.4,0.6-6.6-1.8-7.2-5.1c-0.6-3.4,1.8-6.6,5.1-7.2c3-0.5,5.8,1.2,6.8,4c9.6,0.2,17,2.1,21.2,3.6c-5.5-12.4-12.7-25.9-21.9-38.2
	c-0.6,0.3-1.2,0.5-1.9,0.6c-3.4,0.6-6.6-1.8-7.2-5.1C1125.1,1471.6,1127.4,1468.4,1130.8,1467.9L1130.8,1467.9z"/>
<path class="st19" d="M1197.8,1524.6c-1.8-1.7-8.6-7.7-19.8-12.2c-1.3,2.2-3.9,3.4-6.5,2.8c-3.4-0.7-5.6-4-4.9-7.3
	c0.7-3.4,4-5.6,7.3-4.9c3,0.6,5,3.2,5,6.1c8.9,3.6,15.2,8,18.6,10.8c-0.8-13.6-2.8-28.7-7.1-43.4c-0.6,0.1-1.3,0.1-2-0.1
	c-3.4-0.7-5.6-4-4.9-7.3c0.7-3.4,4-5.6,7.3-4.9c3.4,0.7,5.6,4,4.9,7.3c-0.3,1.5-1.1,2.8-2.2,3.7c2.1,7,3.6,14.2,4.8,21.2
	c2.1-5.5,5.6-13.5,10.5-20.6c-1-1.4-1.5-3.1-1.1-4.9c0.7-3.4,4-5.6,7.3-4.9c3.4,0.7,5.6,4,4.9,7.3s-4,5.6-7.3,4.9
	c-0.4-0.1-0.8-0.2-1.1-0.3c-7.3,10.6-11.5,23.8-12.1,25.8c2,15.7,2.2,30.3,1.7,41.7c-0.8,20.4-3.5,34.9-3.6,35l-3.3-0.6
	c0-0.1,2.7-14.3,3.5-34.5C1198.1,1539.2,1198.2,1532.2,1197.8,1524.6L1197.8,1524.6z"/>
<path class="st19" d="M1269.9,1560.3c17.3,0,31.9,11.6,36.5,27.5h-73C1237.9,1571.9,1252.6,1560.3,1269.9,1560.3L1269.9,1560.3z"/>
<path class="st19" d="M1092,1547.3c25.5,0,47.1,17.1,53.8,40.5h-107.5C1045,1564.4,1066.5,1547.3,1092,1547.3z"/>
<path class="st19" d="M1258.8,1587.8c-8.2-28.5-40.9-49.8-79.9-49.8s-71.7,21.3-79.9,49.8H1258.8z"/>
<polyline class="st20" points="2286.8,992.9 866.4,992.9 822.4,1036.8 "/>
<polyline class="st20" points="747.2,906.5 786.8,946.1 2374.5,946.1 2427.4,893.2 2669.9,893.2 "/>
<polyline class="st20" points="876.5,891.1 2329.6,891.1 2394.6,826.2 "/>
<circle class="st20" cx="2690.9" cy="893.2" r="24.9"/>
<circle class="st20" cx="2310.1" cy="992.9" r="24.9"/>
<circle class="st20" cx="803.8" cy="1053.2" r="24.9"/>
<ellipse transform="matrix(0.9239 -0.3827 0.3827 0.9239 -285.3091 347.8815)" class="st20" cx="731.8" cy="891.1" rx="24.9" ry="24.9"/>
<ellipse transform="matrix(0.9239 -0.3827 0.3827 0.9239 -276.1832 393.741)" class="st20" cx="851.6" cy="891.1" rx="24.9" ry="24.9"/>
<circle class="st20" cx="2408.4" cy="810.4" r="24.9"/>
<path class="st13" d="M1393.9,650.6h369c12,0,21.7,9.7,21.7,21.7v766.5c0,12-9.7,21.7-21.7,21.7h-369c-12,0-21.7-9.7-21.7-21.7
	V672.3C1372.1,660.3,1381.9,650.6,1393.9,650.6z"/>
<path class="st14" d="M1767.2,672.3v766.5c0,2.4-1.9,4.3-4.3,4.3h-369c-2.4,0-4.3-1.9-4.3-4.3V672.3c0-2.4,1.9-4.3,4.3-4.3h369
	C1765.3,668,1767.2,669.9,1767.2,672.3z"/>
<rect x="1397.6" y="1453.8" class="st13" width="35.2" height="26.8"/>
<rect x="1722.6" y="1453.8" class="st13" width="35.2" height="26.8"/>
<rect x="1422" y="703.6" class="st3" width="312.7" height="106.8"/>
<rect x="1438.2" y="746.5" class="st15" width="227.1" height="21.1"/>
<circle class="st16" cx="1698.7" cy="757" r="16"/>
<path class="st17" d="M1691.8,757c0-3.8,3.1-6.9,6.9-6.9s6.9,3.1,6.9,6.9s-3.1,6.9-6.9,6.9S1691.8,760.8,1691.8,757z"/>
<rect x="1619.1" y="753.3" class="st18" width="37.9" height="7.4"/>
<rect x="1572.6" y="753.3" class="st18" width="37.9" height="7.4"/>
<rect x="1526.1" y="753.3" class="st18" width="37.9" height="7.4"/>
<rect x="1479.6" y="753.3" class="st18" width="37.9" height="7.4"/>
<rect x="1422" y="848.2" class="st3" width="312.7" height="106.8"/>
<rect x="1438.2" y="891.1" class="st15" width="227.1" height="21.1"/>
<circle class="st16" cx="1698.8" cy="901.7" r="16"/>
<path class="st17" d="M1691.8,901.6c0-3.8,3.1-6.9,6.9-6.9s6.9,3.1,6.9,6.9s-3.1,6.9-6.9,6.9S1691.8,905.4,1691.8,901.6z"/>
<rect x="1619.1" y="897.9" class="st18" width="37.9" height="7.4"/>
<rect x="1572.6" y="897.9" class="st18" width="37.9" height="7.4"/>
<rect x="1526.1" y="897.9" class="st18" width="37.9" height="7.4"/>
<rect x="1479.6" y="897.9" class="st18" width="37.9" height="7.4"/>
<rect x="1422" y="992.9" class="st3" width="312.7" height="106.8"/>
<rect x="1438.2" y="1035.8" class="st15" width="227.1" height="21.1"/>
<circle class="st16" cx="1698.7" cy="1046.3" r="16"/>
<circle class="st17" cx="1698.7" cy="1046.3" r="6.9"/>
<rect x="1619.1" y="1042.6" class="st18" width="37.9" height="7.4"/>
<rect x="1572.6" y="1042.6" class="st18" width="37.9" height="7.4"/>
<rect x="1526.1" y="1042.6" class="st18" width="37.9" height="7.4"/>
<rect x="1479.6" y="1042.6" class="st18" width="37.9" height="7.4"/>
<rect x="1422" y="1137.6" class="st3" width="312.7" height="106.8"/>
<rect x="1438.2" y="1180.4" class="st15" width="227.1" height="21.1"/>
<circle class="st16" cx="1698.7" cy="1191" r="16"/>
<path class="st17" d="M1691.8,1190.9c0-3.8,3.1-6.9,6.9-6.9s6.9,3.1,6.9,6.9s-3.1,6.9-6.9,6.9S1691.8,1194.7,1691.8,1190.9z"/>
<rect x="1619.1" y="1187.2" class="st18" width="37.9" height="7.4"/>
<rect x="1572.6" y="1187.2" class="st18" width="37.9" height="7.4"/>
<rect x="1526.1" y="1187.2" class="st18" width="37.9" height="7.4"/>
<rect x="1479.6" y="1187.2" class="st18" width="37.9" height="7.4"/>
<circle class="st21" cx="996.4" cy="706.5" r="115.5"/>
<circle class="st21" cx="1489" cy="683" r="139"/>
<ellipse transform="matrix(0.7071 -0.7071 0.7071 0.7071 -90.5799 964.3862)" class="st21" cx="1118.8" cy="591.5" rx="115.4" ry="115.5"/>
<circle class="st21" cx="1319.6" cy="533.6" r="161.4"/>
<rect x="996.4" y="591.1" class="st21" width="492.6" height="230.9"/>
<path class="st22" d="M1980.1,651.3L1980.1,651.3c62.7-0.5,113.9,50,114.3,112.7l0.8,113.5"/>
<path class="st23" d="M2102.7,1043.5l-239.4,1.8c-17.5,0.1-31.7-13.9-31.8-31.4l-1.4-199c-0.1-6.8,5.4-12.4,12.3-12.4l278-2
	c6.8,0,12.4,5.4,12.4,12.3l1.4,199C2134.2,1029.1,2120.2,1043.3,2102.7,1043.5z"/>
<path class="st24" d="M2132.6,812.6l1.4,199c0.1,17.5-13.9,31.7-31.4,31.8l-239.4,1.8c-15.1,0.1-27.8-10.4-31.1-24.6
	c97.5,33.6,218.7-40.6,275.5-171.2c7-16,12.7-32.2,17.1-48.2C2129.4,803,2132.6,807.4,2132.6,812.6L2132.6,812.6z"/>
<path class="st22" d="M1868.2,879.1l-0.8-113.5c-0.5-62.7,50-113.9,112.7-114.3"/>
<circle class="st15" cx="1981.9" cy="892" r="18"/>
<path class="st15" d="M1993.5,976l-22,0.2c-3.5,0-6.2-3-5.8-6.5l7.5-65.7c0.3-2.9,2.8-5.1,5.7-5.2l6,0c2.9,0,5.4,2.2,5.8,5.1
	l8.5,65.5C1999.7,972.9,1997,975.9,1993.5,976L1993.5,976z"/>
<rect x="1165" y="617.9" class="st25" width="42.9" height="299.7"/>
<polygon class="st25" points="1186.5,560.2 1139.1,635.2 1233.9,635.2 "/>
<rect x="1269.6" y="493.4" class="st26" width="42.9" height="299.7"/>
<polygon class="st26" points="1291.1,850.8 1338.5,775.8 1243.6,775.8 "/>
<path class="st27" d="M1623,436.7c2.1-6.1,1.8-10.4-1.9-14.2c-4.1-4.2-10.9-4.1-14.9,0.2l-112.5,119.1c-1.8,1.9-1.7,4.8,0.1,6.7
	c1.8,1.8,4.8,1.9,6.7,0.2l5.2-4.8C1591.8,471.5,1614.3,457.4,1623,436.7L1623,436.7z"/>
<path class="st28" d="M1731.3,528.8c18.7,5.8,26.6-1.5,29.8-7.8c0.3-0.4,0.6-0.8,0.9-1.2c3.2-4.9,1.7-11.5-3.3-14.6l-140-85
	c-2.2-1.3-5.1-0.7-6.5,1.5c-0.5,0.7-0.7,1.5-0.8,2.3c-1.5,5.9,0.3,12.2,4.9,16.4C1640.2,462.1,1706.9,521.3,1731.3,528.8
	L1731.3,528.8z"/>
<path class="st29" d="M1499.2,545.5c-3.2-1.4-5.9-3.1-7.2-4.5c-12-3.2-37.2-7.8-38.9-1.8c-0.6,2.2,44.8,20,48.1,21
	c2.3,0.7,4.2-6.2,5.1-10.3c0.3-1.2-0.5-2.3-1.7-2.5C1502.9,546.9,1501.1,546.3,1499.2,545.5L1499.2,545.5z"/>
<path class="st30" d="M1740,536.2c0,0-64.3-26.4-120.9-86.6c0,0-13,26.1-101.6,89.4l-14.1-11.8c0,0,97.8-107.7,107.5-111.3
	c9.7-3.5,115.6,65.7,115.6,65.7l33.9-1.4l0.6,32.4L1740,536.2L1740,536.2z"/>
<path class="st27" d="M1717.2,634.3c-2.6-5.9-5.7-8.9-11-9.2c-5.9-0.3-10.8,4.3-10.9,10.2l-2.8,163.8c0,2.6,2,4.7,4.6,4.9
	c2.6,0.1,4.8-1.8,5-4.4l0.6-7C1717.6,681.2,1724.7,655.5,1717.2,634.3L1717.2,634.3z"/>
<path class="st21" d="M1783.9,503c2.6-19.4-6-25.9-12.7-28.1c-0.4-0.3-0.8-0.5-1.3-0.7c-5.4-2.4-11.6,0.2-13.8,5.7l-60.3,152.3
	c-0.9,2.4,0.2,5.1,2.5,6.2c0.8,0.3,1.6,0.5,2.4,0.4c6.1,0.5,12-2.4,15.3-7.6C1733.4,604,1780.5,528.3,1783.9,503L1783.9,503z"/>
<path class="st29" d="M1696.4,795.5c-3.2,1.3-6.3,2.1-8.3,2c-10.7,6.3-31.6,21.2-28.5,26.6c1.1,2,45.6-18.2,48.6-19.8
	c2.1-1.2-1.5-7.3-3.8-10.8c-0.7-1-2-1.2-3-0.6C1700.1,793.8,1698.3,794.7,1696.4,795.5z"/>
<path class="st30" d="M1705.5,771.7l-13.9-1.6c0,0-0.7-131.2,1.7-136.8c2.5-5.6,64.1-169.7,64.1-169.7l10.3,4.5
	c16.1,7,23.7,25.4,17.4,41.8c-10.9,28.4-31.6,73.8-65.9,121.9C1719.1,631.7,1733,644.4,1705.5,771.7L1705.5,771.7z"/>
<path class="st21" d="M1795.7,467.9c0.8-3.7,1.5-7.4,2.1-11c0.4-2.4,0.8-4.7,1.2-7c0.8-5.2,1.5-10.3,2-15.4c0.2-2.4,0.4-4.8,0.6-7.1
	c0.5-5.8,0.8-11.5,0.9-17c0.1-2.4,0.1-4.8,0.1-7.1c-0.1-15.4-1.4-29.9-3.6-43.8c-1.3-8.1-3-15.3-4.9-21.5
	c-5.7-18.6-29-24.6-43.1-11.2l-3,2.9c-7.8,7.4-10.8,18.4-8,28.8c3,11.4,3.7,28.1-0.7,53.8c-0.3,1.6-0.6,3.2-0.9,4.9
	c-0.4,2.4-0.9,4.8-1.4,7.2c-0.8,3.5-1.6,7.2-2.5,11c-0.6,2.3-1.1,4.6-1.8,7c-1.1,4.2-2.3,8.6-3.6,13.2c-0.4,1.3-0.7,2.6-1.1,3.9
	c-0.3,1-0.6,2-0.9,3.1c-0.7,2.5-1.5,5-2.3,7.6c-0.7,2.2-1.4,4.5-2.2,6.9c-1,3.1-2.1,6.4-3.1,9.7c6.7,2.7,14.5,3.4,21.8,3
	c12.2-0.7,24.7-3.5,36.6-0.8c4,0.9,7.8,2.4,11.7,3.9c1.7-6.2,3.3-12.2,4.7-18.1C1794.7,472.5,1795.2,470.2,1795.7,467.9
	L1795.7,467.9z"/>
<path class="st21" d="M1775.6,348.9c-5.2-12.6,6.1-15.7,6.3-15.9c3.2-2.5,10.8,0,13.6,4.2L1853,433c1.1,1.5-1.3,3.3-2.7,4.4
	c-0.5,0.4-1,0.6-1.6,0.7c-4,1.4-9.3-0.3-12.5-3.2C1819.6,419.6,1782.5,365.4,1775.6,348.9z"/>
<path class="st27" d="M1888.1,516c1.6,3.6,4.7,6.2,8.6,7.2c9.8,2.4,28.4,6.2,33.4,2.6c6.9-5-23.1-17.2-42.9-11.8L1888.1,516
	L1888.1,516z"/>
<path class="st21" d="M1888.6,518.8c-16-17-45.2-59-50.6-72.7c-4.5-11.4,2.5-14,2.7-14.2c3-2.3,9.9-0.9,12.4,2.8l44.7,77.7
	L1888.6,518.8L1888.6,518.8z"/>
<path class="st21" d="M1764.5,346.2c9-10.3-0.7-16.8-0.9-17.1c-2.2-3.4-10.2-3.4-14.2-0.4l-84.9,72.6c-1.5,1-1.5,8.4-0.5,9.9
	c0.3,0.5,0.8,0.9,1.3,1.1c3.3,2.6,10.8-1.7,14.6-3.9C1698.2,397.9,1752.8,359.6,1764.5,346.2L1764.5,346.2z"/>
<path class="st27" d="M1674.9,321.1c-3.8-1.1-6.8-4-8.2-7.6c-3.5-9.4-9.6-27.5-6.6-32.9c4.1-7.5,19.9,20.9,16.9,41.2L1674.9,321.1
	L1674.9,321.1z"/>
<path class="st21" d="M1667.5,314.3c-5.9,22.6-11.2,73.4-9.4,88.1c1.5,12.2,8.9,11.1,9.2,11.1c3.7,0.6,9.1-4,9.5-8.4l1.8-89.6
	L1667.5,314.3L1667.5,314.3z"/>
<path class="st6" d="M1768.4,340.5c-5.2,34,9,63.5,0,98.5c-4.4,3.7-9,7.2-13.6,10.7c-2.9-5.3-5.7-10.5-8.1-16.1
	c13.7-33.3,6.1-61.7,15.2-93.8C1764,339.9,1766.2,340.2,1768.4,340.5L1768.4,340.5z"/>
<path class="st31" d="M1737.3,270.4c0.6-1.6,2.3-2.8,3.1-4.3c0.9-1.5,1-3.6,2-4.9c1.1-1.4,3-1.9,4.3-3.1c1.3-1.2,2-3.1,3.4-4
	c1.4-1,3.5-0.9,5.1-1.6c1.6-0.7,2.8-2.3,4.5-2.8c1.7-0.5,3.6,0.2,5.3,0c1.7-0.2,3.4-1.3,5.2-1.2c1.7,0.1,3.3,1.3,5,1.7
	c1.7,0.3,3.6-0.2,5.3,0.4c1.7,0.6,2.8,2.3,4.3,3.1c1.5,0.9,3.6,1,4.9,2c1.4,1.1,1.9,3,3.1,4.3c1.2,1.3,3.1,2,4,3.5
	c1,1.5,0.9,3.5,1.6,5.1s2.3,2.9,2.8,4.5c0.5,1.7-0.2,3.6,0,5.3c0.2,1.7,1.3,3.4,1.2,5.2c-0.1,1.7-1.3,3.3-1.7,5
	c-0.3,1.7,0.2,3.6-0.4,5.3s-2.3,2.8-3.1,4.3c-0.9,1.5-1,3.6-2,4.9c-1.1,1.4-3,1.9-4.3,3.1c-1.3,1.2-2,3.1-3.4,4
	c-1.4,1-3.5,0.9-5.1,1.6c-1.6,0.7-2.8,2.3-4.5,2.8c-1.7,0.5-3.6-0.2-5.3,0c-1.7,0.2-3.4,1.3-5.2,1.2c-1.7-0.1-3.3-1.3-5-1.7
	c-1.7-0.3-3.6,0.2-5.3-0.4c-1.7-0.6-2.8-2.3-4.3-3.1c-1.5-0.9-3.6-1-4.9-2c-1.4-1.1-1.9-3-3.1-4.3c-1.2-1.3-3.1-2-4-3.5
	c-1-1.5-0.9-3.5-1.6-5.1s-2.3-2.9-2.8-4.5c-0.5-1.7,0.2-3.6,0-5.3c-0.2-1.7-1.3-3.4-1.2-5.2c0.1-1.7,1.3-3.3,1.7-5
	C1737.3,274,1736.7,272,1737.3,270.4L1737.3,270.4z"/>
<path class="st31" d="M1732.8,305.9c0,0-0.4-7.7,4.7-12.9c5.1-5.1,5.1,2.6,5.1,2.6L1732.8,305.9L1732.8,305.9z"/>
<path class="st31" d="M1780.6,304.4c-0.6,0.5-9.4,11.5-11.6,11.1c-3-0.6,1-10,1-10L1780.6,304.4L1780.6,304.4z"/>
<path class="st31" d="M1747,275.8c0,0-1-7.2,2.9-11c3.7-3.5,9.2-6.7,24.6,1.8c2.2,1.2,3.2,3.8,2.4,6.2l-2.2,6.8L1747,275.8z"/>
<path class="st27" d="M1774.1,298.1c-4.6,9.3-9.2,16.7-16.7,18.8c-2.6,0.8-5.8,1.1-9.1,0.5c-2.1-0.4-4.3-1.1-6.5-2.4
	c-5.7-3.3-7.7-7.5-7.5-12.6c0.3-5.8,3.5-12.7,7.4-20.5c7.3-14.6,18.2-18.4,27.1-14S1781.4,283.6,1774.1,298.1L1774.1,298.1z"/>
<path class="st27" d="M1776.8,296.9l-17.1-1.2c-0.2,2.3-1.3,24.6-0.2,33c0.7,2.6,5,3.6,9.6,2.4c4.1-1.1,7.1-3.7,7.1-6.1h0
	C1775.5,319.9,1776.2,305,1776.8,296.9L1776.8,296.9z"/>
<path class="st31" d="M1779.8,305.3c0,0-4.5-0.2-6.7-4.9c-2.9-6.2-3.6-17.7-3.1-22.7c0.9-8.8,4-10.1,4-10.1s15.2,6.5,16.8,12.8
	C1793.2,289.8,1779.8,305.3,1779.8,305.3z"/>
<path class="st31" d="M1772.4,288.5l-10.6,21.3c-1.1,2.2-3.5,3.6-6,3.5l-2.9-0.2c-1.8-0.1-3-1.8-2.6-3.5l1.2-4.7
	c0.3-1-0.2-2.2-1.1-2.7l-9.3-5.5c-1-0.6-2.3-0.4-3,0.4l-3.3,3.5c-3.2,3.5-2.6,9,1.3,11.7l5.4,3.7c1.2,0.8,2.5,1.3,3.9,1.5
	c0.1,0,0.2,0,0.3,0h0.2l2.2,0.1l0,0l7.3,0.4c4.4,0.3,8.6-2.1,10.6-6.1l10.6-21.3L1772.4,288.5L1772.4,288.5z"/>
<path class="st27" d="M1780.4,301.8c-1.6,3.2-6.7,5.7-9,4.5s-1.6-4,0-7.1c1.6-3.2,4.9-5.2,7.2-4.1S1782,298.6,1780.4,301.8
	L1780.4,301.8z"/>
<path class="st31" d="M1772.7,274.9l-9.4-4.6c-3.2-1.5-6.8-1.9-10.2-1l-4.6,1.2l8.7-6.7l9,0.9l9.3,5.4L1772.7,274.9L1772.7,274.9z"
	/>
<rect x="1540.8" y="279.3" transform="matrix(0.5714 -0.8207 0.8207 0.5714 469.0932 1474.9015)" class="st29" width="211.8" height="18"/>
<rect x="1550.1" y="302.1" transform="matrix(0.5714 -0.8207 0.8207 0.5714 437.5015 1470.8618)" class="st32" width="153.7" height="28.8"/>
<path class="st29" d="M1833.2,20.4c-51.4-35.8-122.1-23.1-157.9,28.3c-35.8,51.4-23.2,122.1,28.3,157.9
	c51.4,35.8,122.1,23.1,157.9-28.3C1897.3,126.9,1884.7,56.2,1833.2,20.4L1833.2,20.4z M1709.4,198.2
	c-46.8-32.6-58.3-96.9-25.7-143.7c32.6-46.8,96.9-58.3,143.7-25.7c46.8,32.6,58.3,96.9,25.7,143.7
	C1820.5,219.2,1756.2,230.8,1709.4,198.2z"/>
<ellipse transform="matrix(0.7071 -0.7071 0.7071 0.7071 437.7253 1283.6896)" class="st33" cx="1768.4" cy="113.5" rx="103.2" ry="103.2"/>
<polygon class="st31" points="2133.1,1474.8 2211.8,1474.8 2145.9,1180.9 2067.2,1180.9 "/>
<rect x="1970.5" y="1460.1" class="st31" width="303.8" height="20.4"/>
<polygon class="st34" points="1819,1071.8 1819,1296.1 1819,1370.4 2330.3,1370.4 2330.3,1097.7 2330.3,1071.8 "/>
<rect x="1842.5" y="1116.7" class="st35" width="386.4" height="3.5"/>
<rect x="1842.5" y="1128.9" class="st36" width="298.5" height="3.5"/>
<rect x="1842.5" y="1141" class="st26" width="298.5" height="3.5"/>
<rect x="1842.5" y="1213.1" class="st35" width="467.8" height="3.5"/>
<rect x="1842.5" y="1225.2" class="st35" width="467.8" height="3.5"/>
<rect x="1842.5" y="1237.4" class="st36" width="467.8" height="3.5"/>
<rect x="1842.5" y="1249.2" class="st36" width="261.2" height="3.5"/>
<rect x="1842.5" y="1261.3" class="st26" width="261.2" height="3.5"/>
<rect x="1842.5" y="1273.5" class="st26" width="386.4" height="3.5"/>
<rect x="1842.5" y="1161.5" class="st26" width="184.4" height="16"/>
<rect x="1842.5" y="1290.9" class="st36" width="184.4" height="10.8"/>
<rect x="1842.5" y="1322.5" class="st35" width="283.5" height="23"/>
<path class="st37" d="M1768.4,45.4c-37,0-67,30-67,67s30,67,67,67s67-30,67-67S1805.5,45.4,1768.4,45.4z M1768.4,148
	c-19.6,0-35.5-15.9-35.5-35.5s15.9-35.5,35.5-35.5s35.5,15.9,35.5,35.5S1788.1,148,1768.4,148z"/>
<path class="st37" d="M1781.9,58.1h-27l2.6-22.5c3.6-0.5,7.2-0.8,10.9-0.8s7.4,0.3,10.9,0.8L1781.9,58.1L1781.9,58.1z"/>
<path class="st37" d="M1753,58.7l-23.4,13.5l-9-20.8c2.8-2.2,5.8-4.3,9.1-6.2c3.2-1.9,6.5-3.4,9.9-4.8L1753,58.7L1753,58.7z"/>
<path class="st37" d="M1728.1,73.6L1714.6,97l-18.2-13.5c1.3-3.3,2.9-6.7,4.8-9.9c1.9-3.2,3.9-6.2,6.2-9.1L1728.1,73.6L1728.1,73.6z
	"/>
<path class="st37" d="M1714.1,99v27l-22.5-2.6c-0.5-3.6-0.8-7.2-0.8-10.9s0.3-7.4,0.8-10.9L1714.1,99L1714.1,99z"/>
<path class="st37" d="M1714.6,127.9l13.5,23.4l-20.8,9c-2.2-2.8-4.3-5.8-6.2-9.1c-1.9-3.2-3.4-6.5-4.8-9.9L1714.6,127.9
	L1714.6,127.9z"/>
<path class="st37" d="M1729.6,152.8l23.4,13.5l-13.5,18.2c-3.3-1.3-6.7-2.9-9.9-4.8c-3.2-1.9-6.2-3.9-9.1-6.2L1729.6,152.8
	L1729.6,152.8z"/>
<path class="st37" d="M1754.9,166.8h27l-2.6,22.5c-3.6,0.5-7.2,0.8-10.9,0.8s-7.4-0.3-10.9-0.8L1754.9,166.8L1754.9,166.8z"/>
<path class="st37" d="M1783.9,166.3l23.4-13.5l9,20.8c-2.8,2.2-5.8,4.3-9.1,6.2c-3.2,1.9-6.5,3.4-9.9,4.8L1783.9,166.3L1783.9,166.3
	z"/>
<path class="st37" d="M1808.7,151.3l13.5-23.4l18.2,13.5c-1.3,3.4-2.9,6.6-4.8,9.9c-1.9,3.2-3.9,6.2-6.2,9.1L1808.7,151.3
	L1808.7,151.3z"/>
<path class="st37" d="M1822.8,126V99l22.5,2.6c0.5,3.6,0.8,7.2,0.8,10.9s-0.3,7.4-0.8,10.9L1822.8,126L1822.8,126z"/>
<path class="st37" d="M1822.2,97l-13.5-23.4l20.8-9c2.2,2.8,4.3,5.8,6.2,9.1c1.9,3.2,3.4,6.5,4.8,9.9L1822.2,97L1822.2,97z"/>
<path class="st37" d="M1807.3,72.2l-23.4-13.5l13.5-18.2c3.3,1.3,6.7,2.9,9.9,4.8c3.2,1.9,6.2,3.9,9.1,6.2L1807.3,72.2L1807.3,72.2z
	"/>
<path class="st7" d="M1355.8,381.8c0-33.7,27.3-61,61-61s61,27.3,61,61s-61,109.5-61,109.5S1355.8,415.5,1355.8,381.8z"/>
<circle class="st19" cx="1416.8" cy="381.8" r="18.3"/>
<path class="st38" d="M1335,1491.7c0,0-3.2,10.8-1.3,11.5s46.5,2.6,49.7,0.6s-6.4-5.1-6.4-5.1s-21-5.7-33.1-7
	C1343.9,1491.7,1335,1491.1,1335,1491.7L1335,1491.7z"/>
<path class="st38" d="M1328.8,1344.6c2.6-5.1,5.4-7.6,10.2-7.6c5.2,0,9.4,4.3,9.2,9.6l-5,145.5c-0.1,2.3-2,4.1-4.3,4.1
	s-4.2-1.8-4.3-4.1l-0.2-6.3C1326.4,1386.1,1321.2,1363.1,1328.8,1344.6L1328.8,1344.6z"/>
<path class="st38" d="M1313.1,1205.8c3.6-17,12.7-19.9,19-19.7c0.4-0.1,0.8-0.2,1.3-0.2c5.2-0.4,9.7,3.7,9.9,8.9l5,145.5
	c0.1,2.3-1.7,4.2-4,4.4c-0.8,0.1-1.5-0.1-2.1-0.4c-5.2-1.4-9.3-5.6-10.5-10.9C1325.3,1305.5,1308.4,1228,1313.1,1205.8
	L1313.1,1205.8z"/>
<path class="st39" d="M1361.6,1493.8c-4.6,2-12.3,3.3-21,3.3c-2.8,0-5.4-0.1-7.9-0.4c-0.6,3.9-0.8,8.5,1.1,8.7
	c3.4,0.4,51.8,1.9,52.1-0.4C1386.4,1500.6,1373.4,1496.4,1361.6,1493.8L1361.6,1493.8z"/>
<path class="st38" d="M1263.7,1491.7c0,0-3.2,10.8-1.3,11.5s46.5,2.6,49.7,0.6s-6.4-5.1-6.4-5.1s-21-5.7-33.1-7
	C1272.6,1491.7,1263.7,1491.1,1263.7,1491.7L1263.7,1491.7z"/>
<path class="st38" d="M1276.7,1344.4c3.2-4.7,6.3-6.9,11.1-6.3c5.2,0.6,8.8,5.4,8,10.6l-22.8,143.8c-0.4,2.3-2.4,3.8-4.7,3.6
	s-3.9-2.3-3.7-4.6l0.6-6.3C1269.2,1385.3,1266.9,1361.8,1276.7,1344.4L1276.7,1344.4z"/>
<path class="st38" d="M1276.9,1204.7c5.7-16.5,15.1-18.2,21.3-17.2c0.4,0,0.9-0.1,1.3,0c5.2,0.3,9.2,4.8,8.7,10l-12.8,145
	c-0.2,2.3-2.2,4-4.5,3.9c-0.8,0-1.5-0.3-2.1-0.7c-5-2-8.5-6.7-9.1-12.2C1276.7,1305.1,1269.5,1226.1,1276.9,1204.7L1276.9,1204.7z"
	/>
<path class="st39" d="M1290.2,1493.8c-4.6,2-12.3,3.3-21,3.3c-2.8,0-5.4-0.1-7.9-0.4c-0.6,3.9-0.8,8.5,1.1,8.7
	c3.4,0.4,51.8,1.9,52.1-0.4C1315,1500.6,1302,1496.4,1290.2,1493.8L1290.2,1493.8z"/>
<path class="st29" d="M1280.2,1198.8c0,0-14,59.1-13.2,134.4c0,0-6.7,15.7-9.5,31.7c0,0,42.6,16.8,95.5,4.2c0,0-0.7-165.4-16.3-165
	L1280.2,1198.8z"/>
<path class="st31" d="M1315,986.6c-23.3-7.2-61.1,15.4-58.1,42.3c0.3,2.5,0.8,5.1,0.4,7.6c-0.7,3.9-3.8,6.6-6.9,8.8
	c-7,4.8-15.3,8.1-21.1,14.4c-9.4,10-10.4,27.6-1.7,39.4c8,10.9,33.1,20.4,45.6,17.7c12.4-2.7,22.6-11.8,29-22.9c1.6-2.8,3-5.7,5.2-8
	c4.2-4.1,10.4-5.1,15.5-8.1c4.7-2.8,3.5-14,5.2-19.3c2.2-6.9-4.6-13-3.1-20.1c1.7-8.4,12.8-15.1,12.6-23.7
	C1337.3,1003.5,1325.4,989.9,1315,986.6L1315,986.6z"/>
<path class="st40" d="M1275.6,1216.9c-1.7,0.2,0.7-132.2,5-152.4c5.3-25.4,9.6-34.1,33.1-28.4c7.4,1.8,13.5,20.1,16.3,33.6
	s6,14.7,0.2,39.2c-2.1,8.7,13.4,99.5,16.1,104.1c-2.9,2.1-5.8,4.5-8.9,5.3C1315.9,1223.8,1297.7,1213.6,1275.6,1216.9L1275.6,1216.9
	z"/>
<path class="st40" d="M1282.2,1046.8c8.3-8.4,14.7-0.4,15-0.3c3.2,1.7,3.7,8.6,1.4,12.2l-56.7,77.8c-0.8,1.3-3.1,0.1-4.5-0.7
	c-0.5-0.2-0.8-0.6-1.1-1c-2.5-2.7-3-7.5-1.8-11.1C1241,1105.5,1271.5,1057.8,1282.2,1046.8L1282.2,1046.8z"/>
<path class="st31" d="M1302.8,1028.5c0,0-17.2-2.7-21.6-18.6c-5.9-21.4,13.9-36.3,27.2-31.5c12.2,4.5,12.2,14.2,11.4,16.8
	S1302.8,1028.5,1302.8,1028.5z"/>
<path class="st38" d="M1294.6,1007l17.8-1.2c0.2,2.4,1.4,25.6,0.3,34.2c-0.7,2.7-5.2,3.8-9.9,2.5c-4.3-1.2-7.3-3.9-7.4-6.3h0
	C1296,1030.9,1295.2,1015.5,1294.6,1007L1294.6,1007z"/>
<path class="st38" d="M1295.4,1011.3c5.6,13.1,19.3,19.9,27.3,16.5c8-3.4,7.3-15.7,1.8-28.8s-14.9-17-22.9-13.6
	C1293.5,988.7,1289.8,998.2,1295.4,1011.3L1295.4,1011.3z"/>
<path class="st31" d="M1311.3,981.7c0,0,0.5,19.1-15.2,29c-8.1,5.1-13.9-8.2-13.9-8.2l5.9-15c0,0,5.9-7.1,11.4-7.7
	C1299.9,979.8,1311.3,981.7,1311.3,981.7L1311.3,981.7z"/>
<path class="st31" d="M1319.8,980.9c0,0-16.5-2.3-19.9-7.1s4.6-5.8,4.6-5.8S1315.4,969.5,1319.8,980.9L1319.8,980.9z"/>
<path class="st31" d="M1292.9,984.3c0,0,5.8-6.8-0.2-12.3s-13.6-1.3-14.4,4.1c-0.9,6,2.7,8.9,5.3,10
	C1286.2,987.2,1290.4,986.5,1292.9,984.3L1292.9,984.3z"/>
<path class="st38" d="M1289.7,1017.8c2.1,2.9,7.5,4.6,9.6,3.1s1-4.2-1.1-7.1s-5.7-4.4-7.8-2.9
	C1288.4,1012.3,1287.7,1014.9,1289.7,1017.8z"/>
<path class="st38" d="M1242.8,1204.3c-0.1,1.2,0.1,2.5,0.4,3.7c2.5,8.5,7.7,24.3,12.7,26.5c6.5,2.9,3.3-22.4-8-35.8L1242.8,1204.3
	L1242.8,1204.3z"/>
<path class="st40" d="M1241.3,1204c-4.9-19.8-9-64.4-7.2-77.3c1.5-10.6,7.9-9.6,8.2-9.6c3.3-0.5,7.9,3.6,8.2,7.5l0.5,78.6
	L1241.3,1204L1241.3,1204z"/>
<path class="st40" d="M1305,1051.2c-8,8.5,0.3,15.2,0.4,15.5c1.8,3.3,8.8,4,12.3,1.6l75-57.6c1.3-0.8-0.1-3.2-0.9-4.6
	c-0.3-0.5-0.7-0.9-1.1-1.2c-2.8-2.6-7.7-3.2-11.1-2C1361.7,1009.2,1315.4,1040.1,1305,1051.2L1305,1051.2z"/>
<path class="st38" d="M1425.1,936.1c0.8-0.9,1.4-2,1.9-3.2c3.2-8.2,8.6-24,6-28.8c-3.4-6.2-16.2,15.8-15.3,33.3L1425.1,936.1
	L1425.1,936.1z"/>
<path class="st40" d="M1426.1,935.8c-5.4,19.7-23.4,60.7-31.2,71.1c-6.4,8.6-11.6,4.5-11.8,4.5c-3.1-1.2-5.2-7-3.5-10.5l37.6-69
	L1426.1,935.8L1426.1,935.8z"/>
<ellipse transform="matrix(0.7071 -0.7071 0.7071 0.7071 -50.1068 1244.9688)" class="st41" cx="1477.8" cy="683" rx="115.7" ry="115.7"/>
<path class="st25" d="M1594.8,683c0-30-11.4-57.4-30-78.2l0.1-0.1l-2.5-2.6c-10.8-11.3-23.5-20.2-37.8-26.4
	c-13.9-6-28.6-9.3-43.7-9.7c-1,0-2,0-3,0s-2,0-3,0c-15.2,0.4-29.9,3.6-43.7,9.7c-14.3,6.2-27,15.1-37.8,26.4l-2.5,2.6l0.1,0.1
	c-18.7,20.7-30,48.2-30,78.2s11.7,58.2,30.9,79.1l-0.1,0.1l2.6,2.7c22.2,22.7,51.9,35.2,83.6,35.2s61.4-12.5,83.6-35.2l2.6-2.7
	l-0.1-0.1C1583,741.2,1594.7,713.4,1594.8,683L1594.8,683z M1544.6,680.1c-0.3-22.2-4.1-43.3-10.9-61.4c9.4-2.9,18.1-6.6,25.9-10.9
	c17.6,19.2,28.6,44.5,29.3,72.3H1544.6L1544.6,680.1z M1531,753.9c8.5,2.6,16.3,5.8,23.5,9.5c-14.1,13.4-31.7,23.2-51.2,27.8
	c8.2-5.9,15.8-14.7,22.2-26.2C1527.5,761.5,1529.3,757.8,1531,753.9z M1520.5,762.2c-11.6,20.6-26.7,32-42.7,32s-31.2-11.3-42.7-32
	c-1.8-3.2-3.4-6.5-5-10c14.7-3.9,30.9-5.9,47.7-5.9s33,2,47.7,5.9C1523.9,755.8,1522.3,759.1,1520.5,762.2L1520.5,762.2z
	 M1430,765.1c6.4,11.4,13.9,20.3,22.2,26.2c-19.6-4.6-37.2-14.4-51.2-27.8c7.2-3.8,15.1-7,23.5-9.5
	C1426.2,757.8,1428,761.5,1430,765.1z M1477.8,740.6c-17.6,0-34.5,2.2-49.9,6.3c-7-17.8-10.8-38.9-11.2-61.1h122.1
	c-0.3,22.2-4.2,43.2-11.2,61.1C1512.3,742.8,1495.3,740.6,1477.8,740.6L1477.8,740.6z M1416.7,680.1c0.3-21.7,4-42.2,10.7-59.8
	c15.5,4.2,32.6,6.4,50.4,6.4s34.9-2.2,50.4-6.4c6.7,17.6,10.4,38.2,10.7,59.8H1416.7L1416.7,680.1z M1477.8,571.7L1477.8,571.7
	c16,0,31.2,11.4,42.7,32c2,3.5,3.8,7.3,5.5,11.2c-14.8,4-31.2,6-48.2,6s-33.4-2.1-48.2-6c1.7-3.9,3.5-7.7,5.5-11.2
	C1446.6,583.1,1461.7,571.7,1477.8,571.7L1477.8,571.7L1477.8,571.7z M1531.6,613.3c-1.8-4.4-3.9-8.5-6.1-12.5
	c-6.4-11.4-13.9-20.3-22.2-26.2c20,4.7,37.9,14.9,52.2,28.8C1548.2,607.4,1540.2,610.7,1531.6,613.3L1531.6,613.3z M1452.2,574.7
	c-8.2,5.9-15.8,14.7-22.2,26.2c-2.2,3.9-4.2,8.1-6.1,12.5c-8.6-2.7-16.7-6-23.9-9.9C1414.3,589.5,1432.2,579.4,1452.2,574.7
	L1452.2,574.7z M1421.8,618.7c-6.8,18.1-10.6,39.3-10.9,61.4h-44.4c0.7-27.8,11.7-53.2,29.3-72.3
	C1403.7,612.1,1412.4,615.8,1421.8,618.7L1421.8,618.7z M1410.9,685.8c0.3,22.7,4.3,44.3,11.4,62.7c-9.2,2.8-17.8,6.4-25.5,10.6
	c-18.1-19.3-29.5-45-30.2-73.3H1410.9L1410.9,685.8z M1533.2,748.5c7.1-18.4,11.1-40,11.4-62.7h44.4c-0.7,28.3-12.1,54-30.2,73.3
	C1551,754.9,1542.4,751.3,1533.2,748.5L1533.2,748.5z"/>
<path class="st21" d="M1522.1,1296.5c9.2,0,16.7-7.5,16.7-16.7c0,9.2,7.5,16.7,16.7,16.7c-9.2,0-16.7,7.5-16.7,16.7
	C1538.8,1303.9,1531.3,1296.5,1522.1,1296.5z"/>
<path class="st21" d="M1435.5,654c9.2,0,16.7-7.5,16.7-16.7c0,9.2,7.5,16.7,16.7,16.7c-9.2,0-16.7,7.5-16.7,16.7
	C1452.2,661.5,1444.8,654,1435.5,654z"/>
<path class="st21" d="M1984.1,431.2c9.2,0,16.7-7.5,16.7-16.7c0,9.2,7.5,16.7,16.7,16.7c-9.2,0-16.7,7.5-16.7,16.7
	C2000.8,438.7,1993.4,431.2,1984.1,431.2z"/>
<path class="st21" d="M1789.8,160.3c9.2,0,16.7-7.5,16.7-16.7c0,9.2,7.5,16.7,16.7,16.7c-9.2,0-16.7,7.5-16.7,16.7
	C1806.5,167.8,1799,160.3,1789.8,160.3z"/>
<path class="st21" d="M1871.9,866.2c9.2,0,16.7-7.5,16.7-16.7c0,9.2,7.5,16.7,16.7,16.7c-9.2,0-16.7,7.5-16.7,16.7
	C1888.6,873.7,1881.2,866.2,1871.9,866.2z"/>
<path class="st21" d="M2059.7,980.9c9.2,0,16.7-7.5,16.7-16.7c0,9.2,7.5,16.7,16.7,16.7c-9.2,0-16.7,7.5-16.7,16.7
	C2076.4,988.4,2068.9,980.9,2059.7,980.9z"/>
<path class="st21" d="M1432.5,1388.5c16.5,0,29.9-13.4,29.9-29.9c0,16.5,13.4,29.9,29.9,29.9c-16.5,0-29.9,13.4-29.9,29.9
	C1462.4,1401.9,1449,1388.5,1432.5,1388.5z"/>
<path class="st21" d="M1806.5,574.7c16.5,0,29.9-13.4,29.9-29.9c0,16.5,13.4,29.9,29.9,29.9c-16.5,0-29.9,13.4-29.9,29.9
	C1836.5,588.1,1823.1,574.7,1806.5,574.7z"/>
<path class="st21" d="M1718.5,89.2c16.5,0,29.9-13.4,29.9-29.9c0,16.5,13.4,29.9,29.9,29.9c-16.5,0-29.9,13.4-29.9,29.9
	C1748.4,102.6,1735,89.2,1718.5,89.2z"/>
<path class="st19" d="M884.5,752.5c16.7,0,30.8,11.2,35.1,26.5h-70.2C853.7,763.6,867.8,752.5,884.5,752.5L884.5,752.5z"/>
<path class="st19" d="M925.6,760.7c11.5,0,21.2,7.7,24.2,18.3h-48.5C904.4,768.4,914.1,760.7,925.6,760.7L925.6,760.7z"/>
<path class="st19" d="M873.3,778.9c-4.7-16.3-23.4-28.5-45.8-28.5s-41,12.2-45.8,28.5H873.3z"/>
</svg>
