<?xml version="1.0" encoding="utf-8"?>
<!-- Generator: Adobe Illustrator 26.3.1, SVG Export Plug-In . SVG Version: 6.00 Build 0)  -->
<svg version="1.1" id="a" xmlns="http://www.w3.org/2000/svg" xmlns:xlink="http://www.w3.org/1999/xlink" x="0px" y="0px"
	 viewBox="0 0 3156.75 1619.46" style="enable-background:new 0 0 3156.75 1619.46;" xml:space="preserve">
<style type="text/css">
	.st0{fill:#417C97;}
	.st1{fill:none;stroke:#EED7CA;stroke-width:8;stroke-miterlimit:10;}
	.st2{fill:#EFCD5E;}
	.st3{fill:#C48184;}
	.st4{fill:#FFFFFF;}
	.st5{fill:#709CB0;}
	.st6{fill:#AFAFAF;}
	.st7{fill:#F3C39B;}
	.st8{fill:#F3D7C1;}
	.st9{fill:#EAC5B1;}
	.st10{fill:#E5AB89;}
	.st11{fill:#ECCEBE;}
	.st12{fill:#EDBF24;}
	.st13{fill:#E7B396;}
	.st14{fill:#E9BDA4;}
	.st15{opacity:0.63;fill:#FFFFFF;enable-background:new    ;}
	.st16{opacity:0.81;fill:#709CB0;enable-background:new    ;}
	.st17{opacity:0.71;fill:#E5AB89;enable-background:new    ;}
	.st18{opacity:0.61;fill:#FFFFFF;enable-background:new    ;}
	.st19{fill:none;stroke:#C48184;stroke-width:4;stroke-miterlimit:10;}
</style>
<path class="st0" d="M3156.75,1086.96c0-418.74-339.45-758.19-758.19-758.19c-71.58,0-140.82,9.93-206.46,28.44
	C2023.32,139.89,1759.53,0,1463.04,0c-439.77,0-807.61,307.68-900.12,719.49c-12.09-2.53-24.62-3.88-37.46-3.88
	c-100.37,0-181.73,81.36-181.73,181.73c0,12.47,1.26,24.64,3.65,36.41c-182.48,46.89-321.43,202.27-344.1,393.3h3114.66
	C3143.11,1251.6,3156.75,1170.88,3156.75,1086.96L3156.75,1086.96z"/>
<path class="st1" d="M891.15,259.81c0,96.37,206.25,96.37,206.25,192.75c0,86.82-167.38,95.43-200.57,166.74"/>
<path class="st1" d="M1080.06,259.81c0,96.37-206.25,96.37-206.25,192.75c0,87.3,169.26,95.52,201.11,167.94"/>
<line class="st1" x1="1097.39" y1="453.61" x2="873.81" y2="453.61"/>
<line class="st1" x1="1062.3" y1="392.32" x2="913.32" y2="392.32"/>
<line class="st1" x1="1062.3" y1="513.85" x2="913.32" y2="513.85"/>
<line class="st1" x1="1062.3" y1="600.51" x2="909.7" y2="600.51"/>
<line class="st1" x1="1062.3" y1="307" x2="913.32" y2="307"/>
<path class="st2" d="M2661.97,1262.44c-51.45,0-94.83,34.5-108.29,81.63h216.57c-13.45-47.13-56.84-81.63-108.29-81.63H2661.97z"/>
<path class="st2" d="M2957.39,1262.44c-51.45,0-94.83,34.5-108.29,81.63h216.57c-13.45-47.13-56.84-81.63-108.29-81.63H2957.39z"/>
<path class="st2" d="M2816.65,1227.47c-73.49,0-135.46,49.29-154.67,116.61h309.35c-19.21-67.32-81.19-116.61-154.67-116.61H2816.65
	z"/>
<path class="st2" d="M1313.98,1106.86c-149.5,0-275.57,100.27-314.66,237.22h629.32
	C1589.55,1207.13,1463.48,1106.86,1313.98,1106.86L1313.98,1106.86z"/>
<path class="st2" d="M2172.42,1106.86c-149.5,0-275.57,100.27-314.66,237.22h629.32
	C2447.99,1207.13,2321.92,1106.86,2172.42,1106.86z"/>
<path class="st2" d="M1763.44,1005.24c-213.54,0-393.63,143.22-449.46,338.84h898.92
	C2157.07,1148.46,1976.98,1005.24,1763.44,1005.24z"/>
<path class="st3" d="M875.74,703.48c0,0-7.68,64.22,32.28,80.27c39.96,16.05,87.08-18.46,113.35,25.09
	c26.27,43.54,48.7,7.4,81.42,43.06c32.71,35.66,22.93,187.57-45.87,204.77c-68.8,17.2-172.79,4.59-205.65-56.19
	c-32.86-60.78-36.53-143.34-30.11-207.55c6.42-64.22,54.58-89.44,54.58-89.44L875.74,703.48z"/>
<path class="st4" d="M1107.47,671.06c0,0-2.61-121.43,20.87-141.03c23.48-19.6,39.05,95.69,2.68,159.47L1107.47,671.06z"/>
<path class="st5" d="M1098.02,648.89c18.45,0.18,36.84,0.4,54.58,0.5c7.46,217.12-102.44,371.72-333.97,333.91
	c-35.42-5.78-35.51-12.39-28.76-41.92c-3.36-4.46-3.51-4.03,0,0c6.75-29.53,10.57-36.84,45.59-29.88
	c210.92,41.91,231.26-99.87,262.57-262.6L1098.02,648.89z"/>
<path class="st5" d="M713.83,1045.18c1.45-30.32-1.04-37.28,0-62.11c3.11-74.27,81.64-110.58,145.44-79.09
	c3.39,1.19,67.26,43.49,82.41,110.57c24.61,108.94,27.26,258.73,43.92,378.27c-66.96-3.75-122.06,17.93-193.76,27
	c-9.71,1.23-65.81-10.67-82.55-9.01C698.04,1287.05,708.51,1156.22,713.83,1045.18z"/>
<ellipse transform="matrix(0.0706 -0.9975 0.9975 0.0706 -35.4594 1433.1188)" class="st3" cx="751.36" cy="735.59" rx="124.88" ry="97.13"/>
<path class="st4" d="M744.95,781.56c33.49,66.3,106.82,96.72,147.34,76.26s32.88-84.07-0.61-150.37S808.3,624,767.79,644.46
	C727.27,664.92,711.47,715.25,744.95,781.56L744.95,781.56z"/>
<path class="st4" d="M757.08,783.02l76.77-13.85c1.91,10.51,18.23,110.75,17.39,149.1c-1.89,11.94-20.75,18.89-42.12,15.51
	c-19.21-3.04-33.8-13.38-35.2-24.12h-0.09c0.5-23-10.13-89.9-16.75-126.63V783.02z"/>
<path class="st3" d="M716.4,661.43c0,0,80.61,33.64,129.53,22.93c48.93-10.7,62.08,60.9,62.08,60.9s1.75-88.2-36.39-120.53
	s-130.33-30.58-155.22,36.69V661.43z"/>
<path class="st3" d="M763.36,656.46c0,0,21.79,59.48,0,88.8s-21.79,47.65-21.79,47.65l-25.18-28.67l-31.01-89.46l77.98-18.33V656.46
	z"/>
<path class="st4" d="M726.2,814.46c7.79,15.43,33.09,27.43,44.26,21.79c11.18-5.64,7.65-19.57-0.14-35
	c-7.79-15.43-24.15-25.3-35.32-19.65C723.82,787.24,718.41,799.03,726.2,814.46L726.2,814.46z"/>
<path class="st4" d="M770.3,1373.98c0,0,109.83,13.76,124.38,37.53c14.56,23.77-91.45,22.51-144.13-18.75l19.75-18.79V1373.98z"/>
<path class="st5" d="M713.31,944.71c45.85-42.71,87.24,22.58,35.96,65.55c-148.83,124.7-47.99,250.3,44.31,362.23
	c-15.51,14.14-28.91,28.54-40.65,42.57c-142.96-155.74-225.39-297.32-39.61-470.35L713.31,944.71z"/>
<path class="st4" d="M2148.52,681.22c0,0,119.75-20.31,134.57-47.06c14.83-26.76-101.33-20.32-157.12,27.4L2148.52,681.22
	L2148.52,681.22z"/>
<path class="st6" d="M2163.27,684.81c-9.57-16.36-16.7-33.62-24.25-50.25c-211.15,131.15-272.28,366.58,44.32,378.72
	c48.43,1.86,36.76-2.21,37.87-33.12c6.17-4.51,6.04-3.51,0,0c1.1-30.91,3.8-36.96-40.23-38.63
	C1915.78,931.49,2048.33,781.41,2163.27,684.81L2163.27,684.81z"/>
<path class="st6" d="M2378.24,968.72c-11.54-73.44-85.83-98.19-145.63-59.64c-3.23,1.57-61.87,50.87-69.29,119.24
	c-12.04,111.03,2.37,260.15-0.57,380.81c66.09-11.35,123.31,3.92,195.58,4.77c9.79,0.12,64.17-18.1,80.98-18.35
	C2436.4,1271.31,2382.1,993.28,2378.24,968.72L2378.24,968.72z"/>
<ellipse transform="matrix(0.1047 -0.9945 0.9945 0.1047 1320.084 2962.2043)" class="st3" cx="2305.26" cy="747.92" rx="124.88" ry="97.13"/>
<path class="st4" d="M2341.11,775.28c-25.72,69.68-95.11,108.26-137.7,92.54c-42.58-15.72-42.24-79.78-16.51-149.46
	c25.72-69.68,73.33-92.4,115.92-76.68c42.59,15.72,64.02,63.92,38.3,133.61L2341.11,775.28z"/>
<path class="st4" d="M2329.22,778.11l-77.85-5.02c-0.7,10.66-5.5,112.1-0.3,150.11c3.23,11.65,22.76,16.4,43.61,10.61
	c18.74-5.2,32.05-17.15,32.23-27.97l0.09-0.02C2323.89,883.03,2326.83,815.36,2329.22,778.11L2329.22,778.11z"/>
<path class="st3" d="M2321.11,645.65c0,0,0.06,7.28,6.68,58.28c6.62,51-22.04,89.98-9.65,93.8c12.38,3.82,31.66-2.41,45.06-26.56
	c13.4-24.15,3.54-136.9-42.08-125.52H2321.11z"/>
<path class="st4" d="M2363.48,805.83c-5.99,16.22-29.75,31.02-41.49,26.68c-11.75-4.34-9.83-18.57-3.84-34.79
	s21.11-27.88,32.86-23.54s18.47,15.43,12.48,31.65L2363.48,805.83z"/>
<path class="st3" d="M2365.39,700.57c0,0-60.12,6.16-105.87-21.7c-33.5-20.4-82.13,40.38-84.87,29.92
	c-2.74-10.46,33.65-84.04,88.96-89.52c54.49-5.39,91.93,31.28,101.78,81.29L2365.39,700.57z"/>
<path class="st4" d="M2541.42,1450.09c0,0-46.4,100.49-73.47,107.15s6.27-93.97,61.55-131.67l11.92,24.51V1450.09z"/>
<path class="st6" d="M2375.88,934.31c-64.28-34.12-90.83,44.2-13.33,76.62c224.9,94.1,154.37,252.7,126.58,441.47
	c22.38,7.79,40.12,14.9,56.82,21.82c72.27-259.43,90.35-401.69-170.07-539.92V934.31z"/>
<path class="st7" d="M2205.09,439.59c-64,0-117.98,42.93-134.72,101.56h269.43c-16.73-58.63-70.71-101.56-134.72-101.56
	L2205.09,439.59z"/>
<path class="st7" d="M2572.62,439.59c-64,0-117.98,42.93-134.72,101.56h269.43c-16.73-58.63-70.71-101.56-134.72-101.56
	L2572.62,439.59z"/>
<path class="st7" d="M2397.52,396.09c-91.42,0-168.52,61.32-192.43,145.07h384.85C2566.04,457.41,2488.94,396.09,2397.52,396.09
	L2397.52,396.09z"/>
<path class="st8" d="M2252.09,524.69c-31.01,0-57.15,20.8-65.26,49.2h130.52C2309.24,545.49,2283.1,524.69,2252.09,524.69z"/>
<path class="st8" d="M2430.13,524.69c-31.01,0-57.15,20.8-65.26,49.2h130.52C2487.28,545.49,2461.14,524.69,2430.13,524.69z"/>
<path class="st8" d="M2345.31,503.61c-44.29,0-81.64,29.7-93.22,70.28h186.44C2426.95,533.32,2389.6,503.61,2345.31,503.61
	L2345.31,503.61z"/>
<path class="st9" d="M174.26,1010.76c0,0-14.67-21.68-8.69-52.99s-19.9-39.93-30.12-28.17S125.41,975,174.26,1010.76z"/>
<path class="st9" d="M200.24,1024.11c0,0,2.53-26.05,27.1-46.35s10.14-43.45-5.23-40.9c-15.37,2.54-36.69,28.56-21.88,87.26
	L200.24,1024.11z"/>
<path class="st9" d="M198.07,1027.21c0,0-25.82,4.28-44.42,30.16c-18.6,25.89-42.67,13.04-41.16-2.46S138.51,1016.38,198.07,1027.21
	L198.07,1027.21z"/>
<path class="st9" d="M240.16,1062.99c0,0-25.82,4.28-44.42,30.16s-42.67,13.04-41.16-2.46S180.6,1052.16,240.16,1062.99
	L240.16,1062.99z"/>
<path class="st9" d="M269.57,1104.81c0,0-25.82,4.28-44.42,30.16s-42.67,13.04-41.16-2.46s26.02-38.53,85.59-27.7L269.57,1104.81z"
	/>
<path class="st9" d="M303.73,1158.14c0,0-25.82,4.28-44.42,30.16c-18.6,25.89-42.67,13.04-41.16-2.46
	C219.65,1170.33,244.17,1147.31,303.73,1158.14L303.73,1158.14z"/>
<path class="st9" d="M239.73,1062.75c0,0,2.53-26.05,27.1-46.35c24.57-20.3,10.14-43.45-5.23-40.9
	c-15.37,2.54-36.69,28.56-21.88,87.26L239.73,1062.75z"/>
<path class="st9" d="M274.56,1108.18c0,0,2.53-26.05,27.1-46.35c24.57-20.3,10.14-43.45-5.23-40.9
	c-15.37,2.54-36.69,28.56-21.88,87.26L274.56,1108.18z"/>
<path class="st9" d="M305.3,1156.7c0,0,2.53-26.05,27.1-46.35c24.57-20.3,10.14-43.45-5.23-40.9
	c-15.37,2.54-36.69,28.56-21.88,87.26L305.3,1156.7z"/>
<path class="st9" d="M369.38,1299.58l-5.38,0.96c-6.03-18.6-13.42-39.25-22.39-60.91c-10.27-24.79-23.35-52.66-39.67-81.1
	c-0.15-0.26-0.29-0.52-0.45-0.77c-10.06-17.49-21.34-35.18-33.94-52.49c-0.22-0.3-0.44-0.61-0.66-0.91
	c-9.96-13.63-20.74-27.02-32.37-39.87c-0.84-0.94-1.69-1.87-2.56-2.79c-11-11.96-22.75-23.42-35.29-34.18
	c-0.27-0.23-0.53-0.45-0.8-0.68c-7.3-6.23-14.88-12.22-22.72-17.91c-2.62-1.9-5.28-3.78-7.96-5.61c-1.24-0.84-1.55-2.53-0.71-3.76
	c0.85-1.24,2.53-1.55,3.76-0.71c0.17,0.12,0.34,0.23,0.51,0.35c10.93,7.52,21.36,15.58,31.28,24.09c0.1,0.08,0.19,0.16,0.29,0.24
	c14.05,12.05,27.1,24.98,39.23,38.47c0.08,0.09,0.17,0.18,0.25,0.28c12.23,13.62,23.51,27.81,33.88,42.24
	c0.4,0.55,0.8,1.11,1.19,1.66c10.67,14.94,20.37,30.13,29.17,45.2c0.56,0.95,1.11,1.9,1.66,2.84c16.9,29.27,30.41,57.98,40.96,83.47
	c9.12,22.04,16.63,43.03,22.73,61.91L369.38,1299.58z"/>
<path class="st9" d="M404.51,871.12c0,0-4.5-28.44,16.06-56.85s-1.2-49.07-16.87-42.11S372.52,812.71,404.51,871.12L404.51,871.12z"
	/>
<path class="st9" d="M424.17,896.53c0,0,14.67-24.78,48.62-33.54c33.95-8.77,30.37-38.56,13.87-43.19
	c-16.5-4.64-49.87,11.34-62.5,76.73H424.17z"/>
<path class="st9" d="M420.57,898.61c0,0-27.72-7.78-58.33,9.33c-30.61,17.11-48.59-6.9-39.86-21.65S366.28,860.04,420.57,898.61z"/>
<path class="st9" d="M445.81,953.89c0,0-27.72-7.78-58.33,9.33c-30.61,17.11-48.59-6.9-39.86-21.65S391.52,915.32,445.81,953.89z"/>
<path class="st9" d="M455.6,1009.28c0,0-27.72-7.78-58.33,9.33s-48.59-6.9-39.86-21.65S401.31,970.71,455.6,1009.28L455.6,1009.28z"
	/>
<path class="st9" d="M464.76,1078.34c0,0-27.72-7.78-58.33,9.33s-48.59-6.9-39.86-21.65S410.47,1039.77,464.76,1078.34
	L464.76,1078.34z"/>
<path class="st9" d="M445.49,953.45c0,0,14.67-24.78,48.62-33.54c33.95-8.77,30.37-38.56,13.87-43.19
	c-16.5-4.64-49.87,11.34-62.5,76.73H445.49z"/>
<path class="st9" d="M459,1014.96c0,0,14.67-24.78,48.62-33.54c33.95-8.77,30.37-38.56,13.87-43.19
	c-16.5-4.64-49.87,11.34-62.5,76.73H459z"/>
<path class="st9" d="M467,1077.64c0,0,14.67-24.78,48.62-33.54c33.95-8.77,30.37-38.56,13.87-43.19
	c-16.5-4.64-49.87,11.34-62.5,76.73H467z"/>
<path class="st9" d="M464.2,1249.88l-5.81-1.55c2.67-21.34,4.93-45.37,6.1-71.14c1.33-29.48,1.29-63.36-1.7-99.3
	c-0.03-0.33-0.05-0.65-0.09-0.98c-1.86-22.12-4.86-45.01-9.33-68.13c-0.08-0.4-0.16-0.82-0.23-1.22
	c-3.57-18.23-8.06-36.59-13.65-54.82c-0.4-1.33-0.82-2.65-1.24-3.97c-5.38-17.04-11.74-33.95-19.22-50.52
	c-0.16-0.35-0.32-0.7-0.48-1.05c-4.37-9.61-9.12-19.11-14.29-28.45c-1.73-3.12-3.49-6.23-5.31-9.31c-0.84-1.42-0.37-3.24,1.05-4.07
	c1.42-0.84,3.24-0.37,4.08,1.05c0.11,0.19,0.23,0.39,0.34,0.58c7.39,12.59,14.01,25.48,19.93,38.59c0.06,0.13,0.12,0.25,0.17,0.38
	c8.37,18.56,15.35,37.53,21.14,56.63c0.04,0.13,0.08,0.26,0.12,0.39c5.83,19.28,10.45,38.67,14.05,57.89
	c0.14,0.74,0.28,1.48,0.41,2.21c3.66,19.87,6.24,39.53,7.99,58.64c0.11,1.21,0.22,2.41,0.33,3.61c3.19,37.05,3.26,71.96,1.88,102.27
	c-1.2,26.21-3.51,50.63-6.24,72.28L464.2,1249.88z"/>
<path class="st8" d="M332.33,303.79c-63.67,0-117.36,42.7-134.01,101.02h268.02C449.69,346.49,396,303.79,332.33,303.79
	L332.33,303.79z"/>
<path class="st8" d="M697.92,303.79c-63.67,0-117.36,42.7-134.01,101.02h268.01c-16.65-58.32-70.34-101.02-134.01-101.02H697.92z"/>
<path class="st8" d="M523.75,260.52c-90.94,0-167.64,60.99-191.41,144.3h382.82C691.38,321.51,614.69,260.52,523.75,260.52
	L523.75,260.52z"/>
<path class="st10" d="M776.76,396.9c-23.75,0-43.78,15.93-49.99,37.69h99.98C820.54,412.83,800.51,396.9,776.76,396.9z"/>
<path class="st10" d="M913.14,396.9c-23.75,0-43.78,15.93-49.99,37.69h99.98C956.92,412.83,936.89,396.9,913.14,396.9z"/>
<path class="st10" d="M848.17,380.76c-33.93,0-62.54,22.75-71.41,53.83h142.81C910.7,403.51,882.09,380.76,848.17,380.76
	L848.17,380.76z"/>
<path class="st10" d="M2550.83,752.92c-38.71,0-71.36,25.96-81.48,61.43h162.96C2622.19,778.89,2589.54,752.92,2550.83,752.92z"/>
<path class="st10" d="M2773.12,752.92c-38.71,0-71.36,25.96-81.48,61.43h162.96C2844.48,778.89,2811.83,752.92,2773.12,752.92z"/>
<path class="st10" d="M2667.22,726.61c-55.3,0-101.93,37.09-116.39,87.74h232.77C2769.14,763.69,2722.51,726.61,2667.22,726.61
	L2667.22,726.61z"/>
<path class="st9" d="M213.36,1247.21c-61.05,0-112.53,40.94-128.49,96.87h256.99C325.9,1288.15,274.41,1247.21,213.36,1247.21
	L213.36,1247.21z"/>
<path class="st9" d="M563.91,1247.21c-61.05,0-112.53,40.94-128.49,96.87h256.99c-15.96-55.93-67.45-96.87-128.49-96.87H563.91z"/>
<path class="st9" d="M396.9,1205.71c-87.2,0-160.74,58.48-183.54,138.37h367.08C557.64,1264.2,484.1,1205.71,396.9,1205.71
	L396.9,1205.71z"/>
<path class="st5" d="M1738.32,39.44c-28.4,0-52.35,19.05-59.78,45.06h119.55c-7.43-26.02-31.38-45.06-59.78-45.06H1738.32z"/>
<path class="st5" d="M1901.4,39.44c-28.4,0-52.35,19.05-59.78,45.06h119.55c-7.43-26.02-31.38-45.06-59.78-45.06H1901.4z"/>
<path class="st5" d="M1823.7,20.14c-40.57,0-74.78,27.21-85.38,64.37h170.77c-10.61-37.16-44.82-64.37-85.38-64.37H1823.7z"/>
<path class="st11" d="M3.28,1327.05C1.13,1345.13,0,1363.53,0,1382.19c0,86.73,23.85,167.88,65.34,237.27h2872.92
	c80.47-81.56,142.59-181.26,179.68-292.41H3.28z"/>
<path class="st12" d="M744.56,1369.48h1676.19c30.98,0,56.09,25.11,56.09,56.09v0c0,30.98-25.11,56.09-56.09,56.09H744.56
	c-30.98,0-56.09-25.11-56.09-56.09v0C688.47,1394.59,713.58,1369.48,744.56,1369.48z"/>
<path class="st5" d="M2804.13,1373.75l-5.82-2.68c0.12-0.25,11.89-25.7,33.41-58.23c19.88-30.04,52.4-72.48,94.49-104.12l3.85,5.12
	c-41.36,31.08-73.4,72.91-93,102.53c-21.25,32.11-32.81,57.12-32.93,57.37V1373.75z"/>
<path class="st5" d="M2943.61,1214.06c2.7-5.98,0.05-13.02-5.93-15.72s-13.02-0.05-15.72,5.93c-2.7,5.98-0.05,13.02,5.93,15.72
	S2940.91,1220.04,2943.61,1214.06z"/>
<path class="st5" d="M2904.28,1190.01c2.7-5.98,0.05-13.02-5.93-15.72s-13.02-0.05-15.72,5.93c-2.7,5.98-0.05,13.02,5.93,15.72
	S2901.58,1195.99,2904.28,1190.01z"/>
<path class="st5" d="M2926.98,1293.06c2.7-5.98,0.05-13.02-5.93-15.72s-13.02-0.05-15.72,5.93c-2.7,5.98-0.05,13.02,5.93,15.72
	S2924.28,1299.04,2926.98,1293.06z"/>
<path class="st5" d="M2886.6,1252.8l-6.03-2.15c0.11-0.31,10.88-30.85,10.06-58.99l6.41-0.19c0.85,29.37-9.97,60.04-10.43,61.33
	H2886.6z"/>
<path class="st5" d="M2858.89,1284.5l-1.15-6.3c0.95-0.17,23.52-4.12,53.86,4.44l-1.74,6.17
	C2880.94,1280.64,2859.11,1284.47,2858.89,1284.5L2858.89,1284.5z"/>
<path class="st5" d="M2761.66,1365.44l-7.32,0.24c-0.01-0.32-0.99-32.36,4.37-76.61c4.95-40.87,16.5-100.9,43.34-154.77l6.56,3.27
	c-26.38,52.93-37.74,112.08-42.63,152.38C2760.68,1333.65,2761.65,1365.12,2761.66,1365.44L2761.66,1365.44z"/>
<path class="st5" d="M2822.56,1130.85c-0.3-7.5-6.61-13.33-14.11-13.04c-7.5,0.3-13.33,6.61-13.04,14.11s6.61,13.33,14.11,13.04
	C2817.02,1144.66,2822.85,1138.35,2822.56,1130.85z"/>
<ellipse transform="matrix(0.1264 -0.992 0.992 0.1264 1290.2941 3719.0779)" class="st5" cx="2756.61" cy="1126.99" rx="13.58" ry="13.58"/>
<path class="st5" d="M2845.97,1220.12c-0.3-7.5-6.61-13.33-14.11-13.04c-7.5,0.3-13.33,6.61-13.04,14.11
	c0.3,7.5,6.61,13.33,14.11,13.04C2840.43,1233.93,2846.26,1227.62,2845.97,1220.12z"/>
<path class="st5" d="M2784.1,1199.61l-7.27,0.88c-0.04-0.37-4.66-37.11-19.89-65.45l6.45-3.47c15.89,29.59,20.51,66.48,20.7,68.03
	L2784.1,1199.61z"/>
<path class="st5" d="M2771.98,1246.19l-4.4-5.86c0.88-0.66,21.94-16.25,57.33-23.01l1.37,7.19c-33.74,6.44-54.1,21.52-54.3,21.67
	L2771.98,1246.19z"/>
<path class="st5" d="M2694.79,1342.05c-23.22,0-42.8,15.57-48.87,36.84h97.73c-6.07-21.27-25.65-36.84-48.87-36.84H2694.79z"/>
<path class="st5" d="M2828.1,1342.05c-23.22,0-42.8,15.57-48.87,36.84h97.73c-6.07-21.27-25.65-36.84-48.87-36.84H2828.1z"/>
<path class="st5" d="M2764.59,1326.26c-33.16,0-61.13,22.24-69.8,52.62h139.6C2825.72,1348.5,2797.75,1326.26,2764.59,1326.26z"/>
<path class="st13" d="M1097.05,1472.61c-22.16,0-40.85,14.86-46.64,35.16h93.28C1137.9,1487.47,1119.21,1472.61,1097.05,1472.61z"/>
<path class="st13" d="M1036.42,1457.54c-31.65,0-58.35,21.23-66.62,50.23h133.25c-8.28-29-34.97-50.23-66.62-50.23H1036.42z"/>
<path class="st10" d="M579.04,1303.12c-26.27,0-48.42,17.62-55.29,41.68h110.58C627.46,1320.74,605.31,1303.12,579.04,1303.12
	L579.04,1303.12z"/>
<path class="st10" d="M729.88,1303.12c-26.27,0-48.42,17.62-55.29,41.68h110.58C778.3,1320.74,756.15,1303.12,729.88,1303.12
	L729.88,1303.12z"/>
<path class="st10" d="M658.01,1285.26c-37.52,0-69.17,25.17-78.98,59.54h157.95C727.17,1310.43,695.53,1285.26,658.01,1285.26
	L658.01,1285.26z"/>
<path class="st10" d="M1492.34,904.62c3.5-10.58,7.24-23.02,10.41-39.53c10.24-53.26,18.38-105.41,34.38-144.36
	c0-0.02,0-0.04,0.02-0.06c3.66-8.93,7.75-17.16,12.36-24.55c6.38-10.22,13.79-18.85,22.53-25.49c0.71-0.52,1.41-1.05,2.08-1.56
	c3.73-2.76,7.6-5.23,11.55-7.45c31.62-17.57,69.75-17.52,103.15-2.48c3.47,1.55,48.71,5.2,96.87,99.17c3.8,7.41,6.5,15.3,9.8,22.95
	c35.83,83.11,33.63,220.9,33.63,220.9c2.96,52.95,3.75,128.7-2.89,230.29c0,0-3.83,66.87,5.09,109.74h-319.3
	c0,0,24.7-186.75,0-263.39S1463.04,977.45,1492.34,904.62L1492.34,904.62z"/>
<path class="st10" d="M1739.6,698.5c0,0,73.1,70.07,203.31,255.11c117.05,166.33,221.53,347.84,148.6,347.67
	c-72.93-0.17-403.96-490.06-403.9-506.29s51.98-96.49,51.98-96.49H1739.6z"/>
<path class="st10" d="M1671.8,747.08c0,0-37.44,88.66-160,232.5c-110.17,129.31-265.56,211.51-278.17,148.55
	c-12.61-62.95,314.25-431.97,327.02-434.68c12.76-2.71,111.15,53.62,111.15,53.62V747.08z"/>
<path class="st4" d="M1246.94,714.22c7.43-17.7,6.18-37.85-3.36-54.51c-27.13-47.32-84.84-141.13-119.47-147.65
	c-46.45-8.75,19.42,158.51,116.54,217.15l6.29-15L1246.94,714.22z"/>
<path class="st14" d="M1206.07,1127.27c12.41,13.45,29.23,22.19,47.44,24.02c16.6,1.66,33.28-2.64,33.62-26.49
	c0.68-47.71-21.91-325.17-31.03-427.76l-72.13-3.24c0,0-42.77,328.23-24.81,367.71c11.31,24.85,32.65,50.32,46.9,65.78
	L1206.07,1127.27z"/>
<path class="st3" d="M1991.18,440.39c-42.37,47.86-114.03,55.72-166.85,19.71c-22.68-15.46-42.65-32.26-58.49-48.3
	c-33.4-33.84-79.4-50.58-120.11-58.74c8.65-49.95,37.53-102.7,79.59-136.59c65.84-53.05,182.47-64.75,254.04-12.78
	s68.46,159.66,18.94,227.85c-2.18,3-4.56,5.95-7.11,8.84L1991.18,440.39z"/>
<path class="st3" d="M2153.43,405.82c-30.98,35-83.37,40.74-122,14.41c-16.59-11.3-31.19-23.59-42.76-35.32
	c-24.42-24.74-58.05-36.98-87.82-42.95c6.33-36.52,27.44-75.09,58.19-99.87c48.14-38.79,133.41-47.34,185.74-9.34
	s50.06,116.74,13.85,166.6C2157.04,401.54,2155.3,403.7,2153.43,405.82L2153.43,405.82z"/>
<path class="st3" d="M1809.58,585.57c-60.65,40.29-159.28,42.29-213.45-6.37c-54.17-48.66-40.03-139.27,8.63-193.44
	s201.85-61.74,256.02-13.08S1886.38,534.55,1809.58,585.57L1809.58,585.57z"/>
<path class="st4" d="M1717.65,487.74l-108.74-9.72c-2.53,14.91-24.06,156.92-22.29,210.36c2.85,16.44,29.62,23.77,59.78,16.38
	c27.12-6.65,47.57-22.92,49.39-38.09l0.13-0.03C1694.86,634.6,1708.85,539.86,1717.65,487.74L1717.65,487.74z"/>
<path class="st4" d="M1736.7,495.22c-40.3,88.62-137.6,133.29-194.3,109.45c-56.7-23.84-51.33-107.17-11.03-195.79
	c40.3-88.62,106.77-114.4,163.47-90.55c56.7,23.84,82.16,88.27,41.85,176.89L1736.7,495.22z"/>
<path class="st3" d="M1795.67,457.76c0,0,21.25-68.81-7.05-116.75c-28.3-47.95-112.55-96.89-184.41-28.93c0,0-47,52.63,16.85,99.22
	s74.09,1.68,86.83,55.73c12.73,54.05,58.92,43.78,60.4,55.45L1795.67,457.76L1795.67,457.76z"/>
<path class="st3" d="M1520.41,276.45c27.73-22.24,80.56-23.3,115.63,3.62c35.07,26.92,38.49,76.99,18.9,106.91
	s-101.1,34.03-136.17,7.11C1483.7,367.17,1485.3,304.62,1520.41,276.45L1520.41,276.45z"/>
<path class="st4" d="M1758.15,527.27c-9.19,23.49-42.85,45.67-58.82,39.94s-12.51-26.2-3.32-49.69
	c9.19-23.49,30.74-40.81,46.71-35.09c15.97,5.73,24.62,21.35,15.42,44.83L1758.15,527.27z"/>
<path class="st15" d="M1601.94,981.77c5.82,6.75,9.38,15.4,16.07,21.28c8.13,7.14,19.96,9.08,30.54,6.8
	c1.19-0.26,2.37-0.57,3.53-0.92V770.48h-58.2v204.36c2.99,1.91,5.72,4.22,8.06,6.94L1601.94,981.77z"/>
<path class="st3" d="M1648.55,1009.85c-10.57,2.28-22.41,0.35-30.54-6.8c-6.7-5.88-10.25-14.53-16.07-21.28
	c-2.34-2.72-5.07-5.03-8.06-6.94v92.57c0,16.07,13.03,29.1,29.1,29.1l0,0c16.07,0,29.1-13.03,29.1-29.1v-58.47
	C1650.92,1009.28,1649.74,1009.59,1648.55,1009.85L1648.55,1009.85z"/>
<path class="st4" d="M1764.24,962.81c0,0-145.3-108.42-189.48-96.87c-44.17,11.55,82.44,130.38,191.47,141.47L1764.24,962.81
	L1764.24,962.81z"/>
<path class="st14" d="M2049.36,1320.17c19.46,1.08,38.8-4.72,54.07-16.83c13.92-11.04,23.49-26.7,6.05-45.19
	c-34.87-36.97-257.92-232.28-340.97-303.93l-57.54,51.01c0,0,210.75,282.59,253.75,299.44c27.08,10.61,62.27,14.25,84.63,15.49
	L2049.36,1320.17z"/>
<path class="st15" d="M1198.57,581.09c13.03,5.47,23.4,15.66,35.11,23.58c11.71,7.92,26.57,13.7,39.83,8.81
	c15.76-5.81,22.73-23.68,33.59-36.49c11.21-13.21,27.93-21.6,45.22-22.69c12.99-0.82,26.92,2.12,38.46-3.92
	c13.77-7.21,18.49-24,27.39-36.9c-18.73-24.02-49.1-42.02-85.07-49.34c-5.42-1.1-9.28-5.92-9.28-11.45V333.68
	c3.7-1.28,6.36-4.79,6.36-8.92c0-5.22-4.23-9.45-9.45-9.45h-47.45c-5.22,0-9.45,4.23-9.45,9.45c0,4.14,2.66,7.64,6.36,8.92v119.01
	c0,5.53-3.86,10.34-9.28,11.45c-60.58,12.33-105.25,54.93-105.25,105.6c0,3.22,0.2,6.4,0.55,9.55c14.11-3.76,28.99-3.81,42.35,1.79
	L1198.57,581.09z"/>
<path class="st16" d="M1390.78,550.39c-11.53,6.03-25.47,3.1-38.46,3.92c-17.29,1.09-34.01,9.48-45.22,22.69
	c-10.87,12.8-17.84,30.68-33.59,36.49c-13.26,4.89-28.12-0.89-39.83-8.81s-22.07-18.11-35.11-23.58
	c-13.36-5.6-28.24-5.55-42.35-1.79c4.68,41.68,39.64,76.65,87.82,91.71h105.95c51.81-16.19,88.37-55.43,88.37-101.26
	c0-20.58-7.37-39.83-20.18-56.26c-8.9,12.91-13.62,29.7-27.39,36.9L1390.78,550.39z"/>
<path class="st5" d="M1317.5,278.43c1.69-7.56,1.89-15.38,0.46-22.43c-0.75-3.52-1.87-6.85-3.49-9.81
	c-1.61-2.96-3.65-5.55-5.97-7.78c-1.12-1.15-2.46-2.11-3.72-3.08l-2.04-1.32c-0.65-0.46-1.44-0.79-2.14-1.19
	c-1.39-0.82-2.98-1.42-4.45-2.11c-0.76-0.32-1.58-0.57-2.36-0.86c-0.8-0.26-1.54-0.6-2.39-0.8c-3.26-0.95-6.61-1.71-10.07-2.23
	c-1.74-0.25-3.42-0.58-5.21-0.71l-2.64-0.26l-1.31-0.13l-1.34-0.06l-5.43-0.26c-2.19-0.15-4.39-0.23-6.59-0.51
	c-4.4-0.46-8.78-1.28-13.14-2.31c-4.37-1.02-8.64-2.45-12.87-4.04c-4.23-1.62-8.32-3.58-12.33-5.72c-3.99-2.18-7.84-4.62-11.55-7.28
	c-3.69-2.68-7.21-5.58-10.58-8.66c-3.34-3.11-6.48-6.42-9.47-9.87c-2.98-3.46-5.71-7.11-8.29-10.88
	c-10.24-15.11-17.17-32.45-20.24-50.8c-0.76-4.59-1.26-9.25-1.48-13.96c-0.23-4.7-0.24-9.46,0.14-14.23
	c0.36-4.77,0.97-9.57,1.94-14.34c0.97-4.78,2.29-9.53,3.93-14.22c3.33-9.35,8.01-18.48,14.22-26.62
	c6.11-8.21,13.65-15.42,21.96-21.26c4.17-2.88,8.48-5.57,12.95-7.78c1.11-0.59,2.23-1.11,3.36-1.62c1.14-0.51,2.22-1.04,3.43-1.53
	c2.43-0.95,4.8-1.96,7.38-2.73c10.05-3.36,21.65-4.94,33.01-3.7c2.85,0.25,5.63,0.77,8.4,1.29c2.72,0.64,5.46,1.3,8.05,2.18
	c5.21,1.72,10.18,3.84,14.69,6.3c9.11,4.87,16.85,10.71,23.66,16.79c6.89,6.06,12.84,12.44,18.43,18.83
	c5.61,6.38,10.65,12.89,15.57,19.32c9.74,12.92,18.61,25.74,27.43,38.1c8.84,12.3,17.6,24.19,26.96,34.68
	c9.35,10.5,19.29,19.56,30.14,25.5c1.36,0.71,2.73,1.45,4.12,2.04c1.38,0.7,2.79,1.19,4.2,1.79c0.71,0.26,1.43,0.48,2.15,0.73
	l1.08,0.37l1.09,0.3l2.19,0.61l2.11,0.43c5.64,1.12,11.33,1.31,17.07-0.08c11.53-2.51,23.24-10.92,32.96-21.9
	c2.5-2.7,4.83-5.61,7.12-8.61c2.3-2.99,4.49-6.1,6.6-9.3c2.12-3.2,4.16-6.48,6.11-9.85c1.97-3.36,3.85-6.8,5.63-10.31l0.92,0.24
	c-0.65,7.98-2.32,15.83-4.48,23.63c-1.14,3.88-2.38,7.76-3.85,11.59c-1.5,3.81-3.12,7.62-5.01,11.35
	c-3.75,7.47-8.42,14.73-14.4,21.38c-5.91,6.67-13.43,12.58-22.27,16.76c-8.8,4.28-18.98,6.25-28.84,6.15l-3.71-0.06
	c-1.2-0.08-2.38-0.19-3.58-0.3l-1.79-0.17l-1.77-0.26c-1.18-0.18-2.37-0.34-3.55-0.56c-4.69-0.89-9.32-2.11-13.78-3.68
	c-4.43-1.6-8.79-3.38-12.87-5.51c-2.1-1.01-4.05-2.16-6.06-3.27l-2.92-1.75c-0.97-0.58-1.94-1.17-2.87-1.8l-2.8-1.86
	c-0.92-0.63-1.82-1.28-2.73-1.92c-1.84-1.27-3.55-2.62-5.32-3.95c-3.45-2.69-6.78-5.49-9.97-8.34
	c-12.8-11.44-23.74-23.77-34.03-36.06c-10.28-12.26-19.81-24.6-29.34-36.15c-9.47-11.55-19.02-22.49-28.7-30.99
	c-2.41-2.14-4.84-4.05-7.23-5.78c-2.39-1.78-4.75-3.22-7.06-4.5c-2.31-1.3-4.56-2.22-6.73-2.96c-1.09-0.41-2.14-0.64-3.2-0.95
	c-1.05-0.18-2.09-0.45-3.13-0.53c-2.08-0.24-4.14-0.34-6.31-0.08c-2.17,0.21-4.42,0.57-6.79,1.31c-1.17,0.28-2.4,0.8-3.62,1.2
	c-0.61,0.21-1.29,0.54-1.93,0.8c-0.65,0.27-1.31,0.54-1.93,0.85c-2.57,1.13-4.93,2.5-7.24,3.93c-2.3,1.44-4.4,3.1-6.42,4.83
	c-2.04,1.72-3.88,3.65-5.61,5.69c-0.89,1-1.67,2.1-2.49,3.17c-0.76,1.12-1.54,2.23-2.24,3.41c-1.43,2.33-2.75,4.78-3.85,7.39
	c-4.49,10.37-6.33,22.72-5.41,35.25c0.86,12.55,4.44,25.26,10.34,36.8c5.93,11.53,14.24,21.87,24.63,29.8
	c2.61,1.95,5.32,3.8,8.16,5.48c2.85,1.64,5.79,3.19,8.87,4.48c3.07,1.31,6.22,2.51,9.49,3.43c1.62,0.53,3.28,0.9,4.94,1.35
	l6.13,1.46l1.54,0.37l1.55,0.45l3.08,0.9c2.05,0.55,4.1,1.34,6.14,2.05c4.07,1.47,8.08,3.34,11.98,5.44
	c0.98,0.48,1.93,1.14,2.89,1.7c0.95,0.6,1.91,1.15,2.84,1.79c1.83,1.36,3.7,2.58,5.39,4.16c0.85,0.78,1.74,1.46,2.52,2.32l2.38,2.5
	c1.48,1.79,2.95,3.55,4.16,5.52c2.52,3.86,4.37,8.13,5.44,12.48c1.07,4.35,1.44,8.75,1.15,13c-0.28,4.25-1.07,8.35-2.32,12.25
	c-1.25,3.89-2.84,7.6-4.95,11.03l-0.86-0.39L1317.5,278.43z"/>
<path class="st15" d="M1461.3,1355.58c30.49-16.44,32.17-65.26,63.7-79.59c10.52-4.78,22.52-4.64,33.83-7.01
	c7.77-1.63,15.2-4.58,22.03-8.57c-21.8-21.56-53.29-36.98-89.43-42.34v-136.11c3.91-1.35,6.72-5.06,6.72-9.43
	c0-5.51-4.47-9.98-9.98-9.98h-50.13c-5.51,0-9.98,4.47-9.98,9.98c0,4.37,2.81,8.07,6.72,9.43v136.11
	c-68.93,10.23-121,57.05-121,113.29c0,7.33,0.9,14.5,2.59,21.45c10.89-6.65,22.89-10.76,36-10.95
	c37.48-0.54,75.94,31.52,108.93,13.73L1461.3,1355.58z"/>
<path class="st6" d="M1580.86,1260.41c-6.83,4-14.26,6.95-22.03,8.57c-11.31,2.37-23.31,2.23-33.83,7.01
	c-31.53,14.33-33.21,63.15-63.7,79.59c-32.99,17.79-71.45-14.27-108.93-13.73c-13.11,0.19-25.12,4.3-36,10.95
	c9.49,38.96,44.32,71.01,90.77,85.53h111.94c54.74-17.11,93.36-58.56,93.36-106.98C1612.44,1304.6,1600.65,1279.98,1580.86,1260.41
	L1580.86,1260.41z"/>
<path class="st5" d="M1827.94,1368.27c-11.32-10.98-27.76-19.69-42.49-14.04c-9.76,3.74-16.74,13.14-26.81,15.97
	c-12.2,3.42-25.11-4.08-33.01-13.99s-12.35-22.07-18.89-32.93c-9.16-15.2-22.68-27.63-38.37-35.91
	c-19.6,16.76-31.54,38.97-31.54,63.33c0,39.66,31.64,73.61,76.47,87.63h91.69c23.85-7.46,43.97-20.55,57.57-37.15
	c-0.19-0.11-0.39-0.2-0.58-0.32c-13.63-7.94-22.72-21.62-34.04-32.6L1827.94,1368.27z"/>
<path class="st15" d="M1787.47,1258.76v-120.6c3.91-1.35,6.72-5.06,6.72-9.43c0-5.51-4.47-9.98-9.98-9.98h-50.13
	c-5.51,0-9.98,4.47-9.98,9.98c0,4.37,2.81,8.07,6.72,9.43v120.6c-24.49,4.49-46.13,14.66-62.45,28.61
	c15.69,8.28,29.21,20.7,38.37,35.91c6.54,10.85,10.99,23.02,18.89,32.93s20.81,17.42,33.01,13.99
	c10.06-2.83,17.05-12.22,26.81-15.97c14.72-5.65,31.16,3.07,42.49,14.04c11.32,10.98,20.41,24.66,34.04,32.6
	c0.19,0.11,0.39,0.21,0.58,0.32c11.97-14.6,18.9-31.91,18.9-50.48c0-44.66-40.1-82.07-93.99-91.94L1787.47,1258.76z"/>
<path class="st17" d="M2158.34,698.27l-6.36,15.46c-6.15,14.96,0.99,32.07,15.95,38.22l35.74,14.7c8.24,3.39,17.72,1.34,23.83-5.16
	l2.76-2.94c3.22-3.43,8.22-4.51,12.57-2.73l0,0c4.35,1.79,7.14,6.08,7.02,10.78l-0.11,4.03c-0.24,8.91,5.06,17.04,13.3,20.43
	l37.45,15.4c14.96,6.15,32.07-0.99,38.22-15.95l6.36-15.46c7.05-17.15-1.13-36.77-18.28-43.82l-124.61-51.25
	c-17.15-7.05-36.77,1.13-43.82,18.28L2158.34,698.27z"/>
<path class="st17" d="M759.69,773.41l6.46,15.42c6.25,14.92,23.41,21.94,38.32,15.69l35.64-14.93c8.22-3.44,13.46-11.61,13.16-20.52
	l-0.13-4.03c-0.16-4.7,2.61-9.01,6.95-10.83l0,0c4.34-1.82,9.35-0.77,12.59,2.64l2.78,2.92c6.14,6.46,15.64,8.45,23.86,5.01
	l37.35-15.65c14.92-6.25,21.94-23.41,15.69-38.32l-6.46-15.42c-7.17-17.1-26.84-25.16-43.94-17.99l-124.27,52.07
	c-17.1,7.17-25.16,26.84-17.99,43.94L759.69,773.41z"/>
<path class="st4" d="M1334.71,611.98c10.57,0,19.15-8.57,19.15-19.15c0,10.57,8.57,19.15,19.15,19.15
	c-10.57,0-19.15,8.57-19.15,19.15C1353.86,620.56,1345.29,611.98,1334.71,611.98z"/>
<path class="st4" d="M1944.07,573.89c10.57,0,19.15-8.57,19.15-19.15c0,10.57,8.57,19.15,19.15,19.15
	c-10.57,0-19.15,8.57-19.15,19.15C1963.22,582.47,1954.65,573.89,1944.07,573.89z"/>
<path class="st4" d="M1527.39,803.65c10.57,0,19.15-8.57,19.15-19.15c0,10.57,8.57,19.15,19.15,19.15
	c-10.57,0-19.15,8.57-19.15,19.15C1546.54,812.23,1537.97,803.65,1527.39,803.65z"/>
<path class="st4" d="M1646.84,1172.92c10.57,0,19.15-8.57,19.15-19.15c0,10.57,8.57,19.15,19.15,19.15
	c-10.57,0-19.15,8.57-19.15,19.15C1665.99,1181.5,1657.42,1172.92,1646.84,1172.92z"/>
<path class="st4" d="M1190.16,380.76c10.57,0,19.15-8.57,19.15-19.15c0,10.57,8.57,19.15,19.15,19.15
	c-10.57,0-19.15,8.57-19.15,19.15C1209.31,389.34,1200.74,380.76,1190.16,380.76z"/>
<path class="st4" d="M1568.39,170.17c10.57,0,19.15-8.57,19.15-19.15c0,10.57,8.57,19.15,19.15,19.15
	c-10.57,0-19.15,8.57-19.15,19.15C1587.54,178.75,1578.97,170.17,1568.39,170.17z"/>
<path class="st4" d="M1885.01,747.87c16.53,0,29.93-13.4,29.93-29.93c0,16.53,13.4,29.93,29.93,29.93
	c-16.53,0-29.93,13.4-29.93,29.93C1914.94,761.27,1901.54,747.87,1885.01,747.87z"/>
<path class="st4" d="M1497.46,1360.96c16.53,0,29.93-13.4,29.93-29.93c0,16.53,13.4,29.93,29.93,29.93
	c-16.53,0-29.93,13.4-29.93,29.93C1527.39,1374.36,1513.99,1360.96,1497.46,1360.96z"/>
<rect x="2111.18" y="1388.11" transform="matrix(0.9599 -0.2805 0.2805 0.9599 -302.985 676.1404)" class="st3" width="198.87" height="16.88"/>
<rect x="2169.46" y="1373.96" transform="matrix(0.9599 -0.2805 0.2805 0.9599 -299.1972 684.4749)" class="st5" width="144.32" height="27.06"/>
<path class="st3" d="M1916.14,1482.56c16.5,56.47,75.66,88.86,132.13,72.36s88.86-75.66,72.36-132.13s-75.66-88.86-132.13-72.36
	S1899.64,1426.09,1916.14,1482.56L1916.14,1482.56z M2111.41,1425.49c15.02,51.38-14.46,105.2-65.84,120.22
	s-105.2-14.46-120.22-65.84s14.46-105.2,65.84-120.22S2096.39,1374.11,2111.41,1425.49z"/>
<circle class="st18" cx="2018.38" cy="1452.68" r="96.92"/>
<ellipse class="st19" cx="1404.95" cy="818.95" rx="41.43" ry="126.9"/>
<ellipse transform="matrix(0.4421 -0.8969 0.8969 0.4421 49.2562 1716.9637)" class="st19" cx="1404.91" cy="818.88" rx="41.43" ry="126.9"/>
<ellipse transform="matrix(0.8969 -0.4421 0.4421 0.8969 -217.3415 705.5723)" class="st19" cx="1404.94" cy="819.03" rx="126.9" ry="41.43"/>
<circle class="st10" cx="1323.7" cy="750.39" r="16.75"/>
<circle class="st6" cx="1375.84" cy="917.94" r="16.75"/>
<circle class="st5" cx="1506.67" cy="793.69" r="16.75"/>
<ellipse transform="matrix(0.7071 -0.7071 0.7071 0.7071 -697.9172 1125.6321)" class="st19" cx="1009.8" cy="1405.28" rx="44.04" ry="44.04"/>
<circle class="st19" cx="903.38" cy="1333.33" r="24.02"/>
<line class="st19" x1="1049.54" y1="1386.31" x2="1155.53" y2="1336.71"/>
<line class="st19" x1="923.13" y1="1347.77" x2="973.6" y2="1380.16"/>
<line class="st19" x1="1155.53" y1="1336.71" x2="1217.82" y2="1358.05"/>
<line class="st19" x1="884.99" y1="1348.78" x2="851.72" y2="1390.3"/>
<circle class="st3" cx="1155.5" cy="1336.8" r="28.24"/>
<circle class="st5" cx="1221.1" cy="1359.28" r="14.12"/>
<circle class="st6" cx="851.73" cy="1390.36" r="14.12"/>
</svg>
