<?xml version="1.0" encoding="UTF-8"?><svg id="a" xmlns="http://www.w3.org/2000/svg" viewBox="0 0 3156.75 1619.46"><defs><style>

.b{fill:#F9C926;}
.c{fill:#bbb;}
.d,.e,.f{fill:#fff;}
.g{fill:#F3C0A4;}
.h{fill:#005981;}
.i{fill:#F6CDB6;}
.j{fill:#FBD861;}
.k{fill:#EC9B6D;}
.l{fill:#EC9B6D;}
.m{fill:#EEA77F;}
.n{fill:#F1B491;}
.o{fill:#d8d8d8;}
.p,.q{fill:#4686A3;}
.r{fill:#3b3e54;}
.s{fill:#D0898C;}
.t{stroke:#3b3e54;stroke-width:4px;}
.t,.u{fill:none;stroke-miterlimit:10;}
.u{stroke:#F8D9C8;stroke-width:8px;}
.e{opacity:.61;}
.q{opacity:.81;}
.l{opacity:.71;}
.f{opacity:.63;}

</style></defs><path class="h" d="M3156.75,1086.96c0-418.74-339.45-758.19-758.19-758.19-71.58,0-140.82,9.93-206.46,28.44C2023.32,139.89,1759.53,0,1463.04,0c-439.77,0-807.61,307.68-900.12,719.49-12.09-2.53-24.62-3.88-37.46-3.88-100.37,0-181.73,81.36-181.73,181.73,0,12.47,1.26,24.64,3.65,36.41C164.9,980.64,25.95,1136.02,3.28,1327.05H3117.94c25.17-75.45,38.81-156.17,38.81-240.09Z"/><path class="u" d="M891.15,259.81c0,96.37,206.25,96.37,206.25,192.75,0,86.82-167.38,95.43-200.57,166.74"/><path class="u" d="M1080.06,259.81c0,96.37-206.25,96.37-206.25,192.75,0,87.3,169.26,95.52,201.11,167.94"/><line class="u" x1="1097.39" y1="453.61" x2="873.81" y2="453.61"/><line class="u" x1="1062.3" y1="392.32" x2="913.32" y2="392.32"/><line class="u" x1="1062.3" y1="513.85" x2="913.32" y2="513.85"/><line class="u" x1="1062.3" y1="600.51" x2="909.7" y2="600.51"/><line class="u" x1="1062.3" y1="307" x2="913.32" y2="307"/><path class="j" d="M2661.97,1262.44c-51.45,0-94.83,34.5-108.29,81.63h216.57c-13.45-47.13-56.84-81.63-108.29-81.63Z"/><path class="j" d="M2957.39,1262.44c-51.45,0-94.83,34.5-108.29,81.63h216.57c-13.45-47.13-56.84-81.63-108.29-81.63Z"/><path class="j" d="M2816.65,1227.47c-73.49,0-135.46,49.29-154.67,116.61h309.35c-19.21-67.32-81.19-116.61-154.67-116.61Z"/><path class="j" d="M1313.98,1106.86c-149.5,0-275.57,100.27-314.66,237.22h629.32c-39.09-136.95-165.16-237.22-314.66-237.22Z"/><path class="j" d="M2172.42,1106.86c-149.5,0-275.57,100.27-314.66,237.22h629.32c-39.09-136.95-165.16-237.22-314.66-237.22Z"/><path class="j" d="M1763.44,1005.24c-213.54,0-393.63,143.22-449.46,338.84h898.92c-55.83-195.62-235.92-338.84-449.46-338.84Z"/><path class="r" d="M875.74,703.48s-7.68,64.22,32.28,80.27c39.96,16.05,87.08-18.46,113.35,25.09,26.27,43.54,48.7,7.4,81.42,43.06,32.71,35.66,22.93,187.57-45.87,204.77-68.8,17.2-172.79,4.59-205.65-56.19-32.86-60.78-36.53-143.34-30.11-207.55,6.42-64.22,54.58-89.44,54.58-89.44Z"/><path class="d" d="M1107.47,671.06s-2.61-121.43,20.87-141.03c23.48-19.6,39.05,95.69,2.68,159.47l-23.55-18.44Z"/><path class="p" d="M1098.02,648.89c18.45,.18,36.84,.4,54.58,.5,7.46,217.12-102.44,371.72-333.97,333.91-35.42-5.78-35.51-12.39-28.76-41.92-3.36-4.46-3.51-4.03,0,0,6.75-29.53,10.57-36.84,45.59-29.88,210.92,41.91,231.26-99.87,262.57-262.6Z"/><path class="p" d="M713.83,1045.18c1.45-30.32-1.04-37.28,0-62.11,3.11-74.27,81.64-110.58,145.44-79.09,3.39,1.19,67.26,43.49,82.41,110.57,24.61,108.94,27.26,258.73,43.92,378.27-66.96-3.75-122.06,17.93-193.76,27-9.71,1.23-65.81-10.67-82.55-9.01-11.25-123.76-.78-254.59,4.54-365.63Z"/><ellipse class="r" cx="751.35" cy="735.59" rx="124.88" ry="97.13" transform="translate(-35.46 1433.11) rotate(-85.95)"/><path class="d" d="M744.95,781.56c33.49,66.3,106.82,96.72,147.34,76.26,40.52-20.46,32.88-84.07-.61-150.37-33.49-66.3-83.38-83.45-123.89-62.99-40.52,20.46-56.32,70.79-22.84,137.1Z"/><path class="d" d="M757.08,783.02l76.77-13.85c1.91,10.51,18.23,110.75,17.39,149.1-1.89,11.94-20.75,18.89-42.12,15.51-19.21-3.04-33.8-13.38-35.2-24.12h-.09c.5-23-10.13-89.9-16.75-126.63Z"/><path class="r" d="M716.4,661.43s80.61,33.64,129.53,22.93c48.93-10.7,62.08,60.9,62.08,60.9,0,0,1.75-88.2-36.39-120.53-38.14-32.33-130.33-30.58-155.22,36.69Z"/><path class="r" d="M763.36,656.46s21.79,59.48,0,88.8c-21.79,29.32-21.79,47.65-21.79,47.65l-25.18-28.67-31.01-89.46,77.98-18.33Z"/><path class="d" d="M726.2,814.46c7.79,15.43,33.09,27.43,44.26,21.79,11.18-5.64,7.65-19.57-.14-35-7.79-15.43-24.15-25.3-35.32-19.65-11.18,5.64-16.59,17.43-8.8,32.86Z"/><path class="d" d="M770.3,1373.98s109.83,13.76,124.38,37.53c14.56,23.77-91.45,22.51-144.13-18.75l19.75-18.79Z"/><path class="p" d="M713.31,944.71c45.85-42.71,87.24,22.58,35.96,65.55-148.83,124.7-47.99,250.3,44.31,362.23-15.51,14.14-28.91,28.54-40.65,42.57-142.96-155.74-225.39-297.32-39.61-470.35Z"/><path class="d" d="M2148.52,681.22s119.75-20.31,134.57-47.06c14.83-26.76-101.33-20.32-157.12,27.4l22.54,19.66Z"/><path class="s" d="M2163.27,684.81c-9.57-16.36-16.7-33.62-24.25-50.25-211.15,131.15-272.28,366.58,44.32,378.72,48.43,1.86,36.76-2.21,37.87-33.12,6.17-4.51,6.04-3.51,0,0,1.1-30.91,3.8-36.96-40.23-38.63-265.2-10.04-132.65-160.12-17.71-256.72Z"/><path class="s" d="M2378.24,968.72c-11.54-73.44-85.83-98.19-145.63-59.64-3.23,1.57-61.87,50.87-69.29,119.24-12.04,111.03,2.37,260.15-.57,380.81,66.09-11.35,123.31,3.92,195.58,4.77,9.79,.12,64.17-18.1,80.98-18.35-2.91-124.24-57.21-402.27-61.07-426.82Z"/><ellipse class="r" cx="2305.13" cy="747.86" rx="124.88" ry="97.13" transform="translate(1320.16 2962.08) rotate(-83.99)"/><path class="d" d="M2341.11,775.28c-25.72,69.68-95.11,108.26-137.7,92.54-42.58-15.72-42.24-79.78-16.51-149.46,25.72-69.68,73.33-92.4,115.92-76.68,42.59,15.72,64.02,63.92,38.3,133.61Z"/><path class="d" d="M2329.22,778.11l-77.85-5.02c-.7,10.66-5.5,112.1-.3,150.11,3.23,11.65,22.76,16.4,43.61,10.61,18.74-5.2,32.05-17.15,32.23-27.97l.09-.02c-3.11-22.79-.17-90.46,2.22-127.7Z"/><path class="r" d="M2321.11,645.65s.06,7.28,6.68,58.28c6.62,51-22.04,89.98-9.65,93.8,12.38,3.82,31.66-2.41,45.06-26.56,13.4-24.15,3.54-136.9-42.08-125.52Z"/><path class="d" d="M2363.48,805.83c-5.99,16.22-29.75,31.02-41.49,26.68-11.75-4.34-9.83-18.57-3.84-34.79,5.99-16.22,21.11-27.88,32.86-23.54,11.75,4.34,18.47,15.43,12.48,31.65Z"/><path class="r" d="M2365.39,700.57s-60.12,6.16-105.87-21.7c-33.5-20.4-82.13,40.38-84.87,29.92-2.74-10.46,33.65-84.04,88.96-89.52,54.49-5.39,91.93,31.28,101.78,81.29Z"/><path class="d" d="M2541.42,1450.09s-46.4,100.49-73.47,107.15c-27.07,6.66,6.27-93.97,61.55-131.67l11.92,24.51Z"/><path class="s" d="M2375.88,934.31c-64.28-34.12-90.83,44.2-13.33,76.62,224.9,94.1,154.37,252.7,126.58,441.47,22.38,7.79,40.12,14.9,56.82,21.82,72.27-259.43,90.35-401.69-170.07-539.92Z"/><path class="c" d="M2205.09,439.59c-64,0-117.98,42.93-134.72,101.56h269.43c-16.73-58.63-70.71-101.56-134.72-101.56Z"/><path class="c" d="M2572.62,439.59c-64,0-117.98,42.93-134.72,101.56h269.43c-16.73-58.63-70.71-101.56-134.72-101.56Z"/><path class="c" d="M2397.52,396.09c-91.42,0-168.52,61.32-192.43,145.07h384.85c-23.9-83.75-101-145.07-192.43-145.07Z"/><path class="o" d="M2252.09,524.69c-31.01,0-57.15,20.8-65.26,49.2h130.52c-8.11-28.4-34.25-49.2-65.26-49.2Z"/><path class="o" d="M2430.13,524.69c-31.01,0-57.15,20.8-65.26,49.2h130.52c-8.11-28.4-34.25-49.2-65.26-49.2Z"/><path class="o" d="M2345.31,503.61c-44.29,0-81.64,29.7-93.22,70.28h186.44c-11.58-40.57-48.93-70.28-93.22-70.28Z"/><path class="g" d="M174.26,1010.76s-14.67-21.68-8.69-52.99c5.98-31.31-19.9-39.93-30.12-28.17-10.22,11.76-10.04,45.4,38.81,81.16Z"/><path class="g" d="M200.24,1024.11s2.53-26.05,27.1-46.35c24.57-20.3,10.14-43.45-5.23-40.9-15.37,2.54-36.69,28.56-21.88,87.26Z"/><path class="g" d="M198.07,1027.21s-25.82,4.28-44.42,30.16c-18.6,25.89-42.67,13.04-41.16-2.46s26.02-38.53,85.59-27.7Z"/><path class="g" d="M240.16,1062.99s-25.82,4.28-44.42,30.16-42.67,13.04-41.16-2.46,26.02-38.53,85.59-27.7Z"/><path class="g" d="M269.57,1104.81s-25.82,4.28-44.42,30.16-42.67,13.04-41.16-2.46,26.02-38.53,85.59-27.7Z"/><path class="g" d="M303.73,1158.14s-25.82,4.28-44.42,30.16c-18.6,25.89-42.67,13.04-41.16-2.46,1.5-15.51,26.02-38.53,85.59-27.7Z"/><path class="g" d="M239.73,1062.75s2.53-26.05,27.1-46.35c24.57-20.3,10.14-43.45-5.23-40.9-15.37,2.54-36.69,28.56-21.88,87.26Z"/><path class="g" d="M274.56,1108.18s2.53-26.05,27.1-46.35c24.57-20.3,10.14-43.45-5.23-40.9-15.37,2.54-36.69,28.56-21.88,87.26Z"/><path class="g" d="M305.3,1156.7s2.53-26.05,27.1-46.35c24.57-20.3,10.14-43.45-5.23-40.9-15.37,2.54-36.69,28.56-21.88,87.26Z"/><path class="g" d="M369.38,1299.58l-5.38,.96c-6.03-18.6-13.42-39.25-22.39-60.91-10.27-24.79-23.35-52.66-39.67-81.1-.15-.26-.29-.52-.45-.77-10.06-17.49-21.34-35.18-33.94-52.49-.22-.3-.44-.61-.66-.91-9.96-13.63-20.74-27.02-32.37-39.87-.84-.94-1.69-1.87-2.56-2.79-11-11.96-22.75-23.42-35.29-34.18-.27-.23-.53-.45-.8-.68-7.3-6.23-14.88-12.22-22.72-17.91-2.62-1.9-5.28-3.78-7.96-5.61-1.24-.84-1.55-2.53-.71-3.76,.85-1.24,2.53-1.55,3.76-.71,.17,.12,.34,.23,.51,.35,10.93,7.52,21.36,15.58,31.28,24.09,.1,.08,.19,.16,.29,.24,14.05,12.05,27.1,24.98,39.23,38.47,.08,.09,.17,.18,.25,.28,12.23,13.62,23.51,27.81,33.88,42.24,.4,.55,.8,1.11,1.19,1.66,10.67,14.94,20.37,30.13,29.17,45.2,.56,.95,1.11,1.9,1.66,2.84,16.9,29.27,30.41,57.98,40.96,83.47,9.12,22.04,16.63,43.03,22.73,61.91Z"/><path class="g" d="M404.51,871.12s-4.5-28.44,16.06-56.85c20.56-28.41-1.2-49.07-16.87-42.11s-31.18,40.55,.81,98.96Z"/><path class="g" d="M424.17,896.53s14.67-24.78,48.62-33.54c33.95-8.77,30.37-38.56,13.87-43.19-16.5-4.64-49.87,11.34-62.5,76.73Z"/><path class="g" d="M420.57,898.61s-27.72-7.78-58.33,9.33c-30.61,17.11-48.59-6.9-39.86-21.65s43.9-26.25,98.19,12.32Z"/><path class="g" d="M445.81,953.89s-27.72-7.78-58.33,9.33c-30.61,17.11-48.59-6.9-39.86-21.65,8.73-14.75,43.9-26.25,98.19,12.32Z"/><path class="g" d="M455.6,1009.28s-27.72-7.78-58.33,9.33c-30.61,17.11-48.59-6.9-39.86-21.65,8.73-14.75,43.9-26.25,98.19,12.32Z"/><path class="g" d="M464.76,1078.34s-27.72-7.78-58.33,9.33c-30.61,17.11-48.59-6.9-39.86-21.65s43.9-26.25,98.19,12.32Z"/><path class="g" d="M445.49,953.45s14.67-24.78,48.62-33.54c33.95-8.77,30.37-38.56,13.87-43.19-16.5-4.64-49.87,11.34-62.5,76.73Z"/><path class="g" d="M459,1014.96s14.67-24.78,48.62-33.54c33.95-8.77,30.37-38.56,13.87-43.19-16.5-4.64-49.87,11.34-62.5,76.73Z"/><path class="g" d="M467,1077.64s14.67-24.78,48.62-33.54c33.95-8.77,30.37-38.56,13.87-43.19-16.5-4.64-49.87,11.34-62.5,76.73Z"/><path class="g" d="M464.2,1249.88l-5.81-1.55c2.67-21.34,4.93-45.37,6.1-71.14,1.33-29.48,1.29-63.36-1.7-99.3-.03-.33-.05-.65-.09-.98-1.86-22.12-4.86-45.01-9.33-68.13-.08-.4-.16-.82-.23-1.22-3.57-18.23-8.06-36.59-13.65-54.82-.4-1.33-.82-2.65-1.24-3.97-5.38-17.04-11.74-33.95-19.22-50.52-.16-.35-.32-.7-.48-1.05-4.37-9.61-9.12-19.11-14.29-28.45-1.73-3.12-3.49-6.23-5.31-9.31-.84-1.42-.37-3.24,1.05-4.07,1.42-.84,3.24-.37,4.08,1.05,.11,.19,.23,.39,.34,.58,7.39,12.59,14.01,25.48,19.93,38.59,.06,.13,.12,.25,.17,.38,8.37,18.56,15.35,37.53,21.14,56.63,.04,.13,.08,.26,.12,.39,5.83,19.28,10.45,38.67,14.05,57.89,.14,.74,.28,1.48,.41,2.21,3.66,19.87,6.24,39.53,7.99,58.64,.11,1.21,.22,2.41,.33,3.61,3.19,37.05,3.26,71.96,1.88,102.27-1.2,26.21-3.51,50.63-6.24,72.28Z"/><path class="o" d="M332.33,303.79c-63.67,0-117.36,42.7-134.01,101.02H466.34c-16.65-58.32-70.34-101.02-134.01-101.02Z"/><path class="o" d="M697.92,303.79c-63.67,0-117.36,42.7-134.01,101.02h268.01c-16.65-58.32-70.34-101.02-134.01-101.02Z"/><path class="o" d="M523.75,260.52c-90.94,0-167.64,60.99-191.41,144.3h382.82c-23.78-83.31-100.47-144.3-191.41-144.3Z"/><path class="k" d="M776.76,396.9c-23.75,0-43.78,15.93-49.99,37.69h99.98c-6.21-21.76-26.24-37.69-49.99-37.69Z"/><path class="k" d="M913.14,396.9c-23.75,0-43.78,15.93-49.99,37.69h99.98c-6.21-21.76-26.24-37.69-49.99-37.69Z"/><path class="k" d="M848.17,380.76c-33.93,0-62.54,22.75-71.41,53.83h142.81c-8.87-31.08-37.48-53.83-71.41-53.83Z"/><path class="k" d="M2550.83,752.92c-38.71,0-71.36,25.96-81.48,61.43h162.96c-10.12-35.46-42.77-61.43-81.48-61.43Z"/><path class="k" d="M2773.12,752.92c-38.71,0-71.36,25.96-81.48,61.43h162.96c-10.12-35.46-42.77-61.43-81.48-61.43Z"/><path class="k" d="M2667.22,726.61c-55.3,0-101.93,37.09-116.39,87.74h232.77c-14.46-50.66-61.09-87.74-116.39-87.74Z"/><path class="g" d="M213.36,1247.21c-61.05,0-112.53,40.94-128.49,96.87H341.86c-15.96-55.93-67.45-96.87-128.49-96.87Z"/><path class="g" d="M563.91,1247.21c-61.05,0-112.53,40.94-128.49,96.87h256.99c-15.96-55.93-67.45-96.87-128.49-96.87Z"/><path class="g" d="M396.9,1205.71c-87.2,0-160.74,58.48-183.54,138.37h367.08c-22.8-79.88-96.34-138.37-183.54-138.37Z"/><path class="p" d="M1738.32,39.44c-28.4,0-52.35,19.05-59.78,45.06h119.55c-7.43-26.02-31.38-45.06-59.78-45.06Z"/><path class="p" d="M1901.4,39.44c-28.4,0-52.35,19.05-59.78,45.06h119.55c-7.43-26.02-31.38-45.06-59.78-45.06Z"/><path class="p" d="M1823.7,20.14c-40.57,0-74.78,27.21-85.38,64.37h170.77c-10.61-37.16-44.82-64.37-85.38-64.37Z"/><path class="i" d="M3.28,1327.05c-2.15,18.08-3.28,36.48-3.28,55.14,0,86.73,23.85,167.88,65.34,237.27H2938.26c80.47-81.56,142.59-181.26,179.68-292.41H3.28Z"/><rect class="b" x="688.47" y="1369.48" width="1788.37" height="112.18" rx="56.09" ry="56.09"/><path class="p" d="M2804.13,1373.75l-5.82-2.68c.12-.25,11.89-25.7,33.41-58.23,19.88-30.04,52.4-72.48,94.49-104.12l3.85,5.12c-41.36,31.08-73.4,72.91-93,102.53-21.25,32.11-32.81,57.12-32.93,57.37Z"/><path class="p" d="M2943.61,1214.06c2.7-5.98,.05-13.02-5.93-15.72-5.98-2.7-13.02-.05-15.72,5.93-2.7,5.98-.05,13.02,5.93,15.72,5.98,2.7,13.02,.05,15.72-5.93Z"/><path class="p" d="M2904.28,1190.01c2.7-5.98,.05-13.02-5.93-15.72-5.98-2.7-13.02-.05-15.72,5.93-2.7,5.98-.05,13.02,5.93,15.72,5.98,2.7,13.02,.05,15.72-5.93Z"/><path class="p" d="M2926.98,1293.06c2.7-5.98,.05-13.02-5.93-15.72s-13.02-.05-15.72,5.93c-2.7,5.98-.05,13.02,5.93,15.72,5.98,2.7,13.02,.05,15.72-5.93Z"/><path class="p" d="M2886.6,1252.8l-6.03-2.15c.11-.31,10.88-30.85,10.06-58.99l6.41-.19c.85,29.37-9.97,60.04-10.43,61.33Z"/><path class="p" d="M2858.89,1284.5l-1.15-6.3c.95-.17,23.52-4.12,53.86,4.44l-1.74,6.17c-28.92-8.17-50.75-4.34-50.97-4.3Z"/><path class="p" d="M2761.66,1365.44l-7.32,.24c-.01-.32-.99-32.36,4.37-76.61,4.95-40.87,16.5-100.9,43.34-154.77l6.56,3.27c-26.38,52.93-37.74,112.08-42.63,152.38-5.3,43.7-4.33,75.17-4.32,75.49Z"/><path class="p" d="M2822.56,1130.85c-.3-7.5-6.61-13.33-14.11-13.04-7.5,.3-13.33,6.61-13.04,14.11s6.61,13.33,14.11,13.04c7.5-.3,13.33-6.61,13.04-14.11Z"/><circle class="p" cx="2756.48" cy="1126.92" r="13.58" transform="translate(1290.38 3718.96) rotate(-82.74)"/><path class="p" d="M2845.97,1220.12c-.3-7.5-6.61-13.33-14.11-13.04-7.5,.3-13.33,6.61-13.04,14.11,.3,7.5,6.61,13.33,14.11,13.04,7.5-.3,13.33-6.61,13.04-14.11Z"/><path class="p" d="M2784.1,1199.61l-7.27,.88c-.04-.37-4.66-37.11-19.89-65.45l6.45-3.47c15.89,29.59,20.51,66.48,20.7,68.03Z"/><path class="p" d="M2771.98,1246.19l-4.4-5.86c.88-.66,21.94-16.25,57.33-23.01l1.37,7.19c-33.74,6.44-54.1,21.52-54.3,21.67Z"/><path class="p" d="M2694.79,1342.05c-23.22,0-42.8,15.57-48.87,36.84h97.73c-6.07-21.27-25.65-36.84-48.87-36.84Z"/><path class="p" d="M2828.1,1342.05c-23.22,0-42.8,15.57-48.87,36.84h97.73c-6.07-21.27-25.65-36.84-48.87-36.84Z"/><path class="p" d="M2764.59,1326.26c-33.16,0-61.13,22.24-69.8,52.62h139.6c-8.67-30.38-36.64-52.62-69.8-52.62Z"/><path class="m" d="M1097.05,1472.61c-22.16,0-40.85,14.86-46.64,35.16h93.28c-5.79-20.3-24.48-35.16-46.64-35.16Z"/><path class="m" d="M1036.42,1457.54c-31.65,0-58.35,21.23-66.62,50.23h133.25c-8.28-29-34.97-50.23-66.62-50.23Z"/><path class="k" d="M579.04,1303.12c-26.27,0-48.42,17.62-55.29,41.68h110.58c-6.87-24.06-29.02-41.68-55.29-41.68Z"/><path class="k" d="M729.88,1303.12c-26.27,0-48.42,17.62-55.29,41.68h110.58c-6.87-24.06-29.02-41.68-55.29-41.68Z"/><path class="k" d="M658.01,1285.26c-37.52,0-69.17,25.17-78.98,59.54h157.95c-9.81-34.37-41.45-59.54-78.98-59.54Z"/><path class="k" d="M1492.34,904.62c3.5-10.58,7.24-23.02,10.41-39.53,10.24-53.26,18.38-105.41,34.38-144.36,0-.02,0-.04,.02-.06,3.66-8.93,7.75-17.16,12.36-24.55,6.38-10.22,13.79-18.85,22.53-25.49,.71-.52,1.41-1.05,2.08-1.56,3.73-2.76,7.6-5.23,11.55-7.45,31.62-17.57,69.75-17.52,103.15-2.48,3.47,1.55,48.71,5.2,96.87,99.17,3.8,7.41,6.5,15.3,9.8,22.95,35.83,83.11,33.63,220.9,33.63,220.9,2.96,52.95,3.75,128.7-2.89,230.29,0,0-3.83,66.87,5.09,109.74h-319.3s24.7-186.75,0-263.39c-24.7-76.64-48.98-101.35-19.68-174.19Z"/><path class="k" d="M1739.6,698.5s73.1,70.07,203.31,255.11c117.05,166.33,221.53,347.84,148.6,347.67-72.93-.17-403.96-490.06-403.9-506.29s51.98-96.49,51.98-96.49Z"/><path class="k" d="M1671.8,747.08s-37.44,88.66-160,232.5c-110.17,129.31-265.56,211.51-278.17,148.55-12.61-62.95,314.25-431.97,327.02-434.68,12.76-2.71,111.15,53.62,111.15,53.62Z"/><path class="d" d="M1246.94,714.22c7.43-17.7,6.18-37.85-3.36-54.51-27.13-47.32-84.84-141.13-119.47-147.65-46.45-8.75,19.42,158.51,116.54,217.15l6.29-15Z"/><path class="n" d="M1206.07,1127.27c12.41,13.45,29.23,22.19,47.44,24.02,16.6,1.66,33.28-2.64,33.62-26.49,.68-47.71-21.91-325.17-31.03-427.76l-72.13-3.24s-42.77,328.23-24.81,367.71c11.31,24.85,32.65,50.32,46.9,65.78Z"/><path class="r" d="M1991.18,440.39c-42.37,47.86-114.03,55.72-166.85,19.71-22.68-15.46-42.65-32.26-58.49-48.3-33.4-33.84-79.4-50.58-120.11-58.74,8.65-49.95,37.53-102.7,79.59-136.59,65.84-53.05,182.47-64.75,254.04-12.78,71.57,51.97,68.46,159.66,18.94,227.85-2.18,3-4.56,5.95-7.11,8.84Z"/><path class="r" d="M2153.43,405.82c-30.98,35-83.37,40.74-122,14.41-16.59-11.3-31.19-23.59-42.76-35.32-24.42-24.74-58.05-36.98-87.82-42.95,6.33-36.52,27.44-75.09,58.19-99.87,48.14-38.79,133.41-47.34,185.74-9.34,52.33,38,50.06,116.74,13.85,166.6-1.59,2.19-3.33,4.35-5.2,6.47Z"/><path class="r" d="M1809.58,585.57c-60.65,40.29-159.28,42.29-213.45-6.37-54.17-48.66-40.03-139.27,8.63-193.44,48.66-54.17,201.85-61.74,256.02-13.08,54.17,48.66,25.6,161.87-51.2,212.89Z"/><path class="d" d="M1717.65,487.74l-108.74-9.72c-2.53,14.91-24.06,156.92-22.29,210.36,2.85,16.44,29.62,23.77,59.78,16.38,27.12-6.65,47.57-22.92,49.39-38.09l.13-.03c-1.06-32.04,12.93-126.78,21.73-178.9Z"/><path class="d" d="M1736.7,495.22c-40.3,88.62-137.6,133.29-194.3,109.45-56.7-23.84-51.33-107.17-11.03-195.79,40.3-88.62,106.77-114.4,163.47-90.55,56.7,23.84,82.16,88.27,41.85,176.89Z"/><path class="r" d="M1795.67,457.76s21.25-68.81-7.05-116.75c-28.3-47.95-112.55-96.89-184.41-28.93,0,0-47,52.63,16.85,99.22,63.85,46.59,74.09,1.68,86.83,55.73,12.73,54.05,58.92,43.78,60.4,55.45l27.39-64.72Z"/><path class="r" d="M1520.41,276.45c27.73-22.24,80.56-23.3,115.63,3.62,35.07,26.92,38.49,76.99,18.9,106.91-19.59,29.92-101.1,34.03-136.17,7.11-35.07-26.92-33.47-89.47,1.64-117.63Z"/><path class="d" d="M1758.15,527.27c-9.19,23.49-42.85,45.67-58.82,39.94-15.97-5.73-12.51-26.2-3.32-49.69,9.19-23.49,30.74-40.81,46.71-35.09,15.97,5.73,24.62,21.35,15.42,44.83Z"/><path class="f" d="M1601.94,981.77c5.82,6.75,9.38,15.4,16.07,21.28,8.13,7.14,19.96,9.08,30.54,6.8,1.19-.26,2.37-.57,3.53-.92v-238.45h-58.2v204.36c2.99,1.91,5.72,4.22,8.06,6.94Z"/><path class="r" d="M1648.55,1009.85c-10.57,2.28-22.41,.35-30.54-6.8-6.7-5.88-10.25-14.53-16.07-21.28-2.34-2.72-5.07-5.03-8.06-6.94v92.57c0,16.07,13.03,29.1,29.1,29.1h0c16.07,0,29.1-13.03,29.1-29.1v-58.47c-1.16,.35-2.34,.66-3.53,.92Z"/><path class="d" d="M1764.24,962.81s-145.3-108.42-189.48-96.87c-44.17,11.55,82.44,130.38,191.47,141.47l-1.99-44.6Z"/><path class="n" d="M2049.36,1320.17c19.46,1.08,38.8-4.72,54.07-16.83,13.92-11.04,23.49-26.7,6.05-45.19-34.87-36.97-257.92-232.28-340.97-303.93l-57.54,51.01s210.75,282.59,253.75,299.44c27.08,10.61,62.27,14.25,84.63,15.49Z"/><path class="f" d="M1198.57,581.09c13.03,5.47,23.4,15.66,35.11,23.58,11.71,7.92,26.57,13.7,39.83,8.81,15.76-5.81,22.73-23.68,33.59-36.49,11.21-13.21,27.93-21.6,45.22-22.69,12.99-.82,26.92,2.12,38.46-3.92,13.77-7.21,18.49-24,27.39-36.9-18.73-24.02-49.1-42.02-85.07-49.34-5.42-1.1-9.28-5.92-9.28-11.45v-119.01c3.7-1.28,6.36-4.79,6.36-8.92,0-5.22-4.23-9.45-9.45-9.45h-47.45c-5.22,0-9.45,4.23-9.45,9.45,0,4.14,2.66,7.64,6.36,8.92v119.01c0,5.53-3.86,10.34-9.28,11.45-60.58,12.33-105.25,54.93-105.25,105.6,0,3.22,.2,6.4,.55,9.55,14.11-3.76,28.99-3.81,42.35,1.79Z"/><path class="q" d="M1390.78,550.39c-11.53,6.03-25.47,3.1-38.46,3.92-17.29,1.09-34.01,9.48-45.22,22.69-10.87,12.8-17.84,30.68-33.59,36.49-13.26,4.89-28.12-.89-39.83-8.81-11.71-7.92-22.07-18.11-35.11-23.58-13.36-5.6-28.24-5.55-42.35-1.79,4.68,41.68,39.64,76.65,87.82,91.71h105.95c51.81-16.19,88.37-55.43,88.37-101.26,0-20.58-7.37-39.83-20.18-56.26-8.9,12.91-13.62,29.7-27.39,36.9Z"/><path class="p" d="M1317.5,278.43c1.69-7.56,1.89-15.38,.46-22.43-.75-3.52-1.87-6.85-3.49-9.81-1.61-2.96-3.65-5.55-5.97-7.78-1.12-1.15-2.46-2.11-3.72-3.08l-2.04-1.32c-.65-.46-1.44-.79-2.14-1.19-1.39-.82-2.98-1.42-4.45-2.11-.76-.32-1.58-.57-2.36-.86-.8-.26-1.54-.6-2.39-.8-3.26-.95-6.61-1.71-10.07-2.23-1.74-.25-3.42-.58-5.21-.71l-2.64-.26-1.31-.13-1.34-.06-5.43-.26c-2.19-.15-4.39-.23-6.59-.51-4.4-.46-8.78-1.28-13.14-2.31-4.37-1.02-8.64-2.45-12.87-4.04-4.23-1.62-8.32-3.58-12.33-5.72-3.99-2.18-7.84-4.62-11.55-7.28-3.69-2.68-7.21-5.58-10.58-8.66-3.34-3.11-6.48-6.42-9.47-9.87-2.98-3.46-5.71-7.11-8.29-10.88-10.24-15.11-17.17-32.45-20.24-50.8-.76-4.59-1.26-9.25-1.48-13.96-.23-4.7-.24-9.46,.14-14.23,.36-4.77,.97-9.57,1.94-14.34,.97-4.78,2.29-9.53,3.93-14.22,3.33-9.35,8.01-18.48,14.22-26.62,6.11-8.21,13.65-15.42,21.96-21.26,4.17-2.88,8.48-5.57,12.95-7.78,1.11-.59,2.23-1.11,3.36-1.62,1.14-.51,2.22-1.04,3.43-1.53,2.43-.95,4.8-1.96,7.38-2.73,10.05-3.36,21.65-4.94,33.01-3.7,2.85,.25,5.63,.77,8.4,1.29,2.72,.64,5.46,1.3,8.05,2.18,5.21,1.72,10.18,3.84,14.69,6.3,9.11,4.87,16.85,10.71,23.66,16.79,6.89,6.06,12.84,12.44,18.43,18.83,5.61,6.38,10.65,12.89,15.57,19.32,9.74,12.92,18.61,25.74,27.43,38.1,8.84,12.3,17.6,24.19,26.96,34.68,9.35,10.5,19.29,19.56,30.14,25.5,1.36,.71,2.73,1.45,4.12,2.04,1.38,.7,2.79,1.19,4.2,1.79,.71,.26,1.43,.48,2.15,.73l1.08,.37,1.09,.3,2.19,.61,2.11,.43c5.64,1.12,11.33,1.31,17.07-.08,11.53-2.51,23.24-10.92,32.96-21.9,2.5-2.7,4.83-5.61,7.12-8.61,2.3-2.99,4.49-6.1,6.6-9.3,2.12-3.2,4.16-6.48,6.11-9.85,1.97-3.36,3.85-6.8,5.63-10.31l.92,.24c-.65,7.98-2.32,15.83-4.48,23.63-1.14,3.88-2.38,7.76-3.85,11.59-1.5,3.81-3.12,7.62-5.01,11.35-3.75,7.47-8.42,14.73-14.4,21.38-5.91,6.67-13.43,12.58-22.27,16.76-8.8,4.28-18.98,6.25-28.84,6.15l-3.71-.06c-1.2-.08-2.38-.19-3.58-.3l-1.79-.17-1.77-.26c-1.18-.18-2.37-.34-3.55-.56-4.69-.89-9.32-2.11-13.78-3.68-4.43-1.6-8.79-3.38-12.87-5.51-2.1-1.01-4.05-2.16-6.06-3.27l-2.92-1.75c-.97-.58-1.94-1.17-2.87-1.8l-2.8-1.86c-.92-.63-1.82-1.28-2.73-1.92-1.84-1.27-3.55-2.62-5.32-3.95-3.45-2.69-6.78-5.49-9.97-8.34-12.8-11.44-23.74-23.77-34.03-36.06-10.28-12.26-19.81-24.6-29.34-36.15-9.47-11.55-19.02-22.49-28.7-30.99-2.41-2.14-4.84-4.05-7.23-5.78-2.39-1.78-4.75-3.22-7.06-4.5-2.31-1.3-4.56-2.22-6.73-2.96-1.09-.41-2.14-.64-3.2-.95-1.05-.18-2.09-.45-3.13-.53-2.08-.24-4.14-.34-6.31-.08-2.17,.21-4.42,.57-6.79,1.31-1.17,.28-2.4,.8-3.62,1.2-.61,.21-1.29,.54-1.93,.8-.65,.27-1.31,.54-1.93,.85-2.57,1.13-4.93,2.5-7.24,3.93-2.3,1.44-4.4,3.1-6.42,4.83-2.04,1.72-3.88,3.65-5.61,5.69-.89,1-1.67,2.1-2.49,3.17-.76,1.12-1.54,2.23-2.24,3.41-1.43,2.33-2.75,4.78-3.85,7.39-4.49,10.37-6.33,22.72-5.41,35.25,.86,12.55,4.44,25.26,10.34,36.8,5.93,11.53,14.24,21.87,24.63,29.8,2.61,1.95,5.32,3.8,8.16,5.48,2.85,1.64,5.79,3.19,8.87,4.48,3.07,1.31,6.22,2.51,9.49,3.43,1.62,.53,3.28,.9,4.94,1.35l6.13,1.46,1.54,.37,1.55,.45,3.08,.9c2.05,.55,4.1,1.34,6.14,2.05,4.07,1.47,8.08,3.34,11.98,5.44,.98,.48,1.93,1.14,2.89,1.7,.95,.6,1.91,1.15,2.84,1.79,1.83,1.36,3.7,2.58,5.39,4.16,.85,.78,1.74,1.46,2.52,2.32l2.38,2.5c1.48,1.79,2.95,3.55,4.16,5.52,2.52,3.86,4.37,8.13,5.44,12.48,1.07,4.35,1.44,8.75,1.15,13-.28,4.25-1.07,8.35-2.32,12.25-1.25,3.89-2.84,7.6-4.95,11.03l-.86-.39Z"/><path class="f" d="M1461.3,1355.58c30.49-16.44,32.17-65.26,63.7-79.59,10.52-4.78,22.52-4.64,33.83-7.01,7.77-1.63,15.2-4.58,22.03-8.57-21.8-21.56-53.29-36.98-89.43-42.34v-136.11c3.91-1.35,6.72-5.06,6.72-9.43,0-5.51-4.47-9.98-9.98-9.98h-50.13c-5.51,0-9.98,4.47-9.98,9.98,0,4.37,2.81,8.07,6.72,9.43v136.11c-68.93,10.23-121,57.05-121,113.29,0,7.33,.9,14.5,2.59,21.45,10.89-6.65,22.89-10.76,36-10.95,37.48-.54,75.94,31.52,108.93,13.73Z"/><path class="s" d="M1580.86,1260.41c-6.83,4-14.26,6.95-22.03,8.57-11.31,2.37-23.31,2.23-33.83,7.01-31.53,14.33-33.21,63.15-63.7,79.59-32.99,17.79-71.45-14.27-108.93-13.73-13.11,.19-25.12,4.3-36,10.95,9.49,38.96,44.32,71.01,90.77,85.53h111.94c54.74-17.11,93.36-58.56,93.36-106.98,0-26.75-11.79-51.37-31.58-70.94Z"/><path class="p" d="M1827.94,1368.27c-11.32-10.98-27.76-19.69-42.49-14.04-9.76,3.74-16.74,13.14-26.81,15.97-12.2,3.42-25.11-4.08-33.01-13.99-7.9-9.91-12.35-22.07-18.89-32.93-9.16-15.2-22.68-27.63-38.37-35.91-19.6,16.76-31.54,38.97-31.54,63.33,0,39.66,31.64,73.61,76.47,87.63h91.69c23.85-7.46,43.97-20.55,57.57-37.15-.19-.11-.39-.2-.58-.32-13.63-7.94-22.72-21.62-34.04-32.6Z"/><path class="f" d="M1787.47,1258.76v-120.6c3.91-1.35,6.72-5.06,6.72-9.43,0-5.51-4.47-9.98-9.98-9.98h-50.13c-5.51,0-9.98,4.47-9.98,9.98,0,4.37,2.81,8.07,6.72,9.43v120.6c-24.49,4.49-46.13,14.66-62.45,28.61,15.69,8.28,29.21,20.7,38.37,35.91,6.54,10.85,10.99,23.02,18.89,32.93,7.9,9.91,20.81,17.42,33.01,13.99,10.06-2.83,17.05-12.22,26.81-15.97,14.72-5.65,31.16,3.07,42.49,14.04,11.32,10.98,20.41,24.66,34.04,32.6,.19,.11,.39,.21,.58,.32,11.97-14.6,18.9-31.91,18.9-50.48,0-44.66-40.1-82.07-93.99-91.94Z"/><path class="l" d="M2158.34,698.27l-6.36,15.46c-6.15,14.96,.99,32.07,15.95,38.22l35.74,14.7c8.24,3.39,17.72,1.34,23.83-5.16l2.76-2.94c3.22-3.43,8.22-4.51,12.57-2.73h0c4.35,1.79,7.14,6.08,7.02,10.78l-.11,4.03c-.24,8.91,5.06,17.04,13.3,20.43l37.45,15.4c14.96,6.15,32.07-.99,38.22-15.95l6.36-15.46c7.05-17.15-1.13-36.77-18.28-43.82l-124.61-51.25c-17.15-7.05-36.77,1.13-43.82,18.28Z"/><path class="l" d="M759.69,773.41l6.46,15.42c6.25,14.92,23.41,21.94,38.32,15.69l35.64-14.93c8.22-3.44,13.46-11.61,13.16-20.52l-.13-4.03c-.16-4.7,2.61-9.01,6.95-10.83h0c4.34-1.82,9.35-.77,12.59,2.64l2.78,2.92c6.14,6.46,15.64,8.45,23.86,5.01l37.35-15.65c14.92-6.25,21.94-23.41,15.69-38.32l-6.46-15.42c-7.17-17.1-26.84-25.16-43.94-17.99l-124.27,52.07c-17.1,7.17-25.16,26.84-17.99,43.94Z"/><path class="d" d="M1334.71,611.98c10.57,0,19.15-8.57,19.15-19.15,0,10.57,8.57,19.15,19.15,19.15-10.57,0-19.15,8.57-19.15,19.15,0-10.57-8.57-19.15-19.15-19.15Z"/><path class="d" d="M1944.07,573.89c10.57,0,19.15-8.57,19.15-19.15,0,10.57,8.57,19.15,19.15,19.15-10.57,0-19.15,8.57-19.15,19.15,0-10.57-8.57-19.15-19.15-19.15Z"/><path class="d" d="M1527.39,803.65c10.57,0,19.15-8.57,19.15-19.15,0,10.57,8.57,19.15,19.15,19.15-10.57,0-19.15,8.57-19.15,19.15,0-10.57-8.57-19.15-19.15-19.15Z"/><path class="d" d="M1646.84,1172.92c10.57,0,19.15-8.57,19.15-19.15,0,10.57,8.57,19.15,19.15,19.15-10.57,0-19.15,8.57-19.15,19.15,0-10.57-8.57-19.15-19.15-19.15Z"/><path class="d" d="M1190.16,380.76c10.57,0,19.15-8.57,19.15-19.15,0,10.57,8.57,19.15,19.15,19.15-10.57,0-19.15,8.57-19.15,19.15,0-10.57-8.57-19.15-19.15-19.15Z"/><path class="d" d="M1568.39,170.17c10.57,0,19.15-8.57,19.15-19.15,0,10.57,8.57,19.15,19.15,19.15-10.57,0-19.15,8.57-19.15,19.15,0-10.57-8.57-19.15-19.15-19.15Z"/><path class="d" d="M1885.01,747.87c16.53,0,29.93-13.4,29.93-29.93,0,16.53,13.4,29.93,29.93,29.93-16.53,0-29.93,13.4-29.93,29.93,0-16.53-13.4-29.93-29.93-29.93Z"/><path class="d" d="M1497.46,1360.96c16.53,0,29.93-13.4,29.93-29.93,0,16.53,13.4,29.93,29.93,29.93-16.53,0-29.93,13.4-29.93,29.93,0-16.53-13.4-29.93-29.93-29.93Z"/><rect class="r" x="2202.08" y="1297.08" width="16.88" height="198.87" transform="translate(1490.21 3910.05) rotate(-106.29)"/><rect class="p" x="2228" y="1315.3" width="27.06" height="144.32" transform="translate(1538.61 3928.21) rotate(-106.29)"/><path class="r" d="M1916.14,1482.56c16.5,56.47,75.66,88.86,132.13,72.36,56.47-16.5,88.86-75.66,72.36-132.13-16.5-56.47-75.66-88.86-132.13-72.36-56.47,16.5-88.86,75.66-72.36,132.13Zm195.27-57.07c15.02,51.38-14.46,105.2-65.84,120.22-51.38,15.02-105.2-14.46-120.22-65.84-15.02-51.38,14.46-105.2,65.84-120.22,51.38-15.02,105.2,14.46,120.22,65.84Z"/><circle class="e" cx="2018.38" cy="1452.68" r="96.92"/><ellipse class="t" cx="1404.95" cy="818.95" rx="41.43" ry="126.9"/><ellipse class="t" cx="1404.95" cy="818.95" rx="41.43" ry="126.9" transform="translate(49.18 1716.97) rotate(-63.76)"/><ellipse class="t" cx="1404.95" cy="818.95" rx="126.9" ry="41.43" transform="translate(-217.31 705.65) rotate(-26.24)"/><circle class="k" cx="1323.69" cy="750.4" r="16.75" transform="translate(-186.4 563.67) rotate(-22.5)"/><circle class="s" cx="1375.84" cy="917.94" r="16.75"/><circle class="p" cx="1506.67" cy="793.69" r="16.75"/><circle class="t" cx="1009.8" cy="1405.28" r="44.04" transform="translate(-697.92 1125.63) rotate(-45)"/><circle class="t" cx="903.38" cy="1333.33" r="24.02" transform="translate(-678.21 1029.31) rotate(-45)"/><line class="t" x1="1049.54" y1="1386.31" x2="1155.53" y2="1336.71"/><line class="t" x1="923.13" y1="1347.77" x2="973.6" y2="1380.16"/><line class="t" x1="1155.53" y1="1336.71" x2="1217.82" y2="1358.05"/><line class="t" x1="884.99" y1="1348.78" x2="851.72" y2="1390.3"/><circle class="r" cx="1155.53" cy="1336.71" r="28.24" transform="translate(-549.63 873.59) rotate(-33.96)"/><circle class="p" cx="1221.12" cy="1359.18" r="14.12" transform="translate(-550.99 914.07) rotate(-33.96)"/><circle class="s" cx="851.72" cy="1390.3" r="14.12" transform="translate(-763.27 1614.24) rotate(-66.4)"/></svg>