<?xml version="1.0" encoding="UTF-8"?><svg id="a" xmlns="http://www.w3.org/2000/svg" xmlns:xlink="http://www.w3.org/1999/xlink" viewBox="0 0 3156.75 1662.17"><defs><style>.e,.f,.g,.h{fill:none;}.i{fill:#f9e1c3;}.j{fill:#f5cb98;}.k{fill:#e6e6e6;}.l{fill:#f6d2a6;}.m,.n,.o,.p,.q{fill:#fff;}.r,.s{fill:#f2bf80;}.t{fill:#f0b46a;}.u{fill:#999;}.v{fill:#a5a3b8;}.w{fill:#af7d61;}.x{fill:#adb1cc;}.y{fill:#d1a58c;}.z{fill:#d9d9d9;}.aa{fill:#6f728a;}.ab,.ac{fill:#8987a8;}.ad{fill:#5b5e78;}.ae{fill:#2d334a;}.af{fill:#383e56;}.ag{fill:#3b3e54;}.ah{fill:#828392;}.ai{fill:#454a5f;}.f{stroke-width:1.45px;}.f,.g,.h{stroke-miterlimit:10;}.f,.h{stroke:#383e56;}.g{stroke:#3b3e54;stroke-width:4px;}.aj{clip-path:url(#d);}.ak{clip-path:url(#b);}.al{clip-path:url(#c);}.h{stroke-width:7px;}.n{opacity:.6;}.o{opacity:.61;}.ac{opacity:.56;}.p{opacity:.76;}.s{opacity:.71;}.q{opacity:.63;}</style><clipPath id="b"><rect class="e" x="1880.41" y="216.43" width="806.06" height="1129.36"/></clipPath><clipPath id="c"><rect class="e" x="1134.43" y="37.34" width="852.53" height="1324.31"/></clipPath><clipPath id="d"><rect class="e" x="491.8" y="304.3" width="832.62" height="1183.55"/></clipPath></defs><path class="k" d="M3156.75,1129.67c0-418.74-339.45-758.19-758.19-758.19-71.58,0-140.82,9.93-206.46,28.44C2023.32,182.6,1759.53,42.71,1463.04,42.71c-439.77,0-807.61,307.68-900.12,719.49-12.09-2.53-24.61-3.88-37.46-3.88-100.37,0-181.73,81.36-181.73,181.73,0,12.47,1.26,24.64,3.65,36.41-148.57,38.18-268.28,148.27-319.89,290.95H3144.25c8.2-44.67,12.5-90.7,12.5-137.74Z"/><g class="ak"><g><g><path class="m" d="M2182.3,697.98s-137.3,654.52-205.34,878.66c0,0,82.93,76.44,159.91,54.87,126.98-35.59,101.8-514.51,68.1-747.84-11.43-79.13-22.66-185.69-22.66-185.69Z"/><path class="w" d="M2006.83,585.76c2.91-1.93,4.79-5.08,5.08-8.56,1.76-20.72,6.75-93.34-8.16-107.95-15.98-15.65-33.85,59.25-17.56,112.69,2.22,7.27,10.88,10.28,17.21,6.08l3.42-2.26Z"/><path class="m" d="M2021.97,591.23c-15.99-6.7-31.14-13.06-46.9-21.98-98.9,420,199.11,536.02,287.46,139.87,13.51-60.6-5.83-37.56-39.2-36.77,.03-9.11,.07-9.12,0,0-33.37,.79-37.86,.86-43.15,46.77-34.56,300.15-208.06,169.53-158.21-127.89Z"/><path class="m" d="M2467.85,1242.64c16.8,9.06,30.61,16.39,46.08,23.49,81.34-325.72,85.36-414.68-194.45-613.38-42.8-30.39-70.36,47.11-3.65,79.59,234.21,114.05,200.99,287.93,152.02,510.29Z"/><path class="m" d="M2145.58,2219.16c18.87,8.48,19.99,23.94,39.75,30.09,59.35-348.19,58.57-793.78,139.45-1108.52-52.28-11.29-104.68-21.98-157.08-32.7-62.76,367.18,56.43,695.55-22.13,1111.13Z"/><path class="ae" d="M2167.7,1108.03c52.4,10.72,104.8,21.41,157.08,32.7-75.07,292.13-74.46,696.11-122.21,1031.18l-49.79,5.91c63.57-396.2-45.74-714.87,14.92-1069.78Z"/><path class="m" d="M2288.76,2223.7c19.38,7.24,21.5,22.6,41.62,27.45,36.69-351.31,7.07-795.9,67.42-1115.22-52.9-7.88-105.88-15.16-158.86-22.46-38.86,370.47,101.32,690.44,49.83,1110.23Z"/><path class="ae" d="M2238.92,1113.46c52.98,7.31,105.96,14.59,158.86,22.46-56.01,296.37-29.25,699.47-55.21,1036.93l-49.3,9.12c37.8-399.49-91.91-710.41-54.35-1068.51Z"/><path class="aa" d="M2531.96,1678.64c-4.64-15.01-9.22-30.28-13.7-45.79-59.13-204.65-103.93-447.71-124.86-571.11-30.5-179.58-21.39-258.61-50.45-345.89-12.19-36.58-14.36-58.21-43.88-76.38-3.35-2.08-7.08-4.11-11.22-6.11-5.84-2.84-11.49-4.79-16.92-5.95-58.02-12.3-92.82,65.08-102.42,117.72-1.87,10.27-3.78,18.14-5.49,24.69v.05c-7.84,30.12-11.14,31.85,15.11,106.72,11.36,32.39-14.03,221.63-25.39,285.43-3.68,20.68-6.11,57.29-14.27,95.01-48.8,225.69-80.14,466.78-106.16,699.48-.91,8.13-1.83,16.28-2.72,24.39,23.82,.6,47.83-2.97,70.62-9.44,54.62-15.52,104.74-41.75,160.71-52.89,37.34-7.44,74.38-5.11,111.77,1.97,23.04,4.35,43.8,14.41,67.7,15.95,34.55,2.19,65.35-.68,96.6-20.79,20.55-13.22,51.37-15.03,70.05-42.1-26.64-51.97-51.84-119.85-75.09-194.98Z"/><path class="m" d="M2380.18,1666.56c61.08,.97,114.53-21.85,138.08-33.72-59.13-204.65-99.54-451.22-120.47-574.62-30.5-179.58-16.65-255.02-45.72-342.3-12.19-36.58-23.48-58.29-53-76.46,1.38,57.59-18.79,182.56-23.79,414.7-6.3,292,104.91,612.4,104.91,612.4Z"/><path class="m" d="M2161.01,769.81v.05s54.83-110.69,89.98-130.4c7.76-4.35,13.65-8.41,17.93-12.06-58.02-12.3-92.82,65.08-102.42,117.72-1.87,10.27-3.78,18.14-5.49,24.69Z"/><path class="w" d="M2477.61,1247.87c-17.47,22.54-54.62,73.32-50.55,92.57,4.58,21.67,57.46-26.07,77.6-78.7-8.93-4.33-17.64-8.85-27.05-13.87Z"/><path class="ae" d="M2252.5,571.01s16.39,65.9,96.12,45.28c79.73-20.62,87.98-103.1,77.67-140.21-10.31-37.12-72.41-99.72-148.07-53.47-75.65,46.25-25.71,148.4-25.71,148.4Z"/><path class="w" d="M2318.93,557.21c-36,45.87-97.14,57.97-125.17,35.97-28.03-22-12.34-69.78,23.66-115.65,36-45.87,77.05-51.37,105.08-29.37,28.03,22,32.43,63.18-3.57,109.05Z"/><path class="w" d="M2310.58,543.8l-60.44-9.84c-1.35,8.27-12.81,87.17-11.64,117.26,1.64,9.35,16.54,14.54,33.27,11.6,15.04-2.64,26.35-10.96,27.3-19.41h.07c-.7-18.05,6.74-70.7,11.44-99.62Z"/><path class="ae" d="M2361.83,449.12s-8.7-57.04,53.16-77.17c61.86-20.13,132.78,2.66,125.12,67.46-7.67,64.8-70.93,141.48-143.77,117.52-72.84-23.96-34.5-107.81-34.5-107.81Z"/><path class="ae" d="M2492.09,400.75s-6.59-43.2,40.26-58.45c46.85-15.24,100.57,2.02,94.76,51.1-5.81,49.08-53.72,107.15-108.89,89.01-55.17-18.15-26.13-81.65-26.13-81.65Z"/><path class="ae" d="M2253.67,443.1s70.02,42.9,41.1,128.48c-13.6,40.24,101.86-67.69,101.86-67.69,0,0-73.81-106.38-142.96-60.8Z"/><path class="w" d="M2327.19,589.2c-8.38,10.68-29.7,16.01-37.43,9.94-7.73-6.07-2.87-16.24,5.51-26.92s22.49-15.75,30.22-9.68c7.73,6.07,10.08,15.98,1.7,26.65Z"/></g><path class="n" d="M2177.75,451.36l-8.21,12.13c-7.94,11.73-4.86,27.68,6.87,35.62l28.04,18.97c6.47,4.38,14.97,4.3,21.36-.19l2.89-2.03c3.37-2.37,7.86-2.41,11.27-.1h0c3.41,2.31,5.04,6.49,4.1,10.5l-.81,3.44c-1.79,7.6,1.3,15.52,7.77,19.89l29.38,19.88c11.73,7.94,27.68,4.86,35.62-6.87l8.21-12.13c9.1-13.45,5.58-31.74-7.88-40.84l-97.76-66.15c-13.45-9.1-31.74-5.58-40.84,7.88Z"/></g></g><g><path class="z" d="M600.72,1064.65c-137.97,0-254.31,92.53-290.39,218.92H891.11c-36.07-126.39-152.42-218.92-290.39-218.92Z"/><path class="z" d="M1392.94,1064.65c-137.97,0-254.31,92.53-290.39,218.92h580.77c-36.07-126.39-152.42-218.92-290.39-218.92Z"/><path class="z" d="M1015.51,970.87c-197.07,0-363.26,132.17-414.78,312.7h829.57c-51.52-180.53-217.72-312.7-414.78-312.7Z"/></g><g class="al"><g><g><path class="m" d="M1812.3,1237.53c-1.82,12.46-9.37,23.33-20.39,29.42-28.27,15.62-82.58,43.28-101.22,36.34-25.64-9.54,56.98-72.79,122.64-72.85l-1.04,7.09Z"/><g><path class="r" d="M1764.61,1237.48c18.49,8.3,32.73,19.96,51.13,29.78,6.71-11.58,13.3-23.17,19.73-34.77l-54.95-27.59c-5.41,11.08-10.74,21.96-15.91,32.58Z"/><path class="m" d="M1733.85,636.22c-69.74-33-66.84,55.97,3.59,85.1,226.7,93.77,126.18,313.29,43.09,483.58l54.95,27.59c126.42-227.87,192.4-457.12-101.63-596.27Z"/></g><path class="m" d="M1232.4,240.24c9.38-8.4,14.26-20.7,13.24-33.25-2.61-32.19-9.58-92.74-25.66-104.44-22.12-16.1-29.16,87.71,7.08,142.47l5.34-4.78Z"/><g><path class="r" d="M1260.74,216.95c-18.87,5.46-35.97,9.82-56.26,16.48,2.85,12.11,5.93,24.21,9.23,36.29l57.24-17.1c-3.57-11.78-6.98-23.67-10.22-35.67Z"/><path class="m" d="M1615.75,680.41c-186.08-80.98-287.56-239.12-344.79-427.79l-57.24,17.1c58.85,215.7,189.57,423.65,414.91,499.97,53.7,18.19,44.79-64.18-12.88-89.28Z"/></g><path class="af" d="M1720.89,1210.76l-62.98,295.96-63.29,296.01-8.18,37.5-.13,.6s-.07,.34-.04,.16l.09-.52c.06-.35,.11-.69,.15-1.04l.07-.66c.07-.86,.05-.98,.03-1.15,0,.01-.02,.03-.03,.04-.02,.03-.02,.19-.03,.28l-.02,.16v.25l-.04,.53c-.04,1.62,.03,4,.16,6.49,.28,5.05,.82,10.77,1.45,16.54,1.28,11.62,2.94,23.72,4.71,35.85,1.79,12.15,3.72,24.39,5.72,36.67,8.06,49.13,17.11,98.59,26.27,148.05l27.83,148.68c4.62,24.85,9.2,49.72,13.61,74.77,2.2,12.53,4.35,25.09,6.38,37.85,1.01,6.39,1.99,12.81,2.9,19.45,.45,3.33,.88,6.7,1.28,10.28,.19,1.82,.38,3.63,.55,5.66,.08,.98,.16,2.08,.23,3.19l.09,1.79,.06,2.07-63.25,1.9c-.02-.1-.04-.19-.05-.29l-.07-.56-.21-1.51c-.16-1.1-.37-2.42-.59-3.72-.45-2.67-.99-5.52-1.55-8.41-1.14-5.8-2.4-11.77-3.72-17.77-2.63-12.01-5.45-24.16-8.31-36.31-5.75-24.33-11.73-48.74-17.75-73.16l-36.41-146.85c-12.07-49.09-24.04-98.23-35.22-148.06-2.79-12.47-5.52-24.99-8.14-37.66-2.62-12.68-5.14-25.44-7.4-38.77-1.12-6.71-2.19-13.48-3.07-20.99-.43-3.79-.83-7.69-1.07-12.37l-.07-1.84-.03-.93-.02-1.02-.02-2.08,.04-2.32c.06-1.74,.13-3.44,.39-5.86l.09-.85c.03-.25,.07-.59,.13-.98l.34-2.21,.35-2.09,5.85-36.8,46.32-298.84,46.04-298.99,130.56,23.89Z"/><path class="af" d="M1615.7,1207.91c-40.28,96.31-80.4,192.85-120.2,289.38-19.9,48.28-39.72,96.57-59.36,144.89-9.82,24.16-19.59,48.32-29.27,72.47-9.67,24.15-19.28,48.32-28.57,72.33l-6.85,17.93c-2.23,5.93-4.44,11.87-6.46,17.52l-1.46,4.15-.7,2.01-.61,1.83-.97,2.93c0-.05-.03,0-.05-.15,.06-.31,.11-.63,.16-.94l.1-.81,.04-.44,.02-.36c0-.08,0-.17-.02-.25,0,.04-.02,.1-.04,.15-.02,0-.03,.23-.04,.35-.01,.14-.03,.26-.04,.49l-.03,.61-.02,.72c-.02,.47-.02,1.05-.02,1.61,0,2.29,.07,5,.21,7.8,.27,5.63,.72,11.69,1.25,17.81,.54,6.14,1.15,12.39,1.82,18.68,1.34,12.58,2.85,25.32,4.46,38.09,3.22,25.56,6.76,51.27,10.43,77.01,3.67,25.74,7.47,51.52,11.33,77.31l23.56,155c3.93,25.89,7.84,51.79,11.6,77.84,1.88,13.03,3.72,26.08,5.45,39.29,.86,6.61,1.7,13.25,2.47,20.06,.38,3.41,.75,6.86,1.08,10.48,.16,1.82,.32,3.66,.46,5.67,.13,2.03,.27,4.03,.31,6.86l-63.25,1.9-.35-2.91c-.16-1.25-.36-2.66-.58-4.08-.43-2.87-.93-5.9-1.45-8.95-1.05-6.12-2.21-12.4-3.4-18.69-2.39-12.6-4.94-25.31-7.52-38.03-5.18-25.45-10.55-50.98-15.94-76.52l-32.47-153.55c-5.36-25.65-10.68-51.34-15.87-77.11-5.19-25.77-10.29-51.61-15.11-77.69-2.41-13.05-4.74-26.16-6.94-39.47-1.1-6.66-2.15-13.37-3.15-20.21-.99-6.85-1.93-13.79-2.72-21.18-.39-3.71-.75-7.53-1.01-11.76-.06-1.07-.13-2.13-.17-3.29l-.06-1.73-.04-1.84v-1.96c0-.7-.02-1.29,0-2.1l.07-2.3,.17-2.7,.06-.75,.08-.83,.18-1.66c.03-.26,.06-.55,.12-.94l.16-1.08,.36-2.15c.34-1.74,.68-3.28,1.06-4.93l.86-3.43,.42-1.64,.39-1.43,.79-2.86,.76-2.67,1.52-5.18c2.01-6.78,4.03-13.21,6.06-19.63l6.13-19.06c8.23-25.23,16.62-50.12,25.07-75,8.45-24.86,16.97-49.66,25.53-74.43,17.11-49.54,34.37-98.97,51.7-148.37,34.68-98.8,69.59-197.4,104.77-296.06l123.76,47.97Z"/><path class="r" d="M1738.13,1205.59c3.84-13.29,7.59-26.64,10.99-39.72,2.24-8.64,4.23-17.29,6.01-25.59,4.06-18.91,7.37-37.91,10.69-56.54,1.57-8.82,2.59-17.35,3.73-25.7,2.82-20.65,5.06-41.1,6.85-61.48,.78-8.81,1.84-17.13,1.95-25.66,.71-55.74,.39-114.85-4.81-169.33-3.04-31.84-2.22-63.34-9.72-92.09-22.4-85.91-57.94-115.63-144.08-81.54-31.94,16.73-59.62,79.74-57.6,140.53,2.22,66.81,2.97,148.16-12.1,217.72-.92,4.27-2.54,11.29-4.1,16.68-2.23,7.66-4.38,15.71-6.98,24.32-3.63,12.04-7.6,24.82-12.01,37.5-2.66,7.65-5.57,15.98-8.78,24.31-5.69,14.74-12.73,30.34-20.06,44.74-2.04,4.01-4.75,8.87-6.91,12.58-2.16,3.71-4,6.84-6.1,10.23-4.97,8.03-10.52,16.24-15.43,24.01-4.9,7.77-9.61,14.53-14.49,22.1-2.12,3.29-4.23,6.55-6.28,9.96,14.35,6.45,28.17,12.54,43.82,15.54,40.62,7.8,84.51,7.5,124.44,16.78,35.3,8.21,64.24,25.57,97.15,38.92,5.16-17.62,10.94-35.73,16.26-53.29,2.56-8.43,5.18-16.79,7.54-24.96Z"/><path class="ae" d="M1654.2,413.19s-49.79,2.84-48.25,34.29c1.54,31.45,57.56-3.83,57.56-3.83,0,0,14.08-35.33-9.31-30.46Z"/><path class="m" d="M1696.29,548.92c-44.75,42-110.29,44.88-135.96,17.53-25.67-27.35-1.75-74.57,43.01-116.57,44.75-42,88.34-41.21,114-13.86,25.67,27.35,23.7,70.89-21.05,112.9Z"/><path class="m" d="M1700.7,528.5l-63.81-9.12c-1.26,8.74-11.7,92-9.85,123.64,1.92,9.81,17.7,14.97,35.25,11.53,15.77-3.09,27.5-12.08,28.34-20.98h.08c-1.11-18.98,5.64-74.54,9.99-105.07Z"/><path class="ae" d="M1562.86,496.38c.94-.11,1.88,.15,2.64,.71l.02,.02c5.92,4.36,32.42,24.95,28.52,41.87-4.38,19.03-16.5-6-18.26-17.85-1.76-11.86-11.3-9.53-18.03-11.55-6.44-1.94-5.51-11.96,5.11-13.18Z"/><path class="ae" d="M1730.89,528.66s19.79-36.36,9.1-68.51-53.04-73.69-101.48-45.8c0,0-32.6,22.96-1.57,59.93,31.03,36.97,41.89,12.66,43.05,45.87,1.16,33.21,28.55,34.57,28.08,41.54l22.82-33.04Z"/><path class="m" d="M1700.7,607.84s15.96,255.76,6.05,341.15c-14.88,128.22-69.94,450.96-69.94,450.96l79.5,11.98s62.32-318.08,62.32-447.78c0-120.51,15.83-343.23-77.93-356.3Z"/><path class="m" d="M1619.74,627.93s-24.27,16.39-35.18,160.63c-10.9,144.24-36.8,416.26-135.65,567.72l-103.77-4.87s133.68-179.88,162.73-347.56c29.05-167.67,40.89-370.66,111.86-375.93Z"/><path class="j" d="M1699.11,556.03s25.38-92.69-70.68-137.07c0,0,18.86-22.62,49.25-21.94,30.4,.68,107.95,49.69,114.79,87.87,0,0,7.53,26.38-14.51,22.69-22.04-3.69-21.9,.3-26.06,8.93-4.16,8.63-25.22,63.73-52.79,39.51Z"/><path class="m" d="M1708.5,575.36c-10.42,9.78-33.45,11.94-40.53,4.39-7.08-7.54-.41-17.36,10.01-27.13,10.42-9.78,25.9-12.81,32.98-5.26,7.08,7.54,7.95,18.23-2.47,28Z"/></g><path class="ac" d="M1553.61,414.55l-9.99,10.71c-9.67,10.36-9.1,26.59,1.25,36.26l24.75,23.09c5.71,5.33,14.12,6.57,21.12,3.13l3.17-1.56c3.7-1.82,8.13-1.16,11.15,1.65h0c3.01,2.81,3.98,7.19,2.42,11.01l-1.33,3.27c-2.95,7.23-1.12,15.53,4.58,20.86l25.93,24.2c10.36,9.67,26.59,9.1,36.26-1.25l9.99-10.71c11.08-11.88,10.44-30.49-1.44-41.57l-86.3-80.53c-11.88-11.08-30.49-10.44-41.57,1.44Z"/></g></g><path class="u" d="M514.31,1055.97c-29.02,8.82-51.73,23.95-61.92,31.51-.21-.86-.43-1.72-.64-2.59-5.56-22.2-12.46-47.11-20.9-73.81,11.67-2.31,39.25-9.09,66.28-25.58,35.53-21.68,56.61-51.92,56.61-51.92,0,0-36.53,4.91-72.07,26.59-26.14,15.95-44.44,36.51-52.3,46.28-7.08-22.11-15.23-45.39-24.56-69.36,10.93-5.37,35.49-18.93,57.09-41.46,28.81-30.04,41.46-64.67,41.46-64.67,0,0-34.06,14.09-62.87,44.13-20.13,20.99-32.36,44.2-37.9,56.29-9.44-23.88-20.08-48.39-32.01-73.04,9.96-6.95,32.21-24.11,50.16-49.72,23.89-34.09,31.11-70.23,31.11-70.23,0,0-31.51,19.12-55.4,53.21-16.46,23.49-25,47.95-28.73,60.89-8.15-16.57-16.89-33.18-26.27-49.69,6.63-10.28,20.64-34.49,27.55-64.85,9.23-40.59,2.25-76.78,2.25-76.78,0,0-21.95,29.61-31.18,70.2-5.61,24.66-5.23,47.69-4.07,61.97-6.71-11.49-13.73-22.92-21.07-34.23-3.64-13.85-10.94-35.74-24.46-57.19-22.19-35.21-52.74-55.85-52.74-55.85,0,0,5.44,36.46,27.64,71.67,13.37,21.22,29.76,37.13,40.69,46.44,7.61,11.7,14.85,23.52,21.78,35.41-12.54-5.08-36.93-13.41-65.41-14.98-41.56-2.3-76.07,10.65-76.07,10.65,0,0,32.87,16.67,74.43,18.97,31.56,1.74,59.04-5.3,70.45-8.79,9.47,16.55,18.28,33.22,26.5,49.85-12.44-1.35-39.96-2.96-69.76,4.27-40.45,9.8-69.75,32.17-69.75,32.17,0,0,36.29,6.47,76.74-3.34,30.74-7.45,55.02-22.14,64.92-28.77,12.34,25.27,23.29,50.42,33,74.92-12.44-2.45-39.48-6.36-69.5-1.84-41.16,6.19-72.32,25.89-72.32,25.89,0,0,35.58,9.65,76.74,3.45,31-4.67,56.32-16.98,66.94-22.78,9.46,24.19,17.7,47.7,24.86,70-12.51-2.9-39.16-7.66-69.02-4.26-41.36,4.71-73.21,23.26-73.21,23.26,0,0,35.2,10.93,76.56,6.22,30.75-3.5,56.23-14.65,67.29-20.14,8.32,26.34,15.13,50.92,20.63,72.83,.28,1.1,.55,2.19,.82,3.27-8.27-1.18-39.9-4.75-74.63,3.66-40.45,9.8-69.75,32.17-69.75,32.17,0,0,36.29,6.47,76.74-3.33,34.74-8.42,61.23-26.09,68.03-30.92,22.2,89.97,27.72,154.16,27.77,154.81l10.16-.85c-.05-.65-5.5-64.13-27.29-153.36,12.55,.63,40.04,.63,69.29-8.26,39.83-12.1,67.8-36.11,67.8-36.11,0,0-36.6-4.38-76.43,7.72Z"/><path class="u" d="M266.21,1095.56c-15.5,10.3-26.18,23.19-30.84,29.43-.28-.47-.55-.94-.84-1.41-7.18-12.07-15.63-25.49-25.29-39.7,6.45-3.41,21.47-12.26,34.45-26.71,17.06-19,24.13-40.49,24.13-40.49,0,0-20.61,9.32-37.67,28.33-12.55,13.98-19.69,29.29-22.58,36.41-8.06-11.75-16.95-24-26.66-36.44,5.48-5.08,17.52-17.38,26.25-34.43,11.64-22.73,12.97-45.31,12.97-45.31,0,0-17.54,14.28-29.18,37.02-8.13,15.88-11.23,31.68-12.36,39.76-9.76-12.37-20.33-24.9-31.68-37.29,4.63-5.84,14.68-19.85,20.72-38.06,8.03-24.24,5.91-46.76,5.91-46.76,0,0-15.15,16.79-23.19,41.03-5.54,16.7-6.25,32.59-6.15,40.85-7.71-8.3-15.77-16.52-24.19-24.58,2.08-7.21,6.06-23.91,4.77-42.97-1.73-25.48-12.21-45.52-12.21-45.52,0,0-7.68,21.27-5.96,46.75,1.05,15.48,5.33,28.95,8.53,37.14-5.97-5.57-12.11-11.05-18.42-16.41-4.58-7.5-12.73-19.08-24.45-29.3-19.25-16.79-40.84-23.53-40.84-23.53,0,0,9.62,20.47,28.87,37.25,11.6,10.11,24.04,16.58,32.1,20.12,6.53,5.53,12.87,11.21,19.04,16.98-8.27-.78-24.07-1.37-41.09,2.72-24.83,5.97-42.83,19.67-42.83,19.67,0,0,22.26,4.01,47.09-1.97,18.86-4.54,33.77-13.52,39.85-17.58,8.48,8.06,16.59,16.3,24.36,24.63-7.55,1.4-24.01,5.3-40.25,14.8-22.05,12.89-35.33,31.2-35.33,31.2,0,0,22.47-2.59,44.52-15.48,16.75-9.79,28.44-22.71,33.08-28.35,11.71,12.68,22.58,25.53,32.59,38.22-7.74,.75-24.32,3.22-41.17,11.17-23.1,10.89-37.95,27.96-37.95,27.96,0,0,22.61-.6,45.71-11.49,17.4-8.2,30.11-19.91,35.33-25.19,9.82,12.55,18.81,24.92,26.94,36.77-7.86,.5-24.36,2.4-41.32,9.66-23.48,10.05-38.93,26.57-38.93,26.57,0,0,22.62,.22,46.09-9.83,17.46-7.47,30.47-18.52,36-23.69,9.53,14.01,17.86,27.26,24.96,39.17,.35,.6,.71,1.19,1.06,1.78-5.07,.76-24.29,4.24-43.22,15.3-22.05,12.89-35.33,31.2-35.33,31.2,0,0,22.47-2.59,44.52-15.48,18.93-11.07,31.39-26.12,34.54-30.16,28.9,48.97,43.45,85.72,43.6,86.09l5.82-2.29c-.15-.37-14.53-36.72-43.06-85.33,7.49-1.84,23.64-6.68,39.27-17.06,21.27-14.13,33.48-33.17,33.48-33.17,0,0-22.28,3.87-43.56,18.01Z"/><g><path class="aa" d="M262.59,1176.06c-59.83,0-110.29,40.13-125.94,94.94h251.87c-15.64-54.81-66.1-94.94-125.94-94.94Z"/><path class="aa" d="M606.16,1176.06c-59.83,0-110.29,40.13-125.94,94.94h251.87c-15.64-54.81-66.1-94.94-125.94-94.94Z"/><path class="aa" d="M442.48,1135.39c-85.46,0-157.54,57.32-179.88,135.61h359.77c-22.35-78.29-94.42-135.61-179.88-135.61Z"/></g><g class="aj"><g><g><path class="m" d="M658.27,1293.78c13.81-11.51,29.64-22.36,45.11-34.69-199.43-229-177.28-415.01,128.21-510.53,52.46-16.4,60.17-24.18,33.1-64.83,8.78-7.55,8.87-7.5,0,0-27.07-40.65-40.52-31.27-88.74-7.35-315.25,156.38-374.71,355.42-117.68,617.4Z"/><path class="y" d="M1275.97,714.41s-14.37-110.53-38.38-125.07c-24.01-14.54-22.23,92.2,19.56,145.05l18.82-19.98Z"/><path class="m" d="M878.9,676.72c29.63,9.59,22.5,6.06,52.01,14.18-.58-.14,29.18,6.91,29.2,7.27,32.21,257.42,290.98,398.01,275.03,15.4,20.28,1.1,33.65,2.6,53.9,3.04,23.08,429.15-352.75,369.23-407.79,18.35-4.3-27.43-2.22-32.62-2.35-58.24Z"/><path class="ae" d="M848.85,622.88s-70.09-30.09-86.39-101.41c-16.3-71.33,52.51-119.7,113.01-111.55,60.5,8.15,65.48,57.06,60.95,68.27-4.53,11.21-87.57,144.69-87.57,144.69Z"/><path class="ae" d="M906.98,431.91s48.39,14.83,39.27,45.45c-9.11,30.62-55.8-17.68-55.8-17.68,0,0-5.34-38.22,16.53-27.77Z"/><path class="af" d="M1235.14,2367.69c-19.13,11.42-38.76,21.61-58.96,31-130.96-390.1-195.97-809.35-324.79-1178.92,55.81-18.1,112.05-35.17,168.38-51.58,109.38,396.14,55.31,749.28,215.37,1199.5Z"/><path class="af" d="M594.02,2367.69c19.13,11.42,38.76,21.61,58.96,31,130.96-390.1,195.97-809.35,324.79-1178.92-55.81-18.1-112.05-35.17-168.38-51.58-109.38,396.14-55.31,749.28-215.37,1199.5Z"/><path class="ah" d="M972.21,1347.27c33.21,2.29,75.84-.3,91.52-5.52-27.65-152.31-75.29-424.83-83.02-571.37-3.05-58.68-22.32-89.82-43.11-105.82-5.12-3.92-10.34-6.86-15.24-9.15-35.17-17.96-70.01-19.16-97.12-4.24-22.21,11.98-39.3,34.62-47.47,67.5-6.1,24.39-4.46,43.77-1.96,76.32,11.54,154.82,7.34,390.72-13.34,570.69,50.3-3.05,131.91-32.12,182.86-21.77,3.92,.87,8.17,1.52,12.74,2.07"/><path class="y" d="M832.71,555.51c33.96,52.21,97.86,70.88,129.76,50.12,31.91-20.75,19.74-73.07-14.22-125.28-33.96-52.21-77.11-61.95-109.01-41.2-31.91,20.75-40.49,64.14-6.53,116.35Z"/><path class="y" d="M840.27,546.86l65.1-6.36c.88,8.91,7.7,93.79,4.39,125.78-2.39,9.85-18.62,14.37-36.26,10.1-15.85-3.85-27.34-13.48-27.78-22.55h-.08c1.98-19.2-2.35-75.83-5.38-106.97Z"/><path class="ae" d="M864.52,573.39c9.6-10.38,18.63-1.03,41.73,11.94,23.05,13,64.39,9.62,67.26-44.43,1.21-22.87,10.18-5.72,16.08,8.39,4.33,10.35,22.29,35.42,22.29,59.97,0,21.63-4.31,31.62-21.99,41.12-32.94,17.69-75.27-3.32-100-20.93-14.35-10.22-29.84-28.13-28.86-45.73,.24-4.33,1.32-7.97,3.5-10.33Z"/><path class="ae" d="M975.26,538.87s-.79,.41-2.21,1.18c-11.37,6.16-62.96,35.11-68.18,56.45-5.88,24,27.74-9.27,37.9-24.65,10.17-15.38,22.48-13.31,33.53-16.55,11.05-3.24,16.1-17.05-1.04-16.43Z"/><path class="ae" d="M803.5,527.19s-10.72-40.62,7.58-69.72c18.3-29.1,70.08-59.81,111.08-20.63,0,0,26.58,30.51-12.94,59.45-39.51,28.94-44.35,2.36-53.51,34.81-9.17,32.45-36.49,27.18-37.71,34.16l-14.51-38.07Z"/><path class="y" d="M817.17,585.14c7.9,12.15,30.08,19.85,38.88,14.12,8.8-5.72,4.59-17.01-3.31-29.16-7.9-12.15-22.43-18.88-31.23-13.16-8.8,5.72-12.24,16.04-4.34,28.2Z"/><path class="ae" d="M771.69,453.21s-21.78,0-18.06-34.53c3.72-34.53,23.37-46.21,38.25-43.56,14.87,2.66,39.31,12.71,32.93,45.93-6.37,33.22-53.12,32.16-53.12,32.16Z"/><path class="m" d="M922.34,655.41s19.83,150.96,55.42,439.76c35.59,288.8,44.91,336.11,44.91,336.11h73.2s-76.37-439.92-86.76-509.12c-10.39-69.21-10.57-250.04-86.76-266.75Z"/><path class="m" d="M836.5,646.06s-10.44,71.3-9.95,346.05c.49,274.75-15.59,419.82-15.59,419.82h-66.44s29.54-480.45,25.42-578.94c-4.12-98.49-.21-179.02,66.57-186.93Z"/><path class="y" d="M694.19,1266.22c-9.65,7.35-19.23,14.31-28.22,21.36,5.62,6.35,12.95,11.12,21.28,13.6,32.27,9.59,90.31,24.56,107.09,13.83,19.29-12.33-41.39-44.89-100.16-48.79Z"/></g><path class="ac" d="M840.9,546.73l6.82,12.96c6.6,12.54,22.11,17.35,34.65,10.76l29.96-15.76c6.91-3.64,10.86-11.16,9.91-18.92l-.43-3.5c-.5-4.09,1.59-8.06,5.23-9.98h0c3.65-1.92,8.1-1.39,11.19,1.34l2.65,2.34c5.86,5.17,14.29,6.18,21.2,2.54l31.39-16.52c12.54-6.6,17.35-22.11,10.76-34.65l-6.82-12.96c-7.56-14.37-25.35-19.9-39.72-12.33l-104.46,54.96c-14.37,7.56-19.9,25.35-12.33,39.72Z"/></g></g><g><path class="r" d="M2800.39,728.02s13.55-29.01,.3-65.69c-13.25-36.68,16.36-52.08,30.96-39.83,14.61,12.24,20.87,52.91-31.26,105.53Z"/><path class="r" d="M2771.57,749.14s-8.07-30.99-41.67-50.79c-33.6-19.8-20.62-50.54-1.56-50.43s49.83,27.44,43.23,101.21Z"/><path class="r" d="M2774.78,752.47s32.02,.2,59.48,27.89c27.46,27.69,54.06,7.54,49.26-10.9-4.8-18.44-38.86-41.54-108.74-16.99Z"/><path class="r" d="M2730.82,803.81s32.02,.2,59.48,27.89c27.46,27.69,54.06,7.55,49.26-10.9-4.8-18.44-38.86-41.54-108.74-16.99Z"/><path class="r" d="M2703.35,860s32.02,.2,59.48,27.89c27.46,27.69,54.06,7.55,49.26-10.9-4.8-18.44-38.86-41.54-108.74-16.99Z"/><path class="r" d="M2672.34,931.01s32.02,.2,59.48,27.89c27.46,27.69,54.06,7.55,49.26-10.9-4.8-18.44-38.86-41.54-108.74-16.99Z"/><path class="r" d="M2731.29,803.43s-8.07-30.99-41.67-50.79c-33.6-19.8-20.62-50.54-1.56-50.43s49.82,27.44,43.23,101.21Z"/><path class="r" d="M2697.96,865.02s-8.07-30.99-41.67-50.79c-33.6-19.8-20.62-50.54-1.56-50.43s49.82,27.44,43.23,101.21Z"/><path class="r" d="M2670.16,929.57s-8.07-30.99-41.67-50.79c-33.6-19.8-20.62-50.54-1.56-50.43,19.06,.11,49.82,27.44,43.23,101.21Z"/><path class="r" d="M2613.14,1225.65c1.7-.12,3.05-1.52,3.08-3.25,.01-.82,1.46-82.81,26.04-185.65,22.64-94.74,70.11-227.07,167.67-319.5,1.33-1.26,1.38-3.35,.13-4.68-1.26-1.33-3.35-1.38-4.68-.13-98.78,93.59-146.74,227.26-169.59,322.92-24.72,103.52-26.17,186.12-26.18,186.94-.03,1.83,1.43,3.33,3.26,3.36,.09,0,.19,0,.28,0Z"/></g><g><path class="r" d="M2984.33,917.47s17.02-20.47,14.1-52.76c-2.92-32.29,24.14-38.42,33.3-25.5,9.16,12.93,5.62,46.95-47.41,78.26Z"/><path class="r" d="M2956.7,928.38s.05-26.62-22.79-49.63c-22.84-23.01-5.92-44.99,9.39-40.88,15.3,4.11,34.28,32.58,13.41,90.51Z"/><path class="r" d="M2958.58,931.74s25.71,6.91,41.95,34.98c16.24,28.06,41.88,17.47,41.91,1.63,.03-15.84-22.48-41.6-83.86-36.61Z"/><path class="r" d="M2912.39,963.74s25.71,6.91,41.95,34.98c16.24,28.06,41.88,17.47,41.91,1.63,.03-15.84-22.48-41.6-83.86-36.61Z"/><path class="r" d="M2878.44,1003.13s25.71,6.91,41.95,34.98c16.24,28.06,41.88,17.47,41.91,1.63,.03-15.84-22.48-41.6-83.86-36.61Z"/><path class="r" d="M2838.53,1053.68s25.71,6.91,41.95,34.98c16.24,28.06,41.88,17.47,41.91,1.63,.03-15.84-22.48-41.6-83.86-36.61Z"/><path class="r" d="M2912.85,963.54s.05-26.62-22.79-49.63c-22.84-23.01-5.92-44.99,9.39-40.88,15.3,4.11,34.28,32.58,13.41,90.51Z"/><path class="r" d="M2873.05,1006.03s.05-26.62-22.79-49.63c-22.84-23.01-5.92-44.99,9.39-40.88,15.3,4.11,34.28,32.58,13.41,90.51Z"/><path class="r" d="M2837.08,1052.07s.05-26.62-22.79-49.63c-22.84-23.01-5.92-44.99,9.39-40.88s34.28,32.58,13.41,90.51Z"/><path class="r" d="M2728.75,1278.12c1.39,.26,2.78-.58,3.16-1.97,.18-.65,18.65-66.28,60.11-143.79,38.2-71.4,104.29-167.8,202.24-221.54,1.33-.73,1.82-2.4,1.09-3.74-.73-1.33-2.4-1.82-3.74-1.09-99.18,54.42-165.95,151.78-204.51,223.89-41.73,78.03-60.32,144.14-60.5,144.8-.41,1.46,.45,2.98,1.91,3.39,.08,.02,.15,.04,.23,.05Z"/></g><g><path class="m" d="M2111.36,148.18c-78.33,0-144.39,52.54-164.87,124.29h329.74c-20.48-71.76-86.54-124.29-164.87-124.29Z"/><path class="m" d="M2561.15,148.18c-78.33,0-144.39,52.54-164.87,124.29h329.74c-20.48-71.76-86.54-124.29-164.87-124.29Z"/><path class="m" d="M2346.86,94.93c-111.89,0-206.25,75.04-235.5,177.54h471c-29.25-102.5-123.61-177.54-235.5-177.54Z"/></g><g><path class="x" d="M2067.66,1462.36c-32.13,0-59.22,21.55-67.62,50.98h135.25c-8.4-29.43-35.49-50.98-67.62-50.98Z"/><path class="x" d="M2252.14,1462.36c-32.13,0-59.22,21.55-67.62,50.98h135.25c-8.4-29.43-35.49-50.98-67.62-50.98Z"/><path class="x" d="M2164.25,1440.52c-45.89,0-84.59,30.78-96.59,72.82h193.18c-12-42.04-50.7-72.82-96.59-72.82Z"/></g><g><path class="l" d="M281.52,163.61c-88.67,0-163.44,59.47-186.62,140.69H468.14c-23.18-81.23-97.96-140.69-186.62-140.69Z"/><path class="l" d="M790.66,163.61c-88.67,0-163.44,59.47-186.62,140.69h373.25c-23.18-81.23-97.96-140.69-186.62-140.69Z"/><path class="l" d="M548.09,103.34c-126.65,0-233.46,84.94-266.57,200.97H814.66c-33.11-116.02-139.92-200.97-266.57-200.97Z"/></g><g><path class="aa" d="M499.23,285.1c-30.56,0-56.34,20.5-64.33,48.49h128.65c-7.99-28-33.76-48.49-64.33-48.49Z"/><path class="aa" d="M674.72,285.1c-30.56,0-56.34,20.5-64.33,48.49h128.65c-7.99-28-33.76-48.49-64.33-48.49Z"/><path class="aa" d="M591.12,264.32c-43.65,0-80.47,29.28-91.88,69.27h183.77c-11.41-39.99-48.23-69.27-91.88-69.27Z"/></g><g><path class="u" d="M1541.11,27.96c-41.13,0-75.81,27.58-86.57,65.26h173.13c-10.75-37.68-45.44-65.26-86.57-65.26Z"/><path class="u" d="M1777.28,27.96c-41.13,0-75.81,27.58-86.57,65.26h173.13c-10.75-37.68-45.44-65.26-86.57-65.26Z"/><path class="u" d="M1664.76,0c-58.75,0-108.29,39.4-123.65,93.22h247.3c-15.36-53.82-64.9-93.22-123.65-93.22Z"/></g><g><path class="l" d="M1758.92,85.8c-25.25,0-46.54,16.93-53.14,40.06h106.27c-6.6-23.13-27.89-40.06-53.14-40.06Z"/><path class="l" d="M1903.88,85.8c-25.25,0-46.54,16.93-53.14,40.06h106.27c-6.6-23.13-27.89-40.06-53.14-40.06Z"/><path class="l" d="M1834.82,68.64c-36.06,0-66.47,24.18-75.9,57.22h151.8c-9.43-33.03-39.84-57.22-75.9-57.22Z"/></g><g><path class="ai" d="M2425.7,260.37c26.69,0,49.21,17.9,56.18,42.36h-112.37c6.98-24.45,29.49-42.36,56.18-42.36Z"/><path class="ai" d="M2272.42,260.37c26.69,0,49.21,17.9,56.18,42.36h-112.37c6.98-24.45,29.49-42.36,56.18-42.36Z"/><path class="ai" d="M2345.45,242.22c38.13,0,70.28,25.57,80.25,60.5h-160.51c9.97-34.93,42.12-60.5,80.25-60.5Z"/></g><path class="v" d="M27.5,1267.41c-17.78,49.17-27.5,102.19-27.5,157.49,0,86.73,23.85,167.88,65.34,237.27H2938.26c104.47-105.89,178.02-242.35,205.99-394.76H27.5Z"/><g><path class="l" d="M2514.02,1186.11c-72.19,0-133.08,48.42-151.95,114.55h303.9c-18.88-66.13-79.76-114.55-151.95-114.55Z"/><path class="l" d="M2928.56,1186.11c-72.19,0-133.08,48.42-151.95,114.55h303.9c-18.88-66.13-79.76-114.55-151.95-114.55Z"/><path class="l" d="M2731.06,1137.03c-103.12,0-190.08,69.16-217.05,163.63h434.09c-26.96-94.47-113.92-163.63-217.05-163.63Z"/></g><path class="ab" d="M2416.47,1473.84H740.28c-30.98,0-56.09-25.11-56.09-56.09s25.11-56.09,56.09-56.09h1676.19c30.98,0,56.09,25.11,56.09,56.09s-25.11,56.09-56.09,56.09Z"/><g><path class="ai" d="M276.2,1248.68c-27.48,0-50.65,18.43-57.83,43.6h115.66c-7.18-25.17-30.35-43.6-57.83-43.6Z"/><path class="ai" d="M433.97,1248.68c-27.48,0-50.65,18.43-57.83,43.6h115.66c-7.18-25.17-30.35-43.6-57.83-43.6Z"/><path class="ai" d="M358.8,1230.01c-39.25,0-72.34,26.32-82.6,62.27h165.21c-10.26-35.95-43.36-62.27-82.6-62.27Z"/></g><g><path class="aa" d="M2636.72,1273.2c-30.83,0-56.83,20.68-64.89,48.92h129.77c-8.06-28.24-34.06-48.92-64.89-48.92Z"/><path class="aa" d="M2813.74,1273.2c-30.83,0-56.83,20.68-64.89,48.92h129.77c-8.06-28.24-34.06-48.92-64.89-48.92Z"/><path class="aa" d="M2729.4,1252.25c-44.03,0-81.17,29.53-92.68,69.87h185.36c-11.51-40.34-48.65-69.87-92.68-69.87Z"/></g><g><path class="m" d="M1812.3,1237.53c-1.82,12.46-9.37,23.33-20.39,29.42-28.27,15.62-82.58,43.28-101.22,36.34-25.64-9.54,56.98-72.79,122.64-72.85l-1.04,7.09Z"/><path class="r" d="M1764.61,1237.48c18.49,8.3,32.73,19.96,51.13,29.78,6.71-11.58,13.3-23.17,19.73-34.77l-54.95-27.59c-5.41,11.08-10.74,21.96-15.91,32.58Z"/></g><g><path class="y" d="M694.19,1266.22c-9.65,7.35-19.23,14.31-28.22,21.36,5.62,6.35,12.95,11.12,21.28,13.6,32.27,9.59,90.31,24.56,107.09,13.83,19.29-12.33-41.39-44.89-100.16-48.79Z"/><path class="m" d="M658.27,1293.78c13.81-11.51,29.64-22.36,45.11-34.69-17.09-19.63-32.56-38.94-46.36-57.91l-59.87,24.16c17.9,22.32,38.25,45.13,61.11,68.44Z"/></g><g><path class="ac" d="M1202.66,494.77v-93.87c3.04-1.05,5.23-3.94,5.23-7.34,0-4.29-3.48-7.77-7.77-7.77h-39.02c-4.29,0-7.77,3.48-7.77,7.77,0,3.4,2.19,6.28,5.23,7.34v93.87c-19.06,3.49-35.9,11.41-48.6,22.27,12.21,6.44,22.73,16.11,29.87,27.95,5.09,8.45,8.56,17.91,14.71,25.63,6.15,7.71,16.2,13.55,25.69,10.89,7.83-2.2,13.27-9.51,20.86-12.43,11.46-4.4,24.26,2.39,33.07,10.93,8.81,8.54,15.89,19.19,26.49,25.37,.15,.09,.3,.16,.45,.25,9.32-11.37,14.71-24.84,14.71-39.29,0-34.76-31.21-63.88-73.15-71.56Z"/><g><path class="ad" d="M1213.06,607.21c-13.81,.57-28.87,7.69-40.53,.27-6.82-4.34-10.75-12.98-18.49-15.31-11.52-3.46-23.4,9.34-34.86,5.69-9.93-3.16-12.33-15.98-19.24-23.79-3.77-4.27-8.94-6.94-14.52-8.28,0,.18-.02,.36-.02,.53,0,30.87,24.62,57.29,59.52,68.2h71.36c11.59-3.62,22.04-8.95,30.84-15.59-10.28-7.3-21.58-12.24-34.07-11.73Z"/><path class="aa" d="M1261.1,605.62c-.15-.08-.3-.16-.45-.25-10.61-6.18-17.68-16.83-26.49-25.37-8.81-8.54-21.61-15.33-33.07-10.93-7.6,2.91-13.03,10.23-20.86,12.43-9.5,2.67-19.55-3.18-25.69-10.89-6.15-7.71-9.61-17.18-14.71-25.63-7.13-11.83-17.65-21.5-29.87-27.95-15.11,12.92-24.36,30-24.53,48.76,5.58,1.34,10.75,4.01,14.52,8.28,6.9,7.81,9.3,20.63,19.24,23.79,11.46,3.64,23.34-9.15,34.86-5.69,7.74,2.32,11.67,10.97,18.49,15.31,11.66,7.42,26.72,.3,40.53-.27,12.49-.51,23.79,4.43,34.07,11.73,5.3-4,9.99-8.47,13.97-13.32Z"/></g></g><g><g><ellipse class="g" cx="1998.45" cy="369.12" rx="41.43" ry="126.9"/><ellipse class="g" cx="1998.45" cy="369.12" rx="41.43" ry="126.9" transform="translate(783.7 1998.37) rotate(-63.76)"/><ellipse class="g" cx="1998.45" cy="369.12" rx="126.9" ry="41.43" transform="translate(42.77 921.72) rotate(-26.24)"/></g><circle class="ab" cx="1917.19" cy="300.57" r="16.75"/><circle class="r" cx="1969.34" cy="468.12" r="16.75" transform="translate(1191.82 2337.04) rotate(-80.78)"/><circle class="aa" cx="2100.17" cy="343.86" r="16.75"/></g><path class="h" d="M1241.91,1137.03v-222.96c0-27.09,21.96-49.04,49.04-49.04h0c27.09,0,49.04,21.96,49.04,49.04v70.51c0,17.44,14.14,31.58,31.58,31.58h0c17.44,0,31.58-14.14,31.58-31.58v-90.19c0-16.22,13.15-29.36,29.36-29.36h0c16.22,0,29.36,13.15,29.36,29.36v92.73c0,16.04,13,29.04,29.04,29.04h0c16.04,0,29.04-13,29.04-29.04v-92.9c0-16.13,13.07-29.2,29.2-29.2h0c16.13,0,29.2,13.07,29.2,29.2v141.61c0,71,57.55,128.55,128.55,128.55h0c71,0,128.55-57.55,128.55-128.55v-62.75c0-14.71,11.93-26.64,26.64-26.64h0c14.71,0,26.64,11.93,26.64,26.64v167.65c0,13.06,10.59,23.65,23.65,23.65h0c13.06,0,23.65-10.59,23.65-23.65v-168.84c0-14.06,11.4-25.45,25.45-25.45h0c14.06,0,25.45,11.39,25.45,25.45v346.84"/><path class="s" d="M1386.97,1404.35l-103.18-184.31c-.92-1.64-2.31-2.91-3.95-3.7v-151.69h3.05c6.15,0,11.13-4.98,11.13-11.13v-4.89c0-6.15-4.98-11.13-11.13-11.13h-81.49c-6.15,0-11.13,4.98-11.13,11.13v4.89c0,6.15,4.98,11.13,11.13,11.13h3.05v151.69c-1.63,.8-3.03,2.06-3.95,3.7l-103.18,184.31c-6.75,12.06,1.97,26.93,15.79,26.93h258.07c13.82,0,22.54-14.87,15.79-26.93Z"/><path class="p" d="M2029.97,1186.11h-87.77c-9.04,0-16.37,7.33-16.37,16.37h0c0,8.74,6.86,15.86,15.48,16.33v192.05c0,11.28,9.15,20.43,20.43,20.43h48.68c11.28,0,20.43-9.15,20.43-20.43v-192.05c8.63-.46,15.48-7.58,15.48-16.33h0c0-9.04-7.33-16.37-16.37-16.37Z"/><g><path class="q" d="M914.51,1450.93c30.49-16.44,32.17-65.26,63.7-79.59,10.52-4.78,22.52-4.64,33.83-7.01,7.77-1.63,15.2-4.58,22.03-8.57-21.8-21.56-53.29-36.98-89.43-42.35v-136.11c3.91-1.35,6.72-5.06,6.72-9.43,0-5.51-4.47-9.98-9.98-9.98h-50.13c-5.51,0-9.98,4.47-9.98,9.98,0,4.37,2.81,8.07,6.72,9.43v136.11c-68.93,10.23-121,57.05-121,113.29,0,7.33,.9,14.5,2.59,21.45,10.89-6.65,22.89-10.76,36-10.95,37.48-.54,75.94,31.52,108.93,13.73Z"/><path class="l" d="M1034.08,1355.76c-6.83,4-14.26,6.95-22.03,8.57-11.31,2.37-23.31,2.23-33.83,7.01-31.54,14.33-33.21,63.15-63.7,79.59-32.99,17.79-71.45-14.27-108.93-13.73-13.11,.19-25.12,4.3-36,10.95,9.49,38.96,44.32,71.01,90.77,85.53h111.94c54.74-17.11,93.36-58.56,93.36-106.98,0-26.75-11.79-51.37-31.58-70.94Z"/><path class="r" d="M1049.55,1400.56c-10.62,1.05-21.63,2.22-30.79,7.68-22.3,13.3-24.67,45.42-43.06,63.76-23.57,23.51-62.23,16.26-95.45,14.11-28.19-1.83-56.68,1.43-83.8,9.37,16.24,16.87,38.3,30.2,63.9,38.2h111.94c54.74-17.11,93.36-58.56,93.36-106.98,0-9.41-1.47-18.56-4.22-27.31-3.96,.39-7.92,.78-11.88,1.17Z"/></g><path class="ae" d="M1171.91,1344.94c-11.05-4.77-22.96-9.07-34.93-11.43l-39.66,70.83c-6.75,12.06,1.97,26.93,15.79,26.93h258.07c13.82,0,22.54-14.87,15.79-26.93l-48.98-87.48c-27.06,19.76-52.02,46.11-85.17,49.98-28.11,3.28-54.93-10.68-80.92-21.91Z"/><path class="ae" d="M1228.9,1182.12c0-7.32,13.25-26.91,13.25-26.91,0,0,13.25,19.6,13.25,26.91s-5.93,13.25-13.25,13.25-13.25-5.93-13.25-13.25Z"/><path class="ae" d="M1228.9,1249.55c0-7.32,13.25-26.91,13.25-26.91,0,0,13.25,19.6,13.25,26.91s-5.93,13.25-13.25,13.25-13.25-5.93-13.25-13.25Z"/><path class="ae" d="M1228.9,1316.99c0-7.32,13.25-26.91,13.25-26.91,0,0,13.25,19.6,13.25,26.91s-5.93,13.25-13.25,13.25-13.25-5.93-13.25-13.25Z"/><path class="t" d="M2000.18,1325.94c-8.84-2.36-16.91-6.94-25.51-10.07-10.63-3.87-22.07-5.34-33.35-4.52v99.49c0,11.28,9.15,20.43,20.43,20.43h48.68c11.28,0,20.43-9.15,20.43-20.43v-85.12c-10.14,2.49-20.55,2.91-30.68,.22Z"/><path class="m" d="M1601.14,353.65c9.22,0,16.7-7.48,16.7-16.7,0,9.22,7.48,16.7,16.7,16.7-9.22,0-16.7,7.48-16.7,16.7,0-9.22-7.48-16.7-16.7-16.7Z"/><path class="m" d="M2077.96,720.17c9.22,0,16.7-7.48,16.7-16.7,0,9.22,7.48,16.7,16.7,16.7-9.22,0-16.7,7.48-16.7,16.7,0-9.22-7.48-16.7-16.7-16.7Z"/><path class="m" d="M843,1399.39c9.22,0,16.7-7.48,16.7-16.7,0,9.22,7.48,16.7,16.7,16.7-9.22,0-16.7,7.48-16.7,16.7,0-9.22-7.48-16.7-16.7-16.7Z"/><path class="m" d="M1486.84,278.26c16.53,0,29.93-13.4,29.93-29.93,0,16.53,13.4,29.93,29.93,29.93-16.53,0-29.93,13.4-29.93,29.93,0-16.53-13.4-29.93-29.93-29.93Z"/><path class="m" d="M2193.74,1127.22c16.53,0,29.93-13.4,29.93-29.93,0,16.53,13.4,29.93,29.93,29.93-16.53,0-29.93,13.4-29.93,29.93,0-16.53-13.4-29.93-29.93-29.93Z"/><path class="m" d="M1080.03,728.02c16.53,0,29.93-13.4,29.93-29.93,0,16.53,13.4,29.93,29.93,29.93-16.53,0-29.93,13.4-29.93,29.93,0-16.53-13.4-29.93-29.93-29.93Z"/><g><rect class="ag" x="1240.11" y="53.62" width="16.88" height="198.87" transform="translate(1206.99 -1104.16) rotate(81.12)"/><path class="ab" d="M1145.34,169.19h0c-1.15-7.38,3.9-14.3,11.28-15.46l129.22-20.19,4.18,26.74-129.22,20.19c-7.38,1.15-14.3-3.9-15.46-11.28Z"/><g><path class="ag" d="M1551.57,105.7c-9.08-58.12-63.57-97.88-121.69-88.8-58.12,9.08-97.88,63.57-88.8,121.69,9.08,58.12,63.57,97.88,121.69,88.8,58.12-9.08,97.88-63.57,88.8-121.69Zm-201,31.41c-8.26-52.89,27.91-102.46,80.79-110.72,52.89-8.26,102.46,27.91,110.72,80.79,8.26,52.89-27.91,102.46-80.79,110.72-52.89,8.26-102.46-27.91-110.72-80.79Z"/><circle class="o" cx="1446.33" cy="122.15" r="96.92" transform="translate(337.25 1058.48) rotate(-45)"/></g></g><path class="m" d="M1408.43,1453.86l.98,5.9,5.89-.42,10.19,8.13s8.48,3.3,11,2.14c2.52-1.17,1.28-1.61,9.75-2.27,8.47-.66,15.53,.21,15.53,.21,0,0-.81,9.68,2.28,10.55,3.09,.87,14,2.44,14,2.44,0,0,2.05,11.96,7.59,10.03,5.54-1.93,8.45-3.58,8.45-3.58,0,0,13.08,9.65,15.32,12.23s4.58,11.6,4.58,11.6c0,0,3.29-6.11,3.59,.48,.3,6.59-6.05,2.36-4.47,9.96,1.58,7.59,3.71,13.27,5.51,12.32,1.8-.95,9.19,.73,11.56,.76,2.36,.02,3.38,6.72,3.38,6.72l6.91,1.5,1.35,.22,117.85-147.65-132.44-105.71-130.95,164.06,.9,1.64,11.24-1.26Zm224.73-63.77c5.17,4.13,6.02,11.67,1.89,16.85-4.13,5.17-11.67,6.02-16.85,1.89-5.17-4.13-6.02-11.67-1.89-16.85,4.13-5.17,11.67-6.02,16.85-1.89Zm-31.74-25.33c5.17,4.13,6.02,11.67,1.89,16.85-4.13,5.17-11.67,6.02-16.85,1.89s-6.02-11.67-1.89-16.85c4.13-5.17,11.67-6.02,16.85-1.89Zm-31.74-25.33c5.17,4.13,6.02,11.67,1.89,16.85-4.13,5.17-11.67,6.02-16.85,1.89-5.17-4.13-6.02-11.67-1.89-16.85,4.13-5.17,11.67-6.02,16.85-1.89Zm-31.74-25.33c5.17,4.13,6.02,11.67,1.89,16.85-4.13,5.17-11.67,6.02-16.85,1.89-5.17-4.13-6.02-11.67-1.89-16.85,4.13-5.17,11.67-6.02,16.85-1.89Z"/><g><rect class="ae" x="1552.61" y="1452.11" width="295.07" height="43.45"/><polygon class="ae" points="1864.83 1461.47 1864.83 1486.2 1886.71 1473.84 1864.83 1461.47"/><polygon class="m" points="1848.27 1452.11 1847.67 1452.11 1847.67 1495.56 1848.27 1495.56 1864.83 1486.2 1864.83 1461.47 1848.27 1452.11"/></g><g><g><polygon class="i" points="2332.97 1318.76 2099.5 1318.76 2099.5 1533.28 2292.86 1533.28 2332.97 1493.16 2332.97 1318.76"/><polygon class="j" points="2292.86 1533.28 2332.97 1493.16 2292.86 1493.16 2292.86 1533.28"/></g><g><path class="f" d="M2135.45,1381.06c0-16.12,6.53-29.19,14.59-29.19s14.59,13.07,14.59,29.19-14.59,44.34-14.59,44.34c0,0-14.59-28.22-14.59-44.34Z"/><path class="f" d="M2172.19,1381.06c0-16.12,6.53-29.19,14.59-29.19s14.59,13.07,14.59,29.19-14.59,44.34-14.59,44.34c0,0-14.59-28.22-14.59-44.34Z"/><path class="f" d="M2186.79,1425.4c-4.32,10.85-10.98,17.81-18.46,17.81s-14.1-6.92-18.42-17.72"/><path class="f" d="M2149.91,1425.4c-4.32,10.85-10.98,17.81-18.46,17.81"/><path class="f" d="M2209.07,1381.06c0-16.12,6.53-29.19,14.59-29.19s14.59,13.07,14.59,29.19-14.59,44.34-14.59,44.34c0,0-14.59-28.22-14.59-44.34Z"/><path class="f" d="M2223.67,1425.4c-4.32,10.85-10.98,17.81-18.46,17.81s-14.1-6.92-18.42-17.72"/><path class="f" d="M2242.09,1443.21c-7.45,0-14.1-6.92-18.42-17.72"/></g></g></svg>