<?xml version="1.0" encoding="utf-8"?>
<!-- Generator: Adobe Illustrator 26.3.1, SVG Export Plug-In . SVG Version: 6.00 Build 0)  -->
<svg version="1.1" id="a" xmlns="http://www.w3.org/2000/svg" xmlns:xlink="http://www.w3.org/1999/xlink" x="0px" y="0px"
	 viewBox="0 0 3156.8 1662.2" style="enable-background:new 0 0 3156.8 1662.2;" xml:space="preserve">
<style type="text/css">
	.st0{fill:#E6E6E6;}
	.st1{fill:none;}
	.st2{fill:#FFFFFF;}
	.st3{fill:#A0786D;}
	.st4{fill:#4284A2;}
	.st5{fill:#B39E57;}
	.st6{fill:#005981;}
	.st7{opacity:0.6;fill:#FFFFFF;enable-background:new    ;}
	.st8{fill:#D9D9D9;}
	.st9{fill:#E69465;}
	.st10{fill:#F3C0A4;}
	.st11{fill:#A9262C;}
	.st12{fill:#D6B55B;}
	.st13{opacity:0.56;fill:#639AB2;enable-background:new    ;}
	.st14{fill:#BC9A95;}
	.st15{fill:#5993AD;}
	.st16{fill:#CCBE8F;}
	.st17{fill:#EDB493;}
	.st18{fill:#99BDCD;}
	.st19{fill:#0A6086;}
	.st20{fill:#87B1C4;}
	.st21{fill:#639AB2;}
	.st22{fill:#297495;}
	.st23{fill:none;stroke:#005981;stroke-width:4;stroke-miterlimit:10;}
	.st24{fill:none;stroke:#005981;stroke-width:20;stroke-miterlimit:10;}
	.st25{opacity:0.71;fill:#8E8E8E;enable-background:new    ;}
	.st26{opacity:0.76;fill:#FFFFFF;enable-background:new    ;}
	.st27{opacity:0.63;fill:#FFFFFF;enable-background:new    ;}
	.st28{fill:#FBD967;}
	.st29{fill:#F9C926;}
	.st30{fill:#E59060;}
	.st31{opacity:0.61;fill:#FFFFFF;enable-background:new    ;}
	.st32{fill:#F3CDB8;}
	.st33{fill:#EBA983;}
	.st34{fill:none;stroke:#005981;stroke-width:1.45;stroke-miterlimit:10;}
</style>
<path class="st0" d="M3156.8,1129.7c0-418.7-339.4-758.2-758.2-758.2c-71.6,0-140.8,9.9-206.5,28.4
	C2023.3,182.6,1759.5,42.7,1463,42.7c-439.8,0-807.6,307.7-900.1,719.5c-12.1-2.5-24.6-3.9-37.5-3.9
	c-100.4,0-181.7,81.4-181.7,181.7c0,12.5,1.3,24.6,3.6,36.4c-148.6,38.2-268.3,148.3-319.9,290.9h3116.8
	C3152.4,1222.7,3156.8,1176.7,3156.8,1129.7L3156.8,1129.7z"/>
<rect x="1880.4" y="216.4" class="st1" width="806.1" height="1129.4"/>
<path class="st2" d="M2182.3,698c0,0-137.3,654.5-205.3,878.7c0,0,82.9,76.4,159.9,54.9c127-35.6,101.8-514.5,68.1-747.8
	C2193.5,804.5,2182.3,698,2182.3,698L2182.3,698z"/>
<path class="st3" d="M2006.8,585.8c2.9-1.9,4.8-5.1,5.1-8.6c1.8-20.7,6.8-93.3-8.2-108c-16-15.6-33.8,59.2-17.6,112.7
	c2.2,7.3,10.9,10.3,17.2,6.1L2006.8,585.8L2006.8,585.8z"/>
<path class="st2" d="M2022,591.2c-16-6.7-31.1-13.1-46.9-22c-98.9,420,199.1,536,287.5,139.9c13.5-60.6-5.8-37.6-39.2-36.8
	c0-9.1,0.1-9.1,0,0c-33.4,0.8-37.9,0.9-43.1,46.8C2145.6,1019.3,1972.1,888.7,2022,591.2L2022,591.2z"/>
<path class="st2" d="M2467.9,1242.6c16.8,9.1,30.6,16.4,46.1,23.5c81.3-325.7,85.4-414.7-194.4-613.4c-42.8-30.4-70.4,47.1-3.6,79.6
	C2550,846.4,2516.8,1020.3,2467.9,1242.6L2467.9,1242.6z"/>
<path class="st4" d="M2446.2,1283.6c-59.1-204.7-31.9-98.4-52.8-221.8c-30.5-179.6-21.4-258.6-50.4-345.9
	c-12.2-36.6-14.4-58.2-43.9-76.4c-3.4-2.1-7.1-4.1-11.2-6.1c-5.8-2.8-11.5-4.8-16.9-6c-58-12.3-92.8,65.1-102.4,117.7
	c-1.9,10.3-3.8,18.1-5.5,24.7v0c-7.8,30.1-11.1,31.8,15.1,106.7c11.4,32.4-14,221.6-25.4,285.4c-3.7,20.7-13.1,73.5-21.3,111.2"/>
<path class="st2" d="M2327.2,1391c61.1,1,114.5-21.8,138.1-33.7c-59.1-204.7-46.6-175.6-67.5-299c-30.5-179.6-16.6-255-45.7-342.3
	c-12.2-36.6-23.5-58.3-53-76.5c1.4,57.6-18.8,182.6-23.8,414.7C2269,1346.2,2327.2,1391,2327.2,1391L2327.2,1391z"/>
<path class="st2" d="M2161,769.8L2161,769.8c0,0,54.8-110.6,90-130.4c7.8-4.3,13.6-8.4,17.9-12.1c-58-12.3-92.8,65.1-102.4,117.7
	C2164.6,755.4,2162.7,763.3,2161,769.8z"/>
<path class="st5" d="M2477.6,1247.9c-17.5,22.5-54.6,73.3-50.6,92.6c4.6,21.7,57.5-26.1,77.6-78.7
	C2495.7,1257.4,2487,1252.9,2477.6,1247.9z"/>
<path class="st6" d="M2252.5,571c0,0,16.4,65.9,96.1,45.3c79.7-20.6,88-103.1,77.7-140.2c-10.3-37.1-72.4-99.7-148.1-53.5
	C2202.6,468.9,2252.5,571,2252.5,571L2252.5,571z"/>
<path class="st3" d="M2318.9,557.2c-36,45.9-97.1,58-125.2,36s-12.3-69.8,23.7-115.6s77.1-51.4,105.1-29.4
	S2354.9,511.3,2318.9,557.2L2318.9,557.2z"/>
<path class="st3" d="M2310.6,543.8l-60.4-9.8c-1.4,8.3-12.8,87.2-11.6,117.3c1.6,9.3,16.5,14.5,33.3,11.6c15-2.6,26.4-11,27.3-19.4
	h0.1C2298.4,625.4,2305.9,572.7,2310.6,543.8L2310.6,543.8z"/>
<path class="st6" d="M2361.8,449.1c0,0-8.7-57,53.2-77.2c61.9-20.1,132.8,2.7,125.1,67.5c-7.7,64.8-70.9,141.5-143.8,117.5
	S2361.8,449.1,2361.8,449.1L2361.8,449.1z"/>
<path class="st6" d="M2492.1,400.8c0,0-6.6-43.2,40.3-58.5c46.9-15.2,100.6,2,94.8,51.1s-53.7,107.1-108.9,89
	C2463.1,464.3,2492.1,400.8,2492.1,400.8L2492.1,400.8z"/>
<path class="st6" d="M2253.7,443.1c0,0,70,42.9,41.1,128.5c-13.6,40.2,101.9-67.7,101.9-67.7S2322.8,397.5,2253.7,443.1
	L2253.7,443.1z"/>
<path class="st3" d="M2327.2,589.2c-8.4,10.7-29.7,16-37.4,9.9s-2.9-16.2,5.5-26.9s22.5-15.8,30.2-9.7S2335.6,578.5,2327.2,589.2
	L2327.2,589.2z"/>
<path class="st7" d="M2177.8,451.4l-8.2,12.1c-7.9,11.7-4.9,27.7,6.9,35.6l28,19c6.5,4.4,15,4.3,21.4-0.2l2.9-2
	c3.4-2.4,7.9-2.4,11.3-0.1l0,0c3.4,2.3,5,6.5,4.1,10.5l-0.8,3.4c-1.8,7.6,1.3,15.5,7.8,19.9l29.4,19.9c11.7,7.9,27.7,4.9,35.6-6.9
	l8.2-12.1c9.1-13.5,5.6-31.7-7.9-40.8l-97.8-66.1C2205.2,434.4,2186.9,437.9,2177.8,451.4L2177.8,451.4z"/>
<path class="st8" d="M600.7,1064.7c-138,0-254.3,92.5-290.4,218.9h580.8C855,1157.2,738.7,1064.7,600.7,1064.7z"/>
<path class="st8" d="M1392.9,1064.7c-138,0-254.3,92.5-290.4,218.9h580.8C1647.2,1157.2,1530.9,1064.7,1392.9,1064.7L1392.9,1064.7z
	"/>
<path class="st8" d="M1015.5,970.9c-197.1,0-363.3,132.2-414.8,312.7h829.6C1378.8,1103,1212.6,970.9,1015.5,970.9L1015.5,970.9z"/>
<rect x="1134.4" y="37.3" class="st1" width="852.5" height="1324.3"/>
<path class="st2" d="M1812.3,1237.5c-1.8,12.5-9.4,23.3-20.4,29.4c-28.3,15.6-82.6,43.3-101.2,36.3c-25.6-9.5,57-72.8,122.6-72.8
	L1812.3,1237.5L1812.3,1237.5z"/>
<path class="st9" d="M1764.6,1237.5c18.5,8.3,32.7,20,51.1,29.8c6.7-11.6,13.3-23.2,19.7-34.8l-54.9-27.6
	C1775.1,1216,1769.8,1226.9,1764.6,1237.5z"/>
<path class="st2" d="M1733.8,636.2c-69.7-33-66.8,56,3.6,85.1c226.7,93.8,126.2,313.3,43.1,483.6l54.9,27.6
	C1961.9,1004.6,2027.9,775.4,1733.8,636.2L1733.8,636.2z"/>
<path class="st10" d="M1232.4,240.2c9.4-8.4,14.3-20.7,13.2-33.2c-2.6-32.2-9.6-92.7-25.7-104.4c-22.1-16.1-29.2,87.7,7.1,142.5
	L1232.4,240.2L1232.4,240.2z"/>
<path class="st11" d="M1260.7,216.9c-18.9,5.5-36,9.8-56.3,16.5c2.8,12.1,5.9,24.2,9.2,36.3l57.2-17.1
	C1267.4,240.8,1264,228.9,1260.7,216.9L1260.7,216.9z"/>
<path class="st2" d="M1615.8,680.4c-186.1-81-287.6-239.1-344.8-427.8l-57.2,17.1c58.8,215.7,189.6,423.7,414.9,500
	C1682.3,787.9,1673.4,705.5,1615.8,680.4L1615.8,680.4z"/>
<path class="st6" d="M1544.3,1485.9l46-299l130.6,23.9l0,0l-63,296"/>
<path class="st6" d="M1335.5,1604.4c17.1-49.5,34.4-99,51.7-148.4c34.7-98.8,69.6-197.4,104.8-296.1l123.8,48l0,0
	c-40.3,96.3-80.4,192.8-120.2,289.4"/>
<path class="st11" d="M1738.1,1205.6c3.8-13.3,7.6-26.6,11-39.7c2.2-8.6,4.2-17.3,6-25.6c4.1-18.9,7.4-37.9,10.7-56.5
	c1.6-8.8,2.6-17.3,3.7-25.7c2.8-20.7,5.1-41.1,6.8-61.5c0.8-8.8,1.8-17.1,1.9-25.7c0.7-55.7,0.4-114.8-4.8-169.3
	c-3-31.8-2.2-63.3-9.7-92.1c-22.4-85.9-57.9-115.6-144.1-81.5c-31.9,16.7-59.6,79.7-57.6,140.5c2.2,66.8,3,148.2-12.1,217.7
	c-0.9,4.3-2.5,11.3-4.1,16.7c-2.2,7.7-4.4,15.7-7,24.3c-3.6,12-7.6,24.8-12,37.5c-2.7,7.7-5.6,16-8.8,24.3
	c-5.7,14.7-12.7,30.3-20.1,44.7c-2,4-4.8,8.9-6.9,12.6s-4,6.8-6.1,10.2c-5,8-10.5,16.2-15.4,24c-4.9,7.8-9.6,14.5-14.5,22.1
	c-2.1,3.3-4.2,6.6-6.3,10c14.3,6.4,28.2,12.5,43.8,15.5c40.6,7.8,84.5,7.5,124.4,16.8c35.3,8.2,64.2,25.6,97.2,38.9
	c5.2-17.6,10.9-35.7,16.3-53.3C1733.1,1222.1,1735.7,1213.8,1738.1,1205.6L1738.1,1205.6z"/>
<path class="st6" d="M1654.2,413.2c0,0-49.8,2.8-48.2,34.3s57.6-3.8,57.6-3.8S1677.6,408.3,1654.2,413.2L1654.2,413.2z"/>
<path class="st10" d="M1696.3,548.9c-44.8,42-110.3,44.9-136,17.5c-25.7-27.3-1.8-74.6,43-116.6c44.8-42,88.3-41.2,114-13.9
	C1743,463.4,1741,506.9,1696.3,548.9L1696.3,548.9z"/>
<path class="st10" d="M1700.7,528.5l-63.8-9.1c-1.3,8.7-11.7,92-9.8,123.6c1.9,9.8,17.7,15,35.2,11.5c15.8-3.1,27.5-12.1,28.3-21
	h0.1C1689.6,614.6,1696.3,559,1700.7,528.5L1700.7,528.5z"/>
<path class="st6" d="M1562.9,496.4c0.9-0.1,1.9,0.1,2.6,0.7l0,0c5.9,4.4,32.4,25,28.5,41.9c-4.4,19-16.5-6-18.3-17.8
	c-1.8-11.9-11.3-9.5-18-11.5C1551.3,507.6,1552.2,497.6,1562.9,496.4L1562.9,496.4z"/>
<path class="st6" d="M1730.9,528.7c0,0,19.8-36.4,9.1-68.5s-53-73.7-101.5-45.8c0,0-32.6,23-1.6,59.9s41.9,12.7,43.1,45.9
	s28.6,34.6,28.1,41.5L1730.9,528.7L1730.9,528.7z"/>
<path class="st2" d="M1700.7,607.8c0,0,16,255.8,6.1,341.1c-14.9,128.2-69.9,451-69.9,451l79.5,12c0,0,62.3-318.1,62.3-447.8
	C1778.6,843.6,1794.5,620.9,1700.7,607.8L1700.7,607.8z"/>
<path class="st2" d="M1619.7,627.9c0,0-24.3,16.4-35.2,160.6c-10.9,144.2-36.8,416.3-135.7,567.7l-103.8-4.9
	c0,0,133.7-179.9,162.7-347.6C1536.9,836.2,1548.8,633.2,1619.7,627.9L1619.7,627.9z"/>
<path class="st12" d="M1699.1,556c0,0,25.4-92.7-70.7-137.1c0,0,18.9-22.6,49.2-21.9c30.4,0.7,107.9,49.7,114.8,87.9
	c0,0,7.5,26.4-14.5,22.7s-21.9,0.3-26.1,8.9S1726.7,580.2,1699.1,556L1699.1,556z"/>
<path class="st10" d="M1708.5,575.4c-10.4,9.8-33.4,11.9-40.5,4.4c-7.1-7.5-0.4-17.4,10-27.1c10.4-9.8,25.9-12.8,33-5.3
	C1718,554.9,1718.9,565.6,1708.5,575.4L1708.5,575.4z"/>
<path class="st13" d="M1553.6,414.5l-10,10.7c-9.7,10.4-9.1,26.6,1.2,36.3l24.8,23.1c5.7,5.3,14.1,6.6,21.1,3.1l3.2-1.6
	c3.7-1.8,8.1-1.2,11.2,1.6l0,0c3,2.8,4,7.2,2.4,11l-1.3,3.3c-2.9,7.2-1.1,15.5,4.6,20.9l25.9,24.2c10.4,9.7,26.6,9.1,36.3-1.2
	l10-10.7c11.1-11.9,10.4-30.5-1.4-41.6l-86.3-80.5C1583.3,402,1564.7,402.7,1553.6,414.5L1553.6,414.5z"/>
<path class="st9" d="M514.3,1056c-29,8.8-51.7,23.9-61.9,31.5c-0.2-0.9-0.4-1.7-0.6-2.6c-5.6-22.2-12.5-47.1-20.9-73.8
	c11.7-2.3,39.2-9.1,66.3-25.6c35.5-21.7,56.6-51.9,56.6-51.9s-36.5,4.9-72.1,26.6c-26.1,16-44.4,36.5-52.3,46.3
	c-7.1-22.1-15.2-45.4-24.6-69.4c10.9-5.4,35.5-18.9,57.1-41.5c28.8-30,41.5-64.7,41.5-64.7s-34.1,14.1-62.9,44.1
	c-20.1,21-32.4,44.2-37.9,56.3c-9.4-23.9-20.1-48.4-32-73c10-7,32.2-24.1,50.2-49.7c23.9-34.1,31.1-70.2,31.1-70.2
	s-31.5,19.1-55.4,53.2c-16.5,23.5-25,48-28.7,60.9c-8.1-16.6-16.9-33.2-26.3-49.7c6.6-10.3,20.6-34.5,27.5-64.8
	c9.2-40.6,2.2-76.8,2.2-76.8s-22,29.6-31.2,70.2c-5.6,24.7-5.2,47.7-4.1,62c-6.7-11.5-13.7-22.9-21.1-34.2
	c-3.6-13.8-10.9-35.7-24.5-57.2c-22.2-35.2-52.7-55.8-52.7-55.8s5.4,36.5,27.6,71.7c13.4,21.2,29.8,37.1,40.7,46.4
	c7.6,11.7,14.9,23.5,21.8,35.4c-12.5-5.1-36.9-13.4-65.4-15c-41.6-2.3-76.1,10.7-76.1,10.7s32.9,16.7,74.4,19
	c31.6,1.7,59-5.3,70.4-8.8c9.5,16.5,18.3,33.2,26.5,49.8c-12.4-1.3-40-3-69.8,4.3c-40.4,9.8-69.8,32.2-69.8,32.2s36.3,6.5,76.7-3.3
	c30.7-7.5,55-22.1,64.9-28.8c12.3,25.3,23.3,50.4,33,74.9c-12.4-2.5-39.5-6.4-69.5-1.8c-41.2,6.2-72.3,25.9-72.3,25.9
	s35.6,9.7,76.7,3.5c31-4.7,56.3-17,66.9-22.8c9.5,24.2,17.7,47.7,24.9,70c-12.5-2.9-39.2-7.7-69-4.3c-41.4,4.7-73.2,23.3-73.2,23.3
	s35.2,10.9,76.6,6.2c30.8-3.5,56.2-14.7,67.3-20.1c8.3,26.3,15.1,50.9,20.6,72.8c0.3,1.1,0.5,2.2,0.8,3.3
	c-8.3-1.2-39.9-4.8-74.6,3.7c-40.5,9.8-69.8,32.2-69.8,32.2s36.3,6.5,76.7-3.3c34.7-8.4,61.2-26.1,68-30.9
	c22.2,90,27.7,154.2,27.8,154.8l10.2-0.8c0-0.7-5.5-64.1-27.3-153.4c12.5,0.6,40,0.6,69.3-8.3c39.8-12.1,67.8-36.1,67.8-36.1
	S554.2,1043.9,514.3,1056L514.3,1056z"/>
<path class="st9" d="M266.2,1095.6c-15.5,10.3-26.2,23.2-30.8,29.4c-0.3-0.5-0.6-0.9-0.8-1.4c-7.2-12.1-15.6-25.5-25.3-39.7
	c6.4-3.4,21.5-12.3,34.4-26.7c17.1-19,24.1-40.5,24.1-40.5s-20.6,9.3-37.7,28.3c-12.6,14-19.7,29.3-22.6,36.4
	c-8.1-11.8-16.9-24-26.7-36.4c5.5-5.1,17.5-17.4,26.2-34.4c11.6-22.7,13-45.3,13-45.3s-17.5,14.3-29.2,37
	c-8.1,15.9-11.2,31.7-12.4,39.8c-9.8-12.4-20.3-24.9-31.7-37.3c4.6-5.8,14.7-19.8,20.7-38.1c8-24.2,5.9-46.8,5.9-46.8
	s-15.1,16.8-23.2,41c-5.5,16.7-6.2,32.6-6.1,40.8c-7.7-8.3-15.8-16.5-24.2-24.6c2.1-7.2,6.1-23.9,4.8-43
	c-1.7-25.5-12.2-45.5-12.2-45.5s-7.7,21.3-6,46.8c1.1,15.5,5.3,29,8.5,37.1c-6-5.6-12.1-11-18.4-16.4c-4.6-7.5-12.7-19.1-24.5-29.3
	c-19.2-16.8-40.8-23.5-40.8-23.5s9.6,20.5,28.9,37.2c11.6,10.1,24,16.6,32.1,20.1c6.5,5.5,12.9,11.2,19,17
	c-8.3-0.8-24.1-1.4-41.1,2.7c-24.8,6-42.8,19.7-42.8,19.7s22.3,4,47.1-2c18.9-4.5,33.8-13.5,39.8-17.6c8.5,8.1,16.6,16.3,24.4,24.6
	c-7.6,1.4-24,5.3-40.2,14.8c-22.1,12.9-35.3,31.2-35.3,31.2s22.5-2.6,44.5-15.5c16.8-9.8,28.4-22.7,33.1-28.3
	c11.7,12.7,22.6,25.5,32.6,38.2c-7.7,0.8-24.3,3.2-41.2,11.2c-23.1,10.9-37.9,28-37.9,28s22.6-0.6,45.7-11.5
	c17.4-8.2,30.1-19.9,35.3-25.2c9.8,12.6,18.8,24.9,26.9,36.8c-7.9,0.5-24.4,2.4-41.3,9.7c-23.5,10.1-38.9,26.6-38.9,26.6
	s22.6,0.2,46.1-9.8c17.5-7.5,30.5-18.5,36-23.7c9.5,14,17.9,27.3,25,39.2c0.4,0.6,0.7,1.2,1.1,1.8c-5.1,0.8-24.3,4.2-43.2,15.3
	c-22.1,12.9-35.3,31.2-35.3,31.2s22.5-2.6,44.5-15.5c18.9-11.1,31.4-26.1,34.5-30.2c28.9,49,43.5,85.7,43.6,86.1l5.8-2.3
	c-0.1-0.4-14.5-36.7-43.1-85.3c7.5-1.8,23.6-6.7,39.3-17.1c21.3-14.1,33.5-33.2,33.5-33.2S287.5,1081.4,266.2,1095.6L266.2,1095.6z"
	/>
<path class="st4" d="M262.6,1176.1c-59.8,0-110.3,40.1-125.9,94.9h251.9C372.9,1216.2,322.4,1176.1,262.6,1176.1L262.6,1176.1z"/>
<path class="st4" d="M606.2,1176.1c-59.8,0-110.3,40.1-125.9,94.9h251.9C716.4,1216.2,666,1176.1,606.2,1176.1L606.2,1176.1z"/>
<path class="st4" d="M442.5,1135.4c-85.5,0-157.5,57.3-179.9,135.6h359.8C600,1192.7,528,1135.4,442.5,1135.4L442.5,1135.4z"/>
<rect x="491.8" y="304.3" class="st1" width="832.6" height="1183.6"/>
<path class="st2" d="M658.3,1293.8c13.8-11.5,29.6-22.4,45.1-34.7c-199.4-229-177.3-415,128.2-510.5c52.5-16.4,60.2-24.2,33.1-64.8
	c8.8-7.5,8.9-7.5,0,0c-27.1-40.7-40.5-31.3-88.7-7.3C460.7,832.8,401.2,1031.8,658.3,1293.8z"/>
<path class="st14" d="M1276,714.4c0,0-14.4-110.5-38.4-125.1c-24-14.5-22.2,92.2,19.6,145L1276,714.4z"/>
<path class="st2" d="M878.9,676.7c29.6,9.6,22.5,6.1,52,14.2c-0.6-0.1,29.2,6.9,29.2,7.3c32.2,257.4,291,398,275,15.4
	c20.3,1.1,33.7,2.6,53.9,3c23.1,429.2-352.8,369.2-407.8,18.3C877,707.5,879,702.3,878.9,676.7z"/>
<path class="st6" d="M848.8,622.9c0,0-70.1-30.1-86.4-101.4c-16.3-71.3,52.5-119.7,113-111.5c60.5,8.1,65.5,57.1,61,68.3
	C931.9,489.4,848.8,622.9,848.8,622.9z"/>
<path class="st6" d="M907,431.9c0,0,48.4,14.8,39.3,45.5c-9.1,30.6-55.8-17.7-55.8-17.7S885.1,421.5,907,431.9L907,431.9z"/>
<path class="st15" d="M972.2,1347.3c33.2,2.3,75.8-0.3,91.5-5.5c-27.7-152.3-75.3-424.8-83-571.4c-3-58.7-22.3-89.8-43.1-105.8
	c-5.1-3.9-10.3-6.9-15.2-9.2c-35.2-18-70-19.2-97.1-4.2c-22.2,12-39.3,34.6-47.5,67.5c-6.1,24.4-4.5,43.8-2,76.3
	c11.5,154.8,7.3,390.7-13.3,570.7c50.3-3.1,131.9-32.1,182.9-21.8c3.9,0.9,8.2,1.5,12.7,2.1"/>
<path class="st14" d="M832.7,555.5c34,52.2,97.9,70.9,129.8,50.1c31.9-20.8,19.7-73.1-14.2-125.3c-34-52.2-77.1-62-109-41.2
	C807.3,459.9,798.8,503.3,832.7,555.5L832.7,555.5z"/>
<path class="st14" d="M840.3,546.9l65.1-6.4c0.9,8.9,7.7,93.8,4.4,125.8c-2.4,9.8-18.6,14.4-36.3,10.1
	c-15.8-3.8-27.3-13.5-27.8-22.5h-0.1C847.6,634.6,843.3,578,840.3,546.9L840.3,546.9z"/>
<path class="st6" d="M864.5,573.4c9.6-10.4,18.6-1,41.7,11.9c23,13,64.4,9.6,67.3-44.4c1.2-22.9,10.2-5.7,16.1,8.4
	c4.3,10.3,22.3,35.4,22.3,60c0,21.6-4.3,31.6-22,41.1c-32.9,17.7-75.3-3.3-100-20.9c-14.3-10.2-29.8-28.1-28.9-45.7
	C861.3,579.4,862.4,575.8,864.5,573.4L864.5,573.4z"/>
<path class="st6" d="M975.3,538.9c0,0-0.8,0.4-2.2,1.2c-11.4,6.2-63,35.1-68.2,56.5c-5.9,24,27.7-9.3,37.9-24.7
	c10.2-15.4,22.5-13.3,33.5-16.5C987.4,552.1,992.4,538.2,975.3,538.9L975.3,538.9z"/>
<path class="st6" d="M803.5,527.2c0,0-10.7-40.6,7.6-69.7s70.1-59.8,111.1-20.6c0,0,26.6,30.5-12.9,59.5
	c-39.5,28.9-44.3,2.4-53.5,34.8c-9.2,32.5-36.5,27.2-37.7,34.2L803.5,527.2L803.5,527.2z"/>
<path class="st14" d="M817.2,585.1c7.9,12.2,30.1,19.8,38.9,14.1c8.8-5.7,4.6-17-3.3-29.2c-7.9-12.2-22.4-18.9-31.2-13.2
	C812.7,562.7,809.3,573,817.2,585.1L817.2,585.1z"/>
<path class="st6" d="M771.7,453.2c0,0-21.8,0-18.1-34.5c3.7-34.5,23.4-46.2,38.2-43.6c14.9,2.7,39.3,12.7,32.9,45.9
	C818.4,454.3,771.7,453.2,771.7,453.2z"/>
<path class="st2" d="M922.3,655.4c0,0,19.8,151,55.4,439.8c35.6,288.8,44.9,336.1,44.9,336.1h73.2c0,0-76.4-439.9-86.8-509.1
	C998.7,852.9,998.5,672.1,922.3,655.4L922.3,655.4z"/>
<path class="st2" d="M836.5,646.1c0,0-10.4,71.3-10,346S811,1411.9,811,1411.9h-66.4c0,0,29.5-480.5,25.4-578.9
	S769.7,654,836.5,646.1L836.5,646.1z"/>
<path class="st16" d="M694.2,1266.2c-9.7,7.3-19.2,14.3-28.2,21.4c5.6,6.3,13,11.1,21.3,13.6c32.3,9.6,90.3,24.6,107.1,13.8
	C813.6,1302.7,753,1270.1,694.2,1266.2L694.2,1266.2z"/>
<path class="st13" d="M840.9,546.7l6.8,13c6.6,12.5,22.1,17.3,34.7,10.8l30-15.8c6.9-3.6,10.9-11.2,9.9-18.9l-0.4-3.5
	c-0.5-4.1,1.6-8.1,5.2-10l0,0c3.7-1.9,8.1-1.4,11.2,1.3l2.7,2.3c5.9,5.2,14.3,6.2,21.2,2.5l31.4-16.5c12.5-6.6,17.3-22.1,10.8-34.6
	l-6.8-13c-7.6-14.4-25.3-19.9-39.7-12.3l-104.5,55C838.9,514.6,833.3,532.4,840.9,546.7L840.9,546.7z"/>
<path class="st9" d="M2800.4,728c0,0,13.6-29,0.3-65.7s16.4-52.1,31-39.8C2846.3,634.7,2852.5,675.4,2800.4,728L2800.4,728z"/>
<path class="st9" d="M2771.6,749.1c0,0-8.1-31-41.7-50.8c-33.6-19.8-20.6-50.5-1.6-50.4S2778.2,675.4,2771.6,749.1L2771.6,749.1z"/>
<path class="st9" d="M2774.8,752.5c0,0,32,0.2,59.5,27.9s54.1,7.5,49.3-10.9S2844.7,727.9,2774.8,752.5z"/>
<path class="st9" d="M2730.8,803.8c0,0,32,0.2,59.5,27.9s54.1,7.5,49.3-10.9C2834.8,802.4,2800.7,779.3,2730.8,803.8z"/>
<path class="st9" d="M2703.4,860c0,0,32,0.2,59.5,27.9s54.1,7.5,49.3-10.9C2807.3,858.5,2773.2,835.5,2703.4,860z"/>
<path class="st9" d="M2672.3,931c0,0,32,0.2,59.5,27.9s54.1,7.5,49.3-10.9C2776.3,929.6,2742.2,906.5,2672.3,931z"/>
<path class="st9" d="M2731.3,803.4c0,0-8.1-31-41.7-50.8c-33.6-19.8-20.6-50.5-1.6-50.4S2737.9,729.7,2731.3,803.4L2731.3,803.4z"/>
<path class="st9" d="M2698,865c0,0-8.1-31-41.7-50.8c-33.6-19.8-20.6-50.5-1.6-50.4S2704.6,791.2,2698,865L2698,865z"/>
<path class="st9" d="M2670.2,929.6c0,0-8.1-31-41.7-50.8c-33.6-19.8-20.6-50.5-1.6-50.4S2676.8,855.8,2670.2,929.6L2670.2,929.6z"/>
<path class="st9" d="M2613.1,1225.7c1.7-0.1,3.1-1.5,3.1-3.2c0-0.8,1.5-82.8,26-185.7c22.6-94.7,70.1-227.1,167.7-319.5
	c1.3-1.3,1.4-3.3,0.1-4.7c-1.3-1.3-3.4-1.4-4.7-0.1c-98.8,93.6-146.7,227.3-169.6,322.9c-24.7,103.5-26.2,186.1-26.2,186.9
	c0,1.8,1.4,3.3,3.3,3.4C2613,1225.7,2613.1,1225.7,2613.1,1225.7L2613.1,1225.7z"/>
<path class="st9" d="M2984.3,917.5c0,0,17-20.5,14.1-52.8c-2.9-32.3,24.1-38.4,33.3-25.5C3040.9,852.1,3037.4,886.2,2984.3,917.5
	L2984.3,917.5z"/>
<path class="st9" d="M2956.7,928.4c0,0,0.1-26.6-22.8-49.6s-5.9-45,9.4-40.9C2958.6,842,2977.6,870.5,2956.7,928.4L2956.7,928.4z"/>
<path class="st9" d="M2958.6,931.7c0,0,25.7,6.9,41.9,35c16.2,28.1,41.9,17.5,41.9,1.6C3042.5,952.5,3020,926.8,2958.6,931.7
	L2958.6,931.7z"/>
<path class="st9" d="M2912.4,963.7c0,0,25.7,6.9,41.9,35c16.2,28.1,41.9,17.5,41.9,1.6C2996.3,984.5,2973.8,958.8,2912.4,963.7
	L2912.4,963.7z"/>
<path class="st9" d="M2878.4,1003.1c0,0,25.7,6.9,41.9,35c16.2,28.1,41.9,17.5,41.9,1.6C2962.3,1023.9,2939.8,998.1,2878.4,1003.1
	L2878.4,1003.1z"/>
<path class="st9" d="M2838.5,1053.7c0,0,25.7,6.9,41.9,35c16.2,28.1,41.9,17.5,41.9,1.6S2899.9,1048.7,2838.5,1053.7L2838.5,1053.7z
	"/>
<path class="st9" d="M2912.9,963.5c0,0,0.1-26.6-22.8-49.6s-5.9-45,9.4-40.9C2914.8,877.1,2933.7,905.6,2912.9,963.5L2912.9,963.5z"
	/>
<path class="st9" d="M2873.1,1006c0,0,0.1-26.6-22.8-49.6s-5.9-45,9.4-40.9C2874.9,919.6,2893.9,948.1,2873.1,1006L2873.1,1006z"/>
<path class="st9" d="M2837.1,1052.1c0,0,0.1-26.6-22.8-49.6s-5.9-45,9.4-40.9S2858,994.1,2837.1,1052.1L2837.1,1052.1z"/>
<path class="st9" d="M2728.8,1278.1c1.4,0.3,2.8-0.6,3.2-2c0.2-0.7,18.6-66.3,60.1-143.8c38.2-71.4,104.3-167.8,202.2-221.5
	c1.3-0.7,1.8-2.4,1.1-3.7c-0.7-1.3-2.4-1.8-3.7-1.1c-99.2,54.4-165.9,151.8-204.5,223.9c-41.7,78-60.3,144.1-60.5,144.8
	c-0.4,1.5,0.4,3,1.9,3.4C2728.6,1278.1,2728.7,1278.1,2728.8,1278.1L2728.8,1278.1z"/>
<path class="st17" d="M2111.4,148.2c-78.3,0-144.4,52.5-164.9,124.3h329.7C2255.8,200.7,2189.7,148.2,2111.4,148.2L2111.4,148.2z"/>
<path class="st17" d="M2561.1,148.2c-78.3,0-144.4,52.5-164.9,124.3H2726C2705.5,200.7,2639.5,148.2,2561.1,148.2z"/>
<path class="st17" d="M2346.9,94.9c-111.9,0-206.2,75-235.5,177.5h471C2553.1,170,2458.8,94.9,2346.9,94.9z"/>
<path class="st18" d="M2067.7,1462.4c-32.1,0-59.2,21.6-67.6,51h135.3C2126.9,1483.9,2099.8,1462.4,2067.7,1462.4L2067.7,1462.4z"/>
<path class="st18" d="M2252.1,1462.4c-32.1,0-59.2,21.6-67.6,51h135.2C2311.4,1483.9,2284.3,1462.4,2252.1,1462.4L2252.1,1462.4z"/>
<path class="st18" d="M2164.2,1440.5c-45.9,0-84.6,30.8-96.6,72.8h193.2C2248.8,1471.3,2210.1,1440.5,2164.2,1440.5L2164.2,1440.5z"
	/>
<path class="st17" d="M281.5,163.6c-88.7,0-163.4,59.5-186.6,140.7h373.2C445,223.1,370.2,163.6,281.5,163.6L281.5,163.6z"/>
<path class="st17" d="M790.7,163.6c-88.7,0-163.4,59.5-186.6,140.7h373.2C954.1,223.1,879.3,163.6,790.7,163.6L790.7,163.6z"/>
<path class="st17" d="M548.1,103.3c-126.6,0-233.5,84.9-266.6,201h533.1C781.5,188.3,674.7,103.3,548.1,103.3L548.1,103.3z"/>
<path class="st4" d="M499.2,285.1c-30.6,0-56.3,20.5-64.3,48.5h128.7C555.6,305.6,529.8,285.1,499.2,285.1L499.2,285.1z"/>
<path class="st4" d="M674.7,285.1c-30.6,0-56.3,20.5-64.3,48.5H739C731,305.6,705.3,285.1,674.7,285.1L674.7,285.1z"/>
<path class="st4" d="M591.1,264.3c-43.7,0-80.5,29.3-91.9,69.3H683C671.6,293.6,634.8,264.3,591.1,264.3L591.1,264.3z"/>
<path class="st8" d="M1541.1,28c-41.1,0-75.8,27.6-86.6,65.3h173.1C1616.9,55.5,1582.2,28,1541.1,28L1541.1,28z"/>
<path class="st8" d="M1777.3,28c-41.1,0-75.8,27.6-86.6,65.3h173.1C1853.1,55.5,1818.4,28,1777.3,28L1777.3,28z"/>
<path class="st8" d="M1664.8,0c-58.8,0-108.3,39.4-123.7,93.2h247.3C1773.1,39.4,1723.5,0,1664.8,0z"/>
<path class="st17" d="M1758.9,85.8c-25.2,0-46.5,16.9-53.1,40.1h106.3C1805.5,102.7,1784.2,85.8,1758.9,85.8L1758.9,85.8z"/>
<path class="st17" d="M1903.9,85.8c-25.2,0-46.5,16.9-53.1,40.1H1957C1950.4,102.7,1929.1,85.8,1903.9,85.8L1903.9,85.8z"/>
<path class="st17" d="M1834.8,68.6c-36.1,0-66.5,24.2-75.9,57.2h151.8C1901.3,92.8,1870.9,68.6,1834.8,68.6z"/>
<path class="st19" d="M2425.7,260.4c26.7,0,49.2,17.9,56.2,42.4h-112.4C2376.5,278.3,2399,260.4,2425.7,260.4L2425.7,260.4z"/>
<path class="st19" d="M2272.4,260.4c26.7,0,49.2,17.9,56.2,42.4h-112.4C2223.2,278.3,2245.7,260.4,2272.4,260.4L2272.4,260.4z"/>
<path class="st19" d="M2345.4,242.2c38.1,0,70.3,25.6,80.2,60.5h-160.5C2275.2,267.8,2307.3,242.2,2345.4,242.2L2345.4,242.2z"/>
<path class="st20" d="M2938.3,1662.2c104.5-105.9,178-242.3,206-394.8H27.5C9.7,1316.6,0,1369.6,0,1424.9
	c0,86.7,23.9,167.9,65.3,237.3"/>
<path class="st17" d="M2514,1186.1c-72.2,0-133.1,48.4-151.9,114.6H2666C2647.1,1234.5,2586.2,1186.1,2514,1186.1z"/>
<path class="st17" d="M2928.6,1186.1c-72.2,0-133.1,48.4-151.9,114.6h303.9C3061.6,1234.5,3000.8,1186.1,2928.6,1186.1z"/>
<path class="st17" d="M2731.1,1137c-103.1,0-190.1,69.2-217.1,163.6h434.1C2921.1,1206.2,2834.2,1137,2731.1,1137L2731.1,1137z"/>
<path class="st21" d="M2416.5,1473.8H740.3c-31,0-56.1-25.1-56.1-56.1s25.1-56.1,56.1-56.1h1676.2c31,0,56.1,25.1,56.1,56.1
	S2447.4,1473.8,2416.5,1473.8z"/>
<path class="st19" d="M276.2,1248.7c-27.5,0-50.6,18.4-57.8,43.6H334C326.9,1267.1,303.7,1248.7,276.2,1248.7z"/>
<path class="st19" d="M434,1248.7c-27.5,0-50.6,18.4-57.8,43.6h115.7C484.6,1267.1,461.5,1248.7,434,1248.7L434,1248.7z"/>
<path class="st19" d="M358.8,1230c-39.2,0-72.3,26.3-82.6,62.3h165.2C431.1,1256.3,398,1230,358.8,1230L358.8,1230z"/>
<path class="st4" d="M2636.7,1273.2c-30.8,0-56.8,20.7-64.9,48.9h129.8C2693.5,1293.9,2667.5,1273.2,2636.7,1273.2L2636.7,1273.2z"
	/>
<path class="st4" d="M2813.7,1273.2c-30.8,0-56.8,20.7-64.9,48.9h129.8C2870.6,1293.9,2844.6,1273.2,2813.7,1273.2L2813.7,1273.2z"
	/>
<path class="st4" d="M2729.4,1252.2c-44,0-81.2,29.5-92.7,69.9h185.4C2810.6,1281.8,2773.4,1252.2,2729.4,1252.2L2729.4,1252.2z"/>
<path class="st10" d="M1812.3,1237.5c-1.8,12.5-9.4,23.3-20.4,29.4c-28.3,15.6-82.6,43.3-101.2,36.3c-25.6-9.5,57-72.8,122.6-72.8
	L1812.3,1237.5L1812.3,1237.5z"/>
<path class="st11" d="M1764.6,1237.5c18.5,8.3,32.7,20,51.1,29.8c6.7-11.6,13.3-23.2,19.7-34.8l-54.9-27.6
	C1775.1,1216,1769.8,1226.9,1764.6,1237.5z"/>
<path class="st14" d="M694.2,1266.2c-9.7,7.3-19.2,14.3-28.2,21.4c5.6,6.3,13,11.1,21.3,13.6c32.3,9.6,90.3,24.6,107.1,13.8
	C813.6,1302.7,753,1270.1,694.2,1266.2L694.2,1266.2z"/>
<path class="st2" d="M658.3,1293.8c13.8-11.5,29.6-22.4,45.1-34.7c-17.1-19.6-32.6-38.9-46.4-57.9l-59.9,24.2
	C615.1,1247.7,635.4,1270.5,658.3,1293.8L658.3,1293.8z"/>
<path class="st13" d="M1202.7,494.8v-93.9c3-1,5.2-3.9,5.2-7.3c0-4.3-3.5-7.8-7.8-7.8h-39c-4.3,0-7.8,3.5-7.8,7.8
	c0,3.4,2.2,6.3,5.2,7.3v93.9c-19.1,3.5-35.9,11.4-48.6,22.3c12.2,6.4,22.7,16.1,29.9,28c5.1,8.5,8.6,17.9,14.7,25.6
	c6.2,7.7,16.2,13.5,25.7,10.9c7.8-2.2,13.3-9.5,20.9-12.4c11.5-4.4,24.3,2.4,33.1,10.9c8.8,8.5,15.9,19.2,26.5,25.4
	c0.2,0.1,0.3,0.2,0.4,0.2c9.3-11.4,14.7-24.8,14.7-39.3C1275.8,531.6,1244.6,502.5,1202.7,494.8L1202.7,494.8z"/>
<path class="st22" d="M1213.1,607.2c-13.8,0.6-28.9,7.7-40.5,0.3c-6.8-4.3-10.8-13-18.5-15.3c-11.5-3.5-23.4,9.3-34.9,5.7
	c-9.9-3.2-12.3-16-19.2-23.8c-3.8-4.3-8.9-6.9-14.5-8.3c0,0.2,0,0.4,0,0.5c0,30.9,24.6,57.3,59.5,68.2h71.4c11.6-3.6,22-9,30.8-15.6
	C1236.8,611.6,1225.5,606.7,1213.1,607.2L1213.1,607.2z"/>
<path class="st4" d="M1261.1,605.6c-0.2-0.1-0.3-0.2-0.4-0.2c-10.6-6.2-17.7-16.8-26.5-25.4c-8.8-8.5-21.6-15.3-33.1-10.9
	c-7.6,2.9-13,10.2-20.9,12.4c-9.5,2.7-19.6-3.2-25.7-10.9c-6.2-7.7-9.6-17.2-14.7-25.6c-7.1-11.8-17.7-21.5-29.9-28
	c-15.1,12.9-24.4,30-24.5,48.8c5.6,1.3,10.8,4,14.5,8.3c6.9,7.8,9.3,20.6,19.2,23.8c11.5,3.6,23.3-9.2,34.9-5.7
	c7.7,2.3,11.7,11,18.5,15.3c11.7,7.4,26.7,0.3,40.5-0.3c12.5-0.5,23.8,4.4,34.1,11.7C1252.4,614.9,1257.1,610.5,1261.1,605.6
	L1261.1,605.6z"/>
<ellipse class="st23" cx="1998.4" cy="369.1" rx="41.4" ry="126.9"/>
<ellipse transform="matrix(0.4421 -0.8969 0.8969 0.4421 783.7927 1998.3168)" class="st23" cx="1998.4" cy="369.1" rx="41.4" ry="126.9"/>
<ellipse transform="matrix(0.8969 -0.4421 0.4421 0.8969 42.6981 921.6406)" class="st23" cx="1998.5" cy="369.2" rx="126.9" ry="41.4"/>
<circle class="st21" cx="1917.2" cy="300.6" r="16.8"/>
<circle class="st9" cx="1969.4" cy="468.1" r="16.8"/>
<circle class="st4" cx="2100.2" cy="343.9" r="16.8"/>
<path class="st24" d="M1241.9,1137v-223c0-27.1,22-49,49-49l0,0c27.1,0,49,22,49,49v70.5c0,17.4,14.1,31.6,31.6,31.6l0,0
	c17.4,0,31.6-14.1,31.6-31.6v-90.2c0-16.2,13.2-29.4,29.4-29.4l0,0c16.2,0,29.4,13.2,29.4,29.4v92.7c0,16,13,29,29,29l0,0
	c16,0,29-13,29-29v-92.9c0-16.1,13.1-29.2,29.2-29.2l0,0c16.1,0,29.2,13.1,29.2,29.2v141.6c0,71,57.6,128.6,128.6,128.6l0,0
	c71,0,128.6-57.6,128.6-128.6v-62.8c0-14.7,11.9-26.6,26.6-26.6l0,0c14.7,0,26.6,11.9,26.6,26.6v167.7c0,13.1,10.6,23.7,23.7,23.7
	l0,0c13.1,0,23.7-10.6,23.7-23.7V971.9c0-14.1,11.4-25.5,25.4-25.5l0,0c14.1,0,25.4,11.4,25.4,25.5v346.8"/>
<path class="st25" d="M1387,1404.3L1283.8,1220c-0.9-1.6-2.3-2.9-3.9-3.7v-151.7h3.1c6.2,0,11.1-5,11.1-11.1v-4.9
	c0-6.2-5-11.1-11.1-11.1h-81.5c-6.2,0-11.1,5-11.1,11.1v4.9c0,6.2,5,11.1,11.1,11.1h3.1v151.7c-1.6,0.8-3,2.1-3.9,3.7l-103.2,184.3
	c-6.8,12.1,2,26.9,15.8,26.9h258.1C1385,1431.3,1393.7,1416.4,1387,1404.3L1387,1404.3z"/>
<path class="st26" d="M2030,1186.1h-87.8c-9,0-16.4,7.3-16.4,16.4l0,0c0,8.7,6.9,15.9,15.5,16.3v192.1c0,11.3,9.2,20.4,20.4,20.4
	h48.7c11.3,0,20.4-9.2,20.4-20.4v-192.1c8.6-0.5,15.5-7.6,15.5-16.3l0,0C2046.3,1193.4,2039,1186.1,2030,1186.1L2030,1186.1z"/>
<path class="st27" d="M914.5,1450.9c30.5-16.4,32.2-65.3,63.7-79.6c10.5-4.8,22.5-4.6,33.8-7c7.8-1.6,15.2-4.6,22-8.6
	c-21.8-21.6-53.3-37-89.4-42.3v-136.1c3.9-1.3,6.7-5.1,6.7-9.4c0-5.5-4.5-10-10-10h-50.1c-5.5,0-10,4.5-10,10c0,4.4,2.8,8.1,6.7,9.4
	v136.1c-68.9,10.2-121,57.1-121,113.3c0,7.3,0.9,14.5,2.6,21.4c10.9-6.7,22.9-10.8,36-10.9C843.1,1436.7,881.5,1468.7,914.5,1450.9
	L914.5,1450.9z"/>
<path class="st28" d="M1034.1,1355.8c-6.8,4-14.3,6.9-22,8.6c-11.3,2.4-23.3,2.2-33.8,7c-31.5,14.3-33.2,63.2-63.7,79.6
	c-33,17.8-71.5-14.3-108.9-13.7c-13.1,0.2-25.1,4.3-36,10.9c9.5,39,44.3,71,90.8,85.5h111.9c54.7-17.1,93.4-58.6,93.4-107
	C1065.7,1399.9,1053.9,1375.3,1034.1,1355.8z"/>
<path class="st29" d="M1049.6,1400.6c-10.6,1.1-21.6,2.2-30.8,7.7c-22.3,13.3-24.7,45.4-43.1,63.8c-23.6,23.5-62.2,16.3-95.5,14.1
	c-28.2-1.8-56.7,1.4-83.8,9.4c16.2,16.9,38.3,30.2,63.9,38.2h111.9c54.7-17.1,93.4-58.6,93.4-107c0-9.4-1.5-18.6-4.2-27.3
	C1057.5,1399.8,1053.5,1400.2,1049.6,1400.6L1049.6,1400.6z"/>
<path class="st11" d="M1171.9,1344.9c-11.1-4.8-23-9.1-34.9-11.4l-39.7,70.8c-6.8,12.1,2,26.9,15.8,26.9h258.1
	c13.8,0,22.5-14.9,15.8-26.9l-49-87.5c-27.1,19.8-52,46.1-85.2,50C1224.7,1370.1,1197.9,1356.2,1171.9,1344.9L1171.9,1344.9z"/>
<path class="st11" d="M1228.9,1182.1c0-7.3,13.2-26.9,13.2-26.9s13.2,19.6,13.2,26.9s-5.9,13.2-13.2,13.2
	S1228.9,1189.4,1228.9,1182.1z"/>
<path class="st11" d="M1228.9,1249.6c0-7.3,13.2-26.9,13.2-26.9s13.2,19.6,13.2,26.9s-5.9,13.2-13.2,13.2
	S1228.9,1256.9,1228.9,1249.6z"/>
<path class="st11" d="M1228.9,1317c0-7.3,13.2-26.9,13.2-26.9s13.2,19.6,13.2,26.9s-5.9,13.2-13.2,13.2S1228.9,1324.3,1228.9,1317z"
	/>
<path class="st30" d="M2000.2,1325.9c-8.8-2.4-16.9-6.9-25.5-10.1c-10.6-3.9-22.1-5.3-33.3-4.5v99.5c0,11.3,9.2,20.4,20.4,20.4h48.7
	c11.3,0,20.4-9.2,20.4-20.4v-85.1C2020.7,1328.2,2010.3,1328.6,2000.2,1325.9L2000.2,1325.9z"/>
<path class="st2" d="M1601.1,353.6c9.2,0,16.7-7.5,16.7-16.7c0,9.2,7.5,16.7,16.7,16.7c-9.2,0-16.7,7.5-16.7,16.7
	C1617.8,361.1,1610.4,353.6,1601.1,353.6z"/>
<path class="st2" d="M2078,720.2c9.2,0,16.7-7.5,16.7-16.7c0,9.2,7.5,16.7,16.7,16.7c-9.2,0-16.7,7.5-16.7,16.7
	C2094.7,727.7,2087.2,720.2,2078,720.2z"/>
<path class="st2" d="M843,1399.4c9.2,0,16.7-7.5,16.7-16.7c0,9.2,7.5,16.7,16.7,16.7c-9.2,0-16.7,7.5-16.7,16.7
	C859.7,1406.9,852.2,1399.4,843,1399.4z"/>
<path class="st2" d="M1486.8,278.3c16.5,0,29.9-13.4,29.9-29.9c0,16.5,13.4,29.9,29.9,29.9c-16.5,0-29.9,13.4-29.9,29.9
	C1516.8,291.7,1503.4,278.3,1486.8,278.3z"/>
<path class="st2" d="M2193.7,1127.2c16.5,0,29.9-13.4,29.9-29.9c0,16.5,13.4,29.9,29.9,29.9c-16.5,0-29.9,13.4-29.9,29.9
	C2223.7,1140.6,2210.3,1127.2,2193.7,1127.2z"/>
<path class="st2" d="M1080,728c16.5,0,29.9-13.4,29.9-29.9c0,16.5,13.4,29.9,29.9,29.9c-16.5,0-29.9,13.4-29.9,29.9
	C1110,741.4,1096.6,728,1080,728z"/>
<rect x="1149.1" y="144.6" transform="matrix(0.988 -0.1544 0.1544 0.988 -8.661 194.5602)" class="st6" width="198.9" height="16.9"/>
<path class="st21" d="M1145.3,169.2L1145.3,169.2c-1.2-7.4,3.9-14.3,11.3-15.5l129.2-20.2l4.2,26.7l-129.2,20.2
	C1153.4,181.6,1146.5,176.6,1145.3,169.2L1145.3,169.2z"/>
<path class="st6" d="M1551.6,105.7c-9.1-58.1-63.6-97.9-121.7-88.8c-58.1,9.1-97.9,63.6-88.8,121.7s63.6,97.9,121.7,88.8
	S1560.6,163.8,1551.6,105.7L1551.6,105.7z M1350.6,137.1c-8.3-52.9,27.9-102.5,80.8-110.7c52.9-8.3,102.5,27.9,110.7,80.8
	c8.3,52.9-27.9,102.5-80.8,110.7C1408.4,226.2,1358.8,190,1350.6,137.1L1350.6,137.1z"/>
<ellipse transform="matrix(0.7071 -0.7071 0.7071 0.7071 337.2527 1058.4867)" class="st31" cx="1446.3" cy="122.1" rx="96.9" ry="96.9"/>
<path class="st2" d="M1408.4,1453.9l1,5.9l5.9-0.4l10.2,8.1c0,0,8.5,3.3,11,2.1c2.5-1.2,1.3-1.6,9.8-2.3s15.5,0.2,15.5,0.2
	s-0.8,9.7,2.3,10.6c3.1,0.9,14,2.4,14,2.4s2.1,12,7.6,10c5.5-1.9,8.4-3.6,8.4-3.6s13.1,9.7,15.3,12.2s4.6,11.6,4.6,11.6
	s3.3-6.1,3.6,0.5c0.3,6.6-6.1,2.4-4.5,10c1.6,7.6,3.7,13.3,5.5,12.3c1.8-0.9,9.2,0.7,11.6,0.8c2.4,0,3.4,6.7,3.4,6.7l6.9,1.5
	l1.3,0.2l117.8-147.7l-132.4-105.7l-130.9,164.1l0.9,1.6L1408.4,1453.9L1408.4,1453.9z M1633.2,1390.1c5.2,4.1,6,11.7,1.9,16.8
	c-4.1,5.2-11.7,6-16.8,1.9c-5.2-4.1-6-11.7-1.9-16.8C1620.4,1386.8,1628,1386,1633.2,1390.1z M1601.4,1364.8
	c5.2,4.1,6,11.7,1.9,16.8c-4.1,5.2-11.7,6-16.8,1.9s-6-11.7-1.9-16.8C1588.7,1361.5,1596.2,1360.6,1601.4,1364.8z M1569.7,1339.4
	c5.2,4.1,6,11.7,1.9,16.8c-4.1,5.2-11.7,6-16.8,1.9c-5.2-4.1-6-11.7-1.9-16.8C1557,1336.2,1564.5,1335.3,1569.7,1339.4z
	 M1537.9,1314.1c5.2,4.1,6,11.7,1.9,16.8c-4.1,5.2-11.7,6-16.8,1.9c-5.2-4.1-6-11.7-1.9-16.8
	C1525.2,1310.8,1532.8,1310,1537.9,1314.1z"/>
<rect x="1552.6" y="1452.1" class="st6" width="295.1" height="43.4"/>
<polygon class="st6" points="1864.8,1461.5 1864.8,1486.2 1886.7,1473.8 "/>
<polygon class="st2" points="1848.3,1452.1 1847.7,1452.1 1847.7,1495.6 1848.3,1495.6 1864.8,1486.2 1864.8,1461.5 "/>
<polygon class="st32" points="2333,1318.8 2099.5,1318.8 2099.5,1533.3 2292.9,1533.3 2333,1493.2 "/>
<polygon class="st33" points="2292.9,1533.3 2333,1493.2 2292.9,1493.2 "/>
<path class="st34" d="M2135.4,1381.1c0-16.1,6.5-29.2,14.6-29.2s14.6,13.1,14.6,29.2s-14.6,44.3-14.6,44.3
	S2135.4,1397.2,2135.4,1381.1z"/>
<path class="st34" d="M2172.2,1381.1c0-16.1,6.5-29.2,14.6-29.2s14.6,13.1,14.6,29.2s-14.6,44.3-14.6,44.3
	S2172.2,1397.2,2172.2,1381.1z"/>
<path class="st34" d="M2186.8,1425.4c-4.3,10.8-11,17.8-18.5,17.8s-14.1-6.9-18.4-17.7"/>
<path class="st34" d="M2149.9,1425.4c-4.3,10.8-11,17.8-18.5,17.8"/>
<path class="st34" d="M2209.1,1381.1c0-16.1,6.5-29.2,14.6-29.2s14.6,13.1,14.6,29.2s-14.6,44.3-14.6,44.3
	S2209.1,1397.2,2209.1,1381.1z"/>
<path class="st34" d="M2223.7,1425.4c-4.3,10.8-11,17.8-18.5,17.8s-14.1-6.9-18.4-17.7"/>
<path class="st34" d="M2242.1,1443.2c-7.4,0-14.1-6.9-18.4-17.7"/>
</svg>
