<?xml version="1.0" encoding="UTF-8"?><svg id="a" xmlns="http://www.w3.org/2000/svg" xmlns:xlink="http://www.w3.org/1999/xlink" viewBox="0 0 3156.75 1619.46"><defs><style>.c{fill:url(#b);}.d{fill:#f7c5a8;}.e,.f{fill:#685f6a;}.g{fill:#e6e6e9;}.h{fill:#ebc0a7;}.i,.j,.k{fill:#ffb0ad;}.l,.m,.n,.o,.p{fill:#fff;}.q{fill:#ffd3d1;}.r{fill:#ff9191;}.s{fill:#ff8b87;}.t{fill:#999;}.u{fill:#848593;}.v{fill:#babbc3;}.w{fill:#cc9a7e;}.x{fill:#d2d3d8;}.y{fill:#6f728a;}.z{fill:#646778;}.aa,.ab,.ac{fill:#2d334a;}.ad{fill:#3b3e54;}.ae{fill:#61668a;}.af{fill:#454a5f;}.ag{stroke:#ff9f9c;stroke-linecap:round;stroke-linejoin:round;stroke-width:13px;}.ag,.ah{fill:none;}.ah{stroke:#fff;stroke-miterlimit:10;stroke-width:5px;}.m{opacity:.68;}.j,.f{opacity:.61;}.n{opacity:.76;}.k{opacity:.79;}.ab{opacity:.29;}.o{opacity:.27;}.ai{fill:#87a391;opacity:.38;}.ac,.aj,.ak,.p{opacity:.64;}.aj{fill:#ff8480;}.ak{fill:#678a74;}</style><linearGradient id="b" x1="1578.38" y1="-309.04" x2="1578.38" y2="1290.69" gradientTransform="matrix(1, 0, 0, 1, 0, 0)" gradientUnits="userSpaceOnUse"><stop offset="0" stop-color="#ffeadb"/><stop offset=".38" stop-color="#fee8d8"/><stop offset=".61" stop-color="#fde2d0"/><stop offset=".8" stop-color="#fbd7c1"/><stop offset=".96" stop-color="#f7c9ad"/><stop offset="1" stop-color="#f7c5a8"/></linearGradient></defs><path class="c" d="M2398.56,328.77c-71.58,0-140.82,9.93-206.46,28.44C2023.32,139.89,1759.53,0,1463.04,0c-439.77,0-807.61,307.68-900.12,719.49-12.09-2.53-24.61-3.88-37.46-3.88-100.37,0-181.73,81.36-181.73,181.73,0,12.47,1.26,24.64,3.65,36.41C147.62,985.08,0,1166.4,0,1382.19c0,86.73,23.85,167.88,65.34,237.27H2938.26c135.09-136.92,218.49-324.96,218.49-532.5,0-418.74-339.45-758.19-758.19-758.19Z"/><path class="i" d="M2456.76,1083.63l4.34-1.65c-.29-.75-29.22-75.92-84.38-123.59l-3.03,3.51c54.28,46.92,82.79,120.99,83.07,121.73Z"/><path class="i" d="M2363.89,961.38c-1.66-4.45,.61-9.41,5.06-11.06,4.45-1.66,9.41,.61,11.06,5.06,1.66,4.45-.61,9.41-5.06,11.06-4.45,1.66-9.41-.61-11.06-5.06Z"/><path class="i" d="M2393.49,945.95c-1.66-4.45,.61-9.41,5.06-11.06,4.45-1.66,9.41,.61,11.06,5.06,1.66,4.45-.61,9.41-5.06,11.06-4.45,1.66-9.41-.61-11.06-5.06Z"/><path class="i" d="M2372,1019.27c-1.66-4.45,.61-9.41,5.06-11.06,4.45-1.66,9.41,.61,11.06,5.06,1.66,4.45-.61,9.41-5.06,11.06-4.45,1.66-9.41-.61-11.06-5.06Z"/><path class="i" d="M2403.16,992.18l4.47-1.26c-.06-.23-6.33-22.83-4.36-43.11l-4.62-.45c-2.06,21.17,4.24,43.86,4.51,44.82Z"/><path class="i" d="M2421.61,1016.45l1.14-4.5c-.67-.17-16.79-4.14-39.13,.55l.95,4.54c21.29-4.47,36.88-.63,37.03-.59Z"/><path class="i" d="M2502.53,1071.55c0-.81-.61-81.35-35.44-145.39l-4.08,2.22c34.27,63.03,34.87,142.39,34.87,143.19h4.64Z"/><path class="i" d="M2454.03,924.43c.02-4.75,3.88-8.59,8.64-8.57s8.59,3.88,8.57,8.64c-.02,4.75-3.88,8.59-8.64,8.57-4.75-.02-8.59-3.88-8.57-8.64Z"/><path class="i" d="M2487.17,920.42c.02-4.75,3.88-8.59,8.64-8.57,4.75,.02,8.59,3.88,8.57,8.64s-3.88,8.59-8.64,8.57c-4.75-.02-8.59-3.88-8.57-8.64Z"/><path class="i" d="M2441.23,981.47c.02-4.75,3.88-8.59,8.64-8.57,4.75,.02,8.59,3.88,8.57,8.64s-3.88,8.59-8.64,8.57c-4.75-.02-8.59-3.88-8.57-8.64Z"/><path class="i" d="M2484.56,967.49c.02-.23,2.11-23.59,11.11-41.88l-4.16-2.05c-9.39,19.09-11.48,42.55-11.57,43.54l4.62,.4Z"/><path class="i" d="M2488.66,996.3l2.65-3.81c-.57-.4-14.25-9.79-36.81-13.27l-.71,4.58c21.5,3.32,34.73,12.4,34.86,12.49Z"/><path class="i" d="M640.83,1106.24c34.35,0,63.32,23.04,72.3,54.51h-144.61c8.98-31.47,37.95-54.51,72.3-54.51Z"/><path class="i" d="M288.41,1080.45c50.6,0,93.28,33.94,106.51,80.3H181.9c13.23-46.36,55.91-80.3,106.51-80.3Z"/><path class="i" d="M618.95,1160.75c-16.33-56.51-81.05-98.72-158.41-98.72s-142.08,42.21-158.41,98.72h316.83Z"/><path class="v" d="M733.16,1516.58c-38.09-3.04-75.71,8.04-113.6,13.03-37.89,5-80.07,2.6-108.81-22.59-21.77-19.08-33.49-49.35-59.11-62.81-24.3-12.77-53.63-6.66-81.08-7.06-55.65-.8-109.93-32.02-138.61-79.72-18.71-31.12-27.34-68.68-52.33-95.02-29.91-31.53-77.25-40.08-120.6-36.87-11.16,.82-22.25,2.31-33.28,4.12-16.66,47.76-25.72,99.09-25.72,152.53,0,86.73,23.85,167.88,65.34,237.27H868.57c-6.41-13.13-13.06-26.1-21.48-38.01-26.05-36.85-68.95-61.27-113.93-64.87Z"/><path class="x" d="M3016.71,1357.66c-34.87-4.53-69.4,8.28-104.32,12.39-52.95,6.23-108.07-8.48-150.87-40.26-38.49-28.58-67.52-70.32-110.9-90.71-67.31-31.64-154.16-4.77-216-46.09-13.61-9.09-24.76-20.73-34.23-33.86H57.18c-12.36,22.44-22.91,46.02-31.46,70.53,11.04-1.82,22.12-3.3,33.28-4.12,43.35-3.2,90.69,5.34,120.6,36.87,24.99,26.34,33.62,63.91,52.33,95.02,28.68,47.7,82.96,78.92,138.61,79.72,27.45,.4,56.78-5.71,81.08,7.06,25.63,13.47,37.34,43.73,59.11,62.81,28.74,25.19,70.93,27.58,108.81,22.59,37.89-5,75.5-16.08,113.6-13.03,44.99,3.59,87.88,28.01,113.93,64.87,8.42,11.91,15.07,24.89,21.48,38.01H2938.26c62.56-63.4,114.01-137.77,151.25-219.96-18.81-22.23-43.56-38.04-72.8-41.84Z"/><path class="g" d="M2400.38,1159.13c9.47,13.13,20.61,24.76,34.23,33.86,61.84,41.31,148.7,14.44,216,46.09,43.38,20.4,72.41,62.14,110.9,90.71,42.81,31.78,97.93,46.48,150.87,40.26,34.92-4.11,69.45-16.92,104.32-12.39,29.25,3.8,53.99,19.61,72.8,41.84,33.74-74.48,55.81-155.38,63.83-240.37h-752.96Z"/><path class="d" d="M2725.45,630.34s22.62-21.63,23.54-59.73,33.34-41.64,42.31-25.31c8.97,16.32,.27,55.59-65.85,85.04Z"/><path class="d" d="M2703.46,655.97s-8.88-30.01-42.33-48.26c-33.45-18.26-21.76-48.7-3.15-49.2,18.62-.5,49.55,25.2,45.48,97.47Z"/><path class="d" d="M2706.7,659.12s31.28-.84,58.99,25.33c27.71,26.17,53.04,5.63,47.76-12.23-5.28-17.86-39.29-39.32-106.75-13.1Z"/><path class="d" d="M2665.42,710.67s31.28-.84,58.99,25.33c27.71,26.17,53.04,5.63,47.76-12.23s-39.29-39.32-106.75-13.1Z"/><path class="d" d="M2640.39,766.44s31.28-.84,58.99,25.33c27.71,26.17,53.04,5.63,47.76-12.23s-39.29-39.32-106.75-13.1Z"/><path class="d" d="M2612.39,836.79s31.28-.84,58.99,25.33c27.71,26.17,53.04,5.63,47.76-12.23-5.28-17.86-39.29-39.32-106.75-13.1Z"/><path class="d" d="M2665.86,710.29s-8.88-30.01-42.33-48.26c-33.45-18.26-21.76-48.7-3.15-49.2,18.62-.5,49.55,25.2,45.48,97.47Z"/><path class="d" d="M2635.29,771.52s-8.88-30.01-42.33-48.26c-33.45-18.26-21.76-48.7-3.15-49.2,18.62-.5,49.55,25.2,45.48,97.47Z"/><path class="d" d="M2610.21,835.45s-8.88-30.01-42.33-48.26c-33.45-18.26-21.76-48.7-3.15-49.2,18.62-.5,49.55,25.2,45.48,97.47Z"/><path class="d" d="M2564.04,1126.47c1.66-.17,2.93-1.58,2.9-3.28-.01-.8-1.24-80.92,19.46-182.16,19.07-93.26,61.17-224.03,153.48-317.45,1.26-1.27,1.24-3.32-.03-4.57-1.27-1.25-3.32-1.24-4.57,.03-93.46,94.59-136.01,226.69-155.25,320.85-20.82,101.91-19.57,182.62-19.56,183.43,.03,1.79,1.51,3.21,3.29,3.17,.09,0,.18,0,.27-.02Z"/><path class="d" d="M2898.68,850.08s20.02-7.91,30.49-31.94c10.47-24.03,32.04-17.87,33.52-5.15,1.48,12.73-14.25,35.48-64.02,37.09Z"/><path class="d" d="M2878.02,860.7s2.13-21.42-14.45-41.73c-16.58-20.31-1.23-36.67,10.76-32.16,11.99,4.51,25.03,28.91,3.68,73.89Z"/><path class="d" d="M2879.27,863.55s20.15,7.58,31.01,31.44c10.86,23.86,32.33,17.35,33.6,4.6,1.27-12.75-14.83-35.25-64.61-36.04Z"/><path class="d" d="M2839.59,885.68s20.15,7.58,31.01,31.44c10.86,23.86,32.33,17.35,33.6,4.6,1.27-12.75-14.83-35.25-64.61-36.04Z"/><path class="d" d="M2809.18,914.71s20.15,7.58,31.01,31.44c10.86,23.86,32.33,17.35,33.6,4.6,1.27-12.75-14.83-35.25-64.61-36.04Z"/><path class="d" d="M2773.08,952.27s20.15,7.58,31.01,31.44c10.86,23.86,32.33,17.35,33.6,4.6,1.27-12.75-14.83-35.25-64.61-36.04Z"/><path class="d" d="M2839.97,885.55s2.13-21.42-14.45-41.73c-16.58-20.31-1.23-36.67,10.76-32.16,11.99,4.51,25.03,28.91,3.68,73.89Z"/><path class="d" d="M2804.61,916.63s2.13-21.42-14.45-41.73c-16.58-20.31-1.23-36.67,10.76-32.16,11.99,4.51,25.03,28.91,3.68,73.89Z"/><path class="d" d="M2772.04,950.85s2.13-21.42-14.45-41.73c-16.58-20.31-1.23-36.67,10.76-32.16,11.99,4.51,25.03,28.91,3.68,73.89Z"/><path class="d" d="M2667.12,1124.27c1.1,.32,2.28-.25,2.7-1.33,.2-.51,20.21-51.88,59.66-111,36.34-54.46,97.1-126.85,180.15-162.42,1.13-.48,1.65-1.79,1.17-2.92-.48-1.13-1.79-1.65-2.92-1.17-84.09,36.01-145.47,109.12-182.16,164.12-39.7,59.52-59.86,111.27-60.05,111.78-.44,1.15,.13,2.43,1.27,2.88,.06,.02,.12,.04,.18,.06Z"/><path class="i" d="M438.4,1139.39l8.25,.47c.03-.54,3-55.04-5.21-132.49-7.58-71.48-26.5-177.79-73.63-278.28l-7.48,3.51c89.28,190.38,78.19,404.65,78.06,406.79Z"/><path class="i" d="M355.37,682c13.82,30.75,14.06,60.6,14.06,60.6,0,0-22.17-20-35.99-50.76-13.82-30.75-14.06-60.6-14.06-60.6,0,0,22.16,20,35.99,50.76Z"/><path class="i" d="M414.29,719.78c-11.99,31.51-32.95,52.77-32.95,52.77,0,0-1.51-29.82,10.49-61.32,11.99-31.51,32.95-52.77,32.95-52.77,0,0,1.51,29.82-10.49,61.32Z"/><path class="i" d="M318.86,768.71c-33.08-6.54-57.56-23.63-57.56-23.63,0,0,29.15-6.48,62.22,.06,33.08,6.54,57.56,23.63,57.56,23.63,0,0-29.15,6.48-62.22-.06Z"/><path class="i" d="M337.89,832.05c-33.56,3.29-61.93-6-61.93-6,0,0,26.03-14.62,59.59-17.91,33.56-3.29,61.93,6,61.93,6,0,0-26.03,14.62-59.59,17.91Z"/><path class="i" d="M355.89,894.82c-33.72,.31-61.16-11.45-61.16-11.45,0,0,27.22-12.27,60.94-12.58,33.72-.31,61.16,11.45,61.16,11.45,0,0-27.22,12.27-60.94,12.58Z"/><path class="i" d="M368.65,955.87c-33.71-.9-60.71-13.65-60.71-13.65,0,0,27.65-11.28,61.35-10.37,33.71,.9,60.71,13.65,60.71,13.65,0,0-27.65,11.28-61.35,10.37Z"/><path class="i" d="M375.57,1029.2c-33.56,3.29-61.93-6-61.93-6,0,0,26.03-14.62,59.59-17.91,33.56-3.29,61.93,6,61.93,6,0,0-26.03,14.62-59.59,17.91Z"/><path class="i" d="M447.8,782.31c-23.02,24.63-50.46,36.4-50.46,36.4,0,0,9.88-28.17,32.89-52.81,23.02-24.63,50.46-36.4,50.46-36.4,0,0-9.88,28.17-32.89,52.81Z"/><path class="i" d="M489.08,932.8c-30.95,13.37-60.81,13.17-60.81,13.17,0,0,20.33-21.87,51.28-35.23,30.95-13.37,60.81-13.17,60.81-13.17,0,0-20.33,21.87-51.28,35.23Z"/><path class="i" d="M498.61,1015c-33.31,5.2-62.17-2.45-62.17-2.45,0,0,25.15-16.09,58.46-21.29,33.31-5.2,62.17,2.45,62.17,2.45,0,0-25.15,16.09-58.46,21.29Z"/><path class="i" d="M470.99,856.74c-26.5,20.84-55.42,28.28-55.42,28.28,0,0,14.06-26.34,40.56-47.17s55.42-28.28,55.42-28.28c0,0-14.06,26.34-40.56,47.17Z"/><path class="i" d="M600.31,1142.24l-5.51-.46c.03-.36,3.14-36.76,15.8-87.32,11.68-46.67,34.14-115.36,74.73-177.56l4.63,3.02c-76.92,117.85-89.54,260.88-89.66,262.31Z"/><path class="i" d="M697.97,846.85c-12.03,19.09-14.97,38.85-14.97,38.85,0,0,16.55-11.19,28.58-30.28,12.03-19.09,14.97-38.85,14.97-38.85,0,0-16.55,11.19-28.58,30.28Z"/><path class="i" d="M655.4,866.4c5.01,22,16.92,38.04,16.92,38.04,0,0,3.78-19.62-1.23-41.62s-16.92-38.04-16.92-38.04c0,0-3.78,19.62,1.23,41.62Z"/><path class="i" d="M714.08,907.72c22.53-1.25,40.35-10.3,40.35-10.3,0,0-18.71-7.01-41.24-5.76-22.53,1.25-40.35,10.3-40.35,10.3,0,0,18.71,7.01,41.24,5.76Z"/><path class="i" d="M695.57,947.92c21.93,5.31,41.6,1.79,41.6,1.79,0,0-15.89-12.12-37.82-17.42-21.93-5.31-41.6-1.79-41.6-1.79,0,0,15.89,12.12,37.82,17.42Z"/><path class="i" d="M677.79,987.85c22.32,3.35,41.6-1.89,41.6-1.89,0,0-16.9-10.67-39.21-14.02-22.32-3.35-41.6,1.89-41.6,1.89,0,0,16.9,10.67,39.21,14.02Z"/><path class="i" d="M663.64,1027.12c22.42,2.54,41.5-3.39,41.5-3.39,0,0-17.27-10.05-39.69-12.59s-41.5,3.39-41.5,3.39c0,0,17.27,10.05,39.69,12.59Z"/><path class="i" d="M652.22,1075.07c21.93,5.31,41.6,1.79,41.6,1.79,0,0-15.89-12.12-37.82-17.42-21.93-5.31-41.6-1.79-41.6-1.79,0,0,15.89,12.12,37.82,17.42Z"/><path class="i" d="M627.36,904.72c12.96,18.47,30.04,28.83,30.04,28.83,0,0-3.92-19.59-16.88-38.06-12.96-18.47-30.04-28.83-30.04-28.83,0,0,3.92,19.59,16.88,38.06Z"/><path class="i" d="M585.98,1000.6c19.27,11.74,39.07,14.4,39.07,14.4,0,0-11.43-16.39-30.7-28.13-19.27-11.74-39.07-14.4-39.07-14.4,0,0,11.43,16.39,30.7,28.13Z"/><path class="i" d="M572,1054.19c21.59,6.55,41.43,4.17,41.43,4.17,0,0-15.17-13.01-36.76-19.56-21.59-6.55-41.43-4.17-41.43-4.17,0,0,15.17,13.01,36.76,19.56Z"/><path class="i" d="M605.06,951.88c15.62,16.28,34.09,23.91,34.09,23.91,0,0-6.86-18.76-22.48-35.04-15.62-16.28-34.09-23.91-34.09-23.91,0,0,6.86,18.76,22.48,35.04Z"/><rect class="v" x="716.15" y="1285.41" width="1724.45" height="112.18" rx="56.09" ry="56.09"/><path class="i" d="M2945.61,1093.73c42.24,0,77.85,28.33,88.9,67.02h-177.79c11.04-38.69,46.66-67.02,88.9-67.02Z"/><path class="i" d="M2512.31,1062.02c62.22,0,114.69,41.73,130.95,98.72h-261.91c16.27-57,68.74-98.72,130.95-98.72Z"/><path class="i" d="M2918.71,1160.75c-20.08-69.48-99.65-121.38-194.77-121.38s-174.69,51.9-194.77,121.38h389.54Z"/><path class="d" d="M2343.71,1032.57c80.78,0,148.91,54.18,170.03,128.18h-340.06c21.12-74,89.25-128.18,170.03-128.18Z"/><path class="d" d="M1514.95,971.92c119,0,219.36,79.81,250.47,188.82h-500.94c31.11-109.01,131.47-188.82,250.47-188.82Z"/><path class="d" d="M2292.26,1160.75c-38.41-132.9-190.6-232.16-372.53-232.16s-334.12,99.26-372.53,232.16h745.06Z"/><path class="d" d="M2973.54,1132.54c36.31,0,66.94,24.35,76.43,57.62h-152.86c9.49-33.27,40.12-57.62,76.43-57.62Z"/><path class="d" d="M3062.99,1150.4c25.06,0,46.19,16.81,52.75,39.76h-105.49c6.55-22.96,27.69-39.76,52.75-39.76Z"/><path class="d" d="M2949.3,1190.16c-10.27-35.52-50.95-62.06-99.58-62.06s-89.31,26.53-99.58,62.06h199.16Z"/><path class="u" d="M2561.48,1343.49c36.31,0,66.94,24.35,76.43,57.62h-152.86c9.49-33.27,40.12-57.62,76.43-57.62Z"/><path class="u" d="M2650.92,1361.35c25.06,0,46.19,16.81,52.75,39.76h-105.49c6.55-22.96,27.69-39.76,52.75-39.76Z"/><path class="u" d="M2537.24,1401.11c-10.27-35.52-50.95-62.06-99.58-62.06s-89.31,26.53-99.58,62.06h199.16Z"/><path class="i" d="M2655.53,337.08c42.24,0,77.85,28.33,88.9,67.02h-177.79c11.04-38.69,46.66-67.02,88.9-67.02Z"/><path class="i" d="M2222.23,305.37c62.22,0,114.69,41.73,130.95,98.72h-261.91c16.27-57,68.74-98.72,130.95-98.72Z"/><path class="i" d="M2628.64,404.09c-20.08-69.48-99.65-121.38-194.77-121.38s-174.69,51.9-194.77,121.38h389.54Z"/><path class="l" d="M2500.67,378.73c36.31,0,66.94,24.35,76.43,57.62h-152.86c9.49-33.27,40.12-57.62,76.43-57.62Z"/><path class="l" d="M2590.12,396.58c25.06,0,46.19,16.81,52.75,39.76h-105.49c6.55-22.96,27.69-39.76,52.75-39.76Z"/><path class="l" d="M2476.43,436.35c-10.27-35.52-50.95-62.06-99.58-62.06s-89.31,26.53-99.58,62.06h199.16Z"/><path class="s" d="M1160.3,1389.4c20.05,0,36.97,13.45,42.21,31.82h-84.42c5.24-18.37,22.16-31.82,42.21-31.82Z"/><path class="s" d="M954.55,1374.35c29.54,0,54.46,19.81,62.18,46.88h-124.36c7.72-27.06,32.64-46.88,62.18-46.88Z"/><path class="s" d="M1147.53,1421.22c-9.53-32.99-47.32-57.64-92.48-57.64s-82.95,24.64-92.48,57.64h184.97Z"/><path class="l" d="M2351.43,642.18c16.53,0,29.93-13.4,29.93-29.93,0,16.53,13.4,29.93,29.93,29.93-16.53,0-29.93,13.4-29.93,29.93,0-16.53-13.4-29.93-29.93-29.93Z"/><path class="l" d="M1586.66,272.01c16.53,0,29.93-13.4,29.93-29.93,0,16.53,13.4,29.93,29.93,29.93-16.53,0-29.93,13.4-29.93,29.93,0-16.53-13.4-29.93-29.93-29.93Z"/><path class="l" d="M949.65,494.24c9.22,0,16.7-7.48,16.7-16.7,0,9.22,7.48,16.7,16.7,16.7-9.22,0-16.7,7.48-16.7,16.7,0-9.22-7.48-16.7-16.7-16.7Z"/><path class="l" d="M2194.95,500.99c9.22,0,16.7-7.48,16.7-16.7,0,9.22,7.48,16.7,16.7,16.7-9.22,0-16.7,7.48-16.7,16.7,0-9.22-7.48-16.7-16.7-16.7Z"/><path class="l" d="M790.3,1039.37c9.22,0,16.7-7.48,16.7-16.7,0,9.22,7.48,16.7,16.7,16.7-9.22,0-16.7,7.48-16.7,16.7,0-9.22-7.48-16.7-16.7-16.7Z"/><path class="l" d="M1686.67,185.26c9.22,0,16.7-7.48,16.7-16.7,0,9.22,7.48,16.7,16.7,16.7-9.22,0-16.7,7.48-16.7,16.7,0-9.22-7.48-16.7-16.7-16.7Z"/><path class="l" d="M1594.57,867.35c9.22,0,16.7-7.48,16.7-16.7,0,9.22,7.48,16.7,16.7,16.7-9.22,0-16.7,7.48-16.7,16.7,0-9.22-7.48-16.7-16.7-16.7Z"/><path class="l" d="M1286.79,693.65c9.22,0,16.7-7.48,16.7-16.7,0,9.22,7.48,16.7,16.7,16.7-9.22,0-16.7,7.48-16.7,16.7,0-9.22-7.48-16.7-16.7-16.7Z"/><polygon class="i" points="895.47 1255.52 875.61 1255.52 875.61 1315.3 895.47 1304.03 915.33 1315.3 915.33 1255.52 895.47 1255.52"/><path class="q" d="M1974.82,1419.38s-2.83,30.24,28.24,31.3c31.07,1.07,35.93-25.24,35.93-25.24l-22.21-8.81-23.6-4.27-18.36,7.02Z"/><path class="l" d="M1975.06,1430.15s13.75-10.29,30.01-12.65c0,0-16.26-37.95-40.93-47.34-24.66-9.39-80.03,5.7-180.82,27.56-20.41,4.43-43.79-8.09-43.79-8.09l-21.7,55.76,257.22-15.23Z"/><path class="l" d="M2035.09,1430.15s-13.75-10.29-30.01-12.65c0,0,16.26-37.95,40.93-47.34,24.66-9.39,80.03,5.7,180.82,27.56,20.41,4.43,43.79-8.09,43.79-8.09l21.7,55.76-257.22-15.23Z"/><path class="ag" d="M2296.2,1450.68l-258.57-20.53c0,11.06-14.01,20.02-31.29,20.02s-31.29-8.96-31.29-20.02l-261.48,17.74"/><path class="ah" d="M1762.23,1344.46s11.12,25.9,81.5,16.76c70.38-9.14,143.7-25.13,161.34,56.29"/><path class="ah" d="M2243.67,1349.75s-14.4,19.91-77.26,11.47c-70.34-9.45-143.7-25.13-161.34,56.29"/><path class="ah" d="M2262.49,1378.35c-14.58,13.72-50.55,7.66-104.83-4.44-58.59-13.06-131.63-24.75-152.11,42.06"/><path class="w" d="M1423.93,1317.21s6.1,20.75,2.44,21.97c-3.66,1.22-89.09,4.88-95.19,1.22-6.1-3.66,12.2-9.76,12.2-9.76,0,0,40.27-10.98,63.46-13.42,0,0,17.09-1.22,17.09,0Z"/><path class="w" d="M1435.76,1035.3c-4.88-9.76-10.41-14.64-19.53-14.64-10.01,0-18.02,8.29-17.68,18.3l9.52,278.91c.15,4.4,3.76,7.89,8.16,7.89s8.01-3.49,8.16-7.89l.41-12.05c15.65-190.9,25.6-235.12,10.95-270.51Z"/><path class="w" d="M1465.93,788.53c-6.95-32.67-24.41-38.2-36.48-37.79-.81-.17-1.64-.31-2.49-.37-9.98-.69-18.55,7.04-18.89,17.04l-9.62,278.91c-.15,4.4,3.21,8.13,7.6,8.43,1.47,.1,2.87-.2,4.11-.8,9.97-2.7,17.82-10.68,20.18-20.97,12.3-53.55,44.64-201.98,35.6-244.46Z"/><path class="w" d="M1438.6,808.09c1.1-33.38,17.31-41.9,29.27-43.61,.77-.31,1.56-.59,2.38-.8,9.71-2.43,19.5,3.67,21.6,13.45l58.52,272.87c.92,4.3-1.73,8.56-6,9.63-1.43,.36-2.86,.31-4.19-.07-10.29-.9-19.42-7.38-23.55-17.09-21.52-50.56-79.46-190.98-78.03-234.39Z"/><path class="w" d="M1595.94,1319.44s-5.64,20.88-1.95,22.02c3.69,1.14,89.17,2.91,95.19-.88,6.02-3.8-12.42-9.49-12.42-9.49,0,0-40.51-10.09-63.74-12.02,0,0-17.11-.84-17.08,.38Z"/><path class="aa" d="M1456.35,367.65c39.53-13.02,102,19.08,100.44,64.51-.15,4.27-.78,8.63,.36,12.75,1.78,6.48,7.51,11.03,13.24,14.53,12.88,7.88,27.62,13.06,38.63,23.38,17.63,16.52,21.68,46.05,8.25,66.13-12.43,18.57-54.91,35.49-76.88,31.37-21.97-4.12-40.92-19.01-53.49-37.49-3.14-4.61-5.99-9.53-10.19-13.2-7.78-6.8-18.81-8.23-27.97-13.02-8.56-4.47-7.99-23.41-11.66-32.34-4.75-11.54,6.2-21.95,2.76-33.95-4.04-14.05-13.67-26.55-14.54-41.15-1.11-18.57,13.38-35.73,31.05-41.55Z"/><path class="w" d="M1259.4,430.82c-6.39,1.65-13.17,.21-18.34-3.88-13.28-10.48-37.66-31.09-38.09-41.5-.6-14.32,46.71,12.74,60.07,44.44l-3.63,.94Z"/><path class="y" d="M1245.89,429.97c7.48,38.44,36.21,119.35,49.63,140.23,11.13,17.32,21.48,10.31,22,10.16,6.06-1.78,10.93-12.63,8.23-19.64l-62.23-137.1-17.63,6.34Z"/><path class="y" d="M1537.85,790.53c3.18,.48-2.61-106.35-7.02-117.55,4.23-46.68,5.61-135.82-2.5-174.62-10.19-48.73-18.46-65.41-63.43-54.5-14.15,3.43-25.87,38.48-31.34,64.45-5.47,25.97-11.55,28.21-.38,75.11,3.97,16.67-14.1,123.44-23.33,153.24-2.65,8.56-3.82,37.48-8.96,46.35,5.48,4.03,12.46,8.71,18.46,10.24,41.16,10.52,76.07-9.09,118.49-2.74Z"/><path class="y" d="M1471.58,488.09c16.46-16.04,1.06-28.29,.78-28.8-3.27-6.06-16.69-7.09-23.74-2.53l-152.09,109.85c-2.62,1.53-.16,5.91,1.27,8.58,.48,.89,1.17,1.6,1.97,2.1,5.23,4.81,14.58,5.75,21.44,3.35,35.69-12.5,128.95-71.68,150.36-92.54Z"/><path class="y" d="M1495.48,489.15c-10.19-18.44,7.4-26.66,7.8-27.09,4.75-4.98,17.23-3.14,22.27,2.6l105.45,134.53c1.92,1.97-1.6,5.56-3.69,7.75-.7,.73-1.53,1.25-2.41,1.55-6.17,3.4-14.92,2.32-20.43-1.35-28.67-19.16-95.75-94.01-109-117.98Z"/><path class="y" d="M1764.63,603.39c-37.2-12.22-121.85-26.61-146.63-25.08-20.55,1.27-19.48,13.73-19.6,14.25-1.4,6.16,5.69,15.7,13.13,16.76l150.04,12.55,3.06-18.48Z"/><path class="aa" d="M1492.12,428.37s31.18-11.95,33.03-43.57c2.47-42.45-40.83-62.4-63.8-47.96-21.15,13.3-17.11,31.54-14.5,36,2.61,4.46,45.28,55.53,45.28,55.53Z"/><path class="w" d="M1501.39,388.21l-34.02-2.4c-.33,4.66-2.7,49-.53,65.63,1.38,5.1,9.91,7.23,19.04,4.75,8.21-2.23,14.06-7.41,14.16-12.15h.04c-1.3-9.98,.16-39.56,1.31-55.83Z"/><path class="w" d="M1498.99,393.16c-5.15,26.85-28.04,45.03-44.45,41.88-16.41-3.15-20.13-26.43-14.98-53.28,5.15-26.85,21.08-37.96,37.49-34.81,16.41,3.15,27.09,19.37,21.93,46.22Z"/><path class="aa" d="M1457.16,344.15s6.85,35.95,40.25,48.07c17.2,6.24,22.72-20.89,22.72-20.89l-17.06-25.66s-13.89-10.89-24.44-9.73c-.9,.1-21.46,8.22-21.46,8.22Z"/><path class="aa" d="M1445.02,364.82s29.91-10.96,34.31-21.41c4.4-10.45-10.99-9.09-10.99-9.09,0,0-19.82,7.38-23.32,30.51Z"/><path class="aa" d="M1492.78,341.59s-13.64-10.45-4.55-23.18c9.09-12.73,24.95-8.01,28.63,1.82,4.09,10.91-1.36,17.73-5.91,20.91-4.55,3.18-12.73,3.64-18.18,.45Z"/><path class="w" d="M1512.22,403.01c-2.66,6.25-12.27,11.59-16.8,9.66-4.52-1.93-3.49-7.48-.83-13.72,2.66-6.25,8.82-10.52,13.35-8.6,4.52,1.93,6.94,6.41,4.28,12.66Z"/><path class="af" d="M1373.07,1321.22c8.85,3.88,23.55,6.43,40.2,6.43,5.32,0,10.44-.26,15.24-.74,1.11,7.54,1.6,16.32-2.06,16.74-6.45,.74-99.33,3.56-99.88-.74-1.08-8.51,23.85-16.63,46.5-21.68Z"/><path class="w" d="M1510.61,1047.2c2.17-11.18,6.25-17.54,15.08-19.8,9.69-2.49,19.63,3.99,21.92,14.29l63.79,287.19c1.01,4.53-1.58,8.99-5.84,10.08-4.26,1.09-8.67-1.57-9.97-6.03l-3.55-12.21c-65.13-191.06-86.35-233.75-81.43-273.52Z"/><path class="af" d="M1646.88,1322.33c-8.76,4.08-23.4,6.95-40.04,7.31-5.32,.12-10.44-.03-15.25-.41-.94,7.56-1.24,16.35,2.43,16.7,6.47,.6,99.39,1.37,99.84-2.95,.89-8.53-24.21-16.1-46.97-20.65Z"/><path class="l" d="M1513.33,452.54l-47.39,92.06-10.91-95.13s-2.88,1.87-7.85,5.11l-26.34,77.5,1.34-.76s-6.22,32.2,0,52.5c6.22,20.3-40.76,276.08-37.88,419.01h28.84l15.85-111.15-2.98,122.31,127.38-7.52s-1.34-273.56-10.42-333.9c-9.08-60.34,0-129.12,0-129.12l1.97,1.57-11.12-75.29c-12.38-10.46-20.5-17.18-20.5-17.18Z"/><path class="w" d="M1764.36,604.98c1.79-1.56,3.85-2.83,6.12-3.73,15.73-6.23,45.79-16.97,55.01-12.12,12.06,6.34-29.98,31.36-63.48,30.06l2.35-14.2Z"/><path class="l" d="M1447.18,454.57s-106.48,67.9-125.04,87.42c0,0-33.65-84.28-46.14-101.32l-31.12,13.25s32.09,112.27,46.1,127.97c14,15.7,41.8,3.82,49.49,0,7.69-3.82,87.01-47.03,87.01-47.03l19.88-47.93-.19-32.35Z"/><path class="l" d="M1525.56,464.67l16.17,90.17s40.67,52.65,63.74,59.23c23.07,6.59,130.72,12.5,130.72,12.5l5.32-36.78s-79.85-19.65-123.03-17.17c0,0-83.52-112.53-92.93-107.96Z"/><path class="j" d="M1237.83,448.44v-90.73h-27.5v90.73c0,6.81-4.22,12.92-10.6,15.31-31.94,11.96-55.05,45.26-55.05,70.46,0,19.36,13.65,34.02,34.45,42.38h89.92c20.8-8.36,34.45-23.03,34.45-42.38,0-25.2-23.11-58.5-55.05-70.46-6.38-2.39-10.6-8.49-10.6-15.31Z"/><path class="f" d="M1286.88,510.21c-13.66-.92-28.23-6.35-40.39-.06-14.02,7.25-18.13,27.08-32.48,33.66-12.32,5.65-26.49-.83-40.03-1.63-9.23-.55-18.53,1.82-26.54,6.43,4.99,12.3,16.4,21.84,31.67,27.98h89.92c20.8-8.36,34.45-23.03,34.45-42.38,0-7.64-2.14-16.03-5.99-24.35-3.5,.46-7.06,.6-10.62,.36Z"/><path class="p" d="M1879.33,729.44l-59.26-82.68c-3.89-5.42-5.98-11.92-5.98-18.59v-83.92h-27.5v83.92c0,6.67-2.09,13.17-5.98,18.59l-59.26,82.68c-6.26,8.74-.02,20.9,10.73,20.9h136.51c10.75,0,17-12.16,10.73-20.9Z"/><path class="aj" d="M1874.28,722.39c-.25-.03-.49-.05-.74-.08-17.97-2.35-32.63-16.74-50.6-19.06-18.86-2.43-39.37,8.67-56.23-.12-6.4-3.34-11.11-9.1-16.6-13.81l-28.76,40.12c-6.26,8.74-.02,20.9,10.73,20.9h136.51c10.75,0,17-12.16,10.73-20.9l-5.05-7.05Z"/><path class="d" d="M914.87,342.93c46.34,0,85.42,31.08,97.54,73.53h-195.08c12.12-42.45,51.2-73.53,97.54-73.53Z"/><path class="d" d="M439.45,308.14c68.27,0,125.84,45.78,143.68,108.32H295.77c17.85-62.54,75.42-108.32,143.68-108.32Z"/><path class="d" d="M885.36,416.46c-22.03-76.24-109.34-133.18-213.7-133.18s-191.67,56.94-213.7,133.18h427.41Z"/><path class="l" d="M414.44,377.61c33.88,0,62.45,22.72,71.3,53.76h-142.61c8.86-31.03,37.43-53.76,71.3-53.76Z"/><path class="l" d="M497.89,394.27c23.38,0,43.09,15.68,49.21,37.1h-98.41c6.11-21.42,25.83-37.1,49.21-37.1Z"/><path class="l" d="M391.83,431.37c-9.58-33.14-47.53-57.89-92.9-57.89s-83.32,24.75-92.9,57.89h185.79Z"/><rect class="ae" x="1111.19" y="664.22" width="7.68" height="141.18" transform="translate(306.68 -328.12) rotate(19.36)"/><rect class="r" x="1101.24" y="705.22" width="12.37" height="102.46" transform="translate(313.42 -324.37) rotate(19.36)"/><path class="ae" d="M1187.22,529.39c-39.4-13.85-82.57,6.87-96.42,46.27-13.85,39.4,6.87,82.57,46.27,96.42,39.4,13.85,82.57-6.87,96.42-46.27,13.85-39.4-6.87-82.57-46.27-96.42Zm40.99,94.56c-12.82,36.48-52.79,55.67-89.27,42.84-36.48-12.82-55.67-52.79-42.84-89.27,12.82-36.48,52.79-55.67,89.27-42.84,36.48,12.82,55.67,52.79,42.84,89.27Z"/><circle class="o" cx="1162.15" cy="600.74" r="70.02" transform="translate(-104.93 275.18) rotate(-12.93)"/><path class="n" d="M1228.21,623.95c4.35-12.38,5.01-25.17,2.56-37.15,.21,8.27-1.03,16.72-3.94,24.99-12.82,36.48-52.79,55.67-89.27,42.84-24.1-8.47-40.64-28.79-45.4-52.12,.72,28.22,18.57,54.37,46.78,64.28,36.48,12.82,76.45-6.36,89.27-42.84Z"/><path class="h" d="M892.87,1218.83c-.58-.05-1.16-.16-1.73-.32-4.64-1.36-7.3-6.22-5.94-10.86l17.67-60.41c1.36-4.64,6.23-7.3,10.86-5.94,4.64,1.36,7.3,6.22,5.94,10.86l-17.67,60.41c-1.19,4.06-5.06,6.61-9.12,6.27Z"/><path class="h" d="M951.87,1218.83c-.58-.05-1.16-.16-1.73-.32-4.64-1.36-7.3-6.22-5.94-10.86l17.67-60.41c1.36-4.64,6.23-7.3,10.86-5.94,4.64,1.36,7.3,6.22,5.94,10.86l-17.67,60.41c-1.19,4.06-5.06,6.61-9.12,6.27Z"/><path class="e" d="M929.19,889.1l56.18-12.57,27.59,161.49,.22,1.25c.43,2.58,.36,5.28-.29,7.98l-41.57,146.88-26.1-6.26,26.67-145.07-42.71-153.71Z"/><path class="e" d="M883.44,885.43l56.9-8.77,16.49,161.7,.14,1.28c.21,2.15,.07,4.38-.46,6.6l-42.7,146.61-27.4-6.57,29.27-145.2-32.24-155.66Z"/><path class="h" d="M1025.42,600.25s34.07-28.02,33.92-39.12c-.16-11.11-35.6,11.89-44.57,37l10.65,2.13Z"/><path class="l" d="M901.38,720.67c-7.98,11.41,4.35,24.71,4.62,25.21,3.23,5.87,12.25,8.98,16.09,6.12l74.33-66.22c1.45-.91,5.31-10.64,3.89-13.22-.48-.86-1.06-1.6-1.67-2.17-4.3-5.09-10.63-7.45-14.72-6.47-21.27,5.14-72.15,41.91-82.53,56.74Z"/><path class="l" d="M1015.78,589.7c-19.29,24.38-42.89,63.75-48.6,82.68-4.73,15.71,12.24,19.11,12.59,19.34,4.16,2.77,13.17,.14,16-5.12l40.29-88.74-20.28-8.17Z"/><path class="h" d="M1076.8,773.91s43.04-12.19,47.4-22.57-37.91-3.42-56.44,16.27l9.03,6.3Z"/><path class="l" d="M914.23,722.78c-16.98-7.49-26.67,5.74-26.97,6.24-4.93,8.26-1.7,18.9,3.97,22.09l85.07,53.64c1.33,1.12,12.66,1.09,14.72-1.08,.69-.72,1.22-1.51,1.58-2.28,3.61-5.72,3.95-12.56,1.74-16.21-11.48-18.99-63.32-55-80.12-62.4Z"/><path class="l" d="M1077.27,756.77c-31.48,1.61-77.27,9.96-95.51,18.28-15.14,6.9-6.37,22.11-6.31,22.54,.67,5.02,8.7,10.13,14.61,8.77l94.56-28.67-7.34-20.92Z"/><path class="ad" d="M909.06,1208.71c-3.1,.43-8.46-.74-14.11-3.32-3.09-1.41-5.81-3.02-7.92-4.63-1.56-1.19-3.78-.88-4.9,.73-3.77,5.44-9.01,14.03-5.97,15.87,2.45,1.48,23.43,11.92,42.49,20.74h26.58c-8.7-9.93-25.28-22.32-36.17-29.39Z"/><path class="ad" d="M920.02,1237.73c17.83,.59,33.91,.63,34.16-.98,.49-3.16-1.11-7.45-20.1-9.38l-14.06,10.36Z"/><path class="ad" d="M968.6,1206.87c-3.1,.43-8.46-.74-14.11-3.32-3.09-1.41-5.81-3.02-7.92-4.63-1.56-1.19-3.78-.88-4.9,.73-3.77,5.44-9.01,14.03-5.97,15.87,2.45,1.48,23.43,11.92,42.49,20.74h26.58c-8.7-9.93-25.28-22.32-36.17-29.39Z"/><path class="ad" d="M979.57,1235.88c17.83,.59,33.91,.63,34.16-.98,.49-3.16-1.11-7.45-20.1-9.38l-14.06,10.36Z"/><path class="l" d="M965.24,924.32l18.41,61.29c6.93-1.2,19.39-4.98,25.65-8.19-7.25-49.9-31.46-195.51-42.42-239.75-7.14-28.8-40.05-45.02-41.52-45.5-21.3-7.4-45.26,3.6-49.06,32.45-1.35,10.23,7.37,210.8,12.19,266.82,3.28,.07,3.28-.11,6.51-.38,14.33-1.18,28.41-4.85,42.78-5.35,11.3-.39,22.66,1.19,33.93,.97l-6.49-62.37Z"/><path class="r" d="M899.33,694.83s-9.06,3.99-8.18,9.76c.89,5.77,17.75,14.64,31.94,14.64s27.5,5.77,27.5,5.77c0,0-13.81-23.96-29.75-30.17,0,0-5.8-2.66-21.52,0Z"/><ellipse class="aa" cx="893.51" cy="643.75" rx="35.75" ry="45.96" transform="translate(-149.27 289.64) rotate(-17.02)"/><path class="h" d="M882.43,656.18c14.19,23.37,41.97,32.43,56.25,23.75,14.28-8.67,9.65-31.79-4.54-55.16-14.19-23.37-32.99-28.23-47.27-19.56-14.28,8.67-18.64,27.59-4.45,50.96Z"/><path class="h" d="M886.93,656.37l27.77-7.29c1,3.8,9.87,40.11,10.66,54.21-.35,4.44-7.07,7.53-15.01,6.9-7.14-.56-12.79-3.94-13.61-7.84h-.03c-.48-8.45-6.29-32.69-9.78-45.98Z"/><path class="aa" d="M880.55,607.94s.49,2.63,1.68,21.52c1.19,18.89,14.29,30.96,10.08,33.21-4.21,2.25-11.61,1.35-18.15-6.43s-10.9-49.21,6.38-48.3Z"/><path class="h" d="M876.5,668.79c3.3,5.44,12.93,9.12,16.87,6.72,3.94-2.39,2.25-7.4-1.06-12.84-3.3-5.44-9.59-8.59-13.52-6.2-3.94,2.39-5.59,6.87-2.29,12.31Z"/><path class="aa" d="M868.41,630.9s22.15-2,36.72-15.28c10.67-9.72,32.51,8.82,32.76,4.85,.25-3.97-18.06-28-38.43-26.09-20.06,1.88-31.02,17.76-31.06,36.52Z"/><path class="l" d="M1232.75,1286.17c0,15.27,1.82,29.73,5.08,42.61h-387.39c-23.99,0-43.44-19.08-43.44-42.61s19.45-42.61,43.44-42.61h387.39c-3.25,12.88-5.08,27.34-5.08,42.61Z"/><path class="z" d="M850.63,1236.9h393.83c3.04,0,5.51,2.46,5.51,5.51s-2.46,5.51-5.51,5.51h-393.83c-20.68,0-37.5,16.82-37.5,37.5s16.82,37.5,37.5,37.5h393.83c3.04,0,5.51,2.46,5.51,5.51s-2.46,5.51-5.51,5.51h-393.83c-26.75,0-48.51-21.76-48.51-48.51s21.76-48.51,48.51-48.51Z"/><path class="ai" d="M1710.09,1067.24v-96.24h-29.17v96.24c0,7.23-4.48,13.7-11.25,16.24-33.88,12.69-58.4,48.01-58.4,74.74,0,20.53,14.47,36.09,36.54,44.96h95.38c22.07-8.87,36.54-24.43,36.54-44.96,0-26.73-24.52-62.05-58.4-74.74-6.77-2.53-11.25-9.01-11.25-16.24Z"/><path class="k" d="M1923.83,1091.54v-79.03h-23.96v79.03c0,5.94-3.68,11.25-9.24,13.33-27.82,10.42-47.96,39.43-47.96,61.38,0,16.86,11.89,29.63,30.01,36.92h78.33c18.12-7.29,30.01-20.06,30.01-36.92,0-21.95-20.13-50.96-47.96-61.38-5.56-2.08-9.24-7.4-9.24-13.33Z"/><circle class="aj" cx="1847.67" cy="532.95" r="7.52"/><circle class="aj" cx="1817.24" cy="456.49" r="10.37"/><circle class="f" cx="1202.95" cy="327.23" r="10.37"/><circle class="aj" cx="1805.91" cy="516.95" r="5.57"/><circle class="ak" cx="1262.23" cy="798.19" r="13.6" transform="translate(-134.57 269.72) rotate(-11.58)"/><circle class="ak" cx="1192.91" cy="825.48" r="7.31" transform="translate(50.86 1720) rotate(-72.75)"/><circle class="f" cx="1175.97" cy="292.39" r="5.57"/><circle class="f" cx="1192.25" cy="252.97" r="10.71" transform="translate(170.32 917.14) rotate(-45)"/><path class="p" d="M1289.22,1165.08l-98.17-136.96c-6.44-8.98-9.9-19.75-9.9-30.8v-139.01h-45.56v139.01c0,11.05-3.46,21.82-9.9,30.8l-98.17,136.97c-10.38,14.48-.03,34.62,17.78,34.62h226.14c17.81,0,28.16-20.14,17.78-34.62Z"/><path class="ak" d="M1243.22,1100.9c-5.43,1.29-10.79,2.92-16.04,4.98-7.87,3.07-15.39,7.04-23.43,9.6-30.62,9.73-63.31-2.01-94.61-9.25-11.59-2.68-24.11-4.44-36.31-4.34l-45.3,63.2c-10.38,14.48-.03,34.62,17.78,34.62h226.14c17.81,0,28.16-20.14,17.78-34.62l-46-64.18Z"/><path class="ak" d="M1170.47,883.29c2.54,4.82,.69,10.79-4.14,13.33s-10.79,.69-13.33-4.14-.69-10.79,4.14-13.33c4.82-2.54,10.79-.69,13.33,4.14Z"/><path class="l" d="M1132.24,613.6c16.53,0,29.93-13.4,29.93-29.93,0,16.53,13.4,29.93,29.93,29.93-16.53,0-29.93,13.4-29.93,29.93,0-16.53-13.4-29.93-29.93-29.93Z"/><rect class="l" x="2182.31" y="1031.67" width="124.11" height="185.88" transform="translate(-262.74 996.81) rotate(-23.7)"/><rect class="t" x="2175.68" y="1063.84" width="87.12" height="4.67" transform="translate(-241.38 981.78) rotate(-23.7)"/><rect class="t" x="2182.78" y="1080.04" width="87.12" height="4.67" transform="translate(-247.29 986) rotate(-23.7)"/><rect class="t" x="2189.89" y="1096.23" width="87.12" height="4.67" transform="translate(-253.2 990.23) rotate(-23.7)"/><rect class="t" x="2197" y="1112.42" width="87.12" height="4.67" transform="translate(-259.1 994.45) rotate(-23.7)"/><rect class="t" x="2204.1" y="1128.62" width="87.12" height="4.67" transform="translate(-265.01 998.67) rotate(-23.7)"/><rect class="t" x="2211.21" y="1144.81" width="87.12" height="4.67" transform="translate(-270.92 1002.89) rotate(-23.7)"/><rect class="t" x="2218.32" y="1161" width="87.12" height="4.67" transform="translate(-276.83 1007.12) rotate(-23.7)"/><path class="l" d="M2077.01,846.71c15.91-1.91,19.23,10.05,19.3,10.48,1.19,7.23-4.88,14.45-10.41,15.61l-85.01,21.57c-1.42,.55-10.38-1.93-11.3-3.99-.31-.69-.47-1.39-.5-2.04-.97-5.04,1.01-10.22,3.95-12.46,15.34-11.67,68.24-27.29,83.98-29.18Z"/><path class="h" d="M1917.41,858.37s-36.92-11.01-40.55-20.01,32.68-2.49,48.41,14.69l-7.86,5.32Z"/><path class="l" d="M1917.47,844.44c26.21,4.4,64.79,15.72,80.54,24.32,13.06,7.13,6.94,18.72,6.92,19.07-.18,4.05-6.46,7.44-11.45,5.75l-80.53-32.72,4.52-16.41Z"/><path class="h" d="M2045.6,1334.22c7.26,1.94,8.5,7.17,15.96,8.27,.59-28.1-.24-57.79-1.72-88.22l-16.7,5.33c2.44,23.85,3.51,48.6,2.47,74.62Z"/><path class="h" d="M2060.88,1325.58s4.35,17.16,0,17.63c-4.35,.48-66.9,2.28-67.27-.48-1.25-9.42,49.89-18.11,54.9-17.16,5.01,.95,11.8-2.49,12.37,0Z"/><path class="h" d="M2129.59,1333.68c-7.25,1.99-8.44,7.24-15.89,8.39-.82-28.09-.23-57.79,1.01-88.23l16.74,5.2c-2.24,23.87-3.11,48.63-1.86,74.64Z"/><path class="h" d="M2114.24,1325.16s-4.21,17.19,.14,17.63c4.35,.44,66.92,1.74,67.27-1.02,1.18-9.43-50.03-17.7-55.04-16.71-5.01,.99-11.82-2.4-12.37,.1Z"/><path class="s" d="M2065.03,1299.27l-25.82-.36s-15.89-194.83-7.46-299.74l54.44-2.57s-8.53,142.27-16.09,166.97c0,0,3.31,119.81-5.07,135.7Z"/><path class="s" d="M2110.14,1298.44l24.81-1.41s1.95-190.99-14.06-295.02l-54.49,1.39s18.81,141.28,28.15,165.36c0,0,6.09,114.44,15.59,129.68Z"/><polygon class="ad" points="2031.08 989.52 2031.08 1014.51 2099.96 1004.28 2095.97 989.52 2031.08 989.52"/><path class="l" d="M2141.67,1187.32c-5.88-.58-22.66,.94-41.25,4.74-9.58,1.96-18,2.64-25.68,2.64l-11.92-79.94-4.89,78.98c-11.88-1.23-22.5-3.11-34.17-2.46,5.85-41.99-4.72-253.69,14.63-306.42,8.32-22.68,29.97-36.78,31.16-37.19,22.41-11.07,51.8,5.06,52.89,31.15,.36,8.72,19.43,265.57,19.23,308.5Z"/><path class="ad" d="M2024.25,1326.93c6.42,3.15,17.07,5.21,29.15,5.21,3.86,0,7.57-.21,11.05-.6,.8,6.11,1.16,13.23-1.49,13.57-4.68,.6-72.03,2.89-72.42-.6-.78-6.89,17.29-13.48,33.72-17.58Z"/><path class="ad" d="M2150.17,1325.05c-6.3,3.38-16.87,5.84-28.93,6.28-3.86,.14-7.57,.07-11.06-.19-.58,6.13-.67,13.26,1.99,13.51,4.7,.43,72.09,.22,72.35-3.28,.52-6.92-17.78-12.83-34.35-16.32Z"/><path class="l" d="M2101.97,887.65c-10.26-12.31-2.03-21.6-1.71-21.9,5.42-4.93,14.78-3.78,18.76,.24l64.37,59.58c1.23,.89,4.03,9.76,2.81,11.65-.41,.63-.91,1.15-1.44,1.53-3.7,3.56-9.12,4.72-12.6,3.46-18.14-6.52-60.03-42.4-70.18-54.57Z"/><path class="h" d="M2199.47,1013.29s11.48,36.77,6.05,44.81c-5.43,8.04-20.32-25.72-14.85-48.36l8.8,3.55Z"/><path class="l" d="M2187.89,1021.02c-10.99-24.2-23.15-62.52-24.81-80.39-1.38-14.82,11.65-16.21,11.95-16.39,3.46-2.11,9.77,1.2,11.16,6.29l17.84,85.07-16.13,5.41Z"/><path class="y" d="M2075.42,846.93s-16.28,11.22-17.68,44.27c0,0,26.16-11.31,34.23-19.52,8.07-8.21,16.69-18.87,6.04-25.17-11.81-6.99-22.58,.42-22.58,.42Z"/><path class="aa" d="M2096.46,789.95s22.39,3.83,28.73-9.91-4.94-30.88,10.8-39.32c15.74-8.45,4.92-15.4,16.55-27.8,17.86-19.07,66.47-17.12,78.65,22.46,12.63,41.05-8.79,62.91-30.69,73.37s-51.21,5.33-73.63,1.94-30.41-20.73-30.41-20.73Z"/><ellipse class="aa" cx="2116.25" cy="798.55" rx="43.87" ry="34.12" transform="translate(749.11 2600.53) rotate(-73.49)"/><path class="h" d="M2112.69,814.46c-19.19,17.67-47.07,18.63-57.87,6.9-10.8-11.73-.44-31.71,18.75-49.38,19.19-17.67,37.72-17.16,48.52-5.43,10.8,11.73,9.79,30.23-9.4,47.91Z"/><path class="h" d="M2108.5,805.82l-26.97-4.87c-.67,3.69-6.4,38.9-6.11,52.37,.66,4.2,7.29,6.63,14.8,5.45,6.75-1.07,11.87-4.7,12.37-8.47h.03c-.18-8.08,3.56-31.58,5.88-44.48Z"/><path class="aa" d="M2136.9,780.15s-28.75-2.84-45.43-8.44c-16.05-5.39-26.7,9.26-26.7,9.26,0,0,9.08-26.11,25.61-32.04,16.53-5.93,46.64,6.02,46.52,31.22Z"/><path class="aa" d="M2122.07,771.04s-14.5,16.87-10.96,29.21c3.55,12.33,1.29,18.36,1.29,18.36l11.82-6.32,21.24-25.6-23.38-15.65Z"/><path class="h" d="M2114.79,827.59c-4.47,4.11-14.27,4.94-17.25,1.7-2.98-3.24-.1-7.38,4.37-11.49s11.06-5.34,14.04-2.1c2.98,3.24,3.31,7.78-1.16,11.89Z"/><path class="i" d="M2123.18,782.96c1.21-.95,2.96-.74,3.91,.47,.95,1.21,.74,2.96-.47,3.91-1.21,.95-2.96,.74-3.91-.47-.95-1.21-.74-2.96,.47-3.91Z"/><path class="i" d="M2125.98,786.53c1.21-.95,2.96-.74,3.91,.47,.95,1.21,.74,2.96-.47,3.91-1.21,.95-2.96,.74-3.91-.47s-.74-2.96,.47-3.91Z"/><path class="i" d="M2128.78,790.1c1.21-.95,2.96-.74,3.91,.47,.95,1.21,.74,2.96-.47,3.91-1.21,.95-2.96,.74-3.91-.47-.95-1.21-.74-2.96,.47-3.91Z"/><path class="i" d="M2131.58,793.67c1.21-.95,2.96-.74,3.91,.47s.74,2.96-.47,3.91c-1.21,.95-2.96,.74-3.91-.47-.95-1.21-.74-2.96,.47-3.91Z"/><path class="p" d="M1872.22,950.5h0c-9.96,0-18.04-8.08-18.04-18.04v-142h36.08v142c0,9.96-8.08,18.04-18.04,18.04Z"/><path class="ac" d="M1874.96,875.24c-5.92,4.26-13.72,4.34-20.78,6.29v50.94c0,9.96,8.08,18.04,18.04,18.04s18.04-8.08,18.04-18.04v-71.3c-.15,.06-.31,.1-.46,.17-6.25,2.76-9.3,9.92-14.84,13.91Z"/><path class="ab" d="M1869.77,771.04c0-3.78,3.06-6.84,6.84-6.84s6.84,3.06,6.84,6.84-3.06,6.84-6.84,6.84-6.84-3.06-6.84-6.84Z"/><circle class="ab" cx="1912.34" cy="643.75" r="6.84"/><circle class="ab" cx="1912.34" cy="690.24" r="13.98" transform="translate(924.69 2467.32) rotate(-80.78)"/><circle class="m" cx="1681.42" cy="937.58" r="13.98"/><circle class="m" cx="1685.6" cy="810.76" r="9.8"/><circle class="m" cx="1725.68" cy="877.66" r="31.81"/><circle class="ab" cx="1859.73" cy="718.31" r="20.93" transform="translate(852.81 2438.97) rotate(-80.78)"/><path class="m" d="M1755.47,1148.23c-7.11,2.28-14.77,2.15-22.18,1.22-27.02-3.41-51.49-16.96-76.51-27.7-8.5-3.65-17.36-7-26.37-9.52-11.96,14.55-19.14,31.52-19.14,45.99,0,20.53,14.47,36.09,36.54,44.96h95.38c22.07-8.87,36.54-24.43,36.54-44.96,0-6.95-1.67-14.49-4.73-22.06-5.94,4.98-12.2,9.72-19.54,12.08Z"/><path class="u" d="M1410.19,134.48c23.27,0,42.89,15.61,48.97,36.92h-97.95c6.08-21.32,25.71-36.92,48.97-36.92Z"/><path class="u" d="M1467.51,145.93c16.06,0,29.6,10.77,33.8,25.48h-67.59c4.2-14.71,17.74-25.48,33.8-25.48Z"/><path class="u" d="M1394.66,171.41c-6.58-22.76-32.65-39.76-63.81-39.76s-57.23,17-63.81,39.76h127.61Z"/></svg>