<?xml version="1.0" encoding="utf-8"?>
<!-- Generator: Adobe Illustrator 26.3.1, SVG Export Plug-In . SVG Version: 6.00 Build 0)  -->
<svg version="1.1" id="a" xmlns="http://www.w3.org/2000/svg" xmlns:xlink="http://www.w3.org/1999/xlink" x="0px" y="0px"
	 viewBox="0 0 3156.8 1619.5" style="enable-background:new 0 0 3156.8 1619.5;" xml:space="preserve">
<style type="text/css">
	.st0{fill:#FFDAC6;}
	.st1{fill:#FF9357;}
	.st2{fill:#A3C3D2;}
	.st3{fill:#D3D3D3;}
	.st4{fill:#E6E6E6;}
	.st5{fill:#FFC3A1;}
	.st6{fill:#5C95AE;}
	.st7{fill:#FFB58B;}
	.st8{fill:#FFFFFF;}
	.st9{fill:#FDB68E;}
	.st10{fill:#FED7C1;}
	.st11{fill:none;stroke:#FDA777;stroke-width:13;stroke-linecap:round;stroke-linejoin:round;}
	.st12{fill:none;stroke:#FFFFFF;stroke-width:5;stroke-miterlimit:10;}
	.st13{fill:#C69483;}
	.st14{fill:#005981;}
	.st15{fill:#4284A2;}
	.st16{fill:#0A6086;}
	.st17{fill:#FDB68E;enable-background:new    ;}
	.st18{fill:#A9262C;enable-background:new    ;}
	.st19{fill:#FFFFFF;enable-background:new    ;}
	.st20{fill:#FD8E50;enable-background:new    ;}
	.st21{fill:#337A9A;}
	.st22{fill:#FD9A63;}
	.st23{fill:#FFCDB1;}
	.st24{fill:#A9262C;}
	.st25{fill:#FAD454;enable-background:new    ;}
	.st26{fill:#F9C926;enable-background:new    ;}
	.st27{fill:#FD945A;}
	.st28{fill:#005981;enable-background:new    ;}
</style>
<path class="st0" d="M2398.6,328.8c-71.6,0-140.8,9.9-206.5,28.4C2023.3,139.9,1759.5,0,1463,0c-439.8,0-807.6,307.7-900.1,719.5
	c-12.1-2.5-24.6-3.9-37.5-3.9c-100.4,0-181.7,81.4-181.7,181.7c0,12.5,1.3,24.6,3.6,36.4C147.6,985.1,0,1166.4,0,1382.2
	c0,86.7,23.9,167.9,65.3,237.3h2872.9c135.1-136.9,218.5-325,218.5-532.5C3156.8,668.2,2817.3,328.8,2398.6,328.8L2398.6,328.8z"/>
<path class="st1" d="M2456.8,1083.6l4.3-1.7c-0.3-0.8-29.2-75.9-84.4-123.6l-3,3.5C2428,1008.8,2456.5,1082.9,2456.8,1083.6
	L2456.8,1083.6z"/>
<path class="st1" d="M2363.9,961.4c-1.7-4.5,0.6-9.4,5.1-11.1c4.4-1.7,9.4,0.6,11.1,5.1c1.7,4.5-0.6,9.4-5.1,11.1
	C2370.5,968.1,2365.5,965.8,2363.9,961.4z"/>
<path class="st1" d="M2393.5,946c-1.7-4.5,0.6-9.4,5.1-11.1c4.4-1.7,9.4,0.6,11.1,5.1c1.7,4.5-0.6,9.4-5.1,11.1
	C2400.1,952.7,2395.1,950.4,2393.5,946z"/>
<path class="st1" d="M2372,1019.3c-1.7-4.5,0.6-9.4,5.1-11.1c4.4-1.7,9.4,0.6,11.1,5.1c1.7,4.5-0.6,9.4-5.1,11.1
	C2378.6,1026,2373.7,1023.7,2372,1019.3L2372,1019.3z"/>
<path class="st1" d="M2403.2,992.2l4.5-1.3c-0.1-0.2-6.3-22.8-4.4-43.1l-4.6-0.5C2396.6,968.5,2402.9,991.2,2403.2,992.2
	L2403.2,992.2z"/>
<path class="st1" d="M2421.6,1016.5l1.1-4.5c-0.7-0.2-16.8-4.1-39.1,0.5l0.9,4.5C2405.9,1012.6,2421.4,1016.4,2421.6,1016.5
	L2421.6,1016.5z"/>
<path class="st1" d="M2502.5,1071.6c0-0.8-0.6-81.3-35.4-145.4l-4.1,2.2c34.3,63,34.9,142.4,34.9,143.2L2502.5,1071.6L2502.5,1071.6
	z"/>
<path class="st1" d="M2454,924.4c0-4.8,3.9-8.6,8.6-8.6s8.6,3.9,8.6,8.6c0,4.8-3.9,8.6-8.6,8.6C2457.9,933,2454,929.2,2454,924.4z"
	/>
<path class="st1" d="M2487.2,920.4c0-4.8,3.9-8.6,8.6-8.6c4.8,0,8.6,3.9,8.6,8.6s-3.9,8.6-8.6,8.6
	C2491,929,2487.1,925.2,2487.2,920.4z"/>
<path class="st1" d="M2441.2,981.5c0-4.8,3.9-8.6,8.6-8.6c4.8,0,8.6,3.9,8.6,8.6s-3.9,8.6-8.6,8.6
	C2445.1,990.1,2441.2,986.2,2441.2,981.5z"/>
<path class="st1" d="M2484.6,967.5c0-0.2,2.1-23.6,11.1-41.9l-4.2-2c-9.4,19.1-11.5,42.5-11.6,43.5L2484.6,967.5L2484.6,967.5z"/>
<path class="st1" d="M2488.7,996.3l2.6-3.8c-0.6-0.4-14.2-9.8-36.8-13.3l-0.7,4.6C2475.3,987.1,2488.5,996.2,2488.7,996.3
	L2488.7,996.3z"/>
<path class="st1" d="M640.8,1106.2c34.3,0,63.3,23,72.3,54.5H568.5C577.5,1129.3,606.5,1106.2,640.8,1106.2L640.8,1106.2z"/>
<path class="st1" d="M288.4,1080.4c50.6,0,93.3,33.9,106.5,80.3h-213C195.1,1114.4,237.8,1080.4,288.4,1080.4z"/>
<path class="st1" d="M619,1160.8c-16.3-56.5-81-98.7-158.4-98.7s-142.1,42.2-158.4,98.7H619L619,1160.8z"/>
<path class="st2" d="M733.2,1516.6c-38.1-3-75.7,8-113.6,13c-37.9,5-80.1,2.6-108.8-22.6c-21.8-19.1-33.5-49.3-59.1-62.8
	c-24.3-12.8-53.6-6.7-81.1-7.1c-55.6-0.8-109.9-32-138.6-79.7c-18.7-31.1-27.3-68.7-52.3-95c-29.9-31.5-77.2-40.1-120.6-36.9
	c-11.2,0.8-22.2,2.3-33.3,4.1C9.1,1277.4,0,1328.7,0,1382.2c0,86.7,23.9,167.9,65.3,237.3h803.2c-6.4-13.1-13.1-26.1-21.5-38
	C821,1544.6,778.1,1520.2,733.2,1516.6L733.2,1516.6z"/>
<path class="st3" d="M3016.7,1357.7c-34.9-4.5-69.4,8.3-104.3,12.4c-52.9,6.2-108.1-8.5-150.9-40.3c-38.5-28.6-67.5-70.3-110.9-90.7
	c-67.3-31.6-154.2-4.8-216-46.1c-13.6-9.1-24.8-20.7-34.2-33.9H57.2c-12.4,22.4-22.9,46-31.5,70.5c11-1.8,22.1-3.3,33.3-4.1
	c43.3-3.2,90.7,5.3,120.6,36.9c25,26.3,33.6,63.9,52.3,95c28.7,47.7,83,78.9,138.6,79.7c27.5,0.4,56.8-5.7,81.1,7.1
	c25.6,13.5,37.3,43.7,59.1,62.8c28.7,25.2,70.9,27.6,108.8,22.6c37.9-5,75.5-16.1,113.6-13c45,3.6,87.9,28,113.9,64.9
	c8.4,11.9,15.1,24.9,21.5,38h2069.7c62.6-63.4,114-137.8,151.2-220C3070.7,1377.3,3045.9,1361.5,3016.7,1357.7L3016.7,1357.7z"/>
<path class="st4" d="M2400.4,1159.1c9.5,13.1,20.6,24.8,34.2,33.9c61.8,41.3,148.7,14.4,216,46.1c43.4,20.4,72.4,62.1,110.9,90.7
	c42.8,31.8,97.9,46.5,150.9,40.3c34.9-4.1,69.4-16.9,104.3-12.4c29.2,3.8,54,19.6,72.8,41.8c33.7-74.5,55.8-155.4,63.8-240.4
	L2400.4,1159.1L2400.4,1159.1z"/>
<path class="st1" d="M2725.4,630.3c0,0,22.6-21.6,23.5-59.7s33.3-41.6,42.3-25.3C2800.3,561.6,2791.6,600.9,2725.4,630.3z"/>
<path class="st1" d="M2703.5,656c0,0-8.9-30-42.3-48.3c-33.4-18.3-21.8-48.7-3.1-49.2C2676.6,558,2707.5,583.7,2703.5,656
	L2703.5,656z"/>
<path class="st1" d="M2706.7,659.1c0,0,31.3-0.8,59,25.3c27.7,26.2,53,5.6,47.8-12.2S2774.2,632.9,2706.7,659.1L2706.7,659.1z"/>
<path class="st1" d="M2665.4,710.7c0,0,31.3-0.8,59,25.3c27.7,26.2,53,5.6,47.8-12.2S2732.9,684.5,2665.4,710.7L2665.4,710.7z"/>
<path class="st1" d="M2640.4,766.4c0,0,31.3-0.8,59,25.3c27.7,26.2,53,5.6,47.8-12.2S2707.8,740.2,2640.4,766.4L2640.4,766.4z"/>
<path class="st1" d="M2612.4,836.8c0,0,31.3-0.8,59,25.3c27.7,26.2,53,5.6,47.8-12.2S2679.8,810.6,2612.4,836.8L2612.4,836.8z"/>
<path class="st1" d="M2665.9,710.3c0,0-8.9-30-42.3-48.3c-33.4-18.3-21.8-48.7-3.1-49.2C2639,612.3,2669.9,638,2665.9,710.3
	L2665.9,710.3z"/>
<path class="st1" d="M2635.3,771.5c0,0-8.9-30-42.3-48.3c-33.4-18.3-21.8-48.7-3.1-49.2C2608.4,673.6,2639.4,699.3,2635.3,771.5
	L2635.3,771.5z"/>
<path class="st1" d="M2610.2,835.5c0,0-8.9-30-42.3-48.3c-33.4-18.3-21.8-48.7-3.1-49.2C2583.4,737.5,2614.3,763.2,2610.2,835.5
	L2610.2,835.5z"/>
<path class="st1" d="M2564,1126.5c1.7-0.2,2.9-1.6,2.9-3.3c0-0.8-1.2-80.9,19.5-182.2c19.1-93.3,61.2-224,153.5-317.5
	c1.3-1.3,1.2-3.3,0-4.6s-3.3-1.2-4.6,0c-93.5,94.6-136,226.7-155.2,320.8c-20.8,101.9-19.6,182.6-19.6,183.4c0,1.8,1.5,3.2,3.3,3.2
	C2563.8,1126.5,2563.9,1126.5,2564,1126.5L2564,1126.5z"/>
<path class="st1" d="M2898.7,850.1c0,0,20-7.9,30.5-31.9s32-17.9,33.5-5.2C2964.2,825.7,2948.4,848.5,2898.7,850.1L2898.7,850.1z"/>
<path class="st1" d="M2878,860.7c0,0,2.1-21.4-14.4-41.7c-16.6-20.3-1.2-36.7,10.8-32.2S2899.4,815.7,2878,860.7L2878,860.7z"/>
<path class="st1" d="M2879.3,863.5c0,0,20.1,7.6,31,31.4s32.3,17.3,33.6,4.6S2929.1,864.3,2879.3,863.5z"/>
<path class="st1" d="M2839.6,885.7c0,0,20.1,7.6,31,31.4s32.3,17.3,33.6,4.6S2889.4,886.5,2839.6,885.7z"/>
<path class="st1" d="M2809.2,914.7c0,0,20.1,7.6,31,31.4s32.3,17.3,33.6,4.6S2859,915.5,2809.2,914.7z"/>
<path class="st1" d="M2773.1,952.3c0,0,20.1,7.6,31,31.4s32.3,17.3,33.6,4.6S2822.9,953.1,2773.1,952.3z"/>
<path class="st1" d="M2840,885.5c0,0,2.1-21.4-14.4-41.7c-16.6-20.3-1.2-36.7,10.8-32.2S2861.3,840.6,2840,885.5L2840,885.5z"/>
<path class="st1" d="M2804.6,916.6c0,0,2.1-21.4-14.4-41.7c-16.6-20.3-1.2-36.7,10.8-32.2S2826,871.7,2804.6,916.6L2804.6,916.6z"/>
<path class="st1" d="M2772,950.8c0,0,2.1-21.4-14.4-41.7c-16.6-20.3-1.2-36.7,10.8-32.2S2793.4,905.9,2772,950.8L2772,950.8z"/>
<path class="st1" d="M2667.1,1124.3c1.1,0.3,2.3-0.2,2.7-1.3c0.2-0.5,20.2-51.9,59.7-111c36.3-54.5,97.1-126.8,180.1-162.4
	c1.1-0.5,1.6-1.8,1.2-2.9s-1.8-1.7-2.9-1.2c-84.1,36-145.5,109.1-182.2,164.1c-39.7,59.5-59.9,111.3-60.1,111.8
	c-0.4,1.2,0.1,2.4,1.3,2.9C2667,1124.2,2667.1,1124.3,2667.1,1124.3L2667.1,1124.3z"/>
<path class="st1" d="M438.4,1139.4l8.2,0.5c0-0.5,3-55-5.2-132.5c-7.6-71.5-26.5-177.8-73.6-278.3l-7.5,3.5
	C449.6,923,438.5,1137.2,438.4,1139.4L438.4,1139.4z"/>
<path class="st1" d="M355.4,682c13.8,30.8,14.1,60.6,14.1,60.6s-22.2-20-36-50.8c-13.8-30.8-14.1-60.6-14.1-60.6
	S341.5,651.2,355.4,682z"/>
<path class="st1" d="M414.3,719.8c-12,31.5-33,52.8-33,52.8s-1.5-29.8,10.5-61.3c12-31.5,33-52.8,33-52.8S426.3,688.3,414.3,719.8z"
	/>
<path class="st1" d="M318.9,768.7c-33.1-6.5-57.6-23.6-57.6-23.6s29.1-6.5,62.2,0.1c33.1,6.5,57.6,23.6,57.6,23.6
	S351.9,775.2,318.9,768.7z"/>
<path class="st1" d="M337.9,832c-33.6,3.3-61.9-6-61.9-6s26-14.6,59.6-17.9s61.9,6,61.9,6S371.5,828.8,337.9,832z"/>
<path class="st1" d="M355.9,894.8c-33.7,0.3-61.2-11.5-61.2-11.5s27.2-12.3,60.9-12.6s61.2,11.5,61.2,11.5S389.6,894.5,355.9,894.8z
	"/>
<path class="st1" d="M368.6,955.9c-33.7-0.9-60.7-13.7-60.7-13.7s27.6-11.3,61.4-10.4c33.7,0.9,60.7,13.7,60.7,13.7
	S402.4,956.8,368.6,955.9z"/>
<path class="st1" d="M375.6,1029.2c-33.6,3.3-61.9-6-61.9-6s26-14.6,59.6-17.9s61.9,6,61.9,6S409.1,1025.9,375.6,1029.2z"/>
<path class="st1" d="M447.8,782.3c-23,24.6-50.5,36.4-50.5,36.4s9.9-28.2,32.9-52.8c23-24.6,50.5-36.4,50.5-36.4
	S470.8,757.7,447.8,782.3z"/>
<path class="st1" d="M489.1,932.8c-31,13.4-60.8,13.2-60.8,13.2s20.3-21.9,51.3-35.2c31-13.4,60.8-13.2,60.8-13.2
	S520,919.4,489.1,932.8z"/>
<path class="st1" d="M498.6,1015c-33.3,5.2-62.2-2.5-62.2-2.5s25.1-16.1,58.5-21.3c33.3-5.2,62.2,2.5,62.2,2.5
	S531.9,1009.8,498.6,1015L498.6,1015z"/>
<path class="st1" d="M471,856.7c-26.5,20.8-55.4,28.3-55.4,28.3s14.1-26.3,40.6-47.2s55.4-28.3,55.4-28.3S497.5,835.9,471,856.7z"/>
<path class="st1" d="M600.3,1142.2l-5.5-0.5c0-0.4,3.1-36.8,15.8-87.3c11.7-46.7,34.1-115.4,74.7-177.6l4.6,3
	C613,997.8,600.4,1140.8,600.3,1142.2L600.3,1142.2z"/>
<path class="st1" d="M698,846.8c-12,19.1-15,38.8-15,38.8s16.5-11.2,28.6-30.3s15-38.8,15-38.8S710,827.8,698,846.8z"/>
<path class="st1" d="M655.4,866.4c5,22,16.9,38,16.9,38s3.8-19.6-1.2-41.6s-16.9-38-16.9-38S650.4,844.4,655.4,866.4z"/>
<path class="st1" d="M714.1,907.7c22.5-1.2,40.3-10.3,40.3-10.3s-18.7-7-41.2-5.8c-22.5,1.2-40.3,10.3-40.3,10.3
	S691.6,909,714.1,907.7z"/>
<path class="st1" d="M695.6,947.9c21.9,5.3,41.6,1.8,41.6,1.8s-15.9-12.1-37.8-17.4c-21.9-5.3-41.6-1.8-41.6-1.8
	S673.6,942.6,695.6,947.9z"/>
<path class="st1" d="M677.8,987.8c22.3,3.3,41.6-1.9,41.6-1.9s-16.9-10.7-39.2-14c-22.3-3.3-41.6,1.9-41.6,1.9
	S655.5,984.5,677.8,987.8z"/>
<path class="st1" d="M663.6,1027.1c22.4,2.5,41.5-3.4,41.5-3.4s-17.3-10-39.7-12.6s-41.5,3.4-41.5,3.4S641.2,1024.6,663.6,1027.1z"
	/>
<path class="st1" d="M652.2,1075.1c21.9,5.3,41.6,1.8,41.6,1.8s-15.9-12.1-37.8-17.4c-21.9-5.3-41.6-1.8-41.6-1.8
	S630.3,1069.8,652.2,1075.1z"/>
<path class="st1" d="M627.4,904.7c13,18.5,30,28.8,30,28.8s-3.9-19.6-16.9-38.1s-30-28.8-30-28.8S614.4,886.2,627.4,904.7z"/>
<path class="st1" d="M586,1000.6c19.3,11.7,39.1,14.4,39.1,14.4s-11.4-16.4-30.7-28.1s-39.1-14.4-39.1-14.4S566.7,988.9,586,1000.6z
	"/>
<path class="st1" d="M572,1054.2c21.6,6.6,41.4,4.2,41.4,4.2s-15.2-13-36.8-19.6s-41.4-4.2-41.4-4.2S550.4,1047.6,572,1054.2z"/>
<path class="st1" d="M605.1,951.9c15.6,16.3,34.1,23.9,34.1,23.9s-6.9-18.8-22.5-35c-15.6-16.3-34.1-23.9-34.1-23.9
	S589.4,935.6,605.1,951.9z"/>
<path class="st2" d="M772.2,1285.4h1612.3c31,0,56.1,25.1,56.1,56.1v0c0,31-25.1,56.1-56.1,56.1H772.2c-31,0-56.1-25.1-56.1-56.1v0
	C716.2,1310.5,741.3,1285.4,772.2,1285.4z"/>
<path class="st1" d="M2945.6,1093.7c42.2,0,77.9,28.3,88.9,67h-177.8C2867.8,1122.1,2903.4,1093.7,2945.6,1093.7L2945.6,1093.7z"/>
<path class="st1" d="M2512.3,1062c62.2,0,114.7,41.7,130.9,98.7h-261.9C2397.6,1103.7,2450.1,1062,2512.3,1062L2512.3,1062z"/>
<path class="st1" d="M2918.7,1160.8c-20.1-69.5-99.6-121.4-194.8-121.4s-174.7,51.9-194.8,121.4H2918.7z"/>
<path class="st5" d="M2343.7,1032.6c80.8,0,148.9,54.2,170,128.2h-340.1C2194.8,1086.8,2262.9,1032.6,2343.7,1032.6L2343.7,1032.6z"
	/>
<path class="st5" d="M1514.9,971.9c119,0,219.4,79.8,250.5,188.8h-500.9C1295.6,1051.7,1395.9,971.9,1514.9,971.9z"/>
<path class="st5" d="M2292.3,1160.8c-38.4-132.9-190.6-232.2-372.5-232.2s-334.1,99.3-372.5,232.2H2292.3z"/>
<path class="st5" d="M2973.5,1132.5c36.3,0,66.9,24.3,76.4,57.6h-152.9C2906.6,1156.9,2937.2,1132.5,2973.5,1132.5L2973.5,1132.5z"
	/>
<path class="st5" d="M3063,1150.4c25.1,0,46.2,16.8,52.8,39.8h-105.5C3016.8,1167.2,3037.9,1150.4,3063,1150.4L3063,1150.4z"/>
<path class="st5" d="M2949.3,1190.2c-10.3-35.5-50.9-62.1-99.6-62.1s-89.3,26.5-99.6,62.1H2949.3L2949.3,1190.2z"/>
<path class="st6" d="M2561.5,1343.5c36.3,0,66.9,24.3,76.4,57.6H2485C2494.5,1367.8,2525.2,1343.5,2561.5,1343.5L2561.5,1343.5z"/>
<path class="st6" d="M2650.9,1361.3c25.1,0,46.2,16.8,52.8,39.8h-105.5C2604.7,1378.2,2625.9,1361.3,2650.9,1361.3L2650.9,1361.3z"
	/>
<path class="st6" d="M2537.2,1401.1c-10.3-35.5-50.9-62.1-99.6-62.1s-89.3,26.5-99.6,62.1H2537.2L2537.2,1401.1z"/>
<path class="st7" d="M2655.5,337.1c42.2,0,77.9,28.3,88.9,67h-177.8C2577.7,365.4,2613.3,337.1,2655.5,337.1L2655.5,337.1z"/>
<path class="st7" d="M2222.2,305.4c62.2,0,114.7,41.7,130.9,98.7h-261.9C2107.5,347.1,2160,305.4,2222.2,305.4L2222.2,305.4z"/>
<path class="st7" d="M2628.6,404.1c-20.1-69.5-99.6-121.4-194.8-121.4s-174.7,51.9-194.8,121.4H2628.6z"/>
<path class="st8" d="M2500.7,378.7c36.3,0,66.9,24.4,76.4,57.6h-152.9C2433.7,403.1,2464.4,378.7,2500.7,378.7L2500.7,378.7z"/>
<path class="st8" d="M2590.1,396.6c25.1,0,46.2,16.8,52.8,39.8h-105.5C2543.9,413.4,2565.1,396.6,2590.1,396.6L2590.1,396.6z"/>
<path class="st8" d="M2476.4,436.4c-10.3-35.5-50.9-62.1-99.6-62.1s-89.3,26.5-99.6,62.1H2476.4L2476.4,436.4z"/>
<path class="st1" d="M1160.3,1389.4c20.1,0,37,13.4,42.2,31.8h-84.4C1123.3,1402.8,1140.2,1389.4,1160.3,1389.4L1160.3,1389.4z"/>
<path class="st1" d="M954.5,1374.3c29.5,0,54.5,19.8,62.2,46.9H892.4C900.1,1394.2,925,1374.3,954.5,1374.3z"/>
<path class="st1" d="M1147.5,1421.2c-9.5-33-47.3-57.6-92.5-57.6s-83,24.6-92.5,57.6H1147.5L1147.5,1421.2z"/>
<path class="st8" d="M2351.4,642.2c16.5,0,29.9-13.4,29.9-29.9c0,16.5,13.4,29.9,29.9,29.9c-16.5,0-29.9,13.4-29.9,29.9
	C2381.4,655.6,2368,642.2,2351.4,642.2z"/>
<path class="st8" d="M1586.7,272c16.5,0,29.9-13.4,29.9-29.9c0,16.5,13.4,29.9,29.9,29.9c-16.5,0-29.9,13.4-29.9,29.9
	C1616.6,285.4,1603.2,272,1586.7,272z"/>
<path class="st8" d="M949.7,494.2c9.2,0,16.7-7.5,16.7-16.7c0,9.2,7.5,16.7,16.7,16.7c-9.2,0-16.7,7.5-16.7,16.7
	C966.4,501.7,958.9,494.2,949.7,494.2z"/>
<path class="st8" d="M2194.9,501c9.2,0,16.7-7.5,16.7-16.7c0,9.2,7.5,16.7,16.7,16.7c-9.2,0-16.7,7.5-16.7,16.7
	C2211.6,508.5,2204.2,501,2194.9,501z"/>
<path class="st8" d="M790.3,1039.4c9.2,0,16.7-7.5,16.7-16.7c0,9.2,7.5,16.7,16.7,16.7c-9.2,0-16.7,7.5-16.7,16.7
	C807,1046.8,799.5,1039.4,790.3,1039.4z"/>
<path class="st8" d="M1686.7,185.3c9.2,0,16.7-7.5,16.7-16.7c0,9.2,7.5,16.7,16.7,16.7c-9.2,0-16.7,7.5-16.7,16.7
	C1703.4,192.7,1695.9,185.3,1686.7,185.3z"/>
<path class="st8" d="M1594.6,867.3c9.2,0,16.7-7.5,16.7-16.7c0,9.2,7.5,16.7,16.7,16.7c-9.2,0-16.7,7.5-16.7,16.7
	C1611.3,874.8,1603.8,867.3,1594.6,867.3z"/>
<path class="st8" d="M1286.8,693.7c9.2,0,16.7-7.5,16.7-16.7c0,9.2,7.5,16.7,16.7,16.7c-9.2,0-16.7,7.5-16.7,16.7
	C1303.5,701.1,1296,693.7,1286.8,693.7z"/>
<polygon class="st9" points="895.5,1255.5 875.6,1255.5 875.6,1315.3 895.5,1304 915.3,1315.3 915.3,1255.5 "/>
<path class="st10" d="M1974.8,1419.4c0,0-2.8,30.2,28.2,31.3c31.1,1.1,35.9-25.2,35.9-25.2l-22.2-8.8l-23.6-4.3L1974.8,1419.4
	L1974.8,1419.4z"/>
<path class="st8" d="M1975.1,1430.2c0,0,13.8-10.3,30-12.7c0,0-16.3-37.9-40.9-47.3c-24.7-9.4-80,5.7-180.8,27.6
	c-20.4,4.4-43.8-8.1-43.8-8.1l-21.7,55.8L1975.1,1430.2L1975.1,1430.2z"/>
<path class="st8" d="M2035.1,1430.2c0,0-13.8-10.3-30-12.7c0,0,16.3-37.9,40.9-47.3c24.7-9.4,80,5.7,180.8,27.6
	c20.4,4.4,43.8-8.1,43.8-8.1l21.7,55.8L2035.1,1430.2L2035.1,1430.2z"/>
<path class="st11" d="M2296.2,1450.7l-258.6-20.5c0,11.1-14,20-31.3,20s-31.3-9-31.3-20l-261.5,17.7"/>
<path class="st12" d="M1762.2,1344.5c0,0,11.1,25.9,81.5,16.8s143.7-25.1,161.3,56.3"/>
<path class="st12" d="M2243.7,1349.8c0,0-14.4,19.9-77.3,11.5c-70.3-9.4-143.7-25.1-161.3,56.3"/>
<path class="st12" d="M2262.5,1378.3c-14.6,13.7-50.6,7.7-104.8-4.4c-58.6-13.1-131.6-24.8-152.1,42.1"/>
<path class="st13" d="M1423.9,1317.2c0,0,6.1,20.8,2.4,22s-89.1,4.9-95.2,1.2c-6.1-3.7,12.2-9.8,12.2-9.8s40.3-11,63.5-13.4
	C1406.8,1317.2,1423.9,1316,1423.9,1317.2L1423.9,1317.2z"/>
<path class="st13" d="M1435.8,1035.3c-4.9-9.8-10.4-14.6-19.5-14.6c-10,0-18,8.3-17.7,18.3l9.5,278.9c0.2,4.4,3.8,7.9,8.2,7.9
	s8-3.5,8.2-7.9l0.4-12.1C1440.5,1114.9,1450.4,1070.7,1435.8,1035.3L1435.8,1035.3z"/>
<path class="st13" d="M1465.9,788.5c-6.9-32.7-24.4-38.2-36.5-37.8c-0.8-0.2-1.6-0.3-2.5-0.4c-10-0.7-18.6,7-18.9,17l-9.6,278.9
	c-0.2,4.4,3.2,8.1,7.6,8.4c1.5,0.1,2.9-0.2,4.1-0.8c10-2.7,17.8-10.7,20.2-21C1442.6,979.4,1475,831,1465.9,788.5L1465.9,788.5z"/>
<path class="st13" d="M1438.6,808.1c1.1-33.4,17.3-41.9,29.3-43.6c0.8-0.3,1.6-0.6,2.4-0.8c9.7-2.4,19.5,3.7,21.6,13.5l58.5,272.9
	c0.9,4.3-1.7,8.6-6,9.6c-1.4,0.4-2.9,0.3-4.2-0.1c-10.3-0.9-19.4-7.4-23.6-17.1C1495.1,991.9,1437.2,851.5,1438.6,808.1
	L1438.6,808.1z"/>
<path class="st13" d="M1595.9,1319.4c0,0-5.6,20.9-1.9,22c3.7,1.1,89.2,2.9,95.2-0.9c6-3.8-12.4-9.5-12.4-9.5s-40.5-10.1-63.7-12
	C1613,1319.1,1595.9,1318.2,1595.9,1319.4L1595.9,1319.4z"/>
<path class="st14" d="M1456.3,367.6c39.5-13,102,19.1,100.4,64.5c-0.2,4.3-0.8,8.6,0.4,12.8c1.8,6.5,7.5,11,13.2,14.5
	c12.9,7.9,27.6,13.1,38.6,23.4c17.6,16.5,21.7,46,8.2,66.1c-12.4,18.6-54.9,35.5-76.9,31.4s-40.9-19-53.5-37.5
	c-3.1-4.6-6-9.5-10.2-13.2c-7.8-6.8-18.8-8.2-28-13c-8.6-4.5-8-23.4-11.7-32.3c-4.8-11.5,6.2-22,2.8-34c-4-14-13.7-26.5-14.5-41.1
	C1424.2,390.6,1438.7,373.4,1456.3,367.6L1456.3,367.6z"/>
<path class="st13" d="M1259.4,430.8c-6.4,1.6-13.2,0.2-18.3-3.9c-13.3-10.5-37.7-31.1-38.1-41.5c-0.6-14.3,46.7,12.7,60.1,44.4
	L1259.4,430.8L1259.4,430.8z"/>
<path class="st15" d="M1245.9,430c7.5,38.4,36.2,119.4,49.6,140.2c11.1,17.3,21.5,10.3,22,10.2c6.1-1.8,10.9-12.6,8.2-19.6
	l-62.2-137.1L1245.9,430L1245.9,430z"/>
<path class="st15" d="M1537.8,790.5c3.2,0.5-2.6-106.3-7-117.5c4.2-46.7,5.6-135.8-2.5-174.6c-10.2-48.7-18.5-65.4-63.4-54.5
	c-14.2,3.4-25.9,38.5-31.3,64.5c-5.5,26-11.6,28.2-0.4,75.1c4,16.7-14.1,123.4-23.3,153.2c-2.7,8.6-3.8,37.5-9,46.3
	c5.5,4,12.5,8.7,18.5,10.2C1460.5,803.8,1495.4,784.2,1537.8,790.5L1537.8,790.5z"/>
<path class="st15" d="M1471.6,488.1c16.5-16,1.1-28.3,0.8-28.8c-3.3-6.1-16.7-7.1-23.7-2.5l-152.1,109.8c-2.6,1.5-0.2,5.9,1.3,8.6
	c0.5,0.9,1.2,1.6,2,2.1c5.2,4.8,14.6,5.8,21.4,3.3C1356.9,568.1,1450.2,509,1471.6,488.1L1471.6,488.1z"/>
<path class="st15" d="M1495.5,489.1c-10.2-18.4,7.4-26.7,7.8-27.1c4.8-5,17.2-3.1,22.3,2.6L1631,599.2c1.9,2-1.6,5.6-3.7,7.8
	c-0.7,0.7-1.5,1.2-2.4,1.5c-6.2,3.4-14.9,2.3-20.4-1.3C1575.8,588,1508.7,513.1,1495.5,489.1L1495.5,489.1z"/>
<path class="st15" d="M1764.6,603.4c-37.2-12.2-121.8-26.6-146.6-25.1c-20.6,1.3-19.5,13.7-19.6,14.2c-1.4,6.2,5.7,15.7,13.1,16.8
	l150,12.5L1764.6,603.4L1764.6,603.4z"/>
<path class="st14" d="M1492.1,428.4c0,0,31.2-12,33-43.6c2.5-42.5-40.8-62.4-63.8-48c-21.2,13.3-17.1,31.5-14.5,36
	S1492.1,428.4,1492.1,428.4L1492.1,428.4z"/>
<path class="st13" d="M1501.4,388.2l-34-2.4c-0.3,4.7-2.7,49-0.5,65.6c1.4,5.1,9.9,7.2,19,4.8c8.2-2.2,14.1-7.4,14.2-12.1h0
	C1498.8,434.1,1500.2,404.5,1501.4,388.2L1501.4,388.2z"/>
<path class="st13" d="M1499,393.2c-5.2,26.9-28,45-44.4,41.9c-16.4-3.1-20.1-26.4-15-53.3s21.1-38,37.5-34.8
	S1504.1,366.3,1499,393.2L1499,393.2z"/>
<path class="st14" d="M1457.2,344.1c0,0,6.8,36,40.2,48.1c17.2,6.2,22.7-20.9,22.7-20.9l-17.1-25.7c0,0-13.9-10.9-24.4-9.7
	C1477.7,336,1457.2,344.2,1457.2,344.1L1457.2,344.1z"/>
<path class="st14" d="M1445,364.8c0,0,29.9-11,34.3-21.4s-11-9.1-11-9.1S1448.5,341.7,1445,364.8L1445,364.8z"/>
<path class="st14" d="M1492.8,341.6c0,0-13.6-10.5-4.6-23.2c9.1-12.7,24.9-8,28.6,1.8c4.1,10.9-1.4,17.7-5.9,20.9
	S1498.2,344.8,1492.8,341.6L1492.8,341.6z"/>
<path class="st13" d="M1512.2,403c-2.7,6.2-12.3,11.6-16.8,9.7c-4.5-1.9-3.5-7.5-0.8-13.7c2.7-6.2,8.8-10.5,13.3-8.6
	C1512.5,392.3,1514.9,396.8,1512.2,403z"/>
<path class="st16" d="M1373.1,1321.2c8.8,3.9,23.6,6.4,40.2,6.4c5.3,0,10.4-0.3,15.2-0.7c1.1,7.5,1.6,16.3-2.1,16.7
	c-6.4,0.7-99.3,3.6-99.9-0.7C1325.5,1334.4,1350.4,1326.3,1373.1,1321.2L1373.1,1321.2z"/>
<path class="st13" d="M1510.6,1047.2c2.2-11.2,6.2-17.5,15.1-19.8c9.7-2.5,19.6,4,21.9,14.3l63.8,287.2c1,4.5-1.6,9-5.8,10.1
	s-8.7-1.6-10-6l-3.6-12.2C1526.9,1129.7,1505.7,1087,1510.6,1047.2L1510.6,1047.2z"/>
<path class="st16" d="M1646.9,1322.3c-8.8,4.1-23.4,6.9-40,7.3c-5.3,0.1-10.4,0-15.2-0.4c-0.9,7.6-1.2,16.3,2.4,16.7
	c6.5,0.6,99.4,1.4,99.8-2.9C1694.8,1334.4,1669.7,1326.9,1646.9,1322.3L1646.9,1322.3z"/>
<path class="st8" d="M1513.3,452.5l-47.4,92.1l-10.9-95.1c0,0-2.9,1.9-7.8,5.1l-26.3,77.5l1.3-0.8c0,0-6.2,32.2,0,52.5
	s-40.8,276.1-37.9,419h28.8l15.8-111.2l-3,122.3l127.4-7.5c0,0-1.3-273.6-10.4-333.9c-9.1-60.3,0-129.1,0-129.1l2,1.6l-11.1-75.3
	C1521.4,459.3,1513.3,452.5,1513.3,452.5L1513.3,452.5z"/>
<path class="st13" d="M1764.4,605c1.8-1.6,3.8-2.8,6.1-3.7c15.7-6.2,45.8-17,55-12.1c12.1,6.3-30,31.4-63.5,30.1L1764.4,605
	L1764.4,605z"/>
<path class="st8" d="M1447.2,454.6c0,0-106.5,67.9-125,87.4c0,0-33.7-84.3-46.1-101.3l-31.1,13.2c0,0,32.1,112.3,46.1,128
	c14,15.7,41.8,3.8,49.5,0s87-47,87-47l19.9-47.9L1447.2,454.6L1447.2,454.6z"/>
<path class="st8" d="M1525.6,464.7l16.2,90.2c0,0,40.7,52.7,63.7,59.2c23.1,6.6,130.7,12.5,130.7,12.5l5.3-36.8
	c0,0-79.8-19.7-123-17.2C1618.5,572.6,1535,460.1,1525.6,464.7L1525.6,464.7z"/>
<path class="st17" d="M1237.8,448.4v-90.7h-27.5v90.7c0,6.8-4.2,12.9-10.6,15.3c-31.9,12-55.1,45.3-55.1,70.5
	c0,19.4,13.7,34,34.4,42.4h89.9c20.8-8.4,34.4-23,34.4-42.4c0-25.2-23.1-58.5-55.1-70.5C1242.1,461.4,1237.8,455.3,1237.8,448.4
	L1237.8,448.4z"/>
<path class="st18" d="M1286.9,510.2c-13.7-0.9-28.2-6.4-40.4-0.1c-14,7.3-18.1,27.1-32.5,33.7c-12.3,5.7-26.5-0.8-40-1.6
	c-9.2-0.5-18.5,1.8-26.5,6.4c5,12.3,16.4,21.8,31.7,28h89.9c20.8-8.4,34.4-23,34.4-42.4c0-7.6-2.1-16-6-24.4
	C1294,510.3,1290.4,510.5,1286.9,510.2L1286.9,510.2z"/>
<path class="st19" d="M1879.3,729.4l-59.3-82.7c-3.9-5.4-6-11.9-6-18.6v-83.9h-27.5v83.9c0,6.7-2.1,13.2-6,18.6l-59.3,82.7
	c-6.3,8.7,0,20.9,10.7,20.9h136.5C1879.3,750.3,1885.6,738.2,1879.3,729.4L1879.3,729.4z"/>
<path class="st20" d="M1874.3,722.4c-0.2,0-0.5,0-0.7-0.1c-18-2.3-32.6-16.7-50.6-19.1c-18.9-2.4-39.4,8.7-56.2-0.1
	c-6.4-3.3-11.1-9.1-16.6-13.8l-28.8,40.1c-6.3,8.7,0,20.9,10.7,20.9h136.5c10.8,0,17-12.2,10.7-20.9L1874.3,722.4L1874.3,722.4z"/>
<path class="st5" d="M914.9,342.9c46.3,0,85.4,31.1,97.5,73.5H817.3C829.4,374,868.5,342.9,914.9,342.9L914.9,342.9z"/>
<path class="st5" d="M439.5,308.1c68.3,0,125.8,45.8,143.7,108.3H295.8C313.6,353.9,371.2,308.1,439.5,308.1L439.5,308.1z"/>
<path class="st5" d="M885.4,416.5c-22-76.2-109.3-133.2-213.7-133.2S480,340.2,458,416.5H885.4L885.4,416.5z"/>
<path class="st0" d="M414.4,377.6c33.9,0,62.5,22.7,71.3,53.8H343.1C352,400.3,380.6,377.6,414.4,377.6L414.4,377.6z"/>
<path class="st0" d="M497.9,394.3c23.4,0,43.1,15.7,49.2,37.1h-98.4C454.8,409.9,474.5,394.3,497.9,394.3L497.9,394.3z"/>
<path class="st0" d="M391.8,431.4c-9.6-33.1-47.5-57.9-92.9-57.9s-83.3,24.8-92.9,57.9H391.8L391.8,431.4z"/>
<rect x="1044.5" y="730.9" transform="matrix(0.3315 -0.9435 0.9435 0.3315 52.1938 1543.2113)" class="st21" width="141.2" height="7.7"/>
<rect x="1056.2" y="750.2" transform="matrix(0.3315 -0.9435 0.9435 0.3315 26.6861 1550.5027)" class="st22" width="102.5" height="12.4"/>
<path class="st21" d="M1187.2,529.4c-39.4-13.8-82.6,6.9-96.4,46.3c-13.8,39.4,6.9,82.6,46.3,96.4s82.6-6.9,96.4-46.3
	C1247.3,586.4,1226.6,543.2,1187.2,529.4z M1228.2,624c-12.8,36.5-52.8,55.7-89.3,42.8c-36.5-12.8-55.7-52.8-42.8-89.3
	c12.8-36.5,52.8-55.7,89.3-42.8C1221.8,547.5,1241,587.5,1228.2,624z"/>
<path class="st19" d="M1228.2,624c4.3-12.4,5-25.2,2.6-37.2c0.2,8.3-1,16.7-3.9,25c-12.8,36.5-52.8,55.7-89.3,42.8
	c-24.1-8.5-40.6-28.8-45.4-52.1c0.7,28.2,18.6,54.4,46.8,64.3C1175.4,679.6,1215.4,660.4,1228.2,624L1228.2,624z"/>
<path class="st23" d="M892.9,1218.8c-0.6-0.1-1.2-0.2-1.7-0.3c-4.6-1.4-7.3-6.2-5.9-10.9l17.7-60.4c1.4-4.6,6.2-7.3,10.9-5.9
	c4.6,1.4,7.3,6.2,5.9,10.9l-17.7,60.4C900.8,1216.6,896.9,1219.2,892.9,1218.8L892.9,1218.8z"/>
<path class="st23" d="M951.9,1218.8c-0.6-0.1-1.2-0.2-1.7-0.3c-4.6-1.4-7.3-6.2-5.9-10.9l17.7-60.4c1.4-4.6,6.2-7.3,10.9-5.9
	c4.6,1.4,7.3,6.2,5.9,10.9l-17.7,60.4C959.8,1216.6,955.9,1219.2,951.9,1218.8L951.9,1218.8z"/>
<path class="st24" d="M929.2,889.1l56.2-12.6L1013,1038l0.2,1.2c0.4,2.6,0.4,5.3-0.3,8l-41.6,146.9l-26.1-6.3l26.7-145.1
	L929.2,889.1L929.2,889.1z"/>
<path class="st24" d="M883.4,885.4l56.9-8.8l16.5,161.7l0.1,1.3c0.2,2.2,0.1,4.4-0.5,6.6l-42.7,146.6l-27.4-6.6l29.3-145.2
	L883.4,885.4L883.4,885.4z"/>
<path class="st23" d="M1025.4,600.2c0,0,34.1-28,33.9-39.1c-0.2-11.1-35.6,11.9-44.6,37L1025.4,600.2L1025.4,600.2z"/>
<path class="st8" d="M901.4,720.7c-8,11.4,4.3,24.7,4.6,25.2c3.2,5.9,12.2,9,16.1,6.1l74.3-66.2c1.5-0.9,5.3-10.6,3.9-13.2
	c-0.5-0.9-1.1-1.6-1.7-2.2c-4.3-5.1-10.6-7.5-14.7-6.5C962.7,669.1,911.8,705.8,901.4,720.7L901.4,720.7z"/>
<path class="st8" d="M1015.8,589.7c-19.3,24.4-42.9,63.8-48.6,82.7c-4.7,15.7,12.2,19.1,12.6,19.3c4.2,2.8,13.2,0.1,16-5.1
	l40.3-88.7L1015.8,589.7L1015.8,589.7z"/>
<path class="st23" d="M1076.8,773.9c0,0,43-12.2,47.4-22.6s-37.9-3.4-56.4,16.3L1076.8,773.9L1076.8,773.9z"/>
<path class="st8" d="M914.2,722.8c-17-7.5-26.7,5.7-27,6.2c-4.9,8.3-1.7,18.9,4,22.1l85.1,53.6c1.3,1.1,12.7,1.1,14.7-1.1
	c0.7-0.7,1.2-1.5,1.6-2.3c3.6-5.7,4-12.6,1.7-16.2C982.9,766.2,931,730.2,914.2,722.8L914.2,722.8z"/>
<path class="st8" d="M1077.3,756.8c-31.5,1.6-77.3,10-95.5,18.3c-15.1,6.9-6.4,22.1-6.3,22.5c0.7,5,8.7,10.1,14.6,8.8l94.6-28.7
	L1077.3,756.8L1077.3,756.8z"/>
<path class="st14" d="M909.1,1208.7c-3.1,0.4-8.5-0.7-14.1-3.3c-3.1-1.4-5.8-3-7.9-4.6c-1.6-1.2-3.8-0.9-4.9,0.7
	c-3.8,5.4-9,14-6,15.9c2.5,1.5,23.4,11.9,42.5,20.7h26.6C936.5,1228.2,920,1215.8,909.1,1208.7L909.1,1208.7z"/>
<path class="st14" d="M920,1237.7c17.8,0.6,33.9,0.6,34.2-1c0.5-3.2-1.1-7.4-20.1-9.4L920,1237.7z"/>
<path class="st14" d="M968.6,1206.9c-3.1,0.4-8.5-0.7-14.1-3.3c-3.1-1.4-5.8-3-7.9-4.6c-1.6-1.2-3.8-0.9-4.9,0.7
	c-3.8,5.4-9,14-6,15.9c2.5,1.5,23.4,11.9,42.5,20.7h26.6C996.1,1226.3,979.5,1213.9,968.6,1206.9L968.6,1206.9z"/>
<path class="st14" d="M979.6,1235.9c17.8,0.6,33.9,0.6,34.2-1c0.5-3.2-1.1-7.4-20.1-9.4L979.6,1235.9z"/>
<path class="st8" d="M965.2,924.3l18.4,61.3c6.9-1.2,19.4-5,25.7-8.2c-7.2-49.9-31.5-195.5-42.4-239.8c-7.1-28.8-40-45-41.5-45.5
	c-21.3-7.4-45.3,3.6-49.1,32.5c-1.3,10.2,7.4,210.8,12.2,266.8c3.3,0.1,3.3-0.1,6.5-0.4c14.3-1.2,28.4-4.8,42.8-5.3
	c11.3-0.4,22.7,1.2,33.9,1L965.2,924.3L965.2,924.3z"/>
<path class="st22" d="M899.3,694.8c0,0-9.1,4-8.2,9.8c0.9,5.8,17.8,14.6,31.9,14.6s27.5,5.8,27.5,5.8s-13.8-24-29.8-30.2
	C920.8,694.8,915,692.2,899.3,694.8L899.3,694.8z"/>
<ellipse transform="matrix(0.9562 -0.2927 0.2927 0.9562 -149.2684 289.7335)" class="st14" cx="893.5" cy="643.7" rx="35.8" ry="46"/>
<path class="st23" d="M882.4,656.2c14.2,23.4,42,32.4,56.2,23.8c14.3-8.7,9.7-31.8-4.5-55.2s-33-28.2-47.3-19.6
	S868.2,632.8,882.4,656.2L882.4,656.2z"/>
<path class="st23" d="M886.9,656.4l27.8-7.3c1,3.8,9.9,40.1,10.7,54.2c-0.3,4.4-7.1,7.5-15,6.9c-7.1-0.6-12.8-3.9-13.6-7.8h0
	C896.2,693.9,890.4,669.7,886.9,656.4L886.9,656.4z"/>
<path class="st14" d="M880.5,607.9c0,0,0.5,2.6,1.7,21.5s14.3,31,10.1,33.2c-4.2,2.2-11.6,1.3-18.2-6.4S863.3,607,880.5,607.9
	L880.5,607.9z"/>
<path class="st23" d="M876.5,668.8c3.3,5.4,12.9,9.1,16.9,6.7c3.9-2.4,2.2-7.4-1.1-12.8c-3.3-5.4-9.6-8.6-13.5-6.2
	C874.8,658.9,873.2,663.3,876.5,668.8L876.5,668.8z"/>
<path class="st14" d="M868.4,630.9c0,0,22.2-2,36.7-15.3c10.7-9.7,32.5,8.8,32.8,4.8c0.2-4-18.1-28-38.4-26.1
	C879.4,596.3,868.4,612.1,868.4,630.9L868.4,630.9z"/>
<path class="st8" d="M1232.8,1286.2c0,15.3,1.8,29.7,5.1,42.6H850.4c-24,0-43.4-19.1-43.4-42.6s19.5-42.6,43.4-42.6h387.4
	C1234.6,1256.4,1232.8,1270.9,1232.8,1286.2z"/>
<path class="st21" d="M850.6,1236.9h393.8c3,0,5.5,2.5,5.5,5.5s-2.5,5.5-5.5,5.5H850.6c-20.7,0-37.5,16.8-37.5,37.5
	s16.8,37.5,37.5,37.5h393.8c3,0,5.5,2.5,5.5,5.5s-2.5,5.5-5.5,5.5H850.6c-26.8,0-48.5-21.8-48.5-48.5S823.9,1236.9,850.6,1236.9
	L850.6,1236.9z"/>
<path class="st25" d="M1710.1,1067.2V971h-29.2v96.2c0,7.2-4.5,13.7-11.2,16.2c-33.9,12.7-58.4,48-58.4,74.7
	c0,20.5,14.5,36.1,36.5,45h95.4c22.1-8.9,36.5-24.4,36.5-45c0-26.7-24.5-62.1-58.4-74.7C1714.6,1080.9,1710.1,1074.5,1710.1,1067.2
	L1710.1,1067.2z"/>
<path class="st6" d="M1923.8,1091.5v-79h-24v79c0,5.9-3.7,11.2-9.2,13.3c-27.8,10.4-48,39.4-48,61.4c0,16.9,11.9,29.6,30,36.9h78.3
	c18.1-7.3,30-20.1,30-36.9c0-21.9-20.1-51-48-61.4C1927.5,1102.8,1923.8,1097.5,1923.8,1091.5L1923.8,1091.5z"/>
<circle class="st20" cx="1847.7" cy="533" r="7.5"/>
<circle class="st20" cx="1817.2" cy="456.5" r="10.4"/>
<circle class="st18" cx="1202.9" cy="327.2" r="10.4"/>
<circle class="st20" cx="1805.9" cy="517" r="5.6"/>
<circle class="st26" cx="1262.2" cy="798.3" r="13.6"/>
<ellipse transform="matrix(0.2965 -0.955 0.955 0.2965 50.7923 1720.0284)" class="st26" cx="1193" cy="825.5" rx="7.3" ry="7.3"/>
<circle class="st18" cx="1176" cy="292.4" r="5.6"/>
<ellipse transform="matrix(0.7071 -0.7071 0.7071 0.7071 170.3245 917.1373)" class="st18" cx="1192.2" cy="253" rx="10.7" ry="10.7"/>
<path class="st19" d="M1289.2,1165.1l-98.2-137c-6.4-9-9.9-19.8-9.9-30.8v-139h-45.6v139c0,11-3.5,21.8-9.9,30.8l-98.2,137
	c-10.4,14.5,0,34.6,17.8,34.6h226.1C1289.2,1199.7,1299.6,1179.6,1289.2,1165.1L1289.2,1165.1z"/>
<path class="st26" d="M1243.2,1100.9c-5.4,1.3-10.8,2.9-16,5c-7.9,3.1-15.4,7-23.4,9.6c-30.6,9.7-63.3-2-94.6-9.2
	c-11.6-2.7-24.1-4.4-36.3-4.3l-45.3,63.2c-10.4,14.5,0,34.6,17.8,34.6h226.1c17.8,0,28.2-20.1,17.8-34.6L1243.2,1100.9
	L1243.2,1100.9z"/>
<path class="st26" d="M1170.5,883.3c2.5,4.8,0.7,10.8-4.1,13.3s-10.8,0.7-13.3-4.1s-0.7-10.8,4.1-13.3
	C1162,876.6,1167.9,878.5,1170.5,883.3z"/>
<path class="st8" d="M1132.2,613.6c16.5,0,29.9-13.4,29.9-29.9c0,16.5,13.4,29.9,29.9,29.9c-16.5,0-29.9,13.4-29.9,29.9
	C1162.2,627,1148.8,613.6,1132.2,613.6z"/>
<rect x="2182.3" y="1031.5" transform="matrix(0.9157 -0.4019 0.4019 0.9157 -262.6877 996.9556)" class="st8" width="124.1" height="185.9"/>
<rect x="2175.7" y="1063.7" transform="matrix(0.9157 -0.4019 0.4019 0.9157 -241.3185 981.9245)" class="st3" width="87.1" height="4.7"/>
<rect x="2182.8" y="1079.9" transform="matrix(0.9157 -0.4019 0.4019 0.9157 -247.2309 986.1458)" class="st3" width="87.1" height="4.7"/>
<rect x="2189.9" y="1096.1" transform="matrix(0.9157 -0.4019 0.4019 0.9157 -253.1417 990.3687)" class="st3" width="87.1" height="4.7"/>
<rect x="2197" y="1112.3" transform="matrix(0.9157 -0.4019 0.4019 0.9157 -259.0476 994.5949)" class="st3" width="87.1" height="4.7"/>
<rect x="2204.1" y="1128.5" transform="matrix(0.9157 -0.4019 0.4019 0.9157 -264.9601 998.8161)" class="st3" width="87.1" height="4.7"/>
<rect x="2211.2" y="1144.7" transform="matrix(0.9157 -0.4019 0.4019 0.9157 -270.8669 1003.0383)" class="st3" width="87.1" height="4.7"/>
<rect x="2218.3" y="1160.8" transform="matrix(0.9157 -0.4019 0.4019 0.9157 -276.7776 1007.2613)" class="st3" width="87.1" height="4.7"/>
<path class="st8" d="M2077,846.7c15.9-1.9,19.2,10,19.3,10.5c1.2,7.2-4.9,14.5-10.4,15.6l-85,21.6c-1.4,0.5-10.4-1.9-11.3-4
	c-0.3-0.7-0.5-1.4-0.5-2c-1-5,1-10.2,3.9-12.5C2008.4,864.2,2061.3,848.6,2077,846.7L2077,846.7z"/>
<path class="st23" d="M1917.4,858.4c0,0-36.9-11-40.6-20s32.7-2.5,48.4,14.7L1917.4,858.4z"/>
<path class="st8" d="M1917.5,844.4c26.2,4.4,64.8,15.7,80.5,24.3c13.1,7.1,6.9,18.7,6.9,19.1c-0.2,4-6.5,7.4-11.4,5.8l-80.5-32.7
	L1917.5,844.4L1917.5,844.4z"/>
<path class="st23" d="M2045.6,1334.2c7.3,1.9,8.5,7.2,16,8.3c0.6-28.1-0.2-57.8-1.7-88.2l-16.7,5.3
	C2045.6,1283.4,2046.7,1308.2,2045.6,1334.2L2045.6,1334.2z"/>
<path class="st23" d="M2060.9,1325.6c0,0,4.4,17.2,0,17.6c-4.4,0.5-66.9,2.3-67.3-0.5c-1.2-9.4,49.9-18.1,54.9-17.2
	C2053.5,1326.5,2060.3,1323.1,2060.9,1325.6L2060.9,1325.6z"/>
<path class="st23" d="M2129.6,1333.7c-7.2,2-8.4,7.2-15.9,8.4c-0.8-28.1-0.2-57.8,1-88.2l16.7,5.2
	C2129.2,1282.9,2128.3,1307.7,2129.6,1333.7z"/>
<path class="st23" d="M2114.2,1325.2c0,0-4.2,17.2,0.1,17.6c4.4,0.4,66.9,1.7,67.3-1c1.2-9.4-50-17.7-55-16.7
	S2114.8,1322.7,2114.2,1325.2L2114.2,1325.2z"/>
<path class="st27" d="M2065,1299.3l-25.8-0.4c0,0-15.9-194.8-7.5-299.7l54.4-2.6c0,0-8.5,142.3-16.1,167
	C2070.1,1163.6,2073.4,1283.4,2065,1299.3z"/>
<path class="st27" d="M2110.1,1298.4l24.8-1.4c0,0,1.9-191-14.1-295l-54.5,1.4c0,0,18.8,141.3,28.1,165.4
	C2094.5,1168.8,2100.6,1283.2,2110.1,1298.4z"/>
<polygon class="st14" points="2031.1,989.5 2031.1,1014.5 2100,1004.3 2096,989.5 "/>
<path class="st8" d="M2141.7,1187.3c-5.9-0.6-22.7,0.9-41.2,4.7c-9.6,2-18,2.6-25.7,2.6l-11.9-79.9l-4.9,79
	c-11.9-1.2-22.5-3.1-34.2-2.5c5.8-42-4.7-253.7,14.6-306.4c8.3-22.7,30-36.8,31.2-37.2c22.4-11.1,51.8,5.1,52.9,31.2
	C2122.8,887.5,2141.9,1144.4,2141.7,1187.3L2141.7,1187.3z"/>
<path class="st14" d="M2024.2,1326.9c6.4,3.2,17.1,5.2,29.1,5.2c3.9,0,7.6-0.2,11.1-0.6c0.8,6.1,1.2,13.2-1.5,13.6
	c-4.7,0.6-72,2.9-72.4-0.6C1989.8,1337.6,2007.8,1331,2024.2,1326.9L2024.2,1326.9z"/>
<path class="st14" d="M2150.2,1325.1c-6.3,3.4-16.9,5.8-28.9,6.3c-3.9,0.1-7.6,0.1-11.1-0.2c-0.6,6.1-0.7,13.3,2,13.5
	c4.7,0.4,72.1,0.2,72.4-3.3C2185,1334.5,2166.7,1328.5,2150.2,1325.1L2150.2,1325.1z"/>
<path class="st8" d="M2102,887.7c-10.3-12.3-2-21.6-1.7-21.9c5.4-4.9,14.8-3.8,18.8,0.2l64.4,59.6c1.2,0.9,4,9.8,2.8,11.7
	c-0.4,0.6-0.9,1.2-1.4,1.5c-3.7,3.6-9.1,4.7-12.6,3.5C2154,935.7,2112.1,899.8,2102,887.7L2102,887.7z"/>
<path class="st23" d="M2199.5,1013.3c0,0,11.5,36.8,6.1,44.8s-20.3-25.7-14.9-48.4L2199.5,1013.3z"/>
<path class="st8" d="M2187.9,1021c-11-24.2-23.1-62.5-24.8-80.4c-1.4-14.8,11.6-16.2,11.9-16.4c3.5-2.1,9.8,1.2,11.2,6.3l17.8,85.1
	L2187.9,1021L2187.9,1021z"/>
<path class="st15" d="M2075.4,846.9c0,0-16.3,11.2-17.7,44.3c0,0,26.2-11.3,34.2-19.5s16.7-18.9,6-25.2
	C2086.2,839.5,2075.4,846.9,2075.4,846.9L2075.4,846.9z"/>
<path class="st14" d="M2096.5,790c0,0,22.4,3.8,28.7-9.9s-4.9-30.9,10.8-39.3c15.7-8.5,4.9-15.4,16.6-27.8
	c17.9-19.1,66.5-17.1,78.6,22.5c12.6,41-8.8,62.9-30.7,73.4s-51.2,5.3-73.6,1.9S2096.5,790,2096.5,790L2096.5,790z"/>
<ellipse transform="matrix(0.2842 -0.9588 0.9588 0.2842 749.2217 2600.4458)" class="st14" cx="2116.1" cy="798.5" rx="43.9" ry="34.1"/>
<path class="st23" d="M2112.7,814.5c-19.2,17.7-47.1,18.6-57.9,6.9s-0.4-31.7,18.8-49.4s37.7-17.2,48.5-5.4
	S2131.9,796.8,2112.7,814.5z"/>
<path class="st23" d="M2108.5,805.8l-27-4.9c-0.7,3.7-6.4,38.9-6.1,52.4c0.7,4.2,7.3,6.6,14.8,5.5c6.8-1.1,11.9-4.7,12.4-8.5h0
	C2102.4,842.2,2106.2,818.7,2108.5,805.8L2108.5,805.8z"/>
<path class="st14" d="M2136.9,780.2c0,0-28.8-2.8-45.4-8.4c-16.1-5.4-26.7,9.3-26.7,9.3s9.1-26.1,25.6-32S2137,755,2136.9,780.2
	L2136.9,780.2z"/>
<path class="st14" d="M2122.1,771c0,0-14.5,16.9-11,29.2c3.6,12.3,1.3,18.4,1.3,18.4l11.8-6.3l21.2-25.6L2122.1,771L2122.1,771z"/>
<path class="st23" d="M2114.8,827.6c-4.5,4.1-14.3,4.9-17.2,1.7s-0.1-7.4,4.4-11.5s11.1-5.3,14-2.1
	C2118.9,818.9,2119.3,823.5,2114.8,827.6L2114.8,827.6z"/>
<path class="st9" d="M2123.2,783c1.2-1,3-0.7,3.9,0.5c0.9,1.2,0.7,3-0.5,3.9c-1.2,1-3,0.7-3.9-0.5
	C2121.8,785.7,2122,783.9,2123.2,783z"/>
<path class="st9" d="M2126,786.5c1.2-1,3-0.7,3.9,0.5c0.9,1.2,0.7,3-0.5,3.9c-1.2,1-3,0.7-3.9-0.5S2124.8,787.5,2126,786.5z"/>
<path class="st9" d="M2128.8,790.1c1.2-1,3-0.7,3.9,0.5c0.9,1.2,0.7,3-0.5,3.9c-1.2,1-3,0.7-3.9-0.5
	C2127.4,792.8,2127.6,791,2128.8,790.1z"/>
<path class="st9" d="M2131.6,793.7c1.2-1,3-0.7,3.9,0.5s0.7,3-0.5,3.9c-1.2,1-3,0.7-3.9-0.5C2130.2,796.4,2130.4,794.6,2131.6,793.7
	z"/>
<path class="st19" d="M1872.2,950.5L1872.2,950.5c-10,0-18-8.1-18-18v-142h36.1v142C1890.3,942.4,1882.2,950.5,1872.2,950.5
	L1872.2,950.5z"/>
<path class="st28" d="M1875,875.2c-5.9,4.3-13.7,4.3-20.8,6.3v50.9c0,10,8.1,18,18,18s18-8.1,18-18v-71.3c-0.2,0.1-0.3,0.1-0.5,0.2
	C1883.6,864.1,1880.5,871.3,1875,875.2L1875,875.2z"/>
<path class="st28" d="M1869.8,771c0-3.8,3.1-6.8,6.8-6.8s6.8,3.1,6.8,6.8s-3.1,6.8-6.8,6.8S1869.8,774.8,1869.8,771z"/>
<circle class="st28" cx="1912.3" cy="643.8" r="6.8"/>
<circle class="st28" cx="1912.4" cy="690.3" r="14"/>
<circle class="st19" cx="1681.4" cy="937.6" r="14"/>
<circle class="st19" cx="1685.6" cy="810.8" r="9.8"/>
<circle class="st19" cx="1725.7" cy="877.7" r="31.8"/>
<ellipse transform="matrix(0.1602 -0.9871 0.9871 0.1602 852.748 2439.0474)" class="st28" cx="1859.8" cy="718.4" rx="20.9" ry="20.9"/>
<path class="st19" d="M1755.5,1148.2c-7.1,2.3-14.8,2.2-22.2,1.2c-27-3.4-51.5-17-76.5-27.7c-8.5-3.7-17.4-7-26.4-9.5
	c-12,14.6-19.1,31.5-19.1,46c0,20.5,14.5,36.1,36.5,45h95.4c22.1-8.9,36.5-24.4,36.5-45c0-6.9-1.7-14.5-4.7-22.1
	C1769.1,1141.1,1762.8,1145.9,1755.5,1148.2L1755.5,1148.2z"/>
<path class="st6" d="M1410.2,134.5c23.3,0,42.9,15.6,49,36.9h-97.9C1367.3,150.1,1386.9,134.5,1410.2,134.5L1410.2,134.5z"/>
<path class="st6" d="M1467.5,145.9c16.1,0,29.6,10.8,33.8,25.5h-67.6C1437.9,156.7,1451.5,145.9,1467.5,145.9L1467.5,145.9z"/>
<path class="st6" d="M1394.7,171.4c-6.6-22.8-32.7-39.8-63.8-39.8s-57.2,17-63.8,39.8H1394.7L1394.7,171.4z"/>
</svg>
