<svg xmlns="http://www.w3.org/2000/svg" xmlns:xlink="http://www.w3.org/1999/xlink" width="101.377" height="65.223" viewBox="0 0 101.377 65.223">
  <defs>
    <clipPath id="clip-path">
      <path id="Path_461" data-name="Path 461" d="M57.919,3.883c-1.481-.01-2.952.02-4.433.1-5.6.306-11.592,1.062-16.76,3.35-11.745,5.178-21,17.158-25.778,28.822a10.084,10.084,0,0,0-.643,2.451c-.48,3.605.96,9.1,4.065,11.255,1.889,1.318,4.218,1.481,6.445,1.512a56.289,56.289,0,0,1,8.171.776c5.444.878,10.775,2.3,16.188,3.34,4.933.95,10.121,1.655,14.288,4.463,3.646,2.461,8.732,5.127,13.308,3.8a16.013,16.013,0,0,0,7.874-5.781c.725-.94,1.379-2.9,2.512-3.3,1.032-.357,2.472.357,3.5.46,5.576.572,10.847.97,14.911-3.677a19.739,19.739,0,0,0,3.789-7.823,26.314,26.314,0,0,0,1.052-10.54c-.49-3.575-2.267-6.853-4.218-9.835-.562-.858-1.134-1.7-1.757-2.5a29.623,29.623,0,0,0-4.831-4.964c-5.6-4.555-12.828-7.354-19.712-9.315A68.633,68.633,0,0,0,57.919,3.883Z" transform="translate(-10.214 -3.881)"/>
    </clipPath>
  </defs>
  <g id="PestilliLab_logo_7transp" transform="translate(-8.008 -1.586)">
    <g id="Group_122" data-name="Group 122" transform="translate(10.214 3.881)">
      <g id="Group_97" data-name="Group 97" transform="translate(0 0)">
        <g id="Group_96" data-name="Group 96" clip-path="url(#clip-path)">
          <path id="Path_460" data-name="Path 460" d="M672.089,409.292l-26.79-3.575L648.568,402l26.892,3.575Z" transform="translate(-580.437 -361.339)" fill="#e57536" opacity="0.6"/>
        </g>
      </g>
      <g id="Group_99" data-name="Group 99" transform="translate(0 0)">
        <g id="Group_98" data-name="Group 98" clip-path="url(#clip-path)">
          <path id="Path_462" data-name="Path 462" d="M708.034,367.184,682,363.711l3.472-3.411,23.787,2.655Z" transform="translate(-613.388 -323.898)" fill="#f9c926" opacity="0.6"/>
        </g>
      </g>
      <g id="Group_119" data-name="Group 119" transform="translate(0 0)">
        <g id="Group_118" data-name="Group 118" opacity="0.6" clip-path="url(#clip-path)">
          <g id="Group_105" data-name="Group 105" transform="translate(29.444 -1.193)">
            <g id="Group_104" data-name="Group 104" transform="translate(0 0)">
              <g id="Group_103" data-name="Group 103">
                <g id="Group_102" data-name="Group 102">
                  <g id="Group_101" data-name="Group 101">
                    <g id="Group_100" data-name="Group 100">
                      <path id="Path_464" data-name="Path 464" d="M337.637,33.237,298.5-5.083,319.979-7.8l21.162,37.6Z" transform="translate(-298.5 7.8)" fill="#f9c926"/>
                    </g>
                  </g>
                </g>
              </g>
            </g>
          </g>
          <g id="Group_111" data-name="Group 111" transform="translate(0.601 13.044)">
            <g id="Group_110" data-name="Group 110">
              <g id="Group_109" data-name="Group 109">
                <g id="Group_108" data-name="Group 108">
                  <g id="Group_107" data-name="Group 107">
                    <g id="Group_106" data-name="Group 106">
                      <path id="Path_465" data-name="Path 465" d="M76.992,167.735,16.1,146.981,26.957,131.6l53.13,32.294Z" transform="translate(-16.1 -131.6)" fill="#a9262c"/>
                    </g>
                  </g>
                </g>
              </g>
            </g>
          </g>
          <g id="Group_117" data-name="Group 117" transform="translate(13.143 1.422)">
            <g id="Group_116" data-name="Group 116">
              <g id="Group_115" data-name="Group 115">
                <g id="Group_114" data-name="Group 114">
                  <g id="Group_113" data-name="Group 113">
                    <g id="Group_112" data-name="Group 112">
                      <path id="Path_466" data-name="Path 466" d="M190.692,60.778,138.9,28.892,153.434,17.8l40.455,39.239Z" transform="translate(-138.9 -17.8)" fill="#e57536"/>
                    </g>
                  </g>
                </g>
              </g>
            </g>
          </g>
        </g>
      </g>
      <g id="Group_121" data-name="Group 121" transform="translate(0 0)">
        <g id="Group_120" data-name="Group 120" transform="translate(0 0)" clip-path="url(#clip-path)">
          <line id="Line_95" data-name="Line 95" x1="6.639" y2="7.211" transform="translate(65.701 51.16)" fill="none"/>
        </g>
      </g>
    </g>
    <path id="Path_469" data-name="Path 469" d="M635.006,454.577,612.2,451.82l3.064-3.82,26.483,3.473Z" transform="translate(-540.504 -398.759)" fill="#a9262c" opacity="0.6"/>
    <path id="Path_470" data-name="Path 470" d="M745.4,494.7" transform="translate(-660.099 -440.69)" fill="none" stroke="#000" stroke-miterlimit="3.994" stroke-width="1"/>
    <g id="Group_123" data-name="Group 123" transform="translate(10.52 4.086)">
      <path id="path2179_1_" d="M60.919,5.883c-1.481-.01-2.952.02-4.433.1-5.6.306-11.592,1.062-16.76,3.35-11.745,5.178-21,17.158-25.778,28.822a10.084,10.084,0,0,0-.643,2.451c-.48,3.605.96,9.1,4.065,11.255,1.889,1.318,4.218,1.481,6.445,1.512a56.29,56.29,0,0,1,8.171.776c5.444.878,10.775,2.3,16.188,3.34,4.933.95,10.121,1.655,14.288,4.463,3.646,2.461,8.732,5.127,13.308,3.8a16.013,16.013,0,0,0,7.874-5.781c.725-.94,1.379-2.9,2.512-3.3,1.032-.357,2.472.357,3.5.46,5.576.572,10.847.97,14.911-3.677a19.739,19.739,0,0,0,3.789-7.823,26.314,26.314,0,0,0,1.052-10.54c-.49-3.575-2.267-6.853-4.218-9.835-.562-.858-1.134-1.7-1.757-2.5a29.624,29.624,0,0,0-4.831-4.964c-5.6-4.555-12.828-7.354-19.712-9.315A68.633,68.633,0,0,0,60.919,5.883Z" transform="translate(-13.214 -5.881)" fill="none" stroke="#373737" stroke-miterlimit="3.994" stroke-width="5"/>
    </g>
  </g>
</svg>
