<svg xmlns="http://www.w3.org/2000/svg" viewBox="0 0 64 92">
  <path stroke-width="3" stroke="#FFFFFF" fill="#A9262C" d="M60 2 46 0C32 0 19 6 11 17l22 18L60 2z" transform="translate(0 0) scale(.2)"/>
  <path stroke-width="3" stroke="#FFFFFF" fill="#E57536" d="M11 17C4 25 0 35 0 46c0 9 2 16 5 22l28-33-22-19z" transform="translate(0 0) scale(.2)"/>
  <path stroke-width="3" stroke="#FFFFFF" fill="#A9262C" d="M46 29a18 18 0 0 1 14 29l27-33C82 14 72 6 60 2L33 35c3-4 8-7 13-7" transform="translate(0 0) scale(.2)"/>
  <path stroke-width="3" stroke="#FFFFFF" fill="#F9C926" d="M46 64a18 18 0 0 1-13-29L5 68c4 11 12 19 21 30l34-40c-4 3-8 6-14 6" transform="translate(0 0) scale(.2)"/>
  <path stroke-width="3" stroke="#FFFFFF" fill="#005981" d="M59 109c16-24 33-35 33-63 0-7-1-15-5-21L26 98l8 11c9 15 6 23 12 23s4-8 13-23" transform="translate(0 0) scale(.2)"/>
</svg>