<?xml version="1.0" encoding="utf-8"?>
<!-- Generator: Adobe Illustrator 26.3.1, SVG Export Plug-In . SVG Version: 6.00 Build 0)  -->
<svg version="1.1" id="a" xmlns="http://www.w3.org/2000/svg" xmlns:xlink="http://www.w3.org/1999/xlink" x="0px" y="0px"
	 viewBox="0 0 3164.4 1771" style="enable-background:new 0 0 3164.4 1771;" xml:space="preserve">
<style type="text/css">
	.st0{fill:#E7EEF1;}
	.st1{fill:none;stroke:#BACED6;stroke-width:7.4;stroke-linecap:round;stroke-linejoin:round;}
	.st2{clip-path:url(#SVGID_00000105389239954887279780000012738901184120582022_);}
	.st3{fill:none;stroke:#BACED6;stroke-width:6;stroke-linecap:round;stroke-linejoin:round;}
	.st4{fill:#BACED6;}
	.st5{fill:#1D7198;}
	.st6{fill:#67A6C3;}
	.st7{fill:#FF7631;}
	.st8{fill:#FFFFFF;}
	.st9{fill:#FF9F69;}
	.st10{fill:#FFC5A5;}
	.st11{fill:none;stroke:#569CBC;stroke-width:4;stroke-miterlimit:10;}
	.st12{fill:none;stroke:#FFFFFF;stroke-width:3;stroke-miterlimit:10;}
	.st13{fill:none;stroke:#FFFFFF;stroke-width:4;stroke-miterlimit:10;}
	.st14{fill:#569CBC;}
	.st15{fill:#A9343A;}
	.st16{fill:#CB8589;}
	.st17{fill:none;stroke:#CB8589;stroke-width:12;stroke-miterlimit:10;}
	.st18{fill:#2C7B9F;}
	.st19{fill:#D5E2E8;}
	.st20{fill:#A0786D;}
	.st21{fill:#F3C0A4;}
	.st22{opacity:0.4;fill:#FFFFFF;enable-background:new    ;}
</style>
<path class="st0" d="M365.3,589.2C476,521.1,605.7,480.6,744.5,477.5c8.6-126.2,113.7-225.9,242-225.9c66.9,0,127.5,27.1,171.5,70.9
	c151.7-109.5,337.9-174,539.3-174c439.8,0,807.6,307.7,900.1,719.5c12.1-2.5,24.6-3.9,37.5-3.9c100.4,0,181.7,81.4,181.7,181.7
	c0,12.5-1.3,24.6-3.6,36.4c168.9,43.4,300.5,179.7,337.1,351.1c6.7,31.4,10.2,63.9,10.2,97.3c0,86.7-23.9,167.9-65.3,237.3H222.1
	C87,1631.1,3.6,1443.1,3.6,1235.5C3.6,962.1,148.3,722.6,365.3,589.2z"/>
<path class="st1" d="M3068.6,1723c30.6-59.1,46.8-125.1,46.8-192.3c0-29.6-3.1-59.2-9.3-87.9c-16.2-75.8-53.4-145.6-107.4-201.8
	c-53.9-56.1-122-95.9-196.9-115.2l-41.4-10.6l8.5-41.9c1.8-9,2.8-18.2,2.8-27.4c0-75.4-61.3-136.7-136.7-136.7c-9.5,0-19,1-28.2,2.9
	l-43.4,9.1l-9.7-43.3c-21.7-96.5-59.4-188.1-112.1-272.1c-51.7-82.5-116.4-155.5-192.2-217c-76.5-61.9-161.9-110.2-254.1-143.4
	c-95.3-34.4-195.6-51.8-297.9-51.8c-93.8,0-186,14.7-274.2,43.7c-85.3,28-165.6,69-238.7,121.8l-31.1,22.4l-27.1-27
	c-37.3-37.3-86.9-57.8-139.7-57.8c-50.4,0-98.4,19-135.2,53.5c-36.6,34.3-58.6,80.7-62,130.5l-2.8,41l-41.1,0.9
	c-126.2,2.8-249.5,39.1-356.7,105c-102,62.7-187.3,150.8-246.7,254.7c-30.1,52.7-53.3,109-69.1,167.5
	c-16.2,60.3-24.5,122.8-24.5,185.9c0,95.4,18.5,188.1,55.1,275.3c32.9,78.6,79.2,149.9,137.6,212.2L3068.6,1723L3068.6,1723z"/>
<g>
	<defs>
		<path id="SVGID_1_" d="M3068.6,1723c30.6-59.1,46.8-125.1,46.8-192.3c0-29.6-3.1-59.2-9.3-87.9c-16.2-75.8-53.4-145.6-107.4-201.8
			c-53.9-56.1-122-95.9-196.9-115.2l-41.4-10.6l8.5-41.9c1.8-9,2.8-18.2,2.8-27.4c0-75.4-61.3-136.7-136.7-136.7
			c-9.5,0-19,1-28.2,2.9l-43.4,9.1l-9.7-43.3c-21.7-96.5-59.4-188.1-112.1-272.1c-51.7-82.5-116.4-155.5-192.2-217
			c-76.5-61.9-161.9-110.2-254.1-143.4c-95.3-34.4-195.6-51.8-297.9-51.8c-93.8,0-186,14.7-274.2,43.7
			c-85.3,28-165.6,69-238.7,121.8l-31.1,22.4l-27.1-27c-37.3-37.3-86.9-57.8-139.7-57.8c-50.4,0-98.4,19-135.2,53.5
			c-36.6,34.3-58.6,80.7-62,130.5l-2.8,41l-41.1,0.9c-126.2,2.8-249.5,39.1-356.7,105c-102,62.7-187.3,150.8-246.7,254.7
			c-30.1,52.7-53.3,109-69.1,167.5c-16.2,60.3-24.5,122.8-24.5,185.9c0,95.4,18.5,188.1,55.1,275.3
			c32.9,78.6,79.2,149.9,137.6,212.2L3068.6,1723L3068.6,1723z"/>
	</defs>
	<clipPath id="SVGID_00000164500135404158417050000007298168974603291029_">
		<use xlink:href="#SVGID_1_"  style="overflow:visible;"/>
	</clipPath>
	<g style="clip-path:url(#SVGID_00000164500135404158417050000007298168974603291029_);">
		<line class="st3" x1="3021.1" y1="149" x2="3021.1" y2="1768"/>
		<line class="st3" x1="2954.6" y1="149" x2="2954.6" y2="1768"/>
		<line class="st3" x1="2888" y1="149" x2="2888" y2="1768"/>
		<line class="st3" x1="3160.4" y1="149" x2="3160.4" y2="1768"/>
		<line class="st3" x1="3093.8" y1="149" x2="3093.8" y2="1768"/>
		<line class="st3" x1="2821.5" y1="149" x2="2821.5" y2="1768"/>
		<line class="st3" x1="2754.9" y1="149" x2="2754.9" y2="1768"/>
		<line class="st3" x1="2688.4" y1="149" x2="2688.4" y2="1768"/>
		<line class="st3" x1="2621.8" y1="149" x2="2621.8" y2="1768"/>
		<line class="st3" x1="2555.3" y1="149" x2="2555.3" y2="1768"/>
		<line class="st3" x1="2488.8" y1="149" x2="2488.8" y2="1768"/>
		<line class="st3" x1="2422.2" y1="149" x2="2422.2" y2="1768"/>
		<line class="st3" x1="2355.7" y1="149" x2="2355.7" y2="1768"/>
		<line class="st3" x1="2289.1" y1="149" x2="2289.1" y2="1768"/>
		<line class="st3" x1="2222.6" y1="149" x2="2222.6" y2="1768"/>
		<line class="st3" x1="2156" y1="149" x2="2156" y2="1768"/>
		<line class="st3" x1="2089.5" y1="149" x2="2089.5" y2="1768"/>
		<line class="st3" x1="2022.9" y1="149" x2="2022.9" y2="1768"/>
		<line class="st3" x1="1956.4" y1="149" x2="1956.4" y2="1768"/>
		<line class="st3" x1="1889.8" y1="149" x2="1889.8" y2="1768"/>
		<line class="st3" x1="1823.3" y1="149" x2="1823.3" y2="1768"/>
		<line class="st3" x1="1756.8" y1="149" x2="1756.8" y2="1768"/>
		<line class="st3" x1="1690.2" y1="149" x2="1690.2" y2="1768"/>
		<line class="st3" x1="1623.7" y1="149" x2="1623.7" y2="1768"/>
		<line class="st3" x1="1557.1" y1="149" x2="1557.1" y2="1768"/>
		<line class="st3" x1="1490.6" y1="149" x2="1490.6" y2="1768"/>
		<line class="st3" x1="1424" y1="149" x2="1424" y2="1768"/>
		<line class="st3" x1="1357.5" y1="149" x2="1357.5" y2="1768"/>
		<line class="st3" x1="1290.9" y1="149" x2="1290.9" y2="1768"/>
		<line class="st3" x1="1224.4" y1="149" x2="1224.4" y2="1768"/>
		<line class="st3" x1="1157.9" y1="149" x2="1157.9" y2="1768"/>
		<line class="st3" x1="1091.3" y1="149" x2="1091.3" y2="1768"/>
		<line class="st3" x1="1024.8" y1="149" x2="1024.8" y2="1768"/>
		<line class="st3" x1="958.2" y1="149" x2="958.2" y2="1768"/>
		<line class="st3" x1="891.7" y1="149" x2="891.7" y2="1768"/>
		<line class="st3" x1="825.1" y1="149" x2="825.1" y2="1768"/>
		<line class="st3" x1="758.6" y1="149" x2="758.6" y2="1768"/>
		<line class="st3" x1="692" y1="149" x2="692" y2="1768"/>
		<line class="st3" x1="625.5" y1="149" x2="625.5" y2="1768"/>
		<line class="st3" x1="559" y1="149" x2="559" y2="1768"/>
		<line class="st3" x1="492.4" y1="149" x2="492.4" y2="1768"/>
		<line class="st3" x1="425.9" y1="149" x2="425.9" y2="1768"/>
		<line class="st3" x1="359.3" y1="149" x2="359.3" y2="1768"/>
		<line class="st3" x1="292.8" y1="149" x2="292.8" y2="1768"/>
		<line class="st3" x1="226.2" y1="149" x2="226.2" y2="1768"/>
		<line class="st3" x1="162.4" y1="149" x2="162.4" y2="1768"/>
		<line class="st3" x1="95.8" y1="149" x2="95.8" y2="1768"/>
		<line class="st3" x1="29.3" y1="149" x2="29.3" y2="1768"/>
		<line class="st1" x1="3.7" y1="157.2" x2="3160.7" y2="157.2"/>
		<line class="st1" x1="3.7" y1="223.8" x2="3160.7" y2="223.8"/>
		<line class="st1" x1="3.7" y1="290.3" x2="3160.7" y2="290.3"/>
		<line class="st1" x1="3.7" y1="356.9" x2="3160.7" y2="356.9"/>
		<line class="st1" x1="3.7" y1="423.4" x2="3160.7" y2="423.4"/>
		<line class="st1" x1="3.7" y1="490" x2="3160.7" y2="490"/>
		<line class="st1" x1="3.7" y1="556.5" x2="3160.7" y2="556.5"/>
		<line class="st1" x1="3.7" y1="623" x2="3160.7" y2="623"/>
		<line class="st1" x1="3.7" y1="689.6" x2="3160.7" y2="689.6"/>
		<line class="st1" x1="3.7" y1="756.1" x2="3160.7" y2="756.1"/>
		<line class="st1" x1="3.7" y1="822.7" x2="3160.7" y2="822.7"/>
		<line class="st1" x1="3.7" y1="889.2" x2="3160.7" y2="889.2"/>
		<line class="st1" x1="3.7" y1="955.8" x2="3160.7" y2="955.8"/>
		<line class="st1" x1="3.7" y1="1022.3" x2="3160.7" y2="1022.3"/>
		<line class="st1" x1="3.7" y1="1088.8" x2="3160.7" y2="1088.8"/>
		<line class="st1" x1="3.7" y1="1155.4" x2="3160.7" y2="1155.4"/>
		<line class="st1" x1="3.7" y1="1221.9" x2="3160.7" y2="1221.9"/>
		<line class="st1" x1="3.7" y1="1288.5" x2="3160.7" y2="1288.5"/>
		<line class="st1" x1="3.7" y1="1355" x2="3160.7" y2="1355"/>
		<line class="st1" x1="3.7" y1="1421.6" x2="3160.7" y2="1421.6"/>
		<line class="st1" x1="3.7" y1="1488.1" x2="3160.7" y2="1488.1"/>
		<line class="st1" x1="3.7" y1="1554.7" x2="3160.7" y2="1554.7"/>
		<line class="st1" x1="3.7" y1="1621.2" x2="3160.7" y2="1621.2"/>
		<line class="st1" x1="3.7" y1="1687.7" x2="3160.7" y2="1687.7"/>
		<line class="st1" x1="3.7" y1="1754.3" x2="3160.7" y2="1754.3"/>
	</g>
</g>
<path class="st4" d="M168,764.1c286.9,86.3,590.7-63.4,851.1-6.3c167.5,36.8,260.4,95,511.5,280.5s464.3,196.5,941.3,149.5
	c294.6-29.1,538.4,134.7,681.8,264.1c4.4,25.6,6.7,52,6.7,78.8c0,86.7-23.9,167.9-65.3,237.3H222.1C87,1631.1,3.6,1443.1,3.6,1235.5
	C3.6,1057.3,65.1,893.5,168,764.1L168,764.1z"/>
<path class="st5" d="M683.5,1558.3c0,15.5,6.3,29.5,16.4,39.7c10.2,10.2,24.2,16.4,39.7,16.4h1676.2c31,0,56.1-25.1,56.1-56.1
	c0-15.5-6.3-29.5-16.4-39.7s-24.2-16.4-39.6-16.4H739.6C708.6,1502.2,683.5,1527.3,683.5,1558.3L683.5,1558.3z"/>
<path class="st6" d="M372.4,1297c39,0,73.2,20.6,92.5,51.4c19.2-30.9,53.4-51.4,92.5-51.4s73.2,20.6,92.5,51.4
	c19.2-30.9,53.4-51.4,92.5-51.4c60.1,0,108.8,48.7,108.8,108.8H263.5C263.5,1345.7,312.3,1297,372.4,1297L372.4,1297z"/>
<path class="st6" d="M497.4,368.1c33.9,0,62.5,22.7,71.3,53.8H426.1C435,390.9,463.6,368.1,497.4,368.1L497.4,368.1z"/>
<path class="st6" d="M302.9,368.1c33.9,0,62.5,22.7,71.3,53.8H231.5C240.4,390.9,269,368.1,302.9,368.1z"/>
<path class="st6" d="M395.5,345.1c48.4,0,89.2,32.5,101.9,76.8H293.7C306.3,377.6,347.1,345.1,395.5,345.1z"/>
<path class="st7" d="M902.5,1395.3c0-0.8,1.9-77.1-12.7-185c-8.6-63.4-21.2-125.1-37.3-183.6c-20.2-73.1-46.1-141.2-77-202.4
	l-10.3,5.2c69.3,137.1,99.8,283.6,113.2,382.3c14.5,107,12.6,182.4,12.6,183.1L902.5,1395.3L902.5,1395.3z"/>
<path class="st7" d="M756.1,759c20.6,42.4,22.1,84.1,22.1,84.1s-31.8-27-52.4-69.5s-22.1-84.1-22.1-84.1S735.5,716.6,756.1,759z"/>
<path class="st7" d="M840,809.4c-15.5,44.5-43.9,75.1-43.9,75.1s-3.3-41.6,12.1-86.2c15.5-44.5,43.9-75.1,43.9-75.1
	S855.5,764.9,840,809.4z"/>
<path class="st7" d="M708.6,881.7c-46.5-7.8-81.4-30.7-81.4-30.7s40.5-10.3,87-2.5c46.5,7.8,81.4,30.7,81.4,30.7
	S755.1,889.5,708.6,881.7z"/>
<path class="st7" d="M737.8,969.5c-46.8,6-86.8-5.8-86.8-5.8s35.8-21.5,82.5-27.5c46.8-6,86.8,5.8,86.8,5.8S784.6,963.5,737.8,969.5
	z"/>
<path class="st7" d="M765.5,1056.5c-47.1,1.8-86-13.5-86-13.5s37.5-18.3,84.7-20.1c47.1-1.8,86,13.5,86,13.5
	S812.7,1054.7,765.5,1056.5z"/>
<path class="st7" d="M785.9,1141.3c-47.2,0.1-85.4-16.6-85.4-16.6s38.2-16.9,85.3-17c47.2-0.1,85.4,16.6,85.4,16.6
	S833,1141.2,785.9,1141.3L785.9,1141.3z"/>
<path class="st7" d="M798.6,1243.5c-46.8,6-86.8-5.8-86.8-5.8s35.8-21.5,82.5-27.5c46.8-6,86.8,5.8,86.8,5.8
	S845.3,1237.5,798.6,1243.5z"/>
<path class="st7" d="M889.4,895.4c-31.2,35.4-69,53-69,53s12.7-39.8,43.8-75.2c31.2-35.4,69-53,69-53S920.5,860,889.4,895.4
	L889.4,895.4z"/>
<path class="st7" d="M953.3,1104.1c-42.7,20-84.5,20.9-84.5,20.9s27.5-31.4,70.2-51.4c42.7-20,84.5-20.9,84.5-20.9
	S996,1084.1,953.3,1104.1z"/>
<path class="st7" d="M970,1218.6c-46.3,8.6-87-0.9-87-0.9s34.5-23.5,80.8-32.2s87,0.9,87,0.9S1016.3,1210,970,1218.6z"/>
<path class="st7" d="M924.9,998.5c-36.2,30.2-76.3,41.8-76.3,41.8s18.6-37.4,54.8-67.6s76.3-41.8,76.3-41.8S961,968.3,924.9,998.5
	L924.9,998.5z"/>
<path class="st7" d="M835,1447.2c-0.2-0.4-25.8-45.6-72-103.3c-27.2-33.9-56-65.5-85.9-93.9c-37.3-35.5-76.2-66.2-115.6-91l-4.2,6.6
	c88.3,55.7,157.2,130.3,199.5,183.2c45.8,57.3,71.1,101.8,71.3,102.3L835,1447.2L835,1447.2z"/>
<path class="st7" d="M527.4,1127.6c26.8,17.5,42.3,41.3,42.3,41.3s-28-4.7-54.8-22.2s-42.3-41.3-42.3-41.3
	S500.6,1110.1,527.4,1127.6z"/>
<path class="st7" d="M593.8,1127.7c6.5,31.3,0.7,59.1,0.7,59.1s-16.5-23.1-23-54.4c-6.5-31.3-0.7-59.1-0.7-59.1
	S587.3,1096.3,593.8,1127.7z"/>
<path class="st7" d="M542.6,1215.7c-29.8,11.7-58.1,10.6-58.1,10.6s20-20.1,49.8-31.8c29.8-11.7,58.2-10.6,58.2-10.6
	S572.4,1204,542.6,1215.7L542.6,1215.7z"/>
<path class="st7" d="M590.2,1256.6c-25.2,19.8-52.6,26.9-52.6,26.9s13.3-25,38.5-44.9c25.2-19.8,52.6-26.9,52.6-26.9
	S615.4,1236.8,590.2,1256.6z"/>
<path class="st7" d="M636.8,1297.6c-26.8,17.5-54.8,22.2-54.8,22.2s15.5-23.8,42.3-41.3c26.8-17.5,54.8-22.2,54.8-22.2
	S663.6,1280.1,636.8,1297.6z"/>
<path class="st7" d="M678.3,1339.9c-27.4,16.5-55.5,20.2-55.5,20.2s16.3-23.2,43.8-39.7c27.4-16.5,55.5-20.2,55.5-20.2
	S705.7,1323.4,678.3,1339.9z"/>
<path class="st7" d="M721.4,1395.1c-25.2,19.8-52.6,26.9-52.6,26.9s13.3-25,38.5-44.9c25.2-19.8,52.6-26.9,52.6-26.9
	S746.5,1375.2,721.4,1395.1z"/>
<path class="st7" d="M652.7,1160.5c-5.8,31.5-21.7,55-21.7,55s-6.5-27.6-0.8-59.1c5.8-31.5,21.7-55,21.7-55S658.5,1129,652.7,1160.5
	z"/>
<path class="st7" d="M762.8,1259.8c-17.9,26.6-41.9,41.7-41.9,41.7s5.1-27.9,23-54.5c17.9-26.6,41.9-41.7,41.9-41.7
	S780.7,1233.2,762.8,1259.8z"/>
<path class="st7" d="M812.5,1320.7c-24,21.2-51,29.9-51,29.9s11.9-25.8,35.8-47s51-29.9,51-29.9S836.5,1299.4,812.5,1320.7z"/>
<path class="st7" d="M709.4,1208.2c-10.5,30.2-29.8,51-29.8,51s-2.2-28.3,8.3-58.5c10.5-30.2,29.8-51,29.8-51
	S719.9,1177.9,709.4,1208.2z"/>
<path class="st8" d="M502.3,1602.1l3.8-1.8c-0.1-0.2-7.8-16.9-21.9-38.2c-13-19.7-34.4-47.6-62-68.4l-2.5,3.4
	c27.1,20.4,48.2,47.9,61.1,67.3C494.6,1585.5,502.2,1601.9,502.3,1602.1L502.3,1602.1z"/>
<path class="st8" d="M410.7,1497.2c-1.8-3.9,0-8.6,3.9-10.3c3.9-1.8,8.5,0,10.3,3.9c1.8,3.9,0,8.6-3.9,10.3
	C417.1,1502.9,412.5,1501.1,410.7,1497.2z"/>
<path class="st8" d="M436.5,1481.4c-1.8-3.9,0-8.6,3.9-10.3c3.9-1.8,8.5,0,10.3,3.9c1.8,3.9,0,8.6-3.9,10.3
	C442.9,1487.1,438.3,1485.3,436.5,1481.4z"/>
<path class="st8" d="M421.6,1549.1c-1.8-3.9,0-8.6,3.9-10.3c3.9-1.8,8.5,0,10.3,3.9c1.8,3.9,0,8.6-3.9,10.3
	C428,1554.7,423.4,1553,421.6,1549.1z"/>
<path class="st8" d="M448.1,1522.6l4-1.4c-0.1-0.2-7.1-20.3-6.6-38.7l-4.2-0.1C440.7,1501.7,447.8,1521.8,448.1,1522.6L448.1,1522.6
	z"/>
<path class="st8" d="M466.3,1543.4l0.8-4.1c-0.6-0.1-15.4-2.7-35.4,2.9l1.1,4.1C451.8,1540.9,466.2,1543.4,466.3,1543.4
	L466.3,1543.4z"/>
<path class="st8" d="M508.3,1590.1c13.3,0,24.6,8.9,28.1,21.2h-56.1C483.7,1599,494.9,1590.1,508.3,1590.1L508.3,1590.1z"/>
<path class="st8" d="M544.8,1581c19,0,35.1,12.8,40.1,30.2h-80.2C509.7,1593.8,525.7,1581,544.8,1581L544.8,1581z"/>
<circle class="st9" cx="156" cy="1214.4" r="15.1"/>
<circle class="st10" cx="224" cy="1214.4" r="15.1"/>
<circle class="st10" cx="156" cy="1280.6" r="15.1"/>
<circle class="st8" cx="224" cy="1280.6" r="15.1"/>
<line class="st11" x1="189.8" y1="1181.8" x2="189.8" y2="1315.2"/>
<line class="st11" x1="123.2" y1="1248.5" x2="256.5" y2="1248.5"/>
<path class="st6" d="M1778.6,262.6c72.7,0,136.5,38.3,172.3,95.9c35.8-57.5,99.6-95.9,172.3-95.9s136.5,38.3,172.3,95.9
	c35.8-57.5,99.6-95.9,172.3-95.9c112,0,202.8,90.8,202.8,202.8H1575.8C1575.8,353.4,1666.6,262.6,1778.6,262.6L1778.6,262.6z"/>
<path class="st12" d="M2619.5,1275.3c0-18.9-7.6-34.1-17.1-34.1c-9.4,0-17.1,15.3-17.1,34.1s17.1,51.9,17.1,51.9
	S2619.5,1294.2,2619.5,1275.3L2619.5,1275.3z"/>
<path class="st12" d="M2576.5,1275.3c0-18.9-7.6-34.1-17.1-34.1c-9.4,0-17.1,15.3-17.1,34.1s17.1,51.9,17.1,51.9
	S2576.5,1294.2,2576.5,1275.3L2576.5,1275.3z"/>
<path class="st12" d="M2559.4,1327.2c5.1,12.7,12.8,20.8,21.6,20.8c8.7,0,16.5-8.1,21.5-20.7"/>
<path class="st12" d="M2602.5,1327.2c5.1,12.7,12.8,20.8,21.6,20.8"/>
<path class="st12" d="M2533.4,1275.3c0-18.9-7.6-34.1-17.1-34.1c-9.4,0-17.1,15.3-17.1,34.1s17.1,51.9,17.1,51.9
	S2533.4,1294.2,2533.4,1275.3L2533.4,1275.3z"/>
<path class="st12" d="M2516.3,1327.2c5.1,12.7,12.8,20.8,21.6,20.8c8.7,0,16.5-8.1,21.5-20.7"/>
<path class="st12" d="M2494.8,1348c8.7,0,16.5-8.1,21.5-20.7"/>
<path class="st13" d="M425.9,984.3c0-33.4-13.5-60.5-30.3-60.5c-16.7,0-30.3,27.1-30.3,60.5s30.3,91.9,30.3,91.9
	S425.9,1017.7,425.9,984.3z"/>
<path class="st13" d="M349.8,984.3c0-33.4-13.5-60.5-30.3-60.5c-16.7,0-30.3,27.1-30.3,60.5s30.3,91.9,30.3,91.9
	S349.8,1017.7,349.8,984.3z"/>
<path class="st13" d="M319.5,1076.2c9,22.5,22.8,36.9,38.3,36.9c15.5,0,29.2-14.3,38.2-36.8"/>
<path class="st13" d="M396,1076.2c9,22.5,22.8,36.9,38.3,36.9"/>
<path class="st13" d="M273.3,984.3c0-33.4-13.5-60.5-30.3-60.5s-30.3,27.1-30.3,60.5s30.3,91.9,30.3,91.9S273.3,1017.7,273.3,984.3z
	"/>
<path class="st13" d="M243,1076.2c9,22.5,22.8,36.9,38.3,36.9c15.5,0,29.2-14.3,38.2-36.8"/>
<path class="st13" d="M204.8,1113.2c15.5,0,29.2-14.3,38.2-36.8"/>
<path class="st10" d="M521.9,833.2c20.8,0,37.6,16.8,37.6,37.6h-75.2C484.3,850,501.1,833.2,521.9,833.2L521.9,833.2z"/>
<path class="st10" d="M458,833.2c20.8,0,37.6,16.8,37.6,37.6h-75.2C420.4,850,437.3,833.2,458,833.2z"/>
<path class="st10" d="M394.1,833.2c20.8,0,37.6,16.8,37.6,37.6h-75.2C356.6,850,373.4,833.2,394.1,833.2z"/>
<path class="st5" d="M970.5,1323.3c108.6,0,196.6,88,196.6,196.6H773.9C773.9,1411.4,862,1323.3,970.5,1323.3L970.5,1323.3z"/>
<path class="st11" d="M745.8,675.2c0,0,39.5-191.4,214.2-241.1c123.7-35.2,238,129.4,160.7,155.5s-126.6-170.9-80.8-280.4"/>
<path class="st14" d="M744.7,687.2c-6.6-0.6-11.4-6.5-10.8-13.1s6.5-11.4,13.1-10.8s11.4,6.5,10.8,13.1S751.3,687.8,744.7,687.2z"/>
<polygon class="st14" points="1046.9,284.6 1027.7,312.4 1048.7,318.3 "/>
<path class="st15" d="M2840.4,1530.7c0-84.8-68.8-153.6-153.6-153.6c-84.9,0-153.6,68.8-153.6,153.6h91c0-8.5,1.6-16.7,4.9-24.3
	c3.1-7.4,7.7-14.2,13.5-19.9s12.5-10.3,19.9-13.4c7.7-3.2,15.9-4.9,24.3-4.9s16.7,1.6,24.3,4.9c7.4,3.2,14.1,7.7,19.9,13.4
	c5.8,5.8,10.3,12.5,13.4,19.9c3.2,7.7,4.9,15.8,4.9,24.3H2840.4L2840.4,1530.7z"/>
<path class="st16" d="M2825.2,1530.7c0-18.7-3.7-36.8-10.9-53.9c-7-16.5-17-31.3-29.7-44s-27.5-22.7-44-29.7
	c-17.1-7.2-35.2-10.9-53.9-10.9s-36.8,3.7-53.9,10.9c-16.5,7-31.3,17-44,29.7c-12.7,12.7-22.7,27.5-29.7,44
	c-7.2,17.1-10.9,35.2-10.9,53.9h75.9c0-8.5,1.6-16.7,4.9-24.3c3.1-7.4,7.7-14.2,13.5-19.9s12.5-10.3,19.9-13.4
	c7.7-3.2,15.9-4.9,24.3-4.9s16.7,1.6,24.3,4.9c7.4,3.2,14.1,7.7,19.9,13.4c5.8,5.8,10.3,12.5,13.4,19.9c3.2,7.7,4.9,15.8,4.9,24.3
	H2825.2L2825.2,1530.7z"/>
<path class="st15" d="M2544.7,1530.7c0-84.8-68.8-153.6-153.6-153.6s-153.6,68.8-153.6,153.6h91c0-8.5,1.6-16.7,4.9-24.3
	c3.1-7.4,7.7-14.2,13.5-19.9s12.5-10.3,19.9-13.4c7.7-3.2,15.9-4.9,24.3-4.9s16.7,1.6,24.3,4.9c7.4,3.2,14.1,7.7,19.9,13.4
	c5.8,5.8,10.3,12.5,13.4,19.9c3.2,7.7,4.9,15.8,4.9,24.3H2544.7L2544.7,1530.7z"/>
<path class="st16" d="M2529.5,1530.7c0-18.7-3.7-36.8-10.9-53.9c-7-16.5-17-31.3-29.7-44s-27.5-22.7-44-29.7
	c-17.1-7.2-35.2-10.9-53.9-10.9s-36.8,3.7-53.9,10.9c-16.5,7-31.3,17-44,29.7c-12.7,12.7-22.7,27.5-29.7,44
	c-7.2,17.1-10.9,35.2-10.9,53.9h75.9c0-8.5,1.6-16.7,4.9-24.3c3.1-7.4,7.7-14.2,13.5-19.9s12.5-10.3,19.9-13.4
	c7.7-3.2,15.9-4.9,24.3-4.9s16.7,1.6,24.3,4.9c7.4,3.2,14.1,7.7,19.9,13.4c5.8,5.8,10.3,12.5,13.4,19.9c3.2,7.7,4.9,15.8,4.9,24.3
	H2529.5L2529.5,1530.7z"/>
<circle class="st17" cx="1704.3" cy="914" r="614.2"/>
<line class="st17" x1="1981.8" y1="365.9" x2="2058.4" y2="524.9"/>
<line class="st17" x1="1797.6" y1="393.6" x2="1713.3" y2="299.8"/>
<line class="st17" x1="1536.7" y1="407.8" x2="1477.7" y2="662"/>
<line class="st17" x1="1325.6" y1="534.9" x2="1477.7" y2="662"/>
<line class="st17" x1="1536.7" y1="407.8" x2="1713.3" y2="299.8"/>
<line class="st17" x1="2163.1" y1="1186.8" x2="2048.7" y2="955.8"/>
<line class="st17" x1="2095.7" y1="756.1" x2="2058.4" y2="524.9"/>
<line class="st17" x1="2214.6" y1="689.6" x2="2058.4" y2="524.9"/>
<line class="st17" x1="2193.5" y1="542.5" x2="2058.4" y2="524.9"/>
<line class="st17" x1="1985.4" y1="373.4" x2="1797.6" y2="393.6"/>
<line class="st17" x1="1536.7" y1="407.8" x2="1388" y2="387.5"/>
<line class="st17" x1="1577.7" y1="873.6" x2="1477.7" y2="662"/>
<line class="st17" x1="1325.6" y1="534.9" x2="1254.6" y2="762.3"/>
<line class="st17" x1="1535" y1="415.2" x2="1797.6" y2="393.6"/>
<line class="st17" x1="1795.4" y1="623" x2="1797.6" y2="393.6"/>
<line class="st17" x1="2058.4" y1="524.9" x2="1795.4" y2="623"/>
<line class="st17" x1="1839.3" y1="780.5" x2="1577.7" y2="873.6"/>
<line class="st17" x1="1477.7" y1="662" x2="1368.1" y2="914"/>
<line class="st17" x1="1536.7" y1="407.8" x2="1325.6" y2="534.9"/>
<line class="st17" x1="2222.6" y1="857.7" x2="2208.9" y2="683.5"/>
<line class="st17" x1="2058.4" y1="524.9" x2="1797.6" y2="393.6"/>
<line class="st17" x1="1388" y1="387.5" x2="1332.2" y2="534.9"/>
<line class="st17" x1="1368.1" y1="914" x2="1254.6" y2="762.3"/>
<line class="st17" x1="1795.4" y1="623" x2="1577.7" y2="873.6"/>
<line class="st17" x1="1797.6" y1="393.6" x2="1477.7" y2="662"/>
<line class="st17" x1="1332.2" y1="534.9" x2="1137.2" y2="677.9"/>
<line class="st17" x1="1234.7" y1="1088.8" x2="1107.3" y2="822.7"/>
<line class="st17" x1="1368.1" y1="914" x2="1107.3" y2="822.7"/>
<line class="st17" x1="1577.7" y1="873.6" x2="1637.7" y2="1036"/>
<line class="st17" x1="1462.4" y1="1178.4" x2="1371.4" y2="906.4"/>
<line class="st17" x1="1332.2" y1="534.9" x2="1107.3" y2="822.7"/>
<line class="st17" x1="1311.3" y1="1281.1" x2="1237.7" y2="1082.6"/>
<line class="st17" x1="1371.4" y1="906.4" x2="1237.7" y2="1082.6"/>
<line class="st17" x1="1577.7" y1="873.6" x2="1371.4" y2="906.4"/>
<line class="st17" x1="1637.7" y1="1036" x2="1371.4" y2="906.4"/>
<line class="st17" x1="1839.3" y1="780.5" x2="1823.3" y2="946.8"/>
<line class="st17" x1="1795.4" y1="623" x2="1839.3" y2="780.5"/>
<line class="st17" x1="2095.7" y1="756.1" x2="1795.4" y2="623"/>
<line class="st17" x1="2048.7" y1="955.8" x2="1917.8" y2="1181.9"/>
<line class="st17" x1="1764.8" y1="1295.5" x2="1631.2" y2="1032.9"/>
<line class="st17" x1="1823.3" y1="946.8" x2="1577.7" y2="873.6"/>
<line class="st17" x1="1477.7" y1="662" x2="1254.6" y2="762.3"/>
<line class="st17" x1="1795.4" y1="623" x2="1477.7" y2="662"/>
<line class="st17" x1="1254.6" y1="762.3" x2="1107.3" y2="822.7"/>
<line class="st17" x1="1237.7" y1="1082.6" x2="1128.4" y2="1127.9"/>
<line class="st17" x1="1311.3" y1="1281.1" x2="1128.4" y2="1127.9"/>
<line class="st17" x1="2095.7" y1="756.1" x2="2048.7" y2="955.8"/>
<line class="st17" x1="2222.6" y1="857.7" x2="2105.9" y2="756.1"/>
<line class="st17" x1="2318.5" y1="955.8" x2="2214.6" y2="689.6"/>
<line class="st17" x1="2193.5" y1="542.5" x2="2214.6" y2="689.6"/>
<line class="st17" x1="2222.6" y1="863.6" x2="2156" y2="1181.9"/>
<line class="st17" x1="1963.1" y1="1407.3" x2="1917.8" y2="1181.9"/>
<line class="st17" x1="1823.3" y1="946.8" x2="1917.8" y2="1181.9"/>
<line class="st17" x1="1631.2" y1="1032.9" x2="1917.8" y2="1181.9"/>
<line class="st17" x1="1462.4" y1="1178.4" x2="1637.7" y2="1036"/>
<line class="st17" x1="2048.7" y1="955.8" x2="1839.3" y2="780.5"/>
<line class="st17" x1="2095.7" y1="756.1" x2="1839.3" y2="780.5"/>
<line class="st17" x1="1823.3" y1="946.8" x2="1631.2" y2="1032.9"/>
<line class="st17" x1="1462.4" y1="1178.4" x2="1311.3" y2="1281.1"/>
<line class="st17" x1="1234.7" y1="1088.8" x2="1462.4" y2="1178.4"/>
<line class="st17" x1="1764.8" y1="1295.5" x2="1462.4" y2="1178.4"/>
<line class="st17" x1="2318.5" y1="955.8" x2="2222.6" y2="863.6"/>
<line class="st17" x1="2163.1" y1="1186.8" x2="1963.1" y2="1407.3"/>
<line class="st17" x1="2103.9" y1="1380.6" x2="1956.4" y2="1412.6"/>
<line class="st17" x1="1914.7" y1="1174.1" x2="1764.8" y2="1295.5"/>
<line class="st17" x1="1607.7" y1="1453.9" x2="1462.4" y2="1178.4"/>
<line class="st17" x1="1764.8" y1="1295.5" x2="1613.6" y2="1453.9"/>
<line class="st17" x1="1963.1" y1="1407.3" x2="1764.8" y2="1295.5"/>
<line class="st17" x1="2163.1" y1="1186.8" x2="1923.1" y2="1181.9"/>
<line class="st17" x1="2278.1" y1="1133.6" x2="2163.1" y2="1186.8"/>
<line class="st17" x1="2222.6" y1="857.7" x2="2278.1" y2="1133.6"/>
<line class="st17" x1="1956.4" y1="1412.6" x2="1750.1" y2="1528.3"/>
<line class="st17" x1="1613.6" y1="1453.9" x2="1311.3" y2="1281.1"/>
<line class="st17" x1="1401.6" y1="1448.6" x2="1317.6" y2="1284.7"/>
<line class="st17" x1="1613.6" y1="1453.9" x2="1409.1" y2="1452.8"/>
<line class="st17" x1="1750.1" y1="1528.3" x2="1607.7" y2="1453.9"/>
<line class="st17" x1="1963.1" y1="1407.3" x2="1613.6" y2="1453.9"/>
<line class="st17" x1="2048.7" y1="955.8" x2="1823.3" y2="946.8"/>
<line class="st17" x1="2156" y1="1181.9" x2="2103.9" y2="1380.6"/>
<circle class="st15" cx="1796.2" cy="626.2" r="57"/>
<circle class="st15" cx="1462.4" cy="1178.3" r="57"/>
<ellipse transform="matrix(0.7071 -0.7071 0.7071 0.7071 231.3927 1608.0573)" class="st15" cx="2056.8" cy="524.7" rx="22.9" ry="22.9"/>
<circle class="st15" cx="1839.7" cy="782" r="22.9"/>
<circle class="st15" cx="2163.1" cy="1186.8" r="22.9"/>
<circle class="st15" cx="1140.6" cy="675.4" r="22.9"/>
<circle class="st15" cx="1331.4" cy="537" r="22.9"/>
<circle class="st15" cx="1987.6" cy="378" r="22.9"/>
<circle class="st15" cx="1107.3" cy="822.7" r="22.9"/>
<circle class="st15" cx="1234.7" cy="1086.6" r="22.9"/>
<circle class="st15" cx="1801.2" cy="397.7" r="32.2"/>
<circle class="st15" cx="2279.5" cy="1140.7" r="32.2"/>
<circle class="st15" cx="1613.5" cy="1453.9" r="32.2"/>
<circle class="st15" cx="2095.7" cy="756.1" r="32.2"/>
<circle class="st15" cx="1916" cy="1173" r="32.2"/>
<circle class="st15" cx="1631.2" cy="1033" r="32.2"/>
<circle class="st15" cx="1477.7" cy="662" r="32.2"/>
<circle class="st15" cx="1963" cy="1407.3" r="32.2"/>
<circle class="st15" cx="1764" cy="1288.5" r="16.8"/>
<ellipse transform="matrix(0.9975 -7.084478e-02 7.084478e-02 0.9975 -62.5055 147.4579)" class="st15" cx="2047.6" cy="954.9" rx="16.8" ry="16.8"/>
<circle class="st15" cx="1130.2" cy="1127.2" r="16.8"/>
<circle class="st15" cx="1750.1" cy="1528.3" r="16.8"/>
<circle class="st15" cx="1401.6" cy="1448.7" r="16.8"/>
<circle class="st15" cx="1314.6" cy="1279" r="16.8"/>
<circle class="st15" cx="1388" cy="387.5" r="16.8"/>
<circle class="st15" cx="2194.2" cy="547.7" r="16.8"/>
<circle class="st15" cx="2318.5" cy="948.2" r="16.8"/>
<circle class="st15" cx="2114.6" cy="1378.1" r="16.8"/>
<circle class="st15" cx="1254.6" cy="762.2" r="16.8"/>
<circle class="st15" cx="2212.1" cy="683.2" r="16.8"/>
<circle class="st15" cx="1713.3" cy="301.6" r="16.8"/>
<circle class="st15" cx="2223.8" cy="863.6" r="16.8"/>
<ellipse transform="matrix(0.9733 -0.2297 0.2297 0.9733 -54.3442 363.7114)" class="st15" cx="1535" cy="415.3" rx="22.9" ry="22.9"/>
<ellipse transform="matrix(0.3827 -0.9239 0.9239 0.3827 247.7319 2267.0762)" class="st15" cx="1820.3" cy="948.2" rx="22.9" ry="22.9"/>
<circle class="st15" cx="1582" cy="874.9" r="22.9"/>
<circle class="st15" cx="1369.8" cy="910.2" r="22.9"/>
<polygon class="st5" points="1828.7,478.1 1816.5,467.2 1795.9,490.2 1772.9,469.6 1762,481.8 1785,502.4 1764.4,525.4 
	1776.5,536.3 1797.2,513.3 1820.2,533.9 1831.1,521.8 1808.1,501.1 "/>
<path class="st18" d="M2275.8,802.6v732.6c0,3.9,3.1,7,7,7s7-3.2,7-7v-60.8H2391v60.8c0,3.9,3.1,7,7,7s7-3.2,7-7V802.6
	c0-3.9-3.1-7-7-7s-7,3.2-7,7v69h-101.1v-69c0-3.9-3.1-7-7-7S2275.8,798.7,2275.8,802.6z M2289.9,1165.3v-58.1H2391v58.1H2289.9z
	 M2391,1180.7v58.1h-101.1v-58.1H2391z M2289.9,1091.9v-58.1H2391v58.1H2289.9z M2391,1312.2h-101.1v-58.1H2391V1312.2z
	 M2289.9,960.4H2391v58.1h-101.1V960.4z M2391,1385.6h-101.1v-58.1H2391V1385.6z M2391,887v58.1h-101.1V887H2391z M2289.9,1459
	v-58.1H2391v58.1H2289.9z"/>
<path class="st18" d="M943.9,830.4v732.6c0,3.9,3.2,7,7,7s7-3.2,7-7v-60.8h101.1v60.8c0,3.9,3.2,7,7,7s7-3.2,7-7V830.4
	c0-3.9-3.2-7-7-7s-7,3.2-7,7v69H958v-69c0-3.9-3.2-7-7-7S943.9,826.5,943.9,830.4z M958,1193.1V1135h101.1v58.1H958L958,1193.1z
	 M1059.1,1208.4v58.1H958v-58.1H1059.1z M958,1119.7v-58.1h101.1v58.1H958z M1059.1,1339.9H958v-58.1h101.1V1339.9z M958,988.2
	h101.1v58.1H958V988.2L958,988.2z M1059.1,1413.3H958v-58.1h101.1V1413.3z M1059.1,914.8v58.1H958v-58.1H1059.1z M958,1486.8v-58.1
	h101.1v58.1H958z"/>
<path class="st9" d="M601.2,60.1c20.6,0,40.4,3.2,59,9.1C708.9,26.2,773,0,843.2,0c73.6,0,140.5,28.8,190,75.6
	c23.3-10,49-15.5,76-15.5c88.5,0,163.1,59.3,186.2,140.4H414.9C438.1,119.5,512.7,60.1,601.2,60.1L601.2,60.1z"/>
<path class="st19" d="M1070.3,173.1c30,0,55.3,20.1,63.1,47.6h-126.2C1015.1,193.2,1040.4,173.1,1070.3,173.1L1070.3,173.1z"/>
<path class="st19" d="M898.2,173.1c30,0,55.3,20.1,63.1,47.6H835.1C843,193.2,868.2,173.1,898.2,173.1L898.2,173.1z"/>
<path class="st19" d="M980.2,152.7c42.8,0,78.9,28.7,90.1,67.9H890.1C901.3,181.4,937.4,152.7,980.2,152.7L980.2,152.7z"/>
<path class="st20" d="M1967.9,1175c0,0-15-22.3-21.7-22.9c-6.8-0.6,5.1,22.3,19.8,29.3L1967.9,1175z"/>
<path class="st8" d="M1967.8,1173.9c-4.3,1.3-8.6,2.9-12.9,4.1c41.5,85.9,95,70.8,115.2-15.3c3.1-13.2,1.8-12.9-8.1-14.3
	c-0.1-2.2,0-2.2,0,0c-9.8-1.4-9.8,3.8-12.3,13.7C2032.8,1226.5,1999.9,1245.1,1967.8,1173.9L1967.8,1173.9z"/>
<path class="st20" d="M2147.1,1577.5c0.3,0,0.7,0,1-0.1c2.7-0.6,4.4-3.2,3.9-5.9l-7.1-35c-0.6-2.7-3.2-4.4-5.9-3.9
	c-2.7,0.6-4.4,3.2-3.9,5.9l7.1,35C2142.7,1575.9,2144.8,1577.5,2147.1,1577.5z"/>
<path class="st6" d="M2153.3,1570.9c0,0,3.1,12.8,0,13.1c-3.1,0.3-47.4,1.7-47.6-0.3c-0.9-7,35.3-13.5,38.9-12.8
	S2152.9,1569.1,2153.3,1570.9L2153.3,1570.9z"/>
<path class="st20" d="M2060.5,1577.5c0.3,0,0.7,0,1-0.1c2.7-0.6,4.4-3.2,3.9-5.9l-7.1-35c-0.6-2.7-3.2-4.4-5.9-3.9
	c-2.7,0.6-4.4,3.2-3.9,5.9l7.1,35C2056.2,1575.9,2058.2,1577.5,2060.5,1577.5z"/>
<path class="st7" d="M2049.6,1557.2c5.3-0.1,10.6-0.7,15.8-1.5c-15.7-84.2-27.7-197.1,14.4-275.8c-12.8-6.3-25.6-12.4-38.5-18.5
	C2010.6,1330,2036.8,1484.8,2049.6,1557.2z"/>
<path class="st7" d="M2136.7,1554.8c5.3-1.6,10.5-3.2,15.6-5.3c-39.4-77-68.2-198.1-61.3-285.8c-14.3-0.7-28.7-1.2-43-1.6
	C2053.4,1349.8,2102.7,1475.7,2136.7,1554.8L2136.7,1554.8z"/>
<path class="st6" d="M2066.8,1570.9c0,0,3.1,12.8,0,13.1c-3.1,0.3-47.4,1.7-47.6-0.3c-0.9-7,35.3-13.5,38.9-12.8
	S2066.4,1569.1,2066.8,1570.9L2066.8,1570.9z"/>
<path class="st8" d="M2020.1,1401.3c7.1-2.3,28.2,0.1,42.2,0l2.5-31.5l6.8,30.6c13.2-1.7,27.6-0.7,38.7,0
	c-21.4-77.1-15.7-189.2-12.9-226.6c0.6-7.9,1-12.5-0.5-18.4c-2-7.9-6.1-13.4-11.5-16.3c-6.5-3.6-14.9-3.3-23.4,1
	c-1.2,0.6-2.5,1.3-3.7,2.2c-5,3.8-9.7,11.3-10.4,25.5c-1,19.7-9.5,71.9-16.9,124.3c-1.4,10-2.8,20.1-4,29.9
	C2023,1353.2,2020.1,1382,2020.1,1401.3L2020.1,1401.3z"/>
<path class="st20" d="M2184.7,1275c0,0-25.4,8.8-27.7,15.1s22.9,0.8,33.3-11.7L2184.7,1275L2184.7,1275z"/>
<path class="st8" d="M2102.7,1272.7c2.4,3.8,4.8,7.6,7.1,11.2c64.3-50.6,60.2-81-9.4-134.5c-10.7-8.2-11.1-6.2-16.3,1.8
	c-1.9-0.6-1.9-0.7,0,0c-5.2,8.1-1.1,10.4,7.3,16.8C2146.4,1210,2158.4,1232.8,2102.7,1272.7L2102.7,1272.7z"/>
<rect x="2067.8" y="1297" transform="matrix(0.9992 -4.117813e-02 4.117813e-02 0.9992 -52.2662 86.7567)" class="st8" width="24" height="30.1"/>
<path class="st8" d="M2027,1322l8.3,1.3l4.7-29.8l-9-1.4C2029.7,1302.2,2028.3,1312.2,2027,1322z"/>
<path class="st20" d="M2083.6,1116.1c-8.2,12.6-23.6,17.1-31.3,12.1s-4.8-17.6,3.4-30.2c8.2-12.6,18.6-14.9,26.3-9.9
	S2091.8,1103.5,2083.6,1116.1L2083.6,1116.1z"/>
<path class="st20" d="M2081.8,1114l-15.7-1.5c-0.2,2.2-1.9,22.6-1.1,30.3c0.6,2.4,4.5,3.5,8.8,2.4c3.8-0.9,6.6-3.2,6.7-5.4h0
	C2080,1135.2,2081.1,1121.5,2081.8,1114L2081.8,1114z"/>
<path class="st5" d="M2076,1120.4c-2.3-2.5-4.5-0.2-10.1,2.9c-5.6,3.1-15.5,2.3-16.2-10.7c-0.4-8.3-5.1,5.3-5.1,5.3
	c-0.9,6.8,0.9,10.9,5.5,13.9c6.3,4.1,16.4,3.5,25.3-1.8C2076.7,1126.6,2077.5,1122.1,2076,1120.4L2076,1120.4z"/>
<path class="st5" d="M2090.7,1109.2c0,0,2.6-9.8-1.8-16.8c-4.4-7-16.9-14.4-26.8-5c0,0-6.4,7.4,3.1,14.3c9.5,7,10.7,0.6,12.9,8.4
	c2.2,7.8,8.8,6.6,9.1,8.2L2090.7,1109.2L2090.7,1109.2z"/>
<path class="st20" d="M2087.8,1122.5c-1.9,2.9-7.3,4.8-9.4,3.4s-1.1-4.1,0.8-7s5.4-4.6,7.5-3.2
	C2088.9,1117.1,2089.7,1119.6,2087.8,1122.5L2087.8,1122.5z"/>
<path class="st21" d="M2409,1084.1c0.3,0,0.7,0,1-0.1c2.7-0.6,4.5-3.2,3.9-5.9l-7.2-35.5c-0.6-2.7-3.2-4.5-5.9-3.9
	c-2.7,0.6-4.5,3.2-3.9,5.9l7.2,35.5C2404.6,1082.5,2406.7,1084.1,2409,1084.1L2409,1084.1z"/>
<path class="st9" d="M2415.4,1077.4c0,0,3.1,13,0,13.3s-48.1,1.7-48.3-0.4c-0.9-7.1,35.8-13.7,39.4-13
	C2410.1,1078.1,2414.9,1075.5,2415.4,1077.4L2415.4,1077.4z"/>
<path class="st21" d="M2134.4,734.3c0,0-22.8,12.6-28.8,10s14.3-16.9,30-16.3L2134.4,734.3z"/>
<path class="st8" d="M2128.7,739.4c-0.5-4.3-1.3-8.4-1.8-13c73.8-11.4,71.1-7.8,125.9-63.7c8.4-8.5,11-2.4,15.9,3.3
	c1.5-0.6,1.5-0.7,0,0c4.9,5.8,2.4,9-4.5,15.7C2219.3,725.8,2192.3,741.6,2128.7,739.4L2128.7,739.4z"/>
<path class="st21" d="M2321.2,1084.1c0.3,0,0.7,0,1-0.1c2.7-0.6,4.5-3.2,3.9-5.9l-7.2-35.5c-0.6-2.7-3.2-4.5-5.9-3.9
	c-2.7,0.6-4.5,3.2-3.9,5.9l7.2,35.5C2316.7,1082.5,2318.8,1084.1,2321.2,1084.1L2321.2,1084.1z"/>
<path class="st6" d="M2310.1,1063.4c5.4-0.1,10.7-0.7,16.1-1.5c-16-85.4-28.1-200,14.7-279.9c-13-6.4-26-12.6-39.1-18.7
	C2270.5,832.9,2297.1,990,2310.1,1063.4L2310.1,1063.4z"/>
<path class="st6" d="M2398.5,1061c5.4-1.6,10.7-3.3,15.8-5.4c-40-78.1-69.2-201.1-62.2-290c-14.5-0.8-29.1-1.2-43.6-1.7
	C2313.9,853,2363.9,980.8,2398.5,1061L2398.5,1061z"/>
<path class="st9" d="M2327.5,1077.4c0,0,3.1,13,0,13.3s-48.1,1.7-48.3-0.4c-0.9-7.1,35.8-13.7,39.4-13S2327.1,1075.5,2327.5,1077.4
	L2327.5,1077.4z"/>
<path class="st8" d="M2262.5,693.3c26.9,29.3,29.9,73.6,27.3,118.7c-0.6,10.1-1.4,20.2-2.4,30.1c-2,21.5-4.3,42.4-4.9,61.2
	c12.4-0.8,19.1,2.4,30,2.7l3-30.6l2.3,30.6c20.3-1,39.4,1.4,59.6,3.3c6.8-104.2-21.7-194-66.1-239.6c-14.9-15.3-22.2-25.2-38.2-23.3
	C2253.2,648.6,2244.2,673.3,2262.5,693.3L2262.5,693.3z"/>
<path class="st21" d="M2410.4,752c0,0,9.1,25.7,15.6,28s0.6-23.2-12.1-33.7L2410.4,752L2410.4,752z"/>
<path class="st8" d="M2409.3,756.4c3.4-2.5,6.6-5.1,9.7-7.8c-45.6-53.6-59.3-68.8-123-99.1c-24.7-11.7-28.7,11.3-4.9,20.4
	C2359,695.6,2357.3,708.3,2409.3,756.4L2409.3,756.4z"/>
<rect x="2338.9" y="811" transform="matrix(0.9899 -0.1421 0.1421 0.9899 -93.5341 342.4672)" class="st8" width="24" height="30.1"/>
<path class="st8" d="M2287.4,842.1h11.7V812h-9.3C2289.2,822,2288.4,832.1,2287.4,842.1L2287.4,842.1z"/>
<path class="st21" d="M2260.5,627c-0.3,15.2-11.1,27.4-20.4,27.2c-9.3-0.2-13.6-12.6-13.3-27.9s8-22.9,17.3-22.7
	C2253.4,603.8,2260.8,611.7,2260.5,627z"/>
<path class="st21" d="M2267.3,632.3c-0.1,3.5-3.7,8-6.2,8s-3.2-2.9-3.1-6.5c0.1-3.5,2.2-6.8,4.8-6.8
	C2265.3,627.1,2267.4,628.8,2267.3,632.3L2267.3,632.3z"/>
<path class="st21" d="M2257.9,626.2l-14.3,7.1c1,2,10.6,20.5,15.4,26.7c1.8,1.7,5.7,0.6,8.8-2.6c2.8-2.9,3.9-6.3,2.8-8.3h0
	C2267.7,645.3,2261.3,633,2257.9,626.2L2257.9,626.2z"/>
<path class="st5" d="M2256.3,634.8c-3.3-0.9-4,2.2-7.1,7.9c-3.1,5.7-12.1,10.4-19.7-0.5c-4.9-6.9-1.6,7.3-1.6,7.3
	c2.9,6.4,6.7,8.9,12.2,9c7.6,0.1,16-5.8,20.8-15.2C2260.2,639.7,2258.5,635.4,2256.3,634.8L2256.3,634.8z"/>
<path class="st5" d="M2228.8,642c0,0,0.2,0,0.6,0c3.2-0.2,17.6-0.9,21.5,2.9c4.3,4.2-7,1.7-11.1-0.2s-6.4,0.2-9.1,0.9
	C2228,646.3,2225.1,644.1,2228.8,642z"/>
<path class="st5" d="M2262.9,617.3c0,0-3.1-9.8-10.6-13.5c-7.6-3.7-22.3-3.3-25.8,10.1c0,0-1.6,9.8,10.4,10.7s9.5-5.3,15.6,0.3
	c6.1,5.5,11.1,0.9,12.3,2.2L2262.9,617.3L2262.9,617.3z"/>
<path class="st20" d="M868.2,1062.2c-0.2-0.2-0.4-0.5-0.6-0.8c-1.4-2.3-0.7-5.3,1.7-6.7l30.2-18.2c2.3-1.4,5.3-0.7,6.7,1.7
	c1.4,2.3,0.7,5.3-1.7,6.7l-30.2,18.2C872.3,1064.3,869.8,1063.9,868.2,1062.2L868.2,1062.2z"/>
<path class="st15" d="M868.9,1053.3c0,0-11.3,6.3-9.5,8.8c1.8,2.5,30.4,35.6,32.1,34.4c5.7-4-13.8-34.7-16.7-36.8
	C871.8,1057.5,870.5,1052.3,868.9,1053.3L868.9,1053.3z"/>
<path class="st20" d="M1134,724c0,0,19.1-16.5,25.4-15.4s-10.2,19-25.2,21.6L1134,724z"/>
<path class="st8" d="M1134.2,720.3c1.4,3.8,3,7.5,4.5,11.2c-58.2,24.9-95.7,18.3-137.5-27.5c-6.4-7-4.8-9.9,1.6-14.7
	c-0.2-1.5-0.3-1.4,0,0c6.3-4.7,8.8-4.2,15.3,3C1060.6,738.8,1073.3,735,1134.2,720.3z"/>
<path class="st20" d="M1023.8,1113.2c-0.3,0-0.7,0-1-0.1c-2.7-0.5-4.4-3.1-3.8-5.8l7-34.6c0.5-2.7,3.1-4.4,5.8-3.8
	c2.7,0.5,4.4,3.1,3.8,5.8l-7,34.6C1028.2,1111.6,1026.1,1113.2,1023.8,1113.2L1023.8,1113.2z"/>
<path class="st9" d="M1034.6,1093.1c-5.2-0.1-10.4-0.7-15.6-1.4c15.6-83.1,27.3-194.7-14.3-272.3c12.6-6.2,25.3-12.2,38-18.2
	C1073.1,868.7,1047.3,1021.6,1034.6,1093.1L1034.6,1093.1z"/>
<path class="st9" d="M888.4,1058.4c-3.1-4.5-6.1-9.1-8.9-13.8c100.8-60.7,132.6-118.7,113.9-238.5c14-2.5,28.1-4.9,42.3-6.7
	C1038.3,934,993.1,986.8,888.4,1058.4L888.4,1058.4z"/>
<path class="st15" d="M1017.7,1106.7c0,0-3,12.6,0,13s46.8,1.7,47-0.3c0.9-6.9-34.9-13.3-38.4-12.6S1018.1,1104.8,1017.7,1106.7
	L1017.7,1106.7z"/>
<path class="st8" d="M992.5,911c6.8-2.7,17.5-3,34.6-3.7c4.3-0.2,9.7-1.5,15.2-3l0.4-31.8c2.3,5.9,4.9,20.6,6.4,29.9
	c6.8-2,13-3.6,16.3-3.2c-1.2-14.8-3.9-31-7.5-47.4c-2.1-9.8-4.5-19.6-7.1-29.3c-13.8-52.8-31.8-102.1-29.9-114.2
	c1.3-9-2.2-18-9.4-23.5l-2.8-2.2c-13-10-32.1-2.9-35.2,13.3c-1,5.4-1.8,11.6-2.2,18.5C969.6,747.6,982.2,863.2,992.5,911L992.5,911z
	"/>
<path class="st20" d="M986.3,655.2c5.6,13.8,19.7,21,28.1,17.6c8.4-3.4,7.9-16.2,2.3-30c-5.6-13.8-15.2-18-23.7-14.5
	S980.7,641.4,986.3,655.2L986.3,655.2z"/>
<path class="st20" d="M982,662.4c1.3,3.2,6.1,6,8.5,5.1s1.8-3.8,0.5-7s-4.4-5.4-6.7-4.5C982,657,980.7,659.2,982,662.4L982,662.4z"
	/>
<path class="st5" d="M980.7,647.2c0,0-0.7-10,4.9-16c5.6-6,19.1-10.8,26.9,0.2c0,0,4.8,8.3-5.7,13.3c-10.5,5-10.5-1.5-14.1,5.7
	c-3.6,7.2-9.8,4.7-10.4,6.3L980.7,647.2L980.7,647.2z"/>
<path class="st20" d="M988.7,655.7l15.5-1.5c0.2,2.1,1.8,22.3,1,30c-0.6,2.3-4.4,3.4-8.6,2.4c-3.8-0.9-6.5-3.2-6.6-5.4h0
	C990.4,676.6,989.4,663.1,988.7,655.7L988.7,655.7z"/>
<path class="st20" d="M992.9,660.8c2.7-2,4.4,0.6,9.2,4.7c4.8,4.1,14.6,5.2,17.7-7.4c2-8,4,6.1,4,6.1c-0.4,6.8-2.9,10.4-7.9,12.5
	c-6.9,2.8-16.5,0.4-24.2-6.5C991.1,666.7,991.1,662.1,992.9,660.8L992.9,660.8z"/>
<path class="st5" d="M1020.4,657.7c0,0-0.2,0.1-0.6,0.2c-2.9,0.9-16.3,5.4-18.5,10.1c-2.5,5.3,6.9-0.9,10-4.1s5.9-2.1,8.6-2.4
	C1022.6,661.4,1024.4,658.4,1020.4,657.7L1020.4,657.7z"/>
<rect x="1053.9" y="721" transform="matrix(0.5787 -0.8155 0.8155 0.5787 -108.5751 1248.9761)" class="st5" width="201.4" height="17.1"/>
<rect x="1062.6" y="742.6" transform="matrix(0.5787 -0.8155 0.8155 0.5787 -138.2987 1244.7853)" class="st8" width="146.1" height="27.4"/>
<path class="st5" d="M1184,501.8c-34.5,48.6-23,115.9,25.5,150.4c48.6,34.5,115.9,23,150.4-25.5c34.5-48.6,23-115.9-25.5-150.4
	C1285.8,441.8,1218.4,453.2,1184,501.8z M1191.9,507.5c31.4-44.2,92.6-54.6,136.8-23.2s54.6,92.6,23.2,136.8s-92.6,54.6-136.8,23.2
	S1160.5,551.7,1191.9,507.5z"/>
<circle class="st22" cx="1271.9" cy="564.3" r="98.2"/>
<path class="st20" d="M1108.4,753.3c0,0,21.4-13.6,27.4-11.5s-12.8,17.3-28.1,17.7L1108.4,753.3z"/>
<path class="st8" d="M1109.1,749.6c0.9,4,1.9,7.8,2.8,11.7c-61.2,16.1-96.6,3.6-131.9-47.4c-10.1-14.6,3.7-32.5,18.4-9.1
	C1031.9,758.2,1046.8,755.2,1109.1,749.6L1109.1,749.6z"/>
<rect x="994.2" y="830.5" transform="matrix(0.9858 -0.1681 0.1681 0.9858 -127.844 181.2287)" class="st8" width="24" height="30.1"/>
<path class="st8" d="M1042.6,824l5.1,29.7l10.2-1.8c-2.1-9.8-4.5-19.6-7.1-29.3L1042.6,824L1042.6,824z"/>
<circle class="st15" cx="1940" cy="1138.2" r="22.9"/>
<circle class="st15" cx="1226.2" cy="1363.9" r="22.9"/>
<path class="st21" d="M1226.1,1585.1c-0.3,0-0.6,0-1-0.1c-2.6-0.5-4.3-3.1-3.7-5.7l6.9-33.8c0.5-2.6,3.1-4.3,5.7-3.7
	c2.6,0.5,4.3,3.1,3.7,5.7l-6.9,33.8C1230.3,1583.6,1228.3,1585.1,1226.1,1585.1z"/>
<path class="st6" d="M1220.1,1578.8c0,0-3,12.3,0,12.7c3,0.3,45.7,1.6,45.9-0.3c0.9-6.8-34.1-13-37.5-12.3
	C1225.1,1579.4,1220.5,1577,1220.1,1578.8L1220.1,1578.8z"/>
<path class="st21" d="M1368.4,1157.1c0,0-11.1-22.1-8.5-27.7s15.6,14.2,14.5,29.1L1368.4,1157.1z"/>
<path class="st8" d="M1376.5,1152.3c-3.9,2.3-8.1,4.2-12.2,6.2c32.4,64.8-7.3,90.4-43.1,20.5c-5.5-10.7-10.9-7.3-16.3-0.3
	c-1.6-1.7-1.5-1.7,0,0c-5.3,7-5.4,5.3,2,17C1355.4,1272,1423.7,1230,1376.5,1152.3L1376.5,1152.3z"/>
<path class="st21" d="M1309.6,1585.1c-0.3,0-0.6,0-1-0.1c-2.6-0.5-4.3-3.1-3.7-5.7l6.9-33.8c0.5-2.6,3.1-4.3,5.7-3.7
	c2.6,0.5,4.3,3.1,3.7,5.7l-6.9,33.8C1313.9,1583.6,1311.9,1585.1,1309.6,1585.1z"/>
<path class="st9" d="M1320.2,1565.5c-5.1-0.1-10.2-0.7-15.3-1.4c15.2-81.2,26.7-190.2-13.9-266.1c12.3-6.1,24.7-12,37.2-17.8
	C1357.8,1346.3,1332.5,1495.6,1320.2,1565.5L1320.2,1565.5z"/>
<path class="st9" d="M1236.1,1563.2c-5.1-1.5-10.1-3.1-15-5.1c38-74.3,65.8-191.2,59.2-275.8c13.8-0.7,27.7-1.2,41.5-1.6
	C1316.6,1365.4,1269,1486.9,1236.1,1563.2L1236.1,1563.2z"/>
<path class="st6" d="M1303.6,1578.8c0,0-3,12.3,0,12.7s45.7,1.6,45.9-0.3c0.9-6.8-34.1-13-37.5-12.3
	C1308.7,1579.4,1304,1577,1303.6,1578.8L1303.6,1578.8z"/>
<path class="st8" d="M1248.7,1417.7c11.1-0.7,46.2-2.2,59.9-0.3l5.2-23.9v24.6c9.1,0.4,25-2.7,32.2-0.3c1.8-33.1,0.7-17.7-0.6-45.3
	c-0.5-10.4-1.1-20.5-1.9-30.1c-6.2-77.7-20.4-128.9-21.7-152.5c-0.7-13.7-5.2-20.9-10-24.6c-1.2-0.9-2.4-1.6-3.6-2.2
	c-8.2-4.2-16.3-4.4-22.6-1c-5.2,2.8-9.2,8.1-11.1,15.7c-1.4,5.7-1,10.2-0.4,17.8C1276.8,1231.7,1247.2,1381,1248.7,1417.7
	L1248.7,1417.7z"/>
<path class="st21" d="M1287.4,1139.9c7.9,12.2,22.8,16.5,30.2,11.7c7.4-4.8,4.6-17-3.3-29.2c-7.9-12.2-18-14.4-25.4-9.6
	C1281.5,1117.6,1279.5,1127.7,1287.4,1139.9L1287.4,1139.9z"/>
<path class="st21" d="M1284.6,1147.6c1.8,2.8,7,4.6,9.1,3.3c2-1.3,1.1-4-0.8-6.8c-1.8-2.8-5.2-4.4-7.3-3.1
	C1283.6,1142.4,1282.8,1144.8,1284.6,1147.6L1284.6,1147.6z"/>
<path class="st21" d="M1289.1,1137.9l15.2-1.5c0.2,2.1,1.8,21.8,1,29.3c-0.6,2.3-4.3,3.3-8.4,2.3c-3.7-0.9-6.4-3.1-6.5-5.2h0
	C1290.8,1158.3,1289.8,1145.1,1289.1,1137.9z"/>
<path class="st5" d="M1280.6,1133.3c0,0-2.5-9.5,1.8-16.2c4.3-6.8,16.3-13.9,25.9-4.8c0,0,6.2,7.1-3,13.8
	c-9.2,6.7-10.3,0.6-12.5,8.1c-2.1,7.6-8.5,6.3-8.8,7.9L1280.6,1133.3L1280.6,1133.3z"/>
<path class="st21" d="M1230.3,1316.6c0,0,5.5,25.4,1.4,30.4s-12.1-18.5-7-33.3L1230.3,1316.6L1230.3,1316.6z"/>
<path class="st8" d="M1233.5,1319.6c-4-0.4-7.9-0.9-11.8-1.5c10.1-66.2,12.8-85.8,50-141.7c10-15,27.7-4,14.1,14
	C1244.3,1245.7,1251.5,1254.7,1233.5,1319.6L1233.5,1319.6z"/>
<rect x="1262.6" y="1345.9" transform="matrix(8.837289e-02 -0.9961 0.9961 8.837289e-02 -187.9034 2510.5696)" class="st8" width="30.1" height="24"/>
<path class="st8" d="M1336.2,1342.9l2.3,30.1l6.9-0.5c-0.5-10.4-1.1-20.5-1.9-30.1L1336.2,1342.9z"/>
<path class="st8" d="M2305.2,524.7c-16.5,0-29.9-13.4-29.9-29.9c0,16.5-13.4,29.9-29.9,29.9c16.5,0,29.9,13.4,29.9,29.9
	C2275.2,538.1,2288.6,524.7,2305.2,524.7z"/>
<path class="st8" d="M514.4,929c-16.5,0-29.9-13.4-29.9-29.9c0,16.5-13.4,29.9-29.9,29.9c16.5,0,29.9,13.4,29.9,29.9
	C484.4,942.3,497.8,929,514.4,929z"/>
<path class="st8" d="M2989.1,1417.2c-16.5,0-29.9-13.4-29.9-29.9c0,16.5-13.4,29.9-29.9,29.9c16.5,0,29.9,13.4,29.9,29.9
	C2959.2,1430.6,2972.6,1417.2,2989.1,1417.2z"/>
<path class="st8" d="M2343.6,596.8c-9.5,0-17.1-7.7-17.1-17.1c0,9.5-7.7,17.1-17.1,17.1c9.5,0,17.1,7.7,17.1,17.1
	C2326.5,604.5,2334.2,596.8,2343.6,596.8z"/>
<path class="st8" d="M574.4,1006.9c-9.5,0-17.1-7.7-17.1-17.1c0,9.5-7.7,17.1-17.1,17.1c9.5,0,17.1,7.7,17.1,17.1
	C557.3,1014.6,564.9,1006.9,574.4,1006.9z"/>
<path class="st8" d="M1265.6,972.8c-9.5,0-17.1-7.7-17.1-17.1c0,9.5-7.7,17.1-17.1,17.1c9.5,0,17.1,7.7,17.1,17.1
	C1248.5,980.5,1256.1,972.8,1265.6,972.8z"/>
<path class="st6" d="M2650.9,842.9c11.8,0,23.1,1.8,33.7,5.2c27.9-24.7,64.5-39.6,104.7-39.6c42.1,0,80.3,16.4,108.6,43.2
	c13.3-5.7,28-8.8,43.4-8.8c50.6,0,93.2,33.9,106.5,80.3h-503.4C2557.7,876.8,2600.3,842.9,2650.9,842.9L2650.9,842.9z"/>
</svg>
