<?xml version="1.0" encoding="UTF-8"?><svg id="a" xmlns="http://www.w3.org/2000/svg" viewBox="0 0 636.92 113"><defs><style>.b{fill:#f9c926;}.c{fill:#005981;}.d{fill:#ef9f2e;}.e{fill:#e57536;}.f{fill:#fff;}.g{fill:#a9262c;}</style></defs><g><path class="c" d="M204.72,32.76h16.12c10.33,0,18.66,3.69,18.66,15.1s-8.42,15.91-18.37,15.91h-5.8v15.92h-10.61V32.76Zm15.79,22.58c5.83,0,8.59-2.6,8.59-7.49s-3.14-6.67-8.88-6.67h-4.89v14.16h5.17Z"/><path class="c" d="M247.64,32.76h29.41v8.9h-18.8v9.42h16v8.9h-16v10.81h19.52v8.9h-30.13V32.76Z"/><path class="c" d="M284.06,73.77l6.09-7.28c3.34,2.91,7.67,4.9,11.53,4.9,4.43,0,6.6-1.74,6.6-4.53,0-2.96-2.67-3.9-6.77-5.59l-6.1-2.6c-4.86-1.98-9.47-5.97-9.47-12.79,0-7.78,6.95-13.99,16.72-13.99,5.4,0,11.06,2.13,15.1,6.15l-5.36,6.69c-3.09-2.37-6.03-3.68-9.74-3.68s-5.99,1.52-5.99,4.21c0,2.88,3.07,3.92,7.17,5.56l5.98,2.42c5.73,2.32,9.31,6.13,9.31,12.77,0,7.79-6.5,14.55-17.68,14.55-6.11,0-12.6-2.31-17.38-6.79Z"/><path class="c" d="M334.87,41.65h-12.92v-8.9h36.45v8.9h-12.92v38.03h-10.61V41.65Z"/><path class="c" d="M365.72,32.76h10.61v46.93h-10.61V32.76Z"/><path class="c" d="M387.39,32.76h10.61v38.03h18.53v8.9h-29.13V32.76Z"/><path class="c" d="M424.68,32.76h10.61v38.03h18.52v8.9h-29.13V32.76Z"/><path class="c" d="M461.98,32.76h10.61v46.93h-10.61V32.76Z"/><path class="d" d="M499.66,32.76h10.61v38.03h18.52v8.9h-29.13V32.76Z"/><path class="d" d="M545.26,32.76h12.7l14.74,46.93h-11.23l-6.14-23.77c-1.3-4.69-2.56-10.24-3.81-15.14h-.29c-1.14,4.96-2.39,10.44-3.69,15.14l-6.17,23.77h-10.85l14.74-46.93Zm-5.02,27.51h22.58v8.25h-22.58v-8.25Z"/><path class="d" d="M577.21,32.76h16.06c9.74,0,17.31,2.68,17.31,11.64,0,4.21-2.36,8.69-6.18,10.13v.29c4.79,1.25,8.5,4.78,8.5,11.05,0,9.55-8.07,13.83-18.28,13.83h-17.4V32.76Zm15.57,18.8c5.15,0,7.43-2.18,7.43-5.59,0-3.62-2.41-5.02-7.35-5.02h-5.04v10.61h4.96Zm.96,19.95c5.78,0,8.77-2.06,8.77-6.33s-2.94-5.79-8.77-5.79h-5.93v12.12h5.93Z"/></g><g><g><path class="f" d="M113.59,106.68c-5.43,0-11.45-2.29-18.42-7.01-5.52-3.68-12.18-4.89-19.23-6.18-.83-.15-1.66-.3-2.48-.46-3.4-.67-6.83-1.42-10.14-2.16-5.05-1.12-10.27-2.27-15.41-3.1-4.63-.71-8.76-1.09-12.6-1.17-3.33-.09-7.87-.21-11.58-2.87-5.71-3.91-8.35-13.54-7.49-20.2,.2-1.48,.58-2.94,1.16-4.46,6.88-16.79,21.57-37.94,42.2-47.07,9.39-4.11,20.15-5.1,27.42-5.48,2.34-.19,4.79-.19,7.16-.19,9.56,.09,19.35,1.43,29.11,3.96,14.19,4.09,24.4,8.94,32.2,15.27,2.96,2.38,5.67,5.17,8.08,8.27,.92,1.17,1.68,2.32,2.49,3.53l.39,.59c3.2,5.04,6.25,10.52,7.06,16.69,.69,5.22,.12,11.02-1.73,17.73-1.27,4.37-3.04,9.34-6.53,13.37-5.61,6.41-12.29,7.24-17.47,7.24h0c-2.72,0-5.5-.27-8.35-.56-.77-.08-1.51-.28-2.23-.48-.74-.2-1.5-.4-2.02-.4-.08,0-.14,0-.18,.01-.44,.31-1.19,1.65-1.59,2.38-.41,.74-.8,1.43-1.25,2.03-3.87,5-8.75,8.56-13.77,10.05-1.51,.45-3.12,.67-4.78,.67Z"/><path d="M94.17,8.82c9.62,.09,19.23,1.48,28.48,3.88,10.91,3.14,22.38,7.58,31.26,14.8,2.87,2.31,5.46,4.99,7.68,7.86,1.02,1.29,1.85,2.59,2.77,3.98,3.05,4.81,5.92,9.99,6.66,15.63,.74,5.64-.18,11.37-1.66,16.74-1.29,4.44-2.96,8.88-6.01,12.39-4.46,5.1-9.8,6.37-15.59,6.37-2.62,0-5.32-.26-8.09-.55-1.34-.15-3.03-.89-4.51-.89-.36,0-.71,.04-1.04,.15-1.76,.65-2.87,3.79-3.98,5.27-3.14,4.07-7.49,7.68-12.48,9.16-1.33,.39-2.7,.57-4.07,.57-6.07,0-12.34-3.41-17.01-6.58-6.66-4.44-14.8-5.55-22.66-7.03-8.51-1.66-17.02-3.88-25.62-5.27-4.25-.65-8.6-1.11-12.95-1.2-3.51-.09-7.21-.28-10.17-2.4-4.99-3.42-7.21-12.11-6.47-17.85,.18-1.39,.55-2.68,1.02-3.88,7.58-18.49,22.29-37.45,40.87-45.68,8.23-3.61,17.76-4.81,26.54-5.27,2.31-.18,4.72-.18,7.03-.18m.02-5h-.02c-2.39,0-4.87,0-7.36,.2-7.47,.4-18.49,1.42-28.22,5.68-9.39,4.16-18.5,11.18-26.35,20.31-7.06,8.21-12.99,17.91-17.15,28.05l-.02,.05-.02,.05c-.66,1.71-1.08,3.35-1.31,5.02-.97,7.55,1.96,18.04,8.56,22.6,4.33,3.08,9.49,3.22,12.91,3.31,3.75,.08,7.78,.45,12.33,1.15,5.02,.81,10.21,1.96,15.22,3.07,3.33,.74,6.77,1.5,10.19,2.17,.87,.16,1.7,.32,2.54,.47,6.79,1.24,13.2,2.41,18.31,5.81,7.36,4.99,13.84,7.42,19.79,7.42,1.9,0,3.75-.26,5.48-.77,5.53-1.64,10.86-5.51,15.03-10.89l.02-.03,.02-.03c.55-.74,1-1.54,1.43-2.32,.14-.26,.33-.59,.51-.9,.16,.04,.31,.08,.44,.12,.77,.21,1.64,.44,2.58,.55,2.95,.31,5.79,.58,8.64,.58,5.27,0,13.01-.84,19.35-8.08,3.82-4.4,5.71-9.69,7.05-14.28v-.04l.02-.04c1.94-7.04,2.53-13.16,1.8-18.72-.87-6.65-4.07-12.42-7.39-17.66l-.03-.05-.03-.05-.39-.58c-.8-1.2-1.62-2.44-2.61-3.71-2.5-3.23-5.36-6.15-8.47-8.66-8.06-6.55-18.55-11.54-33.01-15.71l-.06-.02-.06-.02c-9.96-2.59-19.95-3.95-29.69-4.04h-.02Z"/></g><g><path class="b" d="M169.52,71.05l-34.31-2.61L103.12,9.29c-2.98-.27-5.96-.44-8.95-.47-2.31,0-4.72,0-7.03,.18-4.71,.25-9.62,.72-14.44,1.65l56.83,64.04,37.7,3.01c.85-1.95,1.53-3.98,2.12-6.01,.06-.22,.11-.44,.17-.66Z"/><path class="e" d="M71.21,10.96c-3.66,.78-7.24,1.84-10.61,3.32-3.66,1.62-7.16,3.66-10.5,6.03l73.26,61.42,38.13,4.2c.63-.55,1.25-1.15,1.85-1.83,1.43-1.64,2.54-3.49,3.47-5.45l-37.94-3.32L71.21,10.96Z"/><path class="g" d="M49.22,20.94c-6.35,4.66-12.05,10.52-16.91,16.96l85.25,50.45,14.96,2.21c.48-.64,1-1.16,1.61-1.39,1.66-.55,3.88,.55,5.55,.74,7.79,.81,15.15,1.41,21.21-3.45l-38.26-4.14L49.22,20.94Z"/><path class="c" d="M31.65,38.79c-4.63,6.28-8.47,13.08-11.37,19.86l91.43,35.89,16.14,2.55c.82-.84,1.59-1.72,2.29-2.63,.63-.84,1.26-2.21,2-3.36l-15.13-2.26L31.65,38.79Z"/></g></g></svg>