<?xml version="1.0" encoding="UTF-8"?><svg id="a" xmlns="http://www.w3.org/2000/svg" viewBox="0 0 166.71 108.97"><defs><style>.b{fill:#f9c926;}.c{fill:#005981;}.d{fill:#e57536;}.e{fill:#fff;}.f{fill:#a9262c;}</style></defs><g><path class="e" d="M102.02,104.66c-5.43,0-11.45-2.29-18.42-7.01-5.52-3.68-12.18-4.89-19.23-6.18-.83-.15-1.66-.3-2.48-.46-3.4-.67-6.83-1.42-10.15-2.16-5.05-1.12-10.26-2.27-15.4-3.1-4.64-.71-8.77-1.09-12.6-1.17-3.33-.09-7.87-.21-11.58-2.87-5.71-3.91-8.35-13.54-7.49-20.2,.2-1.48,.58-2.94,1.16-4.46C12.71,40.25,27.39,19.11,48.02,9.98c9.39-4.11,20.15-5.1,27.42-5.48,2.34-.19,4.79-.19,7.16-.19,9.56,.09,19.35,1.43,29.11,3.96,14.19,4.09,24.4,8.94,32.2,15.28,2.95,2.38,5.67,5.16,8.08,8.27,.92,1.17,1.68,2.32,2.49,3.53l.39,.59c3.2,5.04,6.25,10.52,7.06,16.69,.68,5.22,.12,11.02-1.73,17.73-1.27,4.37-3.04,9.34-6.53,13.37-5.61,6.41-12.29,7.24-17.47,7.24h0c-2.72,0-5.5-.27-8.35-.56-.77-.08-1.51-.28-2.23-.48-.74-.2-1.5-.4-2.02-.4-.08,0-.14,0-.18,.01-.44,.31-1.18,1.65-1.59,2.38-.41,.74-.8,1.43-1.25,2.03-3.87,5-8.75,8.56-13.77,10.05-1.51,.45-3.12,.67-4.78,.67Z"/><path d="M82.6,6.81c9.62,.09,19.23,1.48,28.48,3.88,10.91,3.14,22.38,7.58,31.26,14.8,2.87,2.31,5.46,4.99,7.68,7.86,1.02,1.29,1.85,2.59,2.77,3.98,3.05,4.81,5.92,9.99,6.66,15.63,.74,5.64-.18,11.37-1.66,16.74-1.29,4.44-2.96,8.88-6.01,12.39-4.46,5.1-9.8,6.37-15.59,6.37-2.62,0-5.32-.26-8.09-.55-1.34-.15-3.03-.89-4.51-.89-.36,0-.71,.04-1.04,.15-1.76,.65-2.87,3.79-3.98,5.27-3.14,4.07-7.49,7.68-12.48,9.16-1.33,.39-2.7,.57-4.07,.57-6.07,0-12.34-3.41-17.01-6.58-6.66-4.44-14.8-5.55-22.66-7.03-8.51-1.66-17.02-3.88-25.62-5.27-4.25-.65-8.6-1.11-12.95-1.2-3.51-.09-7.21-.28-10.17-2.4-4.99-3.42-7.21-12.11-6.47-17.85,.18-1.39,.55-2.68,1.02-3.88C15.74,39.45,30.45,20.49,49.03,12.26c8.23-3.61,17.76-4.81,26.54-5.27,2.31-.18,4.72-.18,7.03-.18m.02-5h-.02c-2.39,0-4.87,0-7.36,.2-7.47,.4-18.49,1.42-28.22,5.68-9.39,4.16-18.5,11.18-26.35,20.31-7.06,8.21-12.99,17.91-17.15,28.05l-.02,.05-.02,.05c-.66,1.71-1.08,3.35-1.31,5.02-.97,7.55,1.96,18.04,8.56,22.6,4.33,3.08,9.49,3.22,12.91,3.31,3.75,.08,7.78,.45,12.33,1.15,5.02,.81,10.21,1.96,15.22,3.07,3.33,.74,6.77,1.5,10.19,2.17,.87,.16,1.7,.32,2.54,.47,6.79,1.24,13.2,2.41,18.31,5.81,7.36,4.99,13.84,7.42,19.79,7.42,1.9,0,3.75-.26,5.48-.77,5.53-1.64,10.86-5.51,15.03-10.89l.02-.03,.02-.03c.55-.74,1-1.54,1.43-2.32,.14-.26,.33-.59,.51-.9,.16,.04,.31,.08,.44,.12,.77,.21,1.64,.44,2.58,.55,2.95,.31,5.79,.58,8.64,.58,5.27,0,13.01-.84,19.35-8.08,3.82-4.4,5.71-9.69,7.05-14.28v-.04l.02-.04c1.94-7.04,2.53-13.16,1.8-18.72-.87-6.65-4.07-12.42-7.39-17.66l-.03-.05-.03-.05-.39-.58c-.8-1.2-1.62-2.44-2.61-3.71-2.5-3.23-5.36-6.15-8.47-8.66-8.06-6.55-18.55-11.54-33.01-15.71l-.06-.02-.06-.02c-9.96-2.59-19.95-3.95-29.69-4.04h-.02Z"/></g><g><path class="b" d="M157.95,69.03l-34.31-2.61L91.55,7.27c-2.98-.27-5.96-.44-8.95-.47-2.31,0-4.72,0-7.03,.18-4.71,.25-9.62,.72-14.44,1.65l56.83,64.04,37.7,3.01c.85-1.95,1.53-3.98,2.12-6.01,.06-.22,.11-.44,.17-.66Z"/><path class="d" d="M59.64,8.95c-3.66,.78-7.24,1.84-10.61,3.32-3.66,1.62-7.16,3.66-10.5,6.03l73.26,61.42,38.13,4.2c.63-.55,1.25-1.15,1.85-1.83,1.43-1.64,2.54-3.49,3.47-5.45l-37.94-3.32L59.64,8.95Z"/><path class="f" d="M37.65,18.93c-6.35,4.66-12.05,10.52-16.91,16.96l85.25,50.45,14.96,2.21c.48-.64,1-1.16,1.61-1.39,1.66-.55,3.88,.55,5.55,.74,7.79,.81,15.15,1.41,21.21-3.45l-38.26-4.14L37.65,18.93Z"/><path class="c" d="M20.08,36.78c-4.63,6.28-8.47,13.08-11.37,19.86l91.43,35.89,16.14,2.55c.82-.84,1.59-1.72,2.29-2.63,.63-.84,1.26-2.21,2-3.36l-15.13-2.26L20.08,36.78Z"/></g></svg>