<?xml version="1.0" encoding="utf-8"?>
<!-- Generator: Adobe Illustrator 26.3.1, SVG Export Plug-In . SVG Version: 6.00 Build 0)  -->
<svg version="1.1" id="logo" xmlns:svg="http://www.w3.org/2000/svg"
	 xmlns="http://www.w3.org/2000/svg" xmlns:xlink="http://www.w3.org/1999/xlink" x="0px" y="0px" viewBox="0 0 166.7 109"
	 style="enable-background:new 0 0 166.7 109;" xml:space="preserve">
<style type="text/css">
	.st0{fill:#005981;}
	.st1{fill:#EF9F2E;}
	.st2{fill:#FFFFFF;}
	.st3{fill:#F9C926;}
	.st4{fill:#E57536;}
	.st5{fill:#A9262C;}
</style>
<g>
	<path class="st0" d="M204.7-83.6h16.1c10.3,0,18.7,3.7,18.7,15.1c0,11-8.4,15.9-18.4,15.9h-5.8v15.9h-10.6V-83.6z M220.5-61
		c5.8,0,8.6-2.6,8.6-7.5c0-4.9-3.1-6.7-8.9-6.7h-4.9V-61H220.5z"/>
	<path class="st0" d="M247.6-83.6H277v8.9h-18.8v9.4h16v8.9h-16v10.8h19.5v8.9h-30.1V-83.6z"/>
	<path class="st0" d="M284.1-42.6l6.1-7.3c3.3,2.9,7.7,4.9,11.5,4.9c4.4,0,6.6-1.7,6.6-4.5c0-3-2.7-3.9-6.8-5.6l-6.1-2.6
		c-4.9-2-9.5-6-9.5-12.8c0-7.8,6.9-14,16.7-14c5.4,0,11.1,2.1,15.1,6.2l-5.4,6.7c-3.1-2.4-6-3.7-9.7-3.7c-3.7,0-6,1.5-6,4.2
		c0,2.9,3.1,3.9,7.2,5.6l6,2.4c5.7,2.3,9.3,6.1,9.3,12.8c0,7.8-6.5,14.5-17.7,14.5C295.3-35.8,288.8-38.1,284.1-42.6z"/>
	<path class="st0" d="M334.9-74.7h-12.9v-8.9h36.4v8.9h-12.9v38h-10.6V-74.7z"/>
	<path class="st0" d="M365.7-83.6h10.6v46.9h-10.6V-83.6z"/>
	<path class="st0" d="M387.4-83.6H398v38h18.5v8.9h-29.1V-83.6z"/>
	<path class="st0" d="M424.7-83.6h10.6v38h18.5v8.9h-29.1V-83.6z"/>
	<path class="st0" d="M462-83.6h10.6v46.9H462V-83.6z"/>
	<path class="st1" d="M499.7-83.6h10.6v38h18.5v8.9h-29.1V-83.6z"/>
	<path class="st1" d="M545.3-83.6H558l14.7,46.9h-11.2l-6.1-23.8c-1.3-4.7-2.6-10.2-3.8-15.1h-0.3c-1.1,5-2.4,10.4-3.7,15.1
		l-6.2,23.8h-10.8L545.3-83.6z M540.2-56.1h22.6v8.2h-22.6V-56.1z"/>
	<path class="st1" d="M577.2-83.6h16.1c9.7,0,17.3,2.7,17.3,11.6c0,4.2-2.4,8.7-6.2,10.1v0.3c4.8,1.2,8.5,4.8,8.5,11
		c0,9.5-8.1,13.8-18.3,13.8h-17.4V-83.6z M592.8-64.8c5.1,0,7.4-2.2,7.4-5.6c0-3.6-2.4-5-7.3-5h-5v10.6H592.8z M593.7-44.8
		c5.8,0,8.8-2.1,8.8-6.3c0-4.1-2.9-5.8-8.8-5.8h-5.9v12.1H593.7z"/>
</g>
<g>
	<g>
		<path class="st2" d="M113.6-9.7c-5.4,0-11.5-2.3-18.4-7c-5.5-3.7-12.2-4.9-19.2-6.2c-0.8-0.2-1.7-0.3-2.5-0.5
			c-3.4-0.7-6.8-1.4-10.1-2.2c-5-1.1-10.3-2.3-15.4-3.1c-4.6-0.7-8.8-1.1-12.6-1.2c-3.3-0.1-7.9-0.2-11.6-2.9
			c-5.7-3.9-8.4-13.5-7.5-20.2c0.2-1.5,0.6-2.9,1.2-4.5c6.9-16.8,21.6-37.9,42.2-47.1c9.4-4.1,20.1-5.1,27.4-5.5
			c2.3-0.2,4.8-0.2,7.2-0.2c9.6,0.1,19.3,1.4,29.1,4c14.2,4.1,24.4,8.9,32.2,15.3c3,2.4,5.7,5.2,8.1,8.3c0.9,1.2,1.7,2.3,2.5,3.5
			l0.4,0.6c3.2,5,6.2,10.5,7.1,16.7c0.7,5.2,0.1,11-1.7,17.7c-1.3,4.4-3,9.3-6.5,13.4c-5.6,6.4-12.3,7.2-17.5,7.2c0,0,0,0,0,0
			c-2.7,0-5.5-0.3-8.3-0.6c-0.8-0.1-1.5-0.3-2.2-0.5c-0.7-0.2-1.5-0.4-2-0.4c-0.1,0-0.1,0-0.2,0c-0.4,0.3-1.2,1.7-1.6,2.4
			c-0.4,0.7-0.8,1.4-1.2,2c-3.9,5-8.8,8.6-13.8,10.1C116.9-9.9,115.3-9.7,113.6-9.7z"/>
		<path d="M94.2-107.5c9.6,0.1,19.2,1.5,28.5,3.9c10.9,3.1,22.4,7.6,31.3,14.8c2.9,2.3,5.5,5,7.7,7.9c1,1.3,1.8,2.6,2.8,4
			c3.1,4.8,5.9,10,6.7,15.6c0.7,5.6-0.2,11.4-1.7,16.7c-1.3,4.4-3,8.9-6,12.4c-4.5,5.1-9.8,6.4-15.6,6.4c-2.6,0-5.3-0.3-8.1-0.5
			c-1.3-0.1-3-0.9-4.5-0.9c-0.4,0-0.7,0-1,0.2c-1.8,0.6-2.9,3.8-4,5.3c-3.1,4.1-7.5,7.7-12.5,9.2c-1.3,0.4-2.7,0.6-4.1,0.6
			c-6.1,0-12.3-3.4-17-6.6c-6.7-4.4-14.8-5.5-22.7-7c-8.5-1.7-17-3.9-25.6-5.3c-4.3-0.6-8.6-1.1-12.9-1.2c-3.5-0.1-7.2-0.3-10.2-2.4
			c-5-3.4-7.2-12.1-6.5-17.8c0.2-1.4,0.6-2.7,1-3.9c7.6-18.5,22.3-37.5,40.9-45.7c8.2-3.6,17.8-4.8,26.5-5.3
			C89.5-107.5,91.9-107.5,94.2-107.5 M94.2-112.5L94.2-112.5c-2.4,0-4.9,0-7.4,0.2c-7.5,0.4-18.5,1.4-28.2,5.7
			c-9.4,4.2-18.5,11.2-26.3,20.3c-7.1,8.2-13,17.9-17.1,28.1l0,0.1l0,0.1c-0.7,1.7-1.1,3.3-1.3,5c-1,7.6,2,18,8.6,22.6
			c4.3,3.1,9.5,3.2,12.9,3.3c3.8,0.1,7.8,0.5,12.3,1.1c5,0.8,10.2,2,15.2,3.1c3.3,0.7,6.8,1.5,10.2,2.2c0.9,0.2,1.7,0.3,2.5,0.5
			c6.8,1.2,13.2,2.4,18.3,5.8c7.4,5,13.8,7.4,19.8,7.4c1.9,0,3.7-0.3,5.5-0.8c5.5-1.6,10.9-5.5,15-10.9l0,0l0,0
			c0.6-0.7,1-1.5,1.4-2.3c0.1-0.3,0.3-0.6,0.5-0.9c0.2,0,0.3,0.1,0.4,0.1c0.8,0.2,1.6,0.4,2.6,0.5c2.9,0.3,5.8,0.6,8.6,0.6
			c5.3,0,13-0.8,19.3-8.1c3.8-4.4,5.7-9.7,7-14.3l0,0l0,0c1.9-7,2.5-13.2,1.8-18.7c-0.9-6.7-4.1-12.4-7.4-17.7l0,0l0,0l-0.4-0.6
			c-0.8-1.2-1.6-2.4-2.6-3.7c-2.5-3.2-5.4-6.2-8.5-8.7c-8.1-6.5-18.6-11.5-33-15.7l-0.1,0l-0.1,0C113.9-111.1,104-112.4,94.2-112.5
			L94.2-112.5L94.2-112.5z"/>
	</g>
	<g>
		<path class="st3" d="M169.5-45.3l-34.3-2.6l-32.1-59.2c-3-0.3-6-0.4-8.9-0.5c-2.3,0-4.7,0-7,0.2c-4.7,0.2-9.6,0.7-14.4,1.7
			l56.8,64l37.7,3c0.8-1.9,1.5-4,2.1-6C169.4-44.9,169.5-45.1,169.5-45.3z"/>
		<path class="st4" d="M71.2-105.4c-3.7,0.8-7.2,1.8-10.6,3.3c-3.7,1.6-7.2,3.7-10.5,6l73.3,61.4l38.1,4.2c0.6-0.6,1.2-1.1,1.8-1.8
			c1.4-1.6,2.5-3.5,3.5-5.4L128.9-41L71.2-105.4z"/>
		<path class="st5" d="M49.2-95.4c-6.4,4.7-12,10.5-16.9,17L117.6-28l15,2.2c0.5-0.6,1-1.2,1.6-1.4c1.7-0.6,3.9,0.6,5.5,0.7
			c7.8,0.8,15.1,1.4,21.2-3.5L122.6-34L49.2-95.4z"/>
		<path class="st0" d="M31.7-77.5c-4.6,6.3-8.5,13.1-11.4,19.9l91.4,35.9l16.1,2.5c0.8-0.8,1.6-1.7,2.3-2.6c0.6-0.8,1.3-2.2,2-3.4
			L117-27.5L31.7-77.5z"/>
	</g>
</g>
<g>
	<g>
		<path class="st2" d="M102,104.7c-5.4,0-11.5-2.3-18.4-7c-5.5-3.7-12.2-4.9-19.2-6.2c-0.8-0.2-1.7-0.3-2.5-0.5
			c-3.4-0.7-6.8-1.4-10.1-2.2c-5-1.1-10.3-2.3-15.4-3.1c-4.6-0.7-8.8-1.1-12.6-1.2c-3.3-0.1-7.9-0.2-11.6-2.9
			c-5.7-3.9-8.4-13.5-7.5-20.2C4.9,60,5.2,58.6,5.8,57C12.7,40.3,27.4,19.1,48,10c9.4-4.1,20.1-5.1,27.4-5.5
			c2.3-0.2,4.8-0.2,7.2-0.2c9.6,0.1,19.3,1.4,29.1,4c14.2,4.1,24.4,8.9,32.2,15.3c3,2.4,5.7,5.2,8.1,8.3c0.9,1.2,1.7,2.3,2.5,3.5
			l0.4,0.6c3.2,5,6.2,10.5,7.1,16.7c0.7,5.2,0.1,11-1.7,17.7c-1.3,4.4-3,9.3-6.5,13.4c-5.6,6.4-12.3,7.2-17.5,7.2c0,0,0,0,0,0
			c-2.7,0-5.5-0.3-8.3-0.6c-0.8-0.1-1.5-0.3-2.2-0.5c-0.7-0.2-1.5-0.4-2-0.4c-0.1,0-0.1,0-0.2,0c-0.4,0.3-1.2,1.6-1.6,2.4
			c-0.4,0.7-0.8,1.4-1.2,2c-3.9,5-8.8,8.6-13.8,10.1C105.3,104.4,103.7,104.7,102,104.7z"/>
		<path d="M82.6,6.8c9.6,0.1,19.2,1.5,28.5,3.9c10.9,3.1,22.4,7.6,31.3,14.8c2.9,2.3,5.5,5,7.7,7.9c1,1.3,1.8,2.6,2.8,4
			c3.1,4.8,5.9,10,6.7,15.6c0.7,5.6-0.2,11.4-1.7,16.7c-1.3,4.4-3,8.9-6,12.4c-4.5,5.1-9.8,6.4-15.6,6.4c-2.6,0-5.3-0.3-8.1-0.5
			c-1.3-0.1-3-0.9-4.5-0.9c-0.4,0-0.7,0-1,0.2c-1.8,0.6-2.9,3.8-4,5.3c-3.1,4.1-7.5,7.7-12.5,9.2c-1.3,0.4-2.7,0.6-4.1,0.6
			c-6.1,0-12.3-3.4-17-6.6c-6.7-4.4-14.8-5.5-22.7-7c-8.5-1.7-17-3.9-25.6-5.3c-4.3-0.6-8.6-1.1-12.9-1.2c-3.5-0.1-7.2-0.3-10.2-2.4
			c-5-3.4-7.2-12.1-6.5-17.8c0.2-1.4,0.6-2.7,1-3.9C15.7,39.4,30.4,20.5,49,12.3C57.3,8.7,66.8,7.5,75.6,7
			C77.9,6.8,80.3,6.8,82.6,6.8 M82.6,1.8L82.6,1.8c-2.4,0-4.9,0-7.4,0.2C67.8,2.4,56.8,3.4,47,7.7C37.6,11.8,28.5,18.9,20.7,28
			C13.6,36.2,7.7,45.9,3.5,56l0,0.1l0,0.1c-0.7,1.7-1.1,3.3-1.3,5c-1,7.6,2,18,8.6,22.6c4.3,3.1,9.5,3.2,12.9,3.3
			c3.8,0.1,7.8,0.5,12.3,1.1c5,0.8,10.2,2,15.2,3.1c3.3,0.7,6.8,1.5,10.2,2.2c0.9,0.2,1.7,0.3,2.5,0.5c6.8,1.2,13.2,2.4,18.3,5.8
			c7.4,5,13.8,7.4,19.8,7.4c1.9,0,3.7-0.3,5.5-0.8c5.5-1.6,10.9-5.5,15-10.9l0,0l0,0c0.6-0.7,1-1.5,1.4-2.3c0.1-0.3,0.3-0.6,0.5-0.9
			c0.2,0,0.3,0.1,0.4,0.1c0.8,0.2,1.6,0.4,2.6,0.5c2.9,0.3,5.8,0.6,8.6,0.6c5.3,0,13-0.8,19.3-8.1c3.8-4.4,5.7-9.7,7-14.3l0,0l0,0
			c1.9-7,2.5-13.2,1.8-18.7c-0.9-6.7-4.1-12.4-7.4-17.7l0,0l0,0l-0.4-0.6c-0.8-1.2-1.6-2.4-2.6-3.7c-2.5-3.2-5.4-6.2-8.5-8.7
			c-8.1-6.5-18.6-11.5-33-15.7l-0.1,0l-0.1,0C102.4,3.3,92.4,1.9,82.6,1.8L82.6,1.8L82.6,1.8z"/>
	</g>
	<g>
		<path class="st3" d="M158,69l-34.3-2.6L91.5,7.3c-3-0.3-6-0.4-8.9-0.5c-2.3,0-4.7,0-7,0.2c-4.7,0.2-9.6,0.7-14.4,1.7l56.8,64
			l37.7,3c0.8-1.9,1.5-4,2.1-6C157.8,69.5,157.9,69.3,158,69z"/>
		<path class="st4" d="M59.6,8.9C56,9.7,52.4,10.8,49,12.3c-3.7,1.6-7.2,3.7-10.5,6l73.3,61.4l38.1,4.2c0.6-0.6,1.2-1.1,1.8-1.8
			c1.4-1.6,2.5-3.5,3.5-5.4l-37.9-3.3L59.6,8.9z"/>
		<path class="st5" d="M37.6,18.9c-6.4,4.7-12,10.5-16.9,17L106,86.3l15,2.2c0.5-0.6,1-1.2,1.6-1.4c1.7-0.6,3.9,0.6,5.5,0.7
			c7.8,0.8,15.1,1.4,21.2-3.5L111,80.3L37.6,18.9z"/>
		<path class="st0" d="M20.1,36.8c-4.6,6.3-8.5,13.1-11.4,19.9l91.4,35.9l16.1,2.5c0.8-0.8,1.6-1.7,2.3-2.6c0.6-0.8,1.3-2.2,2-3.4
			l-15.1-2.3L20.1,36.8z"/>
	</g>
</g>
</svg>
