<?xml version="1.0" encoding="UTF-8"?><svg id="a" xmlns="http://www.w3.org/2000/svg" viewBox="0 0 3156.75 1849.89"><defs><style>

:root {
  --blue: #005981;
  --yellow: #f9c926;
  --orange: #e57536;
  --red: #a9262c;
}

.b{stroke:#383e56;stroke-width:5px;}
.b,.c,.d{fill:none;stroke-miterlimit:10;}
.e{fill:#D89C9F;}
.f{fill:#D89C9F;}
.g{fill:#fff;}
.h{fill:#D89C9F;}
.i{fill:#D89C9F;}
.j{fill:#F3C0A4;}
.k{fill:#e57536;}
.l{fill: var(--blue); filter: brightness(1.5);}
.m{fill:#e4e0de;}
.n{fill:#6c7080;}
.o{fill:#b8bac1;}
.q,.r{fill:#2E7798;}
.s{fill:#b6b8c0;}
.t{fill:#b7aea9;}
.u{fill:#e57536;}
.v{fill:#c0d4db;}
.w{fill:#d2e0e6;}
.x{fill:#e57536;}
.y{fill: #888;}
.z{fill:#c7d9e0;}
.aa{fill:#d5e3e8;}
.ab{fill:#a29394;}
.ac{fill:#EA8E5B;}
.ad{fill:#2d334a;}
.ae{fill:#383e56;}
.af{fill:#3b3e54;}
.ag{fill:#616677;}
.ah{fill:#54576a;}
.ai{fill:#4686A3;}
.c{stroke:#D89C9F;}
.p{fill:#005981;}
.d{stroke:#005981;}
.c,.d{stroke-width:4.6px;}
.r{opacity:.38;}

</style></defs><path class="l" d="M2398.56,559.2c-71.58,0-140.82,9.93-206.46,28.44-168.78-217.32-432.57-357.21-729.06-357.21-439.77,0-807.61,307.68-900.12,719.49-12.09-2.53-24.61-3.88-37.46-3.88-100.37,0-181.73,81.36-181.73,181.73,0,12.47,1.26,24.64,3.65,36.41-169.48,43.56-301.41,180.68-337.52,353.02-6.45,30.8-9.87,62.71-9.87,95.42,0,86.73,23.85,167.88,65.34,237.27H2938.26c90.07-91.29,157.16-205.32,191.87-332.69,17.35-63.66,26.62-130.65,26.62-199.81,0-418.74-339.45-758.19-758.19-758.19Z"/><path class="m" d="M1922.88,671.01c.96-.99,1.03-2.12,.78-3.33-.55-2.7-2.47-4.72-11.69-3.61-3.31,.4-7.04,1.49-10.46,2.73-4.98,1.81-10.43,2.74-15.94,2.74h-1.88c-.17-7.32-1.3-14.4-3.26-21.13l1.8-.59c5.24-1.7,10.71-2.5,16.01-2.32,3.64,.12,7.52,.01,10.79-.63,9.11-1.79,10.31-4.3,10-7.05-.14-1.22-.55-2.28-1.77-2.92-.5-.26-.69-.86-.45-1.37,.61-1.24,.32-2.34-.28-3.41-1.36-2.4-3.81-3.73-12.23,.18-3.02,1.4-6.23,3.59-9.1,5.83-4.18,3.26-9.07,5.83-14.31,7.53l-1.79,.58c-2.4-6.81-5.66-13.2-9.67-19.05l1.58-1.15c4.46-3.24,9.41-5.68,14.51-7.15,3.5-1.01,7.15-2.31,10.06-3.94,8.11-4.52,8.47-7.28,7.33-9.79-.51-1.12-1.23-2-2.59-2.23-.56-.1-.93-.6-.85-1.16,.2-1.36-.42-2.32-1.32-3.15-2.04-1.86-4.77-2.37-11.58,3.95-2.44,2.27-4.82,5.34-6.85,8.36-2.97,4.39-6.83,8.35-11.28,11.59l-1.58,1.15c-4.35-5.67-9.42-10.75-15.08-15.11l1.19-1.64c3.24-4.46,7.19-8.31,11.59-11.28,3.01-2.04,6.09-4.41,8.36-6.85,6.31-6.81,5.81-9.54,3.95-11.58-.83-.9-1.79-1.52-3.15-1.32-.56,.08-1.07-.29-1.16-.85-.23-1.36-1.11-2.08-2.23-2.59-2.51-1.14-5.27-.78-9.79,7.33-1.62,2.91-2.93,6.57-3.94,10.06-1.47,5.09-3.91,10.05-7.15,14.51l-1.19,1.63c-5.83-4.01-12.2-7.29-18.99-9.7l.65-1.99c1.7-5.24,4.27-10.13,7.53-14.31,2.24-2.87,4.43-6.08,5.83-9.1,3.9-8.42,2.58-10.87,.18-12.23-1.07-.6-2.17-.89-3.41-.28-.51,.25-1.1,.06-1.37-.44-.64-1.22-1.7-1.63-2.92-1.77-2.74-.31-5.25,.89-7.05,10-.64,3.27-.76,7.15-.63,10.79,.18,5.3-.62,10.76-2.32,16.01l-.65,1.99c-6.69-1.98-13.74-3.13-21.03-3.32v-2.21c0-5.51,.93-10.95,2.74-15.94,1.24-3.42,2.33-7.15,2.73-10.46,1.11-9.22-.91-11.13-3.61-11.69-1.2-.25-2.34-.18-3.33,.78-.41,.39-1.03,.39-1.44,0-.99-.96-2.12-1.03-3.33-.78-2.7,.55-4.72,2.47-3.61,11.69,.4,3.31,1.49,7.04,2.73,10.46,1.81,4.98,2.74,10.43,2.74,15.94v2.21c-7.28,.19-14.32,1.34-21,3.31l-.71-2.18c-1.7-5.24-2.5-10.71-2.32-16.01,.12-3.64,.01-7.52-.63-10.79-1.79-9.11-4.3-10.31-7.05-10-1.22,.14-2.28,.55-2.92,1.77-.26,.5-.86,.69-1.37,.44-1.24-.61-2.34-.32-3.41,.28-2.4,1.36-3.73,3.81,.18,12.23,1.4,3.02,3.59,6.23,5.83,9.1,3.26,4.18,5.83,9.07,7.53,14.31l.71,2.18c-6.76,2.4-13.11,5.65-18.92,9.64l-1.4-1.93c-3.24-4.46-5.68-9.41-7.15-14.51-1.01-3.5-2.31-7.15-3.94-10.06-4.52-8.11-7.28-8.47-9.79-7.33-1.12,.51-2,1.23-2.23,2.59-.1,.56-.6,.93-1.16,.85-1.36-.2-2.32,.42-3.15,1.32-1.86,2.04-2.37,4.77,3.95,11.58,2.27,2.44,5.34,4.82,8.36,6.85,4.39,2.97,8.35,6.83,11.59,11.28l1.4,1.93c-5.63,4.32-10.68,9.36-15.01,14.98l-1.99-1.45c-4.46-3.24-8.31-7.19-11.28-11.59-2.04-3.01-4.41-6.09-6.85-8.36-6.81-6.31-9.54-5.81-11.58-3.95-.91,.83-1.52,1.79-1.32,3.15,.08,.56-.29,1.07-.85,1.16-1.36,.24-2.08,1.11-2.59,2.23-1.14,2.51-.78,5.27,7.33,9.79,2.91,1.62,6.57,2.93,10.06,3.94,5.09,1.47,10.05,3.91,14.51,7.15l1.98,1.44c-4,5.79-7.27,12.12-9.68,18.86l-2.36-.77c-5.24-1.7-10.13-4.27-14.31-7.53-2.87-2.24-6.08-4.43-9.1-5.83-8.42-3.9-10.87-2.58-12.23-.18-.6,1.07-.89,2.17-.28,3.41,.25,.51,.06,1.1-.44,1.37-1.22,.64-1.63,1.7-1.77,2.92-.31,2.74,.89,5.25,10,7.05,3.27,.64,7.15,.76,10.79,.63,5.3-.18,10.76,.62,16.01,2.32l2.35,.76c-1.99,6.66-3.15,13.67-3.37,20.92h-2.52c-5.51,0-10.95-.93-15.94-2.74-3.42-1.24-7.15-2.33-10.46-2.73-9.22-1.11-11.13,.91-11.69,3.61-.24,1.2-.18,2.34,.78,3.33,.39,.41,.39,1.03,0,1.44-.96,.99-1.03,2.12-.78,3.33,.55,2.7,2.47,4.72,11.69,3.61,3.31-.4,7.04-1.49,10.46-2.73,4.98-1.81,10.43-2.74,15.94-2.74h2.5c.16,7.25,1.27,14.27,3.2,20.94l-2.36,.77c-5.24,1.7-10.71,2.5-16.01,2.32-3.64-.12-7.52-.01-10.79,.63-9.11,1.79-10.31,4.3-10,7.05,.14,1.22,.55,2.28,1.77,2.92,.5,.26,.69,.86,.44,1.37-.61,1.24-.32,2.34,.28,3.41,1.36,2.4,3.81,3.73,12.23-.18,3.02-1.4,6.23-3.59,9.1-5.83,4.18-3.26,9.07-5.83,14.31-7.53l2.34-.76c2.36,6.76,5.58,13.12,9.53,18.94l-1.98,1.44c-4.46,3.24-9.41,5.68-14.51,7.15-3.5,1.01-7.15,2.31-10.06,3.94-8.11,4.52-8.47,7.28-7.33,9.79,.51,1.12,1.23,2,2.59,2.23,.56,.1,.93,.6,.85,1.16-.2,1.36,.42,2.32,1.32,3.15,2.04,1.86,4.77,2.37,11.58-3.95,2.44-2.27,4.82-5.34,6.85-8.36,2.97-4.39,6.83-8.35,11.28-11.59l1.96-1.43c4.29,5.65,9.31,10.73,14.9,15.1l-1.4,1.93c-3.24,4.46-7.19,8.31-11.59,11.28-3.01,2.04-6.09,4.41-8.36,6.85-6.31,6.81-5.81,9.54-3.95,11.58,.83,.9,1.79,1.52,3.15,1.32,.56-.08,1.07,.29,1.16,.85,.24,1.36,1.11,2.08,2.23,2.59,2.51,1.14,5.27,.78,9.79-7.33,1.62-2.91,2.93-6.57,3.94-10.06,1.47-5.09,3.91-10.05,7.15-14.51l1.38-1.9c5.78,4.04,12.11,7.35,18.85,9.8l-.7,2.17c-1.7,5.24-4.27,10.13-7.53,14.31-2.24,2.87-4.43,6.08-5.83,9.1-3.9,8.42-2.58,10.87-.18,12.23,1.07,.6,2.17,.89,3.41,.28,.51-.25,1.1-.06,1.37,.44,.64,1.22,1.7,1.63,2.92,1.77,2.74,.31,5.25-.89,7.05-10,.64-3.27,.76-7.15,.63-10.79-.18-5.3,.62-10.76,2.32-16.01l.69-2.14c6.67,2.03,13.71,3.22,20.99,3.46v2.21c0,5.51-.93,10.95-2.74,15.94-1.24,3.42-2.33,7.15-2.73,10.46-1.11,9.22,.91,11.13,3.61,11.69,1.2,.25,2.34,.18,3.33-.78,.41-.39,1.03-.39,1.44,0,.99,.96,2.12,1.03,3.33,.78,2.7-.55,4.72-2.47,3.61-11.69-.4-3.31-1.49-7.04-2.73-10.46-1.81-4.98-2.74-10.43-2.74-15.94v-2.17c7.3-.14,14.36-1.23,21.07-3.15l.64,1.98c1.7,5.24,2.5,10.71,2.32,16.01-.12,3.64-.01,7.52,.63,10.79,1.79,9.11,4.3,10.31,7.05,10,1.22-.14,2.28-.55,2.92-1.77,.26-.5,.86-.69,1.37-.44,1.24,.61,2.34,.32,3.41-.28,2.4-1.36,3.73-3.81-.18-12.23-1.4-3.02-3.59-6.23-5.83-9.1-3.26-4.18-5.83-9.07-7.53-14.31l-.64-1.96c6.81-2.36,13.21-5.59,19.07-9.56l1.18,1.63c3.24,4.46,5.68,9.41,7.15,14.51,1.01,3.5,2.31,7.15,3.94,10.06,4.52,8.11,7.28,8.47,9.79,7.33,1.12-.51,2-1.23,2.23-2.59,.1-.56,.6-.93,1.16-.85,1.36,.2,2.32-.42,3.15-1.32,1.86-2.04,2.37-4.77-3.95-11.58-2.27-2.44-5.34-4.82-8.36-6.85-4.39-2.97-8.35-6.83-11.59-11.28l-1.17-1.61c5.69-4.32,10.8-9.36,15.19-15l1.58,1.15c4.46,3.24,8.31,7.19,11.28,11.59,2.04,3.01,4.41,6.09,6.85,8.36,6.81,6.31,9.54,5.81,11.58,3.95,.9-.83,1.52-1.79,1.32-3.15-.08-.56,.29-1.07,.85-1.16,1.36-.24,2.08-1.11,2.59-2.23,1.14-2.51,.78-5.27-7.33-9.79-2.91-1.62-6.57-2.93-10.06-3.94-5.09-1.47-10.05-3.91-14.51-7.15l-1.56-1.13c4.05-5.82,7.37-12.19,9.82-18.98l1.8,.58c5.24,1.7,10.13,4.27,14.31,7.53,2.87,2.24,6.08,4.43,9.1,5.83,8.42,3.9,10.87,2.58,12.23,.18,.6-1.07,.89-2.17,.28-3.41-.25-.51-.06-1.1,.44-1.37,1.22-.64,1.63-1.7,1.77-2.92,.31-2.74-.89-5.25-10-7.05-3.27-.64-7.15-.76-10.79-.63-5.3,.18-10.76-.62-16.01-2.32l-1.78-.58c2.02-6.71,3.2-13.79,3.41-21.1h1.9c5.51,0,10.95,.93,15.94,2.74,3.42,1.24,7.15,2.33,10.46,2.73,9.22,1.11,11.13-.91,11.69-3.61,.25-1.2,.18-2.34-.78-3.33-.4-.41-.4-1.03,0-1.44Z"/><path class="o" d="M1000.17,230.02c.96-.99,1.03-2.12,.78-3.33-.55-2.7-2.47-4.72-11.69-3.61-3.31,.4-7.04,1.49-10.46,2.73-4.98,1.81-10.43,2.74-15.94,2.74h-1.88c-.17-7.32-1.3-14.4-3.26-21.13l1.8-.59c5.24-1.7,10.71-2.5,16.01-2.32,3.64,.12,7.52,.01,10.79-.63,9.11-1.79,10.31-4.3,10-7.05-.14-1.22-.55-2.28-1.77-2.92-.5-.26-.69-.86-.45-1.37,.61-1.24,.32-2.34-.28-3.41-1.36-2.4-3.81-3.73-12.23,.18-3.02,1.4-6.23,3.59-9.1,5.83-4.18,3.26-9.07,5.83-14.31,7.53l-1.79,.58c-2.4-6.81-5.66-13.2-9.67-19.05l1.58-1.15c4.46-3.24,9.41-5.68,14.51-7.15,3.5-1.01,7.15-2.31,10.06-3.94,8.11-4.52,8.47-7.28,7.33-9.79-.51-1.12-1.23-2-2.59-2.23-.56-.1-.93-.6-.85-1.16,.2-1.36-.42-2.32-1.32-3.15-2.04-1.86-4.77-2.37-11.58,3.95-2.44,2.27-4.82,5.34-6.85,8.36-2.97,4.39-6.83,8.35-11.28,11.59l-1.58,1.15c-4.35-5.67-9.42-10.75-15.08-15.11l1.19-1.64c3.24-4.46,7.19-8.31,11.59-11.28,3.01-2.04,6.09-4.41,8.36-6.85,6.31-6.81,5.81-9.54,3.95-11.58-.83-.9-1.79-1.52-3.15-1.32-.56,.08-1.07-.29-1.16-.85-.23-1.36-1.11-2.08-2.23-2.59-2.51-1.14-5.27-.78-9.79,7.33-1.62,2.91-2.93,6.57-3.94,10.06-1.47,5.09-3.91,10.05-7.15,14.51l-1.19,1.63c-5.83-4.01-12.2-7.29-18.99-9.7l.65-1.99c1.7-5.24,4.27-10.13,7.53-14.31,2.24-2.87,4.43-6.08,5.83-9.1,3.9-8.42,2.58-10.87,.18-12.23-1.07-.6-2.17-.89-3.41-.28-.51,.25-1.1,.06-1.37-.44-.64-1.22-1.7-1.63-2.92-1.77-2.74-.31-5.25,.89-7.05,10-.64,3.27-.76,7.15-.63,10.79,.18,5.3-.62,10.76-2.32,16.01l-.65,1.99c-6.69-1.98-13.74-3.13-21.03-3.32v-2.21c0-5.51,.93-10.95,2.74-15.94,1.24-3.42,2.33-7.15,2.73-10.46,1.11-9.22-.91-11.13-3.61-11.69-1.2-.24-2.34-.18-3.33,.78-.41,.39-1.03,.39-1.44,0-.99-.96-2.12-1.03-3.33-.78-2.7,.55-4.72,2.47-3.61,11.69,.4,3.31,1.49,7.04,2.73,10.46,1.81,4.98,2.74,10.43,2.74,15.94v2.21c-7.28,.19-14.32,1.34-21,3.31l-.71-2.18c-1.7-5.24-2.5-10.71-2.32-16.01,.12-3.64,.01-7.52-.63-10.79-1.79-9.11-4.3-10.31-7.05-10-1.22,.14-2.28,.55-2.92,1.77-.26,.5-.86,.69-1.37,.44-1.24-.61-2.34-.32-3.41,.28-2.4,1.36-3.73,3.81,.18,12.23,1.4,3.02,3.59,6.23,5.83,9.1,3.26,4.18,5.83,9.07,7.53,14.31l.71,2.18c-6.76,2.4-13.11,5.65-18.92,9.64l-1.4-1.93c-3.24-4.46-5.68-9.41-7.15-14.51-1.01-3.5-2.31-7.15-3.94-10.06-4.52-8.11-7.28-8.47-9.79-7.33-1.12,.51-2,1.23-2.23,2.59-.1,.56-.6,.93-1.16,.85-1.36-.2-2.32,.42-3.15,1.32-1.86,2.04-2.37,4.77,3.95,11.58,2.27,2.44,5.34,4.82,8.36,6.85,4.39,2.97,8.35,6.83,11.59,11.28l1.4,1.93c-5.63,4.32-10.68,9.36-15.01,14.98l-1.99-1.45c-4.46-3.24-8.31-7.19-11.28-11.59-2.04-3.01-4.41-6.09-6.85-8.36-6.81-6.31-9.54-5.81-11.58-3.95-.91,.83-1.52,1.79-1.32,3.15,.08,.56-.29,1.07-.85,1.16-1.36,.24-2.08,1.11-2.59,2.23-1.14,2.51-.78,5.27,7.33,9.79,2.91,1.62,6.57,2.93,10.06,3.94,5.09,1.47,10.05,3.91,14.51,7.15l1.98,1.44c-4,5.79-7.27,12.12-9.68,18.86l-2.36-.77c-5.24-1.7-10.13-4.27-14.31-7.53-2.87-2.24-6.08-4.43-9.1-5.83-8.42-3.9-10.87-2.58-12.23-.18-.6,1.07-.89,2.17-.28,3.41,.25,.51,.06,1.1-.44,1.37-1.22,.64-1.63,1.7-1.77,2.92-.31,2.74,.89,5.25,10,7.05,3.27,.64,7.15,.76,10.79,.63,5.3-.18,10.76,.62,16.01,2.32l2.35,.76c-1.99,6.66-3.15,13.67-3.37,20.92h-2.52c-5.51,0-10.95-.93-15.94-2.74-3.42-1.24-7.15-2.33-10.46-2.73-9.22-1.11-11.13,.91-11.69,3.61-.24,1.2-.18,2.34,.78,3.33,.39,.41,.39,1.03,0,1.44-.96,.99-1.03,2.12-.78,3.33,.55,2.7,2.47,4.72,11.69,3.61,3.31-.4,7.04-1.49,10.46-2.73,4.98-1.81,10.43-2.74,15.94-2.74h2.5c.16,7.25,1.27,14.27,3.2,20.94l-2.36,.77c-5.24,1.7-10.71,2.5-16.01,2.32-3.64-.12-7.52-.01-10.79,.63-9.11,1.79-10.31,4.3-10,7.05,.14,1.22,.55,2.28,1.77,2.92,.5,.26,.69,.86,.44,1.37-.61,1.24-.32,2.34,.28,3.41,1.36,2.4,3.81,3.73,12.23-.18,3.02-1.4,6.23-3.59,9.1-5.83,4.18-3.26,9.07-5.83,14.31-7.53l2.34-.76c2.36,6.76,5.58,13.12,9.53,18.94l-1.98,1.44c-4.46,3.24-9.41,5.68-14.51,7.15-3.5,1.01-7.15,2.31-10.06,3.94-8.11,4.52-8.47,7.28-7.33,9.79,.51,1.12,1.23,2,2.59,2.23,.56,.1,.93,.6,.85,1.16-.2,1.36,.42,2.32,1.32,3.15,2.04,1.86,4.77,2.37,11.58-3.95,2.44-2.27,4.82-5.34,6.85-8.36,2.97-4.39,6.83-8.35,11.28-11.59l1.96-1.43c4.29,5.65,9.31,10.73,14.9,15.1l-1.4,1.93c-3.24,4.46-7.19,8.31-11.59,11.28-3.01,2.04-6.09,4.41-8.36,6.85-6.31,6.81-5.81,9.54-3.95,11.58,.83,.91,1.79,1.52,3.15,1.32,.56-.08,1.07,.29,1.16,.85,.24,1.36,1.11,2.08,2.23,2.59,2.51,1.14,5.27,.78,9.79-7.33,1.62-2.91,2.93-6.57,3.94-10.06,1.47-5.09,3.91-10.05,7.15-14.51l1.38-1.9c5.78,4.04,12.11,7.35,18.85,9.8l-.7,2.17c-1.7,5.24-4.27,10.13-7.53,14.31-2.24,2.87-4.43,6.08-5.83,9.1-3.9,8.42-2.58,10.87-.18,12.23,1.07,.6,2.17,.89,3.41,.28,.51-.25,1.1-.06,1.37,.44,.64,1.22,1.7,1.63,2.92,1.77,2.74,.31,5.25-.89,7.05-10,.64-3.27,.76-7.15,.63-10.79-.18-5.3,.62-10.76,2.32-16.01l.69-2.14c6.67,2.02,13.71,3.22,20.99,3.46v2.21c0,5.51-.93,10.95-2.74,15.94-1.24,3.42-2.33,7.15-2.73,10.46-1.11,9.22,.91,11.13,3.61,11.69,1.2,.25,2.34,.18,3.33-.78,.41-.39,1.03-.39,1.44,0,.99,.96,2.12,1.03,3.33,.78,2.7-.55,4.72-2.47,3.61-11.69-.4-3.31-1.49-7.04-2.73-10.46-1.81-4.98-2.74-10.43-2.74-15.94v-2.17c7.3-.14,14.36-1.23,21.07-3.15l.64,1.98c1.7,5.24,2.5,10.71,2.32,16.01-.12,3.64-.01,7.52,.63,10.79,1.79,9.11,4.3,10.31,7.05,10,1.22-.14,2.28-.55,2.92-1.77,.26-.5,.86-.69,1.37-.44,1.24,.61,2.34,.32,3.41-.28,2.4-1.36,3.73-3.81-.18-12.23-1.4-3.02-3.59-6.23-5.83-9.1-3.26-4.18-5.83-9.07-7.53-14.31l-.64-1.96c6.81-2.36,13.21-5.59,19.07-9.56l1.18,1.63c3.24,4.46,5.68,9.41,7.15,14.51,1.01,3.5,2.31,7.15,3.94,10.06,4.52,8.11,7.28,8.47,9.79,7.33,1.12-.51,2-1.23,2.23-2.59,.1-.56,.6-.93,1.16-.85,1.36,.2,2.32-.42,3.15-1.32,1.86-2.04,2.37-4.77-3.95-11.58-2.27-2.44-5.34-4.82-8.36-6.85-4.39-2.97-8.35-6.83-11.59-11.28l-1.17-1.61c5.69-4.32,10.8-9.36,15.19-15l1.58,1.15c4.46,3.24,8.31,7.19,11.28,11.59,2.04,3.01,4.41,6.09,6.85,8.36,6.81,6.31,9.54,5.81,11.58,3.95,.9-.83,1.52-1.79,1.32-3.15-.08-.56,.29-1.07,.85-1.16,1.36-.24,2.08-1.11,2.59-2.23,1.14-2.51,.78-5.27-7.33-9.79-2.91-1.62-6.57-2.93-10.06-3.94-5.09-1.47-10.05-3.91-14.51-7.15l-1.56-1.13c4.05-5.82,7.37-12.19,9.82-18.98l1.8,.58c5.24,1.7,10.13,4.27,14.31,7.53,2.87,2.24,6.08,4.43,9.1,5.83,8.42,3.9,10.87,2.58,12.23,.18,.6-1.07,.89-2.17,.28-3.41-.25-.51-.06-1.1,.44-1.37,1.22-.64,1.63-1.7,1.77-2.92,.31-2.74-.89-5.25-10-7.05-3.27-.64-7.15-.76-10.79-.63-5.3,.18-10.76-.62-16.01-2.32l-1.78-.58c2.02-6.71,3.2-13.79,3.41-21.1h1.9c5.51,0,10.95,.93,15.94,2.74,3.42,1.24,7.15,2.33,10.46,2.73,9.22,1.11,11.13-.91,11.69-3.61,.24-1.2,.18-2.34-.78-3.33-.4-.41-.4-1.03,0-1.44Z"/><path class="ab" d="M1703.57,57.32c0-5.73-5.54-8.68-12.38-8.68-7.94,0-15.33,4.8-19.21,12.56l-32.88-16.44c9.42-17.73,28.08-29.93,57.64-29.93s50.62,12.19,50.62,35.28c0,28.26-29.56,33.25-29.56,47.48h-38.06c0-22.35,23.83-29,23.83-40.27Zm-29.19,69.46c0-12.38,9.98-21.8,24.38-21.8s24.39,9.42,24.39,21.8-9.98,22.17-24.39,22.17-24.38-9.98-24.38-22.17Z"/><path class="y" d="M2416.47,1724.78H740.28c-30.98,0-56.09-25.11-56.09-56.09s25.11-56.09,56.09-56.09h1676.19c30.98,0,56.09,25.11,56.09,56.09s-25.11,56.09-56.09,56.09Z"/><path class="x" d="M2370.65,1287.38c-26.66-1.19-49.94,13.28-58.05,19,10.82-23.78,22.51-46.33,35.05-67.47,9.82-16.57,20.18-32.27,31.01-47.12,6.87,5.95,29.28,23.45,56.77,24.68,33.15,1.49,61.11-21.28,61.11-21.28,0,0-25.8-25.17-58.96-26.66-22.73-1.02-43.01,9.36-53.52,15.99,19.86-26.31,41.3-49.76,64.17-70.11,9.84-.9,37-4.97,56.55-23.2,24.27-22.64,27.58-58.53,27.58-58.53,0,0-36.04,.81-60.31,23.45-17.72,16.53-24.26,40.12-26.5,51.65-22.83,20.09-44.26,43.16-64.14,69.04,3.03-12.47,5.91-33.26-1.25-53.17-11.23-31.23-42.91-48.43-42.91-48.43,0,0-13.47,33.43-2.24,64.67,8.93,24.85,30.8,40.8,39.37,46.29-11.41,15.52-22.28,31.98-32.59,49.36-10.92,18.42-21.2,37.9-30.83,58.31,.53-12.91-.82-31.8-10.25-48.59-16.25-28.94-50.34-40.65-50.34-40.65,0,0-7.74,35.21,8.51,64.14,12.6,22.44,35.93,34.51,45.77,38.81-11.75,26.22-22.44,53.91-31.98,82.87-31.95,97.11-39.95,176.05-40.02,176.84l6.73,.66c.08-.78,8.02-79.11,39.77-175.53,9.49-28.82,20.13-56.35,31.83-82.42,5.82,5.17,28.93,24.06,57.53,25.35,33.15,1.49,61.11-21.28,61.11-21.28,0,0-25.8-25.17-58.96-26.66Z"/><path class="x" d="M2515.73,1437.68c-20.3-8.26-42.29-3.46-50.14-1.26,14.91-15.42,30.16-29.65,45.67-42.57,12.16-10.12,24.49-19.42,36.95-27.93,3.68,6.49,16.21,26.2,37.14,34.71,25.24,10.27,53.13,.34,53.13,.34,0,0-13.04-26.57-38.29-36.84-17.31-7.04-35.85-4.59-45.8-2.35,22.6-14.89,45.64-27.14,68.93-36.6,7.86,2.01,30,6.33,50.13-2.4,25-10.84,37.43-37.71,37.43-37.71,0,0-28.11-9.28-53.11,1.56-18.26,7.92-29.8,24.37-34.71,32.68-23.18,9.26-46.11,21.22-68.61,35.78,5.77-8.81,13.72-24.11,13.65-41.48-.1-27.25-19.88-49.27-19.88-49.27,0,0-19.62,22.16-19.52,49.41,.08,21.68,12.61,40.04,17.73,46.64-13.09,8.87-26.03,18.61-38.79,29.23-13.51,11.25-26.82,23.49-39.88,36.63,3.96-9.84,8.11-24.83,5.43-40.41-4.62-26.86-27.78-45.29-27.78-45.29,0,0-15.67,25.11-11.06,51.97,3.58,20.83,18.31,36.58,24.74,42.61-16.31,17.06-32.19,35.53-47.53,55.32-51.42,66.35-79.32,125.23-79.59,125.81l5.02,2.36c.27-.58,27.96-59,79.04-124.88,15.27-19.69,31.07-38.06,47.29-55.02,3.08,5.6,15.76,26.57,37.54,35.43,25.24,10.27,53.13,.34,53.13,.34,0,0-13.04-26.57-38.29-36.84Z"/><path class="x" d="M2378.25,1535.93c64.36,0,118.63,43.16,135.46,102.12h-270.92c16.83-58.96,71.1-102.12,135.46-102.12Z"/><path class="x" d="M2343.34,1638.05c-18.19-62.96-90.3-109.98-176.48-109.98s-158.29,47.03-176.48,109.98h352.97Z"/><path class="t" d="M2539.22,1556.96c-59.96,0-110.52,40.21-126.2,95.14h252.4c-15.68-54.93-66.24-95.14-126.2-95.14Z"/><path class="t" d="M2391.53,1586.44c-41.38,0-76.27,27.75-87.09,65.66h174.18c-10.82-37.9-45.71-65.66-87.09-65.66Z"/><path class="t" d="M2579.25,1652.1c16.95-58.66,84.12-102.47,164.42-102.47s147.47,43.81,164.42,102.47h-328.84Z"/><path class="u" d="M936.52,1407.14c-27.72,8.78-49.32,23.53-59.01,30.9-.22-.83-.43-1.65-.65-2.48-5.58-21.22-12.47-45.03-20.86-70.53,11.16-2.34,37.53-9.15,63.25-25.25,33.82-21.18,53.7-50.4,53.7-50.4,0,0-34.97,5.11-68.79,26.29-24.88,15.58-42.2,35.49-49.62,44.94-7.04-21.12-15.11-43.35-24.32-66.22,10.42-5.27,33.81-18.54,54.27-40.38,27.28-29.12,39.03-62.45,39.03-62.45,0,0-32.5,13.88-59.78,43-19.06,20.35-30.53,42.73-35.71,54.38-9.32-22.79-19.78-46.17-31.49-69.66,9.47-6.77,30.61-23.47,47.54-48.22,22.52-32.94,29.04-67.67,29.04-67.67,0,0-30,18.68-52.52,51.62-15.52,22.7-23.44,46.24-26.86,58.69-8-15.79-16.56-31.62-25.73-47.35,6.24-9.93,19.41-33.3,25.69-62.47,8.4-39.01,1.31-73.63,1.31-73.63,0,0-20.71,28.63-29.12,67.64-5.1,23.7-4.49,45.77-3.22,59.45-6.56-10.94-13.41-21.82-20.58-32.58-3.65-13.24-10.88-34.14-24.08-54.55-21.67-33.51-51.17-52.96-51.17-52.96,0,0,5.62,34.89,27.29,68.4,13.05,20.19,28.94,35.26,39.52,44.07,7.42,11.13,14.5,22.38,21.27,33.71-12.08-4.74-35.55-12.45-62.87-13.64-39.87-1.74-72.81,11.05-72.81,11.05,0,0,31.7,15.62,71.57,17.36,30.28,1.32,56.54-5.74,67.44-9.21,9.26,15.76,17.89,31.64,25.95,47.49-11.94-1.15-38.34-2.39-66.83,4.86-38.67,9.85-66.51,31.61-66.51,31.61,0,0,34.86,5.8,73.53-4.05,29.38-7.48,52.5-21.83,61.91-28.3,12.11,24.09,22.89,48.08,32.46,71.45-11.95-2.21-37.91-5.66-66.65-.99-39.39,6.39-69.04,25.62-69.04,25.62,0,0,34.21,8.86,73.6,2.46,29.67-4.82,53.81-16.91,63.92-22.58,9.34,23.09,17.5,45.53,24.6,66.83-12.02-2.65-37.62-6.91-66.22-3.32-39.6,4.97-69.92,23.11-69.92,23.11,0,0,33.87,10.08,73.47,5.12,29.44-3.69,53.75-14.67,64.28-20.05,8.27,25.16,15.07,48.65,20.58,69.59,.28,1.05,.55,2.09,.82,3.13-7.94-1.04-38.3-4.12-71.5,4.34-38.67,9.85-66.51,31.61-66.51,31.61,0,0,34.86,5.8,73.53-4.05,33.21-8.46,58.41-25.69,64.88-30.39,22.28,86.01,28.28,147.48,28.34,148.1l9.73-.92c-.06-.62-5.98-61.42-27.86-146.72,12.04,.46,38.39,.16,66.33-8.68,38.05-12.04,64.59-35.37,64.59-35.37,0,0-35.13-3.8-73.18,8.25Z"/><path class="u" d="M677.06,1448.64c-15.61,10.67-26.29,23.91-30.94,30.32-.29-.47-.58-.95-.87-1.42-7.46-12.16-16.22-25.7-26.23-40,6.51-3.55,21.65-12.74,34.64-27.6,17.09-19.54,23.97-41.46,23.97-41.46,0,0-20.81,9.75-37.9,29.28-12.57,14.37-19.61,30.02-22.46,37.3-8.35-11.83-17.54-24.16-27.57-36.67,5.5-5.24,17.57-17.89,26.21-35.33,11.52-23.26,12.57-46.21,12.57-46.21,0,0-17.63,14.75-29.15,38-8.05,16.25-10.99,32.34-12.03,40.57-10.08-12.44-20.99-25.03-32.69-37.46,4.62-5.99,14.65-20.36,20.55-38.95,7.84-24.74,5.38-47.59,5.38-47.59,0,0-15.17,17.26-23.01,42-5.4,17.05-5.91,33.19-5.71,41.59-7.94-8.33-16.25-16.58-24.91-24.65,2.02-7.36,5.83-24.38,4.27-43.72-2.09-25.87-13.01-46.09-13.01-46.09,0,0-7.52,21.72-5.43,47.59,1.27,15.72,5.8,29.34,9.16,37.62-6.14-5.58-12.45-11.07-18.93-16.42-4.76-7.56-13.19-19.22-25.24-29.45-19.78-16.8-41.81-23.37-41.81-23.37,0,0,10.05,20.67,29.83,37.47,11.92,10.12,24.64,16.52,32.88,20.02,6.71,5.54,13.23,11.22,19.57,16.99-8.41-.68-24.48-1.07-41.71,3.31-25.15,6.4-43.26,20.55-43.26,20.55,0,0,22.67,3.78,47.82-2.63,19.1-4.86,34.13-14.19,40.26-18.4,8.73,8.08,17.08,16.34,25.08,24.7-7.65,1.52-24.32,5.71-40.7,15.58-22.23,13.39-35.48,32.17-35.48,32.17,0,0,22.79-2.93,45.03-16.33,16.89-10.18,28.59-23.45,33.24-29.25,12.07,12.73,23.28,25.64,33.63,38.4-7.86,.87-24.67,3.6-41.69,11.9-23.33,11.38-38.18,28.91-38.18,28.91,0,0,22.96-.91,46.29-12.29,17.57-8.57,30.33-20.63,35.56-26.06,10.15,12.62,19.44,25.07,27.87,37-7.98,.61-24.72,2.76-41.85,10.37-23.72,10.53-39.2,27.52-39.2,27.52,0,0,22.98-.08,46.7-10.61,17.64-7.83,30.71-19.22,36.26-24.56,9.87,14.11,18.52,27.46,25.88,39.47,.37,.6,.73,1.2,1.1,1.8-5.14,.84-24.62,4.63-43.71,16.13-22.23,13.39-35.48,32.17-35.48,32.17,0,0,22.79-2.93,45.03-16.33,19.09-11.5,31.55-26.96,34.69-31.1,30.02,49.37,45.3,86.52,45.45,86.89l5.89-2.4c-.15-.38-15.26-37.12-44.89-86.12,7.58-1.97,23.93-7.11,39.67-17.86,21.43-14.64,33.58-34.15,33.58-34.15,0,0-22.59,4.23-44.02,18.88Z"/><path class="k" d="M1300.46,1477.92c4.23-.69,8.22,2.17,8.91,6.4,.31,1.89-.1,3.74-1.02,5.26,5.48,7.31,10.41,14.94,14.82,22.62,0-7.32,.57-18.2,3.22-28.62-1.78-1.15-3.09-3.01-3.46-5.26-.69-4.23,2.17-8.22,6.4-8.91,4.23-.69,8.22,2.17,8.91,6.4,.69,4.23-2.17,8.22-6.4,8.91-.49,.08-.97,.11-1.45,.1-3.91,15.61-2.97,32.76-2.8,35.41,9.19,17.36,15.82,34.42,20.31,47.86,8.07,24.16,11.19,42.2,11.22,42.38l-4.13,.7c-.03-.18-3.09-17.9-11.06-41.76-2.4-7.17-5.41-15.39-9.1-24.13-2.78-1.16-13.36-5.15-28.4-5.57-.61,3.09-3.06,5.63-6.35,6.17-4.23,.69-8.22-2.17-8.91-6.4-.69-4.23,2.17-8.22,6.4-8.91,3.73-.61,7.26,1.54,8.53,4.96,11.93,.27,21.18,2.67,26.43,4.43-6.88-15.48-15.85-32.21-27.25-47.49-.71,.37-1.48,.63-2.31,.77-4.23,.69-8.22-2.17-8.91-6.4-.69-4.23,2.17-8.22,6.4-8.91Z"/><path class="k" d="M1383.86,1548.51c-2.19-2.07-10.69-9.53-24.62-15.21-1.66,2.68-4.85,4.19-8.12,3.53-4.2-.84-6.93-4.93-6.09-9.13,.84-4.2,4.93-6.93,9.13-6.09,3.7,.74,6.25,4,6.23,7.64,11.07,4.45,18.88,9.96,23.17,13.45-.99-16.91-3.49-35.73-8.78-54.04-.79,.09-1.61,.07-2.44-.09-4.2-.84-6.93-4.93-6.09-9.13,.84-4.2,4.93-6.93,9.13-6.09,4.2,.84,6.93,4.93,6.09,9.13-.38,1.88-1.41,3.46-2.81,4.57,2.55,8.77,4.48,17.65,5.91,26.39,2.58-6.85,6.95-16.83,13.09-25.65-1.26-1.7-1.83-3.9-1.39-6.14,.84-4.2,4.93-6.93,9.13-6.09,4.2,.84,6.93,4.93,6.09,9.13-.84,4.2-4.93,6.93-9.13,6.09-.48-.1-.95-.24-1.39-.42-9.15,13.23-14.32,29.61-15.09,32.15,2.49,19.49,2.68,37.79,2.15,51.95-.96,25.45-4.39,43.44-4.43,43.62l-4.11-.8c.03-.18,3.41-17.85,4.36-42.98,.28-7.56,.36-16.31-.02-25.79Z"/><path class="k" d="M1471.26,1601.23c14.52,0,26.77,9.74,30.57,23.05h-61.14c3.8-13.31,16.05-23.05,30.57-23.05Z"/><path class="k" d="M1322.26,1590.33c21.39,0,39.44,14.35,45.03,33.95h-90.06c5.59-19.6,23.64-33.95,45.03-33.95Z"/><path class="k" d="M1462.01,1624.28c-6.91-23.89-34.27-41.74-66.98-41.74s-60.07,17.85-66.98,41.74h133.95Z"/><path class="u" d="M637.95,1540.15c-53.9,0-99.36,36.15-113.45,85.53h226.9c-14.09-49.38-59.55-85.53-113.45-85.53Z"/><path class="u" d="M505.18,1566.66c-37.2,0-68.57,24.95-78.29,59.02h156.58c-9.73-34.08-41.09-59.02-78.29-59.02Z"/><path class="u" d="M673.94,1625.68c15.24-52.73,75.63-92.11,147.81-92.11s132.57,39.38,147.81,92.11h-295.62Z"/><path class="q" d="M2086.34,1702.19c30.85,0,56.87,20.69,64.94,48.96h-129.88c8.07-28.26,34.09-48.96,64.94-48.96Z"/><path class="q" d="M2162.34,1717.36c21.29,0,39.25,14.28,44.82,33.79h-89.63c5.57-19.51,23.52-33.79,44.82-33.79Z"/><path class="q" d="M2065.74,1751.15c-8.72-30.18-43.29-52.73-84.61-52.73s-75.89,22.54-84.61,52.73h169.22Z"/><path class="g" d="M2581.97,736.53c44.63,0,82.27,29.93,93.94,70.82h-187.88c11.67-40.89,49.31-70.82,93.94-70.82Z"/><path class="g" d="M2691.91,758.48c30.8,0,56.78,20.66,64.83,48.87h-129.66c8.05-28.22,34.03-48.87,64.83-48.87Z"/><path class="g" d="M2552.17,807.36c-12.62-43.66-62.62-76.27-122.39-76.27s-109.77,32.61-122.39,76.27h244.78Z"/><path class="ac" d="M878.86,1603.55c-31.28,0-57.65,20.98-65.83,49.63h131.66c-8.18-28.65-34.55-49.63-65.83-49.63Z"/><path class="ac" d="M801.82,1618.93c-21.58,0-39.79,14.48-45.43,34.25h90.86c-5.64-19.77-23.85-34.25-45.43-34.25Z"/><path class="ac" d="M899.74,1653.18c8.84-30.6,43.88-53.45,85.76-53.45s76.92,22.85,85.76,53.45h-171.53Z"/><path class="z" d="M2310.71,777.8c27.33,0,50.37,18.33,57.51,43.36h-115.03c7.14-25.03,30.19-43.36,57.51-43.36Z"/><path class="z" d="M2378.02,791.24c18.86,0,34.76,12.65,39.69,29.92h-79.38c4.93-17.27,20.83-29.92,39.69-29.92Z"/><path class="z" d="M2292.47,821.16c-7.73-26.73-38.34-46.7-74.93-46.7s-67.21,19.97-74.93,46.7h149.86Z"/><path class="q" d="M901.33,578.28c71.17,0,131.2,47.73,149.8,112.94h-299.61c18.61-65.2,78.63-112.94,149.8-112.94Z"/><path class="q" d="M1076.64,613.28c49.12,0,90.54,32.94,103.38,77.94h-206.76c12.84-44.99,54.26-77.94,103.38-77.94Z"/><path class="q" d="M853.81,691.22c-20.12-69.63-99.86-121.63-195.17-121.63s-175.05,52-195.17,121.63h390.34Z"/><path class="aa" d="M1027.94,688.22c20,0,36.87,13.41,42.1,31.74h-84.19c5.23-18.32,22.1-31.74,42.1-31.74Z"/><path class="aa" d="M822.75,673.21c29.46,0,54.31,19.76,62.01,46.75h-124.03c7.7-26.99,32.55-46.75,62.01-46.75Z"/><path class="aa" d="M1015.21,719.96c-9.51-32.9-47.19-57.48-92.23-57.48s-82.73,24.58-92.23,57.48h184.47Z"/><path class="o" d="M2061.88,1067.09c-30.89,0-56.94,20.72-65.01,49.01h130.03c-8.08-28.3-34.12-49.01-65.01-49.01Z"/><path class="o" d="M1985.8,1082.28c-21.32,0-39.29,14.3-44.86,33.82h89.73c-5.57-19.53-23.55-33.82-44.87-33.82Z"/><path class="o" d="M2082.5,1116.11c8.73-30.22,43.34-52.79,84.7-52.79s75.97,22.57,84.7,52.79h-169.4Z"/><path class="n" d="M1885.34,1592.54c16.37,0,30.17,10.98,34.45,25.97h-68.9c4.28-14.99,18.08-25.97,34.45-25.97Z"/><path class="n" d="M1925.66,1600.59c11.3,0,20.82,7.58,23.78,17.92h-47.55c2.95-10.35,12.48-17.92,23.78-17.92Z"/><path class="n" d="M1874.42,1618.51c-4.63-16.01-22.97-27.97-44.89-27.97s-40.26,11.96-44.89,27.97h89.77Z"/><path class="g" d="M977.83,862.6c23.29,0,42.93,15.62,49.02,36.96h-98.05c6.09-21.34,25.73-36.96,49.02-36.96Z"/><path class="g" d="M1035.2,874.06c16.07,0,29.63,10.78,33.83,25.5h-67.66c4.2-14.72,17.76-25.5,33.83-25.5Z"/><path class="g" d="M962.28,899.56c-6.58-22.78-32.68-39.8-63.87-39.8s-57.28,17.02-63.87,39.8h127.74Z"/><path class="w" d="M1934.98,1467.38l-126.77-264.2v-111.27h.83c9.62,0,17.42-7.8,17.42-17.42s-7.8-17.42-17.42-17.42h-82.96c-9.62,0-17.42,7.8-17.42,17.42s7.8,17.42,17.42,17.42h.83v111.27l-126.77,264.2c-3.21,6.69,1.67,14.44,9.09,14.44h316.66c7.42,0,12.3-7.75,9.09-14.44Z"/><path class="k" d="M1934.98,1467.38l-76.62-159.68c-16.97-2.73-33.87-4.53-50.28-.44-8.92,2.22-17.34,6.12-26.13,8.83-17.23,5.3-35.89,5.88-53.42,1.66-14.21-3.43-27.57-9.91-41.85-13.01-2.6-.57-5.22-1.01-7.84-1.36l-78.69,164.01c-3.21,6.69,1.67,14.44,9.09,14.44h316.66c7.42,0,12.3-7.75,9.09-14.44Z"/><circle class="k" cx="1756.77" cy="1269.44" r="16.59" transform="translate(-352.07 768.92) rotate(-22.5)"/><path class="k" d="M1766.73,1224.64c0-3.67,2.97-6.64,6.64-6.64s6.64,2.97,6.64,6.64-2.97,6.64-6.64,6.64-6.64-2.97-6.64-6.64Z"/><circle class="k" cx="1756.77" cy="1101.86" r="13.27" transform="translate(-287.94 756.16) rotate(-22.5)"/><circle class="k" cx="1794.94" cy="1032.17" r="6.64"/><rect class="ae" x="1573.09" y="935.58" width="13" height="734.62"/><circle class="ae" cx="1579.59" cy="1171.59" r="20.8" transform="translate(76.42 2439.75) rotate(-76.72)"/><rect class="ae" x="1575.69" y="1166.86" width="244.56" height="9.28"/><path class="ae" d="M1766.47,1644.76h-372.47c-2.68,10.01-10.87,17.75-21.15,19.73v11.48h413.47v-11.78c-9.66-2.36-17.28-9.85-19.85-19.43Z"/><path class="d" d="M1457.39,820.9c53.31-81.91,200.23-39.01,222.34,39.01,22.1,78.01-149.6,2.02-130.02-107.92,16.9-94.92,205.43-27.3,201.53,262.64"/><path class="g" d="M1208.45,986.34c-11.89-15.89,2.9-24.27,3.2-24.68,3.6-4.73,15.19-3.81,20.59,1.03l114.99,114.14c2.03,1.65,1.27,12.24-.31,14.32-.53,.7-1.21,1.21-1.97,1.52-5.11,3.4-15.46-3.69-20.66-7.2-25.55-17.2-100.38-78.48-115.84-99.14Z"/><path class="j" d="M1233.59,1425.47c6.49-6.65,12.24-9.17,19.63-6.81,8.11,2.6,12.46,11.4,9.59,19.42l-80.07,223.66c-1.26,3.53-5.09,5.42-8.66,4.28-3.57-1.14-5.59-4.91-4.57-8.51l2.79-9.88c36.83-158.83,40.24-197.27,61.29-222.16Z"/><path class="g" d="M1177.57,1219.07c1.89-28.37,15.92-35.16,26.14-36.27,.66-.24,1.34-.46,2.05-.61,8.33-1.79,16.48,3.67,17.99,12.06l42.02,233.82c.66,3.69-1.72,7.24-5.38,8.02-1.22,.26-2.44,.18-3.56-.17-8.73-1.06-16.31-6.83-19.55-15.21-16.87-43.62-62.17-164.75-59.72-201.63Z"/><path class="j" d="M1153.61,1425.47c6.49-6.65,12.24-9.17,19.63-6.81,8.11,2.6,12.46,11.4,9.59,19.42l-80.07,223.66c-1.26,3.53-5.09,5.42-8.66,4.28-3.57-1.14-5.59-4.91-4.57-8.51l2.79-9.88c36.83-158.83,40.24-197.27,61.29-222.16Z"/><path class="g" d="M1130.42,1213.16c6.44-27.69,21.39-32.12,31.66-31.57,.69-.13,1.4-.24,2.12-.27,8.51-.42,15.67,6.29,15.81,14.81l3.7,237.54c.06,3.75-2.86,6.86-6.6,7.05-1.25,.06-2.44-.22-3.48-.75-8.44-2.46-14.99-9.38-16.84-18.17-9.6-45.78-34.74-172.62-26.36-208.63Z"/><path class="af" d="M1092.82,1660.76c5.09,0,9.59-.76,12.26-1.92,17.81,2.49,54.09,10.85,52.96,19.76-.41,3.28-71.19,1.13-76.1,.57-3.46-.4-2.05-10.65-.91-16.67,.32-1.7,1.97-2.78,3.67-2.45,2.33,.45,5.12,.72,8.12,.72Z"/><path class="af" d="M1175.73,1660.76c5.09,0,9.59-.76,12.26-1.92,17.81,2.49,54.09,10.85,52.96,19.76-.41,3.28-71.19,1.13-76.1,.57-3.46-.4-2.05-10.65-.91-16.67,.32-1.7,1.97-2.78,3.67-2.45,2.33,.45,5.12,.72,8.12,.72Z"/><path class="ah" d="M1221.68,1173.18s46.3,227.41,46.97,244.62c.67,17.21-3.53,27.63-8.74,40.36-5.21,12.74-61.17,169.77-61.17,169.77l-21.27-2.76s22.76-167.19,54.11-204.86c0,0-79.23-227.96-79.23-247.13h69.32Z"/><path class="ah" d="M1099.18,1617.77l19.73,4.93s68.2-177.61,67.73-186.45c-.47-8.84,0-263.07,0-263.07l-59.79,3.04s-10.81,107.95,25.51,244.66c0,0-25.35,10.08-53.18,196.88Z"/><path class="j" d="M1384.29,961.9c5.58,1.15,11.37-.38,15.66-4.12,11.01-9.6,31.16-28.42,31.09-37.42-.09-12.38-39.75,12.98-49.93,40.88l3.17,.66Z"/><path class="g" d="M1127.74,1148.22c.18-5.5,.45-10.89,.82-16.16,.23-3.48,.5-6.92,.79-10.28,.66-7.66,1.5-15.07,2.51-22.33,.49-3.44,1.02-6.86,1.57-10.22,1.36-8.33,2.93-16.4,4.7-24.25,.77-3.39,1.54-6.72,2.38-10.02,5.42-21.6,12.36-41.54,20.32-60.4,4.65-11.02,9.55-20.48,14.39-28.58,14.48-24.18,49.4-24.55,64.54-.8l3.27,5.12c8.38,13.08,8.75,29.62,1.32,43.3-8.15,15.04-14.96,38.22-17.66,76.02-.17,2.32-.32,4.69-.46,7.13-.18,3.46-.32,7.01-.48,10.71-.16,5.18-.27,10.62-.31,16.28-.02,3.42,0,6.9,.02,10.49,.05,6.35,.19,12.97,.43,19.9,.07,1.93,.14,3.89,.23,5.87,.06,1.54,.12,3.09,.19,4.65,.14,3.71,.35,7.56,.56,11.47,.2,3.41,.4,6.89,.64,10.44,.32,4.78,.67,9.69,1.06,14.72-10.33,1.53-21.61-.19-31.73-3.28-17.02-5.19-33.51-13.54-51.3-13.84-5.96-.1-11.87,.71-17.79,1.43-.3-9.29-.39-18.32-.26-27.1,.03-3.47,.14-6.9,.25-10.29Z"/><path class="g" d="M1396.23,960.83c-5.08,33.43-26.99,104.28-37.82,122.78-8.99,15.34-18.17,9.66-18.62,9.55-5.29-1.32-9.88-10.51-7.8-16.65l48.81-120.52,15.44,4.85Z"/><path class="g" d="M1199.79,990.3c15.73-12.11,3.74-24.16,3.55-24.63-2.2-5.53-13.6-7.75-20.11-4.55l-141.44,79.03c-2.4,1.05-.73,5.05,.24,7.48,.32,.81,.84,1.49,1.48,2,4.01,4.65,11.94,6.39,18.05,5.02,31.86-7.16,117.78-48.6,138.23-64.35Z"/><path class="g" d="M1263.7,1362.06l-24.55,4.14-22.67-83.99,12.02,88.73s-81.2,27.9-99.75,20.75c0,0-14.41-228.96,3.34-268l93.82,30.45s24.61,168.77,37.8,207.92Z"/><rect class="ad" x="1166.59" y="1074.61" width="15.93" height="187.62" transform="translate(236.42 2533.96) rotate(-100.36)"/><rect class="k" x="1131.81" y="1105.82" width="25.53" height="136.16" transform="translate(195.65 2510.93) rotate(-100.36)"/><path class="ad" d="M1342.25,1035.6c-54.6,9.98-90.76,62.33-80.78,116.93,9.98,54.6,62.33,90.76,116.93,80.78,54.6-9.98,90.76-62.33,80.78-116.93-9.98-54.6-62.33-90.76-116.93-80.78Zm1.63,8.91c49.68-9.08,97.31,23.83,106.39,73.5,9.08,49.68-23.83,97.31-73.5,106.39-49.68,9.08-97.31-23.83-106.39-73.5-9.08-49.68,23.83-97.31,73.5-106.39Z"/><circle class="r" cx="1360.33" cy="1134.46" r="91.44" transform="translate(-403.75 1294.17) rotate(-45)"/><path class="j" d="M1145.62,1127.64c5.66-.62,11.28,1.46,15.2,5.59,10.05,10.61,28.32,31.25,27.4,40.2-1.27,12.31-38.34-16.69-45.82-45.44l3.22-.35Z"/><path class="g" d="M1155.69,1130c-20.81-26.66-74.62-77.69-93.12-88.51-15.35-8.97-20.58,.48-20.91,.8-3.97,3.75-3.47,14,1.36,18.34l101.59,81.16,11.09-11.79Z"/><path class="s" d="M1223.76,954.21s15.17,7.4,4.92,35.5c-10.24,28.1-13.25,39.34-13.25,39.34,0,0-19.66-60.1-15.33-71.59,4.34-11.48,23.66-3.25,23.66-3.25Z"/><path class="ad" d="M1282.03,905.5c.46-2.52-.81-5.18-.75-7.66,.06-2.55,1.43-5.15,1.1-7.62-.34-2.51-2.37-4.66-3.09-7.05-.73-2.42-.23-5.33-1.32-7.59-1.1-2.27-3.69-3.68-5.12-5.75-1.43-2.07-1.85-4.99-3.59-6.81-1.73-1.82-4.63-2.36-6.64-3.9-1.99-1.52-3.29-4.17-5.52-5.37-2.2-1.18-5.12-.8-7.52-1.64-2.34-.82-4.4-2.93-6.92-3.39-2.52-.46-5.18,.81-7.66,.75-2.55-.06-5.15-1.43-7.62-1.1-2.51,.34-4.66,2.37-7.05,3.09-2.42,.73-5.33,.23-7.59,1.32-2.27,1.1-3.68,3.69-5.75,5.12s-4.99,1.85-6.81,3.59c-1.82,1.73-2.36,4.63-3.9,6.64-1.52,1.99-4.17,3.29-5.37,5.52-1.18,2.2-.8,5.12-1.64,7.52-.82,2.34-2.93,4.4-3.39,6.92-.46,2.52,.81,5.18,.75,7.66-.06,2.55-1.43,5.15-1.1,7.62,.34,2.51,2.37,4.66,3.09,7.05,.73,2.42,.23,5.33,1.32,7.59,1.1,2.27,3.69,3.68,5.12,5.75,1.43,2.07,1.85,4.99,3.59,6.81,1.73,1.82,4.63,2.36,6.64,3.9,1.99,1.52,3.29,4.17,5.52,5.37,2.2,1.18,5.12,.8,7.52,1.64,2.34,.82,4.4,2.93,6.92,3.39,2.52,.46,5.18-.81,7.66-.75,2.55,.06,5.15,1.43,7.62,1.1,2.51-.34,4.66-2.37,7.05-3.09,2.42-.73,5.33-.23,7.59-1.32,2.27-1.1,3.68-3.69,5.75-5.12,2.07-1.43,4.99-1.85,6.81-3.59,1.82-1.73,2.36-4.63,3.9-6.64,1.52-1.99,4.17-3.29,5.37-5.52,1.18-2.2,.8-5.12,1.64-7.52,.82-2.34,2.93-4.4,3.39-6.92Z"/><path class="ad" d="M1261.39,953.15s6.26-9.35,3.72-19.52c-2.54-10.18-8.21-.53-8.21-.53l4.49,20.05Z"/><path class="ad" d="M1202.95,915.85c.28,1.09,3.17,21.33,6.26,22.37,4.23,1.43,6.17-13.29,6.17-13.29l-12.43-9.08Z"/><path class="ad" d="M1265.98,905.16s6.59-8.31,4.52-15.79c-1.97-7.1-6.49-15.21-31.99-16-3.64-.11-6.84,2.4-7.62,5.95l-2.2,10.08,37.29,15.75Z"/><path class="j" d="M1215.68,912.94c-1.09,15.03-.88,27.56,6.94,35.79,2.74,2.89,6.36,5.64,10.98,7.36,2.88,1.08,6.15,1.75,9.83,1.8,9.6,.14,15.19-3.67,18.6-10.16,3.91-7.44,4.95-18.41,5.86-31.01,1.71-23.6-9.1-36.45-23.52-37.5-14.42-1.05-26.98,10.11-28.69,33.71Z"/><path class="j" d="M1213.75,913.95l24.47,4.31c-.59,3.35-6.74,35.1-11.21,46.47-1.88,3.36-8.28,3.36-14.3,0-5.41-3.02-8.63-7.72-7.87-11.08h-.03c2.68-6.83,6.87-27.99,8.93-39.7Z"/><path class="ad" d="M1203.24,917.56s5.72,3.1,11.9-1.13c8.14-5.57,17.57-19.45,20.64-26.04,5.41-11.58,2.57-15.59,2.57-15.59,0,0-23.7-3.16-30.34,3.53-9.95,10.02-4.77,39.22-4.77,39.22Z"/><path class="ad" d="M1224.97,902.14l-2.52,34.43c-.27,3.64,1.66,7.07,4.9,8.74l3.72,1.92c2.29,1.18,5.09-.03,5.79-2.51l1.94-6.77c.43-1.52,1.82-2.56,3.39-2.57l15.66-.06c1.67,0,3.12,1.16,3.47,2.8l1.46,6.81c1.44,6.72-3.41,13.15-10.26,13.62l-9.52,.65c-2.03,.14-4.06-.22-5.92-1.04-.14-.06-.28-.12-.42-.19l-.24-.13h-.01l-2.87-1.49h0l-9.39-4.84c-5.73-2.95-9.14-9.04-8.67-15.46l2.52-34.42,6.97,.51Z"/><path class="j" d="M1205.06,912.78c-.4,5.11,4.17,12.04,7.87,12.33,3.7,.29,4.95-3.78,5.34-8.89s-2.23-10.12-5.93-10.41c-3.7-.29-6.89,1.87-7.28,6.98Z"/><path class="ad" d="M1234.68,884.95l15.19,1.24c5.09,.41,9.87,2.65,13.45,6.3l4.86,4.96-5.95-14.79-11.85-5.57-15.6-.1-.1,7.97Z"/><ellipse class="b" cx="1183.6" cy="328.02" rx="58.27" ry="164.33"/><ellipse class="b" cx="1183.6" cy="328.02" rx="164.33" ry="58.27" transform="translate(6.29 677.94) rotate(-32.04)"/><ellipse class="b" cx="1183.6" cy="328.02" rx="58.27" ry="164.33" transform="translate(277.59 1157.26) rotate(-57.96)"/><circle class="ai" cx="1183.6" cy="328.02" r="37.31" transform="translate(-35.43 477.91) rotate(-22.5)"/><circle class="k" cx="1324.98" cy="239.52" r="14.72" transform="translate(787.45 1474.03) rotate(-76.72)"/><circle class="ab" cx="1051.52" cy="286.21" r="14.72" transform="translate(531.38 1243.85) rotate(-76.72)"/><circle class="e" cx="1213.7" cy="468.46" r="14.72" transform="translate(478.91 1542.06) rotate(-76.72)"/><polygon class="b" points="2010.53 794.92 2010.53 713.29 1939.84 672.48 1869.15 713.29 1869.15 794.92 1939.84 835.73 2010.53 794.92"/><line class="b" x1="1939.84" y1="672.48" x2="1939.84" y2="584.62"/><line class="b" x1="1939.84" y1="923.59" x2="1939.84" y2="835.73"/><line class="b" x1="2010.53" y1="711.26" x2="2072.65" y2="649.13"/><line class="b" x1="2010.53" y1="791.69" x2="2072.65" y2="853.81"/><circle class="i" cx="1939.84" cy="672.48" r="21.68"/><circle class="i" cx="1939.84" cy="923.59" r="21.68"/><circle class="f" cx="1939.84" cy="584.62" r="21.68"/><circle class="i" cx="2070.99" cy="650.8" r="21.68"/><circle class="i" cx="2010.53" cy="791.69" r="21.68"/><circle class="i" cx="2010.53" cy="711.26" r="21.68"/><circle class="ab" cx="2070.99" cy="852.15" r="21.68"/><circle class="q" cx="1939.84" cy="834.76" r="21.68"/><polygon class="b" points="2290.77 193.09 2372.4 193.09 2413.21 122.4 2372.4 51.71 2290.77 51.71 2249.96 122.4 2290.77 193.09"/><line class="b" x1="2162.1" y1="122.4" x2="2249.96" y2="122.4"/><line class="b" x1="2374.43" y1="193.09" x2="2436.55" y2="255.21"/><line class="b" x1="2294" y1="193.09" x2="2231.87" y2="255.21"/><circle class="i" cx="2413.21" cy="122.4" r="21.68"/><circle class="i" cx="2162.1" cy="122.4" r="21.68"/><circle class="i" cx="2434.89" cy="253.55" r="21.68"/><circle class="i" cx="2294" cy="193.09" r="21.68"/><circle class="i" cx="2374.43" cy="193.09" r="21.68"/><circle class="ab" cx="2233.54" cy="253.55" r="21.68"/><circle class="q" cx="2250.93" cy="122.4" r="21.68"/><polygon class="b" points="1380.78 417.68 1439.04 497.87 1533.3 467.24 1533.3 368.12 1439.04 337.5 1380.78 417.68"/><line class="b" x1="1380.78" y1="417.68" x2="1342.91" y2="470.89"/><line class="b" x1="1533.3" y1="467.24" x2="1561.69" y2="510.13"/><circle class="f" cx="1339.88" cy="475.16" r="15.8"/><circle class="i" cx="1563.68" cy="513.15" r="15.8"/><line class="b" x1="1439.04" y1="497.87" x2="1439.04" y2="607.67"/><circle class="ae" cx="1439.04" cy="607.67" r="23.69" transform="translate(-8.2 1195.54) rotate(-45)"/><circle class="i" cx="1439.04" cy="541.12" r="15.8"/><line class="b" x1="1439.04" y1="337.5" x2="1439.04" y2="278.15"/><line class="b" x1="1458.88" y1="344.06" x2="1458.88" y2="254.05"/><circle class="ab" cx="1458.88" cy="248.8" r="11.04" transform="translate(881.55 1611.49) rotate(-76.72)"/><circle class="ab" cx="1439.77" cy="278.15" r="11.04" transform="translate(838.27 1615.5) rotate(-76.72)"/><polygon class="b" points="2687.31 264.73 2767.5 206.48 2736.87 112.21 2637.76 112.21 2607.13 206.48 2687.31 264.73"/><line class="b" x1="2687.31" y1="264.73" x2="2740.53" y2="302.6"/><line class="b" x1="2736.87" y1="112.21" x2="2779.77" y2="83.82"/><circle class="f" cx="2744.79" cy="305.64" r="15.8"/><circle class="i" cx="2782.78" cy="81.83" r="15.8"/><line class="b" x1="2767.5" y1="206.48" x2="2877.3" y2="206.48"/><circle class="ae" cx="2877.3" cy="206.48" r="23.69" transform="translate(696.74 2095.04) rotate(-45)"/><circle class="i" cx="2810.75" cy="206.48" r="15.8"/><line class="b" x1="2607.13" y1="206.48" x2="2547.78" y2="206.48"/><line class="b" x1="2613.69" y1="186.64" x2="2523.69" y2="186.64"/><circle class="ab" cx="2518.43" cy="186.64" r="11.04" transform="translate(1758.17 2594.82) rotate(-76.72)"/><circle class="ab" cx="2547.78" cy="205.74" r="11.04" transform="translate(1762.18 2638.1) rotate(-76.72)"/><path class="v" d="M1973.25,483.93c.44-.45,.47-.96,.36-1.51-.25-1.23-1.12-2.14-5.31-1.64-1.5,.18-3.2,.68-4.75,1.24-2.26,.82-4.74,1.24-7.24,1.24h-.85c-.08-3.32-.59-6.54-1.48-9.59l.82-.27c2.38-.77,4.86-1.13,7.27-1.05,1.65,.06,3.41,0,4.9-.29,4.14-.81,4.68-1.95,4.54-3.2-.06-.55-.25-1.03-.81-1.33-.23-.12-.32-.39-.2-.62,.28-.56,.15-1.06-.13-1.55-.62-1.09-1.73-1.69-5.55,.08-1.37,.64-2.83,1.63-4.13,2.65-1.9,1.48-4.12,2.65-6.5,3.42l-.81,.26c-1.09-3.09-2.57-6-4.39-8.65l.72-.52c2.02-1.47,4.27-2.58,6.59-3.25,1.59-.46,3.25-1.05,4.57-1.79,3.68-2.05,3.85-3.31,3.33-4.45-.23-.51-.56-.91-1.18-1.01-.25-.04-.42-.27-.38-.53,.09-.62-.19-1.06-.6-1.43-.92-.85-2.17-1.07-5.26,1.79-1.11,1.03-2.19,2.43-3.11,3.79-1.35,1.99-3.1,3.79-5.12,5.26l-.72,.52c-1.97-2.57-4.28-4.88-6.85-6.86l.54-.74c1.47-2.02,3.27-3.78,5.26-5.12,1.37-.93,2.77-2,3.79-3.11,2.87-3.09,2.64-4.33,1.79-5.26-.38-.41-.81-.69-1.43-.6-.25,.04-.49-.13-.53-.38-.11-.62-.51-.94-1.01-1.18-1.14-.52-2.39-.35-4.45,3.33-.74,1.32-1.33,2.98-1.79,4.57-.67,2.31-1.78,4.56-3.25,6.59l-.54,.74c-2.65-1.82-5.54-3.31-8.62-4.41l.29-.91c.77-2.38,1.94-4.6,3.42-6.5,1.02-1.3,2.01-2.76,2.65-4.13,1.77-3.83,1.17-4.94,.08-5.55-.49-.27-.99-.4-1.55-.13-.23,.11-.5,.03-.62-.2-.29-.55-.77-.74-1.33-.81-1.25-.14-2.39,.4-3.2,4.54-.29,1.48-.34,3.25-.29,4.9,.08,2.41-.28,4.89-1.05,7.27l-.29,.91c-3.04-.9-6.24-1.42-9.55-1.51v-1c0-2.5,.42-4.98,1.24-7.24,.56-1.55,1.06-3.25,1.24-4.75,.5-4.19-.41-5.06-1.64-5.31-.55-.11-1.06-.08-1.51,.36-.18,.18-.47,.18-.65,0-.45-.44-.96-.47-1.51-.36-1.23,.25-2.14,1.12-1.64,5.31,.18,1.5,.68,3.2,1.24,4.75,.82,2.26,1.24,4.74,1.24,7.24v1c-3.31,.09-6.5,.61-9.54,1.5l-.32-.99c-.77-2.38-1.13-4.86-1.05-7.27,.06-1.65,0-3.41-.29-4.9-.81-4.14-1.95-4.68-3.2-4.54-.55,.06-1.03,.25-1.33,.81-.12,.23-.39,.32-.62,.2-.56-.28-1.06-.15-1.55,.13-1.09,.62-1.69,1.73,.08,5.55,.64,1.37,1.63,2.83,2.65,4.13,1.48,1.9,2.65,4.12,3.42,6.5l.32,.99c-3.07,1.09-5.95,2.57-8.59,4.38l-.64-.88c-1.47-2.03-2.58-4.27-3.25-6.59-.46-1.59-1.05-3.25-1.79-4.57-2.05-3.68-3.31-3.85-4.45-3.33-.51,.23-.91,.56-1.01,1.18-.04,.25-.27,.42-.53,.38-.62-.09-1.06,.19-1.43,.6-.85,.92-1.07,2.17,1.79,5.26,1.03,1.11,2.43,2.19,3.79,3.11,1.99,1.35,3.79,3.1,5.26,5.12l.64,.88c-2.56,1.96-4.85,4.25-6.82,6.8l-.9-.66c-2.02-1.47-3.78-3.27-5.12-5.26-.93-1.37-2-2.77-3.11-3.79-3.09-2.87-4.33-2.64-5.26-1.79-.41,.38-.69,.81-.6,1.43,.04,.25-.13,.48-.38,.53-.62,.11-.94,.51-1.18,1.01-.52,1.14-.35,2.39,3.33,4.45,1.32,.74,2.98,1.33,4.57,1.79,2.31,.67,4.56,1.78,6.59,3.25l.9,.65c-1.82,2.63-3.3,5.5-4.4,8.56l-1.07-.35c-2.38-.77-4.6-1.94-6.5-3.42-1.3-1.02-2.76-2.01-4.13-2.65-3.83-1.77-4.94-1.17-5.55-.08-.27,.48-.4,.99-.13,1.55,.11,.23,.03,.5-.2,.62-.55,.29-.74,.77-.81,1.33-.14,1.25,.4,2.39,4.54,3.2,1.48,.29,3.25,.34,4.9,.29,2.41-.08,4.89,.28,7.27,1.05l1.07,.35c-.9,3.02-1.43,6.21-1.53,9.5h-1.14c-2.5,0-4.98-.42-7.24-1.24-1.55-.56-3.25-1.06-4.75-1.24-4.19-.5-5.06,.41-5.31,1.64-.11,.55-.08,1.06,.36,1.51,.18,.18,.18,.47,0,.65-.44,.45-.47,.96-.36,1.51,.25,1.23,1.12,2.14,5.31,1.64,1.5-.18,3.2-.68,4.75-1.24,2.26-.82,4.74-1.24,7.24-1.24h1.14c.07,3.29,.58,6.48,1.45,9.51l-1.07,.35c-2.38,.77-4.86,1.13-7.27,1.05-1.65-.06-3.41,0-4.9,.29-4.14,.82-4.68,1.95-4.54,3.2,.06,.55,.25,1.03,.81,1.33,.23,.12,.32,.39,.2,.62-.28,.56-.15,1.06,.13,1.55,.62,1.09,1.73,1.69,5.55-.08,1.37-.64,2.83-1.63,4.13-2.65,1.9-1.48,4.12-2.65,6.5-3.42l1.06-.35c1.07,3.07,2.53,5.96,4.33,8.6l-.9,.65c-2.02,1.47-4.27,2.58-6.59,3.25-1.59,.46-3.25,1.05-4.57,1.79-3.68,2.05-3.85,3.31-3.33,4.45,.23,.51,.56,.91,1.18,1.01,.25,.04,.42,.27,.38,.53-.09,.62,.19,1.05,.6,1.43,.92,.85,2.17,1.07,5.26-1.79,1.11-1.03,2.19-2.43,3.11-3.79,1.35-1.99,3.1-3.79,5.12-5.26l.89-.65c1.95,2.57,4.23,4.87,6.77,6.86l-.64,.88c-1.47,2.03-3.27,3.78-5.26,5.12-1.37,.93-2.77,2-3.79,3.11-2.87,3.09-2.64,4.33-1.79,5.26,.38,.41,.81,.69,1.43,.6,.25-.04,.49,.13,.53,.38,.11,.62,.51,.94,1.01,1.18,1.14,.52,2.39,.35,4.45-3.33,.74-1.32,1.33-2.98,1.79-4.57,.67-2.31,1.78-4.56,3.25-6.59l.63-.86c2.63,1.83,5.5,3.34,8.56,4.45l-.32,.98c-.77,2.38-1.94,4.6-3.42,6.5-1.02,1.3-2.01,2.76-2.65,4.13-1.77,3.83-1.17,4.94-.08,5.55,.49,.27,.99,.4,1.55,.13,.23-.11,.5-.03,.62,.2,.29,.55,.77,.74,1.33,.81,1.25,.14,2.39-.4,3.2-4.54,.29-1.48,.34-3.25,.29-4.9-.08-2.41,.28-4.89,1.05-7.27l.32-.97c3.03,.92,6.23,1.46,9.53,1.57v1c0,2.5-.42,4.98-1.24,7.24-.56,1.55-1.06,3.25-1.24,4.75-.5,4.19,.41,5.06,1.64,5.31,.55,.11,1.06,.08,1.51-.36,.18-.18,.47-.18,.65,0,.45,.44,.96,.47,1.51,.36,1.23-.25,2.14-1.12,1.64-5.31-.18-1.5-.68-3.2-1.24-4.75-.82-2.26-1.24-4.74-1.24-7.24v-.99c3.31-.06,6.52-.56,9.57-1.43l.29,.9c.77,2.38,1.13,4.86,1.05,7.27-.06,1.65,0,3.41,.29,4.9,.82,4.14,1.95,4.68,3.2,4.54,.55-.06,1.03-.25,1.33-.81,.12-.23,.39-.32,.62-.2,.56,.28,1.06,.15,1.55-.13,1.09-.62,1.69-1.73-.08-5.55-.64-1.37-1.63-2.83-2.65-4.13-1.48-1.9-2.65-4.12-3.42-6.5l-.29-.89c3.09-1.07,6-2.54,8.66-4.34l.54,.74c1.47,2.03,2.58,4.27,3.25,6.59,.46,1.59,1.05,3.25,1.79,4.57,2.05,3.68,3.31,3.85,4.45,3.33,.51-.23,.91-.56,1.01-1.18,.04-.25,.27-.42,.53-.38,.62,.09,1.05-.19,1.43-.6,.85-.92,1.07-2.17-1.79-5.26-1.03-1.11-2.43-2.19-3.79-3.11-1.99-1.35-3.79-3.1-5.26-5.12l-.53-.73c2.59-1.96,4.91-4.25,6.9-6.81l.72,.52c2.02,1.47,3.78,3.27,5.12,5.26,.93,1.37,2,2.77,3.11,3.79,3.09,2.87,4.33,2.64,5.26,1.79,.41-.38,.69-.81,.6-1.43-.04-.25,.13-.48,.38-.53,.62-.11,.94-.51,1.18-1.01,.52-1.14,.35-2.39-3.33-4.45-1.32-.74-2.98-1.33-4.57-1.79-2.31-.67-4.56-1.78-6.59-3.25l-.71-.51c1.84-2.64,3.35-5.54,4.46-8.62l.82,.27c2.38,.77,4.6,1.94,6.5,3.42,1.3,1.02,2.76,2.01,4.13,2.65,3.83,1.77,4.94,1.17,5.55,.08,.27-.48,.4-.99,.13-1.55-.11-.23-.03-.5,.2-.62,.55-.29,.74-.77,.81-1.33,.14-1.25-.4-2.39-4.54-3.2-1.48-.29-3.25-.34-4.9-.29-2.41,.08-4.89-.28-7.27-1.05l-.81-.26c.92-3.05,1.45-6.26,1.55-9.58h.86c2.5,0,4.98,.42,7.24,1.24,1.55,.56,3.25,1.06,4.75,1.24,4.19,.5,5.06-.41,5.31-1.64,.11-.55,.08-1.06-.36-1.51-.18-.18-.18-.47,0-.65Z"/><path class="ab" d="M1677.13,548.64c3.01,12.01,15.18,19.3,27.18,16.29,12.01-3.01,19.3-15.18,16.29-27.18-2.74-10.96-1.06-22.33,4.75-32.02,5.81-9.69,15.04-16.54,26-19.28,9.5-2.38,16.03-10.5,16.86-19.73,6.55-.84,14.89-3.03,23.74-8.2,21.5-12.54,37.25-11.05,48.16,4.57,.59,.84,1.76,1.05,2.6,.46,.84-.59,1.05-1.75,.46-2.6-8.43-12.06-19.69-16.63-33.61-13.68-6,1.27-12.51,3.95-19.49,8.02-8.08,4.71-15.76,6.77-21.85,7.61-.1-1.21-.27-2.42-.58-3.64-.63-2.51-1.68-4.81-3.03-6.86,7.91-6.88,18.67-13.82,30.41-14.48,25.25-1.41,45.37-19.06,46.22-19.81,.77-.69,.84-1.87,.16-2.64-.46-.52-1.15-.72-1.79-.59-.31,.07-.6,.21-.85,.43-.2,.18-20.05,17.53-43.95,18.88-12.77,.72-24.2,7.99-32.54,15.21-1.43-1.53-3.06-2.85-4.85-3.92-1.55-.93-3.22-1.65-4.95-2.18,6.55-7.67,17-13.52,26.61-16.08,11.32-3.03,21.4-12.84,26.81-18.11,1.42-1.38,2.65-2.58,3.38-3.15,.82-.63,.97-1.8,.34-2.62-.45-.59-1.19-.83-1.87-.68-.27,.06-.52,.17-.75,.35-.9,.7-2.14,1.9-3.7,3.43-5.53,5.39-14.79,14.4-25.17,17.18-10.61,2.83-22.67,9.53-29.78,18.84-2.57-.28-5.22-.15-7.88,.52-22.57,5.65-41.59,19.76-53.55,39.71-11.96,19.96-15.44,43.38-9.78,65.95Z"/><path class="q" d="M1811.82,42.44c-6.9,10.27-4.18,24.2,6.1,31.1,10.27,6.9,24.19,4.18,31.1-6.1,6.3-9.37,15.88-15.74,26.96-17.91,11.09-2.17,22.35,.1,31.73,6.4,8.13,5.46,18.53,4.87,25.94-.69,5.01,4.3,12.21,9.03,21.99,12.15,23.71,7.58,33.14,20.27,28.85,38.83-.23,1.01,.4,2.01,1.4,2.24,1,.23,2.01-.39,2.24-1.4,3.32-14.34-.83-25.76-12.34-34.12-4.97-3.61-11.31-6.65-19.01-9.11-8.91-2.85-15.59-7.18-20.28-11.14,.83-.88,1.62-1.82,2.32-2.86,1.45-2.15,2.45-4.47,3.07-6.84,10.4,1.27,22.76,4.61,31.11,12.89,17.95,17.82,44.53,20.94,45.66,21.07,1.03,.11,1.95-.63,2.06-1.65,.08-.69-.23-1.34-.76-1.72-.25-.18-.55-.31-.89-.34-.26-.03-26.44-3.16-43.44-20.01-9.09-9.01-22.14-12.63-33.08-13.98,.18-2.09,.07-4.19-.33-6.23-.35-1.77-.93-3.49-1.7-5.14,10.08-.27,21.42,3.58,29.76,9,9.83,6.38,23.86,7.3,31.4,7.79,1.98,.13,3.69,.24,4.6,.41,1.01,.18,1.99-.49,2.17-1.51,.13-.73-.18-1.44-.74-1.85-.22-.16-.48-.27-.76-.32-1.12-.2-2.84-.32-5.03-.46-7.71-.5-20.6-1.34-29.61-7.19-9.21-5.98-22.26-10.46-33.93-9.51-1.51-2.1-3.39-3.98-5.66-5.5-19.31-12.98-42.52-17.67-65.35-13.19-22.83,4.48-42.56,17.57-55.54,36.89Z"/><path class="o" d="M2584.54,266.6c1.05-12.33-8.1-23.18-20.43-24.23-12.33-1.05-23.18,8.1-24.23,20.43-.96,11.26-6.24,21.47-14.88,28.75-8.64,7.28-19.59,10.77-30.85,9.81-9.76-.83-18.57,4.74-22.35,13.2-6.47-1.33-15.06-1.96-25.12,.05-24.41,4.89-38.82-1.63-44.07-19.94-.29-.99-1.33-1.56-2.31-1.28-.99,.29-1.56,1.32-1.28,2.31,4.06,14.14,13.23,22.12,27.36,23.84,6.09,.74,13.11,.32,21.04-1.27,9.17-1.83,17.11-1.29,23.14-.11-.3,1.18-.53,2.38-.64,3.63-.22,2.58,.03,5.09,.64,7.47-9.71,3.94-22.14,7.02-33.46,3.84-24.35-6.86-49.1,3.32-50.14,3.75-.95,.4-1.4,1.49-1,2.44,.27,.64,.85,1.06,1.5,1.13,.31,.04,.63,0,.94-.13,.24-.1,24.65-10.08,47.69-3.6,12.32,3.46,25.49,.29,35.71-3.84,.86,1.91,1.97,3.69,3.31,5.28,1.16,1.38,2.51,2.6,3.98,3.67-8.68,5.13-20.47,7.27-30.38,6.59-11.69-.81-24.41,5.21-31.24,8.44-1.79,.85-3.34,1.58-4.22,1.88-.98,.33-1.5,1.39-1.17,2.37,.24,.7,.85,1.17,1.54,1.25,.27,.03,.55,0,.83-.09,1.08-.37,2.64-1.1,4.62-2.04,6.98-3.3,18.66-8.83,29.38-8.09,10.95,.76,24.53-1.66,34.28-8.16,2.34,1.1,4.89,1.83,7.62,2.06,23.18,1.97,45.75-5.2,63.54-20.2,17.79-15,28.67-36.03,30.64-59.21Z"/><path class="ab" d="M875.9,21.61c9.52,7.91,10.81,22.04,2.9,31.56-7.91,9.52-22.04,10.81-31.56,2.9-8.69-7.22-19.66-10.63-30.91-9.6-11.25,1.03-21.42,6.39-28.65,15.07-6.26,7.53-16.41,9.89-25.09,6.64-3.6,5.54-9.18,12.1-17.68,17.84-20.62,13.94-26.1,28.78-16.76,45.38,.5,.9,.18,2.04-.71,2.54-.9,.5-2.04,.19-2.54-.71-7.22-12.83-6.45-24.95,2.25-36.22,3.75-4.86,8.98-9.56,15.68-14.08,7.74-5.24,12.94-11.27,16.33-16.39-1.05-.61-2.07-1.29-3.03-2.09-1.99-1.66-3.6-3.6-4.87-5.7-9.62,4.14-20.55,10.83-26.23,21.12-12.22,22.15-36.84,32.62-37.89,33.06-.95,.4-2.05-.05-2.44-1-.27-.64-.15-1.35,.25-1.86,.19-.25,.45-.45,.75-.58,.24-.1,24.49-10.47,36.06-31.42,6.19-11.2,17.69-18.35,27.81-22.73-.76-1.95-1.24-4-1.43-6.07-.17-1.8-.09-3.61,.18-5.41-9.75,2.58-19.55,9.46-26.03,17-7.64,8.89-20.85,13.72-27.94,16.31-1.86,.68-3.48,1.27-4.3,1.68-.92,.46-2.04,.09-2.51-.83-.33-.66-.23-1.43,.19-1.98,.17-.22,.38-.4,.64-.53,1.02-.51,2.64-1.1,4.69-1.85,7.25-2.65,19.39-7.09,26.39-15.24,7.15-8.33,18.42-16.3,29.88-18.67,.86-2.44,2.13-4.77,3.88-6.87,14.88-17.89,35.83-28.91,59-31.04,23.17-2.13,45.78,4.89,63.67,19.77Z"/><path class="h" d="M1703.04,420.71c-6.3,0-11.53,4.61-12.49,10.63h-11.9c-.43-6.05-2.8-11.57-6.48-15.95l16.05-16.05c1.21,.62,2.58,.97,4.03,.97,4.9,0,8.87-3.97,8.87-8.87s-3.97-8.87-8.87-8.87-8.87,3.97-8.87,8.87c0,1.71,.49,3.3,1.33,4.66l-15.91,15.91c-4.29-3.61-9.67-5.95-15.58-6.45v-11.28c6.92-1.14,12.19-7.14,12.19-14.38,0-8.05-6.53-14.58-14.58-14.58s-14.58,6.53-14.58,14.58c0,7.24,5.28,13.24,12.19,14.38v11.28c-13.63,1.16-24.46,12.1-25.44,25.78h-27.89c-.99-7.09-7.07-12.56-14.44-12.56-8.05,0-14.58,6.53-14.58,14.58s6.53,14.58,14.58,14.58c7.36,0,13.45-5.46,14.44-12.56h27.89c.43,6.05,2.8,11.57,6.48,15.95l-18.33,18.33c-1.29-.73-2.77-1.15-4.35-1.15-4.9,0-8.87,3.97-8.87,8.87s3.97,8.87,8.87,8.87,8.87-3.97,8.87-8.87c0-1.58-.42-3.07-1.15-4.35l18.33-18.33c4.29,3.61,9.67,5.95,15.58,6.45v26.17c-5.85,1.12-10.27,6.26-10.27,12.43,0,6.99,5.67,12.66,12.66,12.66s12.66-5.67,12.66-12.66c0-6.17-4.42-11.31-10.27-12.43v-26.17c13.63-1.16,24.46-12.1,25.44-25.78h11.9c.97,6.03,6.19,10.63,12.49,10.63,6.99,0,12.66-5.67,12.66-12.66s-5.67-12.66-12.66-12.66Z"/><path class="q" d="M1567.36,104.56c-4.49-4.43-11.44-4.82-16.36-1.21l-8.47-8.36c3.94-4.62,6.14-10.2,6.59-15.9l22.7-.15c.43,1.29,1.15,2.5,2.18,3.52,3.49,3.44,9.11,3.4,12.55-.08,3.44-3.49,3.4-9.11-.08-12.55-3.49-3.44-9.11-3.4-12.55,.08-1.2,1.22-1.97,2.7-2.32,4.25l-22.5,.15c-.51-5.58-2.7-11.03-6.56-15.54l7.93-8.03c5.72,4.05,13.7,3.48,18.78-1.67,5.66-5.73,5.59-14.96-.14-20.62-5.73-5.66-14.96-5.59-20.62,.14-5.08,5.15-5.55,13.13-1.42,18.8l-7.93,8.03c-10.51-8.75-25.91-8.57-36.21,.48l-19.85-19.59c4.28-5.74,3.78-13.9-1.46-19.08-5.73-5.66-14.96-5.59-20.62,.14s-5.59,14.96,.14,20.62c5.24,5.17,13.41,5.56,19.09,1.2l19.85,19.59c-3.94,4.62-6.14,10.2-6.59,15.9l-25.92,.17c-.41-1.42-1.17-2.76-2.29-3.87-3.49-3.44-9.11-3.4-12.55,.08-3.44,3.49-3.4,9.11,.08,12.55,3.49,3.44,9.11,3.4,12.55-.08,1.11-1.13,1.85-2.48,2.24-3.9l25.92-.17c.51,5.58,2.7,11.03,6.56,15.54l-18.38,18.63c-4.95-3.31-11.71-2.76-16.04,1.63-4.91,4.98-4.86,12.99,.12,17.9,4.98,4.91,12.99,4.86,17.9-.12,4.34-4.4,4.8-11.16,1.42-16.06l18.38-18.63c10.51,8.75,25.91,8.57,36.21-.48l8.47,8.36c-3.54,4.97-3.06,11.92,1.43,16.34,4.98,4.91,12.99,4.86,17.9-.12s4.86-12.99-.12-17.9Z"/><path class="q" d="M2464.51,41.18c5.73,5.65,14.6,6.15,20.89,1.54l10.81,10.67c-5.03,5.89-7.84,13.02-8.41,20.3l-28.97,.19c-.55-1.65-1.47-3.19-2.79-4.5-4.45-4.39-11.62-4.35-16.02,.11-4.39,4.45-4.35,11.62,.11,16.02,4.45,4.39,11.62,4.35,16.02-.11,1.53-1.56,2.51-3.44,2.97-5.43l28.73-.19c.66,7.12,3.45,14.08,8.37,19.84l-10.12,10.25c-7.31-5.17-17.48-4.44-23.97,2.14-7.22,7.32-7.14,19.1,.18,26.32,7.32,7.22,19.1,7.14,26.32-.18,6.49-6.58,7.08-16.76,1.82-24l10.12-10.25c13.42,11.17,33.07,10.94,46.22-.61l25.34,25c-5.46,7.33-4.83,17.75,1.86,24.35,7.32,7.22,19.1,7.14,26.32-.18s7.14-19.1-.18-26.32c-6.69-6.6-17.12-7.1-24.37-1.54l-25.34-25c5.03-5.89,7.84-13.02,8.41-20.3l33.08-.22c.52,1.81,1.49,3.52,2.93,4.94,4.45,4.39,11.62,4.35,16.02-.11,4.39-4.45,4.35-11.62-.11-16.02-4.45-4.39-11.62-4.35-16.02,.11-1.42,1.44-2.37,3.16-2.86,4.98l-33.08,.22c-.66-7.12-3.45-14.08-8.37-19.84l23.46-23.78c6.32,4.23,14.94,3.52,20.48-2.09,6.27-6.35,6.2-16.58-.15-22.85-6.35-6.27-16.58-6.2-22.85,.15-5.54,5.61-6.13,14.24-1.81,20.5l-23.46,23.78c-13.42-11.17-33.07-10.94-46.23,.61l-10.81-10.67c4.52-6.35,3.91-15.21-1.82-20.86-6.35-6.27-16.58-6.2-22.85,.15-6.27,6.35-6.2,16.58,.15,22.85Z"/><path class="ab" d="M2138.95,247.66c-2.34-4.62-7.66-6.74-12.45-5.21l-4.42-8.73c4.28-2.57,7.45-6.35,9.29-10.68l17.74,5.8c0,1.12,.24,2.25,.78,3.32,1.82,3.59,6.21,5.03,9.81,3.21,3.59-1.82,5.03-6.21,3.21-9.81-1.82-3.59-6.21-5.03-9.81-3.21-1.26,.64-2.24,1.59-2.92,2.71l-17.59-5.76c1.06-4.49,.77-9.31-1.06-13.83l8.28-4.2c3.41,4.65,9.77,6.29,15.08,3.6,5.91-2.99,8.27-10.21,5.27-16.12-2.99-5.91-10.21-8.27-16.12-5.27-5.31,2.69-7.75,8.79-6.02,14.29l-8.28,4.2c-5.92-9.57-17.97-13.44-28.37-9.08l-10.37-20.46c4.84-3.36,6.58-9.86,3.84-15.26-2.99-5.91-10.21-8.27-16.12-5.27-5.91,2.99-8.27,10.21-5.27,16.12,2.74,5.4,9.01,7.84,14.58,5.92l10.37,20.46c-4.28,2.57-7.45,6.35-9.29,10.68l-20.26-6.63c.05-1.21-.19-2.46-.78-3.62-1.82-3.59-6.21-5.03-9.81-3.21-3.59,1.82-5.03,6.21-3.21,9.81,1.82,3.59,6.21,5.03,9.81,3.21,1.16-.59,2.09-1.45,2.77-2.46l20.26,6.63c-1.06,4.49-.77,9.31,1.06,13.83l-19.2,9.73c-2.99-3.88-8.41-5.21-12.94-2.91-5.13,2.6-7.18,8.86-4.58,13.99,2.6,5.13,8.86,7.18,13.99,4.58,4.53-2.3,6.65-7.45,5.3-12.16l19.2-9.73c5.92,9.57,17.97,13.44,28.37,9.08l4.42,8.73c-4.06,2.95-5.5,8.5-3.15,13.12,2.6,5.13,8.86,7.18,13.99,4.58,5.13-2.6,7.18-8.86,4.58-13.99Z"/><path class="h" d="M2366.59,310.72c-6.3,0-11.53,4.61-12.49,10.63h-11.9c-.43-6.05-2.8-11.57-6.48-15.95l16.05-16.05c1.21,.62,2.58,.97,4.03,.97,4.9,0,8.87-3.97,8.87-8.87s-3.97-8.87-8.87-8.87-8.87,3.97-8.87,8.87c0,1.71,.49,3.3,1.33,4.66l-15.91,15.91c-4.29-3.61-9.67-5.95-15.58-6.45v-11.28c6.92-1.14,12.19-7.14,12.19-14.38,0-8.05-6.53-14.58-14.58-14.58s-14.58,6.53-14.58,14.58c0,7.24,5.28,13.24,12.19,14.38v11.28c-13.63,1.16-24.46,12.1-25.44,25.78h-27.89c-.99-7.09-7.07-12.56-14.44-12.56-8.05,0-14.58,6.53-14.58,14.58s6.53,14.58,14.58,14.58c7.36,0,13.45-5.46,14.44-12.56h27.89c.43,6.05,2.8,11.57,6.48,15.95l-18.33,18.33c-1.29-.73-2.77-1.15-4.35-1.15-4.9,0-8.87,3.97-8.87,8.87s3.97,8.87,8.87,8.87,8.87-3.97,8.87-8.87c0-1.58-.42-3.07-1.15-4.35l18.33-18.33c4.29,3.61,9.67,5.95,15.58,6.45v26.17c-5.85,1.12-10.27,6.26-10.27,12.43,0,6.99,5.67,12.66,12.66,12.66s12.66-5.67,12.66-12.66c0-6.17-4.42-11.31-10.27-12.43v-26.17c13.63-1.16,24.46-12.1,25.44-25.78h11.9c.97,6.03,6.19,10.63,12.49,10.63,6.99,0,12.66-5.67,12.66-12.66s-5.67-12.66-12.66-12.66Z"/><circle class="b" cx="1664.95" cy="635.89" r="44.04" transform="translate(38.01 1363.54) rotate(-45)"/><circle class="b" cx="1558.53" cy="563.93" r="24.02" transform="translate(57.72 1267.22) rotate(-45)"/><line class="b" x1="1704.7" y1="616.92" x2="1810.68" y2="567.31"/><line class="b" x1="1578.28" y1="578.37" x2="1628.76" y2="610.77"/><line class="b" x1="1810.68" y1="567.31" x2="1872.97" y2="588.65"/><line class="b" x1="1540.14" y1="579.38" x2="1506.88" y2="620.9"/><circle class="ad" cx="1810.68" cy="567.31" r="28.24" transform="translate(-8.03 1108.34) rotate(-33.96)"/><circle class="ab" cx="1876.28" cy="589.79" r="14.12" transform="translate(-9.39 1148.81) rotate(-33.96)"/><circle class="e" cx="1506.88" cy="620.9" r="14.12" transform="translate(334.67 1753.22) rotate(-66.4)"/><circle class="q" cx="1109.86" cy="103.16" r="44.04" transform="translate(252.13 815.01) rotate(-45)"/><circle class="b" cx="1003.44" cy="31.2" r="24.02" transform="translate(271.84 718.68) rotate(-45)"/><line class="b" x1="1149.61" y1="84.19" x2="1255.6" y2="34.58"/><line class="b" x1="1023.2" y1="45.64" x2="1073.67" y2="78.04"/><line class="b" x1="1255.6" y1="34.58" x2="1317.88" y2="55.92"/><line class="b" x1="985.06" y1="46.66" x2="951.79" y2="88.17"/><circle class="ad" cx="1255.6" cy="34.58" r="28.24" transform="translate(194.89 707.35) rotate(-33.96)"/><circle class="ab" cx="1321.19" cy="57.06" r="14.12" transform="translate(193.52 747.82) rotate(-33.96)"/><circle class="e" cx="951.79" cy="88.17" r="14.12" transform="translate(489.97 925.08) rotate(-66.4)"/><path class="b" d="M2024.21,294.86c28.31,64.62,179.28,71.91,179.28,149.76s-149.19,85.05-178.76,148.61"/><path class="b" d="M2183.25,295.42c-28.93,64.1-179.03,71.58-179.03,149.2s150.86,85.13,179.25,149.68"/><line class="b" x1="2203.49" y1="445.55" x2="2004.22" y2="445.55"/><line class="b" x1="2172.21" y1="390.93" x2="2039.43" y2="390.93"/><line class="b" x1="2172.21" y1="499.25" x2="2039.43" y2="499.25"/><line class="b" x1="2172.21" y1="576.48" x2="2039.43" y2="576.48"/><line class="b" x1="2172.21" y1="314.89" x2="2039.43" y2="314.89"/><circle class="e" cx="2172.21" cy="314.89" r="12.2"/><circle class="ab" cx="2039.43" cy="314.89" r="8.69" transform="translate(374.68 1534.32) rotate(-45)"/><circle class="i" cx="2172.21" cy="576.48" r="16.77"/><circle class="i" cx="2039.43" cy="576.48" r="12.2"/><circle class="ad" cx="2172.21" cy="499.25" r="18.37"/><circle class="e" cx="2039.43" cy="499.25" r="8.71"/><circle class="ab" cx="2172.21" cy="390.93" r="8.92" transform="translate(359.8 1650.48) rotate(-45)"/><circle class="ag" cx="2203.49" cy="445.55" r="15.71" transform="translate(-2.77 877.15) rotate(-22.5)"/><circle class="e" cx="2004.22" cy="445.55" r="8.65" transform="translate(1110.11 2293.79) rotate(-76.72)"/><circle class="p" cx="2039.43" cy="390.93" r="19.65" transform="translate(1190.4 2285.99) rotate(-76.72)"/><path class="c" d="M1773.37,959.09s-20.1-94.19,28.21-123.36c67.57-40.81,135.25,126.69,67.57,123.36-67.67-3.33-39.27-178.42,41.23-185.73"/><path class="u" d="M1867.62,275.31c-4.69,3.44-10.47,5.47-16.73,5.47s-12.04-2.03-16.73-5.47c2.02,22.73,2.86,107.44-100.55,86.97,0,0,95.37,49.79,117.28-41.52,21.91,91.31,117.28,41.52,117.28,41.52-103.4,20.47-102.57-64.24-100.55-86.97Z"/><path class="u" d="M1862.32,226.53c5.32,2.34,9.97,6.33,13.1,11.75,3.13,5.42,4.26,11.45,3.63,17.23,18.67-13.12,91.61-56.19,125.59,43.59,0,0-4.56-107.49-94.59-80.81,68.12-64.63-22.68-122.32-22.68-122.32,69.43,79.32-4.35,120.95-25.05,130.56Z"/><path class="u" d="M1822.73,255.51c-.63-5.78,.5-11.8,3.63-17.23,3.13-5.42,7.78-9.41,13.1-11.75-20.7-9.61-94.47-51.24-25.05-130.56,0,0-90.8,57.69-22.68,122.32-90.03-26.68-94.59,80.81-94.59,80.81,33.98-99.78,106.92-56.71,125.59-43.59Z"/><path class="u" d="M1887.83,196.01c-3.49-2.36-7.21-4.38-11.08-6.01-3.93-1.66-8.05-2.94-12.24-3.8-8.6-1.76-17.72-1.76-26.32,0-4.19,.86-8.3,2.13-12.24,3.8-3.87,1.64-7.59,3.66-11.08,6.01l-10.18-15.07c4.46-3.01,9.23-5.6,14.18-7.69,5.04-2.13,10.31-3.77,15.67-4.87,10.99-2.25,22.62-2.25,33.61,0,5.36,1.1,10.64,2.73,15.67,4.87,4.95,2.09,9.72,4.68,14.18,7.69l-10.18,15.07Z"/><path class="u" d="M1818.41,322.33c-4.94-2.09-9.71-4.68-14.18-7.69-4.42-2.98-8.57-6.41-12.34-10.18-3.77-3.77-7.2-7.93-10.18-12.34-3.01-4.46-5.6-9.23-7.69-14.18-2.13-5.04-3.77-10.31-4.87-15.67-1.12-5.5-1.69-11.15-1.69-16.81h18.18c0,4.43,.45,8.86,1.33,13.16,.86,4.19,2.13,8.3,3.8,12.24,1.63,3.86,3.66,7.59,6.01,11.08,2.34,3.46,5.02,6.71,7.97,9.66,2.95,2.95,6.21,5.64,9.66,7.97,3.49,2.36,7.22,4.38,11.08,6.01l-7.08,16.75Z"/><path class="u" d="M1883.37,322.33l-7.08-16.75c3.86-1.63,7.59-3.66,11.08-6.01,3.46-2.34,6.71-5.02,9.66-7.97,2.96-2.96,5.64-6.21,7.97-9.66,2.36-3.49,4.38-7.22,6.01-11.08,1.66-3.93,2.94-8.05,3.8-12.24,.88-4.3,1.33-8.73,1.33-13.16h18.18c0,5.65-.57,11.31-1.7,16.81-1.1,5.36-2.73,10.64-4.87,15.67-2.09,4.95-4.68,9.72-7.69,14.18-2.98,4.42-6.41,8.57-10.18,12.34-3.77,3.77-7.92,7.2-12.34,10.18-4.46,3.01-9.23,5.6-14.18,7.69Z"/><path class="q" d="M1572.83,159.25c-22.61,0-43.87,8.8-59.85,24.79-15.99,15.99-24.79,37.24-24.79,59.85s8.8,43.87,24.79,59.85c15.99,15.99,37.24,24.79,59.85,24.79h45.76v-34.48h-45.76c-27.66,0-50.17-22.51-50.17-50.17s22.51-50.17,50.17-50.17h45.76v-34.48h-45.76Z"/><rect class="f" x="1618.59" y="294.07" width="44.6" height="34.48"/><rect class="f" x="1618.59" y="159.25" width="44.6" height="34.48"/><path class="c" d="M1960.77,287.89s-10.72-106.46,28.08-155.98c38.81-49.52,109.36,36.79,82.14,77.99s-50.97-100.34,6.09-143.65c67.53-51.25,152.17,19.52,152.17,19.52"/><path class="d" d="M1349.24,318.3s75.97-98.34,16.92-193.42c-59.04-95.07-90.96,1.25-32.31,49.01,58.65,47.77,112.54,14.23,82.58-97.12"/><path class="d" d="M791.33,103.23S625.44-12.96,508.32,46.26c-117.12,59.21,134.14,159.63,151.85,95.72,17.71-63.92-263.56-84.25-308-4.52"/><path class="g" d="M1309.95,1151.94c16.53,0,29.93-13.4,29.93-29.93,0,16.53,13.4,29.93,29.93,29.93-16.53,0-29.93,13.4-29.93,29.93,0-16.53-13.4-29.93-29.93-29.93Z"/><path class="g" d="M1765.01,1423.01c16.53,0,29.93-13.4,29.93-29.93,0,16.53,13.4,29.93,29.93,29.93-16.53,0-29.93,13.4-29.93,29.93,0-16.53-13.4-29.93-29.93-29.93Z"/><path class="g" d="M1980.6,635.89c16.53,0,29.93-13.4,29.93-29.93,0,16.53,13.4,29.93,29.93,29.93-16.53,0-29.93,13.4-29.93,29.93,0-16.53-13.4-29.93-29.93-29.93Z"/><path class="g" d="M2259.65,475.16c16.53,0,29.93-13.4,29.93-29.93,0,16.53,13.4,29.93,29.93,29.93-16.53,0-29.93,13.4-29.93,29.93,0-16.53-13.4-29.93-29.93-29.93Z"/><path class="g" d="M1693.22,332.89c16.53,0,29.93-13.4,29.93-29.93,0,16.53,13.4,29.93,29.93,29.93-16.53,0-29.93,13.4-29.93,29.93,0-16.53-13.4-29.93-29.93-29.93Z"/><path class="g" d="M955.92,355.52c16.53,0,29.93-13.4,29.93-29.93,0,16.53,13.4,29.93,29.93,29.93-16.53,0-29.93,13.4-29.93,29.93,0-16.53-13.4-29.93-29.93-29.93Z"/><path class="g" d="M1698.99,1368.09c9.22,0,16.7-7.48,16.7-16.7,0,9.22,7.48,16.7,16.7,16.7-9.22,0-16.7,7.48-16.7,16.7,0-9.22-7.48-16.7-16.7-16.7Z"/><path class="g" d="M1556.39,372.22c9.22,0,16.7-7.48,16.7-16.7,0,9.22,7.48,16.7,16.7,16.7-9.22,0-16.7,7.48-16.7,16.7,0-9.22-7.48-16.7-16.7-16.7Z"/><path class="g" d="M1506.81,688.22c9.22,0,16.7-7.48,16.7-16.7,0,9.22,7.48,16.7,16.7,16.7-9.22,0-16.7,7.48-16.7,16.7,0-9.22-7.48-16.7-16.7-16.7Z"/><path class="g" d="M1247,180.42c9.22,0,16.7-7.48,16.7-16.7,0,9.22,7.48,16.7,16.7,16.7-9.22,0-16.7,7.48-16.7,16.7,0-9.22-7.48-16.7-16.7-16.7Z"/><path class="g" d="M1059.94,188.82c9.22,0,16.7-7.48,16.7-16.7,0,9.22,7.48,16.7,16.7,16.7-9.22,0-16.7,7.48-16.7,16.7,0-9.22-7.48-16.7-16.7-16.7Z"/></svg>