<?xml version="1.0" encoding="utf-8"?>
<!-- Generator: Adobe Illustrator 26.3.1, SVG Export Plug-In . SVG Version: 6.00 Build 0)  -->
<svg version="1.1" id="a" xmlns="http://www.w3.org/2000/svg" xmlns:xlink="http://www.w3.org/1999/xlink" x="0px" y="0px"
	 viewBox="0 0 3156.8 1678.2" style="enable-background:new 0 0 3156.8 1678.2;" xml:space="preserve">
<style type="text/css">
	.st0{fill:#5993AD;}
	.st1{fill:#D5E2E8;}
	.st2{fill:#E57536;}
	.st3{fill:#1D7198;}
	.st4{fill:#EDA176;}
	.st5{fill:#CAC4C0;}
	.st6{fill:#E8834A;}
	.st7{fill:#F3BEA1;}
	.st8{fill:#004869;}
	.st9{fill:#E5A079;}
	.st10{fill:#FFFFFF;}
	.st11{fill:none;stroke:#638492;stroke-width:2.45;stroke-miterlimit:10;}
	.st12{fill:#EAB191;}
	.st13{opacity:0.7;fill:#BDD3DD;enable-background:new    ;}
	.st14{fill:none;stroke:#577A89;stroke-width:14.53;stroke-linecap:round;stroke-linejoin:round;}
	.st15{fill:#577A89;}
	.st16{fill:#FAE2D5;}
	.st17{fill:#C69483;}
	.st18{fill:#EEC1A8;}
	.st19{fill:#00354C;}
	.st20{fill:#005981;}
	.st21{fill:#EFAC86;}
	.st22{opacity:0.76;fill:#FFFFFF;enable-background:new    ;}
	.st23{fill:#FFCDB1;}
	.st24{fill:#F1CEBA;}
	.st25{fill:#0F4157;}
	.st26{fill:#E7A985;}
	.st27{fill:#C8DAE3;}
	.st28{fill:#365F72;}
	.st29{fill:#A9262C;}
	.st30{fill:#EA9260;}
	.st31{fill:none;stroke:#EFAC86;stroke-width:9.25;stroke-linecap:round;stroke-linejoin:round;}
</style>
<path class="st0" d="M774.5,519.3c51.3,0,94.6,34.4,108,81.4h-216C679.9,553.8,723.2,519.3,774.5,519.3z"/>
<path class="st0" d="M248.1,480.8c75.6,0,139.3,50.7,159.1,119.9H89C108.8,531.5,172.5,480.8,248.1,480.8L248.1,480.8z"/>
<path class="st0" d="M741.8,600.8c-24.4-84.4-121.1-147.5-236.6-147.5s-212.2,63-236.6,147.5H741.8z"/>
<path class="st1" d="M2398.6,387.5c-71.6,0-140.8,9.9-206.5,28.4C2023.3,198.6,1759.5,58.7,1463,58.7
	c-439.8,0-807.6,307.7-900.1,719.5c-12.1-2.5-24.6-3.9-37.5-3.9c-100.4,0-181.7,81.4-181.7,181.7c0,12.5,1.3,24.6,3.6,36.4
	C177.9,1036,46,1173.2,9.9,1345.5c-6.4,30.8-9.9,62.7-9.9,95.4c0,86.7,23.8,167.9,65.3,237.3h2872.9
	c90.1-91.3,157.2-205.3,191.9-332.7c17.4-63.7,26.6-130.7,26.6-199.8C3156.8,726.9,2817.3,387.5,2398.6,387.5L2398.6,387.5z"/>
<path class="st2" d="M2782.6,1232.6c0.6,19.2,15,34.3,15,34.3s13.4-16,12.8-35.2c-0.6-19.2-15-34.3-15-34.3
	S2781.9,1213.4,2782.6,1232.6L2782.6,1232.6z"/>
<path class="st2" d="M2717.7,1290c3.8,18.8,20.5,31.4,20.5,31.4s10.5-18,6.7-36.8c-3.8-18.8-20.5-31.4-20.5-31.4
	S2713.9,1271.2,2717.7,1290z"/>
<path class="st2" d="M2873,1210.8c-17.4,8.2-25.6,27.3-25.6,27.3s20,6,37.4-2.2c17.4-8.2,25.6-27.3,25.6-27.3
	S2890.4,1202.7,2873,1210.8z"/>
<path class="st2" d="M2834,1266.6c-18-6.7-37.4,0.8-37.4,0.8s9.7,18.5,27.7,25.2c18,6.7,37.4-0.8,37.4-0.8S2852,1273.3,2834,1266.6z
	"/>
<path class="st2" d="M2775.9,1320.2c-18-6.7-37.4,0.8-37.4,0.8s9.7,18.5,27.7,25.2c18,6.7,37.4-0.8,37.4-0.8
	S2793.9,1326.9,2775.9,1320.2z"/>
<path class="st2" d="M2650,1449.8l3.6,1.6c0.2-0.4,18.5-42.2,53.2-89.6c20.3-27.8,42.2-52.2,65.1-72.3
	c28.5-25.2,58.6-43.8,89.4-55.5l-1.4-3.7c-31.3,11.8-61.8,30.8-90.6,56.3c-23.1,20.4-45.2,44.9-65.7,73
	C2668.7,1407.3,2650.2,1449.3,2650,1449.8L2650,1449.8z"/>
<path class="st2" d="M2646.6,1094.8c10.3,24.5,36.4,36.9,36.4,36.9s9.3-27.3-1-51.8s-36.4-36.9-36.4-36.9
	S2636.2,1070.3,2646.6,1094.8z"/>
<path class="st2" d="M2591.2,1201.1c14.2,22.4,42,30.3,42,30.3s4.7-28.5-9.6-50.9s-42-30.3-42-30.3S2576.9,1178.7,2591.2,1201.1z"/>
<path class="st2" d="M2752.6,1021.9c-18.4,19.2-19.6,48-19.6,48s28.8-2.2,47.2-21.3c18.4-19.2,19.6-48,19.6-48
	S2771,1002.7,2752.6,1021.9z"/>
<path class="st2" d="M2729.8,1113.3c-26.6,0.2-48,19.7-48,19.7s21.7,19,48.3,18.8s48-19.7,48-19.7S2756.4,1113.1,2729.8,1113.3z"/>
<path class="st2" d="M2681.4,1211.2c-26.6,0.2-48,19.7-48,19.7s21.7,19,48.3,18.8s48-19.7,48-19.7S2708,1211,2681.4,1211.2z"/>
<path class="st2" d="M2583,1441.1l5.4,0.2c0-0.6,3-63.6,24.3-142.1c12.5-46.1,28.7-88.4,48.2-125.7c24.4-46.6,54-85.7,88-116l-3.6-4
	c-34.5,30.8-64.5,70.4-89.2,117.6c-19.7,37.7-36.1,80.4-48.6,126.9C2586,1376.9,2583,1440.4,2583,1441.1L2583,1441.1z"/>
<path class="st3" d="M2416.5,1565.8H740.3c-31,0-56.1-25.1-56.1-56.1s25.1-56.1,56.1-56.1h1676.2c31,0,56.1,25.1,56.1,56.1
	S2447.4,1565.8,2416.5,1565.8z"/>
<path class="st2" d="M287.3,1302.5c-13.9,9-23.5,20.3-27.7,25.8c-0.2-0.4-0.5-0.8-0.7-1.3c-6.2-10.8-13.6-22.8-22-35.5
	c5.8-3,19.2-10.7,30.9-23.3c15.4-16.7,21.9-35.7,21.9-35.7s-18.4,8.1-33.8,24.8c-11.3,12.3-17.8,25.8-20.4,32.1
	c-7-10.5-14.8-21.5-23.3-32.6c4.9-4.5,15.7-15.2,23.7-30.3c10.6-20.1,12-40.1,12-40.1s-15.7,12.5-26.3,32.6
	c-7.4,14-10.3,28-11.4,35.2c-8.5-11.1-17.8-22.3-27.7-33.4c4.2-5.1,13.2-17.5,18.8-33.6c7.4-21.4,5.7-41.5,5.7-41.5
	s-13.6,14.8-21,36.2c-5.1,14.8-5.9,28.9-5.9,36.2c-6.8-7.4-13.8-14.8-21.2-22.1c1.9-6.4,5.6-21.2,4.7-38.1
	c-1.3-22.7-10.4-40.6-10.4-40.6s-7.1,18.8-5.8,41.4c0.8,13.8,4.4,25.8,7.2,33.1c-5.2-5-10.6-9.9-16.2-14.8
	c-4-6.7-11.1-17.1-21.4-26.3c-16.9-15.1-36-21.3-36-21.3s8.3,18.3,25.2,33.4c10.2,9.1,21.2,15,28.3,18.2c5.7,5,11.3,10.1,16.7,15.3
	c-7.3-0.8-21.4-1.5-36.5,2c-22.1,5-38.2,17-38.2,17s19.7,3.8,41.8-1.2c16.8-3.8,30.1-11.7,35.6-15.2c7.4,7.2,14.6,14.7,21.4,22.1
	c-6.7,1.2-21.4,4.4-35.9,12.7c-19.7,11.2-31.7,27.3-31.7,27.3s20-2.1,39.7-13.3c15-8.5,25.5-19.9,29.7-24.8
	c10.3,11.4,19.8,22.9,28.5,34.3c-6.9,0.6-21.6,2.6-36.7,9.5c-20.6,9.4-34,24.4-34,24.4s20.1-0.3,40.7-9.7
	c15.5-7.1,26.9-17.4,31.6-22c8.6,11.2,16.4,22.3,23.5,32.9c-7,0.4-21.7,1.9-36.8,8.1c-20.9,8.7-34.9,23.2-34.9,23.2s20.1,0.4,41-8.2
	c15.6-6.4,27.2-16.1,32.2-20.7c8.3,12.5,15.6,24.4,21.8,35.1c0.3,0.5,0.6,1.1,0.9,1.6c-4.5,0.6-21.6,3.5-38.5,13.1
	c-19.7,11.2-31.7,27.3-31.7,27.3s20-2.1,39.7-13.3c16.9-9.6,28.1-22.9,31-26.4c25.1,43.8,37.7,76.6,37.8,76.9l5.2-2
	c-0.1-0.3-12.5-32.8-37.3-76.2c6.7-1.6,21.1-5.7,35-14.7c19-12.3,30.1-29.1,30.1-29.1S306.4,1290.1,287.3,1302.5L287.3,1302.5z"/>
<path class="st2" d="M507.3,1261.4c-24.5,8.4-43.4,22-51.9,28.8c-0.2-0.7-0.4-1.5-0.6-2.2c-5.4-18.8-12.1-39.8-20.1-62.4
	c9.9-2.3,33.2-9,55.8-23.8c29.7-19.6,46.7-46,46.7-46s-31,5.3-60.7,24.9c-21.8,14.4-36.8,32.5-43.2,41.1
	c-6.7-18.7-14.4-38.3-23.1-58.4c9.2-4.9,29.7-17.2,47.5-37.1c23.7-26.5,33.4-56.5,33.4-56.5s-28.6,13.1-52.3,39.6
	c-16.5,18.5-26.3,38.7-30.6,49.2c-8.8-20.1-18.6-40.7-29.5-61.4c8.3-6.2,26.8-21.6,41.3-44c19.4-29.8,24.4-60.9,24.4-60.9
	s-26.3,17.3-45.7,47.1c-13.3,20.6-19.9,41.7-22.7,52.8c-7.5-13.9-15.4-27.8-23.9-41.6c5.3-9,16.6-30.1,21.5-56.2
	c6.6-34.9-0.4-65.6-0.4-65.6s-17.8,26-24.5,60.9c-4,21.2-3,40.9-1.6,53c-6.1-9.6-12.4-19.1-19-28.6c-3.5-11.7-10.4-30.2-22.6-48.1
	c-20-29.4-46.7-46.1-46.7-46.1s5.8,31,25.8,60.3c12.1,17.7,26.5,30.8,36.1,38.4c6.9,9.8,13.4,19.6,19.7,29.6
	c-10.9-4-31.9-10.3-56.3-10.8c-35.5-0.7-64.6,11.4-64.6,11.4s28.6,13.2,64.1,13.9c27,0.5,50.2-6.3,59.9-9.7
	c8.6,13.8,16.6,27.8,24.1,41.7c-10.7-0.8-34.2-1.3-59.4,5.8c-34.2,9.6-58.6,29.6-58.6,29.6s31.2,4.4,65.4-5.2
	c26-7.3,46.3-20.6,54.5-26.5c11.3,21.2,21.4,42.3,30.5,62.9c-10.7-1.7-33.9-4.2-59.4,0.6c-34.9,6.5-60.9,24.3-60.9,24.3
	s30.7,7.2,65.6,0.6c26.3-4.9,47.5-16.2,56.4-21.5c8.8,20.4,16.6,40.2,23.4,59c-10.8-2.1-33.7-5.3-59-1.5
	c-35.2,5.3-61.8,22.1-61.8,22.1s30.4,8.2,65.5,3c26.1-3.9,47.5-14.2,56.8-19.2c7.9,22.2,14.5,43,19.8,61.5c0.3,0.9,0.5,1.8,0.8,2.8
	c-7.1-0.8-34.2-2.8-63.6,5.4c-34.2,9.6-58.5,29.6-58.5,29.6s31.2,4.4,65.4-5.2c29.4-8.2,51.5-24.1,57.1-28.5
	c21.7,76.1,28.4,130.7,28.4,131.3l8.6-1c-0.1-0.6-6.7-54.6-28-130.1c10.7,0.2,34.2-0.7,58.9-9.2c33.6-11.6,56.8-32.9,56.8-32.9
	S540.9,1249.9,507.3,1261.4L507.3,1261.4z"/>
<path class="st4" d="M1417.8,139.8c10.2,0,18.8,6.9,21.5,16.2h-43C1399,146.6,1407.6,139.8,1417.8,139.8z"/>
<path class="st4" d="M1313,132.1c15.1,0,27.7,10.1,31.7,23.9h-63.3C1285.2,142.2,1297.9,132.1,1313,132.1L1313,132.1z"/>
<path class="st4" d="M1411.3,156c-4.9-16.8-24.1-29.4-47.1-29.4s-42.2,12.6-47.1,29.4H1411.3L1411.3,156z"/>
<path class="st5" d="M2595.4,1375.7c64.8,0,119.4,43.4,136.3,102.8h-272.7C2476,1419.1,2530.6,1375.7,2595.4,1375.7L2595.4,1375.7z"
	/>
<path class="st5" d="M2755,1407.5c44.7,0,82.4,30,94.1,70.9h-188.2C2672.6,1437.5,2710.3,1407.5,2755,1407.5L2755,1407.5z"/>
<path class="st5" d="M2552.2,1478.4c-18.3-63.4-90.9-110.7-177.6-110.7s-159.3,47.3-177.6,110.7H2552.2L2552.2,1478.4z"/>
<path class="st0" d="M466.9,1333.3c-78.8,0-145.2,52.8-165.8,125h331.5C612.1,1386.1,545.7,1333.3,466.9,1333.3L466.9,1333.3z"/>
<path class="st0" d="M272.9,1372c-54.4,0-100.2,36.4-114.4,86.2h228.8C373.1,1408.4,327.3,1372,272.9,1372L272.9,1372z"/>
<path class="st0" d="M519.5,1458.2c22.3-77,110.5-134.6,216-134.6s193.7,57.6,216,134.6H519.5L519.5,1458.2z"/>
<path class="st6" d="M2483,1448.8c31.8,0,58.6,21.3,66.9,50.4h-133.8C2424.4,1470.1,2451.2,1448.8,2483,1448.8L2483,1448.8z"/>
<path class="st6" d="M2561.2,1464.4c21.9,0,40.4,14.7,46.2,34.8h-92.3C2520.8,1479.2,2539.3,1464.4,2561.2,1464.4L2561.2,1464.4z"/>
<path class="st6" d="M2461.7,1499.2c-9-31.1-44.6-54.3-87.2-54.3c-42.6,0-78.2,23.2-87.2,54.3H2461.7L2461.7,1499.2z"/>
<path class="st7" d="M2275,1560.8c19.6,0,36.1,13.1,41.3,31.1h-82.6C2238.9,1573.9,2255.4,1560.8,2275,1560.8L2275,1560.8z"/>
<path class="st7" d="M2073.8,1546.1c28.9,0,53.3,19.4,60.8,45.8H2013C2020.6,1565.4,2045,1546.1,2073.8,1546.1z"/>
<path class="st7" d="M2262.5,1591.9c-9.3-32.3-46.3-56.4-90.4-56.4s-81.1,24.1-90.4,56.4H2262.5z"/>
<path class="st8" d="M1007.5,1429c27.3,0,50.2,18.3,57.4,43.2H950.2C957.3,1447.3,980.3,1429,1007.5,1429z"/>
<path class="st8" d="M1074.7,1442.4c18.8,0,34.7,12.6,39.6,29.8h-79.2C1040,1455,1055.8,1442.4,1074.7,1442.4L1074.7,1442.4z"/>
<path class="st8" d="M989.3,1472.3c-7.7-26.7-38.2-46.6-74.7-46.6s-67,19.9-74.7,46.6H989.3L989.3,1472.3z"/>
<path class="st8" d="M945.1,1346.2c3.2-1.2,6.8,0.4,8,3.7c0.5,1.4,0.5,2.9,0,4.3c5.5,4.9,10.5,10.1,15.2,15.5
	c-1.1-5.8-2.4-14.4-1.9-23c-1.6-0.6-2.9-1.9-3.5-3.6c-1.2-3.2,0.4-6.8,3.7-8c3.2-1.2,6.8,0.4,8,3.7c1.2,3.2-0.4,6.8-3.7,8
	c-0.4,0.1-0.8,0.2-1.1,0.3c-0.6,12.9,2.8,26.2,3.3,28.3c9.9,12.2,17.8,24.6,23.4,34.5c10.1,17.7,15.4,31.4,15.4,31.6l-3.1,1.2
	c0-0.1-5.2-13.6-15.2-31.1c-3-5.3-6.7-11.3-10.9-17.6c-2.4-0.5-11.3-2-23.2,0.1c0,2.5-1.5,4.9-4,5.8c-3.2,1.2-6.8-0.4-8-3.7
	c-1.2-3.2,0.4-6.8,3.7-8c2.8-1.1,6,0.1,7.5,2.6c9.4-1.7,17.1-1.2,21.5-0.6c-7.8-11.1-17.5-22.9-28.8-33.1c-0.5,0.4-1.1,0.7-1.7,1
	c-3.2,1.2-6.8-0.4-8-3.7C940.2,1351,941.9,1347.4,945.1,1346.2L945.1,1346.2z"/>
<path class="st8" d="M1021.7,1388.8c-2-1.3-9.9-5.8-21.7-8.1c-0.9,2.4-3.2,4.1-5.8,4c-3.4,0-6.2-2.8-6.2-6.2c0-3.4,2.8-6.2,6.2-6.2
	c3,0,5.5,2.2,6.1,5c9.4,1.8,16.4,4.9,20.3,7c-3.4-13.1-8.3-27.6-15.3-41.1c-0.6,0.2-1.3,0.3-1.9,0.3c-3.4,0-6.2-2.8-6.2-6.2
	c0-3.4,2.8-6.2,6.2-6.2c3.4,0,6.2,2.8,6.2,6.2c0,1.5-0.6,2.9-1.5,4c3.4,6.5,6.3,13.2,8.8,19.8c1-5.8,2.8-14.3,6.3-22.2
	c-1.3-1.1-2-2.8-2-4.6c0-3.4,2.8-6.2,6.2-6.2c3.4,0,6.2,2.8,6.2,6.2c0,3.4-2.8,6.2-6.2,6.2c-0.4,0-0.8,0-1.2-0.1
	c-5.1,11.8-6.7,25.5-6.9,27.6c5,14.9,8,29.3,9.8,40.5c3.2,20.2,3.3,34.8,3.3,35h-3.3c0-0.1-0.1-14.6-3.3-34.5
	C1024.7,1403.1,1023.4,1396.2,1021.7,1388.8L1021.7,1388.8z"/>
<path class="st9" d="M759.9,1442.9c18.5,0,34.2,12.4,39,29.4h-78C725.7,1455.3,741.4,1442.9,759.9,1442.9z"/>
<path class="st9" d="M569.8,1428.9c27.3,0,50.3,18.3,57.5,43.3H512.3C519.5,1447.3,542.5,1428.9,569.8,1428.9z"/>
<path class="st9" d="M748.1,1472.3c-8.8-30.5-43.7-53.2-85.5-53.2s-76.6,22.8-85.5,53.2H748.1z"/>
<path class="st10" d="M2854.5,713c15.7,0,28.9,10.5,33,24.9h-66C2825.6,723.5,2838.8,713,2854.5,713z"/>
<path class="st10" d="M2693.5,701.2c23.1,0,42.6,15.5,48.6,36.7h-97.3C2650.9,716.7,2670.4,701.2,2693.5,701.2L2693.5,701.2z"/>
<path class="st10" d="M2844.5,737.9c-7.5-25.8-37-45.1-72.4-45.1s-64.9,19.3-72.4,45.1H2844.5L2844.5,737.9z"/>
<line class="st11" x1="598.9" y1="351.1" x2="1080.9" y2="253.3"/>
<line class="st11" x1="1080.9" y1="448.9" x2="598.9" y2="546.7"/>
<line class="st11" x1="1080.9" y1="644.5" x2="598.9" y2="546.7"/>
<line class="st11" x1="598.9" y1="351.1" x2="1080.9" y2="448.9"/>
<line class="st11" x1="1080.9" y1="253.3" x2="598.9" y2="546.7"/>
<line class="st11" x1="598.9" y1="351.1" x2="1080.9" y2="644.5"/>
<line class="st11" x1="1080.9" y1="840.2" x2="598.9" y2="351.1"/>
<line class="st11" x1="1080.9" y1="1035.8" x2="598.9" y2="351.1"/>
<line class="st11" x1="1080.9" y1="1231.5" x2="598.9" y2="351.1"/>
<line class="st11" x1="598.9" y1="742.4" x2="1080.9" y2="253.3"/>
<line class="st11" x1="1080.9" y1="448.9" x2="598.9" y2="742.4"/>
<line class="st11" x1="1080.9" y1="644.5" x2="598.9" y2="742.4"/>
<line class="st11" x1="1080.9" y1="840.2" x2="598.9" y2="742.4"/>
<line class="st11" x1="1080.9" y1="1035.8" x2="598.9" y2="742.4"/>
<line class="st11" x1="1079.5" y1="1228.9" x2="598.9" y2="742.4"/>
<line class="st11" x1="598.9" y1="1133.7" x2="1080.9" y2="840.2"/>
<line class="st11" x1="1080.9" y1="448.9" x2="598.9" y2="1133.7"/>
<line class="st11" x1="1080.9" y1="253.3" x2="598.9" y2="938"/>
<line class="st11" x1="598.9" y1="1133.7" x2="1080.9" y2="1231.5"/>
<line class="st11" x1="1080.9" y1="1035.8" x2="598.9" y2="1133.7"/>
<line class="st11" x1="1080.9" y1="840.2" x2="598.9" y2="938"/>
<line class="st11" x1="1080.9" y1="1231.5" x2="598.9" y2="938"/>
<line class="st11" x1="1080.9" y1="1035.8" x2="598.9" y2="938"/>
<line class="st11" x1="1080.9" y1="644.5" x2="598.9" y2="938"/>
<line class="st11" x1="598.9" y1="546.7" x2="1080.9" y2="840.2"/>
<line class="st11" x1="1080.9" y1="253.3" x2="598.9" y2="1133.7"/>
<line class="st11" x1="598.9" y1="1133.7" x2="1080.9" y2="644.5"/>
<line class="st11" x1="1080.9" y1="1035.8" x2="598.9" y2="546.7"/>
<line class="st11" x1="1080.9" y1="1231.5" x2="598.9" y2="546.7"/>
<line class="st11" x1="1080.9" y1="448.9" x2="598.9" y2="938"/>
<line class="st11" x1="1080.9" y1="253.3" x2="2055" y2="253.3"/>
<line class="st11" x1="1080.9" y1="448.9" x2="2532.9" y2="448.9"/>
<line class="st11" x1="1080.9" y1="644.5" x2="2532.9" y2="644.5"/>
<line class="st11" x1="1080.9" y1="840.2" x2="2532.9" y2="840.2"/>
<line class="st11" x1="1080.9" y1="1035.8" x2="2532.9" y2="1035.8"/>
<line class="st11" x1="1080.9" y1="1231.5" x2="2055" y2="1231.5"/>
<line class="st11" x1="1568" y1="1035.8" x2="1080.9" y2="1231.5"/>
<line class="st11" x1="2055" y1="1231.5" x2="1565.9" y2="1035.8"/>
<line class="st11" x1="2055" y1="1427.2" x2="1565.9" y2="1035.8"/>
<line class="st11" x1="1565.9" y1="1231.5" x2="2064.1" y2="1431.3"/>
<line class="st11" x1="1568" y1="840.2" x2="2064.1" y2="1431.3"/>
<line class="st11" x1="1568" y1="644.5" x2="2064.1" y2="1431.3"/>
<line class="st11" x1="1565.9" y1="448.9" x2="2064.1" y2="1431.3"/>
<line class="st11" x1="1568" y1="253.3" x2="2064.1" y2="1431.3"/>
<line class="st11" x1="2055" y1="1231.5" x2="1568" y2="840.2"/>
<line class="st11" x1="1568" y1="644.5" x2="2055" y2="1231.5"/>
<line class="st11" x1="1565.9" y1="448.9" x2="2055" y2="1231.5"/>
<line class="st11" x1="1565.9" y1="253.3" x2="2055" y2="1231.5"/>
<line class="st11" x1="2055" y1="1035.8" x2="1565.9" y2="1231.5"/>
<line class="st11" x1="1568" y1="840.2" x2="2055" y2="1035.8"/>
<line class="st11" x1="1565.9" y1="644.5" x2="2055" y2="1035.8"/>
<line class="st11" x1="1565.9" y1="448.9" x2="2055" y2="1035.8"/>
<line class="st11" x1="1565.9" y1="253.3" x2="2055" y2="1035.8"/>
<line class="st11" x1="2055" y1="840.2" x2="1565.9" y2="1231.5"/>
<line class="st11" x1="1565.9" y1="1035.8" x2="2055" y2="840.2"/>
<line class="st11" x1="1568" y1="840.2" x2="2055" y2="644.5"/>
<line class="st11" x1="1565.9" y1="644.5" x2="2055" y2="448.9"/>
<line class="st11" x1="1565.9" y1="448.9" x2="2055" y2="253.3"/>
<line class="st11" x1="1068.6" y1="647.1" x2="1565.9" y2="448.9"/>
<line class="st11" x1="1080.9" y1="1035.8" x2="1568" y2="840.2"/>
<line class="st11" x1="1080.9" y1="840.2" x2="1565.9" y2="644.5"/>
<line class="st11" x1="1080.9" y1="448.9" x2="1565.9" y2="253.3"/>
<line class="st11" x1="1080.9" y1="253.3" x2="1565.9" y2="448.9"/>
<line class="st11" x1="1565.9" y1="644.5" x2="1080.9" y2="253.3"/>
<line class="st11" x1="1568" y1="840.2" x2="1080.9" y2="253.3"/>
<line class="st11" x1="1565.9" y1="1035.8" x2="1080.9" y2="253.3"/>
<line class="st11" x1="1565.9" y1="1231.5" x2="1080.9" y2="253.3"/>
<line class="st11" x1="1080.9" y1="1231.5" x2="1568" y2="840.2"/>
<line class="st11" x1="1568" y1="644.5" x2="1080.9" y2="1231.5"/>
<line class="st11" x1="1565.9" y1="448.9" x2="1080.9" y2="1231.5"/>
<line class="st11" x1="1565.9" y1="253.3" x2="1080.9" y2="1231.5"/>
<line class="st11" x1="1080.9" y1="1035.8" x2="1565.9" y2="1231.5"/>
<line class="st11" x1="1080.9" y1="840.2" x2="1565.9" y2="1231.5"/>
<line class="st11" x1="1080.9" y1="644.5" x2="1565.9" y2="1231.5"/>
<line class="st11" x1="1568" y1="644.5" x2="1080.9" y2="1035.8"/>
<line class="st11" x1="1565.9" y1="448.9" x2="1080.9" y2="1035.8"/>
<line class="st11" x1="1565.9" y1="253.3" x2="1080.9" y2="1035.8"/>
<line class="st11" x1="1080.9" y1="840.2" x2="1565.9" y2="448.9"/>
<line class="st11" x1="1565.9" y1="253.3" x2="1080.9" y2="840.2"/>
<line class="st11" x1="1080.9" y1="644.5" x2="1565.9" y2="1035.8"/>
<line class="st11" x1="1080.9" y1="840.2" x2="1565.9" y2="1035.8"/>
<line class="st11" x1="1080.9" y1="448.9" x2="1565.9" y2="1231.5"/>
<line class="st11" x1="1568" y1="1035.8" x2="1080.9" y2="448.9"/>
<line class="st11" x1="1568" y1="840.2" x2="1080.9" y2="448.9"/>
<line class="st11" x1="1568" y1="644.5" x2="1080.9" y2="448.9"/>
<line class="st11" x1="1568" y1="253.3" x2="1080.9" y2="644.5"/>
<line class="st11" x1="2532.9" y1="644.5" x2="1568" y2="253.3"/>
<line class="st11" x1="2532.9" y1="448.9" x2="2055" y2="253.3"/>
<line class="st11" x1="2532.9" y1="840.2" x2="1565.9" y2="448.9"/>
<line class="st11" x1="2532.9" y1="1035.8" x2="1568" y2="253.3"/>
<line class="st11" x1="2055" y1="253.3" x2="2532.9" y2="1035.8"/>
<line class="st11" x1="2532.9" y1="448.9" x2="2055" y2="840.2"/>
<line class="st11" x1="2064.1" y1="1431.3" x2="2532.9" y2="1035.8"/>
<line class="st11" x1="2532.9" y1="840.2" x2="2064.1" y2="1431.3"/>
<line class="st11" x1="2532.9" y1="644.5" x2="2055" y2="1231.5"/>
<line class="st11" x1="2055" y1="253.3" x2="2532.9" y2="840.2"/>
<line class="st11" x1="2055" y1="57.6" x2="2532.9" y2="448.9"/>
<line class="st11" x1="1568" y1="253.3" x2="2055" y2="57.6"/>
<line class="st11" x1="1565.9" y1="448.9" x2="2055" y2="57.6"/>
<line class="st11" x1="2532.9" y1="644.5" x2="2055" y2="57.6"/>
<line class="st11" x1="1568" y1="644.5" x2="2055" y2="57.6"/>
<line class="st11" x1="2055" y1="1231.5" x2="2532.9" y2="1035.8"/>
<line class="st11" x1="2532.9" y1="448.9" x2="2055" y2="1035.8"/>
<line class="st11" x1="2532.9" y1="644.5" x2="2055" y2="840.2"/>
<line class="st11" x1="2532.9" y1="1035.8" x2="2055" y2="840.2"/>
<line class="st11" x1="2055" y1="1035.8" x2="2532.9" y2="840.2"/>
<line class="st11" x1="2532.9" y1="644.5" x2="2055" y2="1035.8"/>
<line class="st11" x1="2532.9" y1="840.2" x2="2055" y2="1231.5"/>
<line class="st11" x1="2532.9" y1="448.9" x2="2055" y2="1231.5"/>
<line class="st11" x1="2055" y1="448.9" x2="2532.9" y2="1035.8"/>
<line class="st11" x1="2532.9" y1="840.2" x2="2055" y2="448.9"/>
<line class="st11" x1="2055" y1="253.3" x2="2532.9" y2="644.5"/>
<line class="st11" x1="2532.9" y1="448.9" x2="2055" y2="644.5"/>
<line class="st11" x1="1565.9" y1="1231.5" x2="2055" y2="644.5"/>
<line class="st11" x1="1568" y1="1035.8" x2="2055" y2="644.5"/>
<line class="st11" x1="2532.9" y1="644.5" x2="2064.1" y2="1431.3"/>
<line class="st11" x1="2532.9" y1="448.9" x2="2064.1" y2="1431.3"/>
<line class="st11" x1="1568" y1="253.3" x2="2055" y2="840.2"/>
<line class="st11" x1="1556.5" y1="445.1" x2="2055" y2="840.2"/>
<line class="st11" x1="1568" y1="644.5" x2="2055" y2="840.2"/>
<line class="st11" x1="1568" y1="840.2" x2="2055" y2="57.6"/>
<line class="st11" x1="2055" y1="253.3" x2="1568" y2="644.5"/>
<line class="st11" x1="2055" y1="448.9" x2="1565.9" y2="1231.5"/>
<line class="st11" x1="1568" y1="1035.8" x2="2055" y2="448.9"/>
<line class="st11" x1="2055" y1="253.3" x2="1568" y2="840.2"/>
<line class="st11" x1="2055" y1="57.6" x2="1568" y2="1035.8"/>
<line class="st11" x1="1565.9" y1="1231.5" x2="2055" y2="57.6"/>
<line class="st11" x1="2055" y1="448.9" x2="1568" y2="840.2"/>
<line class="st11" x1="2055" y1="253.3" x2="1565.9" y2="1231.5"/>
<line class="st11" x1="1568" y1="1035.8" x2="2055" y2="253.3"/>
<line class="st11" x1="2532.9" y1="1035.8" x2="2055" y2="57.6"/>
<line class="st11" x1="2532.9" y1="840.2" x2="2055" y2="57.6"/>
<ellipse transform="matrix(0.191 -0.9816 0.9816 0.191 139.9151 871.9472)" class="st7" cx="598.9" cy="351.1" rx="57.6" ry="57.6"/>
<circle class="st7" cx="598.9" cy="546.7" r="57.6"/>
<circle class="st7" cx="598.9" cy="742.4" r="57.6"/>
<circle class="st7" cx="598.9" cy="938" r="57.6"/>
<circle class="st7" cx="598.9" cy="1133.7" r="57.6"/>
<ellipse transform="matrix(0.7071 -0.7071 0.7071 0.7071 137.5074 838.4924)" class="st2" cx="1080.9" cy="253.3" rx="57.6" ry="57.6"/>
<ellipse transform="matrix(0.7071 -0.7071 0.7071 0.7071 -0.8362 895.7924)" class="st2" cx="1080.9" cy="448.9" rx="57.6" ry="57.6"/>
<circle class="st2" cx="1080.9" cy="644.5" r="57.6"/>
<circle class="st2" cx="1080.9" cy="840.2" r="57.6"/>
<circle class="st2" cx="1080.9" cy="1035.9" r="57.6"/>
<circle class="st2" cx="1080.9" cy="1231.5" r="57.6"/>
<ellipse transform="matrix(0.7071 -0.7071 0.7071 0.7071 279.5644 1181.4349)" class="st2" cx="1565.9" cy="253.3" rx="57.6" ry="57.6"/>
<ellipse transform="matrix(0.7071 -0.7071 0.7071 0.7071 141.2168 1238.745)" class="st2" cx="1565.9" cy="448.9" rx="57.6" ry="57.6"/>
<circle class="st2" cx="1565.9" cy="644.5" r="57.6"/>
<circle class="st2" cx="1565.8" cy="840.1" r="57.6"/>
<circle class="st2" cx="1565.9" cy="1035.8" r="57.6"/>
<circle class="st2" cx="1565.9" cy="1231.5" r="57.6"/>
<ellipse transform="matrix(0.9796 -0.2011 0.2011 0.9796 -8.9527 418.3683)" class="st2" cx="2055" cy="253.3" rx="57.6" ry="57.6"/>
<ellipse transform="matrix(0.9871 -0.1602 0.1602 0.9871 -45.3722 334.9761)" class="st2" cx="2055" cy="448.9" rx="57.6" ry="57.6"/>
<ellipse transform="matrix(0.344 -0.939 0.939 0.344 1294.0594 1967.4996)" class="st2" cx="2055.1" cy="57.6" rx="57.6" ry="57.6"/>
<ellipse transform="matrix(0.1602 -0.9871 0.9871 0.1602 1089.6237 2569.7991)" class="st2" cx="2055" cy="644.5" rx="57.6" ry="57.6"/>
<ellipse transform="matrix(0.3163 -0.9487 0.9487 0.3163 608.0226 2524.1294)" class="st2" cx="2055.1" cy="840.3" rx="57.6" ry="57.6"/>
<ellipse transform="matrix(0.9732 -0.2298 0.2298 0.9732 -183.0165 499.8601)" class="st2" cx="2055" cy="1035.9" rx="57.6" ry="57.6"/>
<ellipse transform="matrix(0.9732 -0.2298 0.2298 0.9732 -227.9672 505.092)" class="st2" cx="2055" cy="1231.5" rx="57.6" ry="57.6"/>
<ellipse transform="matrix(0.1602 -0.9871 0.9871 0.1602 317.129 3227.0405)" class="st2" cx="2055" cy="1427.2" rx="57.6" ry="57.6"/>
<ellipse transform="matrix(0.7071 -0.7071 0.7071 0.7071 424.4366 1922.5081)" class="st12" cx="2532.9" cy="448.9" rx="57.6" ry="57.6"/>
<circle class="st12" cx="2532.9" cy="644.5" r="57.6"/>
<ellipse transform="matrix(0.2297 -0.9733 0.9733 0.2297 1133.3065 3112.218)" class="st12" cx="2532.8" cy="840.1" rx="57.6" ry="57.6"/>
<ellipse transform="matrix(0.7071 -0.7071 0.7071 0.7071 9.4078 2094.418)" class="st12" cx="2532.9" cy="1035.9" rx="57.6" ry="57.6"/>
<path class="st13" d="M1753.3,1231.7c-39,0-75.8-17-101-46.7l-32.8-38.6c-35.1-5-62.6-34.1-65-70l-0.6-0.6h-108.4
	c-44.4,0-87.7-12.7-125.1-36.7l-86.4-55.4c-19.7-12.6-34.6-31.2-42.7-52.8l-155.1-52.5c-55.4-18.8-95.5-68.4-102.1-126.5l-8.3-72.1
	c-5.1-44.8,9.1-89.9,39-123.7l150.4-169.9c21.8-24.6,51.2-40.8,83-46.3c6.4-35.3,37.4-62.1,74.6-62.1c14,0,27.3,3.8,38.7,10.5
	l156.3-41.9c14.2-3.8,28.8-5.7,43.6-5.7c31.8,0,62.7,8.9,89.5,25.6c3.1,1.9,6.1,4,9,6.1c12.8-9.8,28.7-15.6,46-15.6
	c14.1,0,27.6,4,39.2,11l7-1.3c11.6-2.1,23.3-3.2,35-3.2c28.7,0,56.4,6.3,82.5,18.8l127.5,61.1c46.4,22.3,82.7,60.4,102.6,107.8
	l22.3,15.7c30.6,21.6,51.1,53.8,57.6,90.7l7.9,44.6c10.8,12.5,19,27.2,24.2,43.1l64.1,197.3c10.3,31.5,8.1,65.5-6,95.5l-54,114.7
	c-20.6,43.8-65.2,72.1-113.7,72.1h-9l-36.4,48.8c-27.2,36.3-70.5,58.1-115.8,58.1L1753.3,1231.7L1753.3,1231.7z"/>
<path class="st14" d="M1749.1,1018.5h-303.7c-33.4,0-66.1-9.6-94.2-27.6l-86.4-55.4c-25.7-16.5-31-51.8-11.2-75.1l73.4-86.5
	c17-20,41.9-31.6,68.2-31.6h335.5"/>
<circle class="st15" cx="1744.2" cy="742.3" r="25.8"/>
<circle class="st16" cx="1744.2" cy="742.3" r="11.2"/>
<path class="st14" d="M1241.9,887.6l-187.4-63.5c-34.7-11.7-59.4-42.4-63.6-78.8l-8.3-72.1c-3.3-28.8,5.8-57.5,25-79.2l150.4-169.9
	c16.3-18.5,39.8-29,64.5-29h235.6"/>
<line class="st14" x1="1378.2" y1="743.9" x2="1335.4" y2="579"/>
<path class="st14" d="M1286.6,821.5l-152.3-54.7c-22.2-8-37.1-29.1-37.1-52.7v-61.4"/>
<path class="st14" d="M1191.9,615.8l14.9-46c8.2-25.5,29.4-44.6,55.6-50.2l111-23.7c26.7-5.7,53.2,10.9,59.7,37.4l25.1,102.1"/>
<circle class="st15" cx="1097.2" cy="647.7" r="25.8"/>
<circle class="st16" cx="1097.2" cy="647.7" r="11.2"/>
<circle class="st15" cx="1191.9" cy="615.5" r="25.8"/>
<circle class="st16" cx="1191.9" cy="615.6" r="11.2"/>
<circle class="st15" cx="1335.4" cy="579" r="25.8"/>
<circle class="st16" cx="1335.4" cy="579" r="11.2"/>
<circle class="st15" cx="1458.2" cy="641.4" r="25.8"/>
<circle class="st16" cx="1458.2" cy="641.4" r="11.2"/>
<line class="st14" x1="1327" y1="773.8" x2="1241.6" y2="716.5"/>
<circle class="st15" cx="1233.9" cy="711.3" r="25.8"/>
<circle class="st16" cx="1234" cy="711.3" r="11.2"/>
<path class="st14" d="M1627.6,1067.6l68.3,80.3c14.3,16.8,35.3,26.5,57.4,26.5h137.5c27.5,0,53.5-13,69.9-35.1l47.6-63.7
	c3.8-5.1,9.8-8.1,16.2-8.1h27.5c26.5,0,50.6-15.3,61.8-39.2l54-114.7c7.9-16.7,9.1-35.8,3.4-53.4L2107,662.9
	c-9.2-28.2-35.5-47.4-65.2-47.4h-97.5"/>
<path class="st14" d="M1412.8,880.3H1749c34.7,0,67.9-13.8,92.5-38.3l112.8-112.8"/>
<line class="st14" x1="1994.7" y1="965.1" x2="2010.6" y2="875"/>
<polyline class="st14" points="1976.2,821.5 2008.8,875 2067.1,875 "/>
<path class="st14" d="M1272.8,358l209.8-56.2c29.8-8,61.7-3.2,87.9,13.1l0,0c33.4,20.9,47.9,62.1,35,99.3l-39.4,113.2"/>
<path class="st14" d="M1655.8,333.4l56.6-10.5c27.9-5.2,56.7-1.3,82.3,10.9l127.5,61.1c34.7,16.6,61.8,45.8,75.8,81.6l0,0
	c2.9,7.5,8,14,14.6,18.6l26.2,18.5c18.1,12.7,30.3,32.1,34.2,53.8l11.1,62.7"/>
<path class="st14" d="M1637.4,615.6l42.4-106.9c15.8-39.8,58.7-61.6,100.2-51l143.5,37"/>
<line class="st14" x1="1744.2" y1="553.2" x2="1835.1" y2="644.2"/>
<ellipse transform="matrix(0.7071 -0.7071 0.7071 0.7071 147.6912 1146.8127)" class="st15" cx="1458.2" cy="395.1" rx="25.8" ry="25.8"/>
<circle class="st16" cx="1458.2" cy="395.1" r="11.2"/>
<ellipse transform="matrix(0.2297 -0.9733 0.9733 0.2297 636.2629 1511.0536)" class="st15" cx="1272.7" cy="353.6" rx="25.8" ry="25.8"/>
<circle class="st16" cx="1272.8" cy="353.6" r="11.2"/>
<ellipse transform="matrix(0.7071 -0.7071 0.7071 0.7071 85.7498 1261.8452)" class="st15" cx="1566.1" cy="527.4" rx="25.8" ry="25.8"/>
<circle class="st16" cx="1566.1" cy="527.4" r="11.2"/>
<ellipse transform="matrix(0.7071 -0.7071 0.7071 0.7071 249.7019 1268.3022)" class="st15" cx="1655.8" cy="332.7" rx="25.8" ry="25.8"/>
<ellipse transform="matrix(0.9239 -0.3827 0.3827 0.9239 -1.2877 658.9816)" class="st16" cx="1655.8" cy="332.7" rx="11.2" ry="11.2"/>
<ellipse transform="matrix(0.7071 -0.7071 0.7071 0.7071 213.495 1505.0122)" class="st15" cx="1923.5" cy="494.8" rx="25.8" ry="25.8"/>
<circle class="st16" cx="1923.5" cy="494.8" r="11.2"/>
<circle class="st15" cx="1637.5" cy="622" r="25.8"/>
<circle class="st16" cx="1637.4" cy="621.9" r="11.2"/>
<circle class="st15" cx="1744.2" cy="553.1" r="25.8"/>
<circle class="st16" cx="1744.2" cy="553.2" r="11.2"/>
<circle class="st15" cx="1843.4" cy="652.5" r="25.8"/>
<circle class="st16" cx="1843.4" cy="652.5" r="11.2"/>
<circle class="st15" cx="1938.1" cy="615.6" r="25.8"/>
<circle class="st16" cx="1938.1" cy="615.6" r="11.2"/>
<circle class="st15" cx="1954.1" cy="725.8" r="25.8"/>
<circle class="st16" cx="1954.2" cy="725.8" r="11.2"/>
<circle class="st15" cx="1976.3" cy="830.6" r="25.8"/>
<circle class="st16" cx="1976.2" cy="830.6" r="11.2"/>
<circle class="st15" cx="1987.3" cy="970.5" r="25.8"/>
<circle class="st16" cx="1987.4" cy="970.6" r="11.2"/>
<circle class="st15" cx="2077.6" cy="874.9" r="25.8"/>
<circle class="st16" cx="2077.6" cy="875" r="11.2"/>
<circle class="st15" cx="1755.4" cy="1019.8" r="25.8"/>
<circle class="st16" cx="1755.4" cy="1019.8" r="11.2"/>
<circle class="st15" cx="1630" cy="1071.3" r="25.8"/>
<circle class="st16" cx="1630" cy="1071.3" r="11.2"/>
<circle class="st15" cx="1404" cy="880.4" r="25.8"/>
<ellipse transform="matrix(0.9239 -0.3827 0.3827 0.9239 -230.0087 604.2889)" class="st16" cx="1404" cy="880.3" rx="11.2" ry="11.2"/>
<line class="st14" x1="1577.2" y1="880.3" x2="1604.3" y2="804.8"/>
<circle class="st15" cx="1606.1" cy="799.3" r="25.8"/>
<ellipse transform="matrix(0.9239 -0.3827 0.3827 0.9239 -183.6359 675.5124)" class="st16" cx="1606.2" cy="799.4" rx="11.2" ry="11.2"/>
<line class="st14" x1="1733" y1="1092.1" x2="1891.5" y2="1103.2"/>
<line class="st14" x1="1535.5" y1="673.5" x2="1604.3" y2="685.5"/>
<circle class="st15" cx="1529" cy="673.5" r="25.8"/>
<circle class="st16" cx="1529.1" cy="673.5" r="11.2"/>
<circle class="st15" cx="1890.8" cy="1103.1" r="25.8"/>
<circle class="st16" cx="1890.9" cy="1103.2" r="11.2"/>
<circle class="st15" cx="1730.5" cy="1092" r="25.8"/>
<circle class="st16" cx="1730.5" cy="1092" r="11.2"/>
<circle class="st15" cx="1611.6" cy="686.8" r="25.8"/>
<ellipse transform="matrix(0.2297 -0.9733 0.9733 0.2297 572.9518 2097.5039)" class="st16" cx="1611.6" cy="686.8" rx="11.2" ry="11.2"/>
<line class="st14" x1="1681.6" y1="406.3" x2="1789.6" y2="384"/>
<ellipse transform="matrix(0.9239 -0.3827 0.3827 0.9239 -10.5824 714.3866)" class="st15" cx="1790.4" cy="383.8" rx="25.8" ry="25.8"/>
<ellipse transform="matrix(0.1602 -0.9871 0.9871 0.1602 1124.7734 2089.7012)" class="st16" cx="1790.5" cy="383.8" rx="11.2" ry="11.2"/>
<circle class="st15" cx="1679.4" cy="406.8" r="25.8"/>
<circle class="st16" cx="1679.4" cy="406.8" r="11.2"/>
<line class="st14" x1="1812.3" y1="936.2" x2="1916.7" y2="912.9"/>
<circle class="st15" cx="1916.6" cy="912.8" r="25.8"/>
<circle class="st16" cx="1916.7" cy="912.9" r="11.2"/>
<circle class="st15" cx="1801.3" cy="938.7" r="25.8"/>
<circle class="st16" cx="1801.3" cy="938.7" r="11.2"/>
<path class="st2" d="M1520.9,929.1l-6.3,40.2h-89.5l6.3-40.2h-8.5l-87.6,558.3h8.5l7-44.9h89.5l-7,44.9h8.5l87.6-558.3L1520.9,929.1
	L1520.9,929.1z M1441.7,1434.2h-89.5l6.8-43.3h89.5L1441.7,1434.2z M1449.8,1382.5h-89.5l6.8-43.3h89.5L1449.8,1382.5z
	 M1457.9,1330.9h-89.5l6.8-43.3h89.5L1457.9,1330.9z M1466,1279.2h-89.5l6.8-43.3h89.5L1466,1279.2z M1474.1,1227.6h-89.5l6.8-43.3
	h89.5L1474.1,1227.6z M1482.2,1175.9h-89.5l6.8-43.3h89.5L1482.2,1175.9z M1490.3,1124.3h-89.5l6.8-43.3h89.5L1490.3,1124.3z
	 M1498.4,1072.6h-89.5l6.8-43.3h89.5L1498.4,1072.6z M1506.5,1021H1417l6.8-43.3h89.5L1506.5,1021z"/>
<path class="st17" d="M1871.5,1232.8c-2.4-0.6-4.9-0.1-6.8,1.5c-4.9,3.9-13.9,11.6-14.1,15.4c-0.2,5.3,17.3-4.8,22.2-16.6
	L1871.5,1232.8L1871.5,1232.8z"/>
<path class="st17" d="M1812,1361.1c-1.2-4.3-3-6.7-6.7-7.5c-4-0.8-7.9,1.9-8.6,5.9l-18.9,112.7c-0.3,1.8,0.9,3.5,2.6,3.8
	c1.8,0.4,3.5-0.8,3.9-2.5l1.2-4.8C1807.4,1393.4,1815,1376.5,1812,1361.1L1812,1361.1z"/>
<path class="st18" d="M1831.8,1259c-1.8-13.6-8.7-16.4-13.7-16.6c-0.3-0.1-0.7-0.2-1-0.2c-4.1-0.6-7.8,2.3-8.3,6.3l-13,113.6
	c-0.2,1.8,1.1,3.4,2.8,3.7c0.6,0.1,1.2,0,1.7-0.2c4.2-0.8,7.6-3.8,8.9-7.9C1816.1,1336.2,1834.1,1276.6,1831.8,1259L1831.8,1259z"/>
<path class="st19" d="M1780.8,1472.8c-2.4,0-4.6-0.4-5.9-0.9c-8.6,1.2-26,5.2-25.5,9.5c0.2,1.6,34.2,0.6,36.6,0.3
	c1.7-0.2,1-5.1,0.4-8c-0.2-0.8-0.9-1.3-1.8-1.2C1783.6,1472.6,1782.2,1472.8,1780.8,1472.8L1780.8,1472.8z"/>
<path class="st19" d="M1840.2,1238c0,0-7.4,56.2-27.7,117.7c0,0,10.2,23.7-22.3,100.8H1778c0,0,16.9-98.1,17.6-106.2
	c0.7-8.1,11.5-111,13.5-116.4L1840.2,1238L1840.2,1238z"/>
<path class="st17" d="M1854.4,1361.1c1.2-4.3,3-6.7,6.7-7.5c4-0.8,7.9,1.9,8.6,5.9l18.9,112.7c0.3,1.8-0.9,3.5-2.6,3.8
	c-1.8,0.4-3.5-0.8-3.9-2.5l-1.2-4.8C1859,1393.4,1851.4,1376.5,1854.4,1361.1L1854.4,1361.1z"/>
<path class="st18" d="M1834.6,1259c1.8-13.6,8.7-16.4,13.7-16.6c0.3-0.1,0.7-0.2,1-0.2c4.1-0.6,7.8,2.3,8.3,6.3l13,113.6
	c0.2,1.8-1.1,3.4-2.8,3.7c-0.6,0.1-1.2,0-1.7-0.2c-4.2-0.8-7.6-3.8-8.9-7.9C1850.3,1336.2,1832.3,1276.6,1834.6,1259L1834.6,1259z"
	/>
<path class="st19" d="M1885.6,1472.8c2.4,0,4.6-0.4,5.9-0.9c8.6,1.2,26,5.2,25.5,9.5c-0.2,1.6-34.2,0.6-36.6,0.3
	c-1.7-0.2-1-5.1-0.4-8c0.2-0.8,0.9-1.3,1.8-1.2C1882.8,1472.6,1884.1,1472.8,1885.6,1472.8L1885.6,1472.8z"/>
<path class="st19" d="M1826.2,1238c0,0,7.4,56.2,27.7,117.7c0,0-10.2,23.7,22.3,100.8h12.2c0,0-16.9-98.1-17.6-106.2
	s-11.5-111-13.5-116.4L1826.2,1238L1826.2,1238z"/>
<path class="st17" d="M1842,1106.4c-8,9.3-20.9,11.3-26.7,6.4c-5.7-4.9-2-14.8,6-24.1s16.7-10.1,22.4-5.2S1850,1097.1,1842,1106.4
	L1842,1106.4z"/>
<path class="st19" d="M1848.5,1101.7c0,0,3.1-7.7,0.3-13.8s-12.2-13.5-21.2-6.9c0,0-6,5.3,1,11.9c7,6.7,8.6,1.6,9.6,8.2
	c0.9,6.6,6.4,6.2,6.5,7.7L1848.5,1101.7L1848.5,1101.7z"/>
<path class="st17" d="M1842.2,1102.3l-12.7-2.4c-0.3,1.7-3.1,18.3-3,24.6c0.3,2,3.4,3.1,6.9,2.6c3.2-0.5,5.6-2.2,5.8-4h0
	C1839.2,1119.4,1841,1108.3,1842.2,1102.3L1842.2,1102.3z"/>
<path class="st19" d="M1839.8,1115.9c0,0,8.5-4.9,10.2-11.7c1.8-6.8-1.8-18.1-15.1-17.3c0,0-9.4,1.3-7.7,10.8
	c1.8,9.5,8.3,5.3,4.5,11.4c-0.3,0.5-0.6,1-0.8,1.5c-1.7,4,2.7,8,6.6,6.2L1839.8,1115.9L1839.8,1115.9z"/>
<path class="st17" d="M1833.7,1106.2c-1.9,2.2-6.4,3.1-8,1.8c-1.6-1.3-0.5-3.4,1.4-5.6s4.9-3.1,6.4-1.8
	C1835.2,1101.9,1835.6,1104,1833.7,1106.2z"/>
<path class="st19" d="M1812.7,1105.2c0,0,0.8,2.9,3.7,2.9c2.9,0.1,7.6,0.3,7.9-3.4s3.2-2.3,3.4-0.9c0.2,1.4-1.3,4.6-0.7,6.3
	s2.6,3.5,2,4.2c-0.6,0.6-4.9,4.5-9,4.1c-1.9-0.2-7.4-1.3-8.5-4.5C1810.3,1110.7,1809.5,1107.4,1812.7,1105.2L1812.7,1105.2z"/>
<path class="st20" d="M1841.1,1139.4c-5.4-7.1,1.2-11,1.3-11.2c1.6-2.2,6.8-1.8,9.3,0.4l52.4,51.1c0.9,0.7-0.3,2.3-1,3.2
	c-0.2,0.3-0.5,0.6-0.9,0.7c-2.3,1.6-5.9,1.4-8.5,0.1C1880.8,1176.8,1848.2,1148.7,1841.1,1139.4L1841.1,1139.4z"/>
<path class="st20" d="M1866.6,1232.7c5-14.4,20.5-44.1,26.8-51.4c5.2-6.1,8.9-2.8,9.1-2.7c2.2,1,3.5,5.5,2.1,8l-31.5,49.6
	L1866.6,1232.7L1866.6,1232.7z"/>
<path class="st20" d="M1844.9,1243.5c4.9-0.4,9.8-1.7,14.2-3.7c-3.1-30.3-2.9-64.4-2.6-88.4c0.1-6.3,0.2-10.1-1.3-14.7
	c-2-6.2-5.7-10.4-10.2-12.4c-5.6-2.5-22.2-2.4-28.9,1.5c-0.9,0.5-1.9,1.1-2.9,1.9c-3.9,3.3-6.9,10.5-6.8,21.9
	c0.2,22.3,2,60.1,0.9,89.6c8.7,3.2,18.6,3.8,28,4.2C1838.4,1243.6,1841.7,1243.7,1844.9,1243.5L1844.9,1243.5z"/>
<path class="st17" d="M1764.2,1042.7c1.5-1.9,2-4.4,1.4-6.8c-1.6-6.1-4.9-17.4-8.4-19.1c-4.8-2.3-2.7,17.8,6.1,27L1764.2,1042.7z"/>
<path class="st20" d="M1828.5,1137.3c5.9,6.7-0.4,11-0.6,11.2c-1.4,2.3-6.7,2.2-9.3,0.3l-55.8-47.3c-1-0.7,0.1-2.3,0.8-3.3
	c0.2-0.3,0.5-0.6,0.8-0.8c2.2-1.7,5.8-1.8,8.4-0.7C1786.4,1102.7,1820.8,1128.5,1828.5,1137.3L1828.5,1137.3z"/>
<path class="st20" d="M1766.9,1039.7c3.9,14.8,7.6,48,6.5,57.7c-0.9,8-5.8,7.3-6,7.3c-2.4,0.4-6-2.6-6.2-5.5l-1.5-58.7
	L1766.9,1039.7L1766.9,1039.7z"/>
<rect x="1622.1" y="695.2" transform="matrix(0.96 -0.2798 0.2798 0.96 -167.3168 490.7509)" class="st19" width="26" height="272.4"/>
<path class="st21" d="M1678.7,980.9L1678.7,980.9c11-3.2,17.4-14.8,14.2-25.8l-50.2-172.4l-40,11.7l50.2,172.4
	C1656.1,977.8,1667.7,984.2,1678.7,980.9z"/>
<path class="st19" d="M1396.2,597.5c25.3,87,116.4,136.9,203.3,111.5c86.9-25.3,136.9-116.4,111.6-203.3
	c-25.3-87-116.4-136.9-203.3-111.5C1420.8,419.5,1370.8,510.5,1396.2,597.5z M1410.4,593.3c-23.1-79.1,22.4-161.9,101.5-185
	s161.9,22.4,185,101.5c23.1,79.1-22.4,161.9-101.5,185S1433.4,672.5,1410.4,593.3z"/>
<path class="st22" d="M1595.3,694.8c-70.1,20.4-143.1-12.9-174.8-75.8c-4.1-8.1-7.5-16.7-10.1-25.7c-23.1-79.1,22.4-161.9,101.5-185
	c64.1-18.7,130.7,7.6,165.9,60.5c8.2,12.3,14.7,26.1,19.1,41C1719.9,589,1674.5,671.8,1595.3,694.8L1595.3,694.8z"/>
<path class="st23" d="M1583.9,1062.3c3.5-2.9,6.5-3.9,10-2.4c3.9,1.7,5.6,6.2,3.8,10.1l-50.8,106.3c-0.8,1.7-2.8,2.4-4.5,1.7
	s-2.5-2.7-1.8-4.4l1.9-4.7C1568.7,1092.3,1572.3,1073.5,1583.9,1062.3L1583.9,1062.3z"/>
<path class="st24" d="M1489.7,1005.5c-8.6-11.2-5.6-18.3-2.2-22.1c0.2-0.3,0.3-0.6,0.6-0.9c2.5-3.4,7.3-4,10.7-1.4l92.3,73.2
	c1.5,1.2,1.7,3.3,0.6,4.8c-0.4,0.5-0.8,0.9-1.4,1.1c-3.6,2.5-8.3,2.8-12.3,0.8C1557.5,1050.2,1500.9,1020,1489.7,1005.5
	L1489.7,1005.5z"/>
<path class="st25" d="M1544.8,1171.1c2.5,0,4.8-0.4,6.1-0.9c8.8,1.2,26.8,5.4,26.3,9.8c-0.2,1.6-35.3,0.6-37.8,0.3
	c-1.7-0.2-1-5.3-0.4-8.3c0.2-0.8,1-1.4,1.8-1.2C1541.9,1170.9,1543.3,1171.1,1544.8,1171.1L1544.8,1171.1z"/>
<path class="st19" d="M1497.6,972.8c0,0,95.4,74.7,100.9,84.4s0.9,15.3-2.7,25c-3.6,9.7-36.2,73.6-36.2,73.6l-12.9-5.4
	c0,0,19.4-65.1,32.3-87.4c0,0-90.4-42.1-96.3-59.5l7.5-28.8L1497.6,972.8L1497.6,972.8z"/>
<path class="st23" d="M1456.5,1099.6c3.2-3.3,6.1-4.6,9.7-3.4c4,1.3,6.2,5.7,4.8,9.6l-39.7,111c-0.6,1.8-2.5,2.7-4.3,2.1
	s-2.8-2.4-2.3-4.2l1.4-4.9C1444.3,1131,1446,1111.9,1456.5,1099.6L1456.5,1099.6z"/>
<path class="st26" d="M1464.2,992.5c5.6-13,13.2-13.8,18.2-12.7c0.3,0,0.7,0,1.1,0c4.2,0.5,7.1,4.4,6.4,8.6l-18.9,116.3
	c-0.3,1.8-2,3.1-3.8,2.9c-0.6-0.1-1.2-0.3-1.6-0.7c-3.9-1.9-6.5-5.9-6.6-10.3C1458.2,1073.5,1457,1009.3,1464.2,992.5L1464.2,992.5z
	"/>
<path class="st25" d="M1429.1,1216c2.5,0,4.7-0.3,6.1-0.7c8.8,0.9,26.8,4,26.2,7.4c-0.2,1.2-35.2,0.4-37.7,0.2c-1.7-0.2-1-4-0.4-6.2
	c0.2-0.6,1-1,1.8-0.9C1426.2,1216,1427.6,1216.1,1429.1,1216L1429.1,1216z"/>
<path class="st19" d="M1462.7,972.8c0,0-7.7,38.4-6.3,122.8c0,0-18.8,20.2-30,103.2l13.2,0.7c0,0,34.2-93.5,34.9-97.7
	s23-131.8,23-131.8L1462.7,972.8L1462.7,972.8z"/>
<path class="st10" d="M1477.8,862.9c-8.7,2.3-5.8,9.4-5.8,9.7c-0.1,2.7,4.3,5.6,7.6,5.4l72.8-8.3c1.2,0,1.2-2,1.2-3.2
	c0-0.4-0.1-0.8-0.3-1.1c-0.9-2.6-3.9-4.8-6.7-5.2C1532.2,857.6,1489.1,859.9,1477.8,862.9L1477.8,862.9z"/>
<path class="st10" d="M1463.6,878.2c3.1-8.4-4.4-10.2-4.6-10.3c-2.2-1.6-7.1,0.3-8.8,3.1l-35.2,64.2c-0.7,1,0.9,2.1,1.9,2.8
	c0.3,0.2,0.7,0.4,1.1,0.4c2.7,0.8,6.1-0.4,8.1-2.4C1436.6,925.7,1459.5,889.2,1463.6,878.2L1463.6,878.2z"/>
<path class="st10" d="M1499.9,912.9c-2.8-13.1-7.2-35.9-9.5-40.7c-6.8-14.3-27.1-15.2-34.9-6.6c-1,1.1-9.5,6.7-5.3,17.5
	c11.5,30.3,5.9,54.7,8.4,104.4c5.7,0.1,12.6,0.1,18.1-1.4c3.5-1,6.9-2.4,10.2-3.7c7.6-2.9,13.6-5.2,21.6-7.1
	C1508.3,972.6,1500.2,914.5,1499.9,912.9L1499.9,912.9z"/>
<path class="st19" d="M1492.2,846.6c0,0-0.1-5.6-4.1-9c-3.9-3.4-3.5,2.1-3.5,2.1L1492.2,846.6L1492.2,846.6z"/>
<path class="st19" d="M1457.8,848.1c0.4,0.4,7.4,7.8,8.9,7.3c2.1-0.6-1.3-7.2-1.3-7.2L1457.8,848.1L1457.8,848.1z"/>
<path class="st19" d="M1480.4,825.8c0,0,0.3-5.2-2.7-7.7c-2.8-2.3-7-4.3-17.6,2.6c-1.5,1-2.1,2.9-1.4,4.6l2,4.7L1480.4,825.8
	L1480.4,825.8z"/>
<path class="st23" d="M1462.2,843.3c3.8,6.4,7.5,11.4,13,12.5c1.9,0.4,4.2,0.5,6.6-0.1c1.5-0.4,3-1,4.5-2.1c3.9-2.7,5.1-5.8,4.7-9.4
	c-0.5-4.1-3.2-8.9-6.5-14.3c-6-10.1-14.1-12.2-20.2-8.5C1458.1,825.1,1456.2,833.2,1462.2,843.3L1462.2,843.3z"/>
<path class="st23" d="M1460.2,841.7l12-2.9c0.4,1.6,3.9,17.3,4.2,23.3c-0.2,1.9-3.1,3.2-6.5,2.8c-3.1-0.3-5.5-1.8-5.8-3.5h0
	C1463.9,857.9,1461.6,847.4,1460.2,841.7L1460.2,841.7z"/>
<path class="st19" d="M1458.4,848.7c0,0,3.2-0.4,4.5-3.9c1.7-4.6,1.6-12.9,0.9-16.5c-1.1-6.2-3.4-7.1-3.4-7.1s-10.5,5.5-11.3,10.1
	C1448,838.3,1458.4,848.7,1458.4,848.7L1458.4,848.7z"/>
<path class="st19" d="M1462.9,836.3l8.8,14.7c0.9,1.5,2.7,2.4,4.5,2.2l2.1-0.3c1.3-0.2,2.1-1.5,1.6-2.7l-1.1-3.3
	c-0.3-0.7,0-1.6,0.6-2l6.3-4.5c0.7-0.5,1.6-0.4,2.2,0.1l2.5,2.3c2.5,2.3,2.4,6.3-0.3,8.5l-3.7,3c-0.8,0.6-1.7,1.1-2.7,1.3
	c-0.1,0-0.2,0-0.2,0l-0.1,0l0,0l-1.6,0.2l0,0l-5.2,0.7c-3.2,0.4-6.3-1.1-7.9-3.8l-8.8-14.7L1462.9,836.3L1462.9,836.3z"/>
<path class="st23" d="M1457.8,846.2c1.3,2.2,5.1,3.7,6.7,2.8s0.9-3-0.4-5.1c-1.3-2.2-3.8-3.5-5.4-2.5
	C1457.2,842.3,1456.5,844.1,1457.8,846.2L1457.8,846.2z"/>
<path class="st19" d="M1461.9,826.5l6.5-3.8c2.2-1.3,4.8-1.7,7.2-1.3l3.4,0.6l-6.6-4.3l-6.4,1.1l-6.4,4.4L1461.9,826.5L1461.9,826.5
	z"/>
<path class="st3" d="M1471.8,873.7c5.9,24.5-2.7,46.9,6.1,71.9c3.4,2.5,7,4.7,10.6,7c1.8-4,3.5-8.1,4.9-12.3
	c-12.1-23.5-8.2-44.7-16.8-67.5C1475,873,1473.4,873.3,1471.8,873.7L1471.8,873.7z"/>
<path class="st23" d="M1600.1,843.2c0.5-2.5,2.1-4.7,4.4-5.8c5.9-2.9,17.2-8.1,21-6.5c5.2,2.2-12.3,14.4-25.7,13.8L1600.1,843.2
	L1600.1,843.2z"/>
<path class="st10" d="M1602.7,837.9c-15,3.1-46.4,14.6-54.5,20c-6.7,4.4-3.9,8.4-3.9,8.6c0.7,2.4,5,4.2,7.7,3.1l53.3-24.8
	L1602.7,837.9L1602.7,837.9z"/>
<path class="st23" d="M1453.2,981c2.4-0.9,5.1-0.6,7.3,0.8c5.6,3.5,15.8,10.6,16.4,14.6c0.8,5.5-18.6-3.1-25.1-14.9L1453.2,981
	L1453.2,981z"/>
<path class="st10" d="M1460.2,980.6c-7.2-13.5-27.2-40.4-34.6-46.7c-6.1-5.2-9.2-1.4-9.4-1.3c-2.1,1.4-2.6,6-0.8,8.3l38.9,44.1
	L1460.2,980.6L1460.2,980.6z"/>
<path class="st27" d="M540.1,575.1c35,0,64.6,23.5,73.8,55.6H466.4C475.5,598.6,505.1,575.1,540.1,575.1L540.1,575.1z"/>
<path class="st27" d="M626.5,592.3c24.2,0,44.6,16.2,50.9,38.4H575.6C581.9,608.6,602.3,592.3,626.5,592.3L626.5,592.3z"/>
<path class="st27" d="M516.7,630.7c-9.9-34.3-49.2-59.9-96.1-59.9s-86.2,25.6-96.1,59.9H516.7z"/>
<path class="st27" d="M1001.1,92.6c35.1,0,64.6,23.5,73.8,55.6H927.4C936.5,116.1,966.1,92.6,1001.1,92.6L1001.1,92.6z"/>
<path class="st27" d="M1087.5,109.8c24.2,0,44.6,16.2,50.9,38.4h-101.8C1042.9,126,1063.3,109.8,1087.5,109.8L1087.5,109.8z"/>
<path class="st27" d="M977.7,148.2c-9.9-34.3-49.2-59.9-96.1-59.9s-86.2,25.6-96.1,59.9H977.7z"/>
<circle class="st28" cx="1293" cy="1104.3" r="25.8"/>
<circle class="st16" cx="1293" cy="1104.3" r="11.2"/>
<path class="st23" d="M1226.3,1108.4l12.8-0.9c0.1,1.8,1,18.5,0.2,24.8c-0.5,1.9-3.7,2.7-7.2,1.8c-3.1-0.8-5.3-2.8-5.3-4.6h0
	C1227.3,1125.7,1226.7,1114.6,1226.3,1108.4L1226.3,1108.4z"/>
<path class="st29" d="M1243.1,1132.9c-6-6.6-10.9-0.8-11.1-0.7c-2.4,1.2-2.9,6.3-1.3,9.1l40.3,60.1c0.6,1,2.3,0.1,3.3-0.4
	c0.3-0.2,0.6-0.4,0.8-0.7c1.9-1.9,2.4-5.6,1.6-8.2C1272.4,1178.1,1250.8,1141.4,1243.1,1132.9L1243.1,1132.9z"/>
<path class="st23" d="M1247.8,1467.4c0,0-2.3,8-0.9,8.5s34.4,1.9,36.7,0.5s-4.7-3.8-4.7-3.8s-15.5-4.2-24.5-5.2
	C1254.4,1467.4,1247.8,1466.9,1247.8,1467.4L1247.8,1467.4z"/>
<path class="st23" d="M1243.3,1358.7c1.9-3.8,4-5.7,7.5-5.7c3.9,0,6.9,3.2,6.8,7.1l-3.7,107.6c-0.1,1.7-1.4,3-3.2,3s-3.1-1.3-3.2-3
	l-0.2-4.7C1241.4,1389.4,1237.6,1372.3,1243.3,1358.7L1243.3,1358.7z"/>
<path class="st30" d="M1232.2,1263.5c2.7-12.6,9.4-14.7,14.1-14.6c0.3-0.1,0.6-0.1,1-0.1c3.8-0.3,7.2,2.7,7.3,6.6l3.7,107.6
	c0.1,1.7-1.2,3.1-2.9,3.2c-0.6,0-1.1-0.1-1.6-0.3c-3.8-1-6.9-4.1-7.8-8.1C1241.2,1337.2,1228.7,1279.9,1232.2,1263.5L1232.2,1263.5z
	"/>
<path class="st30" d="M1205.6,1252.2c6.2-11.3,13.2-11.4,17.7-9.9c0.3,0,0.6,0.1,1,0.1c3.8,0.8,6.1,4.7,5.1,8.4l-27.3,104.1
	c-0.4,1.6-2.1,2.7-3.7,2.3c-0.6-0.1-1-0.4-1.4-0.8c-3.4-2.1-5.4-5.9-5.1-10C1193.1,1325.3,1197.6,1266.9,1205.6,1252.2
	L1205.6,1252.2z"/>
<path class="st19" d="M1267.4,1469c-3.4,1.5-9.1,2.5-15.5,2.5c-2.1,0-4-0.1-5.9-0.3c-0.4,2.9-0.6,6.3,0.8,6.5
	c2.5,0.3,38.3,1.4,38.5-0.3C1285.8,1474,1276.2,1470.9,1267.4,1469L1267.4,1469z"/>
<path class="st23" d="M1184.5,1467.4c0,0-2.3,8-0.9,8.5s34.4,1.9,36.7,0.5s-4.7-3.8-4.7-3.8s-15.5-4.2-24.5-5.2
	C1191.1,1467.4,1184.5,1466.9,1184.5,1467.4L1184.5,1467.4z"/>
<path class="st23" d="M1186.8,1358.4c2.1-3.7,4.3-5.4,7.9-5.2c3.8,0.2,6.8,3.6,6.4,7.4l-10.2,107.2c-0.2,1.7-1.6,2.9-3.3,2.8
	s-3-1.5-3-3.2l0.1-4.7C1183.2,1389,1180.4,1371.7,1186.8,1358.4L1186.8,1358.4z"/>
<path class="st19" d="M1204.1,1469c-3.4,1.5-9.1,2.5-15.5,2.5c-2.1,0-4-0.1-5.9-0.3c-0.4,2.9-0.6,6.3,0.8,6.5
	c2.5,0.3,38.3,1.4,38.5-0.3C1222.5,1474,1212.8,1470.9,1204.1,1469L1204.1,1469z"/>
<path class="st29" d="M1181.9,1372.1c13.4-4.3,30.8-0.6,47.7-1.4l6-0.3c4.4-0.3,8.5-1,12.1-2.3c2.6-0.9,14.2,4.2,16.6,2.5
	c-1.6-3.4-2.9-91.8-10.8-127.7c-2.5-11.4-8.9-54-6.5-60.3c6.7-17.7,4.3-15.3,2.6-27.4c-1.5-10.6-4.6-20.6-8.1-24.3
	c-0.5-0.5-1-0.9-1.5-1.2c-6.7-3.2-11.9-2.5-16.2,1.1c-3.9,3.3-6.9,9.2-9.3,16.6c-3.9,12.3-10.5,53.8-9.8,70.8
	C1201.5,1238.1,1180.6,1372.5,1181.9,1372.1L1181.9,1372.1z"/>
<path class="st29" d="M1230.9,1145.9c5.7-6.9-0.8-11-0.9-11.2c-1.5-2.2-5.6-4.3-8.1-2.2l-49.8,53.4c-4,5.4-2.5,7.1-1.8,8
	c0.2,0.3,0.5,0.6,0.9,0.7c2.2,1.7,4.6,1.1,7.2-0.2C1191.4,1188.1,1223.5,1154.9,1230.9,1145.9L1230.9,1145.9z"/>
<path class="st19" d="M1229.8,1123.6c0,0-11.8-4.5-12.5-16.4c-0.9-16,15.4-23.5,24.1-18.1c8,5,6.4,11.9,5.5,13.6
	C1245.9,1104.3,1229.8,1123.6,1229.8,1123.6L1229.8,1123.6z"/>
<path class="st23" d="M1227.2,1110.3c1.9,10.1,10.6,17,16.8,15.8s7.6-10,5.7-20.1s-7.9-14.3-14.1-13.1S1225.3,1100.2,1227.2,1110.3
	L1227.2,1110.3z"/>
<path class="st19" d="M1244.4,1093.9c0,0,1.5,11.7-8.1,19.4c-4.9,4-16.6-0.7-16.6-0.7l3.4-17.7c0,0,9.6-5.4,13.2-5.7
	C1236.6,1089.2,1244.4,1093.9,1244.4,1093.9L1244.4,1093.9z"/>
<path class="st19" d="M1247.6,1099.6c0,0-11.3-4.1-12.9-8.1c-1.7-3.9,4.2-3.4,4.2-3.4S1246.2,1090.9,1247.6,1099.6L1247.6,1099.6z"
	/>
<path class="st23" d="M1272,1142.4c-1.4-2.1-1.7-4.8-0.8-7.2c2.2-6.1,6.7-17.6,10.5-19c5.2-2,1.1,18.6-8.9,27.4L1272,1142.4
	L1272,1142.4z"/>
<path class="st29" d="M1269.5,1138.6c-2.5,14.9-3.1,48-1.1,57.4c1.7,7.8,6.4,6.6,6.6,6.7c2.4,0.2,5.7-3.1,5.6-6l-3.9-57.9
	L1269.5,1138.6L1269.5,1138.6z"/>
<path class="st23" d="M1176.5,1237.9c2.5-0.2,5,0.8,6.7,2.6c4.4,4.8,12.4,14.2,11.9,18.2c-0.7,5.5-17-7.8-20.1-20.7L1176.5,1237.9z"
	/>
<path class="st29" d="M1181.9,1238.4c1.8-13.3,1.2-41.3-0.9-48.4c-1.8-5.9-6.1-3.4-6.3-3.3c-2.3,0.7-4.4,5.4-4.2,9.3l4.8,44.8
	L1181.9,1238.4L1181.9,1238.4z"/>
<path class="st19" d="M1170.1,1169.7c3.1,0.4,6.9,0.6,11.2,0.1c9.2-1.2,23.7-3.8,33.6-20.8c4.7-8,9-15.8,14.8-18.7
	c9.4-4.7,9.5-22.8,9.5-22.8c-1.2-0.2-10-1.7-18.7,1.4c-7.6,2.8-15.3,11-24.6,27.1c-4.6,7.9-10.4,12.4-17.2,13.3
	c-4.6,0.6-8.2-0.6-8.3-0.6l-7.5,19.2C1163.3,1168.1,1166,1169.1,1170.1,1169.7z"/>
<path class="st19" d="M1162.6,1167.6c5.6,3.9,13.4,2.2,16.7-3.7c1.1-2,1.8-4.5,1.4-7.8c-1-9.9-13.8-12.9-19.6-7.3
	c-6,5.7-4.5,12.7-1.7,16C1160.3,1165.8,1161.3,1166.8,1162.6,1167.6L1162.6,1167.6z"/>
<path class="st19" d="M1179.6,1160.7c6,4.1,14.2,2.4,17.8-3.9c1.2-2.1,1.9-4.8,1.5-8.3c-1.1-10.5-14.7-13.8-20.9-7.8
	c-6.4,6.1-4.8,13.5-1.8,17C1177.1,1158.8,1178.3,1159.8,1179.6,1160.7L1179.6,1160.7z"/>
<path class="st19" d="M1174,1174.3c4.9,3.4,11.7,2,14.7-3.2c1-1.7,1.6-4,1.3-6.8c-0.9-8.7-12.1-11.3-17.2-6.5
	c-5.3,5-3.9,11.1-1.5,14C1171.9,1172.7,1172.9,1173.6,1174,1174.3L1174,1174.3z"/>
<path class="st23" d="M1232.8,1113.2c1,2.4,4.6,4.4,6.3,3.6s1.3-2.8,0.3-5.2s-3.3-4-5-3.2
	C1232.7,1109.2,1231.8,1110.8,1232.8,1113.2z"/>
<circle class="st2" cx="1556" cy="551.6" r="108.3"/>
<polyline class="st31" points="1504,541.5 1552.8,590.3 1667.7,475.5 "/>
<path class="st10" d="M1246,587c16.5,0,29.9-13.4,29.9-29.9c0,16.5,13.4,29.9,29.9,29.9c-16.5,0-29.9,13.4-29.9,29.9
	C1276,600.3,1262.6,587,1246,587z"/>
<path class="st10" d="M1810.3,743.9c16.5,0,29.9-13.4,29.9-29.9c0,16.5,13.4,29.9,29.9,29.9c-16.5,0-29.9,13.4-29.9,29.9
	C1840.2,757.3,1826.8,743.9,1810.3,743.9z"/>
<path class="st10" d="M1946.3,1049.1c16.5,0,29.9-13.4,29.9-29.9c0,16.5,13.4,29.9,29.9,29.9c-16.5,0-29.9,13.4-29.9,29.9
	C1976.2,1062.5,1962.8,1049.1,1946.3,1049.1z"/>
<path class="st10" d="M1008.4,731.1c16.5,0,29.9-13.4,29.9-29.9c0,16.5,13.4,29.9,29.9,29.9c-16.5,0-29.9,13.4-29.9,29.9
	C1038.3,744.5,1024.9,731.1,1008.4,731.1L1008.4,731.1z"/>
<path class="st10" d="M1488,350c16.5,0,29.9-13.4,29.9-29.9c0,16.5,13.4,29.9,29.9,29.9c-16.5,0-29.9,13.4-29.9,29.9
	C1517.9,363.4,1504.5,350,1488,350z"/>
<path class="st10" d="M1174.5,502.8c9.2,0,16.6-7.4,16.6-16.6c0,9.2,7.4,16.6,16.6,16.6c-9.2,0-16.6,7.4-16.6,16.6
	C1191.1,510.3,1183.7,502.8,1174.5,502.8L1174.5,502.8z"/>
<path class="st10" d="M1745.9,823c9.2,0,16.6-7.4,16.6-16.6c0,9.2,7.4,16.6,16.6,16.6c-9.2,0-16.6,7.4-16.6,16.6
	C1762.5,830.4,1755,823,1745.9,823z"/>
<path class="st10" d="M1881.1,1014.3c9.2,0,16.6-7.4,16.6-16.6c0,9.2,7.4,16.6,16.6,16.6c-9.2,0-16.6,7.4-16.6,16.6
	C1897.7,1021.7,1890.2,1014.3,1881.1,1014.3L1881.1,1014.3z"/>
</svg>
