<?xml version="1.0" encoding="utf-8"?>
<!-- Generator: Adobe Illustrator 26.3.1, SVG Export Plug-In . SVG Version: 6.00 Build 0)  -->
<svg version="1.1" id="a" xmlns="http://www.w3.org/2000/svg" xmlns:xlink="http://www.w3.org/1999/xlink" x="0px" y="0px"
	 viewBox="0 0 3156.8 1849.9" style="enable-background:new 0 0 3156.8 1849.9;" xml:space="preserve">
<style type="text/css">
	.st0{fill:#D5E2E8;}
	.st1{fill:#E09975;}
	.st2{fill:#B8BAC1;}
	.st3{fill:#A29394;}
	.st4{fill:#888888;}
	.st5{fill:#FF7631;}
	.st6{fill:#2E7798;}
	.st7{fill:#FFFFFF;}
	.st8{fill:#98A4A8;}
	.st9{fill:#6C7080;}
	.st10{fill:#EDF9FC;}
	.st11{fill:#383E56;}
	.st12{fill:none;stroke:#005981;stroke-width:4.6;stroke-miterlimit:10;}
	.st13{fill:#F3C0A4;}
	.st14{fill:#3B3E54;}
	.st15{fill:#54576A;}
	.st16{fill:#2D334A;}
	.st17{opacity:0.38;fill:#2E7798;enable-background:new    ;}
	.st18{fill:#B6B8C0;}
	.st19{fill:none;stroke:#383E56;stroke-width:5;stroke-miterlimit:10;}
	.st20{fill:none;stroke:#383E56;stroke-width:5.0001;stroke-miterlimit:10.0001;}
	.st21{fill:#4686A3;}
	.st22{fill:#D89C9F;}
	.st23{fill:none;stroke:#383E56;stroke-width:5;stroke-miterlimit:9.9999;}
	.st24{fill:none;stroke:#383E56;stroke-width:4.9999;stroke-miterlimit:9.9998;}
	.st25{fill:#616677;}
	.st26{fill:#005981;}
	.st27{fill:none;stroke:#D89C9F;stroke-width:4.6;stroke-miterlimit:10;}
</style>
<path class="st0" d="M2398.6,559.2c-71.6,0-140.8,9.9-206.5,28.4c-168.8-217.3-432.6-357.2-729.1-357.2
	c-439.8,0-807.6,307.7-900.1,719.5c-12.1-2.5-24.6-3.9-37.5-3.9c-100.4,0-181.7,81.4-181.7,181.7c0,12.5,1.3,24.6,3.6,36.4
	c-169.5,43.6-301.4,180.7-337.5,353C3.4,1548,0,1579.9,0,1612.6c0,86.7,23.9,167.9,65.3,237.3h2872.9
	c90.1-91.3,157.2-205.3,191.9-332.7c17.4-63.7,26.6-130.7,26.6-199.8C3156.8,898.7,2817.3,559.2,2398.6,559.2L2398.6,559.2z"/>
<path class="st1" d="M1922.9,671c1-1,1-2.1,0.8-3.3c-0.6-2.7-2.5-4.7-11.7-3.6c-3.3,0.4-7,1.5-10.5,2.7c-5,1.8-10.4,2.7-15.9,2.7
	h-1.9c-0.2-7.3-1.3-14.4-3.3-21.1l1.8-0.6c5.2-1.7,10.7-2.5,16-2.3c3.6,0.1,7.5,0,10.8-0.6c9.1-1.8,10.3-4.3,10-7
	c-0.1-1.2-0.6-2.3-1.8-2.9c-0.5-0.3-0.7-0.9-0.4-1.4c0.6-1.2,0.3-2.3-0.3-3.4c-1.4-2.4-3.8-3.7-12.2,0.2c-3,1.4-6.2,3.6-9.1,5.8
	c-4.2,3.3-9.1,5.8-14.3,7.5l-1.8,0.6c-2.4-6.8-5.7-13.2-9.7-19l1.6-1.2c4.5-3.2,9.4-5.7,14.5-7.2c3.5-1,7.2-2.3,10.1-3.9
	c8.1-4.5,8.5-7.3,7.3-9.8c-0.5-1.1-1.2-2-2.6-2.2c-0.6-0.1-0.9-0.6-0.8-1.2c0.2-1.4-0.4-2.3-1.3-3.2c-2-1.9-4.8-2.4-11.6,4
	c-2.4,2.3-4.8,5.3-6.8,8.4c-3,4.4-6.8,8.3-11.3,11.6l-1.6,1.2c-4.3-5.7-9.4-10.8-15.1-15.1l1.2-1.6c3.2-4.5,7.2-8.3,11.6-11.3
	c3-2,6.1-4.4,8.4-6.8c6.3-6.8,5.8-9.5,3.9-11.6c-0.8-0.9-1.8-1.5-3.2-1.3c-0.6,0.1-1.1-0.3-1.2-0.8c-0.2-1.4-1.1-2.1-2.2-2.6
	c-2.5-1.1-5.3-0.8-9.8,7.3c-1.6,2.9-2.9,6.6-3.9,10.1c-1.5,5.1-3.9,10-7.2,14.5l-1.2,1.6c-5.8-4-12.2-7.3-19-9.7l0.7-2
	c1.7-5.2,4.3-10.1,7.5-14.3c2.2-2.9,4.4-6.1,5.8-9.1c3.9-8.4,2.6-10.9,0.2-12.2c-1.1-0.6-2.2-0.9-3.4-0.3c-0.5,0.2-1.1,0.1-1.4-0.4
	c-0.6-1.2-1.7-1.6-2.9-1.8c-2.7-0.3-5.2,0.9-7.1,10c-0.6,3.3-0.8,7.2-0.6,10.8c0.2,5.3-0.6,10.8-2.3,16l-0.7,2
	c-6.7-2-13.7-3.1-21-3.3v-2.2c0-5.5,0.9-11,2.7-15.9c1.2-3.4,2.3-7.2,2.7-10.5c1.1-9.2-0.9-11.1-3.6-11.7c-1.2-0.2-2.3-0.2-3.3,0.8
	c-0.4,0.4-1,0.4-1.4,0c-1-1-2.1-1-3.3-0.8c-2.7,0.5-4.7,2.5-3.6,11.7c0.4,3.3,1.5,7,2.7,10.5c1.8,5,2.7,10.4,2.7,15.9v2.2
	c-7.3,0.2-14.3,1.3-21,3.3l-0.7-2.2c-1.7-5.2-2.5-10.7-2.3-16c0.1-3.6,0-7.5-0.6-10.8c-1.8-9.1-4.3-10.3-7.1-10
	c-1.2,0.1-2.3,0.5-2.9,1.8c-0.3,0.5-0.9,0.7-1.4,0.4c-1.2-0.6-2.3-0.3-3.4,0.3c-2.4,1.4-3.7,3.8,0.2,12.2c1.4,3,3.6,6.2,5.8,9.1
	c3.3,4.2,5.8,9.1,7.5,14.3l0.7,2.2c-6.8,2.4-13.1,5.7-18.9,9.6l-1.4-1.9c-3.2-4.5-5.7-9.4-7.2-14.5c-1-3.5-2.3-7.2-3.9-10.1
	c-4.5-8.1-7.3-8.5-9.8-7.3c-1.1,0.5-2,1.2-2.2,2.6c-0.1,0.6-0.6,0.9-1.2,0.8c-1.4-0.2-2.3,0.4-3.2,1.3c-1.9,2-2.4,4.8,3.9,11.6
	c2.3,2.4,5.3,4.8,8.4,6.8c4.4,3,8.3,6.8,11.6,11.3l1.4,1.9c-5.6,4.3-10.7,9.4-15,15l-2-1.5c-4.5-3.2-8.3-7.2-11.3-11.6
	c-2-3-4.4-6.1-6.8-8.4c-6.8-6.3-9.5-5.8-11.6-4c-0.9,0.8-1.5,1.8-1.3,3.2c0.1,0.6-0.3,1.1-0.8,1.2c-1.4,0.2-2.1,1.1-2.6,2.2
	c-1.1,2.5-0.8,5.3,7.3,9.8c2.9,1.6,6.6,2.9,10.1,3.9c5.1,1.5,10.1,3.9,14.5,7.2l2,1.4c-4,5.8-7.3,12.1-9.7,18.9l-2.4-0.8
	c-5.2-1.7-10.1-4.3-14.3-7.5c-2.9-2.2-6.1-4.4-9.1-5.8c-8.4-3.9-10.9-2.6-12.2-0.2c-0.6,1.1-0.9,2.2-0.3,3.4
	c0.2,0.5,0.1,1.1-0.4,1.4c-1.2,0.6-1.6,1.7-1.8,2.9c-0.3,2.7,0.9,5.2,10,7c3.3,0.6,7.2,0.8,10.8,0.6c5.3-0.2,10.8,0.6,16,2.3
	l2.3,0.8c-2,6.7-3.2,13.7-3.4,20.9h-2.5c-5.5,0-10.9-0.9-15.9-2.7c-3.4-1.2-7.2-2.3-10.5-2.7c-9.2-1.1-11.1,0.9-11.7,3.6
	c-0.2,1.2-0.2,2.3,0.8,3.3c0.4,0.4,0.4,1,0,1.4c-1,1-1,2.1-0.8,3.3c0.6,2.7,2.5,4.7,11.7,3.6c3.3-0.4,7-1.5,10.5-2.7
	c5-1.8,10.4-2.7,15.9-2.7h2.5c0.2,7.2,1.3,14.3,3.2,20.9l-2.4,0.8c-5.2,1.7-10.7,2.5-16,2.3c-3.6-0.1-7.5,0-10.8,0.6
	c-9.1,1.8-10.3,4.3-10,7c0.1,1.2,0.6,2.3,1.8,2.9c0.5,0.3,0.7,0.9,0.4,1.4c-0.6,1.2-0.3,2.3,0.3,3.4c1.4,2.4,3.8,3.7,12.2-0.2
	c3-1.4,6.2-3.6,9.1-5.8c4.2-3.3,9.1-5.8,14.3-7.5l2.3-0.8c2.4,6.8,5.6,13.1,9.5,18.9l-2,1.4c-4.5,3.2-9.4,5.7-14.5,7.2
	c-3.5,1-7.2,2.3-10.1,3.9c-8.1,4.5-8.5,7.3-7.3,9.8c0.5,1.1,1.2,2,2.6,2.2c0.6,0.1,0.9,0.6,0.8,1.2c-0.2,1.4,0.4,2.3,1.3,3.2
	c2,1.9,4.8,2.4,11.6-4c2.4-2.3,4.8-5.3,6.8-8.4c3-4.4,6.8-8.3,11.3-11.6l2-1.4c4.3,5.7,9.3,10.7,14.9,15.1l-1.4,1.9
	c-3.2,4.5-7.2,8.3-11.6,11.3c-3,2-6.1,4.4-8.4,6.8c-6.3,6.8-5.8,9.5-3.9,11.6c0.8,0.9,1.8,1.5,3.2,1.3c0.6-0.1,1.1,0.3,1.2,0.8
	c0.2,1.4,1.1,2.1,2.2,2.6c2.5,1.1,5.3,0.8,9.8-7.3c1.6-2.9,2.9-6.6,3.9-10.1c1.5-5.1,3.9-10,7.2-14.5l1.4-1.9
	c5.8,4,12.1,7.3,18.8,9.8l-0.7,2.2c-1.7,5.2-4.3,10.1-7.5,14.3c-2.2,2.9-4.4,6.1-5.8,9.1c-3.9,8.4-2.6,10.9-0.2,12.2
	c1.1,0.6,2.2,0.9,3.4,0.3c0.5-0.2,1.1-0.1,1.4,0.4c0.6,1.2,1.7,1.6,2.9,1.8c2.7,0.3,5.2-0.9,7.1-10c0.6-3.3,0.8-7.2,0.6-10.8
	c-0.2-5.3,0.6-10.8,2.3-16l0.7-2.1c6.7,2,13.7,3.2,21,3.5v2.2c0,5.5-0.9,11-2.7,15.9c-1.2,3.4-2.3,7.2-2.7,10.5
	c-1.1,9.2,0.9,11.1,3.6,11.7c1.2,0.2,2.3,0.2,3.3-0.8c0.4-0.4,1-0.4,1.4,0c1,1,2.1,1,3.3,0.8c2.7-0.5,4.7-2.5,3.6-11.7
	c-0.4-3.3-1.5-7-2.7-10.5c-1.8-5-2.7-10.4-2.7-15.9v-2.2c7.3-0.1,14.4-1.2,21.1-3.2l0.6,2c1.7,5.2,2.5,10.7,2.3,16
	c-0.1,3.6,0,7.5,0.6,10.8c1.8,9.1,4.3,10.3,7.1,10c1.2-0.1,2.3-0.5,2.9-1.8c0.3-0.5,0.9-0.7,1.4-0.4c1.2,0.6,2.3,0.3,3.4-0.3
	c2.4-1.4,3.7-3.8-0.2-12.2c-1.4-3-3.6-6.2-5.8-9.1c-3.3-4.2-5.8-9.1-7.5-14.3l-0.6-2c6.8-2.4,13.2-5.6,19.1-9.6l1.2,1.6
	c3.2,4.5,5.7,9.4,7.2,14.5c1,3.5,2.3,7.2,3.9,10.1c4.5,8.1,7.3,8.5,9.8,7.3c1.1-0.5,2-1.2,2.2-2.6c0.1-0.6,0.6-0.9,1.2-0.8
	c1.4,0.2,2.3-0.4,3.2-1.3c1.9-2,2.4-4.8-3.9-11.6c-2.3-2.4-5.3-4.8-8.4-6.8c-4.4-3-8.3-6.8-11.6-11.3l-1.2-1.6
	c5.7-4.3,10.8-9.4,15.2-15l1.6,1.2c4.5,3.2,8.3,7.2,11.3,11.6c2,3,4.4,6.1,6.8,8.4c6.8,6.3,9.5,5.8,11.6,4c0.9-0.8,1.5-1.8,1.3-3.2
	c-0.1-0.6,0.3-1.1,0.8-1.2c1.4-0.2,2.1-1.1,2.6-2.2c1.1-2.5,0.8-5.3-7.3-9.8c-2.9-1.6-6.6-2.9-10.1-3.9c-5.1-1.5-10.1-3.9-14.5-7.2
	l-1.6-1.1c4.1-5.8,7.4-12.2,9.8-19l1.8,0.6c5.2,1.7,10.1,4.3,14.3,7.5c2.9,2.2,6.1,4.4,9.1,5.8c8.4,3.9,10.9,2.6,12.2,0.2
	c0.6-1.1,0.9-2.2,0.3-3.4c-0.2-0.5-0.1-1.1,0.4-1.4c1.2-0.6,1.6-1.7,1.8-2.9c0.3-2.7-0.9-5.2-10-7c-3.3-0.6-7.2-0.8-10.8-0.6
	c-5.3,0.2-10.8-0.6-16-2.3l-1.8-0.6c2-6.7,3.2-13.8,3.4-21.1h1.9c5.5,0,10.9,0.9,15.9,2.7c3.4,1.2,7.2,2.3,10.5,2.7
	c9.2,1.1,11.1-0.9,11.7-3.6c0.2-1.2,0.2-2.3-0.8-3.3C1922.5,672,1922.5,671.4,1922.9,671L1922.9,671z"/>
<path class="st2" d="M1000.2,230c1-1,1-2.1,0.8-3.3c-0.5-2.7-2.5-4.7-11.7-3.6c-3.3,0.4-7,1.5-10.5,2.7c-5,1.8-10.4,2.7-15.9,2.7
	H961c-0.2-7.3-1.3-14.4-3.3-21.1l1.8-0.6c5.2-1.7,10.7-2.5,16-2.3c3.6,0.1,7.5,0,10.8-0.6c9.1-1.8,10.3-4.3,10-7.1
	c-0.1-1.2-0.5-2.3-1.8-2.9c-0.5-0.3-0.7-0.9-0.5-1.4c0.6-1.2,0.3-2.3-0.3-3.4c-1.4-2.4-3.8-3.7-12.2,0.2c-3,1.4-6.2,3.6-9.1,5.8
	c-4.2,3.3-9.1,5.8-14.3,7.5l-1.8,0.6c-2.4-6.8-5.7-13.2-9.7-19.1l1.6-1.1c4.5-3.2,9.4-5.7,14.5-7.1c3.5-1,7.2-2.3,10.1-3.9
	c8.1-4.5,8.5-7.3,7.3-9.8c-0.5-1.1-1.2-2-2.6-2.2c-0.6-0.1-0.9-0.6-0.8-1.2c0.2-1.4-0.4-2.3-1.3-3.1c-2-1.9-4.8-2.4-11.6,3.9
	c-2.4,2.3-4.8,5.3-6.8,8.4c-3,4.4-6.8,8.4-11.3,11.6l-1.6,1.1c-4.3-5.7-9.4-10.8-15.1-15.1l1.2-1.6c3.2-4.5,7.2-8.3,11.6-11.3
	c3-2,6.1-4.4,8.4-6.9c6.3-6.8,5.8-9.5,4-11.6c-0.8-0.9-1.8-1.5-3.2-1.3c-0.6,0.1-1.1-0.3-1.2-0.9c-0.2-1.4-1.1-2.1-2.2-2.6
	c-2.5-1.1-5.3-0.8-9.8,7.3c-1.6,2.9-2.9,6.6-3.9,10.1c-1.5,5.1-3.9,10.1-7.2,14.5l-1.2,1.6c-5.8-4-12.2-7.3-19-9.7l0.7-2
	c1.7-5.2,4.3-10.1,7.5-14.3c2.2-2.9,4.4-6.1,5.8-9.1c3.9-8.4,2.6-10.9,0.2-12.2c-1.1-0.6-2.2-0.9-3.4-0.3c-0.5,0.2-1.1,0.1-1.4-0.4
	c-0.6-1.2-1.7-1.6-2.9-1.8c-2.7-0.3-5.2,0.9-7,10c-0.6,3.3-0.8,7.2-0.6,10.8c0.2,5.3-0.6,10.8-2.3,16l-0.7,2c-6.7-2-13.7-3.1-21-3.3
	v-2.2c0-5.5,0.9-10.9,2.7-15.9c1.2-3.4,2.3-7.2,2.7-10.5c1.1-9.2-0.9-11.1-3.6-11.7c-1.2-0.2-2.3-0.2-3.3,0.8c-0.4,0.4-1,0.4-1.4,0
	c-1-1-2.1-1-3.3-0.8c-2.7,0.6-4.7,2.5-3.6,11.7c0.4,3.3,1.5,7,2.7,10.5c1.8,5,2.7,10.4,2.7,15.9v2.2c-7.3,0.2-14.3,1.3-21,3.3
	l-0.7-2.2c-1.7-5.2-2.5-10.7-2.3-16c0.1-3.6,0-7.5-0.6-10.8c-1.8-9.1-4.3-10.3-7-10c-1.2,0.1-2.3,0.6-2.9,1.8
	c-0.3,0.5-0.9,0.7-1.4,0.4c-1.2-0.6-2.3-0.3-3.4,0.3c-2.4,1.4-3.7,3.8,0.2,12.2c1.4,3,3.6,6.2,5.8,9.1c3.3,4.2,5.8,9.1,7.5,14.3
	l0.7,2.2c-6.8,2.4-13.1,5.6-18.9,9.6l-1.4-1.9c-3.2-4.5-5.7-9.4-7.2-14.5c-1-3.5-2.3-7.1-3.9-10.1c-4.5-8.1-7.3-8.5-9.8-7.3
	c-1.1,0.5-2,1.2-2.2,2.6c-0.1,0.6-0.6,0.9-1.2,0.9c-1.4-0.2-2.3,0.4-3.2,1.3c-1.9,2-2.4,4.8,4,11.6c2.3,2.4,5.3,4.8,8.4,6.9
	c4.4,3,8.3,6.8,11.6,11.3l1.4,1.9c-5.6,4.3-10.7,9.4-15,15l-2-1.4c-4.5-3.2-8.3-7.2-11.3-11.6c-2-3-4.4-6.1-6.8-8.4
	c-6.8-6.3-9.5-5.8-11.6-3.9c-0.9,0.8-1.5,1.8-1.3,3.1c0.1,0.6-0.3,1.1-0.8,1.2c-1.4,0.2-2.1,1.1-2.6,2.2c-1.1,2.5-0.8,5.3,7.3,9.8
	c2.9,1.6,6.6,2.9,10.1,3.9c5.1,1.5,10,3.9,14.5,7.1l2,1.4c-4,5.8-7.3,12.1-9.7,18.9l-2.4-0.8c-5.2-1.7-10.1-4.3-14.3-7.5
	c-2.9-2.2-6.1-4.4-9.1-5.8c-8.4-3.9-10.9-2.6-12.2-0.2c-0.6,1.1-0.9,2.2-0.3,3.4c0.2,0.5,0.1,1.1-0.4,1.4c-1.2,0.6-1.6,1.7-1.8,2.9
	c-0.3,2.7,0.9,5.2,10,7.1c3.3,0.6,7.2,0.8,10.8,0.6c5.3-0.2,10.8,0.6,16,2.3l2.3,0.8c-2,6.7-3.2,13.7-3.4,20.9h-2.5
	c-5.5,0-11-0.9-15.9-2.7c-3.4-1.2-7.2-2.3-10.5-2.7c-9.2-1.1-11.1,0.9-11.7,3.6c-0.2,1.2-0.2,2.3,0.8,3.3c0.4,0.4,0.4,1,0,1.4
	c-1,1-1,2.1-0.8,3.3c0.5,2.7,2.5,4.7,11.7,3.6c3.3-0.4,7-1.5,10.5-2.7c5-1.8,10.4-2.7,15.9-2.7h2.5c0.2,7.2,1.3,14.3,3.2,20.9
	l-2.4,0.8c-5.2,1.7-10.7,2.5-16,2.3c-3.6-0.1-7.5,0-10.8,0.6c-9.1,1.8-10.3,4.3-10,7c0.1,1.2,0.5,2.3,1.8,2.9
	c0.5,0.3,0.7,0.9,0.4,1.4c-0.6,1.2-0.3,2.3,0.3,3.4c1.4,2.4,3.8,3.7,12.2-0.2c3-1.4,6.2-3.6,9.1-5.8c4.2-3.3,9.1-5.8,14.3-7.5
	l2.3-0.8c2.4,6.8,5.6,13.1,9.5,18.9l-2,1.4c-4.5,3.2-9.4,5.7-14.5,7.1c-3.5,1-7.2,2.3-10.1,3.9c-8.1,4.5-8.5,7.3-7.3,9.8
	c0.5,1.1,1.2,2,2.6,2.2c0.6,0.1,0.9,0.6,0.8,1.2c-0.2,1.4,0.4,2.3,1.3,3.1c2,1.9,4.8,2.4,11.6-4c2.4-2.3,4.8-5.3,6.8-8.4
	c3-4.4,6.8-8.4,11.3-11.6l2-1.4c4.3,5.6,9.3,10.7,14.9,15.1l-1.4,1.9c-3.2,4.5-7.2,8.3-11.6,11.3c-3,2-6.1,4.4-8.4,6.9
	c-6.3,6.8-5.8,9.5-4,11.6c0.8,0.9,1.8,1.5,3.2,1.3c0.6-0.1,1.1,0.3,1.2,0.9c0.2,1.4,1.1,2.1,2.2,2.6c2.5,1.1,5.3,0.8,9.8-7.3
	c1.6-2.9,2.9-6.6,3.9-10.1c1.5-5.1,3.9-10,7.2-14.5l1.4-1.9c5.8,4,12.1,7.4,18.8,9.8l-0.7,2.2c-1.7,5.2-4.3,10.1-7.5,14.3
	c-2.2,2.9-4.4,6.1-5.8,9.1c-3.9,8.4-2.6,10.9-0.2,12.2c1.1,0.6,2.2,0.9,3.4,0.3c0.5-0.2,1.1-0.1,1.4,0.4c0.6,1.2,1.7,1.6,2.9,1.8
	c2.7,0.3,5.2-0.9,7-10c0.6-3.3,0.8-7.1,0.6-10.8c-0.2-5.3,0.6-10.8,2.3-16l0.7-2.1c6.7,2,13.7,3.2,21,3.5v2.2c0,5.5-0.9,11-2.7,15.9
	c-1.2,3.4-2.3,7.1-2.7,10.5c-1.1,9.2,0.9,11.1,3.6,11.7c1.2,0.2,2.3,0.2,3.3-0.8c0.4-0.4,1-0.4,1.4,0c1,1,2.1,1,3.3,0.8
	c2.7-0.5,4.7-2.5,3.6-11.7c-0.4-3.3-1.5-7-2.7-10.5c-1.8-5-2.7-10.4-2.7-15.9v-2.2c7.3-0.1,14.4-1.2,21.1-3.1l0.6,2
	c1.7,5.2,2.5,10.7,2.3,16c-0.1,3.6,0,7.5,0.6,10.8c1.8,9.1,4.3,10.3,7,10c1.2-0.1,2.3-0.5,2.9-1.8c0.3-0.5,0.9-0.7,1.4-0.4
	c1.2,0.6,2.3,0.3,3.4-0.3c2.4-1.4,3.7-3.8-0.2-12.2c-1.4-3-3.6-6.2-5.8-9.1c-3.3-4.2-5.8-9.1-7.5-14.3l-0.6-2
	c6.8-2.4,13.2-5.6,19.1-9.6l1.2,1.6c3.2,4.5,5.7,9.4,7.2,14.5c1,3.5,2.3,7.1,3.9,10.1c4.5,8.1,7.3,8.5,9.8,7.3
	c1.1-0.5,2-1.2,2.2-2.6c0.1-0.6,0.6-0.9,1.2-0.9c1.4,0.2,2.3-0.4,3.2-1.3c1.9-2,2.4-4.8-4-11.6c-2.3-2.4-5.3-4.8-8.4-6.9
	c-4.4-3-8.3-6.8-11.6-11.3l-1.2-1.6c5.7-4.3,10.8-9.4,15.2-15l1.6,1.1c4.5,3.2,8.3,7.2,11.3,11.6c2,3,4.4,6.1,6.8,8.4
	c6.8,6.3,9.5,5.8,11.6,4c0.9-0.8,1.5-1.8,1.3-3.1c-0.1-0.6,0.3-1.1,0.8-1.2c1.4-0.2,2.1-1.1,2.6-2.2c1.1-2.5,0.8-5.3-7.3-9.8
	c-2.9-1.6-6.6-2.9-10.1-3.9c-5.1-1.5-10-3.9-14.5-7.1l-1.6-1.1c4-5.8,7.4-12.2,9.8-19l1.8,0.6c5.2,1.7,10.1,4.3,14.3,7.5
	c2.9,2.2,6.1,4.4,9.1,5.8c8.4,3.9,10.9,2.6,12.2,0.2c0.6-1.1,0.9-2.2,0.3-3.4c-0.2-0.5-0.1-1.1,0.4-1.4c1.2-0.6,1.6-1.7,1.8-2.9
	c0.3-2.7-0.9-5.2-10-7c-3.3-0.6-7.2-0.8-10.8-0.6c-5.3,0.2-10.8-0.6-16-2.3l-1.8-0.6c2-6.7,3.2-13.8,3.4-21.1h1.9
	c5.5,0,11,0.9,15.9,2.7c3.4,1.2,7.2,2.3,10.5,2.7c9.2,1.1,11.1-0.9,11.7-3.6c0.2-1.2,0.2-2.3-0.8-3.3
	C999.8,231,999.8,230.4,1000.2,230L1000.2,230z"/>
<path class="st3" d="M1703.6,57.3c0-5.7-5.5-8.7-12.4-8.7c-7.9,0-15.3,4.8-19.2,12.6l-32.9-16.4c9.4-17.7,28.1-29.9,57.6-29.9
	s50.6,12.2,50.6,35.3c0,28.3-29.6,33.2-29.6,47.5h-38.1C1679.7,75.2,1703.6,68.6,1703.6,57.3L1703.6,57.3z M1674.4,126.8
	c0-12.4,10-21.8,24.4-21.8s24.4,9.4,24.4,21.8s-10,22.2-24.4,22.2S1674.4,139,1674.4,126.8z"/>
<path class="st4" d="M2416.5,1724.8H740.3c-31,0-56.1-25.1-56.1-56.1s25.1-56.1,56.1-56.1h1676.2c31,0,56.1,25.1,56.1,56.1
	S2447.4,1724.8,2416.5,1724.8z"/>
<path class="st5" d="M2370.6,1287.4c-26.7-1.2-49.9,13.3-58.1,19c10.8-23.8,22.5-46.3,35.1-67.5c9.8-16.6,20.2-32.3,31-47.1
	c6.9,5.9,29.3,23.4,56.8,24.7c33.1,1.5,61.1-21.3,61.1-21.3s-25.8-25.2-59-26.7c-22.7-1-43,9.4-53.5,16
	c19.9-26.3,41.3-49.8,64.2-70.1c9.8-0.9,37-5,56.6-23.2c24.3-22.6,27.6-58.5,27.6-58.5s-36,0.8-60.3,23.4
	c-17.7,16.5-24.3,40.1-26.5,51.7c-22.8,20.1-44.3,43.2-64.1,69c3-12.5,5.9-33.3-1.2-53.2c-11.2-31.2-42.9-48.4-42.9-48.4
	s-13.5,33.4-2.2,64.7c8.9,24.8,30.8,40.8,39.4,46.3c-11.4,15.5-22.3,32-32.6,49.4c-10.9,18.4-21.2,37.9-30.8,58.3
	c0.5-12.9-0.8-31.8-10.2-48.6c-16.2-28.9-50.3-40.7-50.3-40.7s-7.7,35.2,8.5,64.1c12.6,22.4,35.9,34.5,45.8,38.8
	c-11.8,26.2-22.4,53.9-32,82.9c-31.9,97.1-39.9,176.1-40,176.8l6.7,0.7c0.1-0.8,8-79.1,39.8-175.5c9.5-28.8,20.1-56.3,31.8-82.4
	c5.8,5.2,28.9,24.1,57.5,25.3c33.1,1.5,61.1-21.3,61.1-21.3S2403.8,1288.9,2370.6,1287.4L2370.6,1287.4z"/>
<path class="st5" d="M2515.7,1437.7c-20.3-8.3-42.3-3.5-50.1-1.3c14.9-15.4,30.2-29.7,45.7-42.6c12.2-10.1,24.5-19.4,36.9-27.9
	c3.7,6.5,16.2,26.2,37.1,34.7c25.2,10.3,53.1,0.3,53.1,0.3s-13-26.6-38.3-36.8c-17.3-7-35.9-4.6-45.8-2.3
	c22.6-14.9,45.6-27.1,68.9-36.6c7.9,2,30,6.3,50.1-2.4c25-10.8,37.4-37.7,37.4-37.7s-28.1-9.3-53.1,1.6
	c-18.3,7.9-29.8,24.4-34.7,32.7c-23.2,9.3-46.1,21.2-68.6,35.8c5.8-8.8,13.7-24.1,13.6-41.5c-0.1-27.2-19.9-49.3-19.9-49.3
	s-19.6,22.2-19.5,49.4c0.1,21.7,12.6,40,17.7,46.6c-13.1,8.9-26,18.6-38.8,29.2c-13.5,11.2-26.8,23.5-39.9,36.6
	c4-9.8,8.1-24.8,5.4-40.4c-4.6-26.9-27.8-45.3-27.8-45.3s-15.7,25.1-11.1,52c3.6,20.8,18.3,36.6,24.7,42.6
	c-16.3,17.1-32.2,35.5-47.5,55.3c-51.4,66.3-79.3,125.2-79.6,125.8l5,2.4c0.3-0.6,28-59,79-124.9c15.3-19.7,31.1-38.1,47.3-55
	c3.1,5.6,15.8,26.6,37.5,35.4c25.2,10.3,53.1,0.3,53.1,0.3S2540.9,1447.9,2515.7,1437.7L2515.7,1437.7z"/>
<path class="st5" d="M2378.2,1535.9c64.4,0,118.6,43.2,135.5,102.1h-270.9C2259.6,1579.1,2313.9,1535.9,2378.2,1535.9z"/>
<path class="st5" d="M2343.3,1638.1c-18.2-63-90.3-110-176.5-110s-158.3,47-176.5,110H2343.3L2343.3,1638.1z"/>
<path class="st6" d="M2539.2,1557c-60,0-110.5,40.2-126.2,95.1h252.4C2649.7,1597.2,2599.2,1557,2539.2,1557z"/>
<path class="st6" d="M2391.5,1586.4c-41.4,0-76.3,27.8-87.1,65.7h174.2C2467.8,1614.2,2432.9,1586.4,2391.5,1586.4L2391.5,1586.4z"
	/>
<path class="st6" d="M2579.2,1652.1c16.9-58.7,84.1-102.5,164.4-102.5s147.5,43.8,164.4,102.5H2579.2L2579.2,1652.1z"/>
<path class="st5" d="M936.5,1407.1c-27.7,8.8-49.3,23.5-59,30.9c-0.2-0.8-0.4-1.7-0.7-2.5c-5.6-21.2-12.5-45-20.9-70.5
	c11.2-2.3,37.5-9.2,63.2-25.2c33.8-21.2,53.7-50.4,53.7-50.4s-35,5.1-68.8,26.3c-24.9,15.6-42.2,35.5-49.6,44.9
	c-7-21.1-15.1-43.3-24.3-66.2c10.4-5.3,33.8-18.5,54.3-40.4c27.3-29.1,39-62.4,39-62.4s-32.5,13.9-59.8,43
	c-19.1,20.3-30.5,42.7-35.7,54.4c-9.3-22.8-19.8-46.2-31.5-69.7c9.5-6.8,30.6-23.5,47.5-48.2c22.5-32.9,29-67.7,29-67.7
	s-30,18.7-52.5,51.6c-15.5,22.7-23.4,46.2-26.9,58.7c-8-15.8-16.6-31.6-25.7-47.3c6.2-9.9,19.4-33.3,25.7-62.5
	c8.4-39,1.3-73.6,1.3-73.6s-20.7,28.6-29.1,67.6c-5.1,23.7-4.5,45.8-3.2,59.4c-6.6-10.9-13.4-21.8-20.6-32.6
	c-3.7-13.2-10.9-34.1-24.1-54.6c-21.7-33.5-51.2-53-51.2-53s5.6,34.9,27.3,68.4c13,20.2,28.9,35.3,39.5,44.1
	c7.4,11.1,14.5,22.4,21.3,33.7c-12.1-4.7-35.5-12.4-62.9-13.6c-39.9-1.7-72.8,11.1-72.8,11.1s31.7,15.6,71.6,17.4
	c30.3,1.3,56.5-5.7,67.4-9.2c9.3,15.8,17.9,31.6,26,47.5c-11.9-1.2-38.3-2.4-66.8,4.9c-38.7,9.8-66.5,31.6-66.5,31.6
	s34.9,5.8,73.5-4.1c29.4-7.5,52.5-21.8,61.9-28.3c12.1,24.1,22.9,48.1,32.5,71.4c-12-2.2-37.9-5.7-66.7-1c-39.4,6.4-69,25.6-69,25.6
	s34.2,8.9,73.6,2.5c29.7-4.8,53.8-16.9,63.9-22.6c9.3,23.1,17.5,45.5,24.6,66.8c-12-2.7-37.6-6.9-66.2-3.3
	c-39.6,5-69.9,23.1-69.9,23.1s33.9,10.1,73.5,5.1c29.4-3.7,53.8-14.7,64.3-20.1c8.3,25.2,15.1,48.7,20.6,69.6
	c0.3,1.1,0.5,2.1,0.8,3.1c-7.9-1-38.3-4.1-71.5,4.3c-38.7,9.8-66.5,31.6-66.5,31.6s34.9,5.8,73.5-4.1c33.2-8.5,58.4-25.7,64.9-30.4
	c22.3,86,28.3,147.5,28.3,148.1l9.7-0.9c-0.1-0.6-6-61.4-27.9-146.7c12,0.5,38.4,0.2,66.3-8.7c38-12,64.6-35.4,64.6-35.4
	S974.6,1395.1,936.5,1407.1L936.5,1407.1z"/>
<path class="st5" d="M677.1,1448.6c-15.6,10.7-26.3,23.9-30.9,30.3c-0.3-0.5-0.6-0.9-0.9-1.4c-7.5-12.2-16.2-25.7-26.2-40
	c6.5-3.6,21.7-12.7,34.6-27.6c17.1-19.5,24-41.5,24-41.5s-20.8,9.8-37.9,29.3c-12.6,14.4-19.6,30-22.5,37.3
	c-8.3-11.8-17.5-24.2-27.6-36.7c5.5-5.2,17.6-17.9,26.2-35.3c11.5-23.3,12.6-46.2,12.6-46.2s-17.6,14.8-29.2,38
	c-8,16.2-11,32.3-12,40.6c-10.1-12.4-21-25-32.7-37.5c4.6-6,14.7-20.4,20.5-38.9c7.8-24.7,5.4-47.6,5.4-47.6s-15.2,17.3-23,42
	c-5.4,17.1-5.9,33.2-5.7,41.6c-7.9-8.3-16.2-16.6-24.9-24.7c2-7.4,5.8-24.4,4.3-43.7c-2.1-25.9-13-46.1-13-46.1s-7.5,21.7-5.4,47.6
	c1.3,15.7,5.8,29.3,9.2,37.6c-6.1-5.6-12.5-11.1-18.9-16.4c-4.8-7.6-13.2-19.2-25.2-29.4c-19.8-16.8-41.8-23.4-41.8-23.4
	s10,20.7,29.8,37.5c11.9,10.1,24.6,16.5,32.9,20c6.7,5.5,13.2,11.2,19.6,17c-8.4-0.7-24.5-1.1-41.7,3.3
	c-25.1,6.4-43.3,20.6-43.3,20.6s22.7,3.8,47.8-2.6c19.1-4.9,34.1-14.2,40.3-18.4c8.7,8.1,17.1,16.3,25.1,24.7
	c-7.7,1.5-24.3,5.7-40.7,15.6c-22.2,13.4-35.5,32.2-35.5,32.2s22.8-2.9,45-16.3c16.9-10.2,28.6-23.4,33.2-29.2
	c12.1,12.7,23.3,25.6,33.6,38.4c-7.9,0.9-24.7,3.6-41.7,11.9c-23.3,11.4-38.2,28.9-38.2,28.9s23-0.9,46.3-12.3
	c17.6-8.6,30.3-20.6,35.6-26.1c10.2,12.6,19.4,25.1,27.9,37c-8,0.6-24.7,2.8-41.8,10.4c-23.7,10.5-39.2,27.5-39.2,27.5
	s23-0.1,46.7-10.6c17.6-7.8,30.7-19.2,36.3-24.6c9.9,14.1,18.5,27.5,25.9,39.5c0.4,0.6,0.7,1.2,1.1,1.8c-5.1,0.8-24.6,4.6-43.7,16.1
	c-22.2,13.4-35.5,32.2-35.5,32.2s22.8-2.9,45-16.3c19.1-11.5,31.5-27,34.7-31.1c30,49.4,45.3,86.5,45.5,86.9l5.9-2.4
	c-0.2-0.4-15.3-37.1-44.9-86.1c7.6-2,23.9-7.1,39.7-17.9c21.4-14.6,33.6-34.2,33.6-34.2S698.5,1434,677.1,1448.6L677.1,1448.6z"/>
<path class="st1" d="M1300.5,1477.9c4.2-0.7,8.2,2.2,8.9,6.4c0.3,1.9-0.1,3.7-1,5.3c5.5,7.3,10.4,14.9,14.8,22.6
	c0-7.3,0.6-18.2,3.2-28.6c-1.8-1.2-3.1-3-3.5-5.3c-0.7-4.2,2.2-8.2,6.4-8.9c4.2-0.7,8.2,2.2,8.9,6.4c0.7,4.2-2.2,8.2-6.4,8.9
	c-0.5,0.1-1,0.1-1.4,0.1c-3.9,15.6-3,32.8-2.8,35.4c9.2,17.4,15.8,34.4,20.3,47.9c8.1,24.2,11.2,42.2,11.2,42.4l-4.1,0.7
	c0-0.2-3.1-17.9-11.1-41.8c-2.4-7.2-5.4-15.4-9.1-24.1c-2.8-1.2-13.4-5.2-28.4-5.6c-0.6,3.1-3.1,5.6-6.3,6.2
	c-4.2,0.7-8.2-2.2-8.9-6.4c-0.7-4.2,2.2-8.2,6.4-8.9c3.7-0.6,7.3,1.5,8.5,5c11.9,0.3,21.2,2.7,26.4,4.4
	c-6.9-15.5-15.8-32.2-27.2-47.5c-0.7,0.4-1.5,0.6-2.3,0.8c-4.2,0.7-8.2-2.2-8.9-6.4C1293.4,1482.6,1296.2,1478.6,1300.5,1477.9
	L1300.5,1477.9z"/>
<path class="st1" d="M1383.9,1548.5c-2.2-2.1-10.7-9.5-24.6-15.2c-1.7,2.7-4.8,4.2-8.1,3.5c-4.2-0.8-6.9-4.9-6.1-9.1
	c0.8-4.2,4.9-6.9,9.1-6.1c3.7,0.7,6.2,4,6.2,7.6c11.1,4.4,18.9,10,23.2,13.4c-1-16.9-3.5-35.7-8.8-54c-0.8,0.1-1.6,0.1-2.4-0.1
	c-4.2-0.8-6.9-4.9-6.1-9.1c0.8-4.2,4.9-6.9,9.1-6.1c4.2,0.8,6.9,4.9,6.1,9.1c-0.4,1.9-1.4,3.5-2.8,4.6c2.6,8.8,4.5,17.7,5.9,26.4
	c2.6-6.8,6.9-16.8,13.1-25.7c-1.3-1.7-1.8-3.9-1.4-6.1c0.8-4.2,4.9-6.9,9.1-6.1c4.2,0.8,6.9,4.9,6.1,9.1c-0.8,4.2-4.9,6.9-9.1,6.1
	c-0.5-0.1-0.9-0.2-1.4-0.4c-9.2,13.2-14.3,29.6-15.1,32.2c2.5,19.5,2.7,37.8,2.2,51.9c-1,25.4-4.4,43.4-4.4,43.6l-4.1-0.8
	c0-0.2,3.4-17.8,4.4-43C1384.1,1566.7,1384.2,1558,1383.9,1548.5L1383.9,1548.5z"/>
<path class="st1" d="M1471.3,1601.2c14.5,0,26.8,9.7,30.6,23.1h-61.1C1444.5,1611,1456.7,1601.2,1471.3,1601.2L1471.3,1601.2z"/>
<path class="st1" d="M1322.3,1590.3c21.4,0,39.4,14.3,45,33.9h-90.1C1282.8,1604.7,1300.9,1590.3,1322.3,1590.3z"/>
<path class="st1" d="M1462,1624.3c-6.9-23.9-34.3-41.7-67-41.7s-60.1,17.8-67,41.7H1462L1462,1624.3z"/>
<path class="st5" d="M638,1540.2c-53.9,0-99.4,36.2-113.5,85.5h226.9C737.3,1576.3,691.8,1540.2,638,1540.2z"/>
<path class="st5" d="M505.2,1566.7c-37.2,0-68.6,24.9-78.3,59h156.6C573.7,1591.6,542.4,1566.7,505.2,1566.7L505.2,1566.7z"/>
<path class="st5" d="M673.9,1625.7c15.2-52.7,75.6-92.1,147.8-92.1s132.6,39.4,147.8,92.1H673.9z"/>
<path class="st6" d="M2086.3,1702.2c30.9,0,56.9,20.7,64.9,49h-129.9C2029.5,1722.9,2055.5,1702.2,2086.3,1702.2z"/>
<path class="st6" d="M2162.3,1717.4c21.3,0,39.2,14.3,44.8,33.8h-89.6C2123.1,1731.6,2141.1,1717.4,2162.3,1717.4L2162.3,1717.4z"/>
<path class="st6" d="M2065.7,1751.2c-8.7-30.2-43.3-52.7-84.6-52.7s-75.9,22.5-84.6,52.7H2065.7z"/>
<path class="st7" d="M2582,736.5c44.6,0,82.3,29.9,93.9,70.8H2488C2499.7,766.5,2537.3,736.5,2582,736.5L2582,736.5z"/>
<path class="st7" d="M2691.9,758.5c30.8,0,56.8,20.7,64.8,48.9h-129.7C2635.1,779.1,2661.1,758.5,2691.9,758.5L2691.9,758.5z"/>
<path class="st7" d="M2552.2,807.4c-12.6-43.7-62.6-76.3-122.4-76.3s-109.8,32.6-122.4,76.3H2552.2L2552.2,807.4z"/>
<path class="st6" d="M878.9,1603.6c-31.3,0-57.7,21-65.8,49.6h131.7C936.5,1624.5,910.1,1603.6,878.9,1603.6L878.9,1603.6z"/>
<path class="st6" d="M801.8,1618.9c-21.6,0-39.8,14.5-45.4,34.2h90.9C841.6,1633.4,823.4,1618.9,801.8,1618.9z"/>
<path class="st6" d="M899.7,1653.2c8.8-30.6,43.9-53.4,85.8-53.4s76.9,22.8,85.8,53.4H899.7L899.7,1653.2z"/>
<path class="st8" d="M2310.7,777.8c27.3,0,50.4,18.3,57.5,43.4h-115C2260.3,796.1,2283.4,777.8,2310.7,777.8L2310.7,777.8z"/>
<path class="st8" d="M2378,791.2c18.9,0,34.8,12.7,39.7,29.9h-79.4C2343.3,803.9,2359.2,791.2,2378,791.2z"/>
<path class="st8" d="M2292.5,821.2c-7.7-26.7-38.3-46.7-74.9-46.7s-67.2,20-74.9,46.7H2292.5L2292.5,821.2z"/>
<path class="st6" d="M901.3,578.3c71.2,0,131.2,47.7,149.8,112.9H751.5C770.1,626,830.2,578.3,901.3,578.3L901.3,578.3z"/>
<path class="st6" d="M1076.6,613.3c49.1,0,90.5,32.9,103.4,77.9H973.3C986.1,646.2,1027.5,613.3,1076.6,613.3z"/>
<path class="st6" d="M853.8,691.2c-20.1-69.6-99.9-121.6-195.2-121.6s-175,52-195.2,121.6H853.8L853.8,691.2z"/>
<path class="st8" d="M1027.9,688.2c20,0,36.9,13.4,42.1,31.7h-84.2C991.1,701.6,1007.9,688.2,1027.9,688.2L1027.9,688.2z"/>
<path class="st8" d="M822.8,673.2c29.5,0,54.3,19.8,62,46.8h-124C768.4,693,793.3,673.2,822.8,673.2L822.8,673.2z"/>
<path class="st8" d="M1015.2,720c-9.5-32.9-47.2-57.5-92.2-57.5s-82.7,24.6-92.2,57.5H1015.2L1015.2,720z"/>
<path class="st2" d="M2061.9,1067.1c-30.9,0-56.9,20.7-65,49h130C2118.8,1087.8,2092.8,1067.1,2061.9,1067.1L2061.9,1067.1z"/>
<path class="st2" d="M1985.8,1082.3c-21.3,0-39.3,14.3-44.9,33.8h89.7C2025.1,1096.6,2007.1,1082.3,1985.8,1082.3z"/>
<path class="st2" d="M2082.5,1116.1c8.7-30.2,43.3-52.8,84.7-52.8s76,22.6,84.7,52.8H2082.5z"/>
<path class="st9" d="M1885.3,1592.5c16.4,0,30.2,11,34.4,26h-68.9C1855.2,1603.5,1869,1592.5,1885.3,1592.5L1885.3,1592.5z"/>
<path class="st9" d="M1925.7,1600.6c11.3,0,20.8,7.6,23.8,17.9h-47.6C1904.8,1608.2,1914.4,1600.6,1925.7,1600.6L1925.7,1600.6z"/>
<path class="st9" d="M1874.4,1618.5c-4.6-16-23-28-44.9-28s-40.3,12-44.9,28H1874.4L1874.4,1618.5z"/>
<path class="st7" d="M977.8,862.6c23.3,0,42.9,15.6,49,37h-98C934.9,878.2,954.5,862.6,977.8,862.6L977.8,862.6z"/>
<path class="st7" d="M1035.2,874.1c16.1,0,29.6,10.8,33.8,25.5h-67.7C1005.6,884.8,1019.1,874.1,1035.2,874.1L1035.2,874.1z"/>
<path class="st7" d="M962.3,899.6c-6.6-22.8-32.7-39.8-63.9-39.8s-57.3,17-63.9,39.8H962.3z"/>
<path class="st10" d="M1935,1467.4l-126.8-264.2v-111.3h0.8c9.6,0,17.4-7.8,17.4-17.4s-7.8-17.4-17.4-17.4h-83
	c-9.6,0-17.4,7.8-17.4,17.4s7.8,17.4,17.4,17.4h0.8v111.3l-126.8,264.2c-3.2,6.7,1.7,14.4,9.1,14.4h316.7
	C1933.3,1481.8,1938.2,1474.1,1935,1467.4L1935,1467.4z"/>
<path class="st1" d="M1935,1467.4l-76.6-159.7c-17-2.7-33.9-4.5-50.3-0.4c-8.9,2.2-17.3,6.1-26.1,8.8c-17.2,5.3-35.9,5.9-53.4,1.7
	c-14.2-3.4-27.6-9.9-41.8-13c-2.6-0.6-5.2-1-7.8-1.4l-78.7,164c-3.2,6.7,1.7,14.4,9.1,14.4h316.7
	C1933.3,1481.8,1938.2,1474.1,1935,1467.4L1935,1467.4z"/>
<circle class="st1" cx="1756.8" cy="1269.4" r="16.6"/>
<path class="st1" d="M1766.7,1224.6c0-3.7,3-6.6,6.6-6.6s6.6,3,6.6,6.6s-3,6.6-6.6,6.6S1766.7,1228.3,1766.7,1224.6z"/>
<circle class="st1" cx="1756.8" cy="1101.9" r="13.3"/>
<circle class="st1" cx="1794.9" cy="1032.2" r="6.6"/>
<rect x="1573.1" y="935.6" class="st11" width="13" height="734.6"/>
<circle class="st11" cx="1579.5" cy="1171.5" r="20.8"/>
<rect x="1575.7" y="1166.9" class="st11" width="244.6" height="9.3"/>
<path class="st11" d="M1766.5,1644.8H1394c-2.7,10-10.9,17.8-21.2,19.7v11.5h413.5v-11.8C1776.7,1661.8,1769,1654.3,1766.5,1644.8
	L1766.5,1644.8z"/>
<path class="st12" d="M1457.4,820.9c53.3-81.9,200.2-39,222.3,39c22.1,78-149.6,2-130-107.9c16.9-94.9,205.4-27.3,201.5,262.6"/>
<path class="st7" d="M1208.4,986.3c-11.9-15.9,2.9-24.3,3.2-24.7c3.6-4.7,15.2-3.8,20.6,1l115,114.1c2,1.7,1.3,12.2-0.3,14.3
	c-0.5,0.7-1.2,1.2-2,1.5c-5.1,3.4-15.5-3.7-20.7-7.2C1298.7,1068.3,1223.9,1007,1208.4,986.3L1208.4,986.3z"/>
<path class="st13" d="M1233.6,1425.5c6.5-6.7,12.2-9.2,19.6-6.8c8.1,2.6,12.5,11.4,9.6,19.4l-80.1,223.7c-1.3,3.5-5.1,5.4-8.7,4.3
	c-3.6-1.1-5.6-4.9-4.6-8.5l2.8-9.9C1209.1,1488.8,1212.5,1450.4,1233.6,1425.5L1233.6,1425.5z"/>
<path class="st7" d="M1177.6,1219.1c1.9-28.4,15.9-35.2,26.1-36.3c0.7-0.2,1.3-0.5,2.1-0.6c8.3-1.8,16.5,3.7,18,12.1l42,233.8
	c0.7,3.7-1.7,7.2-5.4,8c-1.2,0.3-2.4,0.2-3.6-0.2c-8.7-1.1-16.3-6.8-19.6-15.2C1220.4,1377.1,1175.1,1256,1177.6,1219.1
	L1177.6,1219.1z"/>
<path class="st13" d="M1153.6,1425.5c6.5-6.7,12.2-9.2,19.6-6.8c8.1,2.6,12.5,11.4,9.6,19.4l-80.1,223.7c-1.3,3.5-5.1,5.4-8.7,4.3
	c-3.6-1.1-5.6-4.9-4.6-8.5l2.8-9.9C1129.2,1488.8,1132.6,1450.4,1153.6,1425.5L1153.6,1425.5z"/>
<path class="st7" d="M1130.4,1213.2c6.4-27.7,21.4-32.1,31.7-31.6c0.7-0.1,1.4-0.2,2.1-0.3c8.5-0.4,15.7,6.3,15.8,14.8l3.7,237.5
	c0.1,3.8-2.9,6.9-6.6,7.1c-1.2,0.1-2.4-0.2-3.5-0.8c-8.4-2.5-15-9.4-16.8-18.2C1147.2,1376,1122.1,1249.2,1130.4,1213.2
	L1130.4,1213.2z"/>
<path class="st14" d="M1092.8,1660.8c5.1,0,9.6-0.8,12.3-1.9c17.8,2.5,54.1,10.8,53,19.8c-0.4,3.3-71.2,1.1-76.1,0.6
	c-3.5-0.4-2.1-10.7-0.9-16.7c0.3-1.7,2-2.8,3.7-2.4C1087,1660.5,1089.8,1660.8,1092.8,1660.8L1092.8,1660.8z"/>
<path class="st14" d="M1175.7,1660.8c5.1,0,9.6-0.8,12.3-1.9c17.8,2.5,54.1,10.8,53,19.8c-0.4,3.3-71.2,1.1-76.1,0.6
	c-3.5-0.4-2.1-10.7-0.9-16.7c0.3-1.7,2-2.8,3.7-2.4C1169.9,1660.5,1172.7,1660.8,1175.7,1660.8L1175.7,1660.8z"/>
<path class="st15" d="M1221.7,1173.2c0,0,46.3,227.4,47,244.6c0.7,17.2-3.5,27.6-8.7,40.4c-5.2,12.7-61.2,169.8-61.2,169.8
	l-21.3-2.8c0,0,22.8-167.2,54.1-204.9c0,0-79.2-228-79.2-247.1H1221.7L1221.7,1173.2z"/>
<path class="st15" d="M1099.2,1617.8l19.7,4.9c0,0,68.2-177.6,67.7-186.4s0-263.1,0-263.1l-59.8,3c0,0-10.8,107.9,25.5,244.7
	C1152.4,1420.9,1127,1431,1099.2,1617.8L1099.2,1617.8z"/>
<path class="st13" d="M1384.3,961.9c5.6,1.2,11.4-0.4,15.7-4.1c11-9.6,31.2-28.4,31.1-37.4c-0.1-12.4-39.8,13-49.9,40.9
	L1384.3,961.9L1384.3,961.9z"/>
<path class="st7" d="M1127.7,1148.2c0.2-5.5,0.4-10.9,0.8-16.2c0.2-3.5,0.5-6.9,0.8-10.3c0.7-7.7,1.5-15.1,2.5-22.3
	c0.5-3.4,1-6.9,1.6-10.2c1.4-8.3,2.9-16.4,4.7-24.2c0.8-3.4,1.5-6.7,2.4-10c5.4-21.6,12.4-41.5,20.3-60.4c4.7-11,9.6-20.5,14.4-28.6
	c14.5-24.2,49.4-24.5,64.5-0.8l3.3,5.1c8.4,13.1,8.8,29.6,1.3,43.3c-8.2,15-15,38.2-17.7,76c-0.2,2.3-0.3,4.7-0.5,7.1
	c-0.2,3.5-0.3,7-0.5,10.7c-0.2,5.2-0.3,10.6-0.3,16.3c0,3.4,0,6.9,0,10.5c0.1,6.3,0.2,13,0.4,19.9c0.1,1.9,0.1,3.9,0.2,5.9
	c0.1,1.5,0.1,3.1,0.2,4.7c0.1,3.7,0.3,7.6,0.6,11.5c0.2,3.4,0.4,6.9,0.6,10.4c0.3,4.8,0.7,9.7,1.1,14.7c-10.3,1.5-21.6-0.2-31.7-3.3
	c-17-5.2-33.5-13.5-51.3-13.8c-6-0.1-11.9,0.7-17.8,1.4c-0.3-9.3-0.4-18.3-0.3-27.1C1127.5,1155,1127.6,1151.6,1127.7,1148.2
	L1127.7,1148.2z"/>
<path class="st7" d="M1396.2,960.8c-5.1,33.4-27,104.3-37.8,122.8c-9,15.3-18.2,9.7-18.6,9.6c-5.3-1.3-9.9-10.5-7.8-16.7l48.8-120.5
	L1396.2,960.8L1396.2,960.8z"/>
<path class="st7" d="M1199.8,990.3c15.7-12.1,3.7-24.2,3.6-24.6c-2.2-5.5-13.6-7.8-20.1-4.5l-141.4,79c-2.4,1.1-0.7,5.1,0.2,7.5
	c0.3,0.8,0.8,1.5,1.5,2c4,4.7,11.9,6.4,18.1,5C1093.4,1047.5,1179.3,1006,1199.8,990.3L1199.8,990.3z"/>
<path class="st7" d="M1263.7,1362.1l-24.6,4.1l-22.7-84l12,88.7c0,0-81.2,27.9-99.8,20.8c0,0-14.4-229,3.3-268l93.8,30.4
	C1225.9,1154.1,1250.5,1322.9,1263.7,1362.1L1263.7,1362.1z"/>
<rect x="1080.7" y="1160.5" transform="matrix(0.9837 -0.1798 0.1798 0.9837 -190.9513 230.2247)" class="st16" width="187.6" height="15.9"/>
<rect x="1076.5" y="1161.2" transform="matrix(0.9837 -0.1798 0.1798 0.9837 -192.4235 224.9214)" class="st1" width="136.2" height="25.5"/>
<path class="st16" d="M1342.2,1035.6c-54.6,10-90.8,62.3-80.8,116.9c10,54.6,62.3,90.8,116.9,80.8c54.6-10,90.8-62.3,80.8-116.9
	C1449.2,1061.8,1396.8,1025.6,1342.2,1035.6z M1343.9,1044.5c49.7-9.1,97.3,23.8,106.4,73.5c9.1,49.7-23.8,97.3-73.5,106.4
	c-49.7,9.1-97.3-23.8-106.4-73.5C1261.3,1101.2,1294.2,1053.6,1343.9,1044.5z"/>
<ellipse transform="matrix(0.7071 -0.7071 0.7071 0.7071 -403.7585 1294.1655)" class="st17" cx="1360.3" cy="1134.5" rx="91.4" ry="91.4"/>
<path class="st13" d="M1145.6,1127.6c5.7-0.6,11.3,1.5,15.2,5.6c10.1,10.6,28.3,31.2,27.4,40.2c-1.3,12.3-38.3-16.7-45.8-45.4
	L1145.6,1127.6z"/>
<path class="st7" d="M1155.7,1130c-20.8-26.7-74.6-77.7-93.1-88.5c-15.3-9-20.6,0.5-20.9,0.8c-4,3.8-3.5,14,1.4,18.3l101.6,81.2
	L1155.7,1130L1155.7,1130z"/>
<path class="st18" d="M1223.8,954.2c0,0,15.2,7.4,4.9,35.5c-10.2,28.1-13.2,39.3-13.2,39.3s-19.7-60.1-15.3-71.6
	C1204.4,946,1223.8,954.2,1223.8,954.2L1223.8,954.2z"/>
<path class="st16" d="M1282,905.5c0.5-2.5-0.8-5.2-0.8-7.7c0.1-2.5,1.4-5.2,1.1-7.6c-0.3-2.5-2.4-4.7-3.1-7
	c-0.7-2.4-0.2-5.3-1.3-7.6c-1.1-2.3-3.7-3.7-5.1-5.8s-1.8-5-3.6-6.8c-1.7-1.8-4.6-2.4-6.6-3.9c-2-1.5-3.3-4.2-5.5-5.4
	c-2.2-1.2-5.1-0.8-7.5-1.6c-2.3-0.8-4.4-2.9-6.9-3.4s-5.2,0.8-7.7,0.8c-2.6-0.1-5.2-1.4-7.6-1.1c-2.5,0.3-4.7,2.4-7.1,3.1
	c-2.4,0.7-5.3,0.2-7.6,1.3c-2.3,1.1-3.7,3.7-5.8,5.1s-5,1.8-6.8,3.6c-1.8,1.7-2.4,4.6-3.9,6.6c-1.5,2-4.2,3.3-5.4,5.5
	c-1.2,2.2-0.8,5.1-1.6,7.5c-0.8,2.3-2.9,4.4-3.4,6.9c-0.5,2.5,0.8,5.2,0.8,7.7c-0.1,2.5-1.4,5.2-1.1,7.6c0.3,2.5,2.4,4.7,3.1,7
	c0.7,2.4,0.2,5.3,1.3,7.6c1.1,2.3,3.7,3.7,5.1,5.8s1.8,5,3.6,6.8c1.7,1.8,4.6,2.4,6.6,3.9c2,1.5,3.3,4.2,5.5,5.4
	c2.2,1.2,5.1,0.8,7.5,1.6c2.3,0.8,4.4,2.9,6.9,3.4s5.2-0.8,7.7-0.8c2.6,0.1,5.2,1.4,7.6,1.1c2.5-0.3,4.7-2.4,7.1-3.1
	c2.4-0.7,5.3-0.2,7.6-1.3c2.3-1.1,3.7-3.7,5.8-5.1s5-1.8,6.8-3.6c1.8-1.7,2.4-4.6,3.9-6.6c1.5-2,4.2-3.3,5.4-5.5
	c1.2-2.2,0.8-5.1,1.6-7.5C1279.5,910.1,1281.6,908,1282,905.5z"/>
<path class="st16" d="M1261.4,953.2c0,0,6.3-9.3,3.7-19.5c-2.5-10.2-8.2-0.5-8.2-0.5L1261.4,953.2L1261.4,953.2z"/>
<path class="st16" d="M1202.9,915.8c0.3,1.1,3.2,21.3,6.3,22.4c4.2,1.4,6.2-13.3,6.2-13.3L1202.9,915.8z"/>
<path class="st16" d="M1266,905.2c0,0,6.6-8.3,4.5-15.8c-2-7.1-6.5-15.2-32-16c-3.6-0.1-6.8,2.4-7.6,6l-2.2,10.1L1266,905.2
	L1266,905.2z"/>
<path class="st13" d="M1215.7,912.9c-1.1,15-0.9,27.6,6.9,35.8c2.7,2.9,6.4,5.6,11,7.4c2.9,1.1,6.2,1.8,9.8,1.8
	c9.6,0.1,15.2-3.7,18.6-10.2c3.9-7.4,4.9-18.4,5.9-31c1.7-23.6-9.1-36.5-23.5-37.5S1217.4,889.3,1215.7,912.9L1215.7,912.9z"/>
<path class="st13" d="M1213.8,914l24.5,4.3c-0.6,3.3-6.7,35.1-11.2,46.5c-1.9,3.4-8.3,3.4-14.3,0c-5.4-3-8.6-7.7-7.9-11.1h0
	C1207.5,946.8,1211.7,925.7,1213.8,914L1213.8,914z"/>
<path class="st16" d="M1203.2,917.6c0,0,5.7,3.1,11.9-1.1c8.1-5.6,17.6-19.5,20.6-26c5.4-11.6,2.6-15.6,2.6-15.6s-23.7-3.2-30.3,3.5
	C1198.1,888.3,1203.2,917.5,1203.2,917.6L1203.2,917.6z"/>
<path class="st16" d="M1225,902.1l-2.5,34.4c-0.3,3.6,1.7,7.1,4.9,8.7l3.7,1.9c2.3,1.2,5.1,0,5.8-2.5l1.9-6.8
	c0.4-1.5,1.8-2.6,3.4-2.6l15.7-0.1c1.7,0,3.1,1.2,3.5,2.8l1.5,6.8c1.4,6.7-3.4,13.2-10.3,13.6l-9.5,0.7c-2,0.1-4.1-0.2-5.9-1
	c-0.1-0.1-0.3-0.1-0.4-0.2l-0.2-0.1h0l-2.9-1.5l0,0l-9.4-4.8c-5.7-3-9.1-9-8.7-15.5l2.5-34.4L1225,902.1L1225,902.1z"/>
<path class="st13" d="M1205.1,912.8c-0.4,5.1,4.2,12,7.9,12.3c3.7,0.3,4.9-3.8,5.3-8.9s-2.2-10.1-5.9-10.4
	C1208.6,905.5,1205.4,907.7,1205.1,912.8L1205.1,912.8z"/>
<path class="st16" d="M1234.7,885l15.2,1.2c5.1,0.4,9.9,2.7,13.4,6.3l4.9,5l-5.9-14.8l-11.8-5.6l-15.6-0.1L1234.7,885L1234.7,885z"
	/>
<ellipse class="st19" cx="1183.6" cy="328" rx="58.3" ry="164.3"/>
<ellipse transform="matrix(0.8477 -0.5305 0.5305 0.8477 6.2261 677.887)" class="st20" cx="1183.6" cy="328.1" rx="164.3" ry="58.3"/>
<ellipse transform="matrix(0.5305 -0.8477 0.8477 0.5305 277.6988 1157.2563)" class="st20" cx="1183.6" cy="327.9" rx="58.3" ry="164.3"/>
<ellipse transform="matrix(0.9239 -0.3827 0.3827 0.9239 -35.4234 477.9331)" class="st21" cx="1183.6" cy="328" rx="37.3" ry="37.3"/>
<ellipse transform="matrix(0.2297 -0.9733 0.9733 0.2297 787.5602 1473.9418)" class="st1" cx="1324.9" cy="239.4" rx="14.7" ry="14.7"/>
<ellipse transform="matrix(0.2297 -0.9733 0.9733 0.2297 531.465 1243.788)" class="st3" cx="1051.5" cy="286.1" rx="14.7" ry="14.7"/>
<ellipse transform="matrix(0.2297 -0.9733 0.9733 0.2297 479.0358 1541.9967)" class="st22" cx="1213.7" cy="468.4" rx="14.7" ry="14.7"/>
<polygon class="st19" points="2010.5,794.9 2010.5,713.3 1939.8,672.5 1869.2,713.3 1869.2,794.9 1939.8,835.7 "/>
<line class="st19" x1="1939.8" y1="672.5" x2="1939.8" y2="584.6"/>
<line class="st19" x1="1939.8" y1="923.6" x2="1939.8" y2="835.7"/>
<line class="st19" x1="2010.5" y1="711.3" x2="2072.6" y2="649.1"/>
<line class="st19" x1="2010.5" y1="791.7" x2="2072.6" y2="853.8"/>
<circle class="st22" cx="1939.8" cy="672.5" r="21.7"/>
<circle class="st22" cx="1939.8" cy="923.6" r="21.7"/>
<circle class="st22" cx="1939.8" cy="584.6" r="21.7"/>
<circle class="st22" cx="2071" cy="650.8" r="21.7"/>
<circle class="st22" cx="2010.5" cy="791.7" r="21.7"/>
<circle class="st22" cx="2010.5" cy="711.3" r="21.7"/>
<circle class="st3" cx="2071" cy="852.2" r="21.7"/>
<circle class="st6" cx="1939.8" cy="834.8" r="21.7"/>
<polygon class="st19" points="2290.8,193.1 2372.4,193.1 2413.2,122.4 2372.4,51.7 2290.8,51.7 2250,122.4 "/>
<line class="st19" x1="2162.1" y1="122.4" x2="2250" y2="122.4"/>
<line class="st19" x1="2374.4" y1="193.1" x2="2436.6" y2="255.2"/>
<line class="st19" x1="2294" y1="193.1" x2="2231.9" y2="255.2"/>
<circle class="st22" cx="2413.2" cy="122.4" r="21.7"/>
<circle class="st22" cx="2162.1" cy="122.4" r="21.7"/>
<circle class="st22" cx="2434.9" cy="253.6" r="21.7"/>
<circle class="st22" cx="2294" cy="193.1" r="21.7"/>
<circle class="st22" cx="2374.4" cy="193.1" r="21.7"/>
<circle class="st3" cx="2233.5" cy="253.6" r="21.7"/>
<circle class="st6" cx="2250.9" cy="122.4" r="21.7"/>
<polygon class="st19" points="1380.8,417.7 1439,497.9 1533.3,467.2 1533.3,368.1 1439,337.5 "/>
<line class="st19" x1="1380.8" y1="417.7" x2="1342.9" y2="470.9"/>
<line class="st19" x1="1533.3" y1="467.2" x2="1561.7" y2="510.1"/>
<circle class="st22" cx="1339.9" cy="475.2" r="15.8"/>
<circle class="st22" cx="1563.7" cy="513.2" r="15.8"/>
<line class="st19" x1="1439" y1="497.9" x2="1439" y2="607.7"/>
<ellipse transform="matrix(0.7071 -0.7071 0.7071 0.7071 -8.2127 1195.5291)" class="st11" cx="1439" cy="607.7" rx="23.7" ry="23.7"/>
<circle class="st22" cx="1439" cy="541.1" r="15.8"/>
<line class="st19" x1="1439" y1="337.5" x2="1439" y2="278.1"/>
<line class="st19" x1="1458.9" y1="344.1" x2="1458.9" y2="254.1"/>
<ellipse transform="matrix(0.2297 -0.9733 0.9733 0.2297 881.6757 1611.3867)" class="st3" cx="1458.8" cy="248.7" rx="11" ry="11"/>
<ellipse transform="matrix(0.2297 -0.9733 0.9733 0.2297 838.3872 1615.4059)" class="st3" cx="1439.7" cy="278.1" rx="11" ry="11"/>
<polygon class="st19" points="2687.3,264.7 2767.5,206.5 2736.9,112.2 2637.8,112.2 2607.1,206.5 "/>
<line class="st19" x1="2687.3" y1="264.7" x2="2740.5" y2="302.6"/>
<line class="st19" x1="2736.9" y1="112.2" x2="2779.8" y2="83.8"/>
<circle class="st22" cx="2744.8" cy="305.6" r="15.8"/>
<circle class="st22" cx="2782.8" cy="81.8" r="15.8"/>
<line class="st19" x1="2767.5" y1="206.5" x2="2877.3" y2="206.5"/>
<ellipse transform="matrix(0.7071 -0.7071 0.7071 0.7071 696.7136 2095.0312)" class="st11" cx="2877.3" cy="206.5" rx="23.7" ry="23.7"/>
<circle class="st22" cx="2810.8" cy="206.5" r="15.8"/>
<line class="st19" x1="2607.1" y1="206.5" x2="2547.8" y2="206.5"/>
<line class="st19" x1="2613.7" y1="186.6" x2="2523.7" y2="186.6"/>
<ellipse transform="matrix(0.2297 -0.9733 0.9733 0.2297 1758.3625 2594.6453)" class="st3" cx="2518.3" cy="186.5" rx="11" ry="11"/>
<ellipse transform="matrix(0.2297 -0.9733 0.9733 0.2297 1762.3718 2637.9143)" class="st3" cx="2547.7" cy="205.6" rx="11" ry="11"/>
<path class="st6" d="M1973.2,483.9c0.4-0.5,0.5-1,0.4-1.5c-0.2-1.2-1.1-2.1-5.3-1.6c-1.5,0.2-3.2,0.7-4.8,1.2
	c-2.3,0.8-4.7,1.2-7.2,1.2h-0.8c-0.1-3.3-0.6-6.5-1.5-9.6l0.8-0.3c2.4-0.8,4.9-1.1,7.3-1c1.7,0.1,3.4,0,4.9-0.3
	c4.1-0.8,4.7-2,4.5-3.2c-0.1-0.5-0.2-1-0.8-1.3c-0.2-0.1-0.3-0.4-0.2-0.6c0.3-0.6,0.2-1.1-0.1-1.5c-0.6-1.1-1.7-1.7-5.6,0.1
	c-1.4,0.6-2.8,1.6-4.1,2.6c-1.9,1.5-4.1,2.6-6.5,3.4l-0.8,0.3c-1.1-3.1-2.6-6-4.4-8.6l0.7-0.5c2-1.5,4.3-2.6,6.6-3.2
	c1.6-0.5,3.2-1,4.6-1.8c3.7-2,3.8-3.3,3.3-4.5c-0.2-0.5-0.6-0.9-1.2-1c-0.2,0-0.4-0.3-0.4-0.5c0.1-0.6-0.2-1.1-0.6-1.4
	c-0.9-0.9-2.2-1.1-5.3,1.8c-1.1,1-2.2,2.4-3.1,3.8c-1.3,2-3.1,3.8-5.1,5.3l-0.7,0.5c-2-2.6-4.3-4.9-6.8-6.9l0.5-0.7
	c1.5-2,3.3-3.8,5.3-5.1c1.4-0.9,2.8-2,3.8-3.1c2.9-3.1,2.6-4.3,1.8-5.3c-0.4-0.4-0.8-0.7-1.4-0.6c-0.2,0-0.5-0.1-0.5-0.4
	c-0.1-0.6-0.5-0.9-1-1.2c-1.1-0.5-2.4-0.4-4.4,3.3c-0.7,1.3-1.3,3-1.8,4.6c-0.7,2.3-1.8,4.6-3.2,6.6l-0.5,0.7
	c-2.7-1.8-5.5-3.3-8.6-4.4l0.3-0.9c0.8-2.4,1.9-4.6,3.4-6.5c1-1.3,2-2.8,2.7-4.1c1.8-3.8,1.2-4.9,0.1-5.5c-0.5-0.3-1-0.4-1.6-0.1
	c-0.2,0.1-0.5,0-0.6-0.2c-0.3-0.5-0.8-0.7-1.3-0.8c-1.2-0.1-2.4,0.4-3.2,4.5c-0.3,1.5-0.3,3.2-0.3,4.9c0.1,2.4-0.3,4.9-1.1,7.3
	l-0.3,0.9c-3-0.9-6.2-1.4-9.6-1.5v-1c0-2.5,0.4-5,1.2-7.2c0.6-1.5,1.1-3.2,1.2-4.8c0.5-4.2-0.4-5.1-1.6-5.3
	c-0.6-0.1-1.1-0.1-1.5,0.4c-0.2,0.2-0.5,0.2-0.7,0c-0.4-0.4-1-0.5-1.5-0.4c-1.2,0.2-2.1,1.1-1.6,5.3c0.2,1.5,0.7,3.2,1.2,4.8
	c0.8,2.3,1.2,4.7,1.2,7.2v1c-3.3,0.1-6.5,0.6-9.5,1.5l-0.3-1c-0.8-2.4-1.1-4.9-1.1-7.3c0.1-1.6,0-3.4-0.3-4.9
	c-0.8-4.1-1.9-4.7-3.2-4.5c-0.6,0.1-1,0.2-1.3,0.8c-0.1,0.2-0.4,0.3-0.6,0.2c-0.6-0.3-1.1-0.1-1.6,0.1c-1.1,0.6-1.7,1.7,0.1,5.5
	c0.6,1.4,1.6,2.8,2.7,4.1c1.5,1.9,2.7,4.1,3.4,6.5l0.3,1c-3.1,1.1-5.9,2.6-8.6,4.4l-0.6-0.9c-1.5-2-2.6-4.3-3.2-6.6
	c-0.5-1.6-1.1-3.2-1.8-4.6c-2.1-3.7-3.3-3.9-4.4-3.3c-0.5,0.2-0.9,0.6-1,1.2c0,0.2-0.3,0.4-0.5,0.4c-0.6-0.1-1.1,0.2-1.4,0.6
	c-0.8,0.9-1.1,2.2,1.8,5.3c1,1.1,2.4,2.2,3.8,3.1c2,1.4,3.8,3.1,5.3,5.1l0.6,0.9c-2.6,2-4.8,4.2-6.8,6.8l-0.9-0.7
	c-2-1.5-3.8-3.3-5.1-5.3c-0.9-1.4-2-2.8-3.1-3.8c-3.1-2.9-4.3-2.6-5.3-1.8c-0.4,0.4-0.7,0.8-0.6,1.4c0,0.2-0.1,0.5-0.4,0.5
	c-0.6,0.1-0.9,0.5-1.2,1c-0.5,1.1-0.3,2.4,3.3,4.5c1.3,0.7,3,1.3,4.6,1.8c2.3,0.7,4.6,1.8,6.6,3.2l0.9,0.6c-1.8,2.6-3.3,5.5-4.4,8.6
	l-1.1-0.4c-2.4-0.8-4.6-1.9-6.5-3.4c-1.3-1-2.8-2-4.1-2.6c-3.8-1.8-4.9-1.2-5.6-0.1c-0.3,0.5-0.4,1-0.1,1.5c0.1,0.2,0,0.5-0.2,0.6
	c-0.6,0.3-0.7,0.8-0.8,1.3c-0.1,1.2,0.4,2.4,4.5,3.2c1.5,0.3,3.2,0.3,4.9,0.3c2.4-0.1,4.9,0.3,7.3,1l1.1,0.4c-0.9,3-1.4,6.2-1.5,9.5
	h-1.1c-2.5,0-5-0.4-7.2-1.2c-1.6-0.6-3.2-1.1-4.8-1.2c-4.2-0.5-5.1,0.4-5.3,1.6c-0.1,0.5-0.1,1.1,0.4,1.5c0.2,0.2,0.2,0.5,0,0.6
	c-0.4,0.5-0.5,1-0.4,1.5c0.2,1.2,1.1,2.1,5.3,1.6c1.5-0.2,3.2-0.7,4.8-1.2c2.3-0.8,4.7-1.2,7.2-1.2h1.1c0.1,3.3,0.6,6.5,1.4,9.5
	l-1.1,0.4c-2.4,0.8-4.9,1.1-7.3,1c-1.7-0.1-3.4,0-4.9,0.3c-4.1,0.8-4.7,2-4.5,3.2c0.1,0.5,0.2,1,0.8,1.3c0.2,0.1,0.3,0.4,0.2,0.6
	c-0.3,0.6-0.2,1.1,0.1,1.5c0.6,1.1,1.7,1.7,5.6-0.1c1.4-0.6,2.8-1.6,4.1-2.6c1.9-1.5,4.1-2.6,6.5-3.4l1.1-0.4c1.1,3.1,2.5,6,4.3,8.6
	l-0.9,0.6c-2,1.5-4.3,2.6-6.6,3.2c-1.6,0.5-3.2,1-4.6,1.8c-3.7,2.1-3.8,3.3-3.3,4.4c0.2,0.5,0.6,0.9,1.2,1c0.2,0,0.4,0.3,0.4,0.5
	c-0.1,0.6,0.2,1,0.6,1.4c0.9,0.8,2.2,1.1,5.3-1.8c1.1-1,2.2-2.4,3.1-3.8c1.3-2,3.1-3.8,5.1-5.3l0.9-0.6c1.9,2.6,4.2,4.9,6.8,6.9
	l-0.6,0.9c-1.5,2-3.3,3.8-5.3,5.1c-1.4,0.9-2.8,2-3.8,3.1c-2.9,3.1-2.6,4.3-1.8,5.3c0.4,0.4,0.8,0.7,1.4,0.6c0.2,0,0.5,0.1,0.5,0.4
	c0.1,0.6,0.5,0.9,1,1.2c1.1,0.5,2.4,0.3,4.4-3.3c0.7-1.3,1.3-3,1.8-4.6c0.7-2.3,1.8-4.6,3.2-6.6l0.6-0.9c2.6,1.8,5.5,3.3,8.6,4.5
	l-0.3,1c-0.8,2.4-1.9,4.6-3.4,6.5c-1,1.3-2,2.8-2.7,4.1c-1.8,3.8-1.2,4.9-0.1,5.5c0.5,0.3,1,0.4,1.6,0.1c0.2-0.1,0.5,0,0.6,0.2
	c0.3,0.5,0.8,0.7,1.3,0.8c1.2,0.1,2.4-0.4,3.2-4.5c0.3-1.5,0.3-3.2,0.3-4.9c-0.1-2.4,0.3-4.9,1.1-7.3l0.3-1c3,0.9,6.2,1.5,9.5,1.6v1
	c0,2.5-0.4,5-1.2,7.2c-0.6,1.5-1.1,3.2-1.2,4.8c-0.5,4.2,0.4,5.1,1.6,5.3c0.6,0.1,1.1,0.1,1.5-0.4c0.2-0.2,0.5-0.2,0.7,0
	c0.4,0.4,1,0.5,1.5,0.4c1.2-0.2,2.1-1.1,1.6-5.3c-0.2-1.5-0.7-3.2-1.2-4.8c-0.8-2.3-1.2-4.7-1.2-7.2v-1c3.3-0.1,6.5-0.6,9.6-1.4
	l0.3,0.9c0.8,2.4,1.1,4.9,1.1,7.3c-0.1,1.7,0,3.4,0.3,4.9c0.8,4.1,1.9,4.7,3.2,4.5c0.6-0.1,1-0.2,1.3-0.8c0.1-0.2,0.4-0.3,0.6-0.2
	c0.6,0.3,1.1,0.2,1.6-0.1c1.1-0.6,1.7-1.7-0.1-5.5c-0.6-1.4-1.6-2.8-2.7-4.1c-1.5-1.9-2.7-4.1-3.4-6.5l-0.3-0.9
	c3.1-1.1,6-2.5,8.7-4.3l0.5,0.7c1.5,2,2.6,4.3,3.2,6.6c0.5,1.6,1.1,3.2,1.8,4.6c2.1,3.7,3.3,3.8,4.4,3.3c0.5-0.2,0.9-0.6,1-1.2
	c0-0.2,0.3-0.4,0.5-0.4c0.6,0.1,1.1-0.2,1.4-0.6c0.8-0.9,1.1-2.2-1.8-5.3c-1-1.1-2.4-2.2-3.8-3.1c-2-1.3-3.8-3.1-5.3-5.1l-0.5-0.7
	c2.6-2,4.9-4.2,6.9-6.8l0.7,0.5c2,1.5,3.8,3.3,5.1,5.3c0.9,1.4,2,2.8,3.1,3.8c3.1,2.9,4.3,2.6,5.3,1.8c0.4-0.4,0.7-0.8,0.6-1.4
	c0-0.2,0.1-0.5,0.4-0.5c0.6-0.1,0.9-0.5,1.2-1c0.5-1.1,0.3-2.4-3.3-4.5c-1.3-0.7-3-1.3-4.6-1.8c-2.3-0.7-4.6-1.8-6.6-3.2l-0.7-0.5
	c1.8-2.6,3.3-5.5,4.5-8.6l0.8,0.3c2.4,0.8,4.6,1.9,6.5,3.4c1.3,1,2.8,2,4.1,2.6c3.8,1.8,4.9,1.2,5.6,0.1c0.3-0.5,0.4-1,0.1-1.5
	c-0.1-0.2,0-0.5,0.2-0.6c0.6-0.3,0.7-0.8,0.8-1.3c0.1-1.2-0.4-2.4-4.5-3.2c-1.5-0.3-3.2-0.3-4.9-0.3c-2.4,0.1-4.9-0.3-7.3-1
	l-0.8-0.3c0.9-3,1.4-6.3,1.6-9.6h0.9c2.5,0,5,0.4,7.2,1.2c1.6,0.6,3.2,1.1,4.8,1.2c4.2,0.5,5.1-0.4,5.3-1.6c0.1-0.5,0.1-1.1-0.4-1.5
	C1973.1,484.4,1973.1,484.1,1973.2,483.9L1973.2,483.9z"/>
<path class="st3" d="M1677.1,548.6c3,12,15.2,19.3,27.2,16.3c12-3,19.3-15.2,16.3-27.2c-2.7-11-1.1-22.3,4.8-32
	c5.8-9.7,15-16.5,26-19.3c9.5-2.4,16-10.5,16.9-19.7c6.6-0.8,14.9-3,23.7-8.2c21.5-12.5,37.2-11,48.2,4.6c0.6,0.8,1.8,1,2.6,0.5
	s1.1-1.8,0.5-2.6c-8.4-12.1-19.7-16.6-33.6-13.7c-6,1.3-12.5,4-19.5,8c-8.1,4.7-15.8,6.8-21.8,7.6c-0.1-1.2-0.3-2.4-0.6-3.6
	c-0.6-2.5-1.7-4.8-3-6.9c7.9-6.9,18.7-13.8,30.4-14.5c25.2-1.4,45.4-19.1,46.2-19.8c0.8-0.7,0.8-1.9,0.2-2.6
	c-0.5-0.5-1.2-0.7-1.8-0.6c-0.3,0.1-0.6,0.2-0.8,0.4c-0.2,0.2-20.1,17.5-43.9,18.9c-12.8,0.7-24.2,8-32.5,15.2
	c-1.4-1.5-3.1-2.9-4.8-3.9c-1.6-0.9-3.2-1.6-4.9-2.2c6.6-7.7,17-13.5,26.6-16.1c11.3-3,21.4-12.8,26.8-18.1c1.4-1.4,2.7-2.6,3.4-3.1
	c0.8-0.6,1-1.8,0.3-2.6c-0.4-0.6-1.2-0.8-1.9-0.7c-0.3,0.1-0.5,0.2-0.8,0.4c-0.9,0.7-2.1,1.9-3.7,3.4c-5.5,5.4-14.8,14.4-25.2,17.2
	c-10.6,2.8-22.7,9.5-29.8,18.8c-2.6-0.3-5.2-0.1-7.9,0.5c-22.6,5.6-41.6,19.8-53.6,39.7C1674.9,502.6,1671.5,526.1,1677.1,548.6
	L1677.1,548.6z"/>
<path class="st6" d="M1811.8,42.4c-6.9,10.3-4.2,24.2,6.1,31.1c10.3,6.9,24.2,4.2,31.1-6.1c6.3-9.4,15.9-15.7,27-17.9
	c11.1-2.2,22.3,0.1,31.7,6.4c8.1,5.5,18.5,4.9,25.9-0.7c5,4.3,12.2,9,22,12.2c23.7,7.6,33.1,20.3,28.8,38.8c-0.2,1,0.4,2,1.4,2.2
	c1,0.2,2-0.4,2.2-1.4c3.3-14.3-0.8-25.8-12.3-34.1c-5-3.6-11.3-6.7-19-9.1c-8.9-2.8-15.6-7.2-20.3-11.1c0.8-0.9,1.6-1.8,2.3-2.9
	c1.4-2.2,2.4-4.5,3.1-6.8c10.4,1.3,22.8,4.6,31.1,12.9c17.9,17.8,44.5,20.9,45.7,21.1c1,0.1,1.9-0.6,2.1-1.7
	c0.1-0.7-0.2-1.3-0.8-1.7c-0.2-0.2-0.6-0.3-0.9-0.3c-0.3,0-26.4-3.2-43.4-20c-9.1-9-22.1-12.6-33.1-14c0.2-2.1,0.1-4.2-0.3-6.2
	c-0.3-1.8-0.9-3.5-1.7-5.1c10.1-0.3,21.4,3.6,29.8,9c9.8,6.4,23.9,7.3,31.4,7.8c2,0.1,3.7,0.2,4.6,0.4c1,0.2,2-0.5,2.2-1.5
	c0.1-0.7-0.2-1.4-0.7-1.8c-0.2-0.2-0.5-0.3-0.8-0.3c-1.1-0.2-2.8-0.3-5-0.5c-7.7-0.5-20.6-1.3-29.6-7.2c-9.2-6-22.3-10.5-33.9-9.5
	c-1.5-2.1-3.4-4-5.7-5.5c-19.3-13-42.5-17.7-65.3-13.2S1824.8,23.1,1811.8,42.4L1811.8,42.4z"/>
<path class="st2" d="M2584.5,266.6c1.1-12.3-8.1-23.2-20.4-24.2c-12.3-1.1-23.2,8.1-24.2,20.4c-1,11.3-6.2,21.5-14.9,28.8
	s-19.6,10.8-30.9,9.8c-9.8-0.8-18.6,4.7-22.4,13.2c-6.5-1.3-15.1-2-25.1,0c-24.4,4.9-38.8-1.6-44.1-19.9c-0.3-1-1.3-1.6-2.3-1.3
	c-1,0.3-1.6,1.3-1.3,2.3c4.1,14.1,13.2,22.1,27.4,23.8c6.1,0.7,13.1,0.3,21-1.3c9.2-1.8,17.1-1.3,23.1-0.1c-0.3,1.2-0.5,2.4-0.6,3.6
	c-0.2,2.6,0,5.1,0.6,7.5c-9.7,3.9-22.1,7-33.5,3.8c-24.4-6.9-49.1,3.3-50.1,3.8c-0.9,0.4-1.4,1.5-1,2.4c0.3,0.6,0.9,1.1,1.5,1.1
	c0.3,0,0.6,0,0.9-0.1c0.2-0.1,24.6-10.1,47.7-3.6c12.3,3.5,25.5,0.3,35.7-3.8c0.9,1.9,2,3.7,3.3,5.3c1.2,1.4,2.5,2.6,4,3.7
	c-8.7,5.1-20.5,7.3-30.4,6.6c-11.7-0.8-24.4,5.2-31.2,8.4c-1.8,0.9-3.3,1.6-4.2,1.9c-1,0.3-1.5,1.4-1.2,2.4c0.2,0.7,0.9,1.2,1.5,1.2
	c0.3,0,0.6,0,0.8-0.1c1.1-0.4,2.6-1.1,4.6-2c7-3.3,18.7-8.8,29.4-8.1c10.9,0.8,24.5-1.7,34.3-8.2c2.3,1.1,4.9,1.8,7.6,2.1
	c23.2,2,45.8-5.2,63.5-20.2S2582.6,289.8,2584.5,266.6L2584.5,266.6z"/>
<path class="st3" d="M875.9,21.6c9.5,7.9,10.8,22,2.9,31.6s-22,10.8-31.6,2.9c-8.7-7.2-19.7-10.6-30.9-9.6
	c-11.2,1-21.4,6.4-28.7,15.1c-6.3,7.5-16.4,9.9-25.1,6.6c-3.6,5.5-9.2,12.1-17.7,17.8c-20.6,13.9-26.1,28.8-16.8,45.4
	c0.5,0.9,0.2,2-0.7,2.5c-0.9,0.5-2,0.2-2.5-0.7c-7.2-12.8-6.5-24.9,2.2-36.2c3.8-4.9,9-9.6,15.7-14.1c7.7-5.2,12.9-11.3,16.3-16.4
	c-1-0.6-2.1-1.3-3-2.1c-2-1.7-3.6-3.6-4.9-5.7c-9.6,4.1-20.5,10.8-26.2,21.1c-12.2,22.2-36.8,32.6-37.9,33.1c-1,0.4-2-0.1-2.4-1
	c-0.3-0.6-0.2-1.3,0.2-1.9c0.2-0.2,0.5-0.4,0.8-0.6c0.2-0.1,24.5-10.5,36.1-31.4c6.2-11.2,17.7-18.3,27.8-22.7c-0.8-2-1.2-4-1.4-6.1
	c-0.2-1.8-0.1-3.6,0.2-5.4c-9.8,2.6-19.5,9.5-26,17c-7.6,8.9-20.8,13.7-27.9,16.3c-1.9,0.7-3.5,1.3-4.3,1.7c-0.9,0.5-2,0.1-2.5-0.8
	c-0.3-0.7-0.2-1.4,0.2-2c0.2-0.2,0.4-0.4,0.6-0.5c1-0.5,2.6-1.1,4.7-1.8c7.2-2.7,19.4-7.1,26.4-15.2c7.2-8.3,18.4-16.3,29.9-18.7
	c0.9-2.4,2.1-4.8,3.9-6.9C768.1,15,789,4,812.2,1.8S858,6.7,875.9,21.6L875.9,21.6z"/>
<path class="st22" d="M1703,420.7c-6.3,0-11.5,4.6-12.5,10.6h-11.9c-0.4-6-2.8-11.6-6.5-16l16.1-16c1.2,0.6,2.6,1,4,1
	c4.9,0,8.9-4,8.9-8.9s-4-8.9-8.9-8.9s-8.9,4-8.9,8.9c0,1.7,0.5,3.3,1.3,4.7l-15.9,15.9c-4.3-3.6-9.7-6-15.6-6.5v-11.3
	c6.9-1.1,12.2-7.1,12.2-14.4c0-8-6.5-14.6-14.6-14.6s-14.6,6.5-14.6,14.6c0,7.2,5.3,13.2,12.2,14.4v11.3
	c-13.6,1.2-24.5,12.1-25.4,25.8h-27.9c-1-7.1-7.1-12.6-14.4-12.6c-8.1,0-14.6,6.5-14.6,14.6s6.5,14.6,14.6,14.6
	c7.4,0,13.4-5.5,14.4-12.6h27.9c0.4,6,2.8,11.6,6.5,16l-18.3,18.3c-1.3-0.7-2.8-1.1-4.3-1.1c-4.9,0-8.9,4-8.9,8.9s4,8.9,8.9,8.9
	s8.9-4,8.9-8.9c0-1.6-0.4-3.1-1.2-4.4l18.3-18.3c4.3,3.6,9.7,6,15.6,6.5v26.2c-5.8,1.1-10.3,6.3-10.3,12.4c0,7,5.7,12.7,12.7,12.7
	s12.7-5.7,12.7-12.7c0-6.2-4.4-11.3-10.3-12.4v-26.2c13.6-1.2,24.5-12.1,25.4-25.8h11.9c1,6,6.2,10.6,12.5,10.6
	c7,0,12.7-5.7,12.7-12.7S1710,420.7,1703,420.7L1703,420.7L1703,420.7z"/>
<path class="st6" d="M1567.4,104.6c-4.5-4.4-11.4-4.8-16.4-1.2l-8.5-8.4c3.9-4.6,6.1-10.2,6.6-15.9l22.7-0.2
	c0.4,1.3,1.2,2.5,2.2,3.5c3.5,3.4,9.1,3.4,12.6-0.1c3.4-3.5,3.4-9.1-0.1-12.6c-3.5-3.4-9.1-3.4-12.6,0.1c-1.2,1.2-2,2.7-2.3,4.2
	l-22.5,0.2c-0.5-5.6-2.7-11-6.6-15.5l7.9-8c5.7,4,13.7,3.5,18.8-1.7c5.7-5.7,5.6-15-0.1-20.6s-15-5.6-20.6,0.1
	c-5.1,5.1-5.6,13.1-1.4,18.8l-7.9,8c-10.5-8.8-25.9-8.6-36.2,0.5l-19.8-19.6c4.3-5.7,3.8-13.9-1.5-19.1c-5.7-5.7-15-5.6-20.6,0.1
	s-5.6,15,0.1,20.6c5.2,5.2,13.4,5.6,19.1,1.2l19.8,19.6c-3.9,4.6-6.1,10.2-6.6,15.9l-25.9,0.2c-0.4-1.4-1.2-2.8-2.3-3.9
	c-3.5-3.4-9.1-3.4-12.6,0.1c-3.4,3.5-3.4,9.1,0.1,12.6c3.5,3.4,9.1,3.4,12.6-0.1c1.1-1.1,1.8-2.5,2.2-3.9l25.9-0.2
	c0.5,5.6,2.7,11,6.6,15.5l-18.4,18.6c-4.9-3.3-11.7-2.8-16,1.6c-4.9,5-4.9,13,0.1,17.9s13,4.9,17.9-0.1c4.3-4.4,4.8-11.2,1.4-16.1
	l18.4-18.6c10.5,8.8,25.9,8.6,36.2-0.5l8.5,8.4c-3.5,5-3.1,11.9,1.4,16.3c5,4.9,13,4.9,17.9-0.1S1572.4,109.5,1567.4,104.6
	L1567.4,104.6z"/>
<path class="st6" d="M2464.5,41.2c5.7,5.7,14.6,6.2,20.9,1.5l10.8,10.7c-5,5.9-7.8,13-8.4,20.3l-29,0.2c-0.6-1.7-1.5-3.2-2.8-4.5
	c-4.4-4.4-11.6-4.3-16,0.1c-4.4,4.4-4.4,11.6,0.1,16c4.4,4.4,11.6,4.3,16-0.1c1.5-1.6,2.5-3.4,3-5.4l28.7-0.2
	c0.7,7.1,3.4,14.1,8.4,19.8l-10.1,10.2c-7.3-5.2-17.5-4.4-24,2.1c-7.2,7.3-7.1,19.1,0.2,26.3c7.3,7.2,19.1,7.1,26.3-0.2
	c6.5-6.6,7.1-16.8,1.8-24l10.1-10.2c13.4,11.2,33.1,10.9,46.2-0.6l25.3,25c-5.5,7.3-4.8,17.8,1.9,24.4c7.3,7.2,19.1,7.1,26.3-0.2
	s7.1-19.1-0.2-26.3c-6.7-6.6-17.1-7.1-24.4-1.5l-25.3-25c5-5.9,7.8-13,8.4-20.3l33.1-0.2c0.5,1.8,1.5,3.5,2.9,4.9
	c4.4,4.4,11.6,4.3,16-0.1c4.4-4.4,4.4-11.6-0.1-16c-4.4-4.4-11.6-4.3-16,0.1c-1.4,1.4-2.4,3.2-2.9,5l-33.1,0.2
	c-0.7-7.1-3.4-14.1-8.4-19.8l23.5-23.8c6.3,4.2,14.9,3.5,20.5-2.1c6.3-6.4,6.2-16.6-0.1-22.9c-6.4-6.3-16.6-6.2-22.9,0.2
	c-5.5,5.6-6.1,14.2-1.8,20.5l-23.5,23.8c-13.4-11.2-33.1-10.9-46.2,0.6L2489,39c4.5-6.3,3.9-15.2-1.8-20.9
	c-6.4-6.3-16.6-6.2-22.9,0.1S2458.2,34.9,2464.5,41.2L2464.5,41.2z"/>
<path class="st3" d="M2138.9,247.7c-2.3-4.6-7.7-6.7-12.4-5.2l-4.4-8.7c4.3-2.6,7.4-6.4,9.3-10.7l17.7,5.8c0,1.1,0.2,2.2,0.8,3.3
	c1.8,3.6,6.2,5,9.8,3.2c3.6-1.8,5-6.2,3.2-9.8c-1.8-3.6-6.2-5-9.8-3.2c-1.3,0.6-2.2,1.6-2.9,2.7l-17.6-5.8c1.1-4.5,0.8-9.3-1.1-13.8
	l8.3-4.2c3.4,4.6,9.8,6.3,15.1,3.6c5.9-3,8.3-10.2,5.3-16.1c-3-5.9-10.2-8.3-16.1-5.3c-5.3,2.7-7.8,8.8-6,14.3l-8.3,4.2
	c-5.9-9.6-18-13.4-28.4-9.1l-10.4-20.5c4.8-3.4,6.6-9.9,3.8-15.3c-3-5.9-10.2-8.3-16.1-5.3c-5.9,3-8.3,10.2-5.3,16.1
	c2.7,5.4,9,7.8,14.6,5.9l10.4,20.5c-4.3,2.6-7.4,6.4-9.3,10.7l-20.3-6.6c0.1-1.2-0.2-2.5-0.8-3.6c-1.8-3.6-6.2-5-9.8-3.2
	c-3.6,1.8-5,6.2-3.2,9.8c1.8,3.6,6.2,5,9.8,3.2c1.2-0.6,2.1-1.4,2.8-2.5l20.3,6.6c-1.1,4.5-0.8,9.3,1.1,13.8l-19.2,9.7
	c-3-3.9-8.4-5.2-12.9-2.9c-5.1,2.6-7.2,8.9-4.6,14c2.6,5.1,8.9,7.2,14,4.6c4.5-2.3,6.6-7.4,5.3-12.2l19.2-9.7
	c5.9,9.6,18,13.4,28.4,9.1l4.4,8.7c-4.1,2.9-5.5,8.5-3.1,13.1c2.6,5.1,8.9,7.2,14,4.6S2141.5,252.8,2138.9,247.7L2138.9,247.7z"/>
<path class="st22" d="M2366.6,310.7c-6.3,0-11.5,4.6-12.5,10.6h-11.9c-0.4-6-2.8-11.6-6.5-16l16.1-16c1.2,0.6,2.6,1,4,1
	c4.9,0,8.9-4,8.9-8.9s-4-8.9-8.9-8.9s-8.9,4-8.9,8.9c0,1.7,0.5,3.3,1.3,4.7l-15.9,15.9c-4.3-3.6-9.7-6-15.6-6.5v-11.3
	c6.9-1.1,12.2-7.1,12.2-14.4c0-8-6.5-14.6-14.6-14.6s-14.6,6.5-14.6,14.6c0,7.2,5.3,13.2,12.2,14.4v11.3
	c-13.6,1.2-24.5,12.1-25.4,25.8h-27.9c-1-7.1-7.1-12.6-14.4-12.6c-8.1,0-14.6,6.5-14.6,14.6s6.5,14.6,14.6,14.6
	c7.4,0,13.4-5.5,14.4-12.6h27.9c0.4,6,2.8,11.6,6.5,16l-18.3,18.3c-1.3-0.7-2.8-1.1-4.4-1.1c-4.9,0-8.9,4-8.9,8.9s4,8.9,8.9,8.9
	s8.9-4,8.9-8.9c0-1.6-0.4-3.1-1.1-4.4l18.3-18.3c4.3,3.6,9.7,6,15.6,6.5v26.2c-5.9,1.1-10.3,6.3-10.3,12.4c0,7,5.7,12.7,12.7,12.7
	s12.7-5.7,12.7-12.7c0-6.2-4.4-11.3-10.3-12.4v-26.2c13.6-1.2,24.5-12.1,25.4-25.8h11.9c1,6,6.2,10.6,12.5,10.6
	c7,0,12.7-5.7,12.7-12.7S2373.6,310.7,2366.6,310.7L2366.6,310.7z"/>
<ellipse transform="matrix(0.7071 -0.7071 0.7071 0.7071 38.0061 1363.5311)" class="st23" cx="1664.9" cy="635.9" rx="44" ry="44"/>
<circle class="st19" cx="1558.5" cy="563.9" r="24"/>
<line class="st19" x1="1704.7" y1="616.9" x2="1810.7" y2="567.3"/>
<line class="st19" x1="1578.3" y1="578.4" x2="1628.8" y2="610.8"/>
<line class="st19" x1="1810.7" y1="567.3" x2="1873" y2="588.7"/>
<line class="st19" x1="1540.1" y1="579.4" x2="1506.9" y2="620.9"/>
<circle class="st16" cx="1810.7" cy="567.4" r="28.2"/>
<circle class="st3" cx="1876.3" cy="589.9" r="14.1"/>
<circle class="st22" cx="1506.9" cy="621" r="14.1"/>
<ellipse transform="matrix(0.7071 -0.7071 0.7071 0.7071 252.1109 815.0072)" class="st6" cx="1109.9" cy="103.2" rx="44" ry="44"/>
<ellipse transform="matrix(0.9648 -0.2631 0.2631 0.9648 27.1363 265.102)" class="st24" cx="1003.4" cy="31.2" rx="24" ry="24"/>
<line class="st19" x1="1149.6" y1="84.2" x2="1255.6" y2="34.6"/>
<line class="st19" x1="1023.2" y1="45.6" x2="1073.7" y2="78"/>
<line class="st19" x1="1255.6" y1="34.6" x2="1317.9" y2="55.9"/>
<line class="st19" x1="985.1" y1="46.7" x2="951.8" y2="88.2"/>
<ellipse transform="matrix(0.8294 -0.5586 0.5586 0.8294 194.8161 707.3144)" class="st16" cx="1255.6" cy="34.7" rx="28.2" ry="28.2"/>
<circle class="st3" cx="1321.2" cy="57.1" r="14.1"/>
<ellipse transform="matrix(0.4003 -0.9164 0.9164 0.4003 489.9942 925.0528)" class="st22" cx="951.8" cy="88.2" rx="14.1" ry="14.1"/>
<path class="st19" d="M2024.2,294.9c28.3,64.6,179.3,71.9,179.3,149.8s-149.2,85-178.8,148.6"/>
<path class="st19" d="M2183.2,295.4c-28.9,64.1-179,71.6-179,149.2s150.9,85.1,179.2,149.7"/>
<line class="st19" x1="2203.5" y1="445.5" x2="2004.2" y2="445.5"/>
<line class="st19" x1="2172.2" y1="390.9" x2="2039.4" y2="390.9"/>
<line class="st19" x1="2172.2" y1="499.2" x2="2039.4" y2="499.2"/>
<line class="st19" x1="2172.2" y1="576.5" x2="2039.4" y2="576.5"/>
<line class="st19" x1="2172.2" y1="314.9" x2="2039.4" y2="314.9"/>
<circle class="st22" cx="2172.2" cy="314.9" r="12.2"/>
<path class="st3" d="M2033.3,308.7c3.4-3.4,8.9-3.4,12.3,0c3.4,3.4,3.4,8.9,0,12.3c-3.4,3.4-8.9,3.4-12.3,0
	C2029.9,317.6,2029.9,312.1,2033.3,308.7z"/>
<circle class="st22" cx="2172.2" cy="576.5" r="16.8"/>
<ellipse transform="matrix(0.7071 -0.7071 0.7071 0.7071 189.7387 1610.9637)" class="st22" cx="2039.5" cy="576.4" rx="12.2" ry="12.2"/>
<circle class="st16" cx="2172.2" cy="499.2" r="18.4"/>
<path class="st22" d="M2039.4,490.5c4.8,0,8.7,3.9,8.7,8.7s-3.9,8.7-8.7,8.7s-8.7-3.9-8.7-8.7S2034.6,490.5,2039.4,490.5z"/>
<ellipse transform="matrix(0.7071 -0.7071 0.7071 0.7071 359.7862 1650.4729)" class="st3" cx="2172.2" cy="390.9" rx="8.9" ry="8.9"/>
<ellipse transform="matrix(0.9239 -0.3827 0.3827 0.9239 -2.7565 877.1899)" class="st25" cx="2203.5" cy="445.5" rx="15.7" ry="15.7"/>
<ellipse transform="matrix(0.2297 -0.9733 0.9733 0.2297 1110.2778 2293.6653)" class="st22" cx="2004.1" cy="445.4" rx="8.7" ry="8.7"/>
<ellipse transform="matrix(0.2297 -0.9733 0.9733 0.2297 1190.5653 2285.8738)" class="st26" cx="2039.4" cy="390.8" rx="19.7" ry="19.7"/>
<path class="st27" d="M1773.4,959.1c0,0-20.1-94.2,28.2-123.4c67.6-40.8,135.2,126.7,67.6,123.4c-67.7-3.3-39.3-178.4,41.2-185.7"/>
<path class="st1" d="M1867.6,275.3c-4.7,3.4-10.5,5.5-16.7,5.5s-12-2-16.7-5.5c2,22.7,2.9,107.4-100.6,87c0,0,95.4,49.8,117.3-41.5
	c21.9,91.3,117.3,41.5,117.3,41.5C1864.8,382.8,1865.6,298,1867.6,275.3z"/>
<path class="st1" d="M1862.3,226.5c5.3,2.3,10,6.3,13.1,11.8s4.3,11.4,3.6,17.2c18.7-13.1,91.6-56.2,125.6,43.6
	c0,0-4.6-107.5-94.6-80.8c68.1-64.6-22.7-122.3-22.7-122.3C1956.8,175.3,1883,216.9,1862.3,226.5L1862.3,226.5z"/>
<path class="st1" d="M1822.7,255.5c-0.6-5.8,0.5-11.8,3.6-17.2c3.1-5.4,7.8-9.4,13.1-11.8c-20.7-9.6-94.5-51.2-25.1-130.6
	c0,0-90.8,57.7-22.7,122.3c-90-26.7-94.6,80.8-94.6,80.8C1731.1,199.3,1804.1,242.4,1822.7,255.5L1822.7,255.5z"/>
<path class="st1" d="M1887.8,196c-3.5-2.4-7.2-4.4-11.1-6c-3.9-1.7-8.1-2.9-12.2-3.8c-8.6-1.8-17.7-1.8-26.3,0
	c-4.2,0.9-8.3,2.1-12.2,3.8c-3.9,1.6-7.6,3.7-11.1,6l-10.2-15.1c4.5-3,9.2-5.6,14.2-7.7c5-2.1,10.3-3.8,15.7-4.9
	c11-2.2,22.6-2.2,33.6,0c5.4,1.1,10.6,2.7,15.7,4.9c4.9,2.1,9.7,4.7,14.2,7.7L1887.8,196L1887.8,196z"/>
<path class="st1" d="M1818.4,322.3c-4.9-2.1-9.7-4.7-14.2-7.7c-4.4-3-8.6-6.4-12.3-10.2s-7.2-7.9-10.2-12.3c-3-4.5-5.6-9.2-7.7-14.2
	c-2.1-5-3.8-10.3-4.9-15.7c-1.1-5.5-1.7-11.1-1.7-16.8h18.2c0,4.4,0.4,8.9,1.3,13.2c0.9,4.2,2.1,8.3,3.8,12.2
	c1.6,3.9,3.7,7.6,6,11.1c2.3,3.5,5,6.7,8,9.7s6.2,5.6,9.7,8c3.5,2.4,7.2,4.4,11.1,6L1818.4,322.3L1818.4,322.3z"/>
<path class="st1" d="M1883.4,322.3l-7.1-16.8c3.9-1.6,7.6-3.7,11.1-6c3.5-2.3,6.7-5,9.7-8c3-3,5.6-6.2,8-9.7c2.4-3.5,4.4-7.2,6-11.1
	c1.7-3.9,2.9-8,3.8-12.2c0.9-4.3,1.3-8.7,1.3-13.2h18.2c0,5.6-0.6,11.3-1.7,16.8c-1.1,5.4-2.7,10.6-4.9,15.7
	c-2.1,5-4.7,9.7-7.7,14.2c-3,4.4-6.4,8.6-10.2,12.3s-7.9,7.2-12.3,10.2C1893.1,317.6,1888.3,320.2,1883.4,322.3L1883.4,322.3z"/>
<path class="st6" d="M1572.8,159.2c-22.6,0-43.9,8.8-59.8,24.8c-16,16-24.8,37.2-24.8,59.9s8.8,43.9,24.8,59.9
	c16,16,37.2,24.8,59.8,24.8h45.8v-34.5h-45.8c-27.7,0-50.2-22.5-50.2-50.2s22.5-50.2,50.2-50.2h45.8v-34.5L1572.8,159.2
	L1572.8,159.2z"/>
<rect x="1618.6" y="294.1" class="st22" width="44.6" height="34.5"/>
<rect x="1618.6" y="159.2" class="st22" width="44.6" height="34.5"/>
<path class="st27" d="M1960.8,287.9c0,0-10.7-106.5,28.1-156c38.8-49.5,109.4,36.8,82.1,78s-51-100.3,6.1-143.6
	c67.5-51.2,152.2,19.5,152.2,19.5"/>
<path class="st12" d="M1349.2,318.3c0,0,76-98.3,16.9-193.4c-59-95.1-91,1.2-32.3,49c58.7,47.8,112.5,14.2,82.6-97.1"/>
<path class="st12" d="M791.3,103.2c0,0-165.9-116.2-283-57C391.2,105.5,642.5,205.9,660.2,142c17.7-63.9-263.6-84.2-308-4.5"/>
<path class="st7" d="M1309.9,1151.9c16.5,0,29.9-13.4,29.9-29.9c0,16.5,13.4,29.9,29.9,29.9c-16.5,0-29.9,13.4-29.9,29.9
	C1339.9,1165.3,1326.5,1151.9,1309.9,1151.9z"/>
<path class="st7" d="M1765,1423c16.5,0,29.9-13.4,29.9-29.9c0,16.5,13.4,29.9,29.9,29.9c-16.5,0-29.9,13.4-29.9,29.9
	C1794.9,1436.4,1781.5,1423,1765,1423z"/>
<path class="st7" d="M1980.6,635.9c16.5,0,29.9-13.4,29.9-29.9c0,16.5,13.4,29.9,29.9,29.9c-16.5,0-29.9,13.4-29.9,29.9
	C2010.5,649.3,1997.1,635.9,1980.6,635.9z"/>
<path class="st7" d="M1588.7,549.2c16.5,0,29.9-13.4,29.9-29.9c0,16.5,13.4,29.9,29.9,29.9c-16.5,0-29.9,13.4-29.9,29.9
	C1618.6,562.6,1605.2,549.2,1588.7,549.2z"/>
<path class="st7" d="M1693.2,332.9c16.5,0,29.9-13.4,29.9-29.9c0,16.5,13.4,29.9,29.9,29.9c-16.5,0-29.9,13.4-29.9,29.9
	C1723.2,346.3,1709.8,332.9,1693.2,332.9z"/>
<path class="st7" d="M955.9,412c16.5,0,29.9-13.4,29.9-29.9c0,16.5,13.4,29.9,29.9,29.9c-16.5,0-29.9,13.4-29.9,29.9
	C985.8,425.4,972.5,412,955.9,412z"/>
<path class="st7" d="M1699,1368.1c9.2,0,16.7-7.5,16.7-16.7c0,9.2,7.5,16.7,16.7,16.7c-9.2,0-16.7,7.5-16.7,16.7
	C1715.7,1375.6,1708.2,1368.1,1699,1368.1z"/>
<path class="st7" d="M1556.4,372.2c9.2,0,16.7-7.5,16.7-16.7c0,9.2,7.5,16.7,16.7,16.7c-9.2,0-16.7,7.5-16.7,16.7
	C1573.1,379.7,1565.6,372.2,1556.4,372.2z"/>
<path class="st7" d="M1506.8,688.2c9.2,0,16.7-7.5,16.7-16.7c0,9.2,7.5,16.7,16.7,16.7c-9.2,0-16.7,7.5-16.7,16.7
	C1523.5,695.7,1516,688.2,1506.8,688.2z"/>
<path class="st7" d="M1263.7,375.8c9.2,0,16.7-7.5,16.7-16.7c0,9.2,7.5,16.7,16.7,16.7c-9.2,0-16.7,7.5-16.7,16.7
	C1280.4,383.3,1272.9,375.8,1263.7,375.8z"/>
<path class="st7" d="M1093.2,461.2c9.2,0,16.7-7.5,16.7-16.7c0,9.2,7.5,16.7,16.7,16.7c-9.2,0-16.7,7.5-16.7,16.7
	C1109.9,468.7,1102.4,461.2,1093.2,461.2z"/>
</svg>
