<svg xmlns="http://www.w3.org/2000/svg" width="286.714" height="237.738" viewBox="0 0 286.714 237.738">
  <g id="group" transform="translate(0 -43.729)">
    <g id="Group_132" data-name="Group 132" transform="translate(0 147.859)">
      <g id="Group_131" data-name="Group 131">
        <path id="Path_474" data-name="Path 474" d="M244.715,251.224H216.649a41.887,41.887,0,0,0-11.037,1.482,42.034,42.034,0,0,0-37.45-23.026H118.552A42.034,42.034,0,0,0,81.1,252.706a41.887,41.887,0,0,0-11.037-1.482H42a42.047,42.047,0,0,0-42,42v44.865a25.228,25.228,0,0,0,25.2,25.2H261.515a25.228,25.228,0,0,0,25.2-25.2V293.223A42.047,42.047,0,0,0,244.715,251.224ZM76.553,271.68v74.808H25.2a8.409,8.409,0,0,1-8.4-8.4V293.224a25.228,25.228,0,0,1,25.2-25.2H70.065a25.12,25.12,0,0,1,6.591.88C76.595,269.823,76.553,270.747,76.553,271.68Zm116.808,74.808H93.353V271.68a25.228,25.228,0,0,1,25.2-25.2h49.609a25.228,25.228,0,0,1,25.2,25.2Zm76.553-8.4a8.409,8.409,0,0,1-8.4,8.4H210.161V271.68c0-.934-.041-1.857-.1-2.776a25.143,25.143,0,0,1,6.59-.88h28.066a25.228,25.228,0,0,1,25.2,25.2Z" transform="translate(0 -229.68)" fill="#579d42"/>
      </g>
    </g>
    <g id="Group_134" data-name="Group 134" transform="translate(18.711 90.082)">
      <g id="Group_133" data-name="Group 133">
        <path id="Path_475" data-name="Path 475" d="M70.735,126.5a37.321,37.321,0,1,0,37.321,37.321A37.363,37.363,0,0,0,70.735,126.5Zm0,57.842a20.521,20.521,0,1,1,20.521-20.521A20.544,20.544,0,0,1,70.734,184.346Z" transform="translate(-33.414 -126.504)" fill="#579d42"/>
      </g>
    </g>
    <g id="Group_136" data-name="Group 136" transform="translate(93.497 43.729)">
      <g id="Group_135" data-name="Group 135">
        <path id="Path_476" data-name="Path 476" d="M216.822,43.729a49.86,49.86,0,1,0,49.86,49.86A49.916,49.916,0,0,0,216.822,43.729Zm0,82.921a33.061,33.061,0,1,1,33.061-33.061A33.1,33.1,0,0,1,216.822,126.65Z" transform="translate(-166.962 -43.729)" fill="#579d42"/>
      </g>
    </g>
    <g id="Group_138" data-name="Group 138" transform="translate(193.361 90.082)">
      <g id="Group_137" data-name="Group 137">
        <path id="Path_477" data-name="Path 477" d="M382.615,126.5a37.321,37.321,0,1,0,37.321,37.321A37.363,37.363,0,0,0,382.615,126.5Zm0,57.842a20.521,20.521,0,1,1,20.521-20.521A20.545,20.545,0,0,1,382.615,184.346Z" transform="translate(-345.294 -126.504)" fill="#579d42"/>
      </g>
    </g>
  </g>
</svg>
