<svg width="212" height="63" xmlns="http://www.w3.org/2000/svg">
 <g id="Layer_1">
  <text xml:space="preserve" text-anchor="start" font-size="24" id="svg_1" y="25.62762" x="62.94385" stroke-width="0" stroke="#000" fill="#000000">The University</text>
  <text stroke="#000" xml:space="preserve" text-anchor="start" font-size="24" id="svg_2" y="52.53671" x="78.28121" stroke-width="0" fill="#000000">of Research</text>
  <g>
   <g id="svg_5">
    <path fill-rule="evenodd" fill="#000000" d="m19.89762,10.9342c-4.84616,1.00209 -5.2622,7.66574 -0.57978,9.28539l0.48584,0.16808l1.11173,0l1.11173,0l1.84552,3.35737c1.01497,1.84649 1.86543,3.3907 1.88978,3.4315c0.03658,0.06104 -0.06093,0.1828 -0.54959,0.6865c-2.45539,2.53061 -2.99394,5.89479 -1.43457,8.95983l0.3236,0.63606l-3.34157,3.02078l-3.34157,3.02088l-0.39785,-0.21191c-3.69905,-1.97128 -8.04389,1.5362 -6.88758,5.56015c1.12309,3.90847 6.40553,4.72062 8.60842,1.32342c0.89754,-1.38414 1.05177,-2.77542 0.4919,-4.43782l-0.15141,-0.44947l0.33897,-0.32252c1.01551,-0.96648 6.29513,-5.69327 6.33886,-5.67498c0.02836,0.0118 0.27014,0.16288 0.53736,0.33573c2.31902,1.49994 4.97344,1.69595 7.48771,0.55283c0.68,-0.30921 0.55846,-0.35467 1.26606,0.47372c1.25719,1.47202 2.00288,2.38536 2.00288,2.45344c0,0.02414 -0.10682,0.27036 -0.23735,0.54731c-0.73163,1.55146 -0.76042,3.07532 -0.08334,4.41292c1.80504,3.56571 6.90706,3.52231 8.63396,-0.07349c1.83664,-3.82394 -1.87734,-7.95872 -5.92098,-6.59179c-0.20726,0.07002 -0.40207,0.12728 -0.43292,0.12728c-0.0658,0 -1.76207,-2.00645 -2.46134,-2.91157l-0.24579,-0.31819l0.4261,-0.62697c1.18532,-1.74411 1.48566,-3.06385 1.2916,-5.67574c-0.02944,-0.39579 -0.046,-0.72481 -0.0368,-0.7313c0.0092,-0.00639 0.47383,-0.21646 1.03272,-0.46679c0.55879,-0.25033 2.04801,-0.92298 3.30931,-1.49475c1.5099,-0.68433 2.31177,-1.02612 2.34716,-1.00025c0.02955,0.02165 0.25293,0.2183 0.49645,0.43692c1.89476,1.70136 4.46899,1.73751 6.38128,0.0894c2.74988,-2.36989 1.91998,-6.85706 -1.49897,-8.10483c-3.26624,-1.19203 -6.67209,1.38522 -6.43843,4.87225l0.02998,0.44861l-2.46805,1.114c-2.30885,1.04214 -3.9773,1.7743 -4.19766,1.84184c-0.07857,0.02414 -0.1434,-0.02662 -0.37382,-0.29276c-2.21988,-2.5634 -4.95775,-3.51246 -7.99389,-2.77098c-0.29265,0.07143 -0.56788,0.12987 -0.6116,0.12987c-0.05747,0 -0.19968,-0.21819 -0.51116,-0.78412c-0.23735,-0.43118 -1.08489,-1.96901 -1.88351,-3.41743c-0.79862,-1.44832 -1.452,-2.65778 -1.452,-2.68786c0,-0.02998 0.1065,-0.17685 0.2367,-0.32642c2.36242,-2.71308 1.08099,-6.91896 -2.39359,-7.85622c-0.44406,-0.11981 -1.64162,-0.15282 -2.10051,-0.0579m10.64712,16.83738c-0.01569,0.18594 -0.02857,0.51268 -0.02857,0.72622l0,0.38822l-0.20986,0.02652c-1.05328,0.13312 -1.48447,0.27133 -2.10927,0.67654c-1.08932,0.70619 -1.81576,1.82106 -2.03254,3.11916c-0.03701,0.221 -0.07717,0.44666 -0.0894,0.50132c-0.02197,0.09784 -0.03279,0.09935 -0.71204,0.09935l-0.68985,0l0.02262,-0.43064c0.14762,-2.82347 2.79847,-5.40116 5.59489,-5.44066l0.28259,-0.004l-0.02857,0.338" id="svg_6"/>
   </g>
  </g>
 </g>
</svg>