<?xml version="1.0" encoding="utf-8"?>
<!-- Generator: Adobe Illustrator 25.2.1, SVG Export Plug-In . SVG Version: 6.00 Build 0)  -->
<svg version="1.1" id="svg2160" xmlns:svg="http://www.w3.org/2000/svg"
	 xmlns="http://www.w3.org/2000/svg" xmlns:xlink="http://www.w3.org/1999/xlink" x="0px" y="0px" viewBox="0 0 176.4 176.4"
	 style="enable-background:new 0 0 176.4 176.4;" xml:space="preserve">
<style type="text/css">
	.st0{clip-path:url(#SVGID_2_);fill:#E57536;}
	.st1{clip-path:url(#SVGID_4_);fill:#F9C926;}
	.st2{clip-path:url(#SVGID_6_);}
	.st3{fill:#F9C926;}
	.st4{fill:#A9262C;}
	.st5{fill:#E57536;}
	.st6{clip-path:url(#SVGID_8_);fill:none;}
	.st7{fill:none;stroke:#000000;stroke-width:5;stroke-miterlimit:3.9945;}
	.st8{fill:#005981;}
</style>
<g>
	<g>
		<g>
			<defs>
				<path id="SVGID_1_" d="M86.6,34.7c-2.5,0-5.1,0-7.6,0.2c-9.6,0.5-19.9,1.8-28.7,5.7C30.2,49.4,14.3,70,6.1,90
					c-0.5,1.3-0.9,2.7-1.1,4.2c-0.8,6.2,1.6,15.6,7,19.3c3.2,2.3,7.2,2.5,11,2.6c4.7,0.1,9.4,0.6,14,1.3c9.3,1.5,18.5,3.9,27.7,5.7
					c8.5,1.6,17.3,2.8,24.5,7.6c6.2,4.2,15,8.8,22.8,6.5c5.4-1.6,10.1-5.5,13.5-9.9c1.2-1.6,2.4-5,4.3-5.7c1.8-0.6,4.2,0.6,6,0.8
					c9.6,1,18.6,1.7,25.5-6.3c3.3-3.8,5.1-8.6,6.5-13.4c1.6-5.8,2.6-12,1.8-18.1s-3.9-11.7-7.2-16.9c-1-1.5-1.9-2.9-3-4.3
					c-2.4-3.2-5.2-6-8.3-8.5c-9.6-7.8-22-12.6-33.8-16C107.4,36.3,97,34.8,86.6,34.7z"/>
			</defs>
			<clipPath id="SVGID_2_">
				<use xlink:href="#SVGID_1_"  style="overflow:visible;"/>
			</clipPath>
			<polygon class="st0" points="161.9,116.8 116,111.7 121.6,105.3 167.7,109.4 			"/>
		</g>
	</g>
	<g>
		<g>
			<defs>
				<path id="SVGID_3_" d="M86.6,34.7c-2.5,0-5.1,0-7.6,0.2c-9.6,0.5-19.9,1.8-28.7,5.7C30.2,49.4,14.3,70,6.1,90
					c-0.5,1.3-0.9,2.7-1.1,4.2c-0.8,6.2,1.6,15.6,7,19.3c3.2,2.3,7.2,2.5,11,2.6c4.7,0.1,9.4,0.6,14,1.3c9.3,1.5,18.5,3.9,27.7,5.7
					c8.5,1.6,17.3,2.8,24.5,7.6c6.2,4.2,15,8.8,22.8,6.5c5.4-1.6,10.1-5.5,13.5-9.9c1.2-1.6,2.4-5,4.3-5.7c1.8-0.6,4.2,0.6,6,0.8
					c9.6,1,18.6,1.7,25.5-6.3c3.3-3.8,5.1-8.6,6.5-13.4c1.6-5.8,2.6-12,1.8-18.1s-3.9-11.7-7.2-16.9c-1-1.5-1.9-2.9-3-4.3
					c-2.4-3.2-5.2-6-8.3-8.5c-9.6-7.8-22-12.6-33.8-16C107.4,36.3,97,34.8,86.6,34.7z"/>
			</defs>
			<clipPath id="SVGID_4_">
				<use xlink:href="#SVGID_3_"  style="overflow:visible;"/>
			</clipPath>
			<polygon class="st1" points="166.8,108.3 122.2,104.4 128.2,98.5 168.9,102.1 			"/>
		</g>
	</g>
	<g>
		<g>
			<defs>
				<path id="SVGID_5_" d="M86.6,34.7c-2.5,0-5.1,0-7.6,0.2c-9.6,0.5-19.9,1.8-28.7,5.7C30.2,49.4,14.3,70,6.1,90
					c-0.5,1.3-0.9,2.7-1.1,4.2c-0.8,6.2,1.6,15.6,7,19.3c3.2,2.3,7.2,2.5,11,2.6c4.7,0.1,9.4,0.6,14,1.3c9.3,1.5,18.5,3.9,27.7,5.7
					c8.5,1.6,17.3,2.8,24.5,7.6c6.2,4.2,15,8.8,22.8,6.5c5.4-1.6,10.1-5.5,13.5-9.9c1.2-1.6,2.4-5,4.3-5.7c1.8-0.6,4.2,0.6,6,0.8
					c9.6,1,18.6,1.7,25.5-6.3c3.3-3.8,5.1-8.6,6.5-13.4c1.6-5.8,2.6-12,1.8-18.1s-3.9-11.7-7.2-16.9c-1-1.5-1.9-2.9-3-4.3
					c-2.4-3.2-5.2-6-8.3-8.5c-9.6-7.8-22-12.6-33.8-16C107.4,36.3,97,34.8,86.6,34.7z"/>
			</defs>
			<clipPath id="SVGID_6_">
				<use xlink:href="#SVGID_5_"  style="overflow:visible;"/>
			</clipPath>
			<g class="st2">
				<g>
					<g>
						<g>
							<g>
								<g>
									<g>
										<polygon class="st3" points="122.2,104.4 63.1,37.8 91.9,33.1 128.2,98.5 										"/>
									</g>
								</g>
							</g>
						</g>
					</g>
				</g>
				<g>
					<g>
						<g>
							<g>
								<g>
									<g>
										<polygon class="st4" points="110.2,117.9 20.9,65.4 38.5,48 115.5,112.3 										"/>
									</g>
								</g>
							</g>
						</g>
					</g>
				</g>
				<g>
					<g>
						<g>
							<g>
								<g>
									<g>
										<polygon class="st5" points="116.1,111.7 40.4,48.1 61.3,37.1 121.6,105.3 										"/>
									</g>
								</g>
							</g>
						</g>
					</g>
				</g>
			</g>
		</g>
	</g>
	<g>
		<g>
			<defs>
				<path id="SVGID_7_" d="M86.6,34.7c-2.5,0-5.1,0-7.6,0.2c-9.6,0.5-19.9,1.8-28.7,5.7C30.2,49.4,14.3,70,6.1,90
					c-0.5,1.3-0.9,2.7-1.1,4.2c-0.8,6.2,1.6,15.6,7,19.3c3.2,2.3,7.2,2.5,11,2.6c4.7,0.1,9.4,0.6,14,1.3c9.3,1.5,18.5,3.9,27.7,5.7
					c8.5,1.6,17.3,2.8,24.5,7.6c6.2,4.2,15,8.8,22.8,6.5c5.4-1.6,10.1-5.5,13.5-9.9c1.2-1.6,2.4-5,4.3-5.7c1.8-0.6,4.2,0.6,6,0.8
					c9.6,1,18.6,1.7,25.5-6.3c3.3-3.8,5.1-8.6,6.5-13.4c1.6-5.8,2.6-12,1.8-18.1s-3.9-11.7-7.2-16.9c-1-1.5-1.9-2.9-3-4.3
					c-2.4-3.2-5.2-6-8.3-8.5c-9.6-7.8-22-12.6-33.8-16C107.4,36.3,97,34.8,86.6,34.7z"/>
			</defs>
			<clipPath id="SVGID_8_">
				<use xlink:href="#SVGID_7_"  style="overflow:visible;"/>
			</clipPath>
			<line class="st6" x1="128.8" y1="122.3" x2="117.4" y2="134.7"/>
		</g>
	</g>
</g>
<polygon class="st4" points="149.3,123.6 110.2,117.9 115.5,112.4 160.8,117.3 "/>
<path class="st7" d="M133.5,120.5"/>
<g>
	<g>
		<g>
			<g>
				<g>
					<g>
						<polygon class="st8" points="104.7,124.6 8.4,86.8 22,67.3 110,118.9 						"/>
					</g>
				</g>
			</g>
		</g>
	</g>
</g>
<polygon class="st8" points="126.8,128.3 104.7,124.6 110,119 130.3,121.9 "/>
<g>
	<path id="path2179_1_" class="st7" d="M87.1,35c-2.5,0-5.1,0-7.6,0.2C70,35.7,59.7,37,50.8,40.9c-20.1,8.9-36,29.4-44.2,49.4
		c-0.5,1.3-0.9,2.7-1.1,4.2c-0.8,6.2,1.6,15.6,7,19.3c3.2,2.3,7.2,2.5,11,2.6c4.7,0.1,9.4,0.6,14,1.3c9.3,1.5,18.5,3.9,27.7,5.7
		c8.5,1.6,17.3,2.8,24.5,7.6c6.2,4.2,15,8.8,22.8,6.5c5.4-1.6,10.1-5.5,13.5-9.9c1.2-1.6,2.4-5,4.3-5.7c1.8-0.6,4.2,0.6,6,0.8
		c9.6,1,18.6,1.7,25.6-6.3c3.3-3.8,5.1-8.6,6.5-13.4c1.6-5.8,2.6-12,1.8-18.1S166.3,73.2,163,68c-1-1.5-1.9-2.9-3-4.3
		c-2.4-3.1-5.2-6-8.3-8.5c-9.6-7.8-22-12.6-33.8-16C107.9,36.6,97.5,35.1,87.1,35z"/>
</g>
</svg>
