<svg xmlns="http://www.w3.org/2000/svg" width="326.234" height="293.555" viewBox="0 0 326.234 293.555">
  <g id="paper" transform="translate(0 -25.643)">
    <path id="Path_478" data-name="Path 478" d="M60,85.643H79.115v29.31H60Z" transform="translate(-21.77 -21.77)" fill="#579d42"/>
    <path id="Path_479" data-name="Path 479" d="M422,150.64h19.115v19.115H422Z" transform="translate(-153.112 -45.352)" fill="#579d42"/>
    <path id="Path_480" data-name="Path 480" d="M120,85.643h30.258v19.115H120Z" transform="translate(-43.539 -21.77)" fill="#579d42"/>
    <path id="Path_481" data-name="Path 481" d="M326.234,67.057H223.648V25.643H0V177.291H14.639V311.733H198.8V248.664a80.6,80.6,0,0,0,11.163-4.05L284.546,319.2l40.55-40.55-30-30h31.134Zm-105.8,147.483c-38.8,38.724-105.377,11.147-105.43-43.671-.656-33.576,28.9-62.415,61.759-61.729C231.38,109.222,259.3,175.364,220.437,214.541ZM19.115,44.758H204.533V94.922c-31.022-11.6-68.786-2.279-90.6,25.022h-75.7V139.06H102.37a80.087,80.087,0,0,0-5.487,19.115H19.115ZM179.683,292.617H33.754V177.291H96.145c2.515,42.458,41.925,76.752,83.538,74.358Zm104.862-.452-57.752-57.752A81.629,81.629,0,0,0,240.316,220.9l57.746,57.746Zm22.573-62.628H275.983l-25.44-25.44c13.759-29.767,7.05-67.433-16.589-90.413a81.1,81.1,0,0,0-10.305-8.715v-18.8h83.47Z" fill="#579d42"/>
    <path id="Path_482" data-name="Path 482" d="M83,384.64h54.16v19.115H83Z" transform="translate(-30.114 -130.253)" fill="#579d42"/>
  </g>
</svg>
